<svg xmlns="http://www.w3.org/2000/svg" xmlns:xlink="http://www.w3.org/1999/xlink" width="250" height="250" viewBox="0 0 250 250">
  <defs>
    <clipPath id="clip-iPhone_14_Pro_Max_8">
      <rect width="250" height="250"/>
    </clipPath>
  </defs>
  <g id="iPhone_14_Pro_Max_8" data-name="iPhone 14 Pro Max – 8" clip-path="url(#clip-iPhone_14_Pro_Max_8)">
    <rect width="250" height="250" fill="#fff"/>
    <g id="people" transform="translate(11.898 514.992)">
      <path id="Path_243" data-name="Path 243" d="M60.745-503.336c-6.15.975-11.112,3.181-17.219,7.676a27.876,27.876,0,0,1-4.453,2.926,22.737,22.737,0,0,0-3.435,1.484A21.329,21.329,0,0,0,24.059-472.63c0,4.283.848,7.04,4.2,13.784l2.969,5.9-1.654.3a11.451,11.451,0,0,0-6.659,4.5c-1.06,1.611-1.188,2.163-1.188,5.513,0,3.436.085,3.817,1.272,5.514a10.814,10.814,0,0,0,7.252,4.453l2.121.254.806,2.842a33.331,33.331,0,0,0,13.7,18.491l1.781,1.188v9.076l-15.565,6.446c-8.61,3.563-16.625,7.167-17.855,7.974A16.277,16.277,0,0,0,9.3-379.2l-1.145,2.46-.127,25.362L7.9-326.056,8.96-325l1.06,1.061H35.086v28.458l1.06,1.018,1.018,1.061H189.083l1.018-1.061,1.06-1.018v-28.458h25.065L217.244-325l1.06-1.018v-24.3c0-25.4-.085-26.465-1.909-30.027a16.423,16.423,0,0,0-5.386-6.064c-1.23-.807-9.246-4.411-17.813-7.974l-15.608-6.489V-409.9l1.824-1.187a33.454,33.454,0,0,0,13.657-18.491l.806-2.842,2.121-.254a9.792,9.792,0,0,0,8.652-9.542,7.612,7.612,0,0,0-1.06-5.132,10.394,10.394,0,0,0-6.913-5.3,5.981,5.981,0,0,1-1.7-.424c0-.084.891-2.205,1.951-4.75,2.417-5.556,3.054-7.846,3.393-12a27.885,27.885,0,0,0-8.1-20.994c-3.308-3.266-5.938-4.792-15.056-8.822-7.295-3.181-10.476-3.9-16.753-3.859-8.4.127-14.123,2.163-21.884,7.846a27.875,27.875,0,0,1-4.453,2.926c-1.527,0-6.616,3.181-8.949,5.641a19.8,19.8,0,0,0-5.938,15.989,31.375,31.375,0,0,0,.551,4.581c.255.89.17.933-.933.636-1.739-.424-10.221-.3-12.384.212l-1.824.424.339-1.569a33.255,33.255,0,0,0-.509-11.494A28.739,28.739,0,0,0,92.3-494.77c-3.732-2.205-15.141-7.125-18.322-7.889A42.434,42.434,0,0,0,60.745-503.336Zm12.087,7.422c3.944,1.018,15.565,6.489,18.025,8.482a20.414,20.414,0,0,1,7.464,18.873c-.848,5.174-1.357,5.98-5.81,9.2a39.345,39.345,0,0,1-9.118,5.387,21.041,21.041,0,0,0-11.2,24.132,61.346,61.346,0,0,0,3.6,8.355l2.969,5.938H76.607a9.487,9.487,0,0,0-7.8,3.181c-4.326,4.284-4.326,9.712,0,14,2.46,2.5,4.326,3.181,8.44,3.181,2.163,0,2.8.127,2.8.594,0,1.442,2.757,8.058,4.411,10.688a41.53,41.53,0,0,0,9.458,9.8l2.248,1.527v8.737l-2.205.636c-1.23.339-11.96,3.308-23.878,6.616-11.875,3.266-22.478,6.277-23.538,6.616a17.545,17.545,0,0,0-11.451,16.541v2.714h-20.4l.127-22.351c.127-22.224.127-22.393,1.06-24.174a13.928,13.928,0,0,1,2.46-3.012c.933-.763,8.1-3.986,18.7-8.355,11.112-4.623,17.389-7.464,17.813-8.016.467-.679.594-2.545.594-8.524,0-8.822.042-8.737-3.732-10.857a34.045,34.045,0,0,1-5.429-4.411,26.52,26.52,0,0,1-7.21-13.572c-.891-4.581-1.7-5.3-5.726-5.3-2.587,0-3.1-.127-3.987-1.061a3.116,3.116,0,0,1,0-4.665c.891-.933,1.4-1.06,4.029-1.06s3.138-.128,4.029-1.061c.891-.848,1.06-1.442,1.06-3.689,0-2.5-.212-3.138-3.69-10.264l-3.732-7.634v-3.817c0-3.6.085-4.071,1.442-6.531a13.045,13.045,0,0,1,6.828-6.319,33.243,33.243,0,0,0,8.906-5.217,32.482,32.482,0,0,1,12.808-5.937A34.995,34.995,0,0,1,72.832-495.915Zm95,0c3.944,1.018,15.565,6.489,18.025,8.482a20.472,20.472,0,0,1,7.507,13.232c.679,4.029-.085,7.762-3.054,14.675-2.248,5.174-2.545,6.234-2.545,8.609s.17,2.884,1.06,3.774c.891.933,1.4,1.061,4.029,1.061s3.138.127,4.029,1.06a3.116,3.116,0,0,1,0,4.665c-.891.933-1.4,1.061-3.987,1.061-4.029,0-4.835.721-5.726,5.3a26.52,26.52,0,0,1-7.21,13.572,30.794,30.794,0,0,1-5.471,4.453c-3.732,2.078-3.69,1.993-3.69,10.857,0,6.744.085,7.8.763,8.567.424.509,7.931,3.9,17.77,7.974,10.518,4.369,17.6,7.549,18.576,8.313a13.928,13.928,0,0,1,2.46,3.012c.933,1.781.933,1.951,1.06,24.132l.127,22.393h-20.4v-2.714a18.1,18.1,0,0,0-9.627-15.9c-.509-.254-11.96-3.52-25.447-7.252-13.487-3.775-24.853-6.913-25.235-7.041-.679-.212-.763-.805-.763-4.58v-4.369l2.333-1.569A42.322,42.322,0,0,0,142.3-384.8a43.178,43.178,0,0,0,2.926-6.616l1.188-3.774h2.714c4.029,0,5.9-.721,8.313-3.181,4.326-4.284,4.326-9.712,0-14a9.487,9.487,0,0,0-7.8-3.181,7.425,7.425,0,0,1-2.163-.169c0-.085.891-2.248,1.951-4.793,2.417-5.556,3.054-7.846,3.393-12a27.808,27.808,0,0,0-8.1-20.994c-2.842-2.841-3.775-3.436-9.5-6.234l-6.362-3.1-1.4-2.969c-1.272-2.672-1.4-3.351-1.4-6.786,0-3.52.085-4.029,1.442-6.489a13.045,13.045,0,0,1,6.828-6.319,33.244,33.244,0,0,0,8.906-5.217,32.481,32.481,0,0,1,12.808-5.937A34.995,34.995,0,0,1,167.834-495.915Zm-47.416,37.322c3.732.975,15.565,6.574,17.94,8.482,7.252,5.938,9.755,16.031,5.98,24.217l-.975,2.078-1.951-3.9c-2.969-5.853-3.9-6.065-9.415-1.994-7.083,5.217-10.645,6.744-16.922,7.21-7.125.552-12.978-1.4-20.1-6.659-6.362-4.708-7.168-4.58-10.264,1.7a22.849,22.849,0,0,1-2.121,3.859,19.465,19.465,0,0,1-2.163-3.944c-1.781-3.732-1.866-4.072-1.866-7.719,0-3.52.085-4.029,1.442-6.489a13.409,13.409,0,0,1,6.828-6.4c1.951-.933,2.926-1.1,5.938-1.1,3.138,0,3.987.17,6.362,1.315a17.117,17.117,0,0,1,6.828,5.641l1.06,1.442,2.63-1.781a11.974,11.974,0,0,0,2.63-2.121c0-.636-3.181-4.5-5.047-6.065-1.993-1.7-6.362-4.157-7.422-4.157-1.781,0-.254-1.187,3.266-2.586A29.122,29.122,0,0,1,120.418-458.592ZM94.462-421.27c6.107,4.029,11.069,5.471,18.661,5.471s12.554-1.442,18.661-5.471A36.89,36.89,0,0,1,135.6-423.6a33.2,33.2,0,0,1,2.5,4.581l2.248,4.58-.17,8.864c-.17,8.313-.254,9.119-1.272,12a26.94,26.94,0,0,1-6.7,10.688,26.942,26.942,0,0,1-10.688,6.7c-2.672.933-3.775,1.1-8.185,1.145-4.114,0-5.641-.169-8.058-.933a28.175,28.175,0,0,1-16.244-13.7c-2.5-5-3.054-8.016-3.054-17.262V-414.7l2.205-4.454a32.533,32.533,0,0,1,2.46-4.453A36.89,36.89,0,0,1,94.462-421.27Zm-15.268,15.9v3.393H76.861c-2.842,0-4.453-1.23-4.453-3.393s1.612-3.393,4.453-3.393h2.333Zm73.584-2.333a3.305,3.305,0,0,1,1.06,2.333c0,2.163-1.612,3.393-4.453,3.393h-2.333v-6.786h2.333C151.336-408.759,151.93-408.589,152.778-407.7ZM113.123-368.34a33.588,33.588,0,0,0,7.973-.636l2.205-.636v6.871l-5.089,5.089-5.089,5.089-5.089-5.089-5.089-5.089v-6.871l2.248.636A32.925,32.925,0,0,0,113.123-368.34Zm-8.058,17.474c5.938,5.853,6.786,6.574,8.058,6.574s2.121-.721,8.058-6.574l6.616-6.574,25.192,7c26.762,7.422,27.483,7.719,29.561,10.773a12.564,12.564,0,0,1,1.4,2.969c.254.891.424,8.609.424,19v17.516H164.017v-27.144h-6.786v27.144H69.015v-27.144H62.229v27.144H41.872V-317.7c0-10.391.17-18.11.424-19a12.566,12.566,0,0,1,1.4-2.969c2.036-3.054,2.842-3.351,29.349-10.73,13.784-3.86,25.108-7,25.235-7C98.364-357.44,101.418-354.472,105.065-350.867Z" transform="translate(0 0)" fill="#ed1c24" stroke="#ed1c24" stroke-width="0.2"/>
    </g>
  </g>
</svg>
