<svg xmlns="http://www.w3.org/2000/svg" width="19.44" height="19.44" viewBox="0 0 19.44 19.44">
  <g id="Icon_ionic-ios-close-circle-outline" data-name="Icon ionic-ios-close-circle-outline" transform="translate(-3.375 -3.375)">
    <path id="Path_3178" data-name="Path 3178" d="M19.627,18.569l-2.463-2.463,2.463-2.463a.747.747,0,0,0-1.056-1.056L16.108,15.05l-2.463-2.463a.747.747,0,0,0-1.056,1.056l2.463,2.463-2.463,2.463a.722.722,0,0,0,0,1.056.742.742,0,0,0,1.056,0l2.463-2.463,2.463,2.463a.75.75,0,0,0,1.056,0A.742.742,0,0,0,19.627,18.569Z" transform="translate(-3.013 -3.012)"/>
    <path id="Path_3179" data-name="Path 3179" d="M13.095,4.683A8.408,8.408,0,1,1,7.146,7.146a8.356,8.356,0,0,1,5.949-2.463m0-1.308a9.72,9.72,0,1,0,9.72,9.72,9.718,9.718,0,0,0-9.72-9.72Z"/>
  </g>
</svg>
