<svg xmlns="http://www.w3.org/2000/svg" width="14.992" height="15.031" viewBox="0 0 14.992 15.031">
  <g id="balance-sheet" transform="translate(-1 512)">
    <path id="Path_2852" data-name="Path 2852" d="M1.57-511.968a.971.971,0,0,0-.467.361l-.088.144-.009.8c-.009.776-.006.805.053.864a.233.233,0,0,0,.264.029c.1-.053.118-.194.118-.873,0-.57.006-.673.05-.746.109-.185-.141-.173,4.135-.173H9.519l.009.961c.009,1.1.009,1.093.276,1.328.223.2.3.209,1.325.209h.89v4.249l-.135.1a2.683,2.683,0,0,0-.735.99,2.65,2.65,0,0,0-.162,1.325,2.359,2.359,0,0,0,.726,1.4l.3.3H11.8a.864.864,0,0,0-.638.173c-.167.15-.2.241-.2.614a.9.9,0,0,0,.056.429c.059.112.059.112,0,.217a1.537,1.537,0,0,0,0,.87c.056.112.056.115,0,.226a.875.875,0,0,0-.059.438v.323H6.345c-5.069,0-4.746.012-4.855-.173-.047-.079-.05-.464-.05-5.742,0-4.052-.009-5.68-.032-5.748a.206.206,0,0,0-.344-.091L1-509.088v11.534l.076.153a.788.788,0,0,0,.376.367l.12.065H15.6l.129-.088c.212-.15.259-.267.259-.655a.889.889,0,0,0-.059-.444c-.056-.112-.056-.115,0-.226a1.482,1.482,0,0,0,0-.861c-.056-.112-.056-.115,0-.226a.855.855,0,0,0,.059-.429c0-.373-.029-.464-.2-.614a.864.864,0,0,0-.638-.173h-.217l.3-.3a2.257,2.257,0,0,0,.617-.961,2.506,2.506,0,0,0-.4-2.363,2.421,2.421,0,0,0-.861-.693,2.015,2.015,0,0,0-1.02-.256,2.259,2.259,0,0,0-.97.138l-.141.053-.006-2.157-.009-2.157-1.308-1.308L9.83-512l-4.085,0C3.392-512,1.623-511.982,1.57-511.968Zm10.1,2.442a4.8,4.8,0,0,1-.691.023c-.773,0-.852-.015-.955-.182-.056-.091-.059-.147-.059-.832v-.735l.852.852C11.285-509.931,11.667-509.537,11.667-509.526Zm2.289,4.743a2.125,2.125,0,0,1,1.272.923,2.043,2.043,0,0,1,.091,2.028,1.558,1.558,0,0,1-.388.532,1.558,1.558,0,0,1-.532.388,2.018,2.018,0,0,1-1.851,0,1.558,1.558,0,0,1-.532-.388,1.558,1.558,0,0,1-.388-.532,2.029,2.029,0,0,1,.112-2.057,2.094,2.094,0,0,1,1.22-.885A2.526,2.526,0,0,1,13.956-504.783Zm1.525,4.584c.059.041.065.071.065.291s-.006.25-.065.291a10.465,10.465,0,0,1-2.007.047,10.465,10.465,0,0,1-2.007-.047c-.059-.041-.065-.071-.065-.291s.006-.25.065-.291a10.48,10.48,0,0,1,2.007-.047A10.48,10.48,0,0,1,15.481-500.2Zm.029,1.1a.616.616,0,0,1,.035.27c0,.379.223.341-2.066.341a8.925,8.925,0,0,1-2.025-.05c-.044-.038-.053-.091-.053-.288a.623.623,0,0,1,.035-.273C11.488-499.144,15.461-499.144,15.511-499.094Zm0,1.087a.658.658,0,0,1,.035.294c0,.223-.006.262-.056.288-.079.041-3.952.041-4.032,0-.05-.026-.056-.065-.056-.288a.658.658,0,0,1,.035-.294C11.488-498.056,15.461-498.056,15.511-498.006Z" transform="translate(0 0)" fill="#fff"/>
    <path id="Path_2853" data-name="Path 2853" d="M373.5-250.91a1.648,1.648,0,0,0-1.014.811,1.56,1.56,0,0,0,.135,1.634,1.563,1.563,0,0,0,1.525.617c.447-.088.644-.244.538-.432-.07-.123-.173-.141-.385-.068a1.057,1.057,0,0,1-.67.053,1.133,1.133,0,0,1-.855-.908,1.172,1.172,0,0,1,.256-.929,1.162,1.162,0,0,1,1.161-.338,1.1,1.1,0,0,1,.714.626.819.819,0,0,1,.088.444,1.216,1.216,0,0,1-.065.42.526.526,0,0,0-.044.22.208.208,0,0,0,.2.153c.135,0,.209-.076.276-.285a1.547,1.547,0,0,0-.376-1.6A1.545,1.545,0,0,0,373.5-250.91Z" transform="translate(-360.4 -253.373)" fill="#fff"/>
    <path id="Path_2854" data-name="Path 2854" d="M202.076-449.938l-.076.059v4.4l.065.062c.062.056.1.059.746.059.626,0,.688-.006.749-.056l.071-.056.009-2.157c.006-1.5,0-2.177-.023-2.23-.056-.129-.132-.144-.82-.144C202.191-450,202.15-450,202.076-449.938Zm1.128,2.26v1.881h-.764v-3.761h.764Z" transform="translate(-195.093 -60.178)" fill="#fff"/>
    <path id="Path_2855" data-name="Path 2855" d="M65.075-420.959a.3.3,0,0,0-.082.118c-.041.115-.041,3.356,0,3.482a.245.245,0,0,0,.085.12,9.066,9.066,0,0,0,1.44,0c.112-.059.118-.162.118-1.887,0-1.766,0-1.807-.132-1.857-.026-.009-.35-.018-.714-.018A2.521,2.521,0,0,0,65.075-420.959ZM66.2-419.1v1.455H65.4v-2.909H66.2Z" transform="translate(-62.083 -88.326)" fill="#fff"/>
    <path id="Path_2856" data-name="Path 2856" d="M134.065-391.941l-.065.062v2.7l.065.062c.062.056.1.059.732.059.367,0,.691-.009.717-.018.126-.05.132-.121.132-1.452s-.006-1.4-.132-1.452c-.026-.009-.35-.018-.717-.018C134.165-392,134.126-392,134.065-391.941Zm1.14,1.41v1.029h-.764v-2.057h.764Z" transform="translate(-129.092 -116.474)" fill="#fff"/>
    <path id="Path_2857" data-name="Path 2857" d="M270.076-365.938l-.076.059v1.928l.068.062c.068.062.091.065.746.065.623,0,.685-.006.746-.056l.07-.056.009-.92c.009-.981,0-1.049-.129-1.111A3.92,3.92,0,0,0,270.8-366C270.191-366,270.15-366,270.076-365.938Zm1.128,1.026v.646h-.764v-1.293h.764Z" transform="translate(-261.095 -141.71)" fill="#fff"/>
    <path id="Path_2858" data-name="Path 2858" d="M46.012-274.938a.2.2,0,0,0-.009.314l.068.065H50.32c2.339,0,4.273-.009,4.3-.018a.227.227,0,0,0,.088-.109.212.212,0,0,0-.091-.282c-.053-.024-1.2-.032-4.3-.032H46.092Z" transform="translate(-43.614 -230.036)" fill="#fff"/>
    <path id="Path_2859" data-name="Path 2859" d="M65.159-222.944c-.085.085-.1.2-.085.805.009.523.012.55.076.614l.068.068,1.731.009,1.734.009v1.7c0,1.208.009,1.722.032,1.775a.215.215,0,0,0,.291.091.276.276,0,0,0,.1-.088c.009-.026.018-.82.018-1.766v-1.713l1.737-.009,1.737-.009.071-.082c.071-.082.071-.091.071-.7s0-.617-.073-.688L72.593-223H68.9C65.288-223,65.214-223,65.159-222.944Zm3.523.723v.338l-1.578-.006-1.581-.009-.009-.332-.009-.329h3.177Zm3.609-.009-.009.332H69.137l-.009-.332-.009-.329H72.3Z" transform="translate(-62.187 -280.507)" fill="#fff"/>
    <path id="Path_2860" data-name="Path 2860" d="M81.073-147.927a.242.242,0,0,0-.073.147.242.242,0,0,0,.073.147l.071.073h2.092l.071-.073a.242.242,0,0,0,.073-.147.242.242,0,0,0-.073-.147L83.236-148H81.144Z" transform="translate(-77.649 -353.304)" fill="#fff"/>
    <path id="Path_2861" data-name="Path 2861" d="M229.6-147.962a.209.209,0,0,0-.082.259.229.229,0,0,0,.088.115,10.085,10.085,0,0,0,1.093.029h1.04l.062-.068a.207.207,0,0,0-.012-.311c-.076-.059-.109-.062-1.111-.062A5.878,5.878,0,0,0,229.6-147.962Z" transform="translate(-221.786 -353.304)" fill="#fff"/>
    <path id="Path_2862" data-name="Path 2862" d="M81.021-109.932a.2.2,0,0,0,.056.329,4.262,4.262,0,0,0,1.067.044c1.04,0,1.1-.006,1.161-.138a.169.169,0,0,0-.029-.226L83.217-110H81.083Z" transform="translate(-77.606 -390.187)" fill="#fff"/>
    <path id="Path_2863" data-name="Path 2863" d="M229.691-109.941a.219.219,0,0,0,.026.314l.082.071,1.043-.009,1.043-.009.056-.071a.227.227,0,0,0,0-.3c-.056-.056-.1-.059-1.125-.059S229.744-110,229.691-109.941Z" transform="translate(-221.918 -390.187)" fill="#fff"/>
    <path id="Path_2864" data-name="Path 2864" d="M81.275-72.9a.207.207,0,0,0-.065.335l.059.076h2.139l.059-.076a.281.281,0,0,0,.062-.118.276.276,0,0,0-.138-.215A19.539,19.539,0,0,0,81.275-72.9Z" transform="translate(-77.797 -426.171)" fill="#fff"/>
    <path id="Path_2865" data-name="Path 2865" d="M229.3-72.912c-.071.073-.085.106-.071.17a.273.273,0,0,0,.082.129c.053.047.153.053,1.108.053h1.052l.062-.068a.2.2,0,0,0-.009-.3L231.454-73h-2.066Z" transform="translate(-221.518 -426.1)" fill="#fff"/>
  </g>
</svg>
