<svg xmlns="http://www.w3.org/2000/svg" width="16.839" height="18.067" viewBox="0 0 16.839 18.067">
  <g id="invoice_4_" data-name="invoice (4)" transform="translate(-52.36 -20.35)">
    <path id="Path_2761" data-name="Path 2761" d="M-12.178-.493h1.24l1.043,0H-9.6l1.828,0h.53l1.706,0,1.751,0,.983,0h1.265c.154,0,.309,0,.463,0l.137,0c.338,0,.338,0,.48.115A.544.544,0,0,1-.326.038c0,.068,0,.068,0,.138,0,.05,0,.1,0,.152s0,.107,0,.16q0,.217,0,.434t0,.454q0,.43,0,.859,0,.489,0,.978,0,1.006,0,2.012H-.2L.984,5.219l.611,0,.59,0h.224a1.893,1.893,0,0,1,1.4.357,1.536,1.536,0,0,1,.356,1.176q0,.08,0,.159,0,.215,0,.431,0,.135,0,.27,0,.471,0,.942,0,.438,0,.876,0,.377,0,.754,0,.225,0,.449t0,.423c0,.076,0,.152,0,.228a1.39,1.39,0,0,1-.392,1.043,1.334,1.334,0,0,1-.962.31H.9l-1.233,0v.805l.275,0,.9-.007.546,0,.527,0,.2,0H2.4l.084,0a.42.42,0,0,1,.328.116.473.473,0,0,1,.125.37v.257c0,.046,0,.091,0,.138q0,.145,0,.29c0,.147,0,.293,0,.44q0,.141,0,.282l0,.131a2.212,2.212,0,0,1-.594,1.526,2.039,2.039,0,0,1-1.362.58H-4.07l-1.748,0-1.8,0h-2.918a2.229,2.229,0,0,1-1.531-.6,2.074,2.074,0,0,1-.58-1.424v-.082q0-.137,0-.274,0-.1,0-.2,0-.273,0-.546,0-.294,0-.588,0-.71,0-1.42,0-.2,0-.4,0-1.245,0-2.49,0-.288,0-.577c0-.048,0-.1,0-.145q0-1.162,0-2.323,0-1.192,0-2.384,0-.67,0-1.339,0-.57,0-1.14,0-.291,0-.582,0-.266,0-.532,0-.1,0-.193c0-.087,0-.174,0-.262,0-.048,0-.1,0-.147a.586.586,0,0,1,.216-.361A.515.515,0,0,1-12.178-.493Zm.383.849c0,2.7,0,2.7-.006,5.406q0,.547,0,1.093c0,.046,0,.091,0,.138q0,1.106,0,2.212,0,1.135,0,2.27,0,.7,0,1.4,0,.48,0,.96,0,.277,0,.554,0,.254,0,.508,0,.092,0,.183a1.668,1.668,0,0,0,.4,1.288,1.266,1.266,0,0,0,.822.333,1.341,1.341,0,0,0,.9-.4,1.472,1.472,0,0,0,.319-1.061l0-.262q0-.206,0-.411t0-.4c0-.041,0-.082,0-.124a.7.7,0,0,1,.209-.581c.105-.008.207-.011.312-.011h.665l.642,0,.67,0,1.269,0,1.445-.005,2.973-.01v-.805h-.391l-1.282-.006-.777,0-.75,0H-4.66l-.4,0H-5.18a1.449,1.449,0,0,1-.985-.356,1.649,1.649,0,0,1-.171-.265l-.052-.095-.039-.072h-.066l-1.589-.009-.768,0-.741,0h-.283l-.4,0h-.119a.678.678,0,0,1-.562-.208.879.879,0,0,1-.017-.185l0-.1a.426.426,0,0,1,.213-.292,1.9,1.9,0,0,1,.412-.025h.537l.285,0,.751,0,.766,0q.752,0,1.5,0v-.805l-.384,0-1.256-.007-.761,0-.735,0h-.28l-.392,0h-.117c-.332,0-.332,0-.483-.132a.8.8,0,0,1-.038-.46.534.534,0,0,1,.23-.192c.056,0,.113-.006.169-.006h.351l.41,0,.283,0,.747-.006L-8,9.34l1.5-.012V7.718L-7.37,7.7l-.164,0h-.085a.579.579,0,0,1-.419-.134,1.216,1.216,0,0,1-.093-.529l0-.084q0-.132-.006-.264,0-.09,0-.18-.006-.219-.01-.439l-.129-.05a.349.349,0,0,1-.216-.18,2.728,2.728,0,0,1-.017-.379l0-.1a.53.53,0,0,1,.1-.389l.114-.087.069-.056c.08-.065.161-.128.243-.191l.09-.07q.5-.387,1.017-.757l.066-.048a.551.551,0,0,1,.414-.123.586.586,0,0,1,.255.116l.091.063c.162.118.322.239.48.361.3.231.3.231.6.454l.085.061.156.11.07.051.061.042c.057.063.057.063.172.331h3.259V.355Zm5.1,4.33-.09.071-.095.075a7.063,7.063,0,0,1-.585.431.647.647,0,0,0,.115.192c.006.1.01.209.012.314,0,.031,0,.063,0,.1q0,.151.007.3,0,.1,0,.2.006.251.012.5H-6.5l.01-.3a1.57,1.57,0,0,1,.182-.733l.039-.075a1.505,1.505,0,0,1,.689-.5,3.467,3.467,0,0,0-.544-.453l-.1-.069-.091-.066-.083-.06C-6.529,4.534-6.582,4.6-6.693,4.685ZM-5.62,6.277c-.063.186-.063.186-.041.6H3.312a.907.907,0,0,0-.115-.69,1.144,1.144,0,0,0-.61-.13H-5.029A.689.689,0,0,0-5.62,6.277Zm-.041,1.44a7.247,7.247,0,0,0,.153,3.988.729.729,0,0,0,.488.087h3.236l1.359,0H2.758a.637.637,0,0,0,.478-.174c.583-1.166.077-2.607.077-3.911Zm-2.876,6.557-.038,1.61a2.462,2.462,0,0,1-.307.729v.077l3.761.006h.534l1.431,0,1.469,0,.906,0H.7A1.465,1.465,0,0,0,1.764,16.3c.512-.527.321-1.379.321-2.025Z" transform="translate(65.024 20.863)" fill="#fff"/>
    <path id="Path_2762" data-name="Path 2762" d="M-10.954-.29h.658l.425,0h.27l.128,0c.294,0,.294,0,.445.091A.56.56,0,0,1-8.9.235c-.014.1-.014.1-.1.213a.588.588,0,0,1-.4.119h-.606l-.391,0h-.366c-.333,0-.333,0-.491-.129l-.068-.053a.5.5,0,0,1-.061-.352.432.432,0,0,1,.167-.286A.517.517,0,0,1-10.954-.29Z" transform="translate(76.449 29.669)" fill="#fff"/>
    <path id="Path_2763" data-name="Path 2763" d="M-18.71-.168l.25,0h.16l.146,0A.476.476,0,0,1-17.832,0a.772.772,0,0,1,.038.46.533.533,0,0,1-.307.23c-.17.011-.34.011-.51.012l-.142,0c-.433,0-.433,0-.613-.169a.522.522,0,0,1-.077-.422C-19.263-.218-19.049-.166-18.71-.168Z" transform="translate(85.325 30.77)" fill="#fff"/>
  </g>
</svg>
