<svg xmlns="http://www.w3.org/2000/svg" width="18.832" height="18.898" viewBox="0 0 18.832 18.898">
  <g id="exit_2_" data-name="exit (2)" transform="translate(-1.23 511.937)">
    <path id="Path_2096" data-name="Path 2096" d="M1.5-511.9a.582.582,0,0,0-.166.129l-.092.1-.007,8.279c-.007,6.527,0,8.3.037,8.371a.488.488,0,0,0,.137.155c.052.037,1.463.469,3.14.957a31.741,31.741,0,0,0,3.177.872.491.491,0,0,0,.24-.133l.111-.111.011-4.71.007-4.714.1-.041c.052-.026.565-.613,1.141-1.3l1.045-1.26,1.075-.2c.591-.107,1.09-.188,1.108-.181s-.3.875-.7,1.932a32.444,32.444,0,0,0-1.219,3.6l-.484,1.677-.587,1.112-.587,1.116v2.117h.177a.817.817,0,0,0,.584-.262c.063-.07.517-.89,1-1.825l.89-1.7.473-1.633c.259-.9.484-1.637.5-1.637.137,0,.251.148,1.023,1.363l.827,1.3-.6,1.688c-.329.927-.61,1.766-.621,1.866a.776.776,0,0,0,1.082.768.839.839,0,0,0,.406-.392c.107-.255,1.348-3.779,1.371-3.886.055-.281,0-.406-.632-1.4-.336-.528-.61-.975-.61-1a4.16,4.16,0,0,1,.14-.406c.081-.2.188-.484.244-.628l.1-.266.525.137.525.133.011.451.011.454h-.369c-.38,0-.484.018-.484.081,0,.022.214.377.48.791.58.909.613.975.669,1.282a1.531,1.531,0,0,1-.118.868,1.445,1.445,0,0,0-.07.247c0,.048.214.055,1.563.055.953,0,1.611-.015,1.7-.037a.5.5,0,0,0,.214-.137c.07-.092.074-.14.074-1.478,0-1.5,0-1.54-.2-1.629a1.574,1.574,0,0,0-.44-.044h-.347l-.011-.484-.015-.484-.122-.107a.35.35,0,0,0-.284-.107c-.107,0-.166-.015-.166-.048a.77.77,0,0,0-.432-.628c-.078-.033-.61-.181-1.182-.325s-1.038-.277-1.031-.288.174-.443.373-.96a3.685,3.685,0,0,0,.358-1.164.956.956,0,0,0-.462-.85c-.159-.092-1.555-.65-1.891-.754s-.632-.078-2.586.284a18.615,18.615,0,0,0-1.958.41,11.721,11.721,0,0,0-.831.938l-.72.868L8.093-507.3a12.02,12.02,0,0,0-.085-2.7.492.492,0,0,0-.185-.151c-.066-.026-.757-.233-1.54-.462s-1.43-.421-1.437-.428,1.725-.015,3.849-.015h3.868v1.644a7.914,7.914,0,0,0,.048,1.644c.022,0,.211-.026.414-.055s.384-.055.4-.055.022-.846.018-1.877c-.011-1.744-.015-1.884-.078-1.98-.144-.218.2-.207-6.055-.2C4.155-511.936,1.539-511.921,1.5-511.9ZM6.6-503.177a.431.431,0,0,1,.148.137c.059.085.066.229.078,1.389.007.709,0,1.367-.011,1.456a.439.439,0,0,1-.624.355c-.244-.118-.244-.115-.244-1.7v-1.419l.1-.115A.431.431,0,0,1,6.6-503.177Zm11.685,1.951V-501H17.143v-.443h1.145Z" transform="translate(0)" fill="#ed1c24"/>
    <path id="Path_2097" data-name="Path 2097" d="M363.477-463.717a1.473,1.473,0,0,0-1.057,1.112,1.484,1.484,0,0,0,1.223,1.784,1.488,1.488,0,0,0,1.685-1.226A1.487,1.487,0,0,0,363.477-463.717Z" transform="translate(-347.811 -46.39)" fill="#ed1c24"/>
    <path id="Path_2098" data-name="Path 2098" d="M258.935-184.4l-.129.417-.018,1.681-.018,1.681-.7.011-.7.007-.233.443-.233.443h1.925v-.133a5.833,5.833,0,0,1,.469-1.559l.38-1.079v-1.437l-.277-.436a5.3,5.3,0,0,0-.307-.447A1.688,1.688,0,0,0,258.935-184.4Z" transform="translate(-246.225 -315.051)" fill="#ed1c24"/>
  </g>
</svg>
