<svg xmlns="http://www.w3.org/2000/svg" width="8.211" height="9.086" viewBox="0 0 8.211 9.086">
  <g id="Group_15159" data-name="Group 15159" transform="translate(-366.852 -216.559)">
    <path id="Path_2469" data-name="Path 2469" d="M371.11,217.19l.9-.081.3.488v.814l-.244.366-.285-.176-.054-.421-1.33,1.248-.705-.231-2.306,2.062-.285-.353.868-.95,1.452-1.425.787.244.393-.312.692-.678-.556-.136v-.366Z" transform="translate(-0.152 -0.483)" fill="#9b0f8d" opacity="0.12"/>
    <path id="Path_2496" data-name="Path 2496" d="M373.991,221.651l-1.836,1.545-3.518.908-.824-2.306.532-.616.052-1.211.751-.15.438.975.845-.24.313.449-.637.887-.1.177h1.2l1.409-.543.918-.574Z" transform="translate(0.994 0.248)" fill="#9b0f8d" opacity="0.12"/>
    <g id="order" transform="translate(366.852 216.559)">
      <g id="sales" transform="translate(0 0)">
        <path id="Path_2493" data-name="Path 2493" d="M28.962-511.957a.356.356,0,0,0-.2.206.44.44,0,0,0,.057.44.45.45,0,0,0,.266.122l.091.011-.4.387-.4.385-.248-.13c-.287-.149-.355-.167-.5-.124-.1.03-.11.037-1.221,1.157-.614.619-1.136,1.157-1.159,1.194a.477.477,0,0,0-.051.163.424.424,0,0,0,.256.417.46.46,0,0,0,.309,0c.034-.016.513-.481,1.065-1.033l1-1,.254.13c.232.121.263.131.362.131a.408.408,0,0,0,.179-.035c.039-.02.309-.266.612-.557.4-.385.543-.513.547-.488.044.332.163.472.4.474a.4.4,0,0,0,.387-.245c.03-.064.034-.13.034-.7v-.63l-.048-.1a.338.338,0,0,0-.137-.149l-.087-.053L29.691-512l-.641,0Zm1.347.268a2.128,2.128,0,0,1,.028.625v.589l-.041.048a.119.119,0,0,1-.1.048.119.119,0,0,1-.1-.048c-.039-.046-.041-.062-.041-.3,0-.224,0-.261-.034-.3a.112.112,0,0,0-.1-.041c-.055,0-.082.016-.185.117-.713.694-1.221,1.169-1.262,1.18s-.1-.02-.342-.142a2.034,2.034,0,0,0-.342-.154,9.775,9.775,0,0,0-1.086,1.047c-.971.978-1.043,1.047-1.1,1.047a.137.137,0,0,1-.124-.208c.012-.021.515-.534,1.12-1.139.713-.717,1.109-1.1,1.132-1.1a2.388,2.388,0,0,1,.332.151,1.9,1.9,0,0,0,.346.151c.05,0,.151-.094,1.019-.933.216-.209.222-.216.211-.275-.021-.11-.057-.122-.327-.122-.229,0-.24,0-.28-.044a.134.134,0,0,1-.021-.17c.051-.066.078-.069.681-.064C30.259-511.725,30.284-511.723,30.309-511.689Z" transform="translate(-25.194 512)" fill="#9b0f8d"/>
        <path id="Path_2494" data-name="Path 2494" d="M34.263-455.926a.625.625,0,0,0-.373.339l-.05.107-.005,2.087-.005,2.087-.1.021c-.055.011-.106.02-.114.02s-.018-.657-.02-1.461l-.005-1.459-.041-.1a.6.6,0,0,0-.3-.321c-.117-.059-.121-.059-.376-.059s-.263,0-.36.048a.675.675,0,0,0-.316.328c-.041.1-.041.121-.048.843l-.007.738-.1.055a1.033,1.033,0,0,1-.112.055s-.011-.126-.016-.28c-.007-.254-.011-.287-.053-.376a.566.566,0,0,0-.261-.27c-.076-.037-.1-.041-.41-.041-.321,0-.33,0-.417.048a.523.523,0,0,0-.247.263l-.046.1v1.331l-.22.119a3.241,3.241,0,0,1-.831.289c-.708.2-.854.261-.99.412a.963.963,0,0,0-.213.412,1.39,1.39,0,0,0,.078.641c.082.307.108.355.2.355.048,0,.13-.073.13-.115,0-.016-.037-.17-.082-.342a1.178,1.178,0,0,1-.071-.421.566.566,0,0,1,.266-.444c.064-.037,1.249-.394,1.26-.378s.2.523.437,1.157l.429,1.153-.007.117a.609.609,0,0,1-.33.5,6.164,6.164,0,0,1-1.051.236.514.514,0,0,1-.4-.16c-.1-.1-.124-.169-.225-.566-.075-.289-.1-.362-.135-.4a.125.125,0,0,0-.209.055,5.1,5.1,0,0,0,.236.893.888.888,0,0,0,.334.35,1.01,1.01,0,0,0,.389.1,6.182,6.182,0,0,0,1.212-.28.909.909,0,0,0,.369-.376.754.754,0,0,0,.08-.4.442.442,0,0,1,.009-.137c.03,0,2.928-.717,3.022-.747a1.721,1.721,0,0,0,.435-.218c.059-.041.442-.351.852-.689.791-.653.841-.7.889-.887a.517.517,0,0,0-.011-.335.665.665,0,0,0-.2-.314.621.621,0,0,0-.706-.067c-.075.035-.138.064-.144.064s-.011-.5-.011-1.116v-1.118l-.046-.035a.106.106,0,0,0-.161.005l-.05.043-.005,1.217L35-452.029l-.172.13a4.14,4.14,0,0,1-.722.474c-.005,0-.007-.905-.005-2.011a15.343,15.343,0,0,1,.035-2.062c.078-.142.181-.186.426-.186.216,0,.3.03.38.135.051.066.051.071.062.358s.011.295.05.325a.146.146,0,0,0,.176.005c.037-.027.039-.037.039-.318a1.011,1.011,0,0,0-.035-.387.613.613,0,0,0-.389-.36A1.781,1.781,0,0,0,34.263-455.926Zm-1.086,1.581a.43.43,0,0,1,.112.124c.037.069.037.091.043,1.512l.005,1.443h-.445a3.678,3.678,0,0,1-.444-.014,1.027,1.027,0,0,1,.161-.146,2.373,2.373,0,0,0,.248-.229,1.521,1.521,0,0,0,.273-.534.54.54,0,0,0-.291-.662.671.671,0,0,0-.36-.025l-.05.012v-.648c0-.612,0-.653.035-.719a.345.345,0,0,1,.192-.161,1.532,1.532,0,0,1,.247-.011C33.092-454.4,33.1-454.395,33.177-454.345Zm-1.67,1.077c.128.089.133.1.138.481l.005.341-.442.234c-.245.13-.449.236-.454.236s-.011-.259-.011-.575c0-.566,0-.573.041-.634.069-.1.13-.122.413-.122C31.429-453.307,31.454-453.3,31.507-453.268Zm1.224.664c.138.055.185.183.133.367a1.059,1.059,0,0,1-.417.6c-.211.172-.248.222-.248.348a.288.288,0,0,0,.14.25c.06.041.064.041.7.041a2.773,2.773,0,0,0,.818-.044,3.073,3.073,0,0,0,1.063-.605c.312-.22.6-.415.634-.435a.379.379,0,0,1,.456.11.359.359,0,0,1-.073.523c-.066.062-1.208,1-1.434,1.18a1.317,1.317,0,0,1-.364.2c-.153.059-3.084.774-3.1.758s-.185-.476-.4-1.042-.387-1.033-.39-1.038.413-.234.926-.508a10.738,10.738,0,0,1,1.436-.735A.388.388,0,0,1,32.732-452.6Z" transform="translate(-28.157 456.945)" fill="#9b0f8d"/>
        <path id="Path_2495" data-name="Path 2495" d="M89.577-92.761a.525.525,0,0,0-.268.866.492.492,0,0,0,.339.158.522.522,0,0,0,.559-.453.529.529,0,0,0-.4-.568A.393.393,0,0,0,89.577-92.761Zm.22.282a.251.251,0,0,1,.021.445.274.274,0,0,1-.289-.021.245.245,0,0,1-.091-.224.225.225,0,0,1,.142-.2A.2.2,0,0,1,89.8-92.479Z" transform="translate(-88.035 100.216)" fill="#9b0f8d"/>
      </g>
    </g>
  </g>
</svg>
