<svg xmlns="http://www.w3.org/2000/svg" width="18.987" height="19.825" viewBox="0 0 18.987 19.825">
  <g id="bill_5_" data-name="bill (5)" transform="translate(-10.49 0.677)">
    <path id="Path_2713" data-name="Path 2713" d="M-26.843-.156H-23.9q.618,0,1.235,0h2.51c.779,0,.779,0,1.093.286a1.612,1.612,0,0,1,.318,1.236v.149q0,.2,0,.4t0,.42q0,.4,0,.795,0,.452,0,.9,0,.93,0,1.861l.092.036a.855.855,0,0,1,.174.085.545.545,0,0,0,.353.034c.073-.037.146-.076.217-.116a1.052,1.052,0,0,1,.748-.116,3.811,3.811,0,0,1,.359.179.539.539,0,0,0,.414.052,1.837,1.837,0,0,0,.237-.147,1.041,1.041,0,0,1,.69-.085,3.91,3.91,0,0,1,.357.179.544.544,0,0,0,.415.052A2.483,2.483,0,0,0-14.42,5.9a.686.686,0,0,1,.364-.1l.089,0a.336.336,0,0,1,.242.171,1.994,1.994,0,0,1,.019.313c0,.032,0,.064,0,.1,0,.107,0,.214,0,.32q0,.115,0,.23,0,.312,0,.624t0,.652q0,.617,0,1.234,0,.7,0,1.4,0,1.445-.008,2.89h.091l.852-.005.438,0,.424,0h.161a2.046,2.046,0,0,1,1.578.542A1.9,1.9,0,0,1-9.7,15.7c0,.033,0,.067,0,.1q0,.108,0,.215,0,.17,0,.341,0,.484.007.968,0,.3,0,.593,0,.113,0,.226,0,.158,0,.315c0,.046,0,.046,0,.094a.855.855,0,0,0,.089.432,1.207,1.207,0,0,0,.289.1l.1.029.1.026c.085.034.085.034.163.15-.017.249-.017.249-.116.348a1.433,1.433,0,0,1-.216.01h-2.126l-.892,0h-1.887a1.764,1.764,0,0,1-1.259-.484,1.876,1.876,0,0,1-.5-1.4c0-.029,0-.057,0-.087q0-.1,0-.21l-.136,0-1.277.017-.656.009-.634.008-.241,0a2.277,2.277,0,0,1-1.807-.5,1.522,1.522,0,0,1-.408-.962l-.01-.115-.007-.087H-21.2l-2.233.006-1.08,0-.942,0h-1.14a1.321,1.321,0,0,1-1.05-.324,1.056,1.056,0,0,1-.266-.739v-.152q0-.084,0-.168t0-.177q0-.244,0-.489,0-.263,0-.526,0-.636,0-1.272,0-.3,0-.6,0-1,0-1.991,0-.258,0-.517c0-.043,0-.086,0-.13q0-1.04,0-2.08,0-1.068,0-2.135,0-.6,0-1.2,0-.511,0-1.021,0-.26,0-.521,0-.239,0-.477,0-.086,0-.172a1.392,1.392,0,0,1,.3-1.043A1.024,1.024,0,0,1-26.843-.156Zm-.4.677c-.171.3-.171.3-.116.966h8.074c.052-.635.052-.635-.116-.927a.734.734,0,0,0-.6-.2h-.6l-.7,0h-.24l-1.128,0-1.3,0-1.006,0h-1.739A.83.83,0,0,0-27.246.521Zm-.116,1.507V12.805H-21.1c0-.486,0-.972,0-1.472q0-.461,0-.922,0-.732.005-1.464,0-.533,0-1.066,0-.282,0-.565,0-.266,0-.531,0-.1,0-.2,0-.133,0-.266c0-.05,0-.1,0-.151a.558.558,0,0,1,.131-.322.683.683,0,0,1,.505.052q.117.062.23.129c.135.069.135.069.385.051l.541-.27V2.027ZM-19.557,6.5a1,1,0,0,1-.62.085,1.859,1.859,0,0,1-.206-.078l-.1-.043-.077-.033q-.005,1.836-.008,3.671v.434c0,.029,0,.058,0,.087q0,.7,0,1.4,0,.717,0,1.434,0,.442,0,.884,0,.339,0,.679,0,.139,0,.278c0,.127,0,.253,0,.38,0,.036,0,.073,0,.11a1.316,1.316,0,0,0,.37.933,1.14,1.14,0,0,0,.812.269,1.194,1.194,0,0,0,.769-.435,1.271,1.271,0,0,0,.2-.743l0-.14q0-.144,0-.289a1.671,1.671,0,0,1,.482-1.22c.877-.835,2.973-.419,3.677-.429v-7.3l-.386.155a1.264,1.264,0,0,1-.889-.232.632.632,0,0,0-.471.072l-.109.082a1.016,1.016,0,0,1-.725.045,1.991,1.991,0,0,1-.4-.2.775.775,0,0,0-.616.147.9.9,0,0,1-.666.063,1.313,1.313,0,0,1-.319-.159A.667.667,0,0,0-19.557,6.5Zm-7.805,6.845a3.346,3.346,0,0,0,.155,1.854.762.762,0,0,0,.589.159h3.376l2.139,0V13.346Zm9.619,1.352a1.405,1.405,0,0,0-.2.809c0,.042,0,.085,0,.128q0,.131,0,.262a1.543,1.543,0,0,1-.286.934c-.059.065-.059.065-.052.146h2.356c0-.311.008-.621.012-.942,0-.1,0-.195.005-.295q0-.117,0-.235l0-.12a1.126,1.126,0,0,0-.289-.809,1.14,1.14,0,0,0-.735-.32A1.068,1.068,0,0,0-17.743,14.7Zm2.009-.425.048.092.063.123.063.121a1.585,1.585,0,0,1,.145.709c0,.03,0,.06,0,.091q0,.1,0,.193,0,.154,0,.307,0,.436,0,.873,0,.268,0,.535,0,.1,0,.2a1.688,1.688,0,0,0,.4,1.314,1.262,1.262,0,0,0,.851.312h2.54l1.487,0-.038-.132a2.088,2.088,0,0,1-.049-.531c0-.051,0-.051,0-.1q0-.11,0-.22,0-.175,0-.349,0-.5,0-.993,0-.3,0-.609,0-.115,0-.231A1.756,1.756,0,0,0-10.6,14.61a1.4,1.4,0,0,0-1.056-.346h-.873l-.715,0-.815,0Z" transform="translate(38.412 -0.515)" fill="#fff"/>
    <path id="Path_2714" data-name="Path 2714" d="M-24.255-.262a.21.21,0,0,1,.116.116,1.236,1.236,0,0,1,0,.232l.1.019A.835.835,0,0,1-23.6.553a.742.742,0,0,1,0,.46.307.307,0,0,1-.155.116.527.527,0,0,1-.3-.082.447.447,0,0,1-.082-.208C-24.166.7-24.166.7-24.265.627a.489.489,0,0,0-.338,0c-.01.055-.018.111-.027.167l-.015.094a.157.157,0,0,0,.045.154.7.7,0,0,0,.313.1.932.932,0,0,1,.647.449.98.98,0,0,1-.036.816.66.66,0,0,1-.316.287c-.123.053-.123.053-.157.2l-.029.133c-.077.077-.077.077-.21.089-.138-.012-.138-.012-.21-.056a.289.289,0,0,1-.053-.186c-.018-.132-.018-.132-.155-.2l-.073-.037a.769.769,0,0,1-.315-.386,1.1,1.1,0,0,1-.027-.389.367.367,0,0,1,.155-.155.35.35,0,0,1,.319.06,1.043,1.043,0,0,1,.145.365c.112.091.112.091.254.07s.143-.018.21-.147a.687.687,0,0,0-.039-.309,1.315,1.315,0,0,0-.258-.056.984.984,0,0,1-.707-.447.96.96,0,0,1-.039-.7A.954.954,0,0,1-24.8.124a.874.874,0,0,1,.155-.039l-.007-.109a.3.3,0,0,1,.048-.2A.5.5,0,0,1-24.255-.262Z" transform="translate(48.903 14.677)" fill="#fff"/>
    <path id="Path_2715" data-name="Path 2715" d="M-12.391-.03h1.141q.308,0,.617,0h1.114a.482.482,0,0,1,.332.092.343.343,0,0,1,.08.2.269.269,0,0,1-.1.2.742.742,0,0,1-.447.091h-1.127q-.3,0-.609,0h-1.1A.477.477,0,0,1-12.818.46a.347.347,0,0,1-.058-.315C-12.748-.039-12.6-.032-12.391-.03Z" transform="translate(32.618 9.596)" fill="#fff"/>
    <path id="Path_2716" data-name="Path 2716" d="M-11.5-.122h2.945c.216,0,.216,0,.315.09a.5.5,0,0,1,0,.355c-.1.1-.171.087-.309.088H-11.6c-.219,0-.219,0-.3-.066a.409.409,0,0,1-.05-.336C-11.833-.147-11.684-.123-11.5-.122Z" transform="translate(31.694 11.084)" fill="#fff"/>
    <path id="Path_2717" data-name="Path 2717" d="M-11.5-.122h2.945c.216,0,.216,0,.315.09a.481.481,0,0,1,0,.355A.69.69,0,0,1-8.69.406H-11.6c-.216,0-.216,0-.3-.066a.408.408,0,0,1-.05-.336C-11.833-.147-11.684-.123-11.5-.122Z" transform="translate(31.694 8.341)" fill="#fff"/>
    <path id="Path_2718" data-name="Path 2718" d="M-10.082-.027h.154l.165,0h.17l.356,0c.152,0,.3,0,.456,0h.519l.235,0h.135a.265.265,0,0,1,.181.067.437.437,0,0,1,.084.3.4.4,0,0,1-.193.193A3.173,3.173,0,0,1-8.365.56h-.161l-.338,0c-.144,0-.288,0-.432,0h-.493l-.223,0h-.128a.568.568,0,0,1-.307-.131A.422.422,0,0,1-10.486.19.369.369,0,0,1-10.082-.027Z" transform="translate(28.992 6.847)" fill="#fff"/>
    <path id="Path_2719" data-name="Path 2719" d="M-14.159-.1h.372c.128,0,.257,0,.385,0h.245l.116,0c.265,0,.265,0,.393.116A.331.331,0,0,1-12.6.237a.339.339,0,0,1-.193.227.68.68,0,0,1-.175.014h-1.48a.526.526,0,0,1-.238-.087.488.488,0,0,1-.039-.309C-14.588-.133-14.384-.1-14.159-.1Z" transform="translate(28.745 13.642)" fill="#fff"/>
    <path id="Path_2720" data-name="Path 2720" d="M-10.59,0h.227c.078,0,.156,0,.234,0C-9.7,0-9.7,0-9.57.133a.376.376,0,0,1,.039.193C-9.616.5-9.616.5-9.725.558-9.9.57-10.08.569-10.258.57l-.15,0h-.145l-.133,0A.475.475,0,0,1-11,.4a.42.42,0,0,1,0-.232A.4.4,0,0,1-10.59,0Z" transform="translate(36.922 14.707)" fill="#fff"/>
    <path id="Path_2721" data-name="Path 2721" d="M-9.417-.008h.81A.339.339,0,0,1-8.369.08.46.46,0,0,1-8.362.4a.221.221,0,0,1-.123.1c-.164.01-.328.01-.492.011l-.245,0h-.156l-.143,0A.324.324,0,0,1-9.738.435C-9.8.35-9.8.35-9.793.21-9.733-.024-9.639-.007-9.417-.008Z" transform="translate(35.721 16.962)" fill="#fff"/>
    <path id="Path_2722" data-name="Path 2722" d="M-16.1-.167l.244,0h.155l.142,0a.288.288,0,0,1,.216.113.278.278,0,0,1,.056.226A.3.3,0,0,1-15.4.352c-.175.016-.351.014-.528.014l-.263,0h-.32c-.125-.019-.125-.019-.2-.088a.456.456,0,0,1,0-.355A1.037,1.037,0,0,1-16.1-.167Z" transform="translate(42.675 15.995)" fill="#fff"/>
    <path id="Path_2723" data-name="Path 2723" d="M-13.519-.04h.094a.638.638,0,0,1,.35.069.319.319,0,0,1,.1.256c-.085.178-.085.178-.193.232-.114.008-.226.013-.34.014l-.095,0a.481.481,0,0,1-.379-.109A.267.267,0,0,1-14.062.2C-13.965-.062-13.765-.044-13.519-.04Z" transform="translate(32.566 9.612)" fill="#fff"/>
    <path id="Path_2724" data-name="Path 2724" d="M-13.263-.149l.108,0h.2a.262.262,0,0,1,.2.13.353.353,0,0,1,.007.28.216.216,0,0,1-.123.106C-13,.372-13.13.37-13.258.37h-.306c-.083-.009-.083-.009-.2-.087a.46.46,0,0,1-.007-.321C-13.657-.2-13.439-.148-13.263-.149Z" transform="translate(32.307 11.117)" fill="#fff"/>
    <path id="Path_2725" data-name="Path 2725" d="M-7.568-.019q.116,0,.232,0l.118,0a1.476,1.476,0,0,1,.307.026A.318.318,0,0,1-6.8.2.519.519,0,0,1-6.95.509a2.766,2.766,0,0,1-.384.012l-.108,0h-.2a.266.266,0,0,1-.2-.13A.379.379,0,0,1-7.846.1C-7.744-.012-7.713-.009-7.568-.019Z" transform="translate(26.383 8.227)" fill="#fff"/>
  </g>
</svg>
