<svg xmlns="http://www.w3.org/2000/svg" width="23.334" height="23.326" viewBox="0 0 23.334 23.326">
  <g id="money-_2_" transform="translate(0 511.719)">
    <path id="Path_2151" data-name="Path 2151" d="M6.13-511.691a.705.705,0,0,0-.182.141c-.082.091-.091.178-.1.77l-.014.674-2.516.67c-1.385.369-2.57.693-2.639.72a.432.432,0,0,0-.264.424c0,.091.36,1.513.8,3.154s.784,3,.761,3.022-.428.292-.9.6a8.468,8.468,0,0,0-.971.7l-.1.128v5.291c0,4.339.014,5.332.064,5.524a2.008,2.008,0,0,0,1.417,1.413c.305.082,19.925.1,20.312.014a2.009,2.009,0,0,0,1.49-1.49c.036-.169.05-1.786.05-5.519v-5.277l-.123-.123a18.335,18.335,0,0,0-1.577-1.071c-.219-.141-.3-.219-.287-.273.059-.205,1.317-4.931,1.44-5.4.228-.9.191-1.016-.365-1.189-.2-.059-1.381-.383-2.639-.716l-2.279-.6-.014-.674c-.014-.67-.014-.679-.141-.8l-.123-.128-5.505-.009C8.7-511.723,6.18-511.709,6.13-511.691Zm10.4,7.8.009,6.868-2.415,1.577c-1.326.866-2.434,1.577-2.456,1.577s-1.135-.711-2.466-1.577L6.79-497.021v-6.85c0-3.764.014-6.859.032-6.873s2.206-.027,4.863-.023l4.835.014Zm-10.7-4.7v.5l-.191.05c-.793.21-1.54.419-1.645.465-.2.078-.273.228-.278.583,0,.264-.023.328-.114.428a.392.392,0,0,1-.178.118.546.546,0,0,0-.219.155.406.406,0,0,0-.155.305c0,.087.173.811.383,1.613.355,1.349.4,1.467.524,1.581a.412.412,0,0,0,.624-.027.414.414,0,0,0,.155-.3c0-.077-.146-.688-.324-1.349l-.324-1.2.182-.2a1.521,1.521,0,0,0,.4-.711l.05-.205.542-.146c.3-.082.547-.141.556-.137s.009,2.133,0,4.717l-.014,4.7-.962-.629-.957-.629-.314-1.158c-.169-.638-.716-2.666-1.212-4.507s-.9-3.35-.893-3.354,4.252-1.148,4.307-1.153S5.833-508.961,5.833-508.588Zm13.873.073c1.18.319,2.151.579,2.156.583s-.524,1.987-1.176,4.4-1.194,4.448-1.212,4.507c-.018.077-.283.278-.989.738l-.962.633-.014-4.7c0-2.584,0-4.708,0-4.717s.26.055.556.137l.542.146.05.205a1.521,1.521,0,0,0,.4.711l.182.2-.324,1.208c-.178.661-.324,1.258-.324,1.317a.464.464,0,0,0,.779.355c.128-.114.169-.228.41-1.126.565-2.105.556-2.046.479-2.229a.434.434,0,0,0-.242-.242,1.226,1.226,0,0,1-.3-.191c-.114-.1-.128-.146-.128-.4,0-.378-.082-.533-.328-.624-.169-.059-1.691-.483-1.75-.483a3.676,3.676,0,0,1-.018-.5,2.427,2.427,0,0,1,.027-.5C17.546-509.089,18.521-508.829,19.706-508.515ZM2.47-500.448a5.243,5.243,0,0,1,.16.67,8.05,8.05,0,0,1-1.212-.784,4.434,4.434,0,0,1,.839-.533A2.844,2.844,0,0,1,2.47-500.448Zm19.054-.392a1.588,1.588,0,0,1,.383.292,9.847,9.847,0,0,1-1.2.784c-.018-.018.3-1.249.337-1.317C21.069-501.132,21.064-501.132,21.524-500.84ZM3.86-497.782c1.55,1.007,2.844,1.855,2.876,1.882a25.759,25.759,0,0,1-2.826,2.921l-2.885,2.862L1-490.522c-.05-.652-.046-9.087,0-9.087C1.021-499.61,2.311-498.789,3.86-497.782Zm18.517,2.912c0,2.607-.014,4.74-.036,4.74s-1.326-1.294-2.9-2.871a29.331,29.331,0,0,1-2.8-2.917c.036-.023,1.331-.861,2.871-1.864s2.816-1.823,2.839-1.828S22.377-497.477,22.377-494.87ZM9.4-494.145c1.786,1.176,2.119,1.372,2.311,1.372a19.452,19.452,0,0,0,2.055-1.272l1.937-1.271,2.953,2.944,2.949,2.949-1.262.027c-1.8.041-10.692.046-14.98.009l-3.637-.027,2.953-2.953c1.8-1.8,2.971-2.939,3-2.917S8.477-494.751,9.4-494.145Z" transform="translate(0 0)" fill="#00d2a0"/>
    <path id="Path_2152" data-name="Path 2152" d="M172.2-468.923a.718.718,0,0,0-.264.5.465.465,0,0,1-.415.392.589.589,0,0,0-.469.273,13.37,13.37,0,0,0-.05,1.727v1.622l.132.132a.483.483,0,0,0,.747-.1c.068-.109.077-.3.077-1.449v-1.322l.137-.046a1.7,1.7,0,0,0,.661-.647l.082-.182h4.079l.059.146a1.614,1.614,0,0,0,.633.652l.182.082v1.317c0,1.153.009,1.34.077,1.449a.483.483,0,0,0,.747.1l.132-.132v-1.627c0-1.773-.009-1.832-.26-1.928a1.6,1.6,0,0,0-.292-.073.48.48,0,0,1-.392-.419.589.589,0,0,0-.273-.469C177.385-469,172.34-468.991,172.2-468.923Z" transform="translate(-163.207 -40.795)" fill="#00d2a0"/>
    <path id="Path_2153" data-name="Path 2153" d="M245.588-415.821a.52.52,0,0,0-.219.524.5.5,0,0,0,.784.232.47.47,0,0,0-.077-.77A.433.433,0,0,0,245.588-415.821Z" transform="translate(-234.176 -91.449)" fill="#00d2a0"/>
    <path id="Path_2154" data-name="Path 2154" d="M174.554-362.447a3.932,3.932,0,0,0-3.309,3.094,4.943,4.943,0,0,0,.041,1.759,5.071,5.071,0,0,0,.77,1.486,4.056,4.056,0,0,0,1.923,1.253,2.853,2.853,0,0,0,1.071.123,2.853,2.853,0,0,0,1.071-.123,3.938,3.938,0,0,0,2.675-2.7,5.025,5.025,0,0,0,.018-2.019,3.923,3.923,0,0,0-3.564-2.885A4.29,4.29,0,0,0,174.554-362.447Zm1.18,1.03a2.956,2.956,0,0,1,1.91,1.522,3.62,3.62,0,0,1,.255.706,2.929,2.929,0,0,1-2.124,3.423,3.552,3.552,0,0,1-1.454,0,2.957,2.957,0,0,1-2.033-1.914,2.862,2.862,0,0,1,.169-2.215,2.975,2.975,0,0,1,1.887-1.522A3.751,3.751,0,0,1,175.734-361.417Z" transform="translate(-163.384 -142.449)" fill="#00d2a0"/>
  </g>
</svg>
