<svg xmlns="http://www.w3.org/2000/svg" width="20.988" height="14.864" viewBox="0 0 20.988 14.864">
  <g id="restaurant-_1_" transform="translate(-0.128 437)">
    <path id="Path_2928" data-name="Path 2928" d="M105.793-436.9c-.1.094-.1.115-.1.722v.62l-.242.259c-.435.468-.435.46-.447,1.9l-.012,1.244h-1.925v-.484l0-.48.176-.107a.941.941,0,0,0,.427-.854c.021-.423-.029-.624-.2-.743-.1-.074-.181-.082-.714-.082-.632,0-.759.029-.866.193a1.567,1.567,0,0,0-.07.841.955.955,0,0,0,.439.665l.185.119v.932h-.616a2.554,2.554,0,0,0-1.272.2,1.722,1.722,0,0,0-.96,1.26.824.824,0,0,0,.423.7l.181.094h4.133v.415a1.2,1.2,0,0,0,.209.874.937.937,0,0,0,.809.312h.337v4.166l-.718.57c-.394.312-.755.612-.8.665a.487.487,0,0,0,.135.7,21.8,21.8,0,0,0,3.394,0,.506.506,0,0,0,.234-.492c-.033-.164-.164-.287-1.022-.965l-.6-.472,0-2.085V-428.3h.328a.9.9,0,0,0,.948-.513,2,2,0,0,0,.078-.85v-.685l-.107-.082c-.111-.086-.131-.086-3.653-.086-1.945,0-3.567-.012-3.6-.025-.185-.07.008-.492.337-.743.357-.271.1-.263,5.45-.25l4.839.012.205.094a1.184,1.184,0,0,1,.558.5c.135.209.144.263.053.349-.053.057-.25.066-1.539.066h-1.478l-.1.1a.338.338,0,0,0-.1.205.338.338,0,0,0,.1.205l.1.1h1.531c1.4,0,1.547-.008,1.7-.078a.8.8,0,0,0,.46-.8,2.016,2.016,0,0,0-.882-1.141,2.428,2.428,0,0,0-1.33-.234h-.648v-.94l.115-.062a1.132,1.132,0,0,0,.435-.484,1.6,1.6,0,0,0,.066-.57v-.415l-.14-.14-.14-.14h-.632c-.5,0-.648.012-.722.066-.16.111-.213.275-.213.661a1.112,1.112,0,0,0,.1.566.881.881,0,0,0,.435.451c.078.025.082.062.082.517v.488h-1.925L107-433.4l-.012-1.239-.119-.218a2.788,2.788,0,0,0-.341-.456l-.218-.242v-.624c0-.6,0-.624-.1-.718A.338.338,0,0,0,106-437,.338.338,0,0,0,105.793-436.9Zm.357,2.06c.189.218.2.279.2,1.51v1.17h-.739v-1.1a5.269,5.269,0,0,1,.062-1.281C105.785-434.866,106.007-435,106.15-434.837Zm-3.086.71c0,.209-.066.349-.193.406a.236.236,0,0,1-.316-.041c-.09-.074-.107-.115-.107-.308v-.222h.616Zm6.485.057c0,.193-.016.234-.111.312a.265.265,0,0,1-.238.066c-.181-.037-.267-.164-.267-.4v-.2h.616Zm-2.5,4.58c0,.6.049.575-1.047.575s-1.047.029-1.047-.575v-.41h2.093Zm-.525,6.308.5.4-.5.012c-.271,0-.731,0-1.014,0l-.517-.012.484-.4a6.183,6.183,0,0,1,.517-.4A5.282,5.282,0,0,1,106.52-423.181Z" transform="translate(-95.39)" fill="#fff"/>
    <path id="Path_2929" data-name="Path 2929" d="M.792-373.571a.883.883,0,0,0-.534.427l-.115.193-.012,2.893c-.008,2.056,0,2.963.033,3.14a1.865,1.865,0,0,0,1.342,1.441c.152.037.283.074.287.078s-.267.833-.6,1.851-.616,1.876-.616,1.917a.381.381,0,0,0,.3.275c.234,0,.275-.09.87-1.908.308-.948.6-1.789.636-1.872.123-.246.254-.283,1.038-.283.714,0,.874.029,1.018.189.037.045.373.9.747,1.9.7,1.88.739,1.97.956,1.97a.38.38,0,0,0,.3-.279c0-.041-.3-.878-.661-1.855s-.673-1.818-.681-1.859c-.021-.062.008-.07.189-.07a.975.975,0,0,0,.874-.55,1.012,1.012,0,0,0,0-.8,1.118,1.118,0,0,0-.566-.5c-.1-.029-.788-.045-1.867-.045H2.011v-1.7c0-1.65,0-1.707-.082-1.785a.3.3,0,0,0-.431.021l-.1.1v1.757c0,1.937,0,1.933.259,2.122.115.082.176.086,1.958.107,1.736.021,1.843.025,1.925.1a.344.344,0,0,1-.012.472l-.094.09-1.9-.012c-1.888-.012-1.9-.012-2.077-.107a1.256,1.256,0,0,1-.575-.575l-.115-.234-.012-2.889A16.9,16.9,0,0,1,.8-372.832a.309.309,0,0,1,.513-.057c.07.07.082.14.082.509s.012.439.086.534a.307.307,0,0,0,.447.025c.074-.074.082-.135.082-.55a3.092,3.092,0,0,0-.045-.6A.964.964,0,0,0,.792-373.571Z" transform="translate(0 -60.786)" fill="#fff"/>
    <path id="Path_2930" data-name="Path 2930" d="M363.138-373.78a1.055,1.055,0,0,0-.57.419l-.115.172-.012,2.844-.008,2.844h-1.716c-1.079,0-1.769.016-1.867.045a1.116,1.116,0,0,0-.57.5,1.057,1.057,0,0,0-.012.784,1.2,1.2,0,0,0,.587.509,1.307,1.307,0,0,0,.337.049c.148,0,.172.012.152.07-.008.041-.316.878-.681,1.859s-.661,1.814-.661,1.855a.38.38,0,0,0,.3.279c.218,0,.259-.09.956-1.97.374-1.006.71-1.859.747-1.9.144-.16.3-.189,1.018-.189.763,0,.915.037,1.03.259.033.07.32.911.636,1.872.6,1.831.644,1.933.866,1.933a.307.307,0,0,0,.291-.238,12.533,12.533,0,0,0-.591-1.954c-.336-1.014-.612-1.847-.6-1.851s.135-.041.287-.078a1.863,1.863,0,0,0,1.215-1.051l.148-.308v-6.115l-.111-.189a1,1,0,0,0-.587-.443A.776.776,0,0,0,363.138-373.78Zm.447.694.123.123-.012,2.906-.012,2.906-.1.2a1.445,1.445,0,0,1-.587.607c-.176.094-.185.094-2.089.107l-1.917.012-.086-.111a.335.335,0,0,1-.008-.431l.078-.1,1.847-.021c1.789-.021,1.851-.025,1.966-.107.267-.2.259-.07.259-3.181,0-2.963,0-2.881.185-2.984C363.368-373.23,363.459-373.213,363.586-373.086Z" transform="translate(-343.184 -60.594)" fill="#fff"/>
  </g>
</svg>
