<svg xmlns="http://www.w3.org/2000/svg" width="10.09" height="11.1" viewBox="0 0 10.09 11.1">
  <g id="Icon_feather-share-2" data-name="Icon feather-share-2" transform="translate(-4 -2.5)">
    <path id="Path_3905" data-name="Path 3905" d="M25.53,4.515A1.515,1.515,0,1,1,24.015,3,1.515,1.515,0,0,1,25.53,4.515Z" transform="translate(-11.94)" fill="none" stroke="#fff" stroke-linecap="round" stroke-linejoin="round" stroke-width="1"/>
    <path id="Path_3906" data-name="Path 3906" d="M7.53,15.015A1.515,1.515,0,1,1,6.015,13.5,1.515,1.515,0,0,1,7.53,15.015Z" transform="translate(0 -6.965)" fill="none" stroke="#fff" stroke-linecap="round" stroke-linejoin="round" stroke-width="1"/>
    <path id="Path_3907" data-name="Path 3907" d="M25.53,25.515A1.515,1.515,0,1,1,24.015,24,1.515,1.515,0,0,1,25.53,25.515Z" transform="translate(-11.94 -13.93)" fill="none" stroke="#fff" stroke-linecap="round" stroke-linejoin="round" stroke-width="1"/>
    <path id="Path_3908" data-name="Path 3908" d="M12.885,20.265l3.449,2.01" transform="translate(-5.562 -11.453)" fill="none" stroke="#fff" stroke-linecap="round" stroke-linejoin="round" stroke-width="1"/>
    <path id="Path_3909" data-name="Path 3909" d="M16.329,9.765l-3.444,2.01" transform="translate(-5.562 -4.488)" fill="none" stroke="#fff" stroke-linecap="round" stroke-linejoin="round" stroke-width="1"/>
  </g>
</svg>
