<svg xmlns="http://www.w3.org/2000/svg" width="15.006" height="6.999" viewBox="0 0 15.006 6.999">
  <g id="Group_15920" data-name="Group 15920" transform="translate(-1755.745 -324.95)">
    <path id="Icon_awesome-arrow-down" data-name="Icon awesome-arrow-down" d="M6.762,5.226l.347.347a.373.373,0,0,1,0,.53L4.074,9.139a.373.373,0,0,1-.53,0L.507,6.1a.373.373,0,0,1,0-.53l.347-.347a.375.375,0,0,1,.536.006L3.183,7.114V2.625a.374.374,0,0,1,.375-.375h.5a.374.374,0,0,1,.375.375V7.114L6.226,5.232a.373.373,0,0,1,.536-.006Z" transform="translate(1763.532 322.7)" fill="#00cf15"/>
    <path id="Icon_awesome-arrow-up" data-name="Icon awesome-arrow-up" d="M.854,6.27.507,5.923a.373.373,0,0,1,0-.53L3.542,2.357a.373.373,0,0,1,.53,0L7.107,5.392a.373.373,0,0,1,0,.53l-.347.347a.375.375,0,0,1-.536-.006L4.433,4.381V8.87a.374.374,0,0,1-.375.375h-.5a.374.374,0,0,1-.375-.375V4.381L1.39,6.263a.373.373,0,0,1-.536.006Z" transform="translate(1755.348 322.704)" fill="red"/>
  </g>
</svg>
