<svg xmlns="http://www.w3.org/2000/svg" width="55" height="53" viewBox="0 0 55 53">
  <g id="Group_17050" data-name="Group 17050" transform="translate(-36 -422)">
    <g id="Rectangle_1971" data-name="Rectangle 1971" transform="translate(36 422)" fill="#fff" stroke="#707070" stroke-width="1" opacity="0.5">
      <rect width="55" height="53" rx="5" stroke="none"/>
      <rect x="0.5" y="0.5" width="54" height="52" rx="4.5" fill="none"/>
    </g>
    <g id="Rectangle_2124" data-name="Rectangle 2124" transform="translate(40 426)" fill="#fff" stroke="#707070" stroke-width="1" opacity="0.5">
      <rect width="47" height="45" stroke="none"/>
      <rect x="0.5" y="0.5" width="46" height="44" fill="none"/>
    </g>
    <g id="Icon_feather-image" data-name="Icon feather-image" transform="translate(45.5 430.5)">
      <path id="Path_1854" data-name="Path 1854" d="M7.5,4.5h21a3,3,0,0,1,3,3v21a3,3,0,0,1-3,3H7.5a3,3,0,0,1-3-3V7.5a3,3,0,0,1,3-3Z" fill="none" stroke="#a2a2a2" stroke-linecap="round" stroke-linejoin="round" stroke-width="1"/>
      <path id="Path_1855" data-name="Path 1855" d="M15,12.75a2.25,2.25,0,1,1-2.25-2.25A2.25,2.25,0,0,1,15,12.75Z" fill="none" stroke="#a2a2a2" stroke-linecap="round" stroke-linejoin="round" stroke-width="1"/>
      <path id="Path_1856" data-name="Path 1856" d="M31.5,22.5,24,15,7.5,31.5" fill="none" stroke="#a2a2a2" stroke-linecap="round" stroke-linejoin="round" stroke-width="1"/>
    </g>
  </g>
</svg>
