<svg xmlns="http://www.w3.org/2000/svg" width="16.568" height="16.563" viewBox="0 0 16.568 16.563">
  <g id="mockup" transform="translate(-7.551 -7.474)">
    <path id="Path_3121" data-name="Path 3121" d="M-146.218-.259h4.66l1.61,0h4.341a.889.889,0,0,1,.666.216l.054.066.056.065a.647.647,0,0,1,.123.4c0,.032,0,.063,0,.1,0,.052,0,.052,0,.1,0,.037,0,.073,0,.111q0,.185,0,.37,0,.132,0,.265,0,.322,0,.645,0,.262,0,.524,0,.743,0,1.487v.081c0,.027,0,.054,0,.081q0,.65,0,1.3,0,.668,0,1.335,0,.375,0,.749,0,.319,0,.638,0,.163,0,.325t0,.353c0,.034,0,.068,0,.1a.848.848,0,0,1-.216.61l-.066.054-.065.056c-.249.171-.4.115-.736.115v3.732h.5a.924.924,0,0,1,.539.474,1.745,1.745,0,0,1-.2,1.286,1.947,1.947,0,0,1-1.144.874,1.4,1.4,0,0,1-.365.04h-5.659l-1.955,0h-5.2a2.01,2.01,0,0,1-1.425-.49,1.942,1.942,0,0,1-.568-1.325l0-.077a.79.79,0,0,1,.214-.567l.066-.054.065-.056a.75.75,0,0,1,.5-.119h.07l.17,0c0-.019,0-.038,0-.058q0-1.7-.007-3.4,0-.2,0-.409c0-.027,0-.054,0-.082q0-.658,0-1.316,0-.675,0-1.351,0-.417,0-.833,0-.286,0-.572,0-.165,0-.33t0-.358c0-.034,0-.069,0-.1a1.324,1.324,0,0,1,.384-.952,1.486,1.486,0,0,1,1.176-.38h.144l.376,0,.385,0,.752.006V3.363q0-.553-.006-1.106,0-.284,0-.569t0-.549q0-.1,0-.209c0-.1,0-.2,0-.294V.55a.816.816,0,0,1,.215-.575l.066-.054.065-.056A.684.684,0,0,1-146.218-.259Zm-.16.642a4.045,4.045,0,0,0-.067,1.5h11.2a3.433,3.433,0,0,0-.1-1.533A.636.636,0,0,0-135.7.274h-10.173A.75.75,0,0,0-146.378.382Zm-.067,2.033c0,1.1,0,2.191-.006,3.32,0,.346,0,.692,0,1.049,0,.31,0,.31,0,.62q0,.207,0,.414,0,.264,0,.529,0,.1,0,.194c0,.087,0,.175,0,.262,0,.025,0,.051,0,.077a.641.641,0,0,0,.113.4.708.708,0,0,0,.353.075h10.173a.75.75,0,0,0,.5-.113.767.767,0,0,0,.075-.44c0-.027,0-.055,0-.083,0-.092,0-.183,0-.275q0-.1,0-.2,0-.268,0-.536,0-.252,0-.5,0-.736,0-1.472c0-1.1,0-2.192,0-3.322Zm-2.966,1.833a1.325,1.325,0,0,0-.241.937c0,.036,0,.072,0,.109q0,.181,0,.362,0,.132,0,.264,0,.318,0,.635,0,.368,0,.735,0,.97,0,1.941c0,1.445,0,2.891,0,4.38h13.329V9.879h-.533c0,.038,0,.076,0,.116q0,.539-.007,1.078,0,.277,0,.554t0,.535q0,.1,0,.2,0,.143,0,.286c0,.028,0,.057,0,.086,0,.19,0,.19-.053.264a.384.384,0,0,1-.261.055h-11.707a.237.237,0,0,1-.151-.054.294.294,0,0,1-.051-.2c0-.029,0-.058,0-.088s0-.064,0-.1,0-.068,0-.1c0-.114,0-.227,0-.341q0-.122,0-.244,0-.3,0-.594,0-.241,0-.483c0-.023,0-.046,0-.069q0-.07,0-.139,0-.654,0-1.309,0-.562,0-1.124,0-.652,0-1.3V6.77c0-.023,0-.046,0-.069q0-.241,0-.483,0-.325,0-.649,0-.119,0-.239,0-.162,0-.325c0-.032,0-.064,0-.1s0-.058,0-.088,0-.05,0-.076a.232.232,0,0,1,.112-.165.941.941,0,0,1,.195-.014l.121,0h.131l.134,0,.352,0,.36,0,.706-.007V4.014l-.781,0h-.767A1.262,1.262,0,0,0-149.411,4.248Zm.833.833v7.464h11.2V9.879h-.825l-2.613,0h-.488l-1.308,0-1.342,0h-2.184a.855.855,0,0,1-.6-.21l-.045-.056-.047-.056a.693.693,0,0,1-.117-.41V9.023c0-.039,0-.078,0-.118s0-.083,0-.125q0-.169,0-.339t0-.354q0-.335,0-.671,0-.382,0-.764-.005-.786-.009-1.571Zm-2.066,9.164a.862.862,0,0,0,.019.621,1.411,1.411,0,0,0,.706.755,2.809,2.809,0,0,0,1.057.128h11.823a1.858,1.858,0,0,0,1.422-.434,1.264,1.264,0,0,0,.345-.926c-.005-.088-.005-.088-.071-.17a.7.7,0,0,0-.418-.084h-14.5A.675.675,0,0,0-150.644,14.244Z" transform="translate(158.809 7.743)" fill="#fff"/>
    <path id="Path_3122" data-name="Path 3122" d="M-9.24-.039h3.753a.319.319,0,0,1,.212.15,1.888,1.888,0,0,1,.017.282V.479c0,.094,0,.188,0,.282q0,.1,0,.2,0,.205,0,.41,0,.263,0,.526,0,.2,0,.4,0,.1,0,.194c0,.09,0,.181,0,.271v.081a.387.387,0,0,1-.075.275.306.306,0,0,1-.243.077H-9.328a.319.319,0,0,1-.212-.15,1.891,1.891,0,0,1-.017-.282V2.675c0-.094,0-.188,0-.282q0-.1,0-.2,0-.205,0-.41,0-.263,0-.526,0-.2,0-.4,0-.1,0-.194c0-.09,0-.181,0-.271V.312A.387.387,0,0,1-9.483.038.306.306,0,0,1-9.24-.039Zm.233.55V2.644h3.2V.511Z" transform="translate(22.97 10.713)" fill="#fff"/>
    <path id="Path_3123" data-name="Path 3123" d="M0,0H9.064V.533H0Z" transform="translate(13.43 15.489)" fill="#fff"/>
    <path id="Path_3124" data-name="Path 3124" d="M0,0H9.064V.533H0Z" transform="translate(13.43 14.423)" fill="#fff"/>
    <path id="Path_3125" data-name="Path 3125" d="M0,0H4.265V.533H0Z" transform="translate(18.229 13.357)" fill="#fff"/>
    <path id="Path_3126" data-name="Path 3126" d="M0,0H4.265V.533H0Z" transform="translate(18.229 12.29)" fill="#fff"/>
    <path id="Path_3127" data-name="Path 3127" d="M0,0H4.265V.533H0Z" transform="translate(18.229 11.224)" fill="#fff"/>
    <path id="Path_3128" data-name="Path 3128" d="M0,0H3.2V.533H0Z" transform="translate(17.162 22.42)" fill="#fff"/>
    <path id="Path_3129" data-name="Path 3129" d="M0,0H1.066V.533H0Z" transform="translate(20.895 22.42)" fill="#fff"/>
    <path id="Path_3130" data-name="Path 3130" d="M0,0H.533V.533H0Z" transform="translate(22.494 8.558)" fill="#fff"/>
    <path id="Path_3131" data-name="Path 3131" d="M0,0H.533V.533H0Z" transform="translate(21.428 8.558)" fill="#fff"/>
    <path id="Path_3132" data-name="Path 3132" d="M0,0H.533V.533H0Z" transform="translate(20.361 8.558)" fill="#fff"/>
  </g>
</svg>
