<svg xmlns="http://www.w3.org/2000/svg" width="18.931" height="18.468" viewBox="0 0 18.931 18.468">
  <g id="Group_18083" data-name="Group 18083" transform="translate(-29.235 -303.981)">
    <path id="Path_2797" data-name="Path 2797" d="M99.1-480a2.364,2.364,0,0,0-1.549,1.206c-.256.527-.256.495-.256,3.4v2.589l-.159.108a2.3,2.3,0,0,0-.986,1.953,1.1,1.1,0,0,0,.592.928,1.473,1.473,0,0,0,.379.137l.173.025.007,2.7c.011,2.665.011,2.7.087,2.8a.51.51,0,0,0,.484.249.51.51,0,0,0,.484-.249c.072-.1.076-.148.087-1.65l.011-1.549h6.925l.011,1.549c.011,1.5.014,1.553.087,1.65a.51.51,0,0,0,.484.249.51.51,0,0,0,.484-.249c.076-.1.076-.137.087-2.8l.007-2.7.17-.025a1.4,1.4,0,0,0,.614-.285,1.419,1.419,0,0,0,.231-.318.853.853,0,0,0,.123-.57,2.225,2.225,0,0,0-.91-1.794l-.227-.17V-475.4c0-2.9,0-2.87-.26-3.394a2.344,2.344,0,0,0-1.563-1.21C104.358-480.082,99.459-480.082,99.1-480Zm5.6,1.2a1.107,1.107,0,0,1,.545.52l.123.228.011,2.462.011,2.466H98.451l.011-2.466.011-2.462.09-.181a1.225,1.225,0,0,1,.776-.635c.061-.014,1.253-.025,2.654-.022l2.545.007Zm1.155,6.932a1.676,1.676,0,0,1,.292.184,1.384,1.384,0,0,1,.376.7l.025.173H97.292l.025-.17a1.173,1.173,0,0,1,.867-.953c.061-.014,1.773-.022,3.809-.022l3.7.007Zm-.469,2.787v.578H98.455v-1.155h6.932Z" transform="translate(-66.915 786.352)" fill="#fff"/>
    <g id="bookmark" transform="translate(-57.938 798.769)">
      <path id="Path_2814" data-name="Path 2814" d="M100.34-495.749a.3.3,0,0,0-.172.185c-.006.031-.008,1.793-.006,3.919l.006,3.865.04.046a.316.316,0,0,0,.373.1c.042-.019.568-.466,1.3-1.111.676-.594,1.239-1.08,1.248-1.08s.575.49,1.256,1.089,1.263,1.1,1.292,1.109a.324.324,0,0,0,.36-.09l.055-.063.006-3.887c0-4.329.017-3.952-.126-4.048l-.067-.046-2.755,0C100.891-495.771,100.388-495.768,100.34-495.749Zm5.155,3.867v3.346l-.1-.083c-.053-.048-.545-.478-1.09-.959s-1.019-.883-1.054-.9a.326.326,0,0,0-.24,0c-.034.014-.507.415-1.073.914l-1.09.959-.08.066v-6.692h4.726Z" transform="translate(0 0.981)" fill="#fff"/>
      <path id="Path_2815" data-name="Path 2815" d="M189.281-405.713a.407.407,0,0,0-.084.059c-.086.084-.1.145-.1.541v.372l-.4.006c-.459.006-.474.011-.549.16a.274.274,0,0,0,0,.278c.082.145.126.158.564.164l.385.006v.374c0,.349,0,.377.042.448a.3.3,0,0,0,.528-.011c.036-.072.04-.116.04-.446v-.366h.349c.387,0,.463-.013.545-.1a.291.291,0,0,0,0-.425l-.074-.078-.41-.006-.412-.006v-.372c0-.408-.01-.454-.112-.549a.209.209,0,0,0-.168-.063A.494.494,0,0,0,189.281-405.713Z" transform="translate(-86.271 -87.328)" fill="#fff"/>
    </g>
  </g>
</svg>
