<svg xmlns="http://www.w3.org/2000/svg" width="19.474" height="22.538" viewBox="0 0 19.474 22.538">
  <g id="lock-_1_" transform="translate(-34.775 511.958)">
    <path id="Path_3905" data-name="Path 3905" d="M42.775-511.85a.338.338,0,0,0-.11.247c0,.123.075.216.515.66.326.33.489.528.449.537s-.3.053-.59.092a9.354,9.354,0,0,0-2.972.955,9.784,9.784,0,0,0-5.243,7.546,12.994,12.994,0,0,0,0,2.267,10.019,10.019,0,0,0,2.241,5.155,9.9,9.9,0,0,0,4.028,2.831c.533.2.7.167.8-.136.062-.2-.07-.339-.489-.5a9.059,9.059,0,0,1-5.666-6.322,9.085,9.085,0,0,1,0-4.349,9.054,9.054,0,0,1,7.246-6.74c.7-.123.7-.132.158.405a4.247,4.247,0,0,0-.5.572.358.358,0,0,0,.352.409c.11,0,.255-.123,1-.872.77-.77.872-.885.872-1.013,0-.176-.092-.282-1.043-1.18C43.052-512.017,42.978-512.057,42.775-511.85Z" transform="translate(0 0)" fill="#fff"/>
    <path id="Path_3906" data-name="Path 3906" d="M251.143-466.729a.423.423,0,0,0-.194.339c0,.154.154.264.625.445a9.058,9.058,0,0,1,5.648,6.7,11.415,11.415,0,0,1,.114,2.8,8.969,8.969,0,0,1-2.6,5.344,8.736,8.736,0,0,1-3.482,2.17,9.726,9.726,0,0,1-1.853.423h-.15l.467-.475a4.1,4.1,0,0,0,.493-.55.41.41,0,0,0-.136-.365.361.361,0,0,0-.207-.062c-.11,0-.255.123-1,.872-.788.788-.872.885-.872,1.017s.079.229.775.929c.784.788.947.924,1.114.924a.386.386,0,0,0,.313-.357c0-.123-.075-.216-.515-.66-.326-.335-.489-.528-.449-.542s.251-.04.475-.066a9.792,9.792,0,0,0,5.529-2.756,9.785,9.785,0,0,0,2.8-5.767,13,13,0,0,0,0-2.267,9.744,9.744,0,0,0-6.26-7.986C251.315-466.8,251.284-466.8,251.143-466.729Z" transform="translate(-203.838 -43.196)" fill="#fff"/>
    <path id="Path_3907" data-name="Path 3907" d="M148.454-407.539a4.805,4.805,0,0,0-.969.317,3.682,3.682,0,0,0-1.651,1.721,3.85,3.85,0,0,0-.295,1.928l-.022,1.087-.172.026a1.785,1.785,0,0,0-.836.453,1.881,1.881,0,0,0-.255.405l-.114.242-.013,1.761a10.635,10.635,0,0,0,.062,2.091,2.811,2.811,0,0,0,2.184,2.175,45.246,45.246,0,0,0,5.353,0,2.812,2.812,0,0,0,2.188-2.2,12.293,12.293,0,0,0,.057-2.087l-.013-1.739-.114-.242a1.88,1.88,0,0,0-.255-.405,1.785,1.785,0,0,0-.836-.453l-.172-.026-.022-1.087a4.028,4.028,0,0,0-.251-1.823,3.413,3.413,0,0,0-.308-.577,3.517,3.517,0,0,0-2.113-1.514A5.04,5.04,0,0,0,148.454-407.539Zm1.189.722a2.858,2.858,0,0,1,1.906,1.475,3.479,3.479,0,0,1,.317,1.924v.938h-5.635v-.938a3.545,3.545,0,0,1,.313-1.924A2.82,2.82,0,0,1,149.642-406.817Zm3.183,5.124a.7.7,0,0,1,.383.414,22.875,22.875,0,0,1,0,3.685,2.143,2.143,0,0,1-1.51,1.55,14.339,14.339,0,0,1-2.615.075c-2.6,0-2.716,0-3.187-.286a2.15,2.15,0,0,1-.991-1.29,9.581,9.581,0,0,1-.075-1.955c0-1.55,0-1.673.079-1.827a.764.764,0,0,1,.379-.374,24.452,24.452,0,0,1,3.755-.075C152.508-401.777,152.667-401.772,152.825-401.693Z" transform="translate(-104.534 -99.794)" fill="#fff"/>
    <path id="Path_3908" data-name="Path 3908" d="M230-257.911a1.316,1.316,0,0,0-.691.555,1.2,1.2,0,0,0,.471,1.647l.2.106v.586c0,.564,0,.59.11.691a.343.343,0,0,0,.242.11.343.343,0,0,0,.242-.11c.106-.1.11-.128.11-.691v-.586l.2-.106a1.175,1.175,0,0,0,.621-1.153A1.194,1.194,0,0,0,230-257.911Zm.669.806a.385.385,0,0,1,.15.335.385.385,0,0,1-.15.335.385.385,0,0,1-.335.15.385.385,0,0,1-.335-.15.385.385,0,0,1-.15-.335.385.385,0,0,1,.15-.335.385.385,0,0,1,.335-.15A.385.385,0,0,1,230.674-257.106Z" transform="translate(-185.825 -242.818)" fill="#fff"/>
  </g>
</svg>
