<svg xmlns="http://www.w3.org/2000/svg" xmlns:xlink="http://www.w3.org/1999/xlink" width="250" height="250" viewBox="0 0 250 250">
  <defs>
    <clipPath id="clip-iPhone_14_Pro_Max_4">
      <rect width="250" height="250"/>
    </clipPath>
  </defs>
  <g id="iPhone_14_Pro_Max_4" data-name="iPhone 14 Pro Max – 4" clip-path="url(#clip-iPhone_14_Pro_Max_4)">
    <rect width="250" height="250" fill="#fff"/>
    <g id="Group_7444" data-name="Group 7444" transform="translate(9679.948 14495.864)">
      <path id="Path_253" data-name="Path 253" d="M36.785-415.187a8.187,8.187,0,0,0-4.53,9.011,8.521,8.521,0,0,0,5.178,5.724c1.294.4,34.3.5,107.239.4l105.4-.15,1.344-1.044c2.639-1.942,3.435-3.535,3.435-6.672s-.8-4.729-3.435-6.671l-1.344-1.043-105.895-.1C56.9-415.834,38.03-415.735,36.785-415.187Z" transform="translate(-9698.426 -13962.98)" fill="#ed1c24" stroke="#ed1c24" stroke-width="0.25"/>
      <path id="Path_254" data-name="Path 254" d="M36.785-271.187a8.187,8.187,0,0,0-4.53,9.01,8.524,8.524,0,0,0,5.178,5.726c1.294.4,29.523.5,91.308.4l89.465-.152,1.344-1.044c2.638-1.941,3.435-3.535,3.435-6.67s-.8-4.729-3.435-6.671l-1.344-1.045-89.963-.1C54.211-271.834,38.03-271.734,36.785-271.187Z" transform="translate(-9682.494 -14035.389)" fill="#ed1c24" stroke="#ed1c24" stroke-width="0.25"/>
      <path id="Path_255" data-name="Path 255" d="M36.785-127.187a8.187,8.187,0,0,0-4.53,9.011,8.523,8.523,0,0,0,5.178,5.725c1.245.4,18.769.5,55.461.4,53.221-.149,53.62-.149,54.964-1.2,2.639-1.942,3.435-3.535,3.435-6.671s-.8-4.73-3.435-6.67c-1.344-1.046-1.693-1.046-55.462-1.145C48.186-127.835,37.981-127.734,36.785-127.187Z" transform="translate(-9643.631 -14322.556)" fill="#ed1c24" stroke="#ed1c24" stroke-width="0.25"/>
    </g>
  </g>
</svg>
