<?xml version="1.0" encoding="UTF-8"?>
<svg version="1.1" xmlns="http://www.w3.org/2000/svg" width="1080" height="1080">
<path d="M0 0 C1.47726562 -0.05994141 1.47726562 -0.05994141 2.984375 -0.12109375 C13.01685931 1.59498909 20.17902641 10.99816231 27 17.9296875 C28.22419775 19.16203846 29.44914627 20.39364401 30.67480469 21.62454224 C33.88723898 24.85401518 37.09099011 28.09195726 40.29248047 31.33227539 C45.41298137 36.51216848 50.54626511 41.67938436 55.68029785 46.84585953 C57.45994643 48.63932301 59.23563698 50.43662958 61.01074219 52.23458862 C65.96403632 57.23917579 70.93306654 62.15033731 76.29553223 66.72149658 C80.46483293 70.38210146 84.35865064 74.34067674 88.296875 78.24609375 C89.23049866 79.17164566 90.16412231 80.09719757 91.1260376 81.05079651 C93.08785962 82.99772083 95.04717564 84.94713383 97.00537109 86.89770508 C99.5005275 89.38175015 102.00716233 91.85387582 104.51646042 94.3236227 C106.93112527 96.7057344 109.33168741 99.10190298 111.734375 101.49609375 C113.0766214 102.81207802 113.0766214 102.81207802 114.44598389 104.15464783 C119.94930443 109.67725555 124.43361872 114.6352572 125.78125 122.5625 C125.7709375 123.51125 125.760625 124.46 125.75 125.4375 C125.7603125 126.38625 125.770625 127.335 125.78125 128.3125 C124.53592338 135.63795072 120.42418255 140.85362048 115.23144531 145.92602539 C114.63899017 146.52067093 114.04653503 147.11531647 113.43612671 147.72798157 C111.49293157 149.67347084 109.53589947 151.60434835 107.578125 153.53515625 C106.21214783 154.896202 104.84698769 156.25806817 103.48260498 157.62071228 C100.62720514 160.46849236 97.76549449 163.30970887 94.8984375 166.14575195 C91.24080395 169.76386933 87.59396622 173.3926184 83.95119095 177.02568913 C80.45532948 180.51152711 76.9545842 183.99244241 73.453125 187.47265625 C72.79398354 188.12840197 72.13484207 188.78414768 71.45572662 189.45976448 C59.4735853 201.36755357 59.4735853 201.36755357 53.09521484 206.8065033 C49.26238419 210.19436579 45.73084141 213.89863664 42.1484375 217.546875 C40.42476775 219.28804614 38.70080063 221.02892295 36.9765625 222.76953125 C34.28964515 225.4874856 31.60514147 228.20769981 28.92578125 230.93310547 C26.31925204 233.58196699 23.70336395 236.22128689 21.0859375 238.859375 C20.28892426 239.67500916 19.49191101 240.49064331 18.67074585 241.33099365 C13.13234696 246.89474752 8.56130269 250.85064268 0.375 250.9375 C-6.43874974 250.75174722 -10.47210297 248.63994671 -15.27734375 243.9453125 C-19.83305636 238.84819636 -21.19114949 234.38655238 -20.9921875 227.69921875 C-19.62231981 214.90642208 -4.88409871 204.44019767 3.71484375 195.875 C5.11753391 194.47417785 6.52000128 193.07313257 7.92225647 191.671875 C11.5909754 188.00695113 15.26268878 184.34504192 18.93505859 180.68377686 C22.69095978 176.93815494 26.44398711 173.18965587 30.19726562 169.44140625 C37.54538554 162.10397047 44.8966758 154.76971995 52.25 147.4375 C50.90245203 147.43660437 50.90245203 147.43660437 49.52768087 147.43569064 C-3.69862393 147.39980867 -56.92487216 147.34318813 -110.15112451 147.25957905 C-116.53987705 147.24956141 -122.92862984 147.23971731 -129.31738281 147.22998047 C-131.22523793 147.22706841 -131.22523793 147.22706841 -133.17163557 147.22409752 C-153.77504825 147.19306345 -174.37844979 147.17609294 -194.98188144 147.16430578 C-216.11770384 147.15190152 -237.25346769 147.12441649 -258.38925314 147.08288693 C-271.43463494 147.05773083 -284.47991967 147.04438427 -297.52532607 147.04607043 C-306.46703659 147.04610015 -315.4086481 147.03150164 -324.35032004 147.00533572 C-329.51175216 146.99066587 -334.67298124 146.98250735 -339.83443069 146.99169731 C-344.55975216 146.99996851 -349.28466521 146.98987257 -354.00992602 146.96516338 C-355.71933471 146.95946753 -357.42878195 146.96051408 -359.13817912 146.96898755 C-377.08405423 147.05032305 -377.08405423 147.05032305 -383.80859375 140.40234375 C-384.26363281 139.73332031 -384.71867187 139.06429687 -385.1875 138.375 C-385.89712891 137.36759766 -385.89712891 137.36759766 -386.62109375 136.33984375 C-389.94868755 130.7324452 -389.69135895 123.27290166 -388.171875 117.08203125 C-385.42718717 110.63201486 -379.81708332 107.47104166 -373.75 104.4375 C-371.45204326 104.33678012 -369.15106258 104.30356208 -366.85090446 104.2988348 C-366.12934959 104.29599258 -365.40779471 104.29315036 -364.66437453 104.29022202 C-362.22186626 104.28183264 -359.77940515 104.2806035 -357.33688354 104.27928162 C-355.57799132 104.27471915 -353.81910019 104.2697196 -352.06021035 104.26431805 C-347.20766099 104.2506916 -342.35511866 104.2433056 -337.50255513 104.23689139 C-332.27690251 104.22890717 -327.05126461 104.21520262 -321.82562256 104.20217896 C-312.7654453 104.18038805 -303.70526657 104.16225316 -294.64507675 104.14657402 C-281.54542644 104.12389914 -268.44579242 104.09575305 -255.3461559 104.06625474 C-234.09487283 104.01854956 -212.84358312 103.97529333 -191.59228516 103.93481445 C-170.94384239 103.8954744 -150.29540554 103.85405176 -129.64697266 103.80981445 C-128.37503799 103.80709018 -127.10310332 103.80436591 -125.79262517 103.80155908 C-119.41195201 103.78787985 -113.03127894 103.77415953 -106.65060592 103.76041877 C-53.68374961 103.64640804 -0.7168805 103.53960888 52.25 103.4375 C51.3796965 102.57829956 50.50939301 101.71909912 49.61271667 100.8338623 C41.40362744 92.72622983 33.20784748 84.60535229 25.02483654 76.4713974 C20.81766096 72.29029006 16.60597234 68.11395088 12.38354492 63.94824219 C8.30713167 59.92624451 4.24313446 55.89207585 0.18737221 51.84925842 C-1.36037045 50.31073825 -2.91249998 48.77661803 -4.46909523 47.24705505 C-6.65246816 45.10009618 -8.81956855 42.93787118 -10.98364258 40.77148438 C-11.62740845 40.14569489 -12.27117432 39.5199054 -12.93444824 38.87515259 C-17.91109333 33.84083556 -21.17339769 28.27070156 -21.1875 20.9375 C-20.95209324 15.23869474 -19.00659476 10.79880914 -15.06640625 6.67578125 C-10.27326731 2.41864924 -6.54518299 0.14412968 0 0 Z " fill="#ED1B23" transform="translate(671.75,414.5625)"/>
</svg>
