<svg xmlns="http://www.w3.org/2000/svg" width="14.504" height="14.511" viewBox="0 0 14.504 14.511">
  <g id="public-service" transform="translate(-9.133 502.962)">
    <path id="Path_3109" data-name="Path 3109" d="M191.4-502.921a1.3,1.3,0,0,0-.8.658.823.823,0,0,0-.1.523.839.839,0,0,0,.112.546,1.212,1.212,0,0,0,2.186,0,.936.936,0,0,0,.12-.479,1.086,1.086,0,0,0-.176-.711A1.238,1.238,0,0,0,191.4-502.921Zm.593.429a.822.822,0,0,1,.523.764.825.825,0,0,1-.491.752,1.063,1.063,0,0,1-.635,0,.825.825,0,0,1-.491-.752A.806.806,0,0,1,191.989-502.492Z" transform="translate(-176.039 -0.002)" fill="#fff"/>
    <path id="Path_3110" data-name="Path 3110" d="M380.393-502.922a1.33,1.33,0,0,0-.811.687.831.831,0,0,0-.082.494.839.839,0,0,0,.112.546,1.211,1.211,0,0,0,2.186,0,.839.839,0,0,0,.112-.546.823.823,0,0,0-.1-.523A1.248,1.248,0,0,0,380.393-502.922Zm.6.429a.816.816,0,0,1,.264,1.357.7.7,0,0,1-.549.209.7.7,0,0,1-.549-.209.813.813,0,0,1,0-1.19A.791.791,0,0,1,380.989-502.494Z" transform="translate(-359.487)" fill="#fff"/>
    <path id="Path_3111" data-name="Path 3111" d="M285.194-476.732a1.231,1.231,0,0,0-.931,1,1.23,1.23,0,0,0,1.4,1.4,1.225,1.225,0,0,0,1.019-1.013A1.226,1.226,0,0,0,285.194-476.732Zm.629.455a.816.816,0,0,1,.37.361.6.6,0,0,1,.085.376.6.6,0,0,1-.085.376.75.75,0,0,1-.72.429.75.75,0,0,1-.72-.429.6.6,0,0,1-.085-.376.694.694,0,0,1,.179-.52.945.945,0,0,1,.429-.276A1.02,1.02,0,0,1,285.823-476.277Z" transform="translate(-267.031 -25.426)" fill="#fff"/>
    <path id="Path_3112" data-name="Path 3112" d="M151.556-412.834a2.529,2.529,0,0,0-.655.2,2.387,2.387,0,0,0-1.4,2.112c0,.267.006.305.079.432a1.874,1.874,0,0,0,1.3.684,7.072,7.072,0,0,0,1.266.085l.206-.018.059.094a2.228,2.228,0,0,0,1.41.635,7.187,7.187,0,0,0,1.7,0,2.391,2.391,0,0,0,1.36-.561l.144-.153.482,0c1.163-.012,2-.291,2.28-.764.076-.129.082-.164.082-.435a2.125,2.125,0,0,0-.173-.843,2.462,2.462,0,0,0-1.228-1.269,2.137,2.137,0,0,0-.89-.214,2.339,2.339,0,0,0-1.824.7l-.209.2-.232-.068a1.971,1.971,0,0,0-.629-.065,1.971,1.971,0,0,0-.629.065l-.232.068-.209-.2a2.424,2.424,0,0,0-1.228-.664A3.148,3.148,0,0,0,151.556-412.834Zm.825.449a2,2,0,0,1,.855.452l.194.179-.173.132a2.489,2.489,0,0,0-.778.958,2.624,2.624,0,0,0-.2.8v.12l-.17.021a6.275,6.275,0,0,1-1.19-.088c-.582-.123-.949-.326-1.008-.564a1.967,1.967,0,0,1,.244-1.037,2.387,2.387,0,0,1,.831-.8A2.027,2.027,0,0,1,152.382-412.385Zm5.552,0a1.813,1.813,0,0,1,.925.529,2.649,2.649,0,0,1,.344.411,2.3,2.3,0,0,1,.259.846c.015.194.009.238-.044.323a1.523,1.523,0,0,1-.914.449,6,6,0,0,1-1.24.1l-.17-.021v-.12a2.625,2.625,0,0,0-.2-.8,2.55,2.55,0,0,0-.787-.966l-.165-.123.194-.179A1.992,1.992,0,0,1,157.934-412.385Zm-2.847.752a1.99,1.99,0,0,1,1.6,1.874.4.4,0,0,1-.07.3,1.978,1.978,0,0,1-1.1.447,7,7,0,0,1-1.645,0,1.978,1.978,0,0,1-1.1-.447,1.309,1.309,0,0,1,.12-1.084A2.013,2.013,0,0,1,155.087-411.633Z" transform="translate(-136.243 -87.465)" fill="#fff"/>
    <path id="Path_3113" data-name="Path 3113" d="M14.073-226.836a8.772,8.772,0,0,0-1.639.7l-.94.452-.094-.194a.676.676,0,0,0-.626-.444,7.931,7.931,0,0,0-1.19.452.648.648,0,0,0-.447.679c.018.15,1.763,4.345,1.862,4.477a.751.751,0,0,0,.491.238,6.1,6.1,0,0,0,1.178-.441.646.646,0,0,0,.411-.925,1.494,1.494,0,0,1-.073-.2,4.349,4.349,0,0,1,.887-.423.806.806,0,0,1,.3-.029c.068.012.649.173,1.3.364l1.175.341h.353a2.221,2.221,0,0,0,.676-.082c.408-.1,5.082-1.9,5.288-2.03a1.435,1.435,0,0,0,.652-1.272.973.973,0,0,0-.767-.872,2.651,2.651,0,0,0-.99,0c-.12.023-.861.229-1.645.458l-1.422.417-.059-.082a1.431,1.431,0,0,0-.458-.414c-.073-.035-.57-.179-1.1-.32a3.857,3.857,0,0,1-1.166-.388,4.317,4.317,0,0,0-.993-.458A2.757,2.757,0,0,0,14.073-226.836Zm.884.414a3.1,3.1,0,0,1,.837.394,3.662,3.662,0,0,0,1.246.426c.552.147,1.046.291,1.093.314a.671.671,0,0,1,.35.611.66.66,0,0,1-.423.64c-.2.085-.347.059-1.727-.314-1.2-.323-1.337-.355-1.407-.32a.186.186,0,0,0-.076.285c.053.068.191.112,1.392.438,1.5.405,1.619.423,1.945.3a1.15,1.15,0,0,0,.717-.937l.024-.191,1.381-.405c.761-.223,1.478-.426,1.6-.449a2.318,2.318,0,0,1,.9,0,.571.571,0,0,1,.414.652,1.122,1.122,0,0,1-.52.773c-.185.094-4.686,1.818-4.95,1.895a2.514,2.514,0,0,1-.852.123c-.1-.006-.7-.165-1.351-.353s-1.249-.35-1.337-.358a1.812,1.812,0,0,0-.978.261l-.4.191-.047-.109c-.488-1.163-1.128-2.714-1.128-2.732s1.889-.931,2.144-1.028A1.888,1.888,0,0,1,14.958-226.421Zm-4.028.576c.079.073,1.786,4.142,1.8,4.3a.22.22,0,0,1-.032.141,7.9,7.9,0,0,1-1.213.52.236.236,0,0,1-.135-.068c-.047-.044-.355-.749-.931-2.136-.476-1.14-.867-2.106-.875-2.147-.021-.138.091-.217.655-.449a4.962,4.962,0,0,1,.593-.22A.224.224,0,0,1,10.93-225.846Z" transform="translate(0 -267.976)" fill="#fff"/>
  </g>
</svg>
