<svg xmlns="http://www.w3.org/2000/svg" width="28.728" height="28.743" viewBox="0 0 28.728 28.743">
  <g id="menu" transform="translate(-0.5 511.758)">
    <path id="Path_3485" data-name="Path 3485" d="M1.849-511.666a1.908,1.908,0,0,0-1.209.989L.5-510.4v6.915l.135.3a2.145,2.145,0,0,0,1,.944c.253.1.557.107,5.3.124a50.183,50.183,0,0,0,5.352-.067,1.721,1.721,0,0,0,1.226-1.046l.146-.309v-3.345c0-3.1-.006-3.368-.1-3.643a2.064,2.064,0,0,0-.95-1.029l-.3-.135L7.162-511.7C4.334-511.7,1.945-511.689,1.849-511.666Zm10.226,1.209c.388.163.371-.011.371,3.564v3.227l-.163.163-.163.163H7.095c-4.554,0-5.037-.011-5.155-.09-.281-.2-.287-.242-.287-3.514a15.734,15.734,0,0,1,.09-3.227c.18-.382-.079-.365,5.3-.365A44.386,44.386,0,0,1,12.076-510.458Z" transform="translate(0 -0.055)" fill="#ed1c24"/>
    <path id="Path_3486" data-name="Path 3486" d="M278.409-511.693a2.947,2.947,0,0,0-.4.163,2.462,2.462,0,0,0-.714.748c-.208.4-.214.68-.2,7.612l.017,6.775.146.309a1.707,1.707,0,0,0,.883.911l.377.186h5.144c4.846,0,5.161-.006,5.442-.1a2.064,2.064,0,0,0,1.029-.95l.135-.3v-14.111l-.191-.354a1.637,1.637,0,0,0-.815-.787l-.287-.152-5.172-.011C279.736-511.766,278.584-511.75,278.409-511.693Zm10.344,1.192c.388.18.365-.259.365,7.1,0,7.157.011,6.9-.287,7.112-.118.079-.6.09-5.155.09h-5.026l-.163-.163-.163-.163v-6.825c0-6.212.006-6.836.09-6.954.2-.287.09-.281,5.3-.287C288.023-510.591,288.591-510.58,288.754-510.5Z" transform="translate(-261.043)" fill="#ed1c24"/>
    <path id="Path_3487" data-name="Path 3487" d="M1.844-298.848a1.846,1.846,0,0,0-1.237,1.079c-.1.264-.107.528-.107,7.3v7.027l.191.354a1.637,1.637,0,0,0,.815.787l.287.152H12.306l.3-.135a2.064,2.064,0,0,0,.95-1.029c.1-.281.1-.652.1-7.241v-6.943l-.146-.309a1.73,1.73,0,0,0-1.214-1.04,45.935,45.935,0,0,0-5.245-.079C3.35-298.921,2.057-298.9,1.844-298.848Zm10.44,1.321.163.163v6.825c0,6.218-.006,6.836-.09,6.954-.208.292-.1.287-5.313.287-4.29,0-4.863-.011-5.026-.09-.388-.18-.365.259-.365-7.1,0-7.157-.011-6.9.287-7.112.118-.079.6-.09,5.155-.09h5.026Z" transform="translate(0 -200.871)" fill="#ed1c24"/>
    <path id="Path_3488" data-name="Path 3488" d="M278.509-170.66a1.8,1.8,0,0,0-1.226,1.046l-.146.309-.017,3.176c-.017,3.379,0,3.654.242,4.082a2.037,2.037,0,0,0,.905.787c.264.1.495.107,5.5.107H289l.287-.152a1.636,1.636,0,0,0,.815-.787l.191-.354v-6.915l-.135-.3a2.145,2.145,0,0,0-1-.945c-.253-.1-.551-.107-5.33-.118C279.937-170.727,278.706-170.716,278.509-170.66Zm10.344,1.248c.281.2.287.242.287,3.514a15.681,15.681,0,0,1-.09,3.227c-.18.382.067.365-5.3.365-5.212,0-5.1.006-5.313-.287-.079-.118-.09-.467-.09-3.356v-3.227l.163-.163.163-.163H283.7C288.252-169.5,288.735-169.491,288.854-169.412Z" transform="translate(-261.064 -321.862)" fill="#ed1c24"/>
  </g>
</svg>
