<svg xmlns="http://www.w3.org/2000/svg" width="32.823" height="22.849" viewBox="0 0 32.823 22.849">
  <g id="hurry" transform="translate(-0.147 434.243)">
    <path id="Path_2137" data-name="Path 2137" d="M105.52-434.215a2.462,2.462,0,0,0-1.822,1.4,1.764,1.764,0,0,0-.2,1.026,1.794,1.794,0,0,0,.173.975,2.406,2.406,0,0,0,2.38,1.456,2.308,2.308,0,0,0,1.668-.763A2.454,2.454,0,0,0,105.52-434.215Z" transform="translate(-96.724)" fill="#d20000"/>
    <path id="Path_2138" data-name="Path 2138" d="M266-373.872c0,.128.045.128,4.2.128s4.2,0,4.2-.128-.045-.128-4.2-.128S266-374,266-373.872Z" transform="translate(-248.802 -56.38)" fill="#d20000"/>
    <path id="Path_2139" data-name="Path 2139" d="M139.163-367.764a1.483,1.483,0,0,0-1.238,1.661,3.077,3.077,0,0,0,.071.667l.064.244.507-.667c.552-.731.757-.879,1.251-.879a1.072,1.072,0,0,1,1.1.981c.045.4-.071.616-.956,1.783-.43.577-.808,1.078-.834,1.122a3.708,3.708,0,0,0,.237.936,6.512,6.512,0,0,1,.41,1.745c-.013.013-.686.334-1.5.712s-1.494.706-1.52.731a.665.665,0,0,0,.045.353,8.557,8.557,0,0,1,.006,2.559c-.083.212-.5.622-.622.622-.038,0-.058.026-.045.051.058.16,4.021,3.7,4.246,3.8a1.357,1.357,0,0,0,1.9-1.276c0-.539-.16-.731-1.956-2.373-.917-.834-1.661-1.546-1.655-1.578.013-.058,3.175-1.571,3.714-1.777a2.053,2.053,0,0,0,1.276-1.751,11.8,11.8,0,0,0-.545-3.521c-.109-.353-.154-.558-.1-.539s1.154.641,2.469,1.385,2.469,1.373,2.559,1.392c.141.032.827.956,3.861,5.227,2.027,2.861,3.7,5.208,3.726,5.227a.434.434,0,0,0,.224-.071,1.173,1.173,0,0,1,1.308.289c.038.071.1.128.128.128a3.794,3.794,0,0,0,.629-.4c.308-.218.75-.539.988-.706l.423-.3.186.289a.9.9,0,0,0,.231.289,1.066,1.066,0,0,0,.269-.147l.218-.148-.218-.327a.9.9,0,0,1-.212-.609,1.167,1.167,0,0,0-.077-.443c-.18-.327-4.637-6.581-4.817-6.747a.781.781,0,0,0-.847-.1c-.186.1-2.251,1.552-2.591,1.828l-.263.212-.224-.308a27.432,27.432,0,0,1-2.251-3.322c.366-.481.4-.718.205-1.11-.135-.269-.237-.34-1.527-1.065-.757-.43-2.649-1.494-4.195-2.373C140.061-367.86,139.926-367.911,139.163-367.764Z" transform="translate(-127.269 -62.167)" fill="#d20000"/>
    <path id="Path_2140" data-name="Path 2140" d="M317.189-361.891c.019.109.366.115,6.035.135,5.978.013,6.01.013,6.01-.115S329.2-362,323.2-362C317.491-362,317.17-361.994,317.189-361.891Z" transform="translate(-296.707 -67.61)" fill="#d20000"/>
    <path id="Path_2141" data-name="Path 2141" d="M293-350.872c0,.128.045.128,4.2.128s4.2,0,4.2-.128-.045-.128-4.2-.128S293-351,293-350.872Z" transform="translate(-274.07 -77.904)" fill="#d20000"/>
    <path id="Path_2142" data-name="Path 2142" d="M69.311-347.222a.894.894,0,0,0-.334.154c-.1.083-1.469,1.879-2.668,3.483-.006.013-1.052.237-2.315.5s-2.392.513-2.508.571a.887.887,0,0,0-.34,1.225,1,1,0,0,0,.706.41c.3,0,5.182-1.045,5.362-1.148a16.245,16.245,0,0,0,1.43-1.745c1.6-2.1,1.745-2.328,1.745-2.6A.866.866,0,0,0,69.311-347.222Z" transform="translate(-56.975 -81.42)" fill="#d20000"/>
    <path id="Path_2143" data-name="Path 2143" d="M3.44-254.715a1.469,1.469,0,0,0-.648.584c-.026.1-.1.115-.475.115a2.064,2.064,0,0,0-1.514.59c-.539.507-.629.783-.654,2.008-.019,1.167.032,1.366.436,1.6.218.128.321.128,4.137.128,4.329,0,4.15.019,4.445-.417.148-.218.148-.257.128-1.315s-.026-1.1-.2-1.424A2.028,2.028,0,0,0,7.257-254c-.526-.026-.558-.032-.654-.212a.3.3,0,0,0-.308-.186c-.231,0-.237.038-.051.237l.135.148H3.068l.122-.135a1.542,1.542,0,0,1,.7-.378c.115,0,.122-.032.032-.2S3.761-254.875,3.44-254.715Zm-.353,1.373v.16H6.359v-.16c0-.128.032-.16.16-.16s.16.032.16.135a.171.171,0,0,0,.128.167.177.177,0,0,1,.128.154c0,.115-.09.122-2.213.122s-2.213-.006-2.213-.122a.177.177,0,0,1,.128-.154.171.171,0,0,0,.128-.167c0-.1.038-.135.16-.135S3.088-253.471,3.088-253.342Zm0,1.6v.93H2.767v-1.86h.321Zm3.592.006c0,.93,0,.93-.141.911s-.148-.038-.167-.936l-.019-.911h.327Z" transform="translate(0 -167.897)" fill="#d20000"/>
    <path id="Path_2144" data-name="Path 2144" d="M214.749-224.833a9.607,9.607,0,0,1-1.122.584,9.6,9.6,0,0,0-.962.468,30.116,30.116,0,0,0,1.918,3.791c.366.334,5.67,4.291,5.83,4.355a1.806,1.806,0,0,0,.52.064,1.3,1.3,0,0,0,1.328-1.353c0-.686-.006-.693-2.989-2.944l-2.681-2.02-.782-1.552c-.43-.859-.8-1.559-.815-1.559A1.315,1.315,0,0,0,214.749-224.833Z" transform="translate(-198.885 -195.823)" fill="#d20000"/>
    <path id="Path_2145" data-name="Path 2145" d="M439.621-101.956a.811.811,0,0,0-.353.77.854.854,0,0,0,.532.584.8.8,0,0,0,.718-.192A.742.742,0,0,0,439.621-101.956Z" transform="translate(-410.948 -310.882)" fill="#d20000"/>
  </g>
</svg>
