<svg xmlns="http://www.w3.org/2000/svg" width="19.162" height="19.477" viewBox="0 0 19.162 19.477">
  <g id="warehouse-_1_" transform="translate(-8 503.9)">
    <path id="Path_2615" data-name="Path 2615" d="M12.81-502.766a45.058,45.058,0,0,0-4.739,1.218c-.064.08-.072.18-.072.846,0,.747,0,.755.1.85.116.12.192.12.571.024l.287-.076v3.984H9.6v-4.132l2.806-.675c1.541-.375,3.337-.806,3.992-.966l1.194-.283,3.988.962,3.988.962v14.99H23.649V-497.64l-.1-.1-.1-.1H11.709l-.1.1c-.1.1-.1.1-.1.858s0,.762.1.858l.1.1h11.3v.639H15.026v.639H23.01V-494H15.026v.639H23.01v.639H15.026v.639H23.01v7.026H20.775v.639h6.387v-.639H26.2V-499.9l.291.076c.375.1.451.1.567-.024.1-.1.1-.1.1-.85,0-.671-.008-.767-.072-.846a41.874,41.874,0,0,0-4.763-1.222c-2.575-.623-4.723-1.13-4.767-1.13S15.381-503.389,12.81-502.766Zm9.282.6c2.427.587,4.415,1.07,4.423,1.078a1.677,1.677,0,0,1,0,.307l-.012.3-2.435-.587c-1.337-.323-3.345-.81-4.459-1.078l-2.024-.491-4.423,1.066c-2.431.587-4.447,1.074-4.471,1.082-.04.012-.052-.064-.052-.291v-.311l1.11-.271c6.148-1.489,7.821-1.888,7.872-1.876C17.653-503.237,19.665-502.75,22.092-502.167Zm.918,5.29v.319H12.152v-.639H23.01Z" fill="#fff"/>
    <path id="Path_2616" data-name="Path 2616" d="M208.622-423.86a1.273,1.273,0,0,0-.591.611.874.874,0,0,0,.252.954c.275.276.375.3,1.305.3s1.062-.032,1.321-.319a.892.892,0,0,0,0-1.277c-.263-.291-.383-.319-1.345-.315A6.852,6.852,0,0,0,208.622-423.86Zm1.816.687a.311.311,0,0,1,.1.22.311.311,0,0,1-.1.22c-.1.1-.1.1-.858.1s-.762,0-.858-.1a.311.311,0,0,1-.1-.22.311.311,0,0,1,.1-.22c.1-.1.1-.1.858-.1S210.342-423.273,210.438-423.173Z" transform="translate(-191.999 -76.798)" fill="#fff"/>
    <path id="Path_2617" data-name="Path 2617" d="M8.1-287.9l-.1.1v10.467l.1.1.1.1H19.94l.1-.1.1-.1v-5.357l-.1-.1-.1-.1H14.387V-287.8l-.1-.1-.1-.1h-6Zm1.816,1.4c0,.862,0,.862.1.958l.1.1h2.164l.1-.1c.1-.1.1-.1.1-.958v-.858h1.277v4.471H8.639v-4.471H9.916Zm1.916-.22v.639H10.555v-1.277h1.277Zm-1.916,5.329c0,.862,0,.862.1.958l.1.1h2.164l.1-.1c.1-.1.1-.1.1-.958v-.858h1.277v4.471H8.639v-4.471H9.916Zm1.916-.22v.639H10.555v-1.277h1.277Zm3.832.22c0,.862,0,.862.1.958l.1.1h2.164l.1-.1c.1-.1.1-.1.1-.958v-.858H19.5v4.471h-5.11v-4.471h1.277Zm1.916-.22v.639H16.3v-1.277h1.277Z" transform="translate(0 -207.281)" fill="#fff"/>
    <path id="Path_2618" data-name="Path 2618" d="M120-191.681v.319h.639V-192H120Z" transform="translate(-107.529 -299.449)" fill="#fff"/>
    <path id="Path_2619" data-name="Path 2619" d="M120-63.681v.319h.639V-64H120Z" transform="translate(-107.529 -422.339)" fill="#fff"/>
    <path id="Path_2620" data-name="Path 2620" d="M264-63.681v.319h.639V-64H264Z" transform="translate(-245.78 -422.339)" fill="#fff"/>
  </g>
</svg>
