<svg xmlns="http://www.w3.org/2000/svg" width="15.207" height="15.207" viewBox="0 0 15.207 15.207">
  <path id="Icon_awesome-arrow-circle-right" data-name="Icon awesome-arrow-circle-right" d="M8.166.563a7.6,7.6,0,1,1-7.6,7.6A7.6,7.6,0,0,1,8.166.563Zm-.886,4.4,2.315,2.22H4a.734.734,0,0,0-.736.736v.491A.734.734,0,0,0,4,9.147h5.6L7.28,11.367a.737.737,0,0,0-.012,1.052l.337.334a.733.733,0,0,0,1.039,0l4.069-4.066a.733.733,0,0,0,0-1.039L8.645,3.576a.733.733,0,0,0-1.039,0l-.337.334A.74.74,0,0,0,7.28,4.965Z" transform="translate(-0.563 -0.563)" fill="#00d2a0"/>
</svg>
