<svg xmlns="http://www.w3.org/2000/svg" width="18.798" height="19.532" viewBox="0 0 18.798 19.532">
  <g id="buy-button" transform="translate(-9 0.635)">
    <path id="Path_2732" data-name="Path 2732" d="M-51.28-.056c.085,0,.17,0,.256,0h.312a.3.3,0,0,1,.219.112.311.311,0,0,1,.056.24.339.339,0,0,1-.15.243.8.8,0,0,1-.188.017l-.113,0-.118,0A1.848,1.848,0,0,0-52.3.908a1.493,1.493,0,0,0-.363,1.166q0,.081,0,.163,0,.219,0,.438c0,.154,0,.307,0,.461q0,.387,0,.773,0,.446,0,.892,0,.384,0,.768,0,.229,0,.458t0,.43c0,.077,0,.154,0,.232A1.372,1.372,0,0,0-52.3,7.7a1.219,1.219,0,0,0,.79.3h.446l.52,0h.179l.746,0,1.068,0,.751,0,.448,0h.422l.228,0a.884.884,0,0,0,.621-.17,1.1,1.1,0,0,1,.71-.083A1.667,1.667,0,0,1-44.877,8a.933.933,0,0,0,.2.01h1.873l.785,0h1.662a1.335,1.335,0,0,0,.974-.36,1.22,1.22,0,0,0,.3-.8c0-.046,0-.093,0-.14s0-.1,0-.154,0-.108,0-.162q0-.267,0-.534,0-.092,0-.184,0-.433,0-.865,0-.5,0-1,0-.386,0-.771,0-.23,0-.46t0-.434q0-.079,0-.158A1.441,1.441,0,0,0-39.46.878,1.712,1.712,0,0,0-40.66.57h-1.359l-.931,0h-.4l-.905,0h-.084l-1.342,0-1.379,0H-49.3c-.237,0-.237,0-.359-.089a.427.427,0,0,1-.054-.35.372.372,0,0,1,.152-.152,2.024,2.024,0,0,1,.382-.019h8.485a2.252,2.252,0,0,1,1.638.439l.073.059a1.694,1.694,0,0,1,.543,1.124c0,.145,0,.289,0,.434q0,.083,0,.167,0,.225,0,.451,0,.141,0,.282,0,.493,0,.986,0,.458,0,.916,0,.395,0,.789,0,.235,0,.47t0,.443q0,.081,0,.161a2.031,2.031,0,0,1-.523,1.472,2.007,2.007,0,0,1-1.455.522h-.136l-.441,0h-.308l-.724,0-.825,0-1.7-.008.038.076c0,.063.007.127.008.19l0,.12,0,.13c0,.044,0,.088,0,.133q0,.211.007.421,0,.143,0,.285.006.35.012.7l.071-.016.093-.021.092-.021a1.073,1.073,0,0,1,.809.173,1.275,1.275,0,0,1,.381.419l.138-.057a1.305,1.305,0,0,1,.985.04,1.227,1.227,0,0,1,.438.4l.071.093.043.059.064-.025a1.221,1.221,0,0,1,.865-.022,1.188,1.188,0,0,1,.6.627,2.387,2.387,0,0,1,.051.669l0,.151c0,.048,0,.1,0,.145,0,.065,0,.065,0,.131a.285.285,0,0,1-.112.2.3.3,0,0,1-.24.058c-.172-.048-.172-.048-.243-.15a.9.9,0,0,1-.045-.31l0-.116q0-.121,0-.241a.761.761,0,0,0-.1-.442.428.428,0,0,0-.381-.145.5.5,0,0,0-.345.226.568.568,0,0,0-.05.259.77.77,0,0,1-.086.316.427.427,0,0,1-.321.093.418.418,0,0,1-.228-.174.731.731,0,0,1-.019-.207l0-.12c0-.041,0-.083,0-.125a1.121,1.121,0,0,0-.131-.69.532.532,0,0,0-.421-.125.521.521,0,0,0-.33.2.652.652,0,0,0-.085.4l0,.094q0,.1.006.194a.768.768,0,0,1-.122.5.572.572,0,0,1-.343.038.379.379,0,0,1-.175-.249l0-.109-.006-.122,0-.128,0-.127q-.008-.258-.012-.517l0-.127,0-.114a.587.587,0,0,0-.13-.3.676.676,0,0,0-.4-.112.649.649,0,0,0-.319.188.843.843,0,0,0-.046.385q0,.095,0,.189,0,.149,0,.3c0,.1,0,.192,0,.288,0,.03,0,.059,0,.09a.621.621,0,0,1-.132.425.572.572,0,0,1-.343.038.348.348,0,0,1-.152-.152,2.274,2.274,0,0,1-.019-.4c0-.062,0-.062,0-.125q0-.134,0-.269c0-.142,0-.283,0-.425q0-.413,0-.826,0-.561,0-1.122,0-.209,0-.419,0-.129,0-.257V9.055a.85.85,0,0,0-.129-.526.557.557,0,0,0-.451-.122.559.559,0,0,0-.272.084.547.547,0,0,0-.076.19L-46.1,8.8c0,.071,0,.143-.005.214,0,.042,0,.084,0,.127q0,.132,0,.265c-.007.321-.007.321-.117.452a.43.43,0,0,1-.368.008.384.384,0,0,1-.165-.294c0-.127,0-.253,0-.379,0-.044,0-.088,0-.133,0-.323,0-.323.049-.412h-.078l-1.893.007-.915,0-.8,0-.422,0h-.473l-.14,0a1.961,1.961,0,0,1-1.361-.523,2.1,2.1,0,0,1-.523-1.55q0-.084,0-.167,0-.225,0-.45c0-.158,0-.315,0-.473q0-.4,0-.793,0-.457,0-.915,0-.442,0-.884,0-.187,0-.374,0-.221,0-.441,0-.081,0-.161a1.924,1.924,0,0,1,.53-1.456A1.94,1.94,0,0,1-51.28-.056Z" transform="translate(64.268 -0.576)" fill="#fff"/>
    <path id="Path_2733" data-name="Path 2733" d="M-10.685-.015h.229c.078,0,.157,0,.235,0,.471,0,.471,0,.688.173A.648.648,0,0,1-9.3.614h.078Q-8.286.607-7.346.6l.909,0,.792,0,.419,0c.156,0,.312,0,.468,0l.141,0c.31,0,.31,0,.444.106a.552.552,0,0,1,.041.335l-.015.132-.018.135-.016.126c-.018.129-.037.258-.057.387l-.022.142-.046.294q-.035.224-.068.448l-.045.287-.02.134a1.254,1.254,0,0,1-.289.727l-.065.042-.065.044a.8.8,0,0,1-.377.079h-.3l-.353,0-.245,0-.645.006-.658.006-1.291.012a.551.551,0,0,0-.09.39.482.482,0,0,0,.243.257c.116,0,.232.005.348.005h.345l.374,0,1.064,0,.65,0h.247c.938,0,.938,0,1.263.257l.069.086.072.085a1.135,1.135,0,0,1,.135.811.962.962,0,0,1-.495.609A1.11,1.11,0,0,1-5.3,6.6a1.113,1.113,0,0,1-.576-.615,1.024,1.024,0,0,1-.029-.162l-.011-.081a1.406,1.406,0,0,1,.078-.4H-7.286l.076.381a1.154,1.154,0,0,1-.3.685,1.141,1.141,0,0,1-.913.228.967.967,0,0,1-.609-.495.919.919,0,0,1-.086-.454V5.542a1.2,1.2,0,0,1,.086-.361l-.083-.057a1.081,1.081,0,0,1-.373-.742,1.736,1.736,0,0,1,.069-.447c.017-.094.017-.094-.062-.183l-.083-.093a.757.757,0,0,1-.1-.343L-9.685,3.2-9.7,3.067l-.014-.137c-.031-.306-.059-.612-.088-.918L-9.81,1.9q-.026-.277-.05-.554l-.019-.206-.008-.1A2.268,2.268,0,0,0-9.95.652l-.077,0-.348-.012-.122,0-.118,0-.108,0a.557.557,0,0,1-.368-.164c-.026-.27-.026-.27.061-.384A.445.445,0,0,1-10.685-.015Zm1.457,1.238a6.944,6.944,0,0,0,.038.761h1.028l-.017-.359,0-.113,0-.089,0-.091c0-.071,0-.071-.046-.109-.073,0-.147,0-.22,0h-.419Zm1.637,0,0,.338v.276a.2.2,0,0,0,.042.148h1.066l.038-.761Zm1.751,0a.7.7,0,0,0-.042.267c0,.026,0,.052,0,.079v.1c0,.1,0,.209,0,.316h.99l.114-.761Zm-3.273,1.37q.008.158.017.316l0,.091,0,.087,0,.08a.459.459,0,0,0,.046.187.521.521,0,0,0,.275.042h.369l.307,0Q-8.093,3.2-8.1,3.014l0-.109,0-.1,0-.1c0-.074,0-.074-.046-.112-.071,0-.141,0-.212,0h-.4Zm1.6,0,0,.357v.291a.2.2,0,0,0,.042.151h.913l.038-.8Zm1.6,0a.726.726,0,0,0-.042.275c0,.031,0,.061,0,.093s0,.063,0,.1,0,.064,0,.1q0,.119,0,.238l.376,0h.307a.2.2,0,0,0,.155-.042c.024-.107.045-.211.062-.319l.015-.09A2.076,2.076,0,0,0-5,2.593ZM-8.428,5.448a.446.446,0,0,0-.076.381.407.407,0,0,0,.324.214.324.324,0,0,0,.245-.1.461.461,0,0,0,.079-.419.4.4,0,0,0-.264-.188A.4.4,0,0,0-8.428,5.448Zm3.235,0c-.091.076-.091.076-.093.221a.386.386,0,0,0,.1.274.409.409,0,0,0,.378.076.4.4,0,0,0,.19-.19.476.476,0,0,0-.062-.376A.345.345,0,0,0-5.193,5.448Z" transform="translate(25.192 0.412)" fill="#fff"/>
    <path id="Path_2734" data-name="Path 2734" d="M-46.654-.212A.414.414,0,0,1-46.5-.06a2.163,2.163,0,0,1,.02.322v.1c0,.107,0,.214,0,.322q0,.112,0,.224,0,.234,0,.468c0,.2,0,.4,0,.6q0,.231,0,.462,0,.111,0,.221c0,.1,0,.206,0,.309V3.06a.4.4,0,0,1-.114.326.342.342,0,0,1-.238.059.38.38,0,0,1-.283-.231,2.56,2.56,0,0,1-.015-.427V2.662c0-.131,0-.262,0-.393q0-.133,0-.267,0-.327.007-.654l-.182.052-.1.029a.631.631,0,0,0-.387.342,1.2,1.2,0,0,0-.067.49c0,.032,0,.064,0,.1q0,.1,0,.2c0,.1,0,.2,0,.307a2.557,2.557,0,0,0,.7,1.947,5.033,5.033,0,0,0,.463.375,1.68,1.68,0,0,1,.645,1.142h4.491l.038-.419a3.05,3.05,0,0,1,.409-.9,2.357,2.357,0,0,0,.344-1.034c.029-.216.029-.216.118-.311a.56.56,0,0,1,.347-.038.34.34,0,0,1,.172.273,2.72,2.72,0,0,1-.5,1.566,2.673,2.673,0,0,0-.321.864l.064-.005a.809.809,0,0,1,.583.158,1.15,1.15,0,0,1,.315.891c0,.032,0,.065,0,.1s0,.065,0,.1a1.192,1.192,0,0,1-.186.749l-.051.072a1.3,1.3,0,0,1-1,.242H-46.87a.714.714,0,0,1-.5-.276l-.066-.076a1.257,1.257,0,0,1-.148-.8l0-.144a1.022,1.022,0,0,1,.236-.778.843.843,0,0,1,.657-.227,2.021,2.021,0,0,0-.735-.906,2.928,2.928,0,0,1-1.054-1.911c-.018-.249-.018-.5-.017-.749,0-.115,0-.229,0-.344a1.664,1.664,0,0,1,.421-1.336,1.1,1.1,0,0,1,.788-.313h.181l0-.067c0-.1,0-.2-.005-.3l0-.105c0-.326,0-.326.124-.478A.572.572,0,0,1-46.654-.212ZM-46.916,7a.373.373,0,0,0-.058.252v.559a.257.257,0,0,0,.129.2.99.99,0,0,0,.349.043h5.512a.75.75,0,0,0,.3-.086.484.484,0,0,0,.086-.312c0-.03,0-.059,0-.09s0-.061,0-.093,0-.061,0-.093,0-.059,0-.09,0-.04,0-.082a.526.526,0,0,0-.086-.23.632.632,0,0,0-.316-.043h-2.252l-1.1,0h-2.388C-46.844,6.935-46.844,6.935-46.916,7Z" transform="translate(64.637 10.258)" fill="#fff"/>
    <path id="Path_2735" data-name="Path 2735" d="M-9.753-.006a.285.285,0,0,1,.2.131,2.382,2.382,0,0,1,.1.331l.027.09a1.086,1.086,0,0,1,.021.569.343.343,0,0,1-.264.133c-.159-.026-.2-.087-.307-.209a1.436,1.436,0,0,1-.117-.971A.493.493,0,0,1-9.753-.006Z" transform="translate(35.076 8.704)" fill="#fff"/>
    <path id="Path_2736" data-name="Path 2736" d="M-15.538-.428a.3.3,0,0,1,.152.152A1.787,1.787,0,0,1-15.538.6c-.154.183-.154.183-.3.214a.392.392,0,0,1-.3-.214A1.657,1.657,0,0,1-15.9-.385.468.468,0,0,1-15.538-.428Z" transform="translate(27.24 9.142)" fill="#fff"/>
    <path id="Path_2737" data-name="Path 2737" d="M-20.38-2.593l.081.025c.245.078.245.078.326.192a.379.379,0,0,1-.012.335.279.279,0,0,1-.14.121,1.586,1.586,0,0,1-.6-.088l-.087-.025-.084-.025-.075-.022a.455.455,0,0,1-.182-.145.379.379,0,0,1,.012-.335C-20.961-2.793-20.619-2.672-20.38-2.593Z" transform="translate(47.737 9.796)" fill="#fff"/>
    <path id="Path_2738" data-name="Path 2738" d="M-11.784-.847a2.422,2.422,0,0,1,.3.269L-11.4-.5a.523.523,0,0,1,.212.393.408.408,0,0,1-.08.234.409.409,0,0,1-.359.057,1.992,1.992,0,0,1-.3-.266l-.077-.074c-.224-.218-.224-.218-.237-.418,0-.143,0-.143.059-.228A.42.42,0,0,1-11.784-.847Z" transform="translate(38.216 8.99)" fill="#fff"/>
    <path id="Path_2739" data-name="Path 2739" d="M-23.589-.548a.193.193,0,0,1,.114.114.451.451,0,0,1-.05.383c-.069.079-.141.153-.216.226l-.074.077c-.216.223-.216.223-.4.239a.351.351,0,0,1-.231-.069.5.5,0,0,1-.079-.316.806.806,0,0,1,.3-.386l.081-.077C-23.943-.544-23.871-.607-23.589-.548Z" transform="translate(34.302 8.691)" fill="#fff"/>
    <path id="Path_2740" data-name="Path 2740" d="M-29.279-1.334a.4.4,0,0,1,.1.3.39.39,0,0,1-.228.252c-.661.245-.661.245-.928.126a.474.474,0,0,1-.1-.34.381.381,0,0,1,.076-.152.936.936,0,0,1,.2-.081l.114-.038.107-.034.14-.048A.774.774,0,0,1-29.279-1.334Z" transform="translate(39.438 8.493)" fill="#fff"/>
  </g>
</svg>
