<svg xmlns="http://www.w3.org/2000/svg" width="14.183" height="18.085" viewBox="0 0 14.183 18.085">
  <g id="seo-report_1_" data-name="seo-report (1)" transform="translate(0 0)">
    <path id="Path_2977" data-name="Path 2977" d="M69.044-496.944c-.345.124-.507.405-.51.889v.33h-.458c-.51,0-.675.049-.863.248-.233.251-.218-.368-.218,8.164,0,7.489,0,7.782.071,7.928a.819.819,0,0,0,.424.409c.124.053.769.06,5.8.06,3.831,0,5.7-.011,5.8-.041a.774.774,0,0,0,.278-.158.844.844,0,0,0,.274-.75v-.326h.45c.5,0,.649-.041.84-.218a.943.943,0,0,0,.176-.251c.068-.146.071-.435.071-7.936s0-7.789-.071-7.936a.819.819,0,0,0-.424-.409c-.124-.052-.765-.06-5.816-.06C70.143-497,69.167-496.989,69.044-496.944Zm11.575.5.109.109v15.473l-.109.109c-.109.109-.116.109-.544.109h-.435v-7.234c0-6.956,0-7.238-.071-7.38a.819.819,0,0,0-.424-.409c-.124-.053-.705-.06-5.152-.06H68.984v-.3c0-.285.008-.308.109-.413l.109-.109H80.51Zm-1.538,1.276.109.109v15.473l-.109.109-.109.109H67.663l-.109-.109-.109-.109v-15.473l.109-.109.109-.109H78.971Z" transform="translate(-66.995 497)" fill="#fff"/>
    <path id="Path_2978" data-name="Path 2978" d="M106.9-424.851a2.8,2.8,0,0,0-1.992,1.463,2.387,2.387,0,0,0-.3,1.257,2.373,2.373,0,0,0,.3,1.242,2.728,2.728,0,0,0,2.608,1.5,2.755,2.755,0,0,0,2.484-1.977,2.084,2.084,0,0,0,.083-.788,2.34,2.34,0,0,0-.334-1.339,3.64,3.64,0,0,0-1-1.017A2.868,2.868,0,0,0,106.9-424.851Zm.233,1.647c0,1.066.007,1.2.064,1.246a4.8,4.8,0,0,0,1.257.064l1.193.011-.023.1a2.355,2.355,0,0,1-1.61,1.857,2.646,2.646,0,0,1-1.369-.008,2.239,2.239,0,0,1-.938-.6,2.121,2.121,0,0,1-.653-1.6,2.235,2.235,0,0,1,1.024-1.91,2.367,2.367,0,0,1,.934-.36h.12Zm.949-1.1a2.96,2.96,0,0,1,.465.214,2.867,2.867,0,0,1,.829.882,2.378,2.378,0,0,1,.248.84,8.168,8.168,0,0,1-1.032.034h-1.009V-424.4h.124A1.487,1.487,0,0,1,108.078-424.307Z" transform="translate(-103.189 427.59)" fill="#fff"/>
    <path id="Path_2979" data-name="Path 2979" d="M266.478-389.906c-.071.071-.086.116-.068.18.056.18.008.176,1.67.176h1.568l.056-.083c.083-.116.075-.169-.034-.274l-.09-.094h-3.009Z" transform="translate(-258.921 394.015)" fill="#fff"/>
    <path id="Path_2980" data-name="Path 2980" d="M266.478-355.906c-.071.071-.086.116-.068.18.056.18.008.176,1.67.176h1.568l.056-.083c.083-.116.075-.169-.034-.274l-.09-.094h-3.009Z" transform="translate(-258.921 361.29)" fill="#fff"/>
    <path id="Path_2981" data-name="Path 2981" d="M266.478-321.906c-.071.071-.086.116-.068.18.056.18.008.176,1.67.176h1.568l.056-.083c.083-.116.075-.169-.034-.274l-.09-.094h-3.009Z" transform="translate(-258.921 328.566)" fill="#fff"/>
    <path id="Path_2982" data-name="Path 2982" d="M105.075-248.925a.26.26,0,0,0-.075.15.26.26,0,0,0,.075.15c.071.071.124.075,1.869.075,1.692,0,1.8,0,1.857-.068a.219.219,0,0,0-.019-.323,7.536,7.536,0,0,0-1.857-.06C105.2-249,105.146-249,105.075-248.925Z" transform="translate(-103.574 258.305)" fill="#fff"/>
    <path id="Path_2983" data-name="Path 2983" d="M319.075-223.925c-.075.075-.075.124-.075,2.791v2.72l.083.056a5.386,5.386,0,0,0,1.628.008c.068-.053.071-.131.083-2.758l.008-2.709-.09-.09c-.094-.094-.1-.094-.829-.094C319.2-224,319.146-224,319.075-223.925Zm1.276,2.776v2.4h-.9v-4.8h.9Z" transform="translate(-309.545 234.243)" fill="#fff"/>
    <path id="Path_2984" data-name="Path 2984" d="M105.178-215.925a.2.2,0,0,0-.015.293l.056.083h1.812c1.707,0,1.816,0,1.872-.068a.219.219,0,0,0-.019-.323,7.536,7.536,0,0,0-1.857-.06C105.3-216,105.25-216,105.178-215.925Z" transform="translate(-103.677 226.543)" fill="#fff"/>
    <path id="Path_2985" data-name="Path 2985" d="M260.1-178.921l-.1.075v1.857c0,1.8,0,1.857.075,1.929s.124.075.825.075.754,0,.825-.075.075-.124.075-1.929v-1.857l-.1-.075c-.094-.075-.15-.079-.8-.079S260.191-179,260.1-178.921Zm1.253,1.929v1.557h-.9v-3.114h.9Z" transform="translate(-252.758 190.931)" fill="#fff"/>
    <path id="Path_2986" data-name="Path 2986" d="M201.205-148.947c-.068.053-.071.116-.083,1.306-.008.687,0,1.287.011,1.332.045.191.083.2.9.2.69,0,.765-.008.822-.068s.064-.214.064-1.384c0-1.223,0-1.317-.068-1.373s-.173-.064-.818-.064A2.38,2.38,0,0,0,201.205-148.947Zm1.261,1.392v.994h-.9v-1.989h.9Z" transform="translate(-196.087 162.057)" fill="#fff"/>
    <path id="Path_2987" data-name="Path 2987" d="M143.045-128.027a3.917,3.917,0,0,0-.045.987c0,.867,0,.949.068,1.006s.176.064.822.064c.679,0,.754-.008.81-.068s.064-.188.064-1.006a3.9,3.9,0,0,0-.045-.983A7.339,7.339,0,0,0,143.045-128.027Zm1.268,1.006v.6h-.863v-1.2h.863Z" transform="translate(-140.148 141.917)" fill="#fff"/>
    <path id="Path_2988" data-name="Path 2988" d="M142.956-61.009a.182.182,0,0,0-.105.169c-.026.251-.334.233,4.18.233h4.1l.06-.094a.209.209,0,0,0-.12-.319C150.921-61.081,143.076-61.069,142.956-61.009Z" transform="translate(-139.991 77.417)" fill="#fff"/>
  </g>
</svg>
