<svg xmlns="http://www.w3.org/2000/svg" width="42" height="39" viewBox="0 0 42 39">
  <g id="Group_18116" data-name="Group 18116" transform="translate(-14.916 -12)">
    <g id="Rectangle_2477" data-name="Rectangle 2477" transform="translate(14.916 12)" fill="none" stroke="#000" stroke-width="0.5">
      <rect width="42" height="39" rx="7" stroke="none"/>
      <rect x="0.25" y="0.25" width="41.5" height="38.5" rx="6.75" fill="none"/>
    </g>
    <g id="kitchen-_1_" transform="translate(25.489 533.124)">
      <path id="Path_3144" data-name="Path 3144" d="M80.159-512c-.155.118-.159.171-.159,2.391s0,2.272.159,2.391c.094.073,13.924.073,14.018,0,.155-.118.159-.171.159-2.391s0-2.273-.159-2.391C94.083-512.068,80.252-512.068,80.159-512Zm6.683,2.391v1.792h-6.19V-511.4h6.19Zm6.842,0v1.792h-6.19V-511.4h6.19Z" transform="translate(-76.742 0)"/>
      <path id="Path_3145" data-name="Path 3145" d="M128.106-455.894a.369.369,0,0,0-.106.22.369.369,0,0,0,.106.22l.11.106h1.409c1.364,0,1.417,0,1.5-.081a.325.325,0,0,0-.029-.517,7.956,7.956,0,0,0-1.474-.053h-1.409Z" transform="translate(-122.787 -53.767)"/>
      <path id="Path_3146" data-name="Path 3146" d="M304.106-455.894a.369.369,0,0,0-.106.22.369.369,0,0,0,.106.22l.11.106h1.409c1.364,0,1.417,0,1.5-.081a.325.325,0,0,0-.029-.517,7.956,7.956,0,0,0-1.474-.053h-1.409Z" transform="translate(-291.619 -53.767)"/>
      <path id="Path_3147" data-name="Path 3147" d="M80.915-375.862a.466.466,0,0,0-.114.2.5.5,0,0,1-.212.265.866.866,0,0,0,.012,1.515c.1.077.187.175.187.216s-.086.138-.187.216a.939.939,0,0,0-.448.827.37.37,0,0,0,.314.261.4.4,0,0,0,.322-.305c0-.061.065-.143.187-.236a.867.867,0,0,0,.008-1.519c-.11-.081-.2-.179-.2-.22s.086-.138.187-.216c.428-.334.582-.758.358-.982A.284.284,0,0,0,80.915-375.862Z" transform="translate(-76.879 -130.562)"/>
      <path id="Path_3148" data-name="Path 3148" d="M121.019-375.823a.384.384,0,0,0-.106.2c0,.061-.065.143-.191.24a.866.866,0,0,0,0,1.519c.1.077.187.175.187.216s-.086.138-.187.216a1.1,1.1,0,0,0-.428.574.386.386,0,0,0,.094.432.313.313,0,0,0,.509-.2.5.5,0,0,1,.2-.261.865.865,0,0,0,0-1.515c-.11-.081-.2-.179-.2-.22s.086-.138.187-.216a1.1,1.1,0,0,0,.428-.574.386.386,0,0,0-.094-.432A.286.286,0,0,0,121.019-375.823Z" transform="translate(-115.375 -130.581)"/>
      <path id="Path_3149" data-name="Path 3149" d="M160.843-375.823a.384.384,0,0,0-.106.2c0,.061-.065.143-.191.24a.866.866,0,0,0,0,1.519c.1.077.187.175.187.216s-.086.138-.187.216c-.428.334-.582.758-.358.982a.31.31,0,0,0,.534-.179.5.5,0,0,1,.2-.261.865.865,0,0,0,0-1.515c-.11-.081-.2-.179-.2-.22s.086-.138.187-.216a1.1,1.1,0,0,0,.428-.574.386.386,0,0,0-.094-.432A.286.286,0,0,0,160.843-375.823Z" transform="translate(-153.569 -130.581)"/>
      <path id="Path_3150" data-name="Path 3150" d="M14.881-295.807a1.8,1.8,0,0,0-.937.525c-.493.493-.586.827-.586,2.11v.888H7.913l.118-.228.114-.232v-1.1c0-1.116-.012-1.21-.159-1.324-.094-.073-5.127-.073-5.221,0-.147.114-.159.208-.159,1.324v1.1l.114.232.118.228H.216l-.11.106-.106.11v8.039l.106.11.11.106H10.422c7.958,0,10.218-.012,10.271-.053a.472.472,0,0,0,.11-.138c.069-.126.069-7.962,0-8.088-.1-.2.016-.187-3.482-.191H14.01v-.652h.216c.224,0,.31-.045.391-.2a.31.31,0,0,0-.086-.375.4.4,0,0,0-.31-.081H14l.02-.318a1.306,1.306,0,0,1,.762-1.185,1.322,1.322,0,0,1,1.45.261,1.467,1.467,0,0,1,.375.815c.041.371.314.55.534.346.126-.118.147-.24.09-.566a1.841,1.841,0,0,0-.542-1.043,1.8,1.8,0,0,0-.961-.534A1.689,1.689,0,0,0,14.881-295.807Zm-7.388,2.081c0,.847-.016.953-.159,1.063a37.425,37.425,0,0,1-3.885.008c-.171-.077-.191-.191-.191-1.075v-.835H7.493Zm-5.844,2.175a.425.425,0,0,0,.114.163c.081.077.147.081,1.173.081H4.02l.11-.106a.4.4,0,0,0,.106-.163c0-.045.1-.057.489-.057h.489v2.606H.652v-2.606h.485C1.592-291.633,1.625-291.629,1.649-291.551Zm13.338,3.5v3.584H5.864v-7.168h9.123Zm1.629-3.527a.4.4,0,0,0,.106.163l.11.106h1.083c1.026,0,1.091,0,1.173-.081a.425.425,0,0,0,.114-.163c.024-.077.057-.081.513-.081H20.2v2.606H15.639v-2.606h.489C16.514-291.633,16.616-291.621,16.616-291.576Zm-11.4,5.156v1.955H.652v-3.91H5.213Zm14.987,0v1.955H15.639v-3.91H20.2Z" transform="translate(0 -207.383)"/>
      <path id="Path_3151" data-name="Path 3151" d="M152.106-167.894l-.106.11v3.478l.106.11.11.106h4.016c4.248,0,4.089,0,4.191-.191a29.971,29.971,0,0,0,0-3.527c-.1-.2.057-.187-4.191-.191h-4.016Zm7.713,1.849v1.3h-7.168v-2.606h7.168Z" transform="translate(-145.81 -330.038)"/>
      <path id="Path_3152" data-name="Path 3152" d="M200.106-47.894a.369.369,0,0,0-.106.22.369.369,0,0,0,.106.22l.11.106h2.061c2.02,0,2.069,0,2.154-.081a.325.325,0,0,0-.029-.517A15.464,15.464,0,0,0,202.277-48h-2.061Z" transform="translate(-191.855 -445.151)"/>
    </g>
  </g>
</svg>
