<svg xmlns="http://www.w3.org/2000/svg" width="19.69" height="19.698" viewBox="0 0 19.69 19.698">
  <g id="warehouse_2_" data-name="warehouse (2)" transform="translate(-8 -7.802)">
    <path id="Path_2627" data-name="Path 2627" d="M-250.563-4l.1.051.342.172.246.123.667.334.7.349,1.171.587,1.2.6.075.038.075.037,1.3.652.555.278.652.328.24.12.326.164.1.048.088.045.076.038c.063.042.063.042.142.161.008.117.01.229.01.346,0,.054,0,.054,0,.108q0,.18,0,.361,0,.129,0,.258,0,.351,0,.7,0,.367,0,.733,0,.695,0,1.389,0,.791,0,1.581,0,1.627,0,3.254h-.635V.488l-.238-.079c-.05-.022-.1-.045-.148-.069L-243.6.3l-.087-.044-.094-.047L-244.1.05l-.224-.113-.482-.243-.763-.384-.261-.131-.132-.066-1.775-.893-1.2-.6-.634-.319-.6-.3-.219-.11-.3-.15-.087-.045a.556.556,0,0,0-.467-.055.835.835,0,0,0-.155.067l-.085.042-.09.045-.1.047-.306.152-.212.1-.418.206q-.333.164-.668.322-.5.239-1,.481l-1.077.519-1.072.516q-.6.288-1.191.573-.3.146-.608.294l-.317.155-.153.075-.214.1-.124.061a1.08,1.08,0,0,1-.311.088V14.9h.318V10.453h1.27v-7.3h13.339V8.865h-.635V6.324H-257.11v4.129h3.176V14.9h3.295l-.079-.2v-.119h-.992V11.723h.953V7.277h5.081v4.446h.318V9.182h2.779l.159.357.1.208c.123.262.238.527.348.794l.031.074a8.576,8.576,0,0,1,.4,3.965h-.675l-.04.238-.04.079h1.072v.635h-19.69V14.9h.953c0-.076,0-.152,0-.23q-.005-2.7-.008-5.406,0-.332,0-.665c0-.044,0-.088,0-.134q0-1.073,0-2.145,0-1.1,0-2.2,0-.679,0-1.358,0-.465,0-.931,0-.269,0-.537,0-.246,0-.492,0-.089,0-.178c0-.081,0-.161,0-.242,0-.045,0-.09,0-.136a.373.373,0,0,1,.179-.273,1.305,1.305,0,0,1,.168-.091l.1-.049.107-.051.112-.054.36-.174.247-.12.693-.334.155-.075.545-.261q.393-.187.784-.377l1.077-.519,1.146-.552,1.112-.535.705-.34.084-.041.406-.2.291-.14q.116-.056.232-.114l.091-.044.074-.037A.956.956,0,0,1-250.563-4Zm-6.547,7.782v.635h12.068V3.783Zm0,1.27v.635h12.068V5.054Zm6.987,2.858v3.811h3.811V7.912h-.953V9.5h-1.906V7.912Zm1.588,0v.953h.635V7.912Zm3.811,1.906v2.541h-6.352v1.588h.357l.028-.078a1.306,1.306,0,0,1,.727-.795,1.652,1.652,0,0,1,1.017.027,1.247,1.247,0,0,1,.61.608l.079.238h3.573l.159-.4a1.31,1.31,0,0,1,.668-.5,1.657,1.657,0,0,1,1.188.188,1.286,1.286,0,0,1,.446.711h.04q0-.388,0-.776,0-.132,0-.264,0-.189,0-.379c0-.04,0-.079,0-.12s0-.073,0-.111,0-.065,0-.1a.21.21,0,0,0-.044-.158h-.076l-.782-.01-.292,0-.419-.006h-.132l-.123,0h-.108a.264.264,0,0,1-.162-.067.693.693,0,0,1-.064-.423v-.105q0-.11,0-.221c0-.113,0-.225,0-.338q0-.107,0-.214c0-.034,0-.067,0-.1,0-.235,0-.235.069-.321a.562.562,0,0,1,.365-.071l.088,0,.277,0,.188,0,.46-.008-.119-.318Zm.953.953v.635h1.31l-.238-.635Zm-14.609.318V14.9h3.811V11.088h-.953v1.588h-1.906V11.088Zm1.588,0v.953h.635v-.953Zm6.773,2.843a.815.815,0,0,0-.065.531.772.772,0,0,0,.4.4.816.816,0,0,0,.531-.065.693.693,0,0,0,.278-.428.647.647,0,0,0-.174-.54.647.647,0,0,0-.54-.174A.694.694,0,0,0-250.019,13.931Zm6.034,0a.816.816,0,0,0-.065.531.772.772,0,0,0,.4.4.815.815,0,0,0,.531-.065.694.694,0,0,0,.278-.428.647.647,0,0,0-.174-.54.647.647,0,0,0-.54-.174A.694.694,0,0,0-243.985,13.931Zm-4.273.65-.079.318h3.732l-.079-.318Z" transform="translate(268.921 11.966)" fill="#fff"/>
    <path id="Path_2628" data-name="Path 2628" d="M0,0H10.8V2.541H0ZM.635.635v1.27h9.528V.635Z" transform="translate(12.446 11.938)" fill="#fff"/>
    <path id="Path_2629" data-name="Path 2629" d="M-11.941-.418a.31.31,0,0,1,.159.159.526.526,0,0,1-.06.417.526.526,0,0,1-.417.06.31.31,0,0,1-.159-.159.526.526,0,0,1,.06-.417A.526.526,0,0,1-11.941-.418Z" transform="translate(37.567 26.33)" fill="#fff"/>
    <path id="Path_2630" data-name="Path 2630" d="M-11.941-.418a.31.31,0,0,1,.159.159.526.526,0,0,1-.06.417.526.526,0,0,1-.417.06.31.31,0,0,1-.159-.159.526.526,0,0,1,.06-.417A.526.526,0,0,1-11.941-.418Z" transform="translate(31.533 26.33)" fill="#fff"/>
    <path id="Path_2631" data-name="Path 2631" d="M0,0H.318V.318H0Z" transform="translate(13.399 25.912)" fill="#fff"/>
    <path id="Path_2632" data-name="Path 2632" d="M0,0H.318V.318H0Z" transform="translate(12.764 25.912)" fill="#fff"/>
    <path id="Path_2633" data-name="Path 2633" d="M0,0H.318V.318H0Z" transform="translate(21.656 22.736)" fill="#fff"/>
    <path id="Path_2634" data-name="Path 2634" d="M0,0H.318V.318H0Z" transform="translate(21.021 22.736)" fill="#fff"/>
  </g>
</svg>
