<svg id="Group_15126" data-name="Group 15126" xmlns="http://www.w3.org/2000/svg" width="10.266" height="10.27" viewBox="0 0 10.266 10.27">
  <path id="Path_2469" data-name="Path 2469" d="M368.873,218.949h.56l1.02-.092h1.075l.055,1.1.037,1.122-.037,2.755H367.32l.06-.512-.106-3.466-.037-.524.083-.432.7.046h.854Z" transform="translate(-362.479 -218.64)" fill="#007b25" opacity="0.12"/>
  <path id="Path_2478" data-name="Path 2478" d="M371.716,217h2.257l.315.6.289.287,1.863-.891.5.289v.785l-3.516,1.886-3.936-.519-.42.63-1.65-.111-.1-1.639-.079-.248.179-.2,1.508.022h.992Z" transform="translate(-367.042 -210.068)" fill="#007b25" opacity="0.12"/>
  <g id="receiving">
    <path id="Path_2470" data-name="Path 2470" d="M226-509.282v2.718h4.834V-512H226Zm4.232,0v2.116H226.6V-511.4h3.631Z" transform="translate(-221.467 512)" fill="#007b25"/>
    <path id="Path_2471" data-name="Path 2471" d="M286-451.7v.3h.6v-.6H286Z" transform="translate(-280.263 453.203)" fill="#007b25"/>
    <path id="Path_2472" data-name="Path 2472" d="M346.014-451.815a1.718,1.718,0,0,0-.014.3v.287h1.226l-.006-.3-.006-.295-.594-.006C346.295-451.827,346.022-451.823,346.014-451.815Z" transform="translate(-339.06 453.033)" fill="#007b25"/>
    <path id="Path_2473" data-name="Path 2473" d="M286.166-391.974c0,.014-.006.152,0,.3l.006.281.3.006.295.006V-392h-.291C286.248-392,286.174-391.994,286.166-391.974Z" transform="translate(-280.421 394.407)" fill="#007b25"/>
    <path id="Path_2474" data-name="Path 2474" d="M346.166-391.845c0,.014-.006.152,0,.3l.006.281h1.2v-.6l-.6-.006C346.3-391.871,346.174-391.867,346.166-391.845Z" transform="translate(-339.217 394.278)" fill="#007b25"/>
    <path id="Path_2475" data-name="Path 2475" d="M286-330.7v.3h.6v-.6H286Z" transform="translate(-280.263 334.631)" fill="#007b25"/>
    <path id="Path_2476" data-name="Path 2476" d="M345.906-330.705l.006.3.608.006.606,0v-.6H345.9Z" transform="translate(-338.962 334.631)" fill="#007b25"/>
    <path id="Path_2477" data-name="Path 2477" d="M9.1-181.873c-.054.018-.417.207-.806.423s-.716.385-.726.379a.208.208,0,0,1-.032-.092.837.837,0,0,0-.217-.413.878.878,0,0,0-.367-.251l-.12-.048-1.177-.006-1.175-.006-.6.3-.6.3H0v3.029H2.427v-.6h.842l.6.3.6.3H6.435l1.733-1a14.542,14.542,0,0,0,1.843-1.121.89.89,0,0,0,.014-1.234.809.809,0,0,0-.4-.253A1.069,1.069,0,0,0,9.1-181.873Zm.409.606a.375.375,0,0,1,.16.265.414.414,0,0,1-.038.13c-.034.078-.1.118-1.7,1.049l-1.663.967H4.613l-.6-.3-.6-.3H2.427v-1.2H3.39l.624-.311.624-.313,1.045.006c1.011.006,1.049.008,1.117.046a.306.306,0,0,1,.146.261.306.306,0,0,1-.146.261c-.066.038-.108.04-.716.046l-.648.006v.6l.728-.01c.816-.008.836-.012,1.147-.162.1-.048.582-.309,1.073-.582C9.351-181.346,9.355-181.348,9.508-181.268Zm-7.7,1.508v.9H.6v-.6h.6v-.6H.6v-.6h1.2Z" transform="translate(0 188.525)" fill="#007b25"/>
  </g>
</svg>
