<svg xmlns="http://www.w3.org/2000/svg" width="14.724" height="15.705" viewBox="0 0 14.724 15.705">
  <g id="reporting" transform="translate(-26.123 500.855)">
    <path id="Path_3194" data-name="Path 3194" d="M31.888-500.838a1.506,1.506,0,0,0-1.01.615l-.051.1h-.654c-.615,0-.66,0-.721.064a.259.259,0,0,0-.064.189v.125l-.936.013c-.907.013-.946.016-1.167.1a1.733,1.733,0,0,0-1.115,1.183c-.048.157-.051.753-.045,6.071l.01,5.9.071.192a1.786,1.786,0,0,0,1.231,1.09c.3.07,9.16.07,9.494,0a1.743,1.743,0,0,0,1.154-.913,2.283,2.283,0,0,0,.147-.43c.022-.128.035-1.08.035-2.811v-2.615l1.2-1.455c.712-.862,1.237-1.526,1.292-1.631a.836.836,0,0,0,.087-.468c0-.26-.01-.3-.087-.42a4.441,4.441,0,0,0-.865-.74.643.643,0,0,0-.333-.071c-.385,0-.615.141-1.01.619l-.269.327-.016-1.266-.016-1.266-.083-.231a1.78,1.78,0,0,0-.846-.965c-.321-.16-.429-.176-1.4-.189L35-499.745v-.106a.348.348,0,0,0-.067-.189l-.064-.083H33.558l-.1-.138a1.345,1.345,0,0,0-.881-.551A2.1,2.1,0,0,0,31.888-500.838Zm.721.526a.8.8,0,0,1,.516.433.371.371,0,0,0,.112.173,3.889,3.889,0,0,0,.667.032h.612v1.282H29.869v-1.282h.619c.7,0,.657.013.792-.266A1.147,1.147,0,0,1,32.609-500.312Zm-3.221,1.276v.224l-.888.01c-.843.01-.9.013-1.019.08a.945.945,0,0,0-.391.41,54.688,54.688,0,0,0-.067,5.673c-.006,3.051,0,5.647.01,5.776a.834.834,0,0,0,.381.667l.157.1,3.785.01c2.083,0,3.814,0,3.849-.006.058-.016,1.25-1.24,1.923-1.974l.208-.224v-2.548l.218-.266.215-.266.01,2.333a16.805,16.805,0,0,1-.045,2.51,1.271,1.271,0,0,1-.683.8l-.179.083H27.513l-.208-.1a1.232,1.232,0,0,1-.705-.958c-.038-.289-.042-11.167,0-11.449a1.346,1.346,0,0,1,.321-.692,1.451,1.451,0,0,1,.651-.372c.077-.016.516-.029.981-.032l.84,0Zm7.446-.173a1.186,1.186,0,0,1,.833.683l.1.215.01,1.554.006,1.555-.215.256-.218.256-.016-1.779-.016-1.779-.09-.151a.985.985,0,0,0-.2-.237c-.2-.154-.34-.173-1.224-.173H35v-.449h.827A5.066,5.066,0,0,1,36.834-499.209Zm-7.446,1.022c0,.115.016.154.083.208.087.067.1.067,2.728.067H34.84l.077-.08A.248.248,0,0,0,35-498.2v-.131l.853.01.853.01.077.09.077.09v4.051l-.978,1.183c-.535.647-.981,1.205-.99,1.234s-.038.247-.067.484-.058.465-.067.506l-.013.071H31.76c-2.939,0-2.981,0-3.045.064a.255.255,0,0,0,0,.34c.064.058.167.061,3.016.07l2.949.006-.022.208c-.022.192-.019.208.058.285a.291.291,0,0,0,.141.083,17.2,17.2,0,0,0,1.926-.651l.071-.064v1.644h-.663c-.6,0-.679.006-.811.067a.754.754,0,0,0-.4.4c-.074.154-.077.189-.077.872v.715H27.686l-.077-.077a.437.437,0,0,1-.1-.183c-.01-.061-.013-2.631-.01-5.712l.01-5.606.106-.093.1-.093h1.667Zm10.593,2.154c.394.317.407.333.407.506a.879.879,0,0,1-.263.561l-.122.141-.253-.234a7,7,0,0,0-.811-.644l-.08-.051.141-.18a.72.72,0,0,1,.612-.356A1.925,1.925,0,0,1,39.981-496.033Zm-1.2.8a5.572,5.572,0,0,1,.821.7c.074.093.061.154-.042.24-.042.035-.083.006-.3-.205a6.343,6.343,0,0,0-.821-.647c-.054-.032-.054-.038.016-.135a.339.339,0,0,1,.09-.1A2.1,2.1,0,0,1,38.786-495.229Zm-.5.558c.135.09.192.144.176.17-.064.08-2.484,3.019-2.522,3.058s-.077.022-.25-.1l-.208-.138,1.288-1.561c.705-.859,1.292-1.564,1.3-1.564A2.506,2.506,0,0,1,38.289-494.671Zm.907.8c0,.013-.577.724-1.285,1.577l-1.282,1.555-.176-.173c-.154-.157-.17-.186-.135-.237.022-.029.6-.737,1.292-1.567l1.247-1.513.17.167A1.159,1.159,0,0,1,39.2-493.867Zm-3.654,2.8a2.949,2.949,0,0,1,.651.587c-.029.026-1.013.356-1.019.343s.128-1.08.144-1.08A1.758,1.758,0,0,1,35.542-491.062Zm.487,3.462c-.282.3-.542.567-.58.6l-.067.061v-1.01l.093-.093.093-.093h.974Z" fill="#fff"/>
    <path id="Path_3195" data-name="Path 3195" d="M131.89-374.43a.715.715,0,0,0-.417.231c-.144.151-2.115,3.58-2.16,3.756a.836.836,0,0,0,.369.869l.157.1,2.151.01c1.529.006,2.186,0,2.276-.026a.98.98,0,0,0,.487-.465.869.869,0,0,0,.038-.359l-.01-.218-1.038-1.795c-.567-.987-1.064-1.827-1.1-1.869a1.152,1.152,0,0,0-.5-.24A.929.929,0,0,0,131.89-374.43Zm.327.51a13.693,13.693,0,0,1,1.1,1.8,10.628,10.628,0,0,1,1.006,1.865.324.324,0,0,1-.263.311c-.16.045-3.891.042-4.051,0a.32.32,0,0,1-.237-.349c.016-.106,1.907-3.426,2.035-3.567A.3.3,0,0,1,132.217-373.921Z" transform="translate(-99.863 -122.359)" fill="#fff"/>
    <path id="Path_3196" data-name="Path 3196" d="M208.083-326.85l-.083.064v.875c0,.872,0,.875.074.942a.229.229,0,0,0,.314.01l.077-.061V-326.8l-.077-.061A.22.22,0,0,0,208.083-326.85Z" transform="translate(-176.048 -168.366)" fill="#fff"/>
    <path id="Path_3197" data-name="Path 3197" d="M208.068-258.876a.218.218,0,0,0,.08.369.233.233,0,0,0,.282-.1A.227.227,0,0,0,208.068-258.876Z" transform="translate(-176.046 -234.154)" fill="#fff"/>
    <path id="Path_3198" data-name="Path 3198" d="M104.987-140.933a.216.216,0,0,0,0,.346c.087.067.1.067,3.458.067,3.25,0,3.378,0,3.449-.061a.248.248,0,0,0,0-.359c-.071-.058-.2-.061-3.449-.061C105.083-141,105.073-141,104.987-140.933Z" transform="translate(-76.252 -348.322)" fill="#fff"/>
    <path id="Path_3199" data-name="Path 3199" d="M105.1-100.9a.243.243,0,0,0-.1.394c.064.064.106.064,2.561.064h2.5l.064-.083a.209.209,0,0,0-.064-.349,16.885,16.885,0,0,0-2.5-.045C106.231-100.921,105.122-100.912,105.1-100.9Z" transform="translate(-76.285 -387.115)" fill="#fff"/>
  </g>
</svg>
