<svg xmlns="http://www.w3.org/2000/svg" width="22.964" height="20.751" viewBox="0 0 22.964 20.751">
  <g id="loan" transform="translate(262.369 444.027) rotate(-41)">
    <path id="Path_3078" data-name="Path 3078" d="M93.56-502.188c-.172.144-.168.292.016.595.076.128.184.323.24.427l.1.2H93.72a1.18,1.18,0,0,0-1.17.954c-.048.156-.076.188-.276.28a1.364,1.364,0,0,1-.487.116l-.272.016v-.3c0-.483.06-.463-1.25-.463-.918,0-1.1.008-1.178.064l-.088.06v2.747c0,2.508,0,2.755.068,2.8a3.675,3.675,0,0,0,1.106.068c.571.008,1.082,0,1.13-.012.164-.04.212-.128.212-.4v-.256h.272a.967.967,0,0,1,.319.036c.044.024-.048.176-.379.627a3.589,3.589,0,0,0-.906,2.412,3.1,3.1,0,0,0,.276,1.442,4.164,4.164,0,0,0,2.735,2.272,4.163,4.163,0,0,0,5.036-2.735,4.467,4.467,0,0,0,.08-1.521,4.009,4.009,0,0,0-.918-1.921,2.592,2.592,0,0,1-.443-.711.566.566,0,0,0-.06-.216c-.052-.108-.052-.12.068-.228a.8.8,0,0,0,.084-1.1c-.06-.068-.06-.076,0-.144a.78.78,0,0,0,.072-.9c-.076-.14-.1-.232-.076-.248a.923.923,0,0,0,.192-.5.894.894,0,0,0-.076-.3,1.056,1.056,0,0,0-.407-.427c-.032-.012.02-.084.132-.184a1.351,1.351,0,0,0,.4-.843c.028-.256,0-.383-.1-.451a2.031,2.031,0,0,0-.451-.032,1.508,1.508,0,0,1-.411-.028c0-.016.092-.22.2-.455.2-.419.2-.431.14-.567a.4.4,0,0,0-.132-.18c-.04-.024-.8-.052-1.769-.068l-1.7-.032Zm.743.435a1.193,1.193,0,0,1,.555.906c.02.2.04.252.12.3a.225.225,0,0,0,.335-.136,1.438,1.438,0,0,0-.26-1.022l-.072-.108h.172c.1,0,.268.012.379.024l.2.024-.052.2c-.1.367-.056.743.084.835a.227.227,0,0,0,.272-.036c.056-.048.072-.124.072-.3a2.1,2.1,0,0,1,.064-.475l.068-.232h.252a1.1,1.1,0,0,1,.256.016c0,.008-.06.144-.136.307a6.659,6.659,0,0,0-.479,1.47l-.092.463-.515.02a2.847,2.847,0,0,1-.579-.008c-.04-.016-.084-.124-.112-.276a6.23,6.23,0,0,0-.535-1.474c-.136-.276-.252-.511-.26-.531C94.016-501.829,94.187-501.813,94.3-501.753Zm-.08,1.581a4.023,4.023,0,0,1,.116.479.794.794,0,0,0,.331.583l.156.1,1.186,0c1.174-.008,1.186-.008,1.278.08a.265.265,0,0,1,.02.383c-.068.072-.14.084-.627.1-.507.02-.555.028-.623.112-.092.112-.092.168,0,.284.072.088.108.1.551.108.591.012.635.024.711.168a.29.29,0,0,1-.056.4c-.116.116-.12.116-.619.116s-.5,0-.579.108a.212.212,0,0,0-.06.188c.048.16.128.184.647.184.491,0,.5,0,.611.116a.277.277,0,0,1,0,.447l-.116.116H96.48c-.743,0-.819.02-.819.22,0,.22.108.26.715.26.515,0,.539,0,.631.1a.312.312,0,0,1,.016.435l-.08.1h-1.27c-1.478,0-1.621-.024-2.244-.355a3.617,3.617,0,0,0-1.5-.431l-.411-.024v-3.342h.232a1.881,1.881,0,0,0,1.09-.383,1.853,1.853,0,0,0,.172-.363c.192-.511.335-.615.823-.6l.3.008Zm3.2-.28A1.07,1.07,0,0,1,97.2-500a.737.737,0,0,1-.5.188c-.124,0-.128,0-.076-.2.024-.076.06-.216.084-.312l.044-.168h.335C97.294-500.491,97.426-500.475,97.426-500.451ZM91.037-497.5v2.4H89.479v-4.792h1.557ZM93-495.016l.272.128-.12.136a1.605,1.605,0,0,0-.355,1.286c.044.3.12.4.28.4.188,0,.228-.108.208-.571-.012-.367-.008-.423.076-.583a1.038,1.038,0,0,1,.244-.3c.148-.12.148-.12.355-.068a7.621,7.621,0,0,0,.966.072l.751.016.116.248a2.7,2.7,0,0,1,.236,1.07c0,.232.012.276.088.327a.191.191,0,0,0,.311-.048c.084-.1.088-.14.068-.487a3.067,3.067,0,0,0-.124-.7,1.342,1.342,0,0,1-.084-.331c.032-.032.216.124.315.264a1.508,1.508,0,0,1,.24.647c.044.276.06.3.164.351.184.084.339-.028.339-.248a2.779,2.779,0,0,0-.276-.911c-.112-.176-.112-.192-.044-.212a1.109,1.109,0,0,0,.22-.124.529.529,0,0,1,.16-.088c.1.108.695.986.779,1.15a2.606,2.606,0,0,1,.3,1.4,2.153,2.153,0,0,1-.132.958,3.653,3.653,0,0,1-3.822,2.352,3.656,3.656,0,0,1-3.047-2.24,3.072,3.072,0,0,1,.264-2.708c.164-.26.934-1.318.962-1.318C92.718-495.14,92.85-495.084,93-495.016Z" transform="translate(0 0)" fill="#fff"/>
    <path id="Path_3079" data-name="Path 3079" d="M220.759-264.936a.208.208,0,0,0-.088.148c0,.06-.064.136-.188.228a.755.755,0,0,0-.355.715.771.771,0,0,0,.711.711c.22.028.351.144.351.315a.32.32,0,0,1-.307.3.356.356,0,0,1-.292-.292.225.225,0,0,0-.379-.184c-.1.08-.108.1-.084.272a.8.8,0,0,0,.383.571c.12.072.16.116.16.2a.232.232,0,0,0,.463.016.247.247,0,0,1,.132-.2.816.816,0,0,0,.351-.994.9.9,0,0,0-.535-.447c-.28-.044-.327-.06-.387-.124a.28.28,0,0,1,.188-.487.264.264,0,0,1,.307.244.244.244,0,0,0,.419.188c.164-.18-.028-.663-.319-.823-.076-.04-.14-.1-.14-.14,0-.1-.152-.276-.236-.276A.331.331,0,0,0,220.759-264.936Z" transform="translate(-125.88 -227.824)" fill="#fff"/>
    <path id="Path_3080" data-name="Path 3080" d="M116.269-145.444a1.11,1.11,0,0,0-.335.116c-.148.088-.152.088-.359.016a.655.655,0,0,0-.427-.028,1.4,1.4,0,0,0-.379.152c-.148.1-.172.1-.311.056a1.223,1.223,0,0,0-.775.032c-.339.152-.575.467-.491.651.044.1,3.6,2.536,3.846,2.644a2.592,2.592,0,0,0,1,.192,11.17,11.17,0,0,0,1.993-.3,2.818,2.818,0,0,1,.883-.1,5.364,5.364,0,0,1,.591.339l.475.3-.152.511c-.18.591-.188.659-.068.743a5.468,5.468,0,0,0,1.593.064c1.462,0,1.5,0,1.573-.08a11.479,11.479,0,0,0,.347-2.288c.148-1.214.268-2.272.272-2.352,0-.272,0-.272-1.222-.272a8.782,8.782,0,0,0-1.174.04.75.75,0,0,0-.164.339,1.3,1.3,0,0,1-.12.319,1.865,1.865,0,0,1-.555-.4,2.539,2.539,0,0,0-2.109-.563,3.953,3.953,0,0,0-.619.2,2.561,2.561,0,0,1-1.25.224h-.491l-.475-.26a3.692,3.692,0,0,0-.611-.284A1.069,1.069,0,0,0,116.269-145.444Zm.563.555.136.064-.1.072c-.1.064-.112.064-.351-.072-.212-.12-.232-.14-.148-.152A.777.777,0,0,1,116.832-144.889Zm-.946.268a5.455,5.455,0,0,1,.515.292.581.581,0,0,1-.06.1c-.052.068-.076.06-.487-.156-.747-.4-.795-.431-.707-.463C115.3-144.913,115.379-144.885,115.886-144.622Zm5.447-.148a2.252,2.252,0,0,1,.811.507,2.568,2.568,0,0,0,.431.3c.1.044.172.1.16.132s-.148.475-.307,1-.292.958-.3.966a5.485,5.485,0,0,1-.479-.288c-.695-.443-.623-.435-2.093-.164a6.234,6.234,0,0,1-1.6.208,2.771,2.771,0,0,1-.583-.084,17.967,17.967,0,0,1-1.889-1.218c-.926-.635-1.689-1.17-1.693-1.186-.012-.06.264-.136.391-.108a15.621,15.621,0,0,1,2,1.086c.072.2.052.2,1.362.18.675-.008,1.238-.012,1.25-.016.052,0,.1-.184.076-.26-.072-.192-.108-.2-1.166-.2-.543,0-.99-.008-.99-.016a1.054,1.054,0,0,1,.311-.367c.136-.092.168-.1,1.142-.12a3.07,3.07,0,0,0,1.693-.292,2.922,2.922,0,0,1,.419-.144A2.477,2.477,0,0,1,121.333-144.769Zm3.47,2.2c-.136,1.106-.252,2.013-.252,2.017s-.527.012-1.166.012c-.914,0-1.158-.012-1.142-.052.008-.024.284-.918.607-1.985s.6-1.949.607-1.969a5.922,5.922,0,0,1,.8-.028h.791Z" transform="translate(-23.208 -342.583)" fill="#fff"/>
  </g>
</svg>
