<svg id="bill" xmlns="http://www.w3.org/2000/svg" width="8.912" height="9.715" viewBox="0 0 8.912 9.715">
  <path id="Path_2479" data-name="Path 2479" d="M37.094-495.894a1.281,1.281,0,0,0-.937.994c-.014.093-.02,1.31-.016,4.209l.006,4.077.043.081a.462.462,0,0,0,.509.227,7.389,7.389,0,0,0,.73-.406c.347-.209.641-.379.655-.379s.351.2.755.436c.73.436.732.436.852.436a.625.625,0,0,0,.191-.03c.039-.016.375-.213.751-.438a5.051,5.051,0,0,1,.718-.4c.022.006.323.183.671.391.6.363.637.381.751.389a.425.425,0,0,0,.381-.15.542.542,0,0,0,.1-.18c.016-.063.022-.88.022-2.838v-2.749l.6-.006.6-.006.116-.055a.836.836,0,0,0,.387-.379l.065-.134v-2.11L45-495.06a1.287,1.287,0,0,0-.907-.834,29.647,29.647,0,0,0-3.505-.039A32.474,32.474,0,0,0,37.094-495.894Zm5.645.643c-.01.02-.037.087-.059.148a33.286,33.286,0,0,0-.053,4.059l-.01,3.95-.485-.29a6.2,6.2,0,0,0-.578-.318,1.007,1.007,0,0,0-.44,0c-.047.014-.383.2-.746.42l-.659.4-.594-.357-.655-.393a.9.9,0,0,0-.367-.1c-.2,0-.282.037-.8.345l-.5.3-.006-3.836c0-2.452,0-3.862.016-3.909a.617.617,0,0,1,.392-.41,23.318,23.318,0,0,1,2.832-.039A18.056,18.056,0,0,1,42.739-495.251Zm1.337.034a.608.608,0,0,1,.28.282c.047.085.047.093.053,1.037.006.87,0,.953-.028.988s-.073.039-.57.039h-.533v-1c0-.96,0-1,.043-1.089a.564.564,0,0,1,.343-.306A.7.7,0,0,1,44.076-495.216Z" transform="translate(-36.139 495.933)" fill="#0f299a"/>
  <path id="Path_2480" data-name="Path 2480" d="M120.67-374.972a.322.322,0,0,0,0,.58c.087.041.1.043,1.469.036s1.381-.006,1.438-.049a.6.6,0,0,0,.1-.109.326.326,0,0,0-.118-.444c-.075-.043-.087-.043-1.452-.043A11.819,11.819,0,0,0,120.67-374.972Z" transform="translate(-118.776 377.453)" fill="#0f299a"/>
  <path id="Path_2481" data-name="Path 2481" d="M120.587-289.7a.363.363,0,0,0-.229.258.358.358,0,0,0,.15.321l.069.047h2.8l.073-.049a.324.324,0,0,0-.022-.548c-.069-.043-.1-.043-1.42-.047C121.164-289.717,120.634-289.709,120.587-289.7Z" transform="translate(-118.647 293.898)" fill="#0f299a"/>
  <path id="Path_2482" data-name="Path 2482" d="M120.747-201.966a.322.322,0,0,0,.053.594c.051.016.509.02,1.438.016,1.345-.006,1.363-.006,1.42-.049a.321.321,0,0,0-.012-.55l-.069-.047H122.2A7.586,7.586,0,0,0,120.747-201.966Z" transform="translate(-118.859 207.962)" fill="#0f299a"/>
</svg>
