<svg xmlns="http://www.w3.org/2000/svg" width="5.887" height="6.553" viewBox="0 0 5.887 6.553">
  <g id="Group_16676" data-name="Group 16676" transform="translate(-280 -142)">
    <path id="Path_1986" data-name="Path 1986" d="M27.04-512.1a.313.313,0,0,0-.165.32v.078l-.252.005a.861.861,0,0,0-.321.032.51.51,0,0,0-.287.289c-.02.063-.022.207-.023,2.729,0,2.939-.006,2.727.081,2.855a.5.5,0,0,0,.251.183,24.171,24.171,0,0,0,2.612.026,24.171,24.171,0,0,0,2.612-.026.5.5,0,0,0,.251-.183c.087-.128.081.084.081-2.85,0-2.96.008-2.726-.09-2.856a.583.583,0,0,0-.241-.178,1.942,1.942,0,0,0-.3-.02L31-511.706v-.078a.7.7,0,0,0-.013-.129.321.321,0,0,0-.514-.151.288.288,0,0,0-.1.255v.106H27.5v-.106a.288.288,0,0,0-.1-.255A.329.329,0,0,0,27.04-512.1Zm.237.184c.031.024.033.033.033.122v.095h-.243v-.077c0-.078.023-.146.054-.157A.2.2,0,0,1,27.277-511.92Zm3.477-.01c.036.027.05.069.05.148v.078H30.56v-.095c0-.088,0-.1.033-.122A.163.163,0,0,1,30.753-511.93Zm-3.876.6c0,.159.008.19.032.237a.3.3,0,0,0,.252.157.088.088,0,0,0,.095-.063c.023-.065-.014-.107-.119-.138-.058-.017-.07-.055-.07-.225v-.15h3.3v.175a.533.533,0,0,0,.024.228c.065.142.248.22.328.141a.105.105,0,0,0,.032-.064.113.113,0,0,0-.093-.1.128.128,0,0,1-.065-.027c-.033-.026-.033-.028-.033-.192v-.165h.43a4.312,4.312,0,0,1,.485.014.324.324,0,0,1,.187.157c.022.047.024.093.024.529v.477l-2.061,0-2.061,0-.031.036a.077.077,0,0,0,0,.116l.026.033h4.132v1.273c0,1.387,0,1.306-.073,1.377s-.1.063-.491.063c-.346,0-.374,0-.443.027a.446.446,0,0,0-.221.21c-.031.063-.032.072-.038.473a2.558,2.558,0,0,1-.022.436.292.292,0,0,1-.147.114c-.023,0-.9.005-1.955,0l-1.913,0-.061-.036a.26.26,0,0,1-.1-.1l-.038-.066v-3.769h.537c.521,0,.539,0,.563-.026a.1.1,0,0,0,0-.129l-.024-.031-.539,0-.539,0v-.476c0-.435,0-.481.024-.529a.335.335,0,0,1,.178-.156,1.97,1.97,0,0,1,.267-.014h.219Zm4.681,4.083s-.215.218-.476.48l-.477.476.006-.4c.009-.572-.024-.537.525-.546.207,0,.388-.009.4-.01S31.558-507.249,31.558-507.247Zm.092,1.319a.3.3,0,0,1-.1.1l-.061.038-2.543,0-2.543,0-.069-.036a.23.23,0,0,1-.11-.1.289.289,0,0,1-.042-.106v-.037l.042.026c.113.07.012.068,2.218.064l2.033,0,.083-.041a3.527,3.527,0,0,0,.6-.56l.518-.518,0,.552,0,.553Z" transform="translate(254.008 654.14)" fill="#fff"/>
    <g id="Group_16675" data-name="Group 16675" transform="translate(280.576 144.385)">
      <path id="Path_1987" data-name="Path 1987" d="M71.147-325.711a.172.172,0,0,0-.122.082c-.023.037-.026.067-.026.329,0,.317,0,.331.084.385.033.022.064.024.325.024s.29,0,.33-.026c.079-.049.092-.1.092-.384,0-.234,0-.255-.028-.307-.051-.1-.079-.109-.369-.111A2.637,2.637,0,0,0,71.147-325.711Zm.49.407,0,.221h-.448v-.448l.221,0,.22,0Z" transform="translate(-71 325.719)" fill="#fff"/>
      <path id="Path_1988" data-name="Path 1988" d="M173.147-325.711a.172.172,0,0,0-.122.082c-.023.037-.026.067-.026.326,0,.316.005.34.081.386.037.023.065.026.329.026.422,0,.416.006.416-.409,0-.253,0-.279-.026-.32-.051-.087-.084-.1-.365-.1A2.637,2.637,0,0,0,173.147-325.711Zm.49.407,0,.221h-.448v-.448l.221,0,.22,0Z" transform="translate(-171.695 325.719)" fill="#fff"/>
      <path id="Path_1989" data-name="Path 1989" d="M274.651-325.711a.187.187,0,0,0-.128.095c-.02.036-.023.077-.023.316,0,.416-.006.409.416.409s.409.012.409-.412,0-.412-.384-.416A2.7,2.7,0,0,0,274.651-325.711Zm.482.4v.224h-.448v-.215a1.471,1.471,0,0,1,.009-.224,1.472,1.472,0,0,1,.224-.009h.215Z" transform="translate(-271.896 325.719)" fill="#fff"/>
      <path id="Path_1990" data-name="Path 1990" d="M376.65-325.711a.187.187,0,0,0-.128.095c-.02.036-.023.077-.023.316,0,.416-.006.409.416.409.261,0,.292,0,.325-.024.081-.054.084-.068.084-.385,0-.418,0-.415-.384-.418A2.7,2.7,0,0,0,376.65-325.711Zm.482.4v.224h-.448v-.215a1.464,1.464,0,0,1,.009-.224,1.471,1.471,0,0,1,.224-.009h.215Z" transform="translate(-372.59 325.719)" fill="#fff"/>
      <path id="Path_1991" data-name="Path 1991" d="M71.225-232.695a.223.223,0,0,0-.116.095.986.986,0,0,0-.015.331c0,.292,0,.292.036.326.063.067.081.07.374.07s.338-.008.388-.091c.023-.04.026-.067.026-.328s0-.285-.027-.319c-.064-.087-.07-.088-.367-.091C71.372-232.7,71.239-232.7,71.225-232.695Zm.5.41,0,.221h-.448v-.448l.221,0,.22,0Z" transform="translate(-71.091 233.89)" fill="#fff"/>
      <path id="Path_1992" data-name="Path 1992" d="M173.123-232.71a.2.2,0,0,0-.061.035c-.058.051-.061.078-.061.375s0,.324.074.378c.032.023.058.026.319.029.322,0,.352,0,.4-.086.028-.043.029-.058.029-.321s0-.279-.026-.319a.3.3,0,0,0-.061-.07c-.035-.026-.054-.027-.307-.029A2.509,2.509,0,0,0,173.123-232.71Zm.514.406,0,.221h-.448v-.448l.221,0,.22,0Z" transform="translate(-171.695 233.909)" fill="#fff"/>
      <path id="Path_1993" data-name="Path 1993" d="M274.245-232.754a.209.209,0,0,0-.109.139,1.768,1.768,0,0,0-.009.3c0,.228.006.248.033.29.05.082.081.088.386.088s.337-.008.384-.083c.023-.038.026-.063.026-.328s0-.29-.026-.328c-.05-.083-.065-.087-.371-.09A1.1,1.1,0,0,0,274.245-232.754Zm.519.4v.224h-.448v-.215a1.486,1.486,0,0,1,.009-.224,1.484,1.484,0,0,1,.224-.009h.215Z" transform="translate(-271.527 233.958)" fill="#fff"/>
      <path id="Path_1994" data-name="Path 1994" d="M376.65-230.711a.187.187,0,0,0-.128.095c-.02.036-.023.077-.023.316,0,.416-.006.41.416.41.261,0,.292,0,.325-.024.081-.054.084-.068.084-.385,0-.418,0-.415-.384-.418A2.747,2.747,0,0,0,376.65-230.711Zm.482.4v.224h-.448v-.215a1.463,1.463,0,0,1,.009-.224,1.468,1.468,0,0,1,.224-.009h.215Z" transform="translate(-372.59 231.935)" fill="#fff"/>
      <path id="Path_1995" data-name="Path 1995" d="M71.1-139.977a.209.209,0,0,0-.073.065c-.028.042-.029.054-.029.328s0,.285.029.328c.054.081.084.088.388.088.258,0,.271,0,.312-.029.095-.064.1-.068.1-.386s0-.322-.1-.388c-.041-.027-.054-.028-.312-.028C71.186-140,71.141-140,71.1-139.977Zm.537.393v.224h-.448v-.448h.448Z" transform="translate(-71 142.376)" fill="#fff"/>
      <path id="Path_1996" data-name="Path 1996" d="M173.6-139.982a.265.265,0,0,0-.07.052l-.032.035v.623l.038.04c.058.059.1.067.393.061s.3-.006.361-.092c.026-.033.027-.052.027-.321,0-.319,0-.322-.1-.388-.041-.027-.052-.028-.312-.028A1.257,1.257,0,0,0,173.6-139.982Zm.531.4v.224h-.448v-.448h.448Z" transform="translate(-172.188 142.376)" fill="#fff"/>
      <path id="Path_1997" data-name="Path 1997" d="M274.6-139.972c-.081.055-.1.09-.1.215s.018.166.1.166.09-.029.09-.132v-.086h.448v.448h-.443l-.014-.038a.089.089,0,0,0-.163,0,.154.154,0,0,0,.033.16c.055.061.092.068.369.068s.312-.006.371-.07l.032-.035v-.622l-.032-.035c-.059-.064-.092-.07-.381-.07C274.65-140,274.637-140,274.6-139.972Z" transform="translate(-271.896 142.376)" fill="#fff"/>
    </g>
  </g>
</svg>
