<svg id="trace" xmlns="http://www.w3.org/2000/svg" width="21.022" height="20.373" viewBox="0 0 21.022 20.373">
  <path id="Path_2794" data-name="Path 2794" fill="#fff" fill-rule="evenodd"/>
  <path id="Path_2795" data-name="Path 2795" d="M25.954,38.371a1.428,1.428,0,0,0-1.036.809c-.087.188-.094.279-.107,1.374L24.8,41.726h-.442c-.672,0-.941.13-1.132.548a.885.885,0,0,0,.414,1.182,1.13,1.13,0,0,0,.7.12H24.8v.99h-.5a1.344,1.344,0,0,0-.66.084.907.907,0,0,0-.3,1.4c.226.258.42.328.969.353l.484.021v.925l-.506.015c-.461.014-.524.026-.709.135a.921.921,0,0,0,.066,1.619,1.339,1.339,0,0,0,.667.09H24.8v.99h-.481c-.554,0-.763.071-.977.331a.931.931,0,0,0,.473,1.477,3.008,3.008,0,0,0,.563.042H24.8l.014,1.172c.014,1.145.016,1.177.12,1.388a1.393,1.393,0,0,0,1.267.8h.273l.019.355a1.269,1.269,0,0,0,.808,1.189l.239.112H38.594l.264-.122a1.327,1.327,0,0,0,.692-.7l.121-.258.012-4.26.012-4.26,1.651-1.657c.908-.911,1.686-1.724,1.729-1.807a1.071,1.071,0,0,0-.033-.9,4.634,4.634,0,0,0-1.047-1.013,1.282,1.282,0,0,0-.786,0,5.838,5.838,0,0,0-.861.763l-.7.7.006-1.254c.005-1.194,0-1.264-.087-1.463a1.435,1.435,0,0,0-1.134-.817C38,39.98,38.027,40,38,39.647a1.334,1.334,0,0,0-.8-1.184l-.243-.114-5.4-.006c-2.97,0-5.492.01-5.6.029m-.056.774a.658.658,0,0,0-.269.254c-.089.159-.094.217-.094,1.247v1.081h.484c.558,0,.745.061.964.311a.9.9,0,0,1-.284,1.42,1.168,1.168,0,0,1-.7.118h-.466v.947h.338c.709,0,1.037.141,1.231.53a.863.863,0,0,1,0,.834c-.193.388-.522.53-1.231.53h-.338v.947H26a1.168,1.168,0,0,1,.7.118.9.9,0,0,1,.284,1.42c-.219.25-.406.31-.964.311h-.484v.99h.484c.558,0,.745.061.964.311a.922.922,0,0,1-.232,1.4c-.188.11-.249.122-.711.136l-.506.015v1.06c0,1.186.017,1.271.3,1.458l.146.1h5.426c5.173,0,5.433,0,5.573-.079a.649.649,0,0,0,.225-.225c.073-.136.079-.3.079-2.318V49.883l-.7.692-.7.692-.818.2c-1.318.315-1.328.316-1.461.229-.219-.144-.217-.2.056-1.347l.252-1.056L35.6,47.605l1.684-1.684v-3.2c0-3.52.013-3.343-.268-3.544l-.14-.1-5.4-.011c-5.348-.011-5.4-.01-5.575.076m2.411,1.611a.387.387,0,0,0-.023.5l.082.1,3.448.012,3.448.011.126-.127a.333.333,0,0,0-.074-.559c-.074-.034-1.1-.048-3.5-.048h-3.4l-.106.106m9.7,2.183v2.249l.445-.444L38.9,44.3l.023-1.513c.026-1.733.022-1.765-.284-1.94a1.294,1.294,0,0,0-.4-.129l-.226-.028V42.94m-14.1-.43a.227.227,0,0,0,0,.284,14.411,14.411,0,0,0,2.521,0,.227.227,0,0,0,0-.284,14.412,14.412,0,0,0-2.521,0m17.337.485-.286.278.472.475.472.475.27-.267c.186-.184.27-.3.27-.374a2.756,2.756,0,0,0-.836-.864,1.236,1.236,0,0,0-.363.278m-12.95.123a.364.364,0,0,0,.006.5l.1.094h6.9l.106-.106a.322.322,0,0,0,0-.477l-.106-.106H28.39l-.094.1M37.6,46.632l-2.839,2.84.473.473.473.473,2.839-2.84,2.839-2.84-.473-.473-.473-.473L37.6,46.632m-13.676-1.3a.173.173,0,0,0,.007.28c.069.063.219.071,1.229.071A8.339,8.339,0,0,0,26.4,45.64a.216.216,0,0,0,0-.341,8.421,8.421,0,0,0-1.241-.045c-1.067,0-1.163.006-1.229.079m4.46.051a.369.369,0,0,0-.08.582l.106.106h3.4c2.4,0,3.43-.014,3.5-.048a.333.333,0,0,0,.075-.558l-.126-.126-3.392,0c-1.865,0-3.434.02-3.486.041M28.3,47.807a.361.361,0,0,0,.018.506l.111.1h5.121l.1-.121a.337.337,0,0,0,0-.484l-.106-.106H28.39l-.094.1m-4.388.339a.227.227,0,0,0,0,.284,14.412,14.412,0,0,0,2.521,0,.227.227,0,0,0,0-.284,14.411,14.411,0,0,0-2.521,0m14.568.539-.461.463L38,51.795l-.012,2.646-.1.194a1.573,1.573,0,0,1-.63.638l-.215.115L32.1,55.4l-4.943.011.028.267a.684.684,0,0,0,.419.622c.23.081,10.746.078,10.939,0a.688.688,0,0,0,.394-.512c.014-.1.02-1.843.013-3.873l-.012-3.69-.461.463M28.4,50.08a.339.339,0,0,0-.194.343.267.267,0,0,0,.113.25c.111.087.155.089,2.153.089h2.04l.106-.106a.413.413,0,0,0,.079-.43c-.072-.188-.165-.2-2.241-.194a17.962,17.962,0,0,0-2.057.048m6,.3-.088.337a.387.387,0,0,0-.022.166,2.627,2.627,0,0,0,.669-.162,2.139,2.139,0,0,0-.255-.278l-.255-.252-.049.189m-10.49.606a.187.187,0,0,0,.016.268c.058.058.233.068,1.261.068a5.4,5.4,0,0,0,1.245-.052.227.227,0,0,0,0-.284,14.412,14.412,0,0,0-2.521,0m4.407,1.5a.394.394,0,0,0-.071.468c.084.158.266.174,1.937.174s1.853-.016,1.937-.174a.394.394,0,0,0-.071-.468c-.11-.087-.158-.089-1.866-.089s-1.755,0-1.866.089" transform="translate(-22.137 -36.692)" fill="#fff" fill-rule="evenodd"/>
</svg>
