<svg xmlns="http://www.w3.org/2000/svg" xmlns:xlink="http://www.w3.org/1999/xlink" width="250" height="250" viewBox="0 0 250 250">
  <defs>
    <clipPath id="clip-iPhone_14_Pro_Max_2">
      <rect width="250" height="250"/>
    </clipPath>
  </defs>
  <g id="iPhone_14_Pro_Max_2" data-name="iPhone 14 Pro Max – 2" clip-path="url(#clip-iPhone_14_Pro_Max_2)">
    <rect width="250" height="250" fill="#fff"/>
    <g id="bill" transform="translate(30.097 18.103)">
      <path id="Path_268" data-name="Path 268" d="M192.49-510.409c-4.81,1.505-6.064,2.384-6.064,4.309,0,1.21,1.715,3.052,2.843,3.052a38.861,38.861,0,0,0,4.893-1.257c4.726-1.464,5.688-1.5,7.946-.457a8.408,8.408,0,0,1,4.558,5.35c3.806,11.92,43.745,144.577,43.745,145.413a9.348,9.348,0,0,1-2.132,5.1,8.773,8.773,0,0,1-2.384,1.589c-1.338.584-102.714,31.408-115.637,35.213a41.232,41.232,0,0,1-6.19,1.423,8.715,8.715,0,0,1-6.273-3.89c-.251-.378-4.35-13.759-9.2-29.653-4.809-15.932-9.075-29.274-9.452-29.692a3.4,3.4,0,0,0-4.307.086A3.319,3.319,0,0,0,94-371.771c0,1.377,17.23,58.38,18.234,60.345a17.1,17.1,0,0,0,6.231,5.814c1.715.837,2.719,1,5.647,1,3.429,0,4.516-.293,27.392-7.277,13.132-3.973,32.036-9.743,42.031-12.756l18.192-5.52.209,4.266c.251,4.893.837,6.022,3.137,6.022,2.635,0,2.886-.585,3.137-6.776l.209-5.563,13.843-4.18c17.23-5.27,17.481-5.354,20.074-7.822a13.125,13.125,0,0,0,4.224-8.908c.251-3.013.753-1.21-11.167-40.356-4.81-15.768-14.094-46.42-20.66-68.167-6.608-21.747-12.253-40.317-12.63-41.32a13.833,13.833,0,0,0-12.17-8.7C197.592-511.833,196.3-511.581,192.49-510.409Z" transform="translate(-66.841 511.712)" fill="red" stroke="red" stroke-width="0.5"/>
      <path id="Path_269" data-name="Path 269" d="M109.75-488.164c-15.767,4.811-28.815,8.743-29.066,8.784-.209,0-.92-.837-1.589-1.842-5.437-8.572-17.565-11.583-26.808-6.606a22.06,22.06,0,0,0-8.406,8.951,17.92,17.92,0,0,0-2.007,7.318l-.46,4.181-2.3.71a13.486,13.486,0,0,0-7.235,5.063c-3.095,4.1-2.886-1.884-2.76,84.687l.125,77.576.92,1.968a15.466,15.466,0,0,0,6.775,6.9l2.342,1.17h130.9l2.384-1.17c4.1-2.008,7.863-7.322,7.863-11.126,0-2.217-2.886-3.721-5.019-2.552a5.423,5.423,0,0,0-1.464,2.8,7.866,7.866,0,0,1-5.144,5.56c-1.087.338-20.7.419-64.949.338l-63.36-.128-1.715-1.128a8.1,8.1,0,0,1-2.593-2.97l-.878-1.8.084-64.406.125-64.36,8.49,28.02c4.684,15.431,8.783,28.436,9.117,28.94a2.951,2.951,0,0,0,3.889.919c2.3-1.3,2.384-.919-5.813-28.018-4.224-13.887-7.737-25.553-7.862-25.888s.376.124,1.046,1.045a14.067,14.067,0,0,0,6.189,5.06,10.3,10.3,0,0,0,5.646,1.128,17.548,17.548,0,0,0,4.977-.709,15.3,15.3,0,0,0,9.117-9.993c.418-1.632.544-6.736.544-21.04v-18.9l2.007-.67c1.087-.334,12.337-3.764,24.967-7.568,43.829-13.259,43.453-13.134,44.247-14.053a2.97,2.97,0,0,0-2.3-4.934C139.025-496.9,125.517-492.97,109.75-488.164ZM68.3-482.56c1.924,1.006,6.19,4.728,5.771,5.1a22.933,22.933,0,0,1-2.718.961l-2.635.794-1.171-1a7.6,7.6,0,0,0-5.6-1.839,9.285,9.285,0,0,0-6.44,2.55c-2.175,2.386-2.216,2.8-2.216,21.5,0,16.813.042,17.4.836,18.194a3.235,3.235,0,0,0,4.224.04l1-.8.209-17.188c.209-18.735.125-18.025,2.593-18.025,2.426,0,2.426,0,2.426,21.12,0,17.816-.084,19.364-.795,20.912a7.828,7.828,0,0,1-7.653,4.85,7.637,7.637,0,0,1-7.068-4.306c-.753-1.464-.795-2.761-.795-22.584v-21.036l1.213-2.509a14.843,14.843,0,0,1,7.4-7.151A14.637,14.637,0,0,1,68.3-482.56ZM41.539-446.469v14.135l-3.178-10.411c-3.053-9.954-3.179-10.5-2.677-12.3a9.259,9.259,0,0,1,1.213-2.8,9.225,9.225,0,0,1,4.182-2.716C41.455-460.56,41.581-457.466,41.539-446.469Z" transform="translate(-29.059 503.097)" fill="red"/>
      <path id="Path_270" data-name="Path 270" d="M194.537-397.33c-1.339.71-1.8,2.051-1.463,4.433.208,1.505.083,1.8-1.213,2.969a8.943,8.943,0,0,0-3.262,7.655,9.749,9.749,0,0,0,1.171,5.31c2.132,4.393,4.809,5.771,12.628,6.523a21.482,21.482,0,0,1,5.521,1.047c2.132,1.085,3.263,4.891,2.132,7.024-.626,1.17-3.6,2.426-5.813,2.426a8.011,8.011,0,0,1-3.47-.836c-2.552-1.38-4.517-1.085-5.521.88-1.924,3.678,1.171,6.984,6.984,7.4,2.761.207,2.887.25,3.43,1.546,2.007,4.727,8.53,2.677,7.569-2.382-.251-1.3-.126-1.548,1.213-2.593a10.488,10.488,0,0,0,3.764-8.2c.041-5.311-2.468-10.122-6.357-12.254-2.05-1.129-4.14-1.547-11.126-2.218-3.01-.29-4.432-1.462-4.432-3.677,0-2.844,2.51-4.183,7.822-4.226,4.432,0,5.394-.545,5.812-3.219.209-1.256.042-1.714-1-2.885-1.253-1.379-1.338-1.424-4.642-1.424-3.179,0-3.429-.04-3.639-.959A5.234,5.234,0,0,0,196.8-398,5.792,5.792,0,0,0,194.537-397.33Z" transform="translate(-121.876 445.555)" fill="red"/>
      <path id="Path_271" data-name="Path 271" d="M193.972-280.978c-23.211,7.066-43.621,13.3-45.293,13.758a13.16,13.16,0,0,0-3.848,1.716,2.971,2.971,0,0,0,2.217,5.018c2.008,0,91.506-27.225,92.385-28.1a3.183,3.183,0,0,0-.335-4.476,3.842,3.842,0,0,0-2.008-.835C236.629-293.86,217.225-288.047,193.972-280.978Z" transform="translate(-95.924 384.989)" fill="red" stroke="red" stroke-width="0.5"/>
      <path id="Path_272" data-name="Path 272" d="M203.222-238.1c-30.236,9.2-45.334,13.968-45.669,14.47-1.338,1.8,0,5.144,2.091,5.144,1.045,0,90.46-27.1,91.923-27.852,2.97-1.506,1.715-5.646-1.631-5.563C249.1-251.859,228.064-245.67,203.222-238.1Z" transform="translate(-103.503 360.558)" fill="red" stroke="red" stroke-width="0.5"/>
      <path id="Path_273" data-name="Path 273" d="M217.756-197.608c-23.922,7.277-44.289,13.466-45.293,13.76-3.3,1-4.308,3.052-2.55,5.269a2.548,2.548,0,0,0,2.174,1.088c.963,0,88.2-26.1,91.673-27.435a3.657,3.657,0,0,0,1.3-1.505,3.006,3.006,0,0,0-2.843-4.474C261.669-210.865,241.678-204.884,217.756-197.608Z" transform="translate(-110.508 336.709)" fill="red" stroke="red" stroke-width="0.5"/>
      <path id="Path_274" data-name="Path 274" d="M228.171-155.1c-30.321,9.2-45.335,13.968-45.67,14.47a3.22,3.22,0,0,0,.544,4.265,3.988,3.988,0,0,0,1.672.879c.335,0,6.566-1.8,13.884-4.014,13.8-4.141,66.664-20.2,73.815-22.374,4.517-1.38,5.73-2.258,5.73-4.14a2.866,2.866,0,0,0-3.22-2.886C274.049-168.9,253.013-162.67,228.171-155.1Z" transform="translate(-117.996 312.269)" fill="red" stroke="red" stroke-width="0.5"/>
    </g>
  </g>
</svg>
