<svg xmlns="http://www.w3.org/2000/svg" width="15.913" height="17.497" viewBox="0 0 15.913 17.497">
  <g id="add-file" transform="translate(-22.474 0.913)">
    <path id="Path_3639" data-name="Path 3639" d="M-53.291-.721h.527l.614,0h.106l.986,0L-49.8-.735l.887,0,.53,0q.249,0,.5,0h.183c.517-.007.517-.007.691.144.036.04.071.082.1.124l.108.1.1.1.054.054c.112.113.217.23.32.351.092.1.191.2.289.3.137.136.269.273.394.421.092.1.19.2.288.3.137.136.269.273.394.421.092.1.19.2.288.3.137.136.269.273.394.421.092.1.19.2.288.3a3.65,3.65,0,0,1,.4.428.445.445,0,0,0,.129.119.562.562,0,0,1,.227.415c.011.208.007.415,0,.623q0,.115,0,.23c0,.2,0,.4-.007.6s0,.411-.005.617q0,.6-.013,1.209l.112.027.147.036.073.018A4.986,4.986,0,0,1-39.94,9.175a4.975,4.975,0,0,1,.681,2.549V11.8a4.184,4.184,0,0,1-.111,1.058l-.031.125a5.213,5.213,0,0,1-2.409,3.15,4.854,4.854,0,0,1-2.461.622h-.078a4.217,4.217,0,0,1-1.09-.113l-.069-.017a5.126,5.126,0,0,1-3-2.131l-.068-.136h-.076l-1.838-.008-.889,0-.775,0-.41,0-.387,0h-.208a2.082,2.082,0,0,1-1.453-.555,2.112,2.112,0,0,1-.553-1.541q0-.073,0-.146,0-.2,0-.4,0-.216,0-.432,0-.423,0-.846,0-.344,0-.688,0-.976,0-1.952c0-.035,0-.07,0-.106V7.561q0-.853,0-1.706,0-.877,0-1.753,0-.492,0-.984,0-.419,0-.838,0-.214,0-.427,0-.2,0-.392c0-.069,0-.138,0-.207a2.054,2.054,0,0,1,.584-1.447A1.849,1.849,0,0,1-53.291-.721ZM-54.1.41a1.518,1.518,0,0,0-.316,1.079q0,.071,0,.143,0,.2,0,.392,0,.211,0,.423,0,.414,0,.828,0,.336,0,.673,0,.954,0,1.909c0,.034,0,.069,0,.1v.1q0,.834,0,1.669,0,.857,0,1.714,0,.481,0,.962,0,.41,0,.819,0,.209,0,.418,0,.192,0,.383c0,.068,0,.135,0,.2a1.354,1.354,0,0,0,.359,1,1.423,1.423,0,0,0,.94.345h2.555l1.618,0-.018-.058-.08-.265-.028-.091a4.853,4.853,0,0,1-.191-1.437v-.07a4.415,4.415,0,0,1,.065-.813,1.58,1.58,0,0,0,.015-.265h-.119l-1.112-.006-.572,0-.552,0h-.211l-.295,0h-.088a.513.513,0,0,1-.325-.084.348.348,0,0,1-.106-.275.48.48,0,0,1,.107-.274.954.954,0,0,1,.5-.079h.1l.326,0,.226,0,.6,0,.607,0,1.191-.009.031-.06A9.939,9.939,0,0,1-48.3,8.729h-.062l-1.5-.008-.727,0-.7,0h-.268l-.374,0h-.112c-.315,0-.315,0-.447-.117a.546.546,0,0,1-.061-.376.425.425,0,0,1,.2-.2A.742.742,0,0,1-52.16,8h.121l.132,0h.139l.3,0,.475,0q.675,0,1.35.006.373,0,.746,0,.235,0,.471,0h.294c.067,0,.133,0,.2,0a.932.932,0,0,0,.723-.346,3.92,3.92,0,0,1,.443-.273l.061-.034a5.929,5.929,0,0,1,2.7-.647v-2.8l-1.467-.013-.278,0h-.071a1.938,1.938,0,0,1-1.423-.46A2.355,2.355,0,0,1-47.7,1.836q0-.078,0-.157,0-.2,0-.408t0-.418q0-.409-.009-.818L-49.93.028l-1.025,0-.894,0-.473,0h-.609A1.471,1.471,0,0,0-54.1.41Zm7.159.239q0,.387-.006.773,0,.131,0,.263,0,.189,0,.379c0,.039,0,.078,0,.118a.975.975,0,0,0,.286.758.943.943,0,0,0,.677.236h.875l.561,0a1.24,1.24,0,0,0-.223-.3l-.07-.069-.073-.071c-.162-.158-.317-.317-.464-.488-.083-.094-.171-.181-.261-.268-.132-.13-.258-.263-.378-.4-.1-.115-.214-.222-.324-.33a4.708,4.708,0,0,1-.331-.362A1.668,1.668,0,0,0-46.84.73Zm-.136,7.875-.128.1a4.288,4.288,0,0,0-1.3,2.521l-.014.08a4.25,4.25,0,0,0,.823,3.065,4.515,4.515,0,0,0,1.134,1.048l.082.057a4.236,4.236,0,0,0,3.021.539,4.442,4.442,0,0,0,2.773-1.891,4.319,4.319,0,0,0,.589-3.171,4.313,4.313,0,0,0-1.863-2.712l-.135-.083-.064-.039A4.264,4.264,0,0,0-43.222,7.6l-.124-.035A4.252,4.252,0,0,0-47.075,8.524Z" transform="translate(77.647 -0.167)" fill="#fff"/>
    <path id="Path_3640" data-name="Path 3640" d="M-54.936-.089l.077,0a.478.478,0,0,1,.249.234,1.151,1.151,0,0,1,.017.3V.529c0,.088,0,.176-.005.264q0,.09,0,.18,0,.219-.008.438l.11,0,.405,0,.175,0,.252,0,.079,0a.52.52,0,0,1,.377.114.454.454,0,0,1,.083.364.5.5,0,0,1-.254.283c-.092,0-.183,0-.275,0h-.519l-.433,0,0,.11q0,.2,0,.405,0,.088,0,.175c0,.084,0,.168,0,.252l0,.079a.523.523,0,0,1-.114.377.557.557,0,0,1-.443.068.622.622,0,0,1-.2-.239c0-.092,0-.183,0-.275,0-.027,0-.054,0-.082q0-.13,0-.261,0-.088,0-.176,0-.216,0-.433l-.11,0-.405,0-.175,0-.252,0-.079,0a.53.53,0,0,1-.377-.114.493.493,0,0,1-.117-.271.559.559,0,0,1,.151-.309.648.648,0,0,1,.418-.075h.082l.258,0h.176l.43,0,0-.109q0-.2-.005-.4,0-.087,0-.174c0-.084,0-.168,0-.251l0-.078a.561.561,0,0,1,.152-.415A.379.379,0,0,1-54.936-.089Z" transform="translate(88.353 9.81)" fill="#fff"/>
    <path id="Path_3641" data-name="Path 3641" d="M-19.237-.014h3.186a.668.668,0,0,1,.511.148.54.54,0,0,1,.058.407A.4.4,0,0,1-15.7.752a1.865,1.865,0,0,1-.481.039h-3.1a.867.867,0,0,1-.542-.133.518.518,0,0,1-.092-.354.4.4,0,0,1,.185-.261A1.264,1.264,0,0,1-19.237-.014Z" transform="translate(44.964 5.972)" fill="#fff"/>
  </g>
</svg>
