<svg xmlns="http://www.w3.org/2000/svg" width="15.173" height="15.17" viewBox="0 0 15.173 15.17">
  <g id="shift-_1_" transform="translate(0 511.912)">
    <path id="Path_3200" data-name="Path 3200" d="M43.385-511.867a2.025,2.025,0,0,0-1.159.785,1.792,1.792,0,0,0-.326,1.088,1.755,1.755,0,0,0,.551,1.328,1.863,1.863,0,0,0,2.208.365,1.546,1.546,0,0,0,.489-.365A1.786,1.786,0,0,0,45.705-510a1.777,1.777,0,0,0-.557-1.336,1.592,1.592,0,0,0-.489-.365A1.91,1.91,0,0,0,43.385-511.867Zm.756.471a1.415,1.415,0,0,1,1.085,1.408,1.379,1.379,0,0,1-.628,1.176,1.508,1.508,0,0,1-1.073.219,1.62,1.62,0,0,1-.96-.673,1.611,1.611,0,0,1-.139-1.141A1.447,1.447,0,0,1,44.14-511.4Z" transform="translate(-40.658 0)" fill="#fff"/>
    <path id="Path_3201" data-name="Path 3201" d="M245.359-475.65c-.462.468-.462.436,0,.9.314.314.359.35.453.35a.215.215,0,0,0,.169-.068c.1-.1.083-.225-.041-.37l-.107-.124,1.671.006,1.671.009.107.071a.816.816,0,0,1,.175.175l.071.1.015,1.259.015,1.257.071.056a.23.23,0,0,0,.317-.018l.074-.074-.009-1.265-.009-1.268-.077-.166a1.077,1.077,0,0,0-.483-.51l-.181-.095-1.713-.009-1.713-.009.107-.121a.35.35,0,0,0,.1-.216.228.228,0,0,0-.24-.222C245.717-476,245.67-475.964,245.359-475.65Z" transform="translate(-237.752 -34.848)" fill="#fff"/>
    <path id="Path_3202" data-name="Path 3202" d="M.978-377.953a1.372,1.372,0,0,0-.945,1.013c-.021.107-.033.809-.033,2.172v2.015l.074.071.071.074H6.137l.071-.074.074-.071v-2.039c0-2.175,0-2.178-.148-2.483a1.542,1.542,0,0,0-.507-.539A1.5,1.5,0,0,0,4.783-378a.931.931,0,0,0-.581.119,2.461,2.461,0,0,1-2.125,0A.942.942,0,0,0,1.485-378,2.356,2.356,0,0,0,.978-377.953Zm.928.516c.11.047.314.124.456.169a2,2,0,0,0,.779.08,2,2,0,0,0,.779-.08c.142-.044.347-.122.456-.169a.841.841,0,0,1,.456-.089.889.889,0,0,1,.892.5l.068.136.009,1.9.009,1.905H.474v-1.846c0-2.116-.009-2.045.24-2.314a.818.818,0,0,1,.726-.282A.807.807,0,0,1,1.905-377.437Z" transform="translate(0 -129.944)" fill="#fff"/>
    <path id="Path_3203" data-name="Path 3203" d="M343.191-315.806a1.962,1.962,0,0,0-1.44,1.4,2.288,2.288,0,0,0-.05.459,1.786,1.786,0,0,0,.557,1.337,1.546,1.546,0,0,0,.489.365,1.872,1.872,0,0,0,1.719,0,1.627,1.627,0,0,0,.489-.365,1.774,1.774,0,0,0,.551-1.337,1.824,1.824,0,0,0-.631-1.419A1.926,1.926,0,0,0,343.191-315.806Zm.756.471a1.475,1.475,0,0,1,1.034.99,1.7,1.7,0,0,1-.012.836,1.438,1.438,0,0,1-1.7.96,1.411,1.411,0,0,1-.652-.362,1.335,1.335,0,0,1-.436-1.031,1.323,1.323,0,0,1,.418-1.013A1.427,1.427,0,0,1,343.946-315.334Z" transform="translate(-331.574 -190.253)" fill="#fff"/>
    <path id="Path_3204" data-name="Path 3204" d="M300.978-181.953a1.424,1.424,0,0,0-.83.679c-.148.305-.148.308-.148,2.483v2.039l.074.071.071.074h5.992l.071-.074.074-.071v-2.015c0-1.363-.012-2.066-.033-2.172a1.544,1.544,0,0,0-.379-.685,1.372,1.372,0,0,0-1.088-.376.931.931,0,0,0-.581.119,2.464,2.464,0,0,1-2.122,0,.917.917,0,0,0-.6-.116A2.355,2.355,0,0,0,300.978-181.953Zm.928.516c.11.047.314.124.456.169a2,2,0,0,0,.779.08,2,2,0,0,0,.779-.08c.142-.044.347-.122.456-.169a.842.842,0,0,1,.453-.089.835.835,0,0,1,.717.267c.27.273.261.184.261,2.332v1.846h-5.337l.009-1.9.009-1.905.068-.136a1.1,1.1,0,0,1,.19-.261.872.872,0,0,1,.693-.237A.806.806,0,0,1,301.905-181.437Z" transform="translate(-291.11 -320.135)" fill="#fff"/>
    <path id="Path_3205" data-name="Path 3205" d="M98.133-165.964c-.127.074-.13.095-.133.916,0,.883.018,1,.2,1.262a1.25,1.25,0,0,0,.258.258c.29.2.264.2,1.808.2h1.4l-.107.11c-.193.2-.21.335-.062.453s.2.089.607-.32c.311-.311.379-.394.379-.465s-.068-.154-.379-.465-.394-.379-.465-.379a.236.236,0,0,0-.219.142c-.05.092-.018.178.124.323l.121.127h-1.375c-1.372,0-1.378,0-1.5-.068a.84.84,0,0,1-.207-.193l-.089-.13-.018-.848c-.009-.468-.018-.853-.021-.856a.73.73,0,0,0-.219-.1A.283.283,0,0,0,98.133-165.964Z" transform="translate(-95.096 -335.661)" fill="#fff"/>
  </g>
</svg>
