<svg xmlns="http://www.w3.org/2000/svg" width="42" height="39" viewBox="0 0 42 39">
  <g id="Group_18111" data-name="Group 18111" transform="translate(-14.916 -12)">
    <g id="Rectangle_2477" data-name="Rectangle 2477" transform="translate(14.916 12)" fill="none" stroke="#000" stroke-width="0.5">
      <rect width="42" height="39" rx="7" stroke="none"/>
      <rect x="0.25" y="0.25" width="41.5" height="38.5" rx="6.75" fill="none"/>
    </g>
    <g id="kitchen-table" transform="translate(25.381 21.015)">
      <path id="Path_3153" data-name="Path 3153" d="M281.625-463.112v.888l-.812.406-.812.406v1.472h7.31v-1.472l-.812-.406-.812-.406V-464h-4.061Zm3.249.66v.736l.812.406a3.042,3.042,0,0,1,.812.482c0,.066-.355.076-2.843.076s-2.843-.01-2.843-.076a3.042,3.042,0,0,1,.812-.482l.812-.406v-1.472h2.437Z" transform="translate(-268.222 464)" fill="#ed1c24"/>
      <path id="Path_3154" data-name="Path 3154" d="M73.218-455.594v.406H72v.812h1.218v1.878c0,1.67-.01,1.878-.081,1.878-.137,0-.6.513-.67.741a1.112,1.112,0,0,0,.32,1.213,1.124,1.124,0,0,0,1.716-.025,1.153,1.153,0,0,0,.279-1.188c-.066-.228-.533-.741-.67-.741-.071,0-.081-.208-.081-1.878v-1.878h3.655v1.665l-.173.03a2.635,2.635,0,0,0-1.157.68,2.391,2.391,0,0,0,.056,3.427,2.393,2.393,0,0,0,3.422-.061A2.385,2.385,0,0,0,79.828-452a2.635,2.635,0,0,0-1.157-.68l-.173-.03v-1.665h2.031v-.812H78.5V-456h-.812v.812H74.031V-456h-.812Zm5.539,3.8a1.577,1.577,0,0,1,.761.726,1.146,1.146,0,0,1,.173.751,1.134,1.134,0,0,1-.183.761,1.613,1.613,0,0,1-3.031-.645,1.635,1.635,0,0,1,1.107-1.66A1.864,1.864,0,0,1,78.757-451.792Zm-4.853,2.01a.4.4,0,0,1-.279.685.429.429,0,0,1-.406-.406.429.429,0,0,1,.406-.406A.4.4,0,0,1,73.9-449.781Z" transform="translate(-70.782 456.406)" fill="#ed1c24"/>
      <path id="Path_3155" data-name="Path 3155" d="M61.4-287.391v.609H48v.812h.406v10.153H68.713v-10.153h.406v-.812H65.464V-288H63.839v.812h.812v.406H62.214v-.406h.812V-288H61.4Zm6.5,6.092v4.67H49.218v-9.341H67.9Z" transform="translate(-48 296.935)" fill="#ed1c24"/>
      <path id="Path_3156" data-name="Path 3156" d="M344.855-231.748a.588.588,0,0,0-.355.569.444.444,0,0,0,.168.411.448.448,0,0,0,.416.168.449.449,0,0,0,.416-.168.448.448,0,0,0,.168-.416.457.457,0,0,0-.157-.411A.656.656,0,0,0,344.855-231.748Z" transform="translate(-329.448 243.571)" fill="#ed1c24"/>
      <path id="Path_3157" data-name="Path 3157" d="M384.855-231.748a.588.588,0,0,0-.355.569.444.444,0,0,0,.167.411.449.449,0,0,0,.416.168.448.448,0,0,0,.416-.168.448.448,0,0,0,.168-.416.457.457,0,0,0-.157-.411A.656.656,0,0,0,384.855-231.748Z" transform="translate(-367.417 243.571)" fill="#ed1c24"/>
      <path id="Path_3158" data-name="Path 3158" d="M88-220.345v3.655h8.529V-224H88Zm7.716-1.625v1.218h-6.9v-2.437h6.9Zm0,3.249v1.218h-6.9v-2.437h6.9Z" transform="translate(-85.969 236.184)" fill="#ed1c24"/>
      <path id="Path_3159" data-name="Path 3159" d="M152-191.594v.406h1.624V-192H152Z" transform="translate(-146.72 205.808)" fill="#ed1c24"/>
      <path id="Path_3160" data-name="Path 3160" d="M152-127.594v.406h1.624V-128H152Z" transform="translate(-146.72 145.057)" fill="#ed1c24"/>
      <path id="Path_3161" data-name="Path 3161" d="M280-189.36v2.64h7.31V-192H280Zm6.5,0v1.828h-5.686v-3.655H286.5Z" transform="translate(-268.222 205.808)" fill="#ed1c24"/>
      <path id="Path_3162" data-name="Path 3162" d="M336-167.594v.406h1.625V-168H336Z" transform="translate(-321.379 183.027)" fill="#ed1c24"/>
    </g>
  </g>
</svg>
