<svg xmlns="http://www.w3.org/2000/svg" width="19.037" height="18.897" viewBox="0 0 19.037 18.897">
  <g id="Group_17292" data-name="Group 17292" transform="translate(-42.999 465.952)">
    <path id="Path_2115" data-name="Path 2115" d="M50.864-464.748c-2.962.688-5.612,1.3-5.893,1.367-.438.1-.532.139-.688.281a1.272,1.272,0,0,0-.259.34c-.08.17-.085.514-.085,7.47v7.3h-.295c-.451,0-.643.156-.643.518a.373.373,0,0,0,.13.29l.13.13h5.46V-448.6c0-1.707,0-1.716.3-2,.255-.241.362-.259,1.559-.259,1.256,0,1.381.022,1.649.29s.29.357.29,2.028v1.479H57.3v-9.007c0-6.421-.013-9.061-.049-9.2a1.086,1.086,0,0,0-.5-.617C56.408-466.034,56.511-466.057,50.864-464.748Zm-2.373,4.45c.174.125.228.326.228.867,0,.871-.071.938-.947.938-.934,0-.974-.036-.974-.938,0-.63.045-.791.241-.889a3.919,3.919,0,0,1,.719-.045C48.272-460.369,48.406-460.356,48.491-460.3Zm2.86,0c.174.125.228.326.228.867,0,.871-.071.938-.947.938-.934,0-.974-.036-.974-.938,0-.63.045-.791.241-.889a3.919,3.919,0,0,1,.719-.045C51.132-460.369,51.266-460.356,51.351-460.3Zm2.86,0c.174.125.228.326.228.867,0,.871-.071.938-.947.938-.934,0-.974-.036-.974-.938,0-.63.045-.791.241-.889a3.919,3.919,0,0,1,.719-.045C53.991-460.369,54.125-460.356,54.21-460.3Zm-5.719,2.859c.174.125.228.326.228.867,0,.871-.071.938-.947.938-.934,0-.974-.036-.974-.938,0-.63.045-.791.241-.889a3.919,3.919,0,0,1,.719-.045C48.272-457.509,48.406-457.5,48.491-457.438Zm2.86,0c.174.125.228.326.228.867,0,.871-.071.938-.947.938-.934,0-.974-.036-.974-.938,0-.63.045-.791.241-.889a3.919,3.919,0,0,1,.719-.045C51.132-457.509,51.266-457.5,51.351-457.438Zm2.86,0c.174.125.228.326.228.867,0,.871-.071.938-.947.938-.934,0-.974-.036-.974-.938,0-.63.045-.791.241-.889a3.919,3.919,0,0,1,.719-.045C53.991-457.509,54.125-457.5,54.21-457.438Zm-5.719,2.859c.174.125.228.326.228.867,0,.871-.071.938-.947.938-.934,0-.974-.036-.974-.938,0-.63.045-.791.241-.889a3.919,3.919,0,0,1,.719-.045C48.272-454.65,48.406-454.637,48.491-454.578Zm2.86,0c.174.125.228.326.228.867,0,.871-.071.938-.947.938-.934,0-.974-.036-.974-.938,0-.63.045-.791.241-.889a3.919,3.919,0,0,1,.719-.045C51.132-454.65,51.266-454.637,51.351-454.578Zm2.86,0c.174.125.228.326.228.867,0,.871-.071.938-.947.938-.934,0-.974-.036-.974-.938,0-.63.045-.791.241-.889a3.919,3.919,0,0,1,.719-.045C53.991-454.65,54.125-454.637,54.21-454.578Z" transform="translate(-0.001)" fill="#ed1c24"/>
    <path id="Path_2116" data-name="Path 2116" d="M384-382.248v7.752h3.539l.13-.13a.486.486,0,0,0,.067-.581c-.089-.165-.246-.228-.585-.228h-.29l-.009-6.425-.013-6.429-.134-.219c-.134-.214-.156-.232-1.385-.853-.688-.349-1.264-.634-1.282-.639S384-386.51,384-382.248Z" transform="translate(-325.765 -72.558)" fill="#ed1c24"/>
  </g>
</svg>
