<svg id="hub" xmlns="http://www.w3.org/2000/svg" width="21.217" height="19.288" viewBox="0 0 21.217 19.288">
  <path id="Path_2796" data-name="Path 2796" d="M40.2-461.424a2.742,2.742,0,0,0-2.239,3.323,2.755,2.755,0,0,0,1.756,1.939l.286.1v3.506H37.1c-3.145,0-3.126,0-3.671.263a2.765,2.765,0,0,0-1.033,1.047c-.253.493-.286.76-.286,2.309v1.389l-.286.1A2.741,2.741,0,0,0,30-444.882a2.754,2.754,0,0,0,1.948,2.615,2.892,2.892,0,0,0,1.549,0,2.723,2.723,0,0,0,1.22-4.459,2.783,2.783,0,0,0-1.141-.746l-.249-.08.014-1.479c.014-1.422.019-1.493.117-1.676a1.609,1.609,0,0,1,.277-.347c.366-.319.211-.305,3.389-.319L40-451.388v3.835l-.244.08a2.882,2.882,0,0,0-1.572,1.357,2.67,2.67,0,0,0,.5,3.136,2.516,2.516,0,0,0,1.925.812,2.509,2.509,0,0,0,1.925-.812,2.664,2.664,0,0,0,.5-3.136,2.888,2.888,0,0,0-1.568-1.357l-.249-.08v-3.835l2.877.014c3.173.014,3.018,0,3.384.319a1.609,1.609,0,0,1,.277.347c.1.183.1.253.117,1.676l.014,1.483-.291.1a2.755,2.755,0,0,0-1.756,1.939,2.755,2.755,0,0,0,1.854,3.239,3.067,3.067,0,0,0,1.6,0,2.759,2.759,0,0,0,1.854-3.239,2.863,2.863,0,0,0-1.793-1.962l-.249-.08v-1.385c0-1.549-.033-1.817-.286-2.309a2.928,2.928,0,0,0-1.009-1.037c-.5-.272-.53-.272-3.689-.272h-2.9v-3.5l.249-.08a2.789,2.789,0,0,0,1.131-.742,2.712,2.712,0,0,0,.441-3.079,3.206,3.206,0,0,0-1.145-1.178A2.953,2.953,0,0,0,40.2-461.424Zm1.028,1.3a1.54,1.54,0,0,1,.751.732,1.153,1.153,0,0,1,.146.657,1.153,1.153,0,0,1-.146.657,1.508,1.508,0,0,1-2.389.469,1.537,1.537,0,0,1,.1-2.347A1.593,1.593,0,0,1,41.223-460.119Zm-7.966,13.81a1.563,1.563,0,0,1,.85.8,1.514,1.514,0,0,1-1.235,2.131,1.521,1.521,0,0,1-1.511-2.169A1.507,1.507,0,0,1,33.258-446.309Zm7.886,0a1.571,1.571,0,0,1,.831.775,1.23,1.23,0,0,1,.15.652,1.127,1.127,0,0,1-.15.657,1.491,1.491,0,0,1-1.765.8,1.466,1.466,0,0,1-1.112-1.455A1.516,1.516,0,0,1,41.143-446.314Zm7.886,0a1.548,1.548,0,0,1,.793,2.173,1.5,1.5,0,0,1-.685.629,1.1,1.1,0,0,1-.643.127,1.229,1.229,0,0,1-.667-.127,1.535,1.535,0,0,1-.5-2.352A1.519,1.519,0,0,1,49.029-446.314Z" transform="translate(-30 461.45)" fill="#cc2d26"/>
</svg>
