<svg xmlns="http://www.w3.org/2000/svg" width="14.316" height="14.316" viewBox="0 0 14.316 14.316">
  <path id="Icon_material-local-offer" data-name="Icon material-local-offer" d="M15.924,9.379,9.931,3.386A1.323,1.323,0,0,0,8.992,3H4.332A1.336,1.336,0,0,0,3,4.332V8.992a1.329,1.329,0,0,0,.393.945L9.385,15.93a1.323,1.323,0,0,0,.939.386,1.3,1.3,0,0,0,.939-.393l4.661-4.661a1.3,1.3,0,0,0,.393-.939,1.345,1.345,0,0,0-.393-.945ZM5.33,6.329a1,1,0,1,1,1-1A1,1,0,0,1,5.33,6.329Z" transform="translate(-2.5 -2.5)" fill="none" stroke="#ed1c24" stroke-width="1"/>
</svg>
