<svg xmlns="http://www.w3.org/2000/svg" width="22.224" height="23.161" viewBox="0 0 22.224 23.161">
  <g id="money-transfer" transform="translate(-14.937 496.684)">
    <path id="Path_2202" data-name="Path 2202" d="M31.811-496.632a1.368,1.368,0,0,0-.775,1.953,1.266,1.266,0,0,0,.707.616l.226.082v7.866H30.286v-3.262c0-3.1,0-3.271-.087-3.343s-.241-.082-1.3-.082H27.689L27.612-493a1.423,1.423,0,0,0-.765-.673,1.185,1.185,0,0,0-1.472,1.381,1.183,1.183,0,0,0,1.679.8,1.115,1.115,0,0,0,.563-.611l.072-.178h2.069l-.01,3.064-.014,3.069-.755.014-.76.014v-1.626c0-1.794-.01-1.852-.318-2.141s.058-.279-6.331-.279c-5.542,0-5.845,0-6.028.091a1.072,1.072,0,0,0-.548.616c-.077.265-.072,7.928,0,8.149a1.077,1.077,0,0,0,.491.587c.2.106.245.106,2.208.13l2.011.024-.255.553-.255.553-.274.024a.541.541,0,0,0-.428.183l-.159.154v1.02l.178.164.183.164h2.862c3.17,0,3.069.01,3.218-.308a1.886,1.886,0,0,0,0-1.058c-.1-.2-.241-.284-.548-.318l-.26-.024-.25-.553-.25-.553,2-.024a16.587,16.587,0,0,0,2.126-.082,1.154,1.154,0,0,0,.529-.52c.082-.173.091-.337.091-1.554V-484.1l.76.014.755.014v6.11l-1.02.014-1.025.01-.072-.178a1.137,1.137,0,0,0-.572-.621,1.174,1.174,0,0,0-1.64,1.4,1.171,1.171,0,0,0,1.65.7,1.322,1.322,0,0,0,.563-.6l.072-.178h1.222c1.116,0,1.222,0,1.294-.087s.082-.385.082-3.343V-484.1H31.97v7.875l-.135.029a1.6,1.6,0,0,0-.736.539,1.262,1.262,0,0,0-.221.88,1.347,1.347,0,0,0,1.727,1.193,1.55,1.55,0,0,0,.861-.741,1.439,1.439,0,0,0,0-1.121,1.545,1.545,0,0,0-.741-.707l-.231-.082V-484.1h1.4v4.45l.548.548.553.548-.072.14a1.177,1.177,0,0,0,.245,1.313,1.161,1.161,0,0,0,1.727-.077,1,1,0,0,0,.26-.837,1.107,1.107,0,0,0-1.092-1.073,1.135,1.135,0,0,0-.51.058l-.188.082-.471-.471-.471-.471V-484.1h.722v-2.021h-.722v-4.209l.471-.471.471-.467.226.077a1.159,1.159,0,0,0,1.563-1.015,1.023,1.023,0,0,0-.269-.852,1.158,1.158,0,0,0-1.722-.058,1.176,1.176,0,0,0-.241,1.308l.072.14-.553.548-.548.548v4.45H32.5v-7.875l.188-.058a1.639,1.639,0,0,0,.779-.717,1.439,1.439,0,0,0,0-1.121,1.527,1.527,0,0,0-.678-.683A1.58,1.58,0,0,0,31.811-496.632Zm.606.515a.779.779,0,0,1,.611.779.809.809,0,0,1-1.544.351.735.735,0,0,1,0-.678.724.724,0,0,1,.471-.438A.534.534,0,0,1,32.418-496.117Zm-5.677,3a.631.631,0,0,1,.077,1.145.6.6,0,0,1-.909-.524.633.633,0,0,1,.616-.683A.732.732,0,0,1,26.741-493.12Zm9.6.3a.7.7,0,0,1,.2.221.623.623,0,0,1-.851.852.584.584,0,0,1-.313-.515A.618.618,0,0,1,36.338-492.817Zm-8.789,3.372.14.159-.01,3.945-.014,3.95-.135.115-.135.115H15.753a.854.854,0,0,1-.26-.39c-.014-.091-.024-1.876-.014-3.969.014-3.733.014-3.81.111-3.916a.744.744,0,0,1,.192-.149c.053-.019,2.689-.034,5.859-.029l5.768.01Zm7.6,4.339v.481H28.218v-.962h6.927ZM23.114-480.03c.135.3.245.563.245.577s-.8.024-1.785.024-1.775-.019-1.766-.039.12-.284.25-.577l.241-.539h2.564Zm1.183,1.443v.289H18.861l-.014-.236a1.037,1.037,0,0,1,.01-.3,13.512,13.512,0,0,1,2.732-.058l2.708.014Zm11.979.091a.629.629,0,0,1-.25,1.193.614.614,0,0,1-.649-.649.585.585,0,0,1,.313-.515A.59.59,0,0,1,36.276-478.5ZM26.9-478.2a.68.68,0,0,1,.245.616.632.632,0,0,1-.75.515.576.576,0,0,1-.486-.635.554.554,0,0,1,.308-.524A.683.683,0,0,1,26.9-478.2Zm5.778,2.636a.826.826,0,0,1,.351.678.809.809,0,0,1-1.544.346,1.1,1.1,0,0,1-.091-.342,1.053,1.053,0,0,1,.279-.616A.846.846,0,0,1,32.677-475.566Z" transform="translate(0 0)" fill="#fff"/>
    <path id="Path_2203" data-name="Path 2203" d="M42.1-333.9c-.1.1-.1.159-.1,3.382a22.276,22.276,0,0,0,.067,3.382c.067.091.178.091,5.273.091s5.205,0,5.273-.091a22.427,22.427,0,0,0,.067-3.4c0-3.141,0-3.31-.087-3.382S52.078-334,47.35-334C42.255-334,42.192-334,42.1-333.9Zm10.045,3.377.01,2.925H42.529v-2.9c0-1.6.014-2.92.034-2.935s2.174-.029,4.8-.024l4.767.014Z" transform="translate(-25.761 -154.858)" fill="#fff"/>
  </g>
</svg>
