<svg id="trace_1_" data-name="trace (1)" xmlns="http://www.w3.org/2000/svg" width="17.396" height="17.369" viewBox="0 0 17.396 17.369">
  <path id="Path_2796" data-name="Path 2796" fill="#fff" fill-rule="evenodd"/>
  <path id="Path_2797" data-name="Path 2797" d="M16.071.294a1.383,1.383,0,0,0-.9,1.04,1.333,1.333,0,0,0,.09.791l.088.22-2.01,2.01-2.01,2.01-.18-.082a1.359,1.359,0,0,0-1.149,0l-.18.082-.886-.887-.886-.887.086-.173a1.354,1.354,0,1,0-2.452,0l.084.182L4.179,6.187,2.591,7.775l-.208-.093a1.379,1.379,0,0,0-1.243.069,1.614,1.614,0,0,0-.549.616,1,1,0,0,0-.091.55,1,1,0,0,0,.091.55,1.358,1.358,0,0,0,2.58-.345,1.339,1.339,0,0,0-.121-.8l-.083-.181,1.59-1.59,1.59-1.59.111.058a1.386,1.386,0,0,0,1.307,0l.111-.058.883.883.883.883-.089.195a1.353,1.353,0,1,0,2.444,0l-.088-.191,2.007-2.007,2.007-2.007L15.9,2.8a1.36,1.36,0,0,0,1.9-.832,1.177,1.177,0,0,0,.044-.459A1.327,1.327,0,0,0,17.072.354a1.015,1.015,0,0,0-.526-.112,1.277,1.277,0,0,0-.475.052m.22.479a.859.859,0,0,0-.406.261.723.723,0,0,0-.2.538A.8.8,0,0,0,16.5,2.4a.753.753,0,0,0,.562-.213.813.813,0,0,0,.23-.847.847.847,0,0,0-1-.57m-9.719,2.3a.839.839,0,0,0-.279,1.316.736.736,0,0,0,.618.264.717.717,0,0,0,.373-.072.857.857,0,0,0,.421-1.006,1.021,1.021,0,0,0-.455-.5.966.966,0,0,0-.678,0m8.192,8.4V17.6h1.542a12.535,12.535,0,0,0,1.564-.036c.012-.02.011-2.775,0-6.123l-.025-6.087H14.765v6.123m.543,0v5.614h2.035V5.864H15.307v5.614M10.291,6.724a.93.93,0,0,0-.466.442A.825.825,0,1,0,11.4,7.41a.71.71,0,0,0-.234-.493.853.853,0,0,0-.871-.193M1.63,8.116A.826.826,0,0,0,1.355,9.6.841.841,0,0,0,2.543,9.35c.084-.129.094-.175.094-.433s-.01-.3-.094-.433a.888.888,0,0,0-.537-.379.506.506,0,0,0-.376.011m3.6,5.753V17.6H8.319V10.138H5.232V13.87m4.783.17V17.6H13.1V10.477H10.015v3.562m-4.24-.17v3.223H7.81V10.647H5.775V13.87m4.749.187v3.036H12.56V11.02H10.524v3.036M.517,14.786V17.6H3.57V11.97H.517v2.816m.475,0v2.307H3.027V12.479H.992v2.307" transform="translate(-0.483 -0.233)" fill="#fff" fill-rule="evenodd"/>
</svg>
