<svg xmlns="http://www.w3.org/2000/svg" width="24.8" height="23.969" viewBox="0 0 24.8 23.969">
  <g id="commission-_2_" transform="translate(-24.036 480)">
    <path id="Path_2155" data-name="Path 2155" d="M24.168-479.866a.4.4,0,0,0-.011.583.74.74,0,0,0,.492.155,2.146,2.146,0,0,1,1.755,1.258l.171.359.027,8.269c.027,7.878.032,8.28.128,8.536a3.274,3.274,0,0,0,.739,1.2,2.879,2.879,0,0,0,1.161.744l.353.139,2.1.016,2.1.016.134-.134a.416.416,0,0,0,.032-.573l-.1-.128-2.082-.027-2.077-.027-.359-.171a2.057,2.057,0,0,1-1.049-1.022l-.2-.407-.027-8.269-.027-8.274-.112-.294a3.073,3.073,0,0,0-.535-.969l-.2-.235,1.226-.016c.674-.005,3.49-.005,6.262,0l5.031.016.407.2a2.057,2.057,0,0,1,1.022,1.049l.171.359.027,4.715c.027,4.544.032,4.726.128,4.833a.427.427,0,0,0,.621-.032l.112-.139-.016-4.742-.016-4.742-.139-.353a2.918,2.918,0,0,0-.755-1.172,3.161,3.161,0,0,0-1.509-.8c-.219-.043-2.665-.059-7.589-.059H24.3Z" transform="translate(0)" fill="#3b53ec"/>
    <path id="Path_2156" data-name="Path 2156" d="M120.134-439.866a.417.417,0,0,0-.134.294.417.417,0,0,0,.134.294l.128.134h7.182l.128-.134a.393.393,0,0,0,0-.589l-.128-.134h-7.182Z" transform="translate(-90.828 -37.859)" fill="#3b53ec"/>
    <path id="Path_2157" data-name="Path 2157" d="M120.134-407.866a.417.417,0,0,0-.134.294.417.417,0,0,0,.134.294l.128.134h2.9l.128-.134a.417.417,0,0,0,.134-.294.417.417,0,0,0-.134-.294l-.128-.134h-2.9Z" transform="translate(-90.828 -68.147)" fill="#3b53ec"/>
    <path id="Path_2158" data-name="Path 2158" d="M369.864-407.766a1.809,1.809,0,0,0-1.151.942,1.421,1.421,0,0,0-.128.723,1.184,1.184,0,0,0,.177.792,1.579,1.579,0,0,0,.776.749,1.27,1.27,0,0,0,.728.139,1.27,1.27,0,0,0,.728-.139,1.579,1.579,0,0,0,.776-.749,1.184,1.184,0,0,0,.177-.792,1.271,1.271,0,0,0-.139-.728,1.528,1.528,0,0,0-.733-.765A1.9,1.9,0,0,0,369.864-407.766Zm.739.883a.841.841,0,0,1,.257,1.375.847.847,0,0,1-1.429-.781A.861.861,0,0,1,370.6-406.883Z" transform="translate(-326.108 -68.332)" fill="#3b53ec"/>
    <path id="Path_2159" data-name="Path 2159" d="M370.692-381.308c-2.462,2.457-2.692,2.7-2.692,2.863a.448.448,0,0,0,.439.439c.161,0,.407-.23,2.863-2.692s2.692-2.7,2.692-2.863a.4.4,0,0,0-.134-.305.4.4,0,0,0-.305-.134C373.395-384,373.149-383.77,370.692-381.308Z" transform="translate(-325.555 -90.862)" fill="#3b53ec"/>
    <path id="Path_2160" data-name="Path 2160" d="M120.134-343.866a.417.417,0,0,0-.134.294.417.417,0,0,0,.134.294l.128.134h4.613l.128-.134a.417.417,0,0,0,.134-.294.417.417,0,0,0-.134-.294l-.128-.134h-4.613Z" transform="translate(-90.828 -128.721)" fill="#3b53ec"/>
    <path id="Path_2161" data-name="Path 2161" d="M232.134-343.866a.417.417,0,0,0-.134.294.417.417,0,0,0,.134.294l.128.134h3.329l.128-.134a.417.417,0,0,0,.134-.294.417.417,0,0,0-.134-.294l-.128-.134h-3.329Z" transform="translate(-196.834 -128.721)" fill="#3b53ec"/>
    <path id="Path_2162" data-name="Path 2162" d="M425.864-319.766a1.809,1.809,0,0,0-1.151.942,1.42,1.42,0,0,0-.128.723,1.184,1.184,0,0,0,.177.792,1.579,1.579,0,0,0,.776.749,1.27,1.27,0,0,0,.728.139,1.27,1.27,0,0,0,.728-.139,1.579,1.579,0,0,0,.776-.749,1.184,1.184,0,0,0,.177-.792,1.27,1.27,0,0,0-.139-.728,1.528,1.528,0,0,0-.733-.765A1.9,1.9,0,0,0,425.864-319.766Zm.739.883a.841.841,0,0,1,.257,1.375.847.847,0,0,1-1.429-.781A.861.861,0,0,1,426.6-318.883Z" transform="translate(-379.111 -151.622)" fill="#3b53ec"/>
    <path id="Path_2163" data-name="Path 2163" d="M120.134-303.866a.417.417,0,0,0-.134.294.417.417,0,0,0,.134.294c.128.134.139.134,1.151.134s1.022,0,1.151-.134a.417.417,0,0,0,.134-.294.417.417,0,0,0-.134-.294c-.128-.134-.139-.134-1.151-.134S120.262-304,120.134-303.866Z" transform="translate(-90.828 -166.58)" fill="#3b53ec"/>
    <path id="Path_2164" data-name="Path 2164" d="M184.134-303.866a.417.417,0,0,0-.134.294.417.417,0,0,0,.134.294l.128.134h3.329l.128-.134a.417.417,0,0,0,.134-.294.417.417,0,0,0-.134-.294l-.128-.134h-3.329Z" transform="translate(-151.403 -166.58)" fill="#3b53ec"/>
    <path id="Path_2165" data-name="Path 2165" d="M272.134-303.866a.417.417,0,0,0-.134.294.417.417,0,0,0,.134.294c.123.128.166.134.723.134s.6-.005.723-.134a.417.417,0,0,0,.134-.294.417.417,0,0,0-.134-.294c-.123-.128-.166-.134-.723-.134S272.257-303.995,272.134-303.866Z" transform="translate(-234.693 -166.58)" fill="#3b53ec"/>
    <path id="Path_2166" data-name="Path 2166" d="M120.134-263.866a.417.417,0,0,0-.134.294.417.417,0,0,0,.134.294c.112.118.177.134.508.134s.4-.016.508-.134a.417.417,0,0,0,.134-.294.417.417,0,0,0-.134-.294c-.112-.118-.177-.134-.508-.134S120.246-263.984,120.134-263.866Z" transform="translate(-90.828 -204.44)" fill="#3b53ec"/>
    <path id="Path_2167" data-name="Path 2167" d="M160.134-263.866a.417.417,0,0,0-.134.294.417.417,0,0,0,.134.294l.128.134h2.9l.128-.134a.417.417,0,0,0,.134-.294.417.417,0,0,0-.134-.294l-.128-.134h-2.9Z" transform="translate(-128.687 -204.44)" fill="#3b53ec"/>
    <path id="Path_2168" data-name="Path 2168" d="M240.134-263.866a.417.417,0,0,0-.134.294.417.417,0,0,0,.134.294l.128.134h2.9l.128-.134a.417.417,0,0,0,.134-.294.417.417,0,0,0-.134-.294l-.128-.134h-2.9Z" transform="translate(-204.405 -204.44)" fill="#3b53ec"/>
    <path id="Path_2169" data-name="Path 2169" d="M224.476-239.822a3.381,3.381,0,0,0-2.162,1.033l-.161.235-.016,1.3-.016,1.3-.385-.145a5.711,5.711,0,0,0-1.937-.359c-1.563-.059-2.981.385-3.479,1.1l-.161.235-.016,2.376a25.522,25.522,0,0,0,.043,2.6c.246.9,2.157,1.536,4.057,1.343,1.675-.166,2.74-.808,2.74-1.659,0-.064.011-.118.021-.118s.15.059.316.134a6.663,6.663,0,0,0,4.758-.112,1.85,1.85,0,0,0,.835-.856c.091-.305.091-6.824.005-7.091a1.45,1.45,0,0,0-.637-.739A6.177,6.177,0,0,0,224.476-239.822Zm1.911.835c.9.123,1.707.5,1.707.8,0,.412-1.311.856-2.542.856s-2.542-.444-2.542-.856c0-.284.814-.674,1.659-.8A7.379,7.379,0,0,1,226.386-238.987Zm-2.173,2.382a5.923,5.923,0,0,0,1.338.1,5.326,5.326,0,0,0,2.184-.348l.385-.15v.519c0,.5-.005.525-.145.658a2.074,2.074,0,0,1-1.022.45,5.208,5.208,0,0,1-3.714-.369l-.23-.177-.016-.541-.016-.541.391.15A5.573,5.573,0,0,0,224.213-236.605Zm-3.821,1.044c.9.123,1.707.5,1.707.8,0,.412-1.311.856-2.542.856s-2.542-.444-2.542-.856c0-.284.814-.674,1.659-.8A7.379,7.379,0,0,1,220.392-235.562Zm3.045.872a5.178,5.178,0,0,0,2.114.326,5.31,5.31,0,0,0,2.184-.348l.391-.15-.016.541-.016.541-.23.177a5.2,5.2,0,0,1-3.709.369,2.084,2.084,0,0,1-1.006-.439c-.166-.139-.166-.139-.166-.674,0-.407.016-.53.07-.508C223.084-234.839,223.261-234.764,223.437-234.689Zm-5.218,1.509a5.922,5.922,0,0,0,1.338.1,5.31,5.31,0,0,0,2.184-.348l.391-.15-.016.541-.016.541-.23.177a5.18,5.18,0,0,1-4.71-.059l-.171-.15v-1.049l.391.15A5.328,5.328,0,0,0,218.219-233.18Zm5.218.632a5.178,5.178,0,0,0,2.114.327,5.326,5.326,0,0,0,2.184-.348l.385-.15v.519c0,.5-.005.525-.145.658a2.073,2.073,0,0,1-1.028.45,5.2,5.2,0,0,1-3.709-.369l-.23-.177-.016-.551c-.011-.434,0-.546.054-.525Zm-5.218,1.509a5.922,5.922,0,0,0,1.338.1,5.31,5.31,0,0,0,2.184-.348l.391-.15-.016.541-.016.541-.23.177a5.169,5.169,0,0,1-4.7-.059l-.177-.15v-1.049l.391.15A5.328,5.328,0,0,0,218.219-231.039Z" transform="translate(-181.822 -227.253)" fill="#3b53ec"/>
    <path id="Path_2170" data-name="Path 2170" d="M120.134-223.866a.417.417,0,0,0-.134.294.417.417,0,0,0,.134.294l.128.134h3.329l.128-.134a.417.417,0,0,0,.134-.294.417.417,0,0,0-.134-.294l-.128-.134h-3.329Z" transform="translate(-90.828 -242.299)" fill="#3b53ec"/>
    <path id="Path_2171" data-name="Path 2171" d="M208.134-223.866a.417.417,0,0,0-.134.294.417.417,0,0,0,.134.294l.128.134h2.473l.128-.134a.417.417,0,0,0,.134-.294.417.417,0,0,0-.134-.294l-.128-.134h-2.473Z" transform="translate(-174.118 -242.299)" fill="#3b53ec"/>
    <path id="Path_2172" data-name="Path 2172" d="M280.134-223.866a.417.417,0,0,0-.134.294.417.417,0,0,0,.134.294c.112.118.177.134.508.134s.4-.016.508-.134a.417.417,0,0,0,.134-.294.417.417,0,0,0-.134-.294c-.112-.118-.177-.134-.508-.134S280.246-223.984,280.134-223.866Z" transform="translate(-242.265 -242.299)" fill="#3b53ec"/>
    <path id="Path_2173" data-name="Path 2173" d="M120.134-183.866a.417.417,0,0,0-.134.294.417.417,0,0,0,.134.294l.128.134h2.9l.128-.134a.417.417,0,0,0,.134-.294.417.417,0,0,0-.134-.294l-.128-.134h-2.9Z" transform="translate(-90.828 -280.158)" fill="#3b53ec"/>
  </g>
</svg>
