<svg xmlns="http://www.w3.org/2000/svg" width="23.845" height="22.836" viewBox="0 0 23.845 22.836">
  <g id="stock-_1_" transform="translate(-8 493.525)">
    <path id="Path_2007" data-name="Path 2007" d="M19.826-493.514c-.192.072-11.667,6.769-11.744,6.855s-.087.178-.072.731c.014.591.024.644.144.827.221.332.428.4,1.255.4h.707v10.24H9.668c-.409,0-.462.01-.553.111s-.106.163-.106.745v.635H8.668c-.341,0-.5.048-.606.188a3.3,3.3,0,0,0-.062.952c0,.856,0,.875.115,1.01l.115.135H31.614l.115-.135c.111-.135.115-.154.115-1.01a3.3,3.3,0,0,0-.062-.952c-.106-.139-.264-.187-.606-.187h-.341v-.639c0-.611,0-.649-.111-.745s-.168-.106-.553-.106h-.442V-484.7h.707c.827,0,1.034-.067,1.255-.4.12-.183.13-.236.144-.827.014-.553,0-.639-.072-.731-.048-.053-1.1-.692-2.346-1.413-3.678-2.13-3.827-2.216-6.634-3.851-1.481-.86-2.735-1.577-2.788-1.591A.332.332,0,0,0,19.826-493.514Zm5.187,3.779,4.976,2.894-5.033.014c-2.769,0-7.3,0-10.067,0l-5.029-.014,1.7-.99c1.745-1.014,4.86-2.832,7.086-4.125a9.732,9.732,0,0,1,1.322-.7C20.009-492.639,22.278-491.327,25.013-489.736Zm6.052,3.961-.014.279H8.793l-.014-.279-.014-.274H31.08Zm-18.643,6.192v5.125l-.755-.014-.76-.014-.014-5.11-.01-5.105h1.538Zm14.23,0v5.12H13.192V-484.7H26.653Zm2.3-.014-.014,5.11-.755.014-.76.014V-484.7H28.96Zm1.115,6.264v.361H9.779v-.721H30.066Zm1.01,1.514v.385H8.769v-.769H31.075Z" fill="#fff"/>
    <path id="Path_2008" data-name="Path 2008" d="M219.69-442.756a1.849,1.849,0,0,0-1.269,1.457,1.829,1.829,0,0,0,1.053,1.928,1.345,1.345,0,0,0,.731.13,1.345,1.345,0,0,0,.731-.13,1.829,1.829,0,0,0,1.053-1.933,1.859,1.859,0,0,0-1.053-1.365A2.1,2.1,0,0,0,219.69-442.756Zm.981.822a1.018,1.018,0,0,1,.01,1.822.985.985,0,0,1-.952,0,.986.986,0,0,1-.514-1.183.908.908,0,0,1,.519-.635A.97.97,0,0,1,220.671-441.934Z" transform="translate(-200.282 -48.273)" fill="#fff"/>
    <path id="Path_2009" data-name="Path 2009" d="M141.561-301.746a2.235,2.235,0,0,0-.582.135.377.377,0,0,0,.111.654l.154.072-.745.745a7.765,7.765,0,0,1-.764.716c-.014-.014-.245-.423-.51-.909s-.514-.918-.548-.947a.471.471,0,0,0-.2-.091c-.3-.058-.308-.038-1.61,3.13-.673,1.625-1.235,2.957-1.255,2.957a5.588,5.588,0,0,1-.5-.529c-.6-.678-.707-.74-.957-.519-.115.1-.135.188-.25.976-.067.476-.13.87-.139.88s-.207-.173-.452-.4c-.437-.409-.529-.452-.736-.356a24.417,24.417,0,0,0-1.9,2.308.367.367,0,0,0,.418.5c.115-.024.3-.216.88-.928.4-.49.745-.913.764-.942s.221.13.5.409c.683.668.8.726,1.043.51.115-.1.135-.183.24-.913.067-.447.125-.822.139-.832a3.83,3.83,0,0,1,.418.437c.409.476.5.553.668.553.236,0,.322-.168,1.49-3.019.635-1.538,1.173-2.832,1.192-2.865s.178.183.486.745c.668,1.216.591,1.221,1.875-.077.538-.543.99-.986,1-.986s.019.043.019.091c0,.125.221.293.38.293a.544.544,0,0,0,.346-.207s.043-.3.087-.659C142.772-301.857,142.719-301.9,141.561-301.746Z" transform="translate(-116.754 -182.495)" fill="#fff"/>
  </g>
</svg>
