<svg xmlns="http://www.w3.org/2000/svg" width="44.362" height="46.6" viewBox="0 0 44.362 46.6">
  <g id="broom" transform="translate(-45.141 464.826)">
    <path id="Path_3079" data-name="Path 3079" d="M108.812-464.709a5.342,5.342,0,0,0-2.666,1.453c-.572.583-.972,1.281-3.753,6.658L99.282-450.6l-1.007.08a10.746,10.746,0,0,0-1.991.389,9.494,9.494,0,0,0-4.748,3.2c-3.226,3.524-5.3,5.469-7.093,6.636a24.093,24.093,0,0,1-7.516,3.123c-1.339.275-1.625.412-2.231,1.075a2.674,2.674,0,0,0-.492,2.917c.446.972,3.421,3.718,6.807,6.258a58.887,58.887,0,0,0,14.472,8.191,4.8,4.8,0,0,0,2.288.5,3.157,3.157,0,0,0,2.643-1.167,51.41,51.41,0,0,0,5.022-8.729,96.767,96.767,0,0,0,4.2-11.155,10.017,10.017,0,0,0-.126-3.775,11.264,11.264,0,0,0-.629-1.579l-.435-.892,3.078-5.915c1.693-3.249,3.18-6.224,3.318-6.6a4.235,4.235,0,0,0,.183-1.773,3.732,3.732,0,0,0-.469-1.979,5.182,5.182,0,0,0-3.787-2.929A4.345,4.345,0,0,0,108.812-464.709Zm1.991,3.295a2.024,2.024,0,0,1,1.121,2.071c-.034.275-1.156,2.551-2.894,5.9-1.556,3.009-2.837,5.48-2.86,5.5a1.617,1.617,0,0,1-.469-.24c-.252-.16-1.087-.606-1.853-.984l-1.384-.7.412-.835c1.464-2.895,5.251-10.125,5.411-10.308A2.233,2.233,0,0,1,110.8-461.414Zm-10,14.324a18.463,18.463,0,0,1,4,2.174,5.392,5.392,0,0,1,1.808,4.1,5.533,5.533,0,0,1-.435,2.231,11.238,11.238,0,0,1-.526,1.361c-.057.069-12.39-6.269-12.676-6.521a11.347,11.347,0,0,1,1.59-1.853A6.2,6.2,0,0,1,100.8-447.09Zm-5.4,8.169c7.093,3.73,9.061,4.759,9.1,4.794a55.419,55.419,0,0,1-2.38,5.629c-1.556,3.215-3.81,7.047-4.222,7.185a10.223,10.223,0,0,1-2.872-.972c-.469-.194-.95-.389-1.053-.423s-.206-.08-.206-.114.32-.435.721-.927c1.419-1.739,2.254-3.078,2.254-3.615a1.575,1.575,0,0,0-2.345-1.339,7.427,7.427,0,0,0-1.224,1.51,20.694,20.694,0,0,1-1.625,2.105l-.732.8-.618-.332a44.083,44.083,0,0,1-4.553-2.917,2.57,2.57,0,0,1,.572-.5,2.046,2.046,0,0,0,1.03-1.6,1.429,1.429,0,0,0-.892-1.35c-.664-.332-1.075-.229-2.036.48a12.909,12.909,0,0,1-1.19.789l-.412.206-1.293-1.03a39.558,39.558,0,0,1-3.867-3.489c.034-.023.629-.195,1.35-.389a24.889,24.889,0,0,0,10.686-5.983c.572-.538,1.041-.972,1.064-.984S92.818-440.283,95.4-438.922Z" transform="translate(-25.532 0)" fill="#ed1c24"/>
    <path id="Path_3080" data-name="Path 3080" d="M100.487-348.779a2.274,2.274,0,0,0,.481,4.21,2.243,2.243,0,0,0,2.254-.744A2.252,2.252,0,0,0,100.487-348.779Z" transform="translate(-47.937 -102.533)" fill="#ed1c24"/>
    <path id="Path_3081" data-name="Path 3081" d="M46.693-287.791a2.294,2.294,0,0,0-1.155,3.455,2.243,2.243,0,0,0,3.993-.629A2.261,2.261,0,0,0,46.693-287.791Z" transform="translate(0 -156.691)" fill="#ed1c24"/>
  </g>
</svg>
