<svg xmlns="http://www.w3.org/2000/svg" width="15.303" height="15.293" viewBox="0 0 15.303 15.293">
  <g id="Group_15297" data-name="Group 15297" transform="translate(0.001 0)">
    <path id="Path_1945" data-name="Path 1945" d="M80.51-495.686a1.016,1.016,0,0,0-.472.488c-.029.1-.038.73-.038,2.48v2.346h.51v-4.689l.08-.077.076-.08H87.9l.01.9.01.9.108.2a.927.927,0,0,0,.462.446c.153.08.194.083.682.1l.516.013v-.513l-.472-.01c-.465-.01-.475-.01-.593-.1-.194-.147-.21-.22-.21-.934v-.631l1.02,1.02,1.02,1.023v4.986h.51l-.006-2.56a12.685,12.685,0,0,0-.07-2.668c-.08-.153-2.391-2.471-2.569-2.576l-.143-.086-3.777-.006C81.7-495.721,80.59-495.712,80.51-495.686Z" transform="translate(-77.958 495.719)" fill="#fff"/>
    <path id="Path_1946" data-name="Path 1946" d="M120.08-431.92l-.08.077v3.159h.51v-1.53h2.04v1.53h2.55v1.02h-.765v.51h.765v1.02h-.765v.51h.765v1.02h-.765v.51h.765v1.02h-.765v.51h.765v1.02h-.765v.51h2.04v-.51h-.765v-1.02h1.02v-.51h-1.02v-1.02h1.53v-.51h-1.53v-1.02h2.04v-.51h-2.04v-1.02h2.3v.765h.51v-3.57h-.51v.765h-2.3v-1.02h1.02v-.51h-3.57v-.765h3.06V-432h-5.964Zm2.471.813v.383h-2.04v-.765h2.04Zm2.55,1.4v.51h-2.04v-1.02h2.04Zm2.805,1.53v.51h-2.3v-1.02h2.3Z" transform="translate(-116.684 434.033)" fill="#fff"/>
    <path id="Path_1947" data-name="Path 1947" d="M16.437-311.9a1.016,1.016,0,0,0-.472.488c-.054.191-.054,8.186,0,8.377a.947.947,0,0,0,.491.491c.1.029.851.038,3.047.038,3.309,0,3.108.016,3.35-.255a.871.871,0,0,0,.175-.28c.054-.182.054-8.183,0-8.365a.87.87,0,0,0-.175-.28c-.242-.271-.038-.255-3.369-.252C17.442-311.936,16.514-311.926,16.437-311.9Zm6.041.548.08.076v8.1l-.08.077-.077.08H16.594l-.077-.08-.08-.077v-8.1l.08-.076.077-.08H22.4Z" transform="translate(-15.926 317.798)" fill="#fff"/>
    <path id="Path_1948" data-name="Path 1948" d="M56.08-279.92c-.077.073-.08.089-.08.564v.484l.328.328.328.328h3.277l.328-.328.328-.328v-.484c0-.475,0-.491-.08-.564l-.077-.08H56.156Zm4,.628v.2l-.182.185-.182.185H56.873l-.182-.185-.182-.185v-.4h3.57Z" transform="translate(-54.724 286.877)" fill="#fff"/>
    <path id="Path_1949" data-name="Path 1949" d="M48.08-207.92l-.08.077v4.788l.08.077.077.08h4.788l.077-.08.08-.077v-4.788l-.08-.077-.077-.08H48.156Zm1.45.94v.51H48.51v-1.02h1.02Zm1.53,0v.51H50.04v-1.02h1.02Zm1.53,0v.51H51.57v-1.02h1.02Zm-3.06,1.53v.51H48.51v-1.02h1.02Zm1.53,0v.51H50.04v-1.02h1.02Zm1.53.765v1.275H51.57v-2.55h1.02Zm-3.06.765v.51H48.51v-1.02h1.02Zm1.53,0v.51H50.04v-1.02h1.02Z" transform="translate(-46.978 217.171)" fill="#fff"/>
    <path id="Path_1950" data-name="Path 1950" d="M322.158-236.838a.763.763,0,0,0-.5.736.837.837,0,0,0,.112.427,2.4,2.4,0,0,1,.112.255c0,.013-.061.041-.134.064a1.8,1.8,0,0,0-.695.421,1.74,1.74,0,0,0-.443.695l-.083.21-.01,1.361c-.01,1.189-.016,1.364-.057,1.364-.086,0-.379.325-.421.465a2.437,2.437,0,0,0-.038.488c0,.335,0,.36.08.434l.076.08h5.3l.077-.08c.076-.073.08-.1.08-.434a2.441,2.441,0,0,0-.038-.488c-.041-.14-.335-.465-.421-.465-.042,0-.048-.175-.057-1.364l-.01-1.361-.083-.21a1.709,1.709,0,0,0-.44-.689,1.739,1.739,0,0,0-.695-.427c-.077-.022-.137-.051-.137-.064a2.4,2.4,0,0,1,.112-.255.818.818,0,0,0,.022-.8.709.709,0,0,0-.87-.363.444.444,0,0,1-.36.006A.645.645,0,0,0,322.158-236.838Zm.37.513a.9.9,0,0,0,.277.048.9.9,0,0,0,.277-.048c.153-.064.191-.061.281.032.115.112.1.23-.064.558l-.143.287h-.7l-.143-.287c-.166-.328-.179-.446-.064-.558C322.337-236.386,322.375-236.389,322.528-236.325Zm1.336,1.521a1.225,1.225,0,0,1,.609.625l.1.214.01,1.3.01,1.3h-.258v.51h.3c.281,0,.312.006.383.08s.08.108.08.255v.175h-4.59v-.175c0-.147.013-.191.08-.255s.092-.08.51-.08h.43v-.51h-.513l.01-1.3.01-1.3.1-.214a1.652,1.652,0,0,1,.229-.354,1.481,1.481,0,0,1,.628-.37,8.054,8.054,0,0,1,.877-.026l.749.006Z" transform="translate(-310.309 245.131)" fill="#fff"/>
    <path id="Path_1951" data-name="Path 1951" d="M384.51-159.732v.265l-.1.019a.7.7,0,0,0-.386.411.658.658,0,0,0,.277.727.739.739,0,0,0,.389.092c.21.016.277.032.306.073a.091.091,0,0,1,0,.112c-.032.051-.1.057-.52.067l-.481.01v.507h.51v.51h.51v-.536l.1-.016a.7.7,0,0,0,.386-.411.657.657,0,0,0-.277-.727.738.738,0,0,0-.389-.092c-.21-.016-.277-.032-.306-.077a.091.091,0,0,1,0-.112c.032-.048.1-.054.52-.064l.481-.01v-.507h-.51V-160h-.51Z" transform="translate(-372.269 170.702)" fill="#fff"/>
    <path id="Path_1952" data-name="Path 1952" d="M256-55.745v.255h1.53V-56H256Z" transform="translate(-248.349 70.018)" fill="#fff"/>
  </g>
</svg>
