<svg xmlns="http://www.w3.org/2000/svg" width="15.114" height="18.605" viewBox="0 0 15.114 18.605">
  <path id="backup-copy" d="M-124.009-.253h2.433l1.021,0h2.074c.639,0,.639,0,.912.263a1.483,1.483,0,0,1,.2.952q0,.079,0,.157,0,.206,0,.411t0,.421q0,.412-.005.823l.122.015a.413.413,0,0,1,.268.116l.061.051a1.14,1.14,0,0,1,.173.83c0,.046,0,.091,0,.138q0,.168-.005.336h.064l.671,0h.25l.361,0h.111a1.855,1.855,0,0,1,1.367.461,1.476,1.476,0,0,1,.371.9c0,.032,0,.064,0,.1s0,.069,0,.105c0,.056,0,.056,0,.112q0,.187,0,.373,0,.134,0,.267,0,.363,0,.727,0,.227,0,.454,0,.629,0,1.258c0,.027,0,.054,0,.081s0,.054,0,.081q0,.082,0,.164c0,.027,0,.054,0,.082q0,.657,0,1.313,0,.675,0,1.349,0,.379,0,.757,0,.356,0,.713,0,.131,0,.261,0,.179,0,.357c0,.051,0,.051,0,.1a1.546,1.546,0,0,1-.3.937l-.063.1a1.5,1.5,0,0,1-1.018.466h-.357l-.414,0h-.288l-.679,0-.774,0-1.59-.007.034.135c.027.107.05.212.066.321l.013.088.013.092.014.1.029.2q.022.154.045.308l.029.2.014.092a2.612,2.612,0,0,1,.031.461l.088,0,.393-.008.138,0,.132,0,.122,0a.253.253,0,0,1,.192.105.367.367,0,0,1,.059.314.579.579,0,0,1-.145.181,1.238,1.238,0,0,1-.27.023h-2.583q-.542,0-1.085,0h-2.54a.328.328,0,0,1-.281-.11.377.377,0,0,1-.057-.314.655.655,0,0,1,.145-.181.715.715,0,0,1,.228-.018l.132,0,.138,0,.139,0,.341.009,0-.077c.023-.352.073-.7.126-1.046q.023-.15.045-.3l.029-.191.014-.091a.7.7,0,0,1,.073-.29h-.066l-1.6.007-.774,0-.675,0-.357,0h-.4l-.118,0a1.5,1.5,0,0,1-.94-.308l-.091-.061a1.4,1.4,0,0,1-.457-.921c0-.1,0-.193,0-.289,0-.037,0-.074,0-.112q0-.186,0-.373,0-.133,0-.267,0-.4,0-.8,0-.189,0-.378,0-.629,0-1.257,0-.163,0-.326c0-.027,0-.054,0-.082q0-.656,0-1.312,0-.674,0-1.348,0-.378,0-.756,0-.356,0-.712,0-.13,0-.261c0-.119,0-.238,0-.357,0-.034,0-.068,0-.1a1.586,1.586,0,0,1,.439-1.076,1.921,1.921,0,0,1,1.425-.416h.118l.367,0h.251l.61,0V4.166q0-.4,0-.808,0-.208,0-.415t0-.4q0-.076,0-.153c-.006-.564-.006-.564.209-.812a.51.51,0,0,1,.419-.152l0-.087c0-.132,0-.265-.007-.4l0-.137a1.126,1.126,0,0,1,.221-.825A.821.821,0,0,1-124.009-.253Zm-.187.7a.535.535,0,0,0-.04.278c0,.041,0,.081,0,.123V.976c0,.043,0,.086,0,.13q0,.159,0,.319h.077l.718.006.369,0,.425,0h.133a.909.909,0,0,1,.755.315l.083.084.084.087a7.308,7.308,0,0,0,.542.518.5.5,0,0,1,.12.132.463.463,0,0,0,.338.213c.164.011.328.006.492,0h.182c.159,0,.318,0,.476-.006l.487-.005q.477,0,.954-.012,0-.436.006-.872,0-.2,0-.4t0-.391q0-.074,0-.149c0-.07,0-.139,0-.209,0-.04,0-.079,0-.12a.352.352,0,0,0-.122-.248.974.974,0,0,0-.341-.041h-2.14l-1.046,0H-123.9A.533.533,0,0,0-124.2.446Zm-.653,1.6c0,.074,0,.149,0,.223v.071q0,.119,0,.239,0,.085,0,.17,0,.232,0,.464t0,.484q0,.459,0,.918,0,.62,0,1.24,0,.977,0,1.954h2.538l.036-1.2c.109-.254.109-.254.182-.323a1.373,1.373,0,0,1,.5-.054h1.067c.336,0,.336,0,.462.124.109.254.109.254.145,1.45h2.538V3.382l-2.244-.014-.319,0h-.213l-.323,0h-.1a.913.913,0,0,1-.678-.271L-121.346,3q-.236-.229-.467-.464L-122,2.351l-.082-.083-.085-.082-.085-.1a1.039,1.039,0,0,0-.684-.1h-.162l-.339,0-.435,0-.415,0h-.08l-.223,0h-.129C-124.81,1.994-124.81,1.994-124.849,2.041Zm-3.071,3.227a1,1,0,0,0-.128.6c0,.031,0,.062,0,.093q0,.155,0,.309,0,.113,0,.225,0,.3,0,.6,0,.283,0,.566,0,.828,0,1.657c0,1.234,0,2.467,0,3.738h13.848c0-1.232,0-2.464.007-3.734,0-.389,0-.778,0-1.179,0-.349,0-.349,0-.7q0-.233,0-.466,0-.3,0-.595,0-.109,0-.218c0-.1,0-.2,0-.295,0-.028,0-.057,0-.086a.982.982,0,0,0-.181-.6,1.285,1.285,0,0,0-1.04-.322h-.746l-.621,0c0,.038,0,.075,0,.114q0,.531-.006,1.062,0,.273,0,.546t0,.527q0,.1,0,.2c0,.094,0,.188,0,.282v.083a.913.913,0,0,1-.165.519.623.623,0,0,1-.512.189h-.08l-.264,0-.183,0-.481.006-.491.006-.963.011v.8l.393.017c.261.014.261.014.369.091a.622.622,0,0,1,.109.471,1.986,1.986,0,0,1-.313.395l-.1.1-.107.107-.111.111-.232.231-.3.3-.228.228-.109.109-.153.152-.088.088a.546.546,0,0,1-.4.114.827.827,0,0,1-.435-.288l-.05-.05-.162-.163-.114-.113-.237-.237-.3-.3-.234-.234-.112-.112-.156-.157-.09-.09a.516.516,0,0,1-.112-.4.435.435,0,0,1,.117-.254.808.808,0,0,1,.462-.1l.3-.014v-.8h-.246l-.806-.006-.489,0-.472,0h-.18l-.252,0h-.145a.6.6,0,0,1-.431-.275.918.918,0,0,1-.1-.507v-.09q0-.147,0-.295,0-.1,0-.2,0-.269-.006-.538t-.006-.549q-.006-.539-.011-1.077l-.743,0h-.253l-.364,0h-.113A1.149,1.149,0,0,0-127.919,5.268Zm6.225,1.558v.247q0,.4-.006.807,0,.245,0,.489t0,.472q0,.09,0,.18c0,.084,0,.168,0,.253V9.35a.465.465,0,0,1-.165.376,1.58,1.58,0,0,1-.471.109c.144.172.294.335.453.493l.065.065.2.2.138.138.337.336a.826.826,0,0,0,.265-.183l.068-.068.072-.073.075-.075.156-.157.24-.241.152-.152.073-.073.067-.067.059-.06c.046-.041.046-.041.042-.083l-.081-.011c-.357-.055-.357-.055-.5-.207a.707.707,0,0,1-.044-.33v-.08q0-.132,0-.264,0-.091,0-.183,0-.24-.006-.481t-.006-.491q-.006-.481-.011-.963Zm-6.344,6.852a1.552,1.552,0,0,0,.216,1.209l.071.058.071.06a.768.768,0,0,0,.476.133h5.283l1.826,0h4.85a1.063,1.063,0,0,0,.81-.233l.059-.071.061-.07c.222-.337.125-.686.125-1.095Zm5.474,2.066c-.118.7-.118.7-.227,1.4l-.019.126-.018.121-.016.105a1.018,1.018,0,0,0-.011.237h3.48c-.045-.4-.091-.8-.153-1.2q-.018-.119-.036-.238c-.042-.277-.042-.277-.1-.551Z" transform="translate(128.674 0.262)" fill="#fff"/>
</svg>
