<svg xmlns="http://www.w3.org/2000/svg" width="14.395" height="18.898" viewBox="0 0 14.395 18.898">
  <g id="google-docs" transform="translate(-60.9 512)">
    <path id="Path_2113" data-name="Path 2113" d="M62.177-511.948a1.572,1.572,0,0,0-.779.446,1.577,1.577,0,0,0-.454.823c-.059.28-.059,15.975,0,16.252a1.684,1.684,0,0,0,1.28,1.281c.277.059,11.469.059,11.75,0a1.7,1.7,0,0,0,1.281-1.281c.03-.14.041-1.923.041-6.115v-5.923H73.284c-1.358,0-2.07-.015-2.2-.041a1.694,1.694,0,0,1-1.281-1.281c-.026-.133-.041-.845-.041-2.2V-512l-3.7,0C63.232-511.993,62.317-511.982,62.177-511.948Zm9.5,7.808a.583.583,0,0,1,.3.48.582.582,0,0,1-.3.48c-.14.074-.21.074-3.583.074H64.66l-.148-.081a.534.534,0,0,1-.007-.937l.144-.089h3.443C71.469-504.214,71.539-504.214,71.679-504.14Zm0,2.214a.582.582,0,0,1,.3.48.583.583,0,0,1-.3.48c-.14.074-.21.074-3.583.074H64.66l-.148-.081a.534.534,0,0,1-.007-.937l.144-.089h3.443C71.469-502,71.539-502,71.679-501.926Zm0,2.214a.582.582,0,0,1,.3.48.583.583,0,0,1-.3.48c-.14.074-.21.074-3.583.074H64.66l-.148-.081a.534.534,0,0,1-.007-.937l.144-.089h3.443C71.469-499.785,71.539-499.785,71.679-499.712ZM69.465-497.5a.583.583,0,0,1,.3.48.583.583,0,0,1-.3.48c-.14.07-.214.074-2.476.074H64.66l-.148-.081a.534.534,0,0,1-.007-.937l.144-.089h2.336C69.255-497.571,69.325-497.568,69.465-497.5Z" fill="#ed1c24"/>
    <path id="Path_2114" data-name="Path 2114" d="M331-501.662c0,1.731,0,1.845.07,1.974a.6.6,0,0,0,.218.221l.148.081,1.83-.007,1.83-.011-2.048-2.048L331-503.5Z" transform="translate(-260.133 -8.186)" fill="#ed1c24"/>
  </g>
</svg>
