<svg xmlns="http://www.w3.org/2000/svg" width="16.86" height="16.867" viewBox="0 0 16.86 16.867">
  <g id="shift" transform="translate(-0.064 511.975)">
    <path id="Path_3114" data-name="Path 3114" d="M2.566-511.94A3.044,3.044,0,0,0,.26-510.059a2.973,2.973,0,0,0,1.5,3.736,2.708,2.708,0,0,0,1.282.287,2.88,2.88,0,0,0,2.122-.9,3.056,3.056,0,0,0,.843-2.277,3,3,0,0,0-2-2.6A2.988,2.988,0,0,0,2.566-511.94Zm1.17.735a2.213,2.213,0,0,1,.926.563,2.31,2.31,0,0,1,.267,2.975l-.1.138-.053-.171a1.726,1.726,0,0,0-.458-.751,2.9,2.9,0,0,0-.293-.267l-.076-.046.109-.2a.87.87,0,0,0,.119-.478.953.953,0,0,0-.059-.468,1.179,1.179,0,0,0-.586-.626.794.794,0,0,0-.484-.105,1.036,1.036,0,0,0-.692.217,1.118,1.118,0,0,0-.458.959.819.819,0,0,0,.119.481l.115.227-.191.138a1.779,1.779,0,0,0-.623.873.8.8,0,0,1-.066.161c-.04.043-.254-.3-.362-.577a2.251,2.251,0,0,1,.089-1.875,1.747,1.747,0,0,1,.435-.6,1.748,1.748,0,0,1,.6-.435,2.069,2.069,0,0,1,1.12-.241A2.07,2.07,0,0,1,3.736-511.205Zm-.488,1.272a.486.486,0,0,1-.221.923.486.486,0,0,1-.372-.794A.453.453,0,0,1,3.248-509.933Zm.214,1.68a1.168,1.168,0,0,1,.524.415,1.143,1.143,0,0,1,.208.613l.023.221-.165.082a2.33,2.33,0,0,1-1.977.02l-.211-.1.02-.231a1.227,1.227,0,0,1,.619-.975A1.208,1.208,0,0,1,3.462-508.253Z" transform="translate(0)" fill="#fff"/>
    <path id="Path_3115" data-name="Path 3115" d="M251.211-451.9a.4.4,0,0,0-.211.287.433.433,0,0,0,.161.306c.043.023.932.033,2.629.033,1.776,0,2.6.013,2.7.036a.786.786,0,0,1,.441.441c.04.145.053,4.333.013,4.333a1.989,1.989,0,0,1-.244-.214c-.188-.185-.237-.214-.339-.214a.31.31,0,0,0-.306.435,7.167,7.167,0,0,0,1.153,1.13.4.4,0,0,0,.165.007,6.1,6.1,0,0,0,.626-.577c.517-.521.55-.563.55-.679a.317.317,0,0,0-.33-.316c-.125,0-.158.02-.366.221l-.227.217v-2.112c0-1.427-.013-2.168-.036-2.287a1.353,1.353,0,0,0-1.044-1.044C256.331-451.935,251.32-451.939,251.211-451.9Z" transform="translate(-242.668 -58.07)" fill="#fff"/>
    <path id="Path_3116" data-name="Path 3116" d="M163.049-340.861a1.031,1.031,0,0,0-.333.237.921.921,0,0,0-.293.768v.257h-.257a.921.921,0,0,0-.768.293c-.3.3-.3.28-.287,1.918.01,1.357.013,1.4.079,1.529a1.124,1.124,0,0,0,.53.478,11.117,11.117,0,0,0,2.514.066,11.117,11.117,0,0,0,2.514-.066,1.124,1.124,0,0,0,.53-.478c.066-.128.069-.171.079-1.529.01-1.638.013-1.615-.29-1.921a.937.937,0,0,0-.781-.29h-.241v-.257a.921.921,0,0,0-.293-.768c-.29-.287-.32-.293-1.532-.29A4.822,4.822,0,0,0,163.049-340.861Zm2.244.7c.089.089.1.115.1.329v.234h-2.306v-.234c0-.214.007-.241.1-.329l.1-.1H165.2Zm1.262,1.265c.056.04.056.053.01.145a1.118,1.118,0,0,1-.428.379L166-338.3h-3.525l-.178-.1c-.178-.1-.432-.353-.432-.432a.107.107,0,0,1,.059-.076c.036-.023.843-.033,2.316-.036A18.235,18.235,0,0,1,166.554-338.9Zm-4.527,1.1a1.865,1.865,0,0,0,.471.145l.254.043v.217c0,.26.069.379.25.412.257.046.409-.119.409-.445v-.2h1.647v.2c0,.326.152.491.409.445.181-.033.25-.152.25-.412v-.217l.254-.043a2.158,2.158,0,0,0,.712-.264,7.839,7.839,0,0,1,.023.866v.88l-.1.1-.1.1h-4.56l-.1-.1-.1-.1v-.88a6.554,6.554,0,0,1,.026-.866Z" transform="translate(-155.738 -165.425)" fill="#fff"/>
    <path id="Path_3117" data-name="Path 3117" d="M32.57-260.512c-.537.537-.57.577-.57.7a.317.317,0,0,0,.329.316c.125,0,.158-.02.366-.221l.227-.217v2.112c0,1.417.013,2.168.036,2.287a1.349,1.349,0,0,0,1.068,1.048c.142.026.936.033,2.761.026l2.567-.01.1-.109a.371.371,0,0,0,.1-.191.422.422,0,0,0-.161-.31c-.043-.023-.932-.033-2.629-.033-1.776,0-2.6-.013-2.7-.036a.786.786,0,0,1-.442-.441c-.04-.145-.053-4.333-.013-4.333a1.986,1.986,0,0,1,.244.214c.188.184.237.214.339.214a.312.312,0,0,0,.316-.415,8.734,8.734,0,0,0-1.094-1.12C33.209-261.141,33.176-261.122,32.57-260.512Z" transform="translate(-30.884 -242.624)" fill="#fff"/>
    <path id="Path_3118" data-name="Path 3118" d="M333.895-180.576a3.073,3.073,0,0,0-2.293,1.631,3.209,3.209,0,0,0-.306,1.516,3.006,3.006,0,0,0,2.557,2.754,3.084,3.084,0,0,0,1.687-.26,2.721,2.721,0,0,0,.824-.59,2.963,2.963,0,0,0-.82-4.774A3.081,3.081,0,0,0,333.895-180.576Zm.876.7a2.341,2.341,0,0,1,1.137.636,2.3,2.3,0,0,1,.567.926,1.683,1.683,0,0,1,.089.675,1.792,1.792,0,0,1-.072.659c-.115.369-.415.893-.448.787-.007-.026-.04-.122-.069-.214a1.806,1.806,0,0,0-.662-.87l-.135-.1.119-.237a.853.853,0,0,0,.119-.507.825.825,0,0,0-.109-.484,1.179,1.179,0,0,0-.626-.586.953.953,0,0,0-.468-.059,1.05,1.05,0,0,0-.956.593.886.886,0,0,0-.125.474,1.014,1.014,0,0,0,.168.692l.069.089-.115.086a1.965,1.965,0,0,0-.708.952l-.072.211-.082-.112a2.97,2.97,0,0,1-.372-.817,2.746,2.746,0,0,1,0-1.087A2.34,2.34,0,0,1,334.771-179.88Zm-.237,1.348a.488.488,0,0,1,.175.217.432.432,0,0,1-.1.54.436.436,0,0,1-.537.105.465.465,0,0,1-.287-.468c0-.161.01-.184.145-.316s.155-.145.32-.145A.551.551,0,0,1,334.534-178.533Zm.264,1.713a1.132,1.132,0,0,1,.623.965l.02.241-.194.086a2.39,2.39,0,0,1-1.348.194,2.48,2.48,0,0,1-.774-.283c-.026-.033-.03-.109,0-.293a1.143,1.143,0,0,1,.715-.962.868.868,0,0,1,.474-.069A.872.872,0,0,1,334.8-176.82Z" transform="translate(-320.311 -320.462)" fill="#fff"/>
  </g>
</svg>
