<svg xmlns="http://www.w3.org/2000/svg" width="18.983" height="19.021" viewBox="0 0 18.983 19.021">
  <g id="monitor" transform="translate(-8.5 504)">
    <path id="Path_2833" data-name="Path 2833" d="M14.1-503.9l-.1.092v4.414H13.7v-2.266l-.1-.092c-.092-.1-.1-.1-.825-.1s-.732,0-.825.1l-.1.092v2.263l-1.235.011-1.239.012-.242.13a1.116,1.116,0,0,0-.537.556l-.1.2v9.856l.1.2a1.116,1.116,0,0,0,.537.556l.242.13,3.325.012,3.321.012-.2.6-.2.6-.583.019c-.736.023-.732.023-.732.56v.36H11.123l-.092.1a.282.282,0,0,0,0,.422l.092.1H24.86l.092-.1a.282.282,0,0,0,0-.422l-.092-.1H21.673v-.36c0-.537,0-.537-.732-.56l-.583-.019-.2-.6-.2-.6,3.321-.012,3.325-.012.242-.13a1.116,1.116,0,0,0,.537-.556l.1-.2V-498.5l-.1-.2a1.1,1.1,0,0,0-.533-.552,1.077,1.077,0,0,0-.591-.146l-.353-.019.184-.268a2.774,2.774,0,0,0,.13-2.93,3.28,3.28,0,0,0-1.074-1.055,2.434,2.434,0,0,0-1.342-.314,2.4,2.4,0,0,0-1.35.341,3.287,3.287,0,0,0-1.028,1.028,2.773,2.773,0,0,0,.134,2.934l.188.276H17.992v-3.187l-.1-.092c-.092-.1-.1-.1-.825-.1s-.732,0-.825.1l-.1.092v3.187h-.307v-4.414l-.1-.092c-.092-.1-.1-.1-.825-.1S14.191-504,14.1-503.9Zm1.131,4.046v3.528h-.614v-7.056h.614Zm8.284-2.5v.986l-.709.709c-.575.575-.717.7-.752.652a3.41,3.41,0,0,1-.288-.614,2.555,2.555,0,0,1,0-1.227,2.293,2.293,0,0,1,.932-1.216,2.421,2.421,0,0,1,.732-.276l.084,0Zm1.009-.9a1.971,1.971,0,0,1,.817.514,2.009,2.009,0,0,1,.5.805c.153.43.222.4-.813.4h-.9v-.9C24.128-503.482,24.093-503.413,24.523-503.26Zm-7.145,4.015v2.915h-.614v-5.829h.614Zm-4.3.46v2.454h-.614v-4.909h.614Zm12.847-2.071a2.737,2.737,0,0,1-.284.748,2.411,2.411,0,0,1-.775.736,1.89,1.89,0,0,1-1.051.261,1.873,1.873,0,0,1-1.093-.291l-.184-.119.706-.706.706-.706h.986C25.9-500.932,25.93-500.928,25.93-500.855Zm-14.074,3.3v1.227h-.307v-1.96l-.1-.092c-.092-.1-.1-.1-.825-.1s-.732,0-.825.1l-.1.092v2.385l.1.092.092.1H19.951l.092-.1.1-.092v-2.385l-.1-.092c-.092-.1-.1-.1-.825-.1s-.732,0-.825.1l-.1.092v1.96h-.307v-2.454h4.552l.242.1a3.169,3.169,0,0,0,1.035.207,3.169,3.169,0,0,0,1.035-.207,1.848,1.848,0,0,1,.89-.1c.736,0,.84.027,1.012.253l.111.142.012,4.1.008,4.1H9.094v-4.042c0-2.773.012-4.08.042-4.153a.778.778,0,0,1,.123-.2c.169-.184.238-.192,1.457-.2h1.139Zm2.148,0v1.227H13.7v-2.454H14Zm2.148,0v1.227h-.307v-2.454h.307Zm-5.216.46v.767h-.614v-1.534h.614Zm8.59,0v.767h-.614v-1.534h.614Zm7.355,7.935c-.012.453-.046.541-.276.71l-.1.081H9.489l-.142-.111c-.2-.153-.253-.3-.253-.732v-.364H26.9Zm-7.371,2.044.2.606H16.27l.192-.568c.1-.311.2-.587.207-.614A5.261,5.261,0,0,1,18-487.732l1.312.012Zm1.549,1.373v.153H14.924v-.307H21.06Z" transform="translate(0 0)" fill="#fff"/>
    <path id="Path_2834" data-name="Path 2834" d="M336.7-351.3c-.625.621-.7.713-.7.825a.32.32,0,0,0,.311.314c.111,0,.2-.077.744-.614l.617-.614h2.742l.092-.1a.3.3,0,0,0,.1-.211.3.3,0,0,0-.1-.211l-.092-.1H337.4Z" transform="translate(-314.94 -146.171)" fill="#fff"/>
    <path id="Path_2835" data-name="Path 2835" d="M40.1-279.9a.3.3,0,0,0-.1.211.3.3,0,0,0,.1.211l.092.1H43.8l.092-.1a.282.282,0,0,0,0-.422L43.8-280H40.188Z" transform="translate(-30.292 -215.41)" fill="#fff"/>
    <path id="Path_2836" data-name="Path 2836" d="M152.1-279.9a.3.3,0,0,0-.1.211.3.3,0,0,0,.1.211c.081.084.127.1.364.1s.284-.012.364-.1a.3.3,0,0,0,.1-.211.3.3,0,0,0-.1-.211c-.081-.084-.127-.1-.364-.1S152.176-279.988,152.1-279.9Z" transform="translate(-137.997 -215.41)" fill="#fff"/>
    <path id="Path_2837" data-name="Path 2837" d="M50.431-271.794a1.264,1.264,0,0,0-.56.564c-.031.119-.219.272-1.645,1.346l-1.611,1.212-.176-.161a.852.852,0,0,0-1.25.042l-.2.2-1.576-.656-1.576-.656-.077-.165a.983.983,0,0,0-.844-.548A.958.958,0,0,0,40-269.7a.836.836,0,0,0,.288.64.835.835,0,0,0,1.273,0l.2-.2,1.576.656,1.576.656.077.165a.942.942,0,0,0,1.12.5,1.2,1.2,0,0,0,.583-.568c.031-.119.219-.272,1.645-1.346l1.611-1.212.176.161a.859.859,0,0,0,1.235-.023l.184-.18,1.607.94c1.484.867,1.607.943,1.634,1.055a.857.857,0,0,0,.222.318.849.849,0,0,0,.92.242,1.139,1.139,0,0,0,.591-.591.84.84,0,0,0-.242-.917.84.84,0,0,0-1.258-.015l-.184.18-1.607-.94c-1.484-.867-1.607-.943-1.634-1.055a1.138,1.138,0,0,0-.575-.56A1.066,1.066,0,0,0,50.431-271.794Zm.518.66a.3.3,0,0,1-.211.518.324.324,0,0,1-.307-.307.324.324,0,0,1,.307-.307A.3.3,0,0,1,50.949-271.135Zm-9.818,1.227a.3.3,0,0,1,.1.211.3.3,0,0,1-.1.211.3.3,0,0,1-.518-.211A.324.324,0,0,1,40.92-270,.3.3,0,0,1,41.131-269.907Zm14.726.92a.3.3,0,0,1-.211.518.324.324,0,0,1-.307-.307.324.324,0,0,1,.307-.307A.3.3,0,0,1,55.858-268.987Zm-9.818.614a.3.3,0,0,1-.211.518.3.3,0,0,1-.211-.1.3.3,0,0,1-.1-.211.3.3,0,0,1,.1-.211.3.3,0,0,1,.211-.1A.3.3,0,0,1,46.04-268.373Z" transform="translate(-30.292 -223.259)" fill="#fff"/>
    <path id="Path_2838" data-name="Path 2838" d="M352.1-191.9a.3.3,0,0,0-.1.211.3.3,0,0,0,.1.211c.088.092.107.1.671.1s.583,0,.671-.1a.3.3,0,0,0,.1-.211.3.3,0,0,0-.1-.211c-.088-.092-.107-.1-.671-.1S352.184-192,352.1-191.9Z" transform="translate(-330.327 -300.035)" fill="#fff"/>
    <path id="Path_2839" data-name="Path 2839" d="M320.1-167.9a.3.3,0,0,0-.1.211.3.3,0,0,0,.1.211l.092.1h2.385l.092-.1a.3.3,0,0,0,.1-.211.3.3,0,0,0-.1-.211l-.092-.1h-2.385Z" transform="translate(-299.554 -323.114)" fill="#fff"/>
    <path id="Path_2840" data-name="Path 2840" d="M40.1-119.9a.3.3,0,0,0-.1.211.3.3,0,0,0,.1.211l.092.1h2.079l.092-.1a.282.282,0,0,0,0-.422l-.092-.1H40.188Z" transform="translate(-30.292 -369.274)" fill="#fff"/>
    <path id="Path_2841" data-name="Path 2841" d="M112.1-119.9a.3.3,0,0,0-.1.211.3.3,0,0,0,.1.211c.081.084.127.1.364.1s.284-.012.364-.1a.3.3,0,0,0,.1-.211.3.3,0,0,0-.1-.211c-.081-.084-.127-.1-.364-.1S112.176-119.988,112.1-119.9Z" transform="translate(-99.531 -369.274)" fill="#fff"/>
  </g>
</svg>
