<svg xmlns="http://www.w3.org/2000/svg" width="9.661" height="15.686" viewBox="0 0 9.661 15.686">
  <g id="mobile-_1_" transform="translate(-137.99 447.715)">
    <path id="Path_2712" data-name="Path 2712" d="M138.961-447.682a1.247,1.247,0,0,0-.659.405c-.336.377-.311-.217-.311,7.433,0,6.717,0,6.811.082,7.028a1.254,1.254,0,0,0,.577.663l.221.123h7.9l.221-.123a1.254,1.254,0,0,0,.577-.663c.082-.217.082-.311.082-7.028,0-5.972-.008-6.832-.061-7.016a1.4,1.4,0,0,0-.684-.749l-.217-.1-3.786-.008C140.774-447.719,139.051-447.7,138.961-447.682Zm1.887,1.019a5.042,5.042,0,0,0,.282.622c.061.07.2.074,1.691.074s1.629,0,1.691-.074a5.041,5.041,0,0,0,.282-.622l.221-.553.716-.012a4.638,4.638,0,0,1,.868.033.919.919,0,0,1,.5.438c.049.111.057,1.273.057,6.684v6.549h-8.678v-6.545c0-4.527.012-6.582.045-6.664a.86.86,0,0,1,.426-.426c.143-.07.254-.078.917-.065l.757.008Zm3.61-.524a3.717,3.717,0,0,1-.139.381l-.131.327h-2.734l-.131-.327a3.722,3.722,0,0,1-.139-.381,7.794,7.794,0,0,1,1.637-.049A7.794,7.794,0,0,1,144.458-447.187ZM147.119-433a.832.832,0,0,1-.348.4l-.164.094h-7.573l-.164-.094a.832.832,0,0,1-.348-.4c0-.02,1.936-.037,4.3-.037S147.119-433.016,147.119-433Z" transform="translate(0 0)" fill="#ed1c24"/>
    <path id="Path_2713" data-name="Path 2713" d="M163.082-391.918c-.082.082-.082.135-.082,5.608v5.53l.1.1.1.1h7.212l.1-.1.1-.1v-5.53c0-5.473,0-5.526-.082-5.608S170.4-392,166.807-392,163.164-392,163.082-391.918Zm7.04,5.628v5.219h-6.631v-10.438h6.631Z" transform="translate(-23.986 -53.435)" fill="#ed1c24"/>
    <path id="Path_2714" data-name="Path 2714" d="M190.07-366.926c-.057.061-.07.172-.07.655,0,.528.008.589.082.663s.135.082,2.62.082,2.538,0,2.62-.082.082-.135.082-.667-.008-.6-.074-.655a11.355,11.355,0,0,0-2.636-.07C190.266-367,190.131-367,190.07-366.926Zm4.842.663v.246h-4.421v-.491h4.421Z" transform="translate(-49.881 -77.412)" fill="#ed1c24"/>
    <path id="Path_2715" data-name="Path 2715" d="M192.1-318.87a2.735,2.735,0,0,0-1.715,1.392,2.641,2.641,0,0,0-.016,2.395,2.669,2.669,0,0,0,1.621,1.4,2.048,2.048,0,0,0,.8.106,2.048,2.048,0,0,0,.8-.106,2.669,2.669,0,0,0,1.621-1.4,2.692,2.692,0,0,0-1.748-3.786A2.932,2.932,0,0,0,192.1-318.87Zm1.24.471a2.225,2.225,0,0,1,1.646,2.006,2.21,2.21,0,0,1-1.789,2.3,2.216,2.216,0,0,1-2.354-1.134,2.2,2.2,0,0,1,1.351-3.152A2.579,2.579,0,0,1,193.337-318.4Z" transform="translate(-49.964 -123.495)" fill="#ed1c24"/>
    <path id="Path_2716" data-name="Path 2716" d="M212.9-298.779a1.908,1.908,0,0,0-1.265,1.019,1.25,1.25,0,0,0-.139.782,1.245,1.245,0,0,0,.151.8,1.837,1.837,0,0,0,1.134.978,1.84,1.84,0,0,0,2.206-.978,1.245,1.245,0,0,0,.151-.8,1.25,1.25,0,0,0-.139-.782,1.9,1.9,0,0,0-1.281-1.023A1.5,1.5,0,0,0,212.9-298.779Zm.97.565a1.434,1.434,0,0,1,.659.606.956.956,0,0,1,.119.626,1.152,1.152,0,0,1-.09.594,1.638,1.638,0,0,1-.647.647.962.962,0,0,1-.594.111.955.955,0,0,1-.594-.111,1.583,1.583,0,0,1-.643-.639,1.153,1.153,0,0,1-.094-.6,1.025,1.025,0,0,1,.094-.581A1.371,1.371,0,0,1,213.874-298.214Z" transform="translate(-70.501 -142.784)" fill="#ed1c24"/>
    <path id="Path_2717" data-name="Path 2717" d="M236.515-268.589a3.944,3.944,0,0,0-.458.413l-.4.389-.164-.147a.618.618,0,0,0-.25-.151.3.3,0,0,0-.246.25,1.559,1.559,0,0,0,.651.651c.082,0,.233-.123.651-.544a2.755,2.755,0,0,0,.54-.626A.255.255,0,0,0,236.515-268.589Z" transform="translate(-93.039 -171.783)" fill="#ed1c24"/>
    <path id="Path_2718" data-name="Path 2718" d="M190.07-174.926c-.057.061-.07.172-.07.655,0,.528.008.589.082.663s.135.082,2.62.082,2.538,0,2.62-.082.082-.135.082-.667-.008-.6-.074-.655a11.355,11.355,0,0,0-2.636-.07C190.266-175,190.131-175,190.07-174.926Zm4.842.663v.246h-4.421v-.491h4.421Z" transform="translate(-49.881 -261.552)" fill="#ed1c24"/>
  </g>
</svg>
