<svg xmlns="http://www.w3.org/2000/svg" width="32.928" height="37.765" viewBox="0 0 32.928 37.765">
  <g id="smartphone" transform="translate(-39.486 -7.372)">
    <path id="Path_3474" data-name="Path 3474" d="M-50.248-.327h.861l.475,0,1.289,0h.807l2.817,0q1.31,0,2.62-.006,1.127,0,2.254,0,.672,0,1.344,0,.633,0,1.266,0l.462,0a4.663,4.663,0,0,1,3.286.959l.192.144a4.076,4.076,0,0,1,1.341,2.518c0,.171,0,.34,0,.511v.187c0,.2,0,.39,0,.585q0,.2,0,.4,0,.487-.007.973l.143.011a6.675,6.675,0,0,1,1.262.222l.176.05a11.545,11.545,0,0,1,4.648,2.756l.2.189a11.476,11.476,0,0,1,3.361,7.889,11.5,11.5,0,0,1-3.132,8.194l-.205.213-.182.2a10.758,10.758,0,0,1-5.9,3.07q-.19,0-.38,0c0,.064,0,.127,0,.193q.009.905.014,1.81,0,.465.007.93,0,.45.006.9,0,.171,0,.341a4.511,4.511,0,0,1-1.11,3.218,4.371,4.371,0,0,1-3.016,1.288H-36.2l-.476,0-1.292,0h-.808l-2.821,0q-1.313,0-2.626,0-1.129,0-2.257,0l-1.347,0q-.634,0-1.268,0h-.464a5.1,5.1,0,0,1-2.271-.342l-.253-.113a4.518,4.518,0,0,1-2.181-2.714,3.2,3.2,0,0,1-.092-.832c0-.052,0-.1,0-.159,0-.175,0-.35,0-.525q0-.191,0-.381,0-.523,0-1.046,0-.564,0-1.129,0-1.105,0-2.211,0-.9,0-1.8,0-2.548,0-5.1c0-.092,0-.183,0-.278s0-.183,0-.278q0-2.229,0-4.457,0-2.289,0-4.578,0-1.285,0-2.57,0-1.094,0-2.188,0-.558,0-1.116,0-.511,0-1.023,0-.184,0-.369A4.583,4.583,0,0,1-53.262.961,4.375,4.375,0,0,1-50.248-.327Zm-2.193,2.376a4.744,4.744,0,0,0-.694,3.073q0,.18,0,.361,0,.494,0,.988,0,.533,0,1.067,0,1.045,0,2.089,0,.849,0,1.7,0,2.409,0,4.818c0,.087,0,.173,0,.262s0,.173,0,.263q0,2.106,0,4.213,0,2.164,0,4.327,0,1.214,0,2.429,0,1.034,0,2.068,0,.527,0,1.055,0,.483,0,.967,0,.174,0,.348a4.235,4.235,0,0,0,.989,3.242,3.7,3.7,0,0,0,2.69.849h5.606l2.351,0h4.778a4.471,4.471,0,0,0,3.429-.988,4.107,4.107,0,0,0,.846-3.059c0-.094,0-.187,0-.283q0-.446,0-.892,0-.3,0-.606,0-.741,0-1.483h-1.215c0,.187,0,.187,0,.378q0,.7-.014,1.4,0,.3,0,.6,0,.435-.009.87c0,.089,0,.178,0,.27a2.588,2.588,0,0,1-.73,1.95,2.556,2.556,0,0,1-1.667.552h-.775l-.428,0-1.16,0h-.725l-2.532,0q-1.179,0-2.358,0-1.013,0-2.026,0l-1.209,0q-.569,0-1.138,0h-.417A3.393,3.393,0,0,1-51.1,34.39a2.411,2.411,0,0,1-.755-1.782v-.15c0-.166,0-.332,0-.5q0-.18,0-.361,0-.5,0-.99,0-.534,0-1.068,0-1.046,0-2.093,0-.851,0-1.7,0-2.411,0-4.823c0-.087,0-.173,0-.263s0-.174,0-.263q0-2.109,0-4.219,0-2.166,0-4.332,0-1.216,0-2.432,0-1.035,0-2.071,0-.528,0-1.056,0-.484,0-.968,0-.175,0-.349a3.109,3.109,0,0,1,.514-2.036,2.508,2.508,0,0,1,1.907-.759h.556c.192,0,.383,0,.575,0h.365l.173,0c.389,0,.389,0,.581.124a.8.8,0,0,1,.109.472l.005.2,0,.208A1.94,1.94,0,0,0-46.82,4.4a2.055,2.055,0,0,0,1.085.173h2.414q.652,0,1.3,0h1.483q.336,0,.672,0l.2,0a1.611,1.611,0,0,0,.971-.258A2.559,2.559,0,0,0-38.5,2.97c0-.066,0-.132.006-.2s0-.12,0-.182a.606.606,0,0,1,.109-.293,1.267,1.267,0,0,1,.743-.128h.55c.188,0,.375,0,.563,0a3.1,3.1,0,0,1,2.039.513,2.909,2.909,0,0,1,.783,2.212c0,.085.006.17.009.257q.011.313.02.626h1.215c.073-2.18.073-2.18-.969-4.023A3.7,3.7,0,0,0-36.122.9h-5.607l-2.351,0h-4.778C-50.243.886-51.448.959-52.441,2.048Zm2.056,1.728a2.218,2.218,0,0,0-.328,1.279v.3q0,.162,0,.323t0,.346q0,.474,0,.949,0,.512,0,1.024,0,1,0,2,0,.815,0,1.63c0,.077,0,.155,0,.234q0,.236,0,.471,0,2.21,0,4.419,0,2.021,0,4.042,0,2.076,0,4.151,0,1.165,0,2.33,0,.992,0,1.984,0,.506,0,1.012,0,.464,0,.927,0,.167,0,.335a2.713,2.713,0,0,0,.354,1.779,2.4,2.4,0,0,0,1.835.422l.256,0,.622-.007.006-.228a2.267,2.267,0,0,1,.5-1.651,1.883,1.883,0,0,1,1.476-.5l.208,0,.681,0,.474,0h.994q.636,0,1.271,0,.49,0,.98,0l.469,0c.219,0,.438,0,.657,0l.194,0a1.865,1.865,0,0,1,1.286.476l.1.129.106.128a2.041,2.041,0,0,1,.293,1.116l.009.159c.007.129.013.258.02.387.29.007.579.011.869.014l.246.006A2.282,2.282,0,0,0-35.3,33.4a2.344,2.344,0,0,0,.426-1.773c0-.084,0-.167,0-.253q0-.4,0-.8,0-.271,0-.542,0-.662-.007-1.324l-.136-.032-.621-.146-.214-.05A11.274,11.274,0,0,1-41.2,25.521l-.179-.165A11.324,11.324,0,0,1-44.611,17.6a11.508,11.508,0,0,1,3.137-8.2l.2-.208.165-.179a10.324,10.324,0,0,1,2.874-2.024l.144-.074a12.364,12.364,0,0,1,3.2-.99,3.207,3.207,0,0,0-.326-2.17A2,2,0,0,0-36.75,3.33l-.168,0-.406.007c0,.075,0,.15-.006.228a2.267,2.267,0,0,1-.5,1.651,2,2,0,0,1-1.587.5l-.244,0-.8,0-.556,0h-1.166q-.746,0-1.492,0-.574,0-1.149,0l-.55,0c-.257,0-.513,0-.77,0l-.228,0a1.924,1.924,0,0,1-1.363-.476l-.1-.128L-47.942,5a2.041,2.041,0,0,1-.293-1.116l-.009-.16q-.011-.193-.02-.386A2.6,2.6,0,0,0-50.385,3.777Zm10.174,6.1-.174.158a10.424,10.424,0,0,0-3.016,7.21,10.457,10.457,0,0,0,2.963,7.292,10.494,10.494,0,0,0,7.4,3.118,10.672,10.672,0,0,0,7.113-2.89l.15-.134A9.84,9.84,0,0,0-22.8,18.273a12.388,12.388,0,0,0-.317-3.691l-.042-.154a10.163,10.163,0,0,0-2.085-3.8l-.156-.187a10.411,10.411,0,0,0-6.934-3.439A10.5,10.5,0,0,0-40.211,9.873Zm-6.077,22.865a1.533,1.533,0,0,0-.152.988h7.292a1.429,1.429,0,0,0-.228-1.063,1.892,1.892,0,0,0-.974-.173h-2.006q-.541,0-1.082,0H-44.67c-.186,0-.372,0-.558,0l-.165,0A1.551,1.551,0,0,0-46.288,32.738Z" transform="translate(93.865 7.726)" fill="#ed1c24"/>
    <path id="Path_3475" data-name="Path 3475" d="M-48.651-.434a1.68,1.68,0,0,1,.285.229l.16.147q.405.387.8.784l.176.175.364.364.559.559.354.355.169.169.155.156.137.137a.857.857,0,0,1,.193.69,1.4,1.4,0,0,0,.3,1.1l.223.152a1.26,1.26,0,0,0,.684-.608,3.256,3.256,0,0,0,0-.731A3.415,3.415,0,0,1-43.333.858l.133-.2a3.507,3.507,0,0,1,2.157-1.1q.286-.005.573-.007l.2,0a2.107,2.107,0,0,1,1.426.385,1.076,1.076,0,0,1,.071.7,4.145,4.145,0,0,1-.8.851,2,2,0,0,0-.9,1.343q.012.195.028.389a1.651,1.651,0,0,0,1.127-.223c.208-.2.4-.4.592-.612l.4-.423.173-.19a.675.675,0,0,1,.546-.251.673.673,0,0,1,.494.185A3.355,3.355,0,0,1-36.8,3.972,3.766,3.766,0,0,1-38.343,6.3a3.456,3.456,0,0,1-2.174.558q-.21-.009-.42-.014l-.184-.008a.515.515,0,0,0-.388.25,2.2,2.2,0,0,0,.579.747l.132.132.433.429.3.3.791.786,1.267,1.259.444.44.27.269.125.124a1.049,1.049,0,0,1,.406.727c-.017.71-1,1.382-1.478,1.858l-.426.427-.272.271-.128.129a1.089,1.089,0,0,1-.744.42c-.736-.016-1.418-1.038-1.913-1.536L-42,13.59l-.727-.729-.744-.746-1.455-1.459a.586.586,0,0,0-.38.3c0,.1,0,.21,0,.315a3.82,3.82,0,0,1-.948,3l-.195.176-.11.111a3.307,3.307,0,0,1-2.373.82l-.2,0a2.754,2.754,0,0,1-1.269-.252,1.087,1.087,0,0,1-.275-.593,2.161,2.161,0,0,1,.849-1.093,2,2,0,0,0,.9-1.342c-.008-.13-.017-.26-.028-.389a1.7,1.7,0,0,0-1.118.215c-.2.185-.378.376-.558.578l-.373.4-.162.179a.9.9,0,0,1-.628.334.693.693,0,0,1-.489-.19,3.355,3.355,0,0,1-.318-2.274,3.766,3.766,0,0,1,1.543-2.329A3.459,3.459,0,0,1-48.7,8.11a1.018,1.018,0,0,0,.744-.155,4.128,4.128,0,0,0,.364-.412,1.445,1.445,0,0,0-.456-.608,5.094,5.094,0,0,0-.745-.017.954.954,0,0,1-.754-.289l-.16-.146q-.407-.386-.8-.783l-.176-.175-.364-.364L-51.6,4.6l-.354-.355-.169-.169-.155-.156-.137-.137a.9.9,0,0,1-.218-.709.837.837,0,0,1,.265-.451l.147-.16q.387-.405.784-.8l.175-.176.364-.364.559-.559.355-.354.169-.169.156-.155.137-.137A.915.915,0,0,1-48.651-.434Zm6.609,1.823a2.4,2.4,0,0,0-.779,1.847,2.212,2.212,0,0,0,.095.736.833.833,0,0,1-.1.685c-.137.158-.28.307-.429.454l-.137.14c-.105.107-.212.212-.319.316a1.562,1.562,0,0,0,.532.684.846.846,0,0,0,.608,0,4.738,4.738,0,0,0,.541-.527.69.69,0,0,1,.295-.233,1.969,1.969,0,0,1,.76.076,2.805,2.805,0,0,0,2.108-.5,2.911,2.911,0,0,0,.7-1.016.716.716,0,0,0-.076-.3l-.111.114-.145.147-.144.147c-.347.327-.871.217-1.321.218-.172,0-.344,0-.517.005h-.328l-.3,0A.689.689,0,0,1-41.5,4.27,2.414,2.414,0,0,1-41.633,3.1c0-.168-.006-.335-.011-.5-.014-.9-.014-.9.322-1.278q.132-.12.268-.236l.076-.152A1.665,1.665,0,0,0-42.042,1.39Zm-7.187-.047-.248.251-.132.133-.418.423-.283.285-.695.7a1.97,1.97,0,0,0,.352.539l.122.133q.28.3.564.592.148.155.292.313a2.257,2.257,0,0,0,1.508,1l.315-.005a.89.89,0,0,1,.739.221q.145.156.285.318.161.16.324.319c.2.194.393.391.588.588l.244.245.591.6a1.986,1.986,0,0,0,.627-.465l.163-.167.122-.128a2.252,2.252,0,0,0-.613-.777l-.137-.136-.433-.426-.433-.428-.27-.266c-.309-.305-.309-.305-.393-.474l.017-.237a1.751,1.751,0,0,0-.458-1.457c-.261-.268-.533-.522-.808-.776l-.335-.324c-.2-.2-.407-.39-.615-.581l-.125-.116C-48.984,1.082-49.037,1.168-49.229,1.343ZM-43.1,7.972l-.171.174-.185.187-.194.2-.2.2-.479.486a2.169,2.169,0,0,0,.56.729l.126.126.412.409.285.285.752.748.767.764,1.5,1.5a1.948,1.948,0,0,0,.6-.433l.163-.165.168-.172.172-.174.417-.425a2.188,2.188,0,0,0-.557-.729l-.125-.126-.41-.409-.284-.285-.6-.6q-.383-.382-.765-.765l-.587-.587L-42,8.625l-.394-.393-.118-.119C-42.783,7.816-42.783,7.816-43.1,7.972Zm-3.712.679-.247.254c-.517.533-.517.533-.869.546a1.184,1.184,0,0,1-.5-.085,2.637,2.637,0,0,0-1.9.38l-.151.1a2.219,2.219,0,0,0-.761,1.037.86.86,0,0,0,.076.3l.111-.114.145-.147.144-.147c.347-.327.871-.217,1.321-.218.172,0,.344,0,.517-.005h.328l.3,0a.689.689,0,0,1,.392.109,2.414,2.414,0,0,1,.129,1.168c0,.167.006.335.011.5.014.9.014.9-.322,1.278-.088.08-.177.159-.268.236l-.076.152a1.9,1.9,0,0,0,1.277-.676,2.743,2.743,0,0,0,.547-2.135l-.076-.228a.824.824,0,0,1,.111-.693,6.159,6.159,0,0,1,.55-.56.718.718,0,0,0,.142-.559,1.315,1.315,0,0,0-.574-.694C-46.629,8.437-46.629,8.437-46.809,8.651Z" transform="translate(105.495 17.576)" fill="#ed1c24"/>
    <path id="Path_3476" data-name="Path 3476" d="M0,0H6.077V1.215H0Z" transform="translate(48.033 9.85)" fill="#ed1c24"/>
    <path id="Path_3477" data-name="Path 3477" d="M0,0H1.215V1.215H0Z" transform="translate(52.895 36.589)" fill="#ed1c24"/>
    <path id="Path_3478" data-name="Path 3478" d="M0,0H1.215V1.215H0Z" transform="translate(50.464 36.589)" fill="#ed1c24"/>
    <path id="Path_3479" data-name="Path 3479" d="M0,0H1.215V1.215H0Z" transform="translate(48.033 36.589)" fill="#ed1c24"/>
  </g>
</svg>
