<svg xmlns="http://www.w3.org/2000/svg" width="20.436" height="20.443" viewBox="0 0 20.436 20.443">
  <g id="distributed-ledger" transform="translate(-9.099 502.863)">
    <path id="Path_2848" data-name="Path 2848" d="M18.849-502.781a1.467,1.467,0,0,0-1.015,1.425,1.342,1.342,0,0,0,.377.99,1.774,1.774,0,0,0,.77.48c.041,0,.054.22.054,1.168v1.172l-1.98,1.139c-1.085.625-2.009,1.172-2.046,1.209-.066.066-.075.182-.075,1.172v1.1H13.506a5.428,5.428,0,0,1-1.429-.054,1.674,1.674,0,0,0-.468-.762,1.357,1.357,0,0,0-1-.385A1.465,1.465,0,0,0,9.178-493.1a1.372,1.372,0,0,0,0,.928,1.465,1.465,0,0,0,1.425,1.023,1.357,1.357,0,0,0,1-.385,1.663,1.663,0,0,0,.468-.766,5.945,5.945,0,0,1,1.429-.05h1.429v1.1c0,.99.008,1.106.075,1.172.037.037.961.584,2.046,1.209l1.98,1.139v1.168a4.036,4.036,0,0,1-.05,1.172,1.656,1.656,0,0,0-.3.116,1.639,1.639,0,0,0-.766.828,1.644,1.644,0,0,0,.05,1.168,1.505,1.505,0,0,0,2.717,0,1.644,1.644,0,0,0,.05-1.168,1.639,1.639,0,0,0-.766-.828,1.794,1.794,0,0,0-.3-.116c-.041,0-.054-.261-.054-1.172v-1.168l1.951-1.118c1.073-.617,1.992-1.16,2.05-1.209l.1-.091v-2.2h1.429a5.945,5.945,0,0,1,1.429.05,1.658,1.658,0,0,0,.116.3,1.639,1.639,0,0,0,.828.766,1.646,1.646,0,0,0,1.176-.054,1.55,1.55,0,0,0,.712-.733,1.1,1.1,0,0,0,.128-.621,1.1,1.1,0,0,0-.128-.621,1.575,1.575,0,0,0-.721-.737,1.644,1.644,0,0,0-1.168-.05,1.639,1.639,0,0,0-.828.766,1.8,1.8,0,0,0-.116.3,5.428,5.428,0,0,1-1.429.054H23.716v-1.081a9.867,9.867,0,0,0-.037-1.147c-.021-.041-.944-.592-2.05-1.23l-2.013-1.16v-1.172c0-.907.012-1.168.054-1.168a1.674,1.674,0,0,0,.762-.468,1.357,1.357,0,0,0,.385-1,1.46,1.46,0,0,0-1.031-1.429A1.421,1.421,0,0,0,18.849-502.781Zm.895.609a.977.977,0,0,1,.348.294c.112.161.124.207.124.514s-.012.356-.12.518a.876.876,0,0,1-.77.4.886.886,0,0,1-.77-.4c-.108-.157-.12-.207-.12-.518s.012-.356.124-.518a1.041,1.041,0,0,1,.766-.41A.89.89,0,0,1,19.744-502.173Zm1.375,6.159c.949.547,1.711,1.006,1.694,1.019s-.808.476-1.756,1.023l-1.731,1-.878-.509c-.485-.278-1.28-.737-1.769-1.019l-.882-.51.24-.137,1.735-1.006c.82-.476,1.52-.866,1.557-.862S20.175-496.56,21.119-496.013Zm-3.678,2.622,1.574.911.012,2.034c0,1.118,0,2.034,0,2.034s-.712-.4-1.566-.895l-1.744-1.006-.2-.108v-4.084l.178.1C15.789-494.344,16.576-493.889,17.441-493.392Zm5.7.928v2.042l-1.727.994c-.944.547-1.74,1-1.756,1.006s-.033-.862-.029-2.021l.012-2.038,1.325-.766,1.74-1.007c.228-.133.418-.244.427-.244S23.136-493.582,23.136-492.464Zm-12.016-.944a.886.886,0,0,1,.4.77.876.876,0,0,1-.4.77.687.687,0,0,1-.514.12.706.706,0,0,1-.505-.112.988.988,0,0,1-.385-1.04,1.053,1.053,0,0,1,.464-.563A1.039,1.039,0,0,1,11.121-493.408Zm17.446,0a1.041,1.041,0,0,1,.41.766,1.041,1.041,0,0,1-.41.766c-.162.112-.207.124-.518.124s-.36-.012-.518-.12a.933.933,0,0,1-.017-1.524.678.678,0,0,1,.58-.145A.684.684,0,0,1,28.567-493.4ZM19.8-484.71a1.114,1.114,0,0,1,.3.278c.108.157.12.207.12.518s-.012.356-.124.518a1.041,1.041,0,0,1-.766.41,1.041,1.041,0,0,1-.766-.41c-.112-.161-.124-.207-.124-.518s.012-.36.12-.514a1.013,1.013,0,0,1,.514-.385A1.087,1.087,0,0,1,19.8-484.71Z" transform="translate(0 0)" fill="#fff"/>
    <path id="Path_2849" data-name="Path 2849" d="M206.967-344.457a10.241,10.241,0,0,0-.982.6.268.268,0,0,0,.083.4A16.639,16.639,0,0,0,208-342.378a17.151,17.151,0,0,0,1.98-1.1.281.281,0,0,0,.017-.393A17.36,17.36,0,0,0,208-345,7.971,7.971,0,0,0,206.967-344.457Zm1.669.435c.3.174.551.323.559.327a13.225,13.225,0,0,1-1.189.683c-.025,0-.307-.153-.63-.336l-.58-.34.323-.186.592-.344a.8.8,0,0,1,.323-.141C208.064-344.346,208.338-344.2,208.636-344.022Z" transform="translate(-188.676 -151.324)" fill="#fff"/>
    <path id="Path_2850" data-name="Path 2850" d="M178.108-271.913l-.108.083v1.151a4.824,4.824,0,0,0,.054,1.214,17.152,17.152,0,0,0,2.03,1.151.3.3,0,0,0,.186-.1c.087-.1.091-.124.091-1.222s0-1.122-.091-1.222A19.058,19.058,0,0,0,178.282-272,.393.393,0,0,0,178.108-271.913Zm1.093,1.077.58.336v1.4l-.588-.34-.592-.34-.012-.7a5.658,5.658,0,0,1,.012-.692C178.613-271.172,178.882-271.022,179.2-270.836Z" transform="translate(-161.905 -221.3)" fill="#fff"/>
    <path id="Path_2851" data-name="Path 2851" d="M278.077-271.462a10.9,10.9,0,0,0-1,.625c-.066.079-.075.2-.075,1.214,0,1.127,0,1.131.1,1.218a.34.34,0,0,0,.186.091,18.115,18.115,0,0,0,2.03-1.151,5.315,5.315,0,0,0,.05-1.214v-1.151l-.108-.083a.384.384,0,0,0-.178-.087C279.038-272,278.591-271.756,278.077-271.462Zm.7.982-.012.7-.518.3c-.286.166-.551.319-.588.344-.07.037-.075,0-.075-.663v-.7l.572-.331c.311-.182.58-.335.6-.335A4.034,4.034,0,0,1,278.773-270.48Z" transform="translate(-256.804 -221.3)" fill="#fff"/>
  </g>
</svg>
