<svg xmlns="http://www.w3.org/2000/svg" width="17.245" height="17.25" viewBox="0 0 17.245 17.25">
  <g id="dashboard-_2_" transform="translate(-67.117 445)">
    <path id="Path_2904" data-name="Path 2904" d="M68.116-444.693a1.87,1.87,0,0,0-.908.918c-.1.269-.1.288-.087,2.99l.014,2.725.119.251a1.738,1.738,0,0,0,.73.753c.383.2.639.21,3.282.2l2.488-.014.306-.146a1.656,1.656,0,0,0,.826-.826l.146-.306.014-2.488c.009-1.675,0-2.584-.037-2.78a1.635,1.635,0,0,0-.9-1.228l-.26-.123-2.739-.009C68.412-444.789,68.362-444.789,68.116-444.693Zm5.6.9a.536.536,0,0,1,.283.274c.091.178.1.251.1,2.68,0,2.753,0,2.693-.292,2.908l-.142.1-2.547.014-2.547.009-.183-.1a.683.683,0,0,1-.269-.288c-.087-.183-.091-.283-.091-2.638,0-1.621.018-2.488.05-2.575a.758.758,0,0,1,.383-.406,18.52,18.52,0,0,1,2.6-.059A10.131,10.131,0,0,1,73.717-443.793Z" transform="translate(0 -0.207)" fill="#fff"/>
    <path id="Path_2905" data-name="Path 2905" d="M272.163-444.89a1.6,1.6,0,0,0-1,1.237c-.036.192-.046,1.013-.036,2.785l.014,2.511.146.306a1.633,1.633,0,0,0,1.21.949c.329.064,4.88.059,5.218,0a1.647,1.647,0,0,0,1.2-.908l.123-.251.014-2.725c.009-2.7.009-2.721-.087-2.99a1.808,1.808,0,0,0-.922-.918c-.26-.1-.306-.1-2.944-.1h-2.68Zm5.651.922a1.245,1.245,0,0,1,.219.219c.1.123.1.183.11,2.639s.009,2.52-.082,2.7a.669.669,0,0,1-.269.292l-.183.1-2.547-.009-2.547-.014-.142-.1c-.3-.215-.292-.155-.292-2.908,0-2.428,0-2.5.1-2.68a.536.536,0,0,1,.283-.274c.183-.082.31-.087,2.712-.073C277.636-444.064,277.691-444.064,277.814-443.968Z" transform="translate(-194.698)" fill="#fff"/>
    <path id="Path_2906" data-name="Path 2906" d="M68.408-240.683a1.738,1.738,0,0,0-1.155.913l-.119.251-.014,2.725c-.009,2.7-.009,2.721.087,2.99a1.851,1.851,0,0,0,.922.922c.269.1.288.1,2.99.087l2.725-.014.251-.119a1.738,1.738,0,0,0,.753-.73c.2-.383.21-.639.2-3.282a10.618,10.618,0,0,0-.1-2.693,1.736,1.736,0,0,0-.977-.981c-.205-.087-.324-.091-2.794-.1C69.755-240.719,68.508-240.7,68.408-240.683Zm5.3.986a.855.855,0,0,1,.26.219l.1.142.014,2.547.009,2.547-.1.183a.669.669,0,0,1-.292.269c-.183.091-.26.091-2.7.082s-2.515-.014-2.638-.11a1.244,1.244,0,0,1-.219-.219c-.1-.123-.1-.183-.11-2.634-.009-2.4-.009-2.52.078-2.712a.557.557,0,0,1,.265-.292c.169-.087.256-.091,2.675-.1A12.876,12.876,0,0,1,73.712-239.7Z" transform="translate(0 -194.959)" fill="#fff"/>
    <path id="Path_2907" data-name="Path 2907" d="M272.341-240.884a1.662,1.662,0,0,0-1.3,1.333c-.064.329-.059,4.88,0,5.218a1.651,1.651,0,0,0,.908,1.205l.251.119,2.725.014c2.7.009,2.721.009,2.99-.087a1.851,1.851,0,0,0,.922-.922c.1-.269.1-.288.087-2.99l-.014-2.725-.119-.251a1.655,1.655,0,0,0-1.173-.908C277.344-240.939,272.642-240.943,272.341-240.884Zm5.327,1.009a.523.523,0,0,1,.274.292c.087.192.087.31.078,2.712-.014,2.451-.014,2.511-.11,2.634a1.244,1.244,0,0,1-.219.219c-.123.1-.183.1-2.638.11s-2.52.009-2.7-.082a.669.669,0,0,1-.292-.269l-.1-.183.009-2.547.014-2.547.1-.142c.215-.3.142-.292,2.9-.292C277.422-239.971,277.49-239.967,277.668-239.875Z" transform="translate(-194.575 -194.758)" fill="#fff"/>
  </g>
</svg>
