<svg xmlns="http://www.w3.org/2000/svg" width="22.58" height="38.827" viewBox="0 0 22.58 38.827">
  <g id="scan_1_" data-name="scan (1)" transform="translate(-111.486 -7.613)">
    <path id="Path_3456" data-name="Path 3456" d="M-65.5-.1h4.708q1.145,0,2.289,0l1.97,0h1.174q.553,0,1.105,0h.4A5.3,5.3,0,0,1-49.911,1.3a4.915,4.915,0,0,1,1.429,3.555v.353q0,.189,0,.378,0,.518,0,1.036,0,.559,0,1.118,0,1.095,0,2.189,0,.89,0,1.78c0,.084,0,.169,0,.256q0,.257,0,.515,0,2.414,0,4.827,0,2.207,0,4.414,0,2.267,0,4.534,0,1.272,0,2.545,0,1.083,0,2.167,0,.552,0,1.1,0,.506,0,1.013,0,.183,0,.365a5.2,5.2,0,0,1-1.415,3.825,5.061,5.061,0,0,1-3.737,1.43h-5.1q-1.145,0-2.289,0l-1.97,0h-1.175q-.553,0-1.105,0h-.4A5.3,5.3,0,0,1-69.6,37.3a4.919,4.919,0,0,1-1.429-3.557q0-.177,0-.354t0-.379q0-.519,0-1.038,0-.56,0-1.12,0-1.1,0-2.194,0-.892,0-1.784,0-2.53,0-5.06c0-.091,0-.182,0-.275s0-.182,0-.276q0-2.212,0-4.424,0-2.272,0-4.544,0-1.275,0-2.55,0-1.086,0-2.172,0-.554,0-1.107,0-.508,0-1.015,0-.183,0-.366a5.2,5.2,0,0,1,1.421-3.751A5.352,5.352,0,0,1-65.5-.1Zm-3.344,2.625a3.394,3.394,0,0,0-.84,2.4h19.852A3.65,3.65,0,0,0-50.95,2.2c-1.087-1.031-2.363-1.047-3.775-1.047h-4.125l-2,0h-4.077A4.742,4.742,0,0,0-68.843,2.522Zm-.918,3.649v23.76h20.008V6.171Zm0,25.01c-.12,2.874-.12,2.874,1.18,5.171A4.977,4.977,0,0,0-64.8,37.445h4.128l2.006,0h4.08a4.8,4.8,0,0,0,3.749-1.2c1.352-1.433,1.081-3.157,1.081-5.072Z" transform="translate(182.538 7.725)" fill="#ed1c24"/>
    <path id="Path_3457" data-name="Path 3457" d="M-7.88-.029l.156,0a.723.723,0,0,1,.469.354,4.035,4.035,0,0,1,.04.777l0,.239c0,.261,0,.521,0,.782q0,.272,0,.543,0,.569,0,1.138,0,.73,0,1.46,0,.561,0,1.122,0,.269,0,.538c0,.251,0,.5,0,.752l0,.225c-.006.5-.006.5-.191.754A.677.677,0,0,1-7.88,8.8l-.156,0a.723.723,0,0,1-.469-.354,4.034,4.034,0,0,1-.04-.777l0-.239c0-.261,0-.521,0-.782q0-.272,0-.543,0-.569,0-1.138,0-.73,0-1.46,0-.561,0-1.122,0-.269,0-.538c0-.251,0-.5,0-.752l0-.225c.006-.5.006-.5.191-.754A.676.676,0,0,1-7.88-.029Z" transform="translate(135.663 21.389)" fill="#ed1c24"/>
    <path id="Path_3458" data-name="Path 3458" d="M-7.88-.029l.156,0a.723.723,0,0,1,.469.354,4.035,4.035,0,0,1,.04.777l0,.239c0,.261,0,.521,0,.782q0,.272,0,.543,0,.569,0,1.138,0,.73,0,1.46,0,.561,0,1.122,0,.269,0,.538c0,.251,0,.5,0,.752l0,.225c-.006.5-.006.5-.191.754A.677.677,0,0,1-7.88,8.8l-.156,0a.723.723,0,0,1-.469-.354,4.034,4.034,0,0,1-.04-.777l0-.239c0-.261,0-.521,0-.782q0-.272,0-.543,0-.569,0-1.138,0-.73,0-1.46,0-.561,0-1.122,0-.269,0-.538c0-.251,0-.5,0-.752l0-.225c.006-.5.006-.5.191-.754A.676.676,0,0,1-7.88-.029Z" transform="translate(133.162 21.389)" fill="#ed1c24"/>
    <path id="Path_3459" data-name="Path 3459" d="M-7.88-.029l.156,0a.723.723,0,0,1,.469.354,4.035,4.035,0,0,1,.04.777l0,.239c0,.261,0,.521,0,.782q0,.272,0,.543,0,.569,0,1.138,0,.73,0,1.46,0,.561,0,1.122,0,.269,0,.538c0,.251,0,.5,0,.752l0,.225c-.006.5-.006.5-.191.754A.677.677,0,0,1-7.88,8.8l-.156,0a.723.723,0,0,1-.469-.354,4.034,4.034,0,0,1-.04-.777l0-.239c0-.261,0-.521,0-.782q0-.272,0-.543,0-.569,0-1.138,0-.73,0-1.46,0-.561,0-1.122,0-.269,0-.538c0-.251,0-.5,0-.752l0-.225c.006-.5.006-.5.191-.754A.676.676,0,0,1-7.88-.029Z" transform="translate(130.661 21.389)" fill="#ed1c24"/>
    <path id="Path_3460" data-name="Path 3460" d="M-7.88-.029l.156,0a.723.723,0,0,1,.469.354,4.035,4.035,0,0,1,.04.777l0,.239c0,.261,0,.521,0,.782q0,.272,0,.543,0,.569,0,1.138,0,.73,0,1.46,0,.561,0,1.122,0,.269,0,.538c0,.251,0,.5,0,.752l0,.225c-.006.5-.006.5-.191.754A.677.677,0,0,1-7.88,8.8l-.156,0a.723.723,0,0,1-.469-.354,4.034,4.034,0,0,1-.04-.777l0-.239c0-.261,0-.521,0-.782q0-.272,0-.543,0-.569,0-1.138,0-.73,0-1.46,0-.561,0-1.122,0-.269,0-.538c0-.251,0-.5,0-.752l0-.225c.006-.5.006-.5.191-.754A.676.676,0,0,1-7.88-.029Z" transform="translate(128.16 21.389)" fill="#ed1c24"/>
    <path id="Path_3461" data-name="Path 3461" d="M-7.88-.029l.156,0a.723.723,0,0,1,.469.354,4.035,4.035,0,0,1,.04.777l0,.239c0,.261,0,.521,0,.782q0,.272,0,.543,0,.569,0,1.138,0,.73,0,1.46,0,.561,0,1.122,0,.269,0,.538c0,.251,0,.5,0,.752l0,.225c-.006.5-.006.5-.191.754A.677.677,0,0,1-7.88,8.8l-.156,0a.723.723,0,0,1-.469-.354,4.034,4.034,0,0,1-.04-.777l0-.239c0-.261,0-.521,0-.782q0-.272,0-.543,0-.569,0-1.138,0-.73,0-1.46,0-.561,0-1.122,0-.269,0-.538c0-.251,0-.5,0-.752l0-.225c.006-.5.006-.5.191-.754A.676.676,0,0,1-7.88-.029Z" transform="translate(125.659 21.389)" fill="#ed1c24"/>
    <path id="Path_3462" data-name="Path 3462" d="M-52.113-.029l.156,0a.829.829,0,0,1,.469.354,1.52,1.52,0,0,1,.04.432l0,.262,0,.282c0,.144,0,.144,0,.291q0,.3,0,.609c0,.311,0,.622,0,.932q0,.3,0,.591l0,.282,0,.262V4.5a.7.7,0,0,1-.352.514,1.52,1.52,0,0,1-.432.04l-.262,0-.282,0h-.291l-.609,0c-.311,0-.622,0-.932,0H-55.2l-.282,0-.262,0h-.231A.759.759,0,0,1-56.49,4.7a.766.766,0,0,1-.039-.313l0-.156a.719.719,0,0,1,.354-.469,4.092,4.092,0,0,1,.783-.031h.23c.242,0,.484.006.726.01l.493,0q.6.005,1.207.015l0-.311q-.008-.571-.012-1.141,0-.247-.006-.494c0-.237-.006-.473-.007-.71l0-.223c0-.511,0-.511.184-.762A.681.681,0,0,1-52.113-.029Z" transform="translate(182.397 28.892)" fill="#ed1c24"/>
    <path id="Path_3463" data-name="Path 3463" d="M-7.887-.029l.156,0a.719.719,0,0,1,.469.354,4.092,4.092,0,0,1,.031.783v.23c0,.242-.006.484-.01.726q0,.246,0,.493-.005.6-.015,1.207l.311,0q.571-.008,1.141-.012l.494-.006c.237,0,.473-.006.71-.007l.223,0c.511,0,.511,0,.762.184a.681.681,0,0,1,.149.477l0,.156a.829.829,0,0,1-.354.469,1.52,1.52,0,0,1-.432.04l-.262,0-.282,0h-.291l-.609,0c-.311,0-.622,0-.932,0h-.591l-.282,0-.262,0H-8A.7.7,0,0,1-8.512,4.7a1.52,1.52,0,0,1-.04-.432l0-.262,0-.282V3.432q0-.3,0-.609c0-.311,0-.622,0-.932q0-.3,0-.591l0-.282,0-.262V.525A.621.621,0,0,1-7.887-.029Z" transform="translate(123.165 28.892)" fill="#ed1c24"/>
    <path id="Path_3464" data-name="Path 3464" d="M-9.276-.035l.262,0,.282,0h.291l.609,0c.311,0,.622,0,.932,0h.591l.282,0,.262,0h.231a.7.7,0,0,1,.514.352,1.52,1.52,0,0,1,.04.432l0,.262,0,.282v.291q0,.3,0,.609c0,.311,0,.622,0,.932q0,.3,0,.591l0,.282,0,.262v.231a.759.759,0,0,1-.352.514.767.767,0,0,1-.313.039l-.156,0a.719.719,0,0,1-.469-.354A4.092,4.092,0,0,1-6.3,3.912v-.23c0-.242.006-.484.01-.726q0-.246,0-.493.005-.6.015-1.207l-.311,0q-.571.008-1.141.012l-.494.006c-.237,0-.473.006-.71.007l-.223,0c-.511,0-.511,0-.762-.184A.682.682,0,0,1-10.06.63l0-.156C-9.954.066-9.663-.034-9.276-.035Z" transform="translate(135.928 17.642)" fill="#ed1c24"/>
    <path id="Path_3465" data-name="Path 3465" d="M-9.3-.035l.262,0,.282,0h.291l.609,0c.311,0,.622,0,.932,0h.591l.282,0,.262,0h.231a.759.759,0,0,1,.514.352A.767.767,0,0,1-5,.63l0,.156a.719.719,0,0,1-.354.469,4.092,4.092,0,0,1-.783.031h-.23c-.242,0-.484-.006-.726-.01l-.493,0q-.6-.005-1.207-.015l0,.311q.008.571.012,1.141,0,.247.006.494c0,.237.006.473.007.71l0,.223c0,.511,0,.511-.184.762a.681.681,0,0,1-.477.149l-.156,0a.829.829,0,0,1-.469-.354,1.52,1.52,0,0,1-.04-.432l0-.262,0-.282c0-.1,0-.192,0-.291q0-.3,0-.609c0-.311,0-.622,0-.932q0-.3,0-.591l0-.282,0-.262V.52C-10,.074-9.72-.034-9.3-.035Z" transform="translate(124.696 17.642)" fill="#ed1c24"/>
    <path id="Path_3466" data-name="Path 3466" d="M-32.964-2.052a2.213,2.213,0,0,1,.982,1.211A2.226,2.226,0,0,1-32.295.878a1.947,1.947,0,0,1-1.272.73,1.975,1.975,0,0,1-1.617-.485,2.054,2.054,0,0,1-.574-1.695,1.824,1.824,0,0,1,.8-1.329A2.162,2.162,0,0,1-32.964-2.052ZM-34.278-.714a.721.721,0,0,0-.127.655.61.61,0,0,0,.313.313.721.721,0,0,0,.655-.127.722.722,0,0,0,.127-.655.61.61,0,0,0-.313-.313A.721.721,0,0,0-34.278-.714Z" transform="translate(156.639 42.327)" fill="#ed1c24"/>
    <path id="Path_3467" data-name="Path 3467" d="M-9.276-.035l.262,0,.282,0h.291l.609,0c.311,0,.622,0,.932,0h.591l.282,0,.262,0h.231a.759.759,0,0,1,.514.352A.767.767,0,0,1-4.98.63l0,.156a.829.829,0,0,1-.354.469,1.52,1.52,0,0,1-.432.04l-.262,0-.282,0H-6.6l-.609,0c-.311,0-.622,0-.932,0h-.591l-.282,0-.262,0h-.231a.759.759,0,0,1-.514-.352A.767.767,0,0,1-10.06.63l0-.156C-9.954.066-9.663-.034-9.276-.035Z" transform="translate(130.301 10.139)" fill="#ed1c24"/>
  </g>
</svg>
