<svg xmlns="http://www.w3.org/2000/svg" width="16.683" height="16.689" viewBox="0 0 16.683 16.689">
  <g id="printer_1_" data-name="printer(1)" transform="translate(0 0)">
    <path id="Path_1030" data-name="Path 1030" d="M4.645-512.054a2.465,2.465,0,0,0-1.886,1.906,6.841,6.841,0,0,0-.052,1.248v.994H2.364a2.428,2.428,0,0,0-1.821.71,2.38,2.38,0,0,0-.684,1.251c-.078.378-.078,4.5,0,4.874A2.393,2.393,0,0,0,.5-499.862a2.453,2.453,0,0,0,1.864.753h.342v1.173a13.182,13.182,0,0,0,.036,1.342,1.487,1.487,0,0,0,1.131,1.131c.241.052,8.3.052,8.549,0a1.5,1.5,0,0,0,1.131-1.131,13.424,13.424,0,0,0,.036-1.342v-1.173h.342a2.934,2.934,0,0,0,1.007-.166,2.6,2.6,0,0,0,1.342-1.3c.2-.433.189-.342.2-2.821a18.888,18.888,0,0,0-.039-2.538,2.466,2.466,0,0,0-1.069-1.574,2.457,2.457,0,0,0-1.44-.4h-.342v-.994a6.841,6.841,0,0,0-.052-1.248,2.456,2.456,0,0,0-1.909-1.909C11.262-512.132,5-512.132,4.645-512.054Zm6.8.958a1.487,1.487,0,0,1,1.131,1.131,9.821,9.821,0,0,1,.036,1.114v.945H3.684v-.945a9.948,9.948,0,0,1,.036-1.114,1.392,1.392,0,0,1,.4-.727,1.39,1.39,0,0,1,.687-.394C5.029-511.141,11.184-511.151,11.445-511.1Zm2.9,4.2a1.487,1.487,0,0,1,1.131,1.131c.049.238.049,4.268,0,4.509a1.683,1.683,0,0,1-.42.756,1.579,1.579,0,0,1-1.173.411h-.293v-1.629h.2a.519.519,0,0,0,.586-.489.514.514,0,0,0-.261-.423c-.127-.065-.179-.065-5.962-.065s-5.835,0-5.962.065a.514.514,0,0,0-.261.423.519.519,0,0,0,.586.489h.2v1.629H2.413a1.486,1.486,0,0,1-1.189-.44,1.433,1.433,0,0,1-.4-.727c-.049-.238-.049-4.268,0-4.509a1.391,1.391,0,0,1,.4-.727,1.389,1.389,0,0,1,.687-.394C2.13-506.938,14.08-506.948,14.344-506.893Zm-1.733,7.637c0,2.4,0,2.466-.065,2.59a.437.437,0,0,1-.2.2c-.127.065-.182.065-4.206.065H4.068l-.13-.072a.525.525,0,0,1-.192-.2,11.565,11.565,0,0,1-.062-2.584v-2.46h8.927Z" transform="translate(0.2 512.113)" fill="#6d05bc"/>
    <path id="Path_1031" data-name="Path 1031" d="M65.254-318.932a.522.522,0,0,0-.254.42.514.514,0,0,0,.261.424c.117.062.189.065,1.01.065s.893,0,1.01-.065a.514.514,0,0,0,.261-.424.514.514,0,0,0-.261-.424C67.16-319,67.092-319,66.264-319S65.365-318.993,65.254-318.932Z" transform="translate(-62.876 325.292)" fill="#6d05bc"/>
    <path id="Path_1032" data-name="Path 1032" d="M201.254-158.932a.522.522,0,0,0-.254.42.514.514,0,0,0,.261.424c.121.062.189.065,1.531.065s1.411,0,1.531-.065a.514.514,0,0,0,.261-.424.514.514,0,0,0-.261-.424c-.124-.062-.189-.065-1.538-.065S201.368-158.993,201.254-158.932Z" transform="translate(-194.445 170.505)" fill="#6d05bc"/>
    <path id="Path_1033" data-name="Path 1033" d="M201.254-94.932a.522.522,0,0,0-.254.42.514.514,0,0,0,.261.424c.121.062.189.065,1.531.065s1.411,0,1.531-.065a.514.514,0,0,0,.261-.424.514.514,0,0,0-.261-.424C204.2-95,204.134-95,202.785-95S201.368-94.993,201.254-94.932Z" transform="translate(-194.445 108.59)" fill="#6d05bc"/>
  </g>
</svg>
