<svg xmlns="http://www.w3.org/2000/svg" width="10.389" height="16.869" viewBox="0 0 10.389 16.869">
  <g id="mobile-_1_" transform="translate(-137.99 447.715)">
    <path id="Path_2712" data-name="Path 2712" d="M139.034-447.68a1.341,1.341,0,0,0-.709.436c-.361.4-.335-.233-.335,7.994,0,7.223,0,7.325.088,7.558a1.348,1.348,0,0,0,.621.713l.238.132h8.5l.238-.132a1.348,1.348,0,0,0,.621-.713c.088-.233.088-.335.088-7.558,0-6.422-.009-7.347-.066-7.545a1.5,1.5,0,0,0-.735-.806l-.233-.106-4.072-.009C140.984-447.719,139.131-447.7,139.034-447.68Zm2.029,1.1a5.427,5.427,0,0,0,.3.669c.066.075.211.079,1.818.079s1.752,0,1.818-.079a5.422,5.422,0,0,0,.3-.669l.238-.594.77-.013a4.992,4.992,0,0,1,.933.035.989.989,0,0,1,.541.471c.053.119.062,1.369.062,7.188v7.043h-9.332v-7.039c0-4.868.013-7.078.048-7.166a.925.925,0,0,1,.458-.458c.154-.075.273-.084.986-.07l.814.009Zm3.882-.563a3.992,3.992,0,0,1-.15.409l-.141.352h-2.94l-.141-.352a4,4,0,0,1-.15-.409,8.386,8.386,0,0,1,1.761-.053A8.385,8.385,0,0,1,144.946-447.147Zm2.861,15.261a.9.9,0,0,1-.374.431l-.176.1h-8.143l-.176-.1a.9.9,0,0,1-.374-.431c0-.022,2.082-.04,4.622-.04S147.807-431.908,147.807-431.886Z" fill="#ff3d00"/>
    <path id="Path_2713" data-name="Path 2713" d="M163.088-391.912c-.088.088-.088.145-.088,6.031v5.947l.11.106.106.11h7.756l.106-.11.11-.106v-5.947c0-5.885,0-5.943-.088-6.031s-.145-.088-4.006-.088S163.176-392,163.088-391.912Zm7.571,6.053v5.612h-7.131v-11.225h7.131Z" transform="translate(-23.909 -53.263)" fill="#ff3d00"/>
    <path id="Path_2714" data-name="Path 2714" d="M190.075-366.921c-.062.066-.075.185-.075.7,0,.568.009.634.088.713s.145.088,2.817.088,2.729,0,2.817-.088.088-.145.088-.717-.009-.643-.079-.7A12.21,12.21,0,0,0,192.9-367C190.286-367,190.141-367,190.075-366.921Zm5.207.713v.264h-4.754v-.528h4.754Z" transform="translate(-49.72 -77.162)" fill="#ff3d00"/>
    <path id="Path_2715" data-name="Path 2715" d="M192.248-318.864a2.942,2.942,0,0,0-1.844,1.5,2.84,2.84,0,0,0-.018,2.575,2.87,2.87,0,0,0,1.743,1.505,2.2,2.2,0,0,0,.858.114,2.2,2.2,0,0,0,.858-.114,2.87,2.87,0,0,0,1.743-1.505,2.9,2.9,0,0,0-1.88-4.072A3.153,3.153,0,0,0,192.248-318.864Zm1.334.506a2.393,2.393,0,0,1,1.77,2.157,2.377,2.377,0,0,1-1.924,2.469,2.383,2.383,0,0,1-2.531-1.219,2.366,2.366,0,0,1,1.453-3.389A2.774,2.774,0,0,1,193.582-318.358Z" transform="translate(-49.803 -123.097)" fill="#ff3d00"/>
    <path id="Path_2716" data-name="Path 2716" d="M213.01-298.774a2.052,2.052,0,0,0-1.36,1.1,1.344,1.344,0,0,0-.15.841,1.339,1.339,0,0,0,.163.858,1.976,1.976,0,0,0,1.219,1.052,1.979,1.979,0,0,0,2.373-1.052,1.339,1.339,0,0,0,.163-.858,1.344,1.344,0,0,0-.15-.841,2.047,2.047,0,0,0-1.378-1.1A1.616,1.616,0,0,0,213.01-298.774Zm1.043.607a1.542,1.542,0,0,1,.709.651,1.028,1.028,0,0,1,.128.673,1.239,1.239,0,0,1-.1.638,1.761,1.761,0,0,1-.7.7,1.035,1.035,0,0,1-.638.119,1.027,1.027,0,0,1-.638-.119,1.7,1.7,0,0,1-.691-.687,1.24,1.24,0,0,1-.1-.647,1.1,1.1,0,0,1,.1-.625A1.474,1.474,0,0,1,214.053-298.167Z" transform="translate(-70.274 -142.324)" fill="#ff3d00"/>
    <path id="Path_2717" data-name="Path 2717" d="M236.629-268.588a4.248,4.248,0,0,0-.493.445l-.427.418-.176-.158a.664.664,0,0,0-.269-.163.318.318,0,0,0-.264.269,1.677,1.677,0,0,0,.7.7c.088,0,.251-.132.7-.585a2.965,2.965,0,0,0,.581-.673A.275.275,0,0,0,236.629-268.588Z" transform="translate(-92.74 -171.23)" fill="#ff3d00"/>
    <path id="Path_2718" data-name="Path 2718" d="M190.075-174.921c-.062.066-.075.185-.075.7,0,.568.009.634.088.713s.145.088,2.817.088,2.729,0,2.817-.088.088-.145.088-.718-.009-.643-.079-.7A12.208,12.208,0,0,0,192.9-175C190.286-175,190.141-175,190.075-174.921Zm5.207.713v.264h-4.754v-.528h4.754Z" transform="translate(-49.72 -260.711)" fill="#ff3d00"/>
  </g>
</svg>
