<svg xmlns="http://www.w3.org/2000/svg" width="16.539" height="16.563" viewBox="0 0 16.539 16.563">
  <g id="end" transform="translate(-0.5 511.751)">
    <path id="Path_3040" data-name="Path 3040" d="M4.06-511.713a1.229,1.229,0,0,0-.825.783L3.2-510.8l-.379.019a2.234,2.234,0,0,0-.99.23,2.374,2.374,0,0,0-1.253,1.476A2.758,2.758,0,0,0,.5-508.1a2.758,2.758,0,0,0,.074.971,2.516,2.516,0,0,0,.764,1.165l.113.081,0,.965v.965l.081.078a.207.207,0,0,0,.324,0l.081-.078v-1.628l.074.019c.5.142.074.133,6.755.133s6.26.01,6.758-.133l.071-.019v3.327c0,2.764-.01,3.386-.049,3.648a3.46,3.46,0,0,1-2.557,2.829,4.346,4.346,0,0,1-1.249.1c-.851.019-.935.026-1,.081a.225.225,0,0,0,.023.343c.087.071.1.071,1.01.055a4.269,4.269,0,0,0,1.6-.191,4.055,4.055,0,0,0,1.874-1.334A4.09,4.09,0,0,0,16-498.294a25.077,25.077,0,0,0,.081-3.933l.01-3.657.129-.1a2.491,2.491,0,0,0,.748-1.149,2.758,2.758,0,0,0,.074-.971,2.758,2.758,0,0,0-.074-.971,2.374,2.374,0,0,0-1.253-1.476,2.234,2.234,0,0,0-.99-.23l-.379-.019-.039-.129a1.183,1.183,0,0,0-.644-.715c-.214-.1-.217-.1-.748-.1s-.534,0-.744.1a1.508,1.508,0,0,0-.353.243,1.5,1.5,0,0,0-.327.57,24.322,24.322,0,0,1-2.719.042,24.322,24.322,0,0,1-2.719-.042,1.5,1.5,0,0,0-.327-.57,1.508,1.508,0,0,0-.353-.243c-.2-.1-.227-.1-.7-.107A2.341,2.341,0,0,0,4.06-511.713Zm1.029.476a.841.841,0,0,1,.447.4c.055.117.061.233.061,1.149,0,1.155-.006,1.185-.256,1.395-.175.152-.317.191-.715.191s-.541-.039-.715-.191c-.249-.21-.256-.24-.256-1.395,0-.926.006-1.033.061-1.149a.8.8,0,0,1,.411-.388A2.894,2.894,0,0,1,5.09-511.237Zm8.286,0a.841.841,0,0,1,.447.4c.055.117.061.233.061,1.149,0,1.155-.006,1.185-.256,1.395-.175.152-.317.191-.715.191s-.541-.039-.715-.191c-.249-.21-.256-.24-.256-1.395,0-.926.006-1.033.061-1.149a.8.8,0,0,1,.411-.388A2.894,2.894,0,0,1,13.376-511.237Zm-10.2,1.816.01.884.1.21a1.238,1.238,0,0,0,.6.6c.21.1.214.1.744.1s.534,0,.744-.1a1.238,1.238,0,0,0,.6-.6l.1-.21.01-.884.01-.88h5.366l.01.88.01.884.091.2a1.384,1.384,0,0,0,.621.618c.188.087.21.091.728.091s.534,0,.744-.1a1.212,1.212,0,0,0,.6-.6l.1-.21.01-.884.01-.88h.249a1.806,1.806,0,0,1,1.382.566,1.886,1.886,0,0,1,.566,1.635,1.9,1.9,0,0,1-.55,1.622,1.806,1.806,0,0,1-.829.5c-.181.055-.469.058-6.422.058H2.539l-.227-.071a1.925,1.925,0,0,1-1.3-1.4,5.745,5.745,0,0,1,0-1.434,1.9,1.9,0,0,1,1.149-1.346A1.764,1.764,0,0,1,2.9-510.3l.265,0Z" transform="translate(0 0)" fill="#fff"/>
    <path id="Path_3041" data-name="Path 3041" d="M186.071-387.879c-.061.065-.071.113-.071.369,0,.282,0,.3.084.363a.222.222,0,0,0,.307.007c.068-.055.078-.094.087-.356s.01-.295-.071-.372A.221.221,0,0,0,186.071-387.879Z" transform="translate(-179.496 -119.791)" fill="#fff"/>
    <path id="Path_3042" data-name="Path 3042" d="M311.1-387.811c-.081.078-.084.1-.071.372s.019.3.087.356a.212.212,0,0,0,.311-.019c.074-.071.081-.1.081-.366s-.007-.295-.074-.356A.225.225,0,0,0,311.1-387.811Z" transform="translate(-300.472 -119.85)" fill="#fff"/>
    <path id="Path_3043" data-name="Path 3043" d="M232.024-375.914c-.107.117-.084.243.068.385a.952.952,0,0,0,.984.188c.359-.136.531-.4.372-.573-.1-.1-.233-.091-.43.045a.379.379,0,0,1-.317.1.487.487,0,0,1-.275-.116C232.273-376.008,232.125-376.018,232.024-375.914Z" transform="translate(-223.967 -131.371)" fill="#fff"/>
    <path id="Path_3044" data-name="Path 3044" d="M85.222-262.875a2.349,2.349,0,0,0-1.489,1.214c-.233.466-.233.456-.233,2.007v1.392l.091.259a2.383,2.383,0,0,0,1.389,1.463c.427.175.44.175,4.237.165,3.952-.013,3.628.01,4.195-.269A2.357,2.357,0,0,0,94.576-258l.091-.259v-1.392a6.739,6.739,0,0,0-.058-1.583,2.406,2.406,0,0,0-1.236-1.476c-.5-.24-.265-.227-4.308-.223A27.409,27.409,0,0,0,85.222-262.875Zm7.593.469a1.917,1.917,0,0,1,1.288,1.191c.071.194.074.246.087,1.431.013,1.356,0,1.476-.168,1.845a1.91,1.91,0,0,1-1.123.99l-.24.078H85.507l-.24-.078a1.9,1.9,0,0,1-1.12-.99c-.168-.359-.178-.466-.178-1.741s.01-1.382.194-1.754a1.856,1.856,0,0,1,1.149-.958,28.9,28.9,0,0,1,3.755-.058C92.126-262.454,92.657-262.448,92.815-262.406Z" transform="translate(-80.314 -240.759)" fill="#fff"/>
    <path id="Path_3045" data-name="Path 3045" d="M169.561-198.932c-.058.065-.061.133-.061,1.136v1.068l.094.081c.091.078.1.078.544.068s.456-.013.515-.087a.221.221,0,0,0,0-.3c-.061-.078-.087-.084-.366-.094l-.3-.01-.01-.236-.01-.233h.262q.408,0,.466-.146a.234.234,0,0,0-.055-.269c-.062-.058-.12-.071-.363-.078l-.291-.01-.01-.236-.01-.233h.243c.262,0,.395-.036.46-.123a.231.231,0,0,0-.019-.291c-.065-.068-.094-.071-.547-.071S169.62-199,169.561-198.932Z" transform="translate(-163.53 -302.628)" fill="#fff"/>
    <path id="Path_3046" data-name="Path 3046" d="M222.068-199.006c-.065.084-.068.123-.068,1.1,0,.557.013,1.049.029,1.091a.255.255,0,0,0,.414.049,5.112,5.112,0,0,0,.042-.638l.016-.6.392.628c.421.676.489.748.657.676a.285.285,0,0,0,.129-.117,7.574,7.574,0,0,0,.036-1.094c0-.977,0-1.016-.068-1.1a.257.257,0,0,0-.34-.039c-.055.042-.062.1-.078.657l-.016.608-.385-.615a7.737,7.737,0,0,0-.434-.657A.25.25,0,0,0,222.068-199.006Z" transform="translate(-214.331 -302.538)" fill="#fff"/>
    <path id="Path_3047" data-name="Path 3047" d="M290.067-198.911c-.068.068-.068.094-.068,1.133,0,1.243-.01,1.2.3,1.227a1.241,1.241,0,0,0,1.376-1.4,1.23,1.23,0,0,0-.67-.916,1.032,1.032,0,0,0-.528-.1C290.164-198.979,290.129-198.972,290.067-198.911Zm.719.476a.727.727,0,0,1,.418.657.659.659,0,0,1-.217.531.947.947,0,0,1-.476.217,5.412,5.412,0,0,1-.026-.728v-.728h.1A.542.542,0,0,1,290.786-198.435Z" transform="translate(-280.129 -302.656)" fill="#fff"/>
    <path id="Path_3048" data-name="Path 3048" d="M29.981-245.833l-.081.081.013,2.211c.013,2.424.006,2.35.223,2.962a3.979,3.979,0,0,0,2.47,2.428c.547.185.479.178,3.191.191,2.434.013,2.512.01,2.586-.049a.271.271,0,0,0,.023-.356,12.59,12.59,0,0,0-2.573-.071l-2.515-.019L33-238.54a3.5,3.5,0,0,1-2.505-2.508l-.087-.317-.019-2.211-.016-2.214-.078-.062A.216.216,0,0,0,29.981-245.833Z" transform="translate(-28.448 -257.235)" fill="#fff"/>
  </g>
</svg>
