<svg xmlns="http://www.w3.org/2000/svg" width="19.259" height="19.168" viewBox="0 0 19.259 19.168">
  <g id="salary-_1_" transform="translate(-33.461 477.52)">
    <path id="Path_3089" data-name="Path 3089" d="M39.71-477.5l-2.746.022-.2.1a1.305,1.305,0,0,0-.618.718,8.643,8.643,0,0,0-.022,1.95c.022.951.052,2.071.069,2.491l.026.765-1.133.917a12.344,12.344,0,0,0-1.232,1.081,2.774,2.774,0,0,0-.333,1.085c-.086.662-.074,4.441.022,5.444.186,1.98.441,2.893.943,3.368a2.875,2.875,0,0,0,1.12.614l.324.1,5.989.039c5.707.035,6,.043,6.183.121a6.087,6.087,0,0,0,2.227.329c1.289-.1,1.959-.368,2.248-.9.125-.225.13-.246.143-.93.017-.843-.026-1.025-.307-1.3a2.974,2.974,0,0,0-.951-.532c-.147-.048-.16-.061-.1-.121a2.661,2.661,0,0,0,.489-1.371,2.842,2.842,0,0,0-.605-1.868l-.195-.255-.013-1.773c-.013-1.755-.013-1.768-.117-2-.121-.268-.03-.186-1.734-1.522l-1.349-1.059.013-2.205a11.5,11.5,0,0,0-.061-2.391,1.549,1.549,0,0,0-.856-.86,9.726,9.726,0,0,0-2.331-.078C43.42-477.523,41.219-477.51,39.71-477.5Zm7.255.575a1.223,1.223,0,0,1,.3.3l.121.182-.009,3.416c-.009,1.881-.022,3.753-.039,4.16l-.026.739L44.8-467.012c-1.384.614-2.547,1.124-2.586,1.133a40.49,40.49,0,0,1-3.866-1.76c-.618-.29-1.237-.579-1.371-.636-.212-.1-.251-.13-.255-.225,0-.061-.043-1.864-.1-4-.061-2.4-.082-3.948-.061-4.034a.858.858,0,0,1,.48-.48c.082-.026,2.037-.039,4.942-.035l4.8.009Zm-9.785,9.231c1.57.735,3.226,1.509,3.684,1.721s.83.393.834.406-.4.316-.886.67c-.765.553-.886.657-.886.757a.189.189,0,0,0,.2.216,7.872,7.872,0,0,0,1.055-.7,8.34,8.34,0,0,1,1.012-.674c.03.013.441.307.912.653.9.662,1.046.731,1.146.545a.273.273,0,0,0,.022-.173,4.926,4.926,0,0,0-.748-.61c-.4-.29-.765-.562-.817-.605-.1-.074-.026-.1,3.861-1.833,2.179-.964,3.974-1.747,3.987-1.734s.026.7.03,1.513l.009,1.492-.221-.125a2.165,2.165,0,0,0-2.123-.091,2.652,2.652,0,0,0-1,.8A2.529,2.529,0,0,0,47.385-462l.3.307-.221.216c-.281.272-.32.428-.307,1.293.009.536.022.674.086.791a.445.445,0,0,1,.065.156c-.009.009-2.551,0-5.656-.017-6.287-.035-5.837-.009-6.455-.333-.549-.29-.8-.687-.977-1.6a23.877,23.877,0,0,1-.324-4.786,10.682,10.682,0,0,1,.173-2.888c.061-.182.086-.208.164-.186C34.288-469.035,35.611-468.426,37.181-467.691Zm12.794,1.825a2.9,2.9,0,0,1,.605.437,2.261,2.261,0,0,1,.45,2.983,2.082,2.082,0,0,1-3.264.19,2.115,2.115,0,0,1-.415-2.581,2.359,2.359,0,0,1,1.263-1.1,1.55,1.55,0,0,1,.679-.091A1.215,1.215,0,0,1,49.975-465.866Zm1.557,4.354c.419.173.588.3.683.514.2.45-.125.839-.856,1.029a6.478,6.478,0,0,1-2.469.048,2.37,2.37,0,0,1-1.167-.579.48.48,0,0,1,.035-.631,1.106,1.106,0,0,1,.259-.216c.1-.056.138-.056.311.022a2.53,2.53,0,0,0,2.378-.19C51.009-461.719,51.035-461.719,51.532-461.512Z" fill="#fff"/>
    <path id="Path_3090" data-name="Path 3090" d="M123.076-454.533a2.7,2.7,0,0,0-1.743,1.44,2.556,2.556,0,0,0,.017,2.283,2.514,2.514,0,0,0,3.247,1.28,2.5,2.5,0,0,0,1.66-2.344,2.614,2.614,0,0,0-1.946-2.607A3,3,0,0,0,123.076-454.533Zm1.007,1.82a.628.628,0,0,1-.069.917.584.584,0,0,1-.713-.035.528.528,0,0,1-.069-.8A.625.625,0,0,1,124.084-452.713Zm.117,1.583a1.2,1.2,0,0,1,.761.856c0,.108-.5.359-.869.437a2.309,2.309,0,0,1-1.526-.238c-.074-.056-.074-.069-.009-.268a1.337,1.337,0,0,1,.783-.826A1.442,1.442,0,0,1,124.2-451.13Z" transform="translate(-83.824 -21.952)" fill="#fff"/>
    <path id="Path_3091" data-name="Path 3091" d="M275.151-370.9c-.091.125-.086.177.009.264.069.065.2.073.943.073a3.1,3.1,0,0,0,.917-.052.247.247,0,0,0-.03-.337,5.375,5.375,0,0,0-.93-.043C275.238-371,275.216-371,275.151-370.9Z" transform="translate(-231.177 -101.914)" fill="#fff"/>
    <path id="Path_3092" data-name="Path 3092" d="M275.16-339.914a.182.182,0,0,0-.026.285c.056.073.13.082.878.1.9.013,1.02-.013,1.042-.212.026-.238-.048-.255-.969-.255C275.3-340,275.242-340,275.16-339.914Z" transform="translate(-231.169 -131.574)" fill="#fff"/>
    <path id="Path_3093" data-name="Path 3093" d="M152.14-300.931a.219.219,0,0,0-.026.337,22.3,22.3,0,0,0,3.706.069,23.291,23.291,0,0,0,3.74-.069.2.2,0,0,0-.035-.35c-.082-.043-.9-.056-3.7-.056A23.151,23.151,0,0,0,152.14-300.931Z" transform="translate(-113.459 -168.887)" fill="#fff"/>
    <path id="Path_3094" data-name="Path 3094" d="M152.037-268.02a.247.247,0,0,0,.03.337q.084.045,3.736.043c3.481,0,3.654,0,3.718-.078a.223.223,0,0,0,.022-.3C159.47-268.093,152.111-268.093,152.037-268.02Z" transform="translate(-113.399 -200.389)" fill="#fff"/>
    <path id="Path_3095" data-name="Path 3095" d="M379.877-198.957a.319.319,0,0,0-.1.169.179.179,0,0,1-.125.151.982.982,0,0,0-.458.54.627.627,0,0,0,.16.618.857.857,0,0,0,.571.246c.311.052.393.1.393.242a.281.281,0,0,1-.177.3c-.255.134-.48.065-.558-.169-.117-.359-.506-.19-.411.177a.931.931,0,0,0,.493.467c.091.017.134.056.134.108,0,.108.1.182.246.164.091-.009.13-.043.164-.151a.56.56,0,0,1,.195-.238.723.723,0,0,0,.307-.912.777.777,0,0,0-.644-.419c-.35-.048-.441-.1-.441-.264a.359.359,0,0,1,.376-.342c.19,0,.359.1.359.212a.276.276,0,0,0,.225.221c.125,0,.22-.16.195-.324a.623.623,0,0,0-.363-.463c-.1-.056-.186-.125-.186-.151a.36.36,0,0,0-.225-.229A.351.351,0,0,0,379.877-198.957Z" transform="translate(-330.749 -266.477)" fill="#fff"/>
  </g>
</svg>
