<svg xmlns="http://www.w3.org/2000/svg" width="13.871" height="17.688" viewBox="0 0 13.871 17.688">
  <g id="seo-report" transform="translate(-66.995 497)">
    <path id="Path_2906" data-name="Path 2906" d="M69-496.945c-.338.121-.5.4-.5.87v.323h-.448c-.5,0-.661.048-.844.242-.228.246-.213-.36-.213,7.985,0,7.325,0,7.611.07,7.754a.8.8,0,0,0,.415.4c.121.051.752.059,5.67.059,3.747,0,5.578-.011,5.673-.04a.757.757,0,0,0,.272-.154.825.825,0,0,0,.268-.734v-.319h.44c.484,0,.635-.04.822-.213a.923.923,0,0,0,.172-.246c.066-.143.07-.426.07-7.761s0-7.618-.07-7.761a.8.8,0,0,0-.415-.4c-.121-.051-.749-.059-5.688-.059C70.074-497,69.12-496.989,69-496.945Zm11.321.492.106.106v15.133l-.106.106c-.106.106-.114.106-.532.106h-.426v-7.075c0-6.8,0-7.079-.07-7.218a.8.8,0,0,0-.415-.4c-.121-.051-.69-.059-5.038-.059h-4.9v-.3c0-.279.007-.3.106-.4l.106-.106h11.06Zm-1.5,1.248.106.106v15.133l-.106.106-.106.106H67.648l-.106-.106-.106-.106V-495.1l.106-.106.106-.106h11.06Z" fill="#fff"/>
    <path id="Path_2907" data-name="Path 2907" d="M106.846-424.852a2.734,2.734,0,0,0-1.949,1.431,2.335,2.335,0,0,0-.3,1.229,2.321,2.321,0,0,0,.29,1.215,2.668,2.668,0,0,0,2.55,1.471,2.7,2.7,0,0,0,2.429-1.934,2.039,2.039,0,0,0,.081-.771,2.288,2.288,0,0,0-.327-1.31,3.56,3.56,0,0,0-.98-.994A2.8,2.8,0,0,0,106.846-424.852Zm.228,1.611c0,1.042.007,1.174.062,1.218a4.7,4.7,0,0,0,1.229.062l1.167.011-.022.1a2.3,2.3,0,0,1-1.574,1.816,2.589,2.589,0,0,1-1.339-.007,2.19,2.19,0,0,1-.917-.587,2.074,2.074,0,0,1-.639-1.563,2.186,2.186,0,0,1,1-1.868,2.316,2.316,0,0,1,.914-.352h.117ZM108-424.32a2.89,2.89,0,0,1,.455.209,2.8,2.8,0,0,1,.811.862,2.325,2.325,0,0,1,.242.822,7.991,7.991,0,0,1-1.009.033h-.987v-2.018h.121A1.454,1.454,0,0,1,108-424.32Z" transform="translate(-36.225 -69.469)" fill="#fff"/>
    <path id="Path_2908" data-name="Path 2908" d="M266.476-389.908c-.07.07-.084.114-.066.176.055.176.007.172,1.633.172h1.534l.055-.081c.081-.114.073-.165-.033-.268l-.088-.092h-2.943Z" transform="translate(-192.091 -103.074)" fill="#fff"/>
    <path id="Path_2909" data-name="Path 2909" d="M266.476-355.908c-.07.07-.084.114-.066.176.055.176.007.172,1.633.172h1.534l.055-.081c.081-.114.073-.165-.033-.268l-.088-.092h-2.943Z" transform="translate(-192.091 -135.826)" fill="#fff"/>
    <path id="Path_2910" data-name="Path 2910" d="M266.476-321.908c-.07.07-.084.114-.066.176.055.176.007.172,1.633.172h1.534l.055-.081c.081-.114.073-.165-.033-.268l-.088-.092h-2.943Z" transform="translate(-192.091 -168.578)" fill="#fff"/>
    <path id="Path_2911" data-name="Path 2911" d="M105.073-248.927a.254.254,0,0,0-.073.147.254.254,0,0,0,.073.147c.07.07.121.073,1.827.073,1.655,0,1.761,0,1.816-.066a.215.215,0,0,0-.018-.316,7.369,7.369,0,0,0-1.816-.059C105.194-249,105.143-249,105.073-248.927Z" transform="translate(-36.611 -238.899)" fill="#fff"/>
    <path id="Path_2912" data-name="Path 2912" d="M319.073-223.927c-.073.073-.073.121-.073,2.73v2.66l.081.055a5.267,5.267,0,0,0,1.593.007c.066-.051.07-.128.081-2.7l.007-2.649-.088-.088c-.092-.092-.1-.092-.811-.092C319.194-224,319.143-224,319.073-223.927Zm1.248,2.716v2.349h-.881v-4.7h.881Z" transform="translate(-242.758 -262.982)" fill="#fff"/>
    <path id="Path_2913" data-name="Path 2913" d="M105.177-215.927a.2.2,0,0,0-.015.286l.055.081h1.772c1.67,0,1.776,0,1.831-.066a.215.215,0,0,0-.018-.316,7.368,7.368,0,0,0-1.816-.059C105.3-216,105.246-216,105.177-215.927Z" transform="translate(-36.714 -270.688)" fill="#fff"/>
    <path id="Path_2914" data-name="Path 2914" d="M260.1-178.923l-.1.073v1.816c0,1.765,0,1.816.073,1.886s.121.073.807.073.738,0,.807-.073.073-.121.073-1.886v-1.816l-.1-.073c-.092-.073-.147-.077-.785-.077S260.187-179,260.1-178.923Zm1.226,1.886v1.523h-.881v-3.046h.881Z" transform="translate(-185.923 -306.331)" fill="#fff"/>
    <path id="Path_2915" data-name="Path 2915" d="M201.2-148.949c-.066.051-.07.114-.081,1.277-.007.672,0,1.259.011,1.3.044.187.081.194.877.194.675,0,.749-.007.8-.066s.062-.209.062-1.354c0-1.2,0-1.288-.066-1.343s-.169-.062-.8-.062A2.327,2.327,0,0,0,201.2-148.949Zm1.233,1.361v.972h-.881v-1.945h.881Z" transform="translate(-129.203 -335.23)" fill="#fff"/>
    <path id="Path_2916" data-name="Path 2916" d="M143.044-128.028a3.831,3.831,0,0,0-.044.965c0,.848,0,.928.066.983s.172.062.8.062c.664,0,.738-.007.793-.066s.062-.183.062-.983a3.811,3.811,0,0,0-.044-.961A7.18,7.18,0,0,0,143.044-128.028Zm1.24.983v.587h-.844v-1.174h.844Z" transform="translate(-73.216 -355.387)" fill="#fff"/>
    <path id="Path_2917" data-name="Path 2917" d="M142.953-61.011a.178.178,0,0,0-.1.165c-.026.246-.327.228,4.088.228h4.015l.059-.092a.2.2,0,0,0-.117-.312C150.744-61.08,143.071-61.069,142.953-61.011Z" transform="translate(-73.059 -419.942)" fill="#fff"/>
  </g>
</svg>
