<svg xmlns="http://www.w3.org/2000/svg" width="15.094" height="15.059" viewBox="0 0 15.094 15.059">
  <g id="graphic-design_1_" data-name="graphic-design (1)" transform="translate(0.552)">
    <path id="Path_3678" data-name="Path 3678" d="M-43.241,0h2.529V9h.706l0-.242q-.017-1.132-.025-2.264,0-.582-.013-1.163-.008-.508-.01-1.015c0-.179,0-.358-.007-.536a2.971,2.971,0,0,1,.507-2.1,5.082,5.082,0,0,0,.357-.567c.05-.087.1-.174.152-.26L-39,.767l.05-.061h.118a.821.821,0,0,1,.1.158l.029.051.062.109c.043.077.087.154.132.231l.069.12c.124.217.253.43.383.643l.065.107c.106.174.106.174.216.346.006.087.008.171.007.258,0,.027,0,.053,0,.081q0,.135,0,.27,0,.1,0,.2,0,.263,0,.526,0,.247,0,.494,0,.722,0,1.445c0,1.076,0,2.151,0,3.259h7.823c0-1.1,0-2.2-.007-3.338,0-.348,0-.7,0-1.054,0-.312,0-.312,0-.623q0-.208,0-.417,0-.266,0-.532,0-.1,0-.2c0-.088,0-.176,0-.264V2.5a.683.683,0,0,0-.175-.486.747.747,0,0,0-.579-.169H-31.8l-.677,0-1.1,0-1.067,0h-.4l-2.737-.008V1.353l2.826-.008h.4l1.075,0,1.1,0,.681,0h.737a1.485,1.485,0,0,1,1.2.352,1.069,1.069,0,0,1,.275.665v.092c0,.05,0,.05,0,.1,0,.036,0,.071,0,.108q0,.149,0,.3t0,.32q0,.387,0,.774,0,.109,0,.219,0,.679,0,1.358,0,.157,0,.315c0,.026,0,.052,0,.079q0,.633,0,1.266,0,.65,0,1.3,0,.365,0,.73,0,.311,0,.622,0,.159,0,.317c0,.115,0,.23,0,.344v.1a1.166,1.166,0,0,1-.336.834,1.3,1.3,0,0,1-.989.3H-33.1l-1.614,0v1.588h.676a.948.948,0,0,1,.7.408,2.413,2.413,0,0,1,.094,1.239h-7.529c0-1.163,0-1.163.24-1.424a1.731,1.731,0,0,1,1.23-.223V11.823l-.394,0-1.291,0-.783,0-.683,0h-.826a1.247,1.247,0,0,1-.964-.338,1.189,1.189,0,0,1-.309-.9V10.5q0-.148,0-.3c0-.107,0-.213,0-.32q0-.313,0-.626,0-.255,0-.509c0-.024,0-.048,0-.073V8.523q0-.691,0-1.382,0-.592,0-1.185,0-.688,0-1.377,0-.073,0-.147c0-.024,0-.048,0-.073q0-.254,0-.508,0-.31,0-.62,0-.158,0-.316c0-.114,0-.229,0-.343v-.1a1.142,1.142,0,0,1,.361-.846c.238-.214.238-.214.39-.214l.075.186.042.1a.2.2,0,0,1,0,.18L-43.859,2a.71.71,0,0,0-.185.566V2.65q0,.138,0,.277,0,.1,0,.2,0,.269,0,.538t0,.563q0,.472,0,.944t0,.973V6.5q0,1.248-.008,2.5h.824Zm.471.471v.5h1.059v.471h-1.059v.412h.588v.471h-.588v.412h1.059v.471h-1.059v.412h.588v.471h-.588V4.5h1.059v.471h-1.059v.412h.588v.471h-.588v.412h1.059v.471h-1.059v.412h.588v.471h-.588v.412h1.059V8.5h-1.059V9h1.588V.471Zm3.853,1.118c-.043.064-.083.127-.122.193l-.035.059-.111.189-.076.128-.185.314a1.424,1.424,0,0,0,.322.246l.054.034a.284.284,0,0,0,.226.058l.075-.045.053-.03c.06-.034.118-.07.177-.106l.062-.037.15-.091-.2-.348L-38.6,2.02l-.119-.207-.038-.067c-.031-.053-.064-.105-.1-.157ZM-39.535,3V7.823h1.294V3a5.838,5.838,0,0,0-.547.326.188.188,0,0,1-.152.011,2.629,2.629,0,0,1-.339-.194A.654.654,0,0,0-39.535,3Zm0,5.294V9h1.294V8.294ZM-44.065,9.47a2.491,2.491,0,0,0,.169,1.707l.05.04.05.041a.7.7,0,0,0,.426.1H-30.59a.7.7,0,0,0,.467-.185l.04-.05.041-.05c.295-.451.095-1.075.095-1.614Zm5.235,2.353v1.588h3.647V11.823Zm-1.353,2.147c-.158.2-.158.2-.118.618h6.588c.041-.415.041-.415-.118-.618a.807.807,0,0,0-.455-.1H-39.8A.725.725,0,0,0-40.182,13.97Z" transform="translate(44)" fill="#fff"/>
    <path id="Path_3679" data-name="Path 3679" d="M0,0H5.176V2.529H0ZM.471.471V2.059H4.706V.471Z" transform="translate(8.465 2.235)" fill="#fff"/>
    <path id="Path_3680" data-name="Path 3680" d="M0,0H1.382V.471H.941V5.882h.441v.471H0V5.882H.471V.471H0Z" transform="translate(6.641 2.235)" fill="#fff"/>
    <path id="Path_3681" data-name="Path 3681" d="M0,0H2.382V1.647H0ZM.471.471v.706H1.912V.471Z" transform="translate(11.259 5.176)" fill="#fff"/>
    <path id="Path_3682" data-name="Path 3682" d="M0,0H2.382V1.647H0ZM.471.471v.706H1.912V.471Z" transform="translate(8.465 5.176)" fill="#fff"/>
    <path id="Path_3683" data-name="Path 3683" d="M0,0H.471V1.5H0Z" transform="translate(4.876 3.823)" fill="#fff"/>
    <path id="Path_3684" data-name="Path 3684" d="M0,0H1.059V.471H0Z" transform="translate(11.494 7.382)" fill="#fff"/>
    <path id="Path_3685" data-name="Path 3685" d="M0,0H1.059V.471H0Z" transform="translate(8.7 7.382)" fill="#fff"/>
    <path id="Path_3686" data-name="Path 3686" d="M0,0H.471V.765H0Z" transform="translate(4.876 6.618)" fill="#fff"/>
    <path id="Path_3687" data-name="Path 3687" d="M0,0H.471V.471H0Z" transform="translate(7.641 10.176)" fill="#fff"/>
    <path id="Path_3688" data-name="Path 3688" d="M0,0H.471V.471H0Z" transform="translate(6.759 10.176)" fill="#fff"/>
    <path id="Path_3689" data-name="Path 3689" d="M0,0H.471V.471H0Z" transform="translate(5.876 10.176)" fill="#fff"/>
    <path id="Path_3690" data-name="Path 3690" d="M0,0H.471V.471H0Z" transform="translate(12.964 7.382)" fill="#fff"/>
    <path id="Path_3691" data-name="Path 3691" d="M0,0H.471V.471H0Z" transform="translate(10.17 7.382)" fill="#fff"/>
    <path id="Path_3692" data-name="Path 3692" d="M0,0H.471V.471H0Z" transform="translate(4.876 5.735)" fill="#fff"/>
  </g>
</svg>
