<svg xmlns="http://www.w3.org/2000/svg" xmlns:xlink="http://www.w3.org/1999/xlink" width="250" height="250" viewBox="0 0 250 250">
  <defs>
    <clipPath id="clip-iPhone_14_Pro_Max_3">
      <rect width="250" height="250"/>
    </clipPath>
  </defs>
  <g id="iPhone_14_Pro_Max_3" data-name="iPhone 14 Pro Max – 3" clip-path="url(#clip-iPhone_14_Pro_Max_3)">
    <rect width="250" height="250" fill="#fff"/>
    <g id="New_Orders" data-name="New Orders" transform="translate(12.658 11.87)">
      <path id="Path_256" data-name="Path 256" d="M181.838-491.221c-34.466,19.812-38.784,22.4-39.3,23.568-.752,1.646-.8,55.547-.046,57.191.61,1.362-1.691-.043,26.013,15.919,17.186,9.954,23.806,13.524,24.652,13.429,1.314-.188,47.518-26.714,49.209-28.219l1.032-.938v-57.475l-1.032-.937C240.58-470.329,193.953-497,192.873-497,192.356-497,187.379-494.414,181.838-491.221Zm16.387,5.445c1.925,1.125,3.287,2.2,3.052,2.394-.188.235-9.016,5.4-19.534,11.457l-19.157,11.08-4.227-2.394a41.856,41.856,0,0,1-4.413-2.768c-.094-.191,8.639-5.4,19.392-11.647,17.467-10.048,19.674-11.223,20.52-10.7C194.376-488.032,196.347-486.856,198.226-485.776Zm14.228,8.122a13.4,13.4,0,0,1,2.77,1.832c0,.281-37.846,22.3-38.832,22.587a16.955,16.955,0,0,1-3.335-1.548l-2.958-1.691,3.662-2.161c11.786-6.856,35.593-20.519,35.734-20.519C209.589-479.154,210.9-478.452,212.453-477.654Zm15.5,9.016,4.273,2.536-2.02,1.174c-15.73,9.108-37.189,21.459-37.376,21.459-.47,0-8.593-4.885-8.593-5.213,0-.144,4.7-3.007,10.471-6.293,5.729-3.337,14.321-8.312,19.111-11.08,4.789-2.818,8.922-5.072,9.25-5.12A30.107,30.107,0,0,1,227.949-468.638ZM154.417-456.9l4.227,2.444.234,10.329c.141,5.635.469,10.613.7,11.082a63.448,63.448,0,0,0,7.841,5.024c7.984,4.648,9.768,5.164,11.457,3.286.8-.842.939-1.971,1.127-9.108l.235-8.122,4.225,2.442,4.226,2.441.141,22.865.095,22.822-7.607-4.413c-4.226-2.442-13.1-7.559-19.721-11.364l-12.115-6.95V-436.8c0-12.443.141-22.63.375-22.63C150.05-459.386,152.115-458.259,154.417-456.9Zm81.468,20.193v22.727L216.539-402.8c-10.658,6.1-19.533,11.22-19.721,11.312-.235.1-.376-10.045-.376-22.536v-22.728l19.628-11.314c10.752-6.243,19.627-11.363,19.722-11.363C235.838-459.434,235.884-449.2,235.884-436.708Zm-63.389-3.618c0,3.431-.141,6.248-.329,6.248a16.3,16.3,0,0,1-2.958-1.551l-2.582-1.551-.141-6.384L166.343-450l3.051,1.736,3.053,1.738Z" transform="translate(-83.183 497)" fill="#ed1c24" stroke="#ed1c24" stroke-width="0.2"/>
      <path id="Path_257" data-name="Path 257" d="M94.839-230.263c-5.588.892-10.518,3.24-28.455,13.617L48.635-206.411,46.8-209.416c-2.676-4.507-6.809-6.527-10.988-5.4-1.831.517-12.678,6.386-15.589,8.452-2.019,1.456-3.475,4.742-3.428,7.888,0,2.489.516,3.427,17.7,33.854,12.068,21.412,18.172,31.789,19.3,32.775a10.068,10.068,0,0,0,7.748,2.394,31.348,31.348,0,0,0,7.137-3.144c10-5.589,11.645-7.043,12.584-11.176.563-2.489-.235-5.26-2.63-9.438a24.711,24.711,0,0,1-2.113-4.18,11.7,11.7,0,0,1,3.24-2.348l3.193-1.831,26.952,7.231c14.838,3.944,28.549,7.418,30.474,7.7a29.509,29.509,0,0,0,17-2.911c5.259-2.676,77.617-47.471,79.4-49.162,6.151-5.916,6.292-17.044.235-23.1-5.729-5.681-14.556-6.151-25.685-1.267-1.972.845-13.711,7.466-26.107,14.7-20.332,11.881-26.3,15.121-26.811,14.6a8.507,8.507,0,0,1,.751-2.582,15.442,15.442,0,0,0-5.259-17.42c-2.442-1.784-4.085-2.347-12.349-4.32-3.615-.846-11.128-3.1-16.669-5.025-19.346-6.62-20.848-7.042-24.182-7.325A33.739,33.739,0,0,0,94.839-230.263Zm14.321,9.72c15.73,5.493,23.947,8.123,29.582,9.485,9.2,2.254,9.485,2.3,11.082,3.662,3.991,3.381,3.428,10.237-.986,12.443-3.1,1.6-6.339,1.08-23.853-3.8a92.979,92.979,0,0,0-9.814-2.4c-2.864,0-4.6,3.993-2.535,6.058.939.938,1.5,1.127,14.462,4.7,21.459,5.869,29.957,6.29,38.6,1.925,1.456-.7,12.162-6.856,23.759-13.663,22.257-12.961,25.919-14.885,30.568-16.107,5.588-1.454,10.33-.47,12.49,2.536,1.831,2.583,1.831,8.123-.047,10.706-.7.986-51.886,32.962-75.176,46.908-5.869,3.568-11.035,4.79-16.387,3.944-1.69-.282-15.307-3.757-30.192-7.794-14.932-3.991-27.7-7.279-28.361-7.279-.7,0-3.146,1.08-5.447,2.442-3.569,2.02-4.273,2.3-4.789,1.737-.751-.8-19.533-34.089-19.533-34.606,0-.469,32.869-19.439,36.156-20.894a39.279,39.279,0,0,1,7.748-2.4C98.689-223.455,103.431-222.563,109.16-220.543ZM39.1-207.161c.657.563,34.043,59.115,34.747,61.087.235.564-.047,1.222-.751,1.878-1.268,1.316-12.115,7.373-13.1,7.373a2.117,2.117,0,0,1-1.362-.752c-.329-.376-8.264-14.274-17.608-30.8-13.57-23.994-16.951-30.287-16.669-31.085.329-.893,12.161-8.171,13.476-8.217A2.636,2.636,0,0,1,39.1-207.161Z" transform="translate(-16.798 355.633)" fill="#ed1c24" stroke="#ed1c24" stroke-width="0.2"/>
      <path id="Path_258" data-name="Path 258" d="M50.113-166.31A3.758,3.758,0,0,0,48-162.553c0,2.347,2.254,4.414,4.414,3.992a4.623,4.623,0,0,0,3.569-4.039C55.982-165.324,52.414-167.578,50.113-166.31Z" transform="translate(-33.349 321.777)" fill="#ed1c24" stroke="#ed1c24" stroke-width="0.2"/>
    </g>
  </g>
</svg>
