<svg xmlns="http://www.w3.org/2000/svg" width="29.428" height="34.668" viewBox="0 0 29.428 34.668">
  <g id="salary-_3_" transform="translate(-38.992 511.89)">
    <path id="Path_3453" data-name="Path 3453" d="M53.352-511.789a1.627,1.627,0,0,0-.393.251c-.081.081-3.028,4.132-6.536,9.008-6.2,8.629-6.394,8.88-6.78,9.117a5.043,5.043,0,0,0-.528.359c-.115.115-.122.42-.122,7.186,0,8.053-.041,7.464.576,8.087s-.691.569,14.291.549l13.208-.02.359-.2a2.027,2.027,0,0,0,.874-.969c.135-.3.129.068.108-8.67l-.02-5.967-.576-.366c-.481-.3-.576-.379-.542-.494a2.566,2.566,0,0,0,.075-.948,24.917,24.917,0,0,0-2.147-3.048,26.52,26.52,0,0,1-2.052-2.892c.027-.047.4-.569.82-1.158a10.463,10.463,0,0,0,.813-1.253,1.583,1.583,0,0,0-.4-1.477c-.352-.318-9.706-7.024-9.916-7.112A1.689,1.689,0,0,0,53.352-511.789Zm5.717,4.166c5.222,3.732,5.154,3.671,4.992,4.125a14.453,14.453,0,0,1-1.456,2.079,23.124,23.124,0,0,1-2-2.791c.115-.115.061-.373-.108-.522-.461-.4-4.748-3.441-4.85-3.441a1.3,1.3,0,0,0-.467.3,1.313,1.313,0,0,1-1.639.23c-.332-.169-.474-.163-.643.02-.149.169-9.069,12.51-9.882,13.675a2.536,2.536,0,0,1-.5.549,8.554,8.554,0,0,1-2.147.7c-.068-.068-.068-.068,1.951-2.885,6.509-9.1,11.088-15.416,11.237-15.5C53.954-511.281,53.968-511.267,59.068-507.623Zm-2.106,1.26c.718.508,1.355.969,1.416,1.023.108.095.081.122-.339.413-.582.4-.251.156-7.227,5.358-3.278,2.445-6,4.47-6.055,4.5s.034-.129.2-.359,2.079-2.9,4.26-5.94c3.346-4.66,3.983-5.513,4.1-5.486a2.1,2.1,0,0,0,1.937-.2c.2-.129.373-.23.386-.237S56.251-506.878,56.962-506.364Zm2.3,1.924a45.312,45.312,0,0,1,3.15,4.023c.515.7.962,1.321.989,1.361s-.1,0-.271-.088a1.561,1.561,0,0,0-1.233-.047c-.264.074-.386.081-.433.034s-.4-.494-.792-1a5.581,5.581,0,0,0-.833-.955,1.163,1.163,0,0,0-.467.149,1.4,1.4,0,0,1-1.707-.291.57.57,0,0,0-.386-.21,16.839,16.839,0,0,0-2.608,1.815c-1.341,1-3.258,2.425-4.267,3.183L48.563-495.1l-2.086.643c-1.151.352-2.1.637-2.106.623s.9-.7,2.025-1.538c2.94-2.181,5.337-3.969,8.853-6.6,1.693-1.26,3.177-2.357,3.285-2.425A.768.768,0,0,1,59.258-504.44Zm-1.747,3.956a2.294,2.294,0,0,0,1.917.278l.271-.095.528.7a5.892,5.892,0,0,1,.5.732c-.02.02-3.448,1.084-8.629,2.682-.7.224-1.294.393-1.3.379s6.428-4.843,6.468-4.85A1.594,1.594,0,0,1,57.51-500.484Zm5.29,1.957a.724.724,0,0,1,.3.23c.115.21,2.134,6.719,2.093,6.746s-1.226.732-1.28.759c-.02.014-.325-.908-.671-2.046s-.671-2.113-.711-2.174c-.068-.095-.183-.115-.562-.1a1.459,1.459,0,0,1-1.51-.813.9.9,0,0,0-.257-.325c-.183-.095-16.71,4.951-16.886,5.154-.115.135-.129.129-1.07-.427a9.6,9.6,0,0,1-.948-.6c0-.02,1.687-.549,3.746-1.172s4.626-1.409,5.7-1.741c5.581-1.7,9.5-2.906,11.21-3.42C62.584-498.642,62.523-498.642,62.8-498.527Zm2.5,1.991c1.212,1.626,1.328,1.8,1.328,2.052a1.013,1.013,0,0,1-.068.4,5.286,5.286,0,0,1-1.063.813,20.984,20.984,0,0,1-.684-2.052c-.345-1.124-.7-2.289-.792-2.581s-.142-.508-.108-.474S64.568-497.518,65.3-496.536Zm-5.344,1.226a2.523,2.523,0,0,0,.955.833,3.442,3.442,0,0,0,.725.176l.413.047.61,1.957c.488,1.592.582,1.964.508,2.012-.054.034-2.195,1.314-4.755,2.845-2.77,1.653-4.714,2.77-4.775,2.75-.244-.068-9.6-5.723-9.618-5.811a45.982,45.982,0,0,1,4.944-1.619c2.73-.833,6.258-1.917,7.843-2.411s2.933-.894,2.994-.9A.178.178,0,0,1,59.956-495.31Zm7.058,2.289c.291.169.3.183.183.271a11.114,11.114,0,0,1-1.3.765c-.061,0-.169-.312-.183-.488a5.051,5.051,0,0,1,.935-.725A1.284,1.284,0,0,1,67.013-493.02Zm-23.09,3.38c2.3,1.368,4.206,2.513,4.247,2.547s-1.565,1.687-4.132,4.254c-2.872,2.872-4.22,4.172-4.267,4.125-.075-.074-.142-13.4-.061-13.4C39.731-492.119,41.627-491,43.923-489.64Zm23.733,3.427c.041,5.933.014,7.5-.122,7.552-.088.027-8.378-8.29-8.345-8.378.02-.054,8.3-5.06,8.392-5.073C67.6-492.119,67.636-489.458,67.657-486.213ZM50.69-485.6a23.654,23.654,0,0,0,3.041,1.741c.054,0,1.151-.63,2.438-1.4l2.337-1.4,4.254,4.287c2.621,2.648,4.226,4.315,4.179,4.342-.095.061-26.334.074-26.49.014-.088-.034.894-1.05,4.172-4.335,2.364-2.364,4.3-4.294,4.308-4.294S49.735-486.166,50.69-485.6Z" transform="translate(0 0)" fill="#ed1c24"/>
    <path id="Path_3454" data-name="Path 3454" d="M213.559-210.479a2.607,2.607,0,0,0-1.863,1.443,1.944,1.944,0,0,0-.2,1.1,1.9,1.9,0,0,0,.183,1.063,2.826,2.826,0,0,0,1.24,1.246,1.87,1.87,0,0,0,1.084.2,1.91,1.91,0,0,0,1.063-.183,2.544,2.544,0,0,0,.664-4.206A2.55,2.55,0,0,0,213.559-210.479Zm1.219.881a1.835,1.835,0,0,1,.853.826,1.831,1.831,0,0,1-.386,2.188,1.929,1.929,0,0,1-2.032.312,1.845,1.845,0,0,1-.515-2.96,1.494,1.494,0,0,1,.786-.481A2,2,0,0,1,214.778-209.6Z" transform="translate(-160.824 -280.963)" fill="#ed1c24"/>
    <path id="Path_3455" data-name="Path 3455" d="M306.824-201.635c-.6.2-.643.23-.664.406-.027.21.142.454.312.454a6.969,6.969,0,0,0,.772-.21c.535-.163.684-.237.745-.366a.291.291,0,0,0-.041-.339C307.8-201.912,307.63-201.906,306.824-201.635Z" transform="translate(-249.07 -289.042)" fill="#ed1c24"/>
  </g>
</svg>
