<svg xmlns="http://www.w3.org/2000/svg" width="20.915" height="20.399" viewBox="0 0 20.915 20.399">
  <g id="cancel_1_" data-name="cancel (1)" transform="translate(-20.99 485.005)">
    <path id="Path_2018" data-name="Path 2018" d="M21.591-484.92a.99.99,0,0,0-.534.6,11.694,11.694,0,0,0-.022,2.271.975.975,0,0,0,.526.65l.232.111v5.527c0,6.066-.013,5.772.267,6.159a1.662,1.662,0,0,0,.775.526,20.356,20.356,0,0,0,3.692.08H30l.129-.147a.445.445,0,0,0,.129-.289.53.53,0,0,0-.276-.454c-.058-.013-1.6-.027-3.443-.036A20.288,20.288,0,0,1,23.03-470a.516.516,0,0,1-.209-.16c-.036-.067-.049-1.737-.049-5.594v-5.5H27.4v3.037c0,2.815.009,3.051.08,3.135a.5.5,0,0,0,.41.2c.111,0,.227-.085.659-.485.285-.267.681-.65.877-.846a2.366,2.366,0,0,1,.4-.361,8.414,8.414,0,0,1,.757.717c.392.4.793.775.886.846a.422.422,0,0,0,.632-.022l.151-.151v-6.066h4.627l.013,2.387.013,2.387.147.129a.48.48,0,0,0,.583.058c.223-.16.227-.2.227-2.686V-481.3l.151-.053a1.152,1.152,0,0,0,.543-.517,5.247,5.247,0,0,0,.062-1.287c0-1.256-.013-1.318-.3-1.59s.321-.258-8.507-.258C22.121-485.005,21.761-485,21.591-484.92Zm5.812,1.764v.913H21.97v-1.826H27.4Zm3.919,2.882v3.8l-.566-.561c-.641-.632-.739-.708-.917-.708-.2,0-.285.062-.909.681l-.592.588v-7.594h2.984Zm6.369-2.882v.913H32.258v-1.826h5.434Z" transform="translate(0 0)" fill="red"/>
    <path id="Path_2019" data-name="Path 2019" d="M255.721-266.76A5.356,5.356,0,0,0,251-261.469a5.315,5.315,0,0,0,3.006,4.814,5.32,5.32,0,0,0,5.656-.637,5.308,5.308,0,0,0,1.474-6.471,5.349,5.349,0,0,0-4.271-3A4.106,4.106,0,0,0,255.721-266.76Zm1.336.98a5.057,5.057,0,0,1,1.528.557A5.478,5.478,0,0,1,260.1-263.7a5.16,5.16,0,0,1,.566,1.572,5.75,5.75,0,0,1-.089,1.795,4.4,4.4,0,0,1-3.158,3.131,4.376,4.376,0,0,1-5-2.254,4.392,4.392,0,0,1,3.073-6.3A6.07,6.07,0,0,1,257.057-265.78Z" transform="translate(-219.766 -208.487)" fill="red"/>
    <path id="Path_2020" data-name="Path 2020" d="M322.387-194.884a.443.443,0,0,0-.138.512,9.823,9.823,0,0,0,.748.806l.695.7-.717.73c-.583.588-.726.757-.748.886a.468.468,0,0,0,.548.548c.129-.022.3-.165.886-.748l.73-.717.7.695a9.831,9.831,0,0,0,.806.748.471.471,0,0,0,.628-.459c0-.174-.022-.2-.735-.922l-.735-.739.606-.6c.744-.739.864-.9.864-1.118a.466.466,0,0,0-.7-.379,9.241,9.241,0,0,0-.788.735l-.668.673-.735-.735c-.717-.713-.748-.735-.922-.735A.44.44,0,0,0,322.387-194.884Z" transform="translate(-287.809 -277.089)" fill="red"/>
  </g>
</svg>
