<svg xmlns="http://www.w3.org/2000/svg" width="39.867" height="52" viewBox="0 0 39.867 52">
  <g id="people-_2_" transform="translate(-71.925 495.941)">
    <path id="Path_3083" data-name="Path 3083" d="M73.667-495.806a3.454,3.454,0,0,0-1.6,1.658c-.184.628-.184,16.566,0,17.173a2.842,2.842,0,0,0,1.43,1.571l.553.26H87.535v.975c0,.813-.033.975-.173.975a2.57,2.57,0,0,0-.737.563c-.758.769-.878,1.2-.791,2.958a22.918,22.918,0,0,0,3.521,11.431,19.708,19.708,0,0,0,2.958,3.207l.282.217-.206.8a56.812,56.812,0,0,0-1.344,8.527c-.065.964-.065,1,.206,1.268a.826.826,0,0,0,1.2.032c.217-.217.26-.412.325-1.278a51.1,51.1,0,0,1,1.322-8.2,8.979,8.979,0,0,0,.325-1.809,2.02,2.02,0,0,0-.748-.726c-3.131-2.124-5.5-7.01-6.035-12.427-.184-1.9-.152-2.47.163-2.774a.8.8,0,0,1,1.192,0c.238.228.271.358.271,1a16.717,16.717,0,0,0,2.243,7.985,12.821,12.821,0,0,0,3.445,3.51,8.017,8.017,0,0,0,4.28,1.116,7.837,7.837,0,0,1,3.77.8c3.705,1.755,6.468,6.414,7.021,11.81.054.574.141.813.325,1a.826.826,0,0,0,1.2-.032c.26-.26.271-.314.2-1.105a21.124,21.124,0,0,0-1.842-6.685,15.914,15.914,0,0,0-4.312-5.461,14.893,14.893,0,0,0-1.463-.9c-.455-.249-.856-.466-.878-.477a5.535,5.535,0,0,1,.683-.758,6.047,6.047,0,0,0-3.391-10.25,6.053,6.053,0,0,0-6.869,6.761,5.183,5.183,0,0,1,.076.823,9.708,9.708,0,0,1-1.257-1.983,14.343,14.343,0,0,1-1.463-5.786,5.4,5.4,0,0,0-.271-1.766c-.228-.531-1.04-1.387-1.333-1.387-.13,0-.163-.173-.163-.975v-.975h6.674c4.756,0,6.8-.033,7.1-.13a2.842,2.842,0,0,0,1.571-1.43l.26-.553v-16.577l-.26-.542a3.684,3.684,0,0,0-.618-.888c-.769-.726.173-.683-15.634-.672C78.25-495.925,73.938-495.893,73.667-495.806Zm29.2,1.864.271.26v16.274l-.271.26-.26.271H74.2l-.26-.271-.271-.26v-16.274l.271-.26.26-.271h28.409ZM101.447-467.8a4.141,4.141,0,0,1,2.1,2.059,3,3,0,0,1,.4,1.864,3,3,0,0,1-.4,1.864,4.164,4.164,0,0,1-2.124,2.069,3,3,0,0,1-1.755.347,3,3,0,0,1-1.755-.347,4.164,4.164,0,0,1-2.124-2.069,2.98,2.98,0,0,1-.4-1.853,3.023,3.023,0,0,1,.347-1.766,4.184,4.184,0,0,1,1.864-2.015,3.7,3.7,0,0,1,2.308-.52A3.54,3.54,0,0,1,101.447-467.8Z" fill="#ed1c24"/>
    <path id="Path_3084" data-name="Path 3084" d="M376.427-95.679c-.336.325-.336.574,0,1.582a39.178,39.178,0,0,1,1.246,4.854c.336,1.712.466,1.961,1.105,1.961a.945.945,0,0,0,.845-.8,32.148,32.148,0,0,0-.813-4.041c-.607-2.308-1.008-3.478-1.278-3.662A.846.846,0,0,0,376.427-95.679Z" transform="translate(-271.285 -356.659)" fill="#ed1c24"/>
  </g>
</svg>
