<svg xmlns="http://www.w3.org/2000/svg" width="13.541" height="17.022" viewBox="0 0 13.541 17.022">
  <g id="purchase-order-_1_" transform="translate(-59.5 503)">
    <path id="Path_3848" data-name="Path 3848" d="M59.583-502.935l-.083.065v16.76l.083.065c.079.065.234.065,6.688.065s6.609,0,6.688-.065l.083-.065v-14.065l-1.413-1.413L70.213-503H64.937C59.8-503,59.662-503,59.583-502.935Zm10.278,1.692c.01,1.168.014,1.278.072,1.333s.172.062,1.344.079l1.282.017.01,6.678.007,6.674H59.965v-16.057h9.886Zm1.44.017.913.913H70.337v-.913a7.134,7.134,0,0,1,.028-.913C70.378-502.139,70.8-501.729,71.3-501.225Z" fill="#fff"/>
    <path id="Path_3849" data-name="Path 3849" d="M163.1-460.908a.327.327,0,0,0-.1.193.346.346,0,0,0,.338.293.421.421,0,0,1,.365.234c.01.031.121.944.241,2.03.131,1.141.245,2.019.276,2.088a1.03,1.03,0,0,0,.772.575h.11l-.083.127a.639.639,0,0,0,.224.923.817.817,0,0,0,.572,0,.632.632,0,0,0,.221-.913.488.488,0,0,1-.072-.117c0-.01.372-.017.827-.017s.827.007.827.014a1.141,1.141,0,0,1-.086.162.6.6,0,0,0,.079.73.556.556,0,0,0,.458.2.6.6,0,0,0,.513-.265.72.72,0,0,0,.01-.689.538.538,0,0,1-.079-.128,1.662,1.662,0,0,1,.358-.021c.434,0,.52-.045.52-.272,0-.279.148-.258-2.267-.279a9.225,9.225,0,0,1-2.233-.079.4.4,0,0,1-.169-.334v-.1h1.823c1.206,0,1.857-.014,1.923-.038a.762.762,0,0,0,.338-.307c.024-.048.165-.631.31-1.292.241-1.1.262-1.22.224-1.344a.632.632,0,0,0-.4-.393c-.093-.024-.861-.038-2.384-.038h-2.25v-.1a1,1,0,0,0-.655-.882C163.369-461.039,163.221-461.025,163.1-460.908Zm2.188,1.544a2.14,2.14,0,0,1,.021.241v.114h-.431c-.317,0-.438-.01-.444-.045a1.451,1.451,0,0,1-.034-.241l-.021-.2h.886Zm2.315,0a2.137,2.137,0,0,0-.021.241v.114H166.7c-.675,0-.886-.01-.892-.045a1.449,1.449,0,0,1-.034-.241l-.021-.2h1.871Zm1.247-.083c.028.031.024.1,0,.231l-.041.19-.372.01-.369.01v-.083c0-.045.01-.155.021-.245l.024-.158h.351C168.706-459.492,168.827-459.478,168.851-459.447Zm-3.459,1.03c.01.062.024.172.034.241l.017.131H165c-.434,0-.448,0-.462-.079a1.1,1.1,0,0,1-.028-.382,2.711,2.711,0,0,1,.441-.021h.424Zm2.095.079c-.021.32.052.293-.8.293h-.755l-.021-.131c-.01-.069-.028-.169-.034-.217a.208.208,0,0,1,.007-.114c.014-.01.379-.017.817-.014l.8.01Zm1.182-.079c-.014.062-.038.172-.055.241l-.034.131h-.32c-.314,0-.32,0-.31-.079.007-.041.021-.148.031-.241l.021-.162h.693Zm-3.173.93c.01.045.024.162.038.258l.021.183H165.1c-.4,0-.448-.007-.451-.062,0-.031-.014-.148-.028-.258l-.024-.2h.441C165.467-457.563,165.481-457.559,165.495-457.487Zm1.9.017c-.007.055-.024.169-.034.258l-.021.165h-1.3l-.024-.131a2.121,2.121,0,0,1-.021-.258v-.128h1.413Zm1.085-.069a1.721,1.721,0,0,1-.138.444c-.031.034-.114.048-.279.048h-.238l.017-.148c.014-.079.028-.2.038-.258l.017-.11h.289A.893.893,0,0,1,168.479-457.538Zm-2.874,2.415a.135.135,0,0,1-.069.248c-.121,0-.179-.086-.131-.19A.128.128,0,0,1,165.6-455.123Zm2.564.021a.2.2,0,0,1,.028.131c-.007.065-.031.079-.131.079s-.124-.014-.131-.079a.147.147,0,0,1,.131-.179A.17.17,0,0,1,168.168-455.1Z" transform="translate(-99.934 -40.545)" fill="#fff"/>
    <path id="Path_3850" data-name="Path 3850" d="M104.172-259.888c-.169.062-.172.076-.172.92a7.25,7.25,0,0,0,.028.834c.065.1.19.117.92.117h.744l.083-.086.086-.083v-.762a5.4,5.4,0,0,0-.034-.827c-.062-.114-.227-.138-.927-.134C104.527-259.909,104.2-259.9,104.172-259.888Zm1.2.93.01.458h-.9v-.934l.441.01.438.01Z" transform="translate(-42.967 -234.715)" fill="#fff"/>
    <path id="Path_3851" data-name="Path 3851" d="M168.044-238.938a.243.243,0,0,0,.031.348c.093.072.1.072,4.045.072s3.952,0,4.045-.072a.239.239,0,0,0,.028-.351,28.808,28.808,0,0,0-4.08-.059C168.268-239,168.1-239,168.044-238.938Z" transform="translate(-104.747 -254.903)" fill="#fff"/>
    <path id="Path_3852" data-name="Path 3852" d="M104.069-179.931c-.065.065-.069.114-.069.872,0,.737.007.81.062.861s.169.059.861.059c.755,0,.8,0,.868-.069s.069-.114.069-.844v-.779l-.086-.083-.083-.086h-.779C104.183-180,104.134-180,104.069-179.931Zm1.309.861v.448h-.9v-.9h.9Z" transform="translate(-42.967 -311.871)" fill="#fff"/>
    <path id="Path_3853" data-name="Path 3853" d="M167.991-159.959a.2.2,0,0,0-.121.221c0,.238-.31.221,4.142.221,3.845,0,4.018,0,4.069-.062a.243.243,0,0,0-.031-.348c-.093-.072-.1-.072-4.042-.072C169.131-160,168.042-159.986,167.991-159.959Z" transform="translate(-104.632 -331.181)" fill="#fff"/>
    <path id="Path_3854" data-name="Path 3854" d="M104.059-99.938c-.052.055-.059.169-.059.861,0,.755,0,.8.069.868s.114.069.858.069h.793l.069-.09c.069-.086.072-.134.072-.841s0-.755-.072-.841l-.069-.09h-.8C104.183-100,104.11-99.993,104.059-99.938Zm1.32.868v.448h-.9v-.9h.9Z" transform="translate(-42.967 -389.114)" fill="#fff"/>
    <path id="Path_3855" data-name="Path 3855" d="M167.934-76.945c-.055.038-.076.086-.076.186,0,.258-.32.241,4.142.241,3.945,0,3.99,0,4.059-.069a.254.254,0,0,0,0-.345C175.99-77,175.945-77,172-77A33.955,33.955,0,0,0,167.934-76.945Z" transform="translate(-104.62 -411.322)" fill="#fff"/>
  </g>
</svg>
