<svg xmlns="http://www.w3.org/2000/svg" width="17.08" height="18.944" viewBox="0 0 17.08 18.944">
  <g id="accounting" transform="translate(-32.5 503.715)">
    <path id="Path_2804" data-name="Path 2804" d="M34.261-503.684a1.8,1.8,0,0,0-.753.443,1.982,1.982,0,0,0-.275.424l-.122.256-.011.944-.015.948h2.453v.6l-.944.015-.948.011-.256.122a1.468,1.468,0,0,0-.749.73l-.141.29v9.9l.141.29a1.468,1.468,0,0,0,.749.73l.256.122,2.377.011,2.38.011-.306.608-.306.611h-.577c-.711,0-.833.031-1.085.287a.837.837,0,0,0-.241.913,1.135,1.135,0,0,0,.588.588c.229.065,8.9.065,9.124,0a1.135,1.135,0,0,0,.588-.588.868.868,0,0,0-.21-.894c-.237-.264-.386-.306-1.108-.306h-.585l-.306-.611-.306-.608,2.38-.011,2.38-.011.29-.141a1.468,1.468,0,0,0,.73-.749L49.58-489v-9.9l-.122-.256a1.468,1.468,0,0,0-.73-.749l-.29-.141-.944-.011-.948-.015-.011-1.246-.011-1.249-.122-.256a1.469,1.469,0,0,0-.73-.749l-.29-.141-5.483-.008C36.669-503.719,34.349-503.7,34.261-503.684Zm.642.615a1.135,1.135,0,0,1,.588.588,3.635,3.635,0,0,1,.046.68v.52H33.7v-.52c0-.65.034-.779.287-1.028A.843.843,0,0,1,34.9-503.069Zm10.393,0a1.1,1.1,0,0,1,.588.6c.038.13.046.967.038,3.527l-.011,3.351-.168-.214a3.269,3.269,0,0,0-.478-.459,3.329,3.329,0,0,0-4.455.252,3.342,3.342,0,0,0-.665,3.806,3.678,3.678,0,0,0,.81,1.074c.118.1.233.195.256.21s-1.112.031-2.514.031H36.149l-.008-5.838-.011-5.838-.138-.275-.134-.275H40.5C44.028-503.115,45.178-503.1,45.3-503.069Zm-9.759,3.924v.306l-.722.011c-.791.011-.825.023-1.013.275-.08.1-.08.126-.08,4s0,3.894.08,4a1.041,1.041,0,0,0,.183.183l.1.08h13.9l.1-.08a1.041,1.041,0,0,0,.183-.183c.08-.1.08-.126.08-4s0-3.894-.08-4c-.187-.252-.222-.264-1.013-.275l-.722-.011v-.608h.825a5.711,5.711,0,0,1,.986.046,1.135,1.135,0,0,1,.588.588c.065.229.065,9.507,0,9.736a1.135,1.135,0,0,1-.588.588,1.652,1.652,0,0,1-.39.046H47.73l.023-.191a.882.882,0,0,0-.245-.726c-.26-.29-.336-.306-1.57-.306a7.849,7.849,0,0,0-1.207.046.962.962,0,0,0-.352.241.829.829,0,0,0-.271.745l.023.191H39.007c-3.909,0-5.158-.011-5.281-.046a1.135,1.135,0,0,1-.588-.588c-.065-.229-.065-9.507,0-9.736a1.218,1.218,0,0,1,.565-.585,7.515,7.515,0,0,1,.986-.046l.848,0Zm0,4.589v3.668H34.315v-7.336h1.223Zm12.227,0v3.668H46.542v-7.336h1.223ZM44-496.26a2.58,2.58,0,0,1,1.108.692,2.63,2.63,0,0,1,.7,1.108,2.06,2.06,0,0,1,.1.822,2.06,2.06,0,0,1-.1.822,2.631,2.631,0,0,1-.7,1.108,2.631,2.631,0,0,1-1.108.7,2.06,2.06,0,0,1-.822.1,2.06,2.06,0,0,1-.822-.1,2.631,2.631,0,0,1-1.108-.7,2.631,2.631,0,0,1-.7-1.108,2.06,2.06,0,0,1-.1-.822,2.06,2.06,0,0,1,.1-.822,2.63,2.63,0,0,1,.7-1.108,2.666,2.666,0,0,1,1.448-.783A3.353,3.353,0,0,1,44-496.26Zm1.918,5.361a3.458,3.458,0,0,1-.4,0l-.39-.011.225-.18a2.738,2.738,0,0,0,.394-.394l.164-.21.011.386A3.52,3.52,0,0,1,45.919-490.9Zm1.139,1.941a.3.3,0,0,1,.1.21.3.3,0,0,1-.1.21l-.092.1H44.9l-.092-.1a.3.3,0,0,1-.1-.21.3.3,0,0,1,.1-.21l.092-.1h2.071Zm-3.764,1.738.306.611H38.48l.306-.611.306-.611h3.9Zm2.235,1.318a.3.3,0,0,1,.1.21.3.3,0,0,1-.1.21l-.092.1h-8.8l-.092-.1a.3.3,0,0,1-.1-.21.3.3,0,0,1,.1-.21l.092-.1h8.8Z" fill="#fff"/>
    <path id="Path_2805" data-name="Path 2805" d="M144-471.694v.306h.611V-472H144Z" transform="translate(-107.24 -30.504)" fill="#fff"/>
    <path id="Path_2806" data-name="Path 2806" d="M196.891-469.86v2.14h-.611v-3.057h-1.834v3.057h-.611v-1.834H192v2.445h6.725V-472h-1.834Zm1.223.306v1.834H197.5v-3.668h.611Zm-2.445.611v1.223h-.611v-2.445h.611Zm-2.445.611v.611h-.611v-1.223h.611Z" transform="translate(-153.406 -30.504)" fill="#fff"/>
    <path id="Path_2807" data-name="Path 2807" d="M144-439.694v.306h.611V-440H144Z" transform="translate(-107.24 -61.281)" fill="#fff"/>
    <path id="Path_2808" data-name="Path 2808" d="M144-407.694v.306h.611V-408H144Z" transform="translate(-107.24 -92.058)" fill="#fff"/>
    <path id="Path_2809" data-name="Path 2809" d="M144-327.694v.306h2.445V-328H144Z" transform="translate(-107.24 -169.001)" fill="#fff"/>
    <path id="Path_2810" data-name="Path 2810" d="M144-295.694v.306h2.445V-296H144Z" transform="translate(-107.24 -199.779)" fill="#fff"/>
    <path id="Path_2811" data-name="Path 2811" d="M144-263.694v.306h2.445V-264H144Z" transform="translate(-107.24 -230.556)" fill="#fff"/>
    <path id="Path_2812" data-name="Path 2812" d="M144-231.694v.306h2.445V-232H144Z" transform="translate(-107.24 -261.333)" fill="#fff"/>
    <path id="Path_2813" data-name="Path 2813" d="M144-199.694v.306h2.445V-200H144Z" transform="translate(-107.24 -292.111)" fill="#fff"/>
    <path id="Path_2814" data-name="Path 2814" d="M80-135.694v.306h.611V-136H80Z" transform="translate(-45.685 -353.665)" fill="#fff"/>
    <path id="Path_2815" data-name="Path 2815" d="M112-135.694v.306h.611V-136H112Z" transform="translate(-76.462 -353.665)" fill="#fff"/>
    <path id="Path_2816" data-name="Path 2816" d="M144-135.694v.306h.611V-136H144Z" transform="translate(-107.24 -353.665)" fill="#fff"/>
    <path id="Path_2817" data-name="Path 2817" d="M288.611-295.694v.306H288v.52c0,.65.034.779.287,1.028a.834.834,0,0,0,.627.287c.2,0,.309.141.309.4v.21h-.21c-.176,0-.229-.015-.306-.1a.289.289,0,0,1-.1-.153c0-.046-.057-.057-.306-.057-.34,0-.344,0-.26.275a1.043,1.043,0,0,0,.451.527l.115.046v.68h.611v-.611h.611v-.52c0-.65-.034-.779-.287-1.028a.834.834,0,0,0-.627-.287c-.2,0-.31-.141-.31-.4v-.21h.21c.176,0,.229.015.306.1a.289.289,0,0,1,.1.153c0,.046.057.057.306.057.34,0,.344,0,.26-.275a1.043,1.043,0,0,0-.451-.527l-.115-.046V-296h-.611Z" transform="translate(-245.737 -199.779)" fill="#fff"/>
    <path id="Path_2818" data-name="Path 2818" d="M256.237-247.9a.3.3,0,0,0,.21.516.323.323,0,0,0,.306-.306.323.323,0,0,0-.306-.306A.3.3,0,0,0,256.237-247.9Z" transform="translate(-215.101 -245.945)" fill="#fff"/>
    <path id="Path_2819" data-name="Path 2819" d="M352.237-247.9a.3.3,0,0,0,.21.516.323.323,0,0,0,.306-.306.323.323,0,0,0-.306-.306A.3.3,0,0,0,352.237-247.9Z" transform="translate(-307.433 -245.945)" fill="#fff"/>
  </g>
</svg>
