<svg xmlns="http://www.w3.org/2000/svg" width="11.622" height="13.484" viewBox="0 0 11.622 13.484">
  <g id="Group_17883" data-name="Group 17883" transform="translate(-28 -484.693)">
    <path id="Path_2802" data-name="Path 2802" d="M44.078-490.688a1.114,1.114,0,0,0-.577.307,1.11,1.11,0,0,0-.336.542c-.043.141-.046.568-.04,4.337l.009,4.179.086.126a.609.609,0,0,0,1,0l.086-.126.014-3.866.014-3.869.086-.138a.546.546,0,0,1,.241-.221l.152-.08h3.192a20.593,20.593,0,0,0,3.3-.055.615.615,0,0,0,.043-1.094l-.129-.072-3.488-.006C44.922-490.725,44.219-490.719,44.078-490.688Z" transform="translate(-15.123 975.416)" fill="#fff"/>
    <path id="Path_2803" data-name="Path 2803" d="M128.951-404.735a1.318,1.318,0,0,0-.755.723l-.063.152-.009,4.489c-.006,3.981,0,4.509.037,4.664a1.233,1.233,0,0,0,.973.9c.238.043,6.915.043,7.153,0a1.235,1.235,0,0,0,.835-.574c.192-.321.181-.037.181-4.92,0-2.876-.011-4.464-.032-4.547a1.265,1.265,0,0,0-.675-.838l-.2-.1-3.645-.006A25.361,25.361,0,0,0,128.951-404.735Zm6.8,1.234a.869.869,0,0,1,.215.2l.086.126.009,3.821c.006,2.7,0,3.855-.023,3.933a.656.656,0,0,1-.33.367,17.259,17.259,0,0,1-2.994.055,23.837,23.837,0,0,1-2.985-.046.653.653,0,0,1-.324-.3,26.141,26.141,0,0,1-.049-3.964l.009-3.855.077-.121a.738.738,0,0,1,.152-.167c.2-.126.135-.123,3.157-.118l2.87.006Z" transform="translate(-97.682 891.946)" fill="#fff"/>
  </g>
</svg>
