<svg xmlns="http://www.w3.org/2000/svg" width="16.178" height="16.183" viewBox="0 0 16.178 16.183">
  <g id="city" transform="translate(0.689 0.799)">
    <path id="Path_3642" data-name="Path 3642" d="M-267.573-.043h2.255q.473,0,.947,0h2.217a.389.389,0,0,1,.265.088.405.405,0,0,1,.084.3c0,.021,0,.041,0,.062,0,.069,0,.138,0,.206q0,.074,0,.148c0,.134,0,.268,0,.4s0,.28,0,.42q0,.4,0,.8,0,.453,0,.905,0,.931-.008,1.862h.056l.581-.006.217,0,.312,0,.1,0c.225,0,.225,0,.347.074a.357.357,0,0,1,.095.3c0,.037,0,.074,0,.112,0,.062,0,.062,0,.124q0,.066,0,.131,0,.181,0,.362t0,.39q0,.471,0,.942,0,.133,0,.266,0,.825,0,1.65,0,.191,0,.382c0,.032,0,.063,0,.1q0,.77,0,1.541,0,.79,0,1.581,0,.444,0,.888,0,.378,0,.756,0,.193,0,.386,0,.177,0,.353c0,.063,0,.126,0,.189,0,.037,0,.075,0,.113s0,.064,0,.1a.354.354,0,0,1-.177.245,1.412,1.412,0,0,1-.266.02H-275.91a.421.421,0,0,1-.285-.088.4.4,0,0,1-.083-.291c0-.041,0-.082,0-.124s0-.091,0-.136,0-.1,0-.144c0-.132,0-.265,0-.4s0-.285,0-.428q0-.419,0-.838,0-.341,0-.681c0-.032,0-.065,0-.1q0-.1,0-.2,0-.923,0-1.846,0-.793,0-1.585,0-.92,0-1.84,0-.1,0-.2c0-.032,0-.064,0-.1q0-.34,0-.681,0-.415,0-.829,0-.212,0-.423,0-.194,0-.387,0-.07,0-.14c0-.063,0-.127,0-.19,0-.035,0-.071,0-.107a.4.4,0,0,1,.177-.252.446.446,0,0,1,.23-.036h1.556l.761,0,.588,0h.861a.6.6,0,0,1,.48.142.371.371,0,0,1,.035.2v.088c0,.032,0,.064,0,.1v.1q0,.167,0,.334v.231q0,.3,0,.608t0,.62q0,.609,0,1.218h1.387c0-.418,0-.418-.011-.836q0-.079,0-.158c0-.027,0-.054,0-.082a.484.484,0,0,1,.074-.312.365.365,0,0,1,.281-.1.345.345,0,0,1,.227.1.366.366,0,0,1,.073.265c0,.035,0,.07,0,.106s0,.075,0,.114,0,.077,0,.117q0,.123,0,.246c0,.125,0,.25,0,.376q0,.119,0,.238l0,.114c0,.259,0,.259-.091.386a.665.665,0,0,1-.413.092h-.684l-.369,0h-.421c-.449,0-.449,0-.625-.106a.311.311,0,0,1-.071-.236V7.977c0-.048,0-.048,0-.1,0-.034,0-.067,0-.1q0-.167,0-.333,0-.115,0-.231,0-.3,0-.608,0-.364,0-.729,0-.554,0-1.108h-3.4c.01,2.538.021,5.075.032,7.69l.378-.284c.117-.058.226-.111.347-.158l.078-.03.174-.064-.039-.076a2.3,2.3,0,0,1-.124-1.7,1.582,1.582,0,0,1,.891-.9,1.646,1.646,0,0,1,1.041-.016q.078.035.154.075l.081.039a1.517,1.517,0,0,1,.715.894,2.44,2.44,0,0,1-.2,1.682l.092.035a2.708,2.708,0,0,1,.9.517l.048.043a1.194,1.194,0,0,1,.2.236l.056.084h.063a1.056,1.056,0,0,0,.1-.126,2.314,2.314,0,0,1,1.2-.788l-.039-.076a2.3,2.3,0,0,1-.124-1.7,1.583,1.583,0,0,1,.891-.9,1.646,1.646,0,0,1,1.041-.016q.078.035.154.075l.081.039a1.517,1.517,0,0,1,.715.894,2.44,2.44,0,0,1-.2,1.682l.092.035a2.708,2.708,0,0,1,.9.517l.048.043a1.193,1.193,0,0,1,.2.236l.056.084h.063a1.056,1.056,0,0,0,.1-.126,2.314,2.314,0,0,1,1.2-.788l-.039-.076a2.3,2.3,0,0,1-.124-1.7,1.582,1.582,0,0,1,.891-.9,1.646,1.646,0,0,1,1.041-.016q.078.035.154.075l.081.039a1.517,1.517,0,0,1,.715.894,2.44,2.44,0,0,1-.2,1.682l.1.034c.127.048.25.1.372.163l.107.052a3.57,3.57,0,0,1,.4.287c.01-2.194.021-4.389.031-6.65h-4.129c.006.769.006.769.014,1.539,0,.149,0,.149,0,.219q0,.073,0,.146c0,.074,0,.148,0,.222,0,.042,0,.083,0,.126a.453.453,0,0,1-.177.3.444.444,0,0,1-.323,0,.446.446,0,0,1-.181-.25,2.063,2.063,0,0,1-.011-.243c0-.024,0-.048,0-.072,0-.08,0-.159,0-.239q0-.086,0-.171,0-.232,0-.465t0-.486q0-.46,0-.92,0-.622,0-1.244,0-.979,0-1.959h-4.034V3.889c-.126.158-.126.158-.195.183a.56.56,0,0,1-.307-.034.31.31,0,0,1-.137-.238c0-.036,0-.071,0-.108s0-.081,0-.123,0-.089,0-.133,0-.091,0-.136q0-.143,0-.286c0-.122,0-.244,0-.366,0-.094,0-.188,0-.281q0-.067,0-.135c0-.063,0-.126,0-.189,0-.036,0-.072,0-.108a.355.355,0,0,1,.177-.254.7.7,0,0,1,.209-.018h.062l.2,0h.139l.365,0,.373,0,.732.008V1.627q-.005-.29-.008-.58,0-.108,0-.216c0-.1,0-.207,0-.311l0-.1V.251A.355.355,0,0,1-267.573-.043Zm.265.654V1.683h.492l.309,0,.49,0,.395,0h.151l.211,0h.121a.277.277,0,0,1,.177.08.812.812,0,0,1,.067.416c0,.032,0,.064,0,.1,0,.106,0,.211,0,.317q0,.11,0,.22,0,.289,0,.578,0,.347,0,.694,0,.527,0,1.054h2.427V.612Zm-6.65,9.455a1.118,1.118,0,0,0-.262.8c0,.023,0,.047,0,.071a1.038,1.038,0,0,0,.293.768,1.018,1.018,0,0,0,.788.189.8.8,0,0,0,.252-.126l.1-.067a.929.929,0,0,0,.278-.595,1.323,1.323,0,0,0-.252-1.04A.858.858,0,0,0-273.958,10.066Zm5.169,0a1.118,1.118,0,0,0-.262.8v.071a1.038,1.038,0,0,0,.293.768,1.018,1.018,0,0,0,.788.189.8.8,0,0,0,.252-.126l.1-.067a.929.929,0,0,0,.278-.595,1.323,1.323,0,0,0-.252-1.04A.858.858,0,0,0-268.789,10.066Zm5.169,0a1.118,1.118,0,0,0-.262.8c0,.023,0,.047,0,.071a1.038,1.038,0,0,0,.293.768,1.018,1.018,0,0,0,.788.189.8.8,0,0,0,.252-.126l.1-.067a.93.93,0,0,0,.278-.595,1.323,1.323,0,0,0-.252-1.04A.858.858,0,0,0-263.621,10.066Zm-11.6,2.958c-.595.677-.406,1.632-.406,2.463h4.538a3.345,3.345,0,0,0-.468-2.525,1.912,1.912,0,0,0-1.352-.412h-.983A1.8,1.8,0,0,0-275.222,13.024Zm5.169,0c-.594.677-.406,1.632-.406,2.463h4.538a3.345,3.345,0,0,0-.468-2.525,1.912,1.912,0,0,0-1.352-.412h-.983A1.8,1.8,0,0,0-270.053,13.024Zm5.169,0c-.594.677-.406,1.632-.406,2.463h4.538a3.345,3.345,0,0,0-.468-2.525,1.912,1.912,0,0,0-1.352-.412h-.983A1.8,1.8,0,0,0-264.885,13.024Z" transform="translate(275.591 -0.755)" fill="#fff"/>
    <path id="Path_3643" data-name="Path 3643" d="M-14.92-.346a.425.425,0,0,1,.189.189c.008.124.007.248.008.372l0,.1V.513a.466.466,0,0,1-.106.244A.457.457,0,0,1-15.2.82.6.6,0,0,1-15.393.6C-15.4.481-15.4.363-15.4.245l0-.1a.567.567,0,0,1,.139-.46A.586.586,0,0,1-14.92-.346Z" transform="translate(28.687 6.758)" fill="#fff"/>
    <path id="Path_3644" data-name="Path 3644" d="M-15.028-.808a.666.666,0,0,1,.189.221c.008.113.007.227.008.341l0,.1a.562.562,0,0,1-.16.472.426.426,0,0,1-.292.037c-.175-.1-.175-.1-.221-.189-.01-.128-.01-.257-.012-.386l0-.108c0-.3,0-.3.089-.411A.37.37,0,0,1-15.028-.808Z" transform="translate(27.093 2.839)" fill="#fff"/>
    <path id="Path_3645" data-name="Path 3645" d="M-16.765-1.387a.334.334,0,0,1,.141.259q0,.14,0,.281l0,.1a.563.563,0,0,1-.14.457.381.381,0,0,1-.339.028.432.432,0,0,1-.2-.185,2.294,2.294,0,0,1-.014-.374l0-.1a.578.578,0,0,1,.142-.468A.515.515,0,0,1-16.765-1.387Z" transform="translate(25.704 6.609)" fill="#fff"/>
    <path id="Path_3646" data-name="Path 3646" d="M-16.765-1.387a.334.334,0,0,1,.141.259q0,.14,0,.281l0,.1a.563.563,0,0,1-.14.457.381.381,0,0,1-.339.028.432.432,0,0,1-.2-.185,2.294,2.294,0,0,1-.014-.374l0-.1a.578.578,0,0,1,.142-.468A.515.515,0,0,1-16.765-1.387Z" transform="translate(24.317 6.609)" fill="#fff"/>
    <path id="Path_3647" data-name="Path 3647" d="M-14.955-.384a.449.449,0,0,1,.189.252c.008.108.007.217.008.325l0,.09a.691.691,0,0,1-.1.436.443.443,0,0,1-.316.073A.374.374,0,0,1-15.4.656,1.049,1.049,0,0,1-15.438.2l0-.109c0-.266,0-.266.072-.393A.461.461,0,0,1-14.955-.384Z" transform="translate(27.02 6.796)" fill="#fff"/>
    <path id="Path_3648" data-name="Path 3648" d="M-16.678-1.387a.334.334,0,0,1,.141.259q0,.14,0,.281l0,.1a.57.57,0,0,1-.14.457.586.586,0,0,1-.347.032.425.425,0,0,1-.189-.189c-.009-.123-.009-.247-.01-.37l0-.1a.57.57,0,0,1,.139-.472A.515.515,0,0,1-16.678-1.387Z" transform="translate(25.617 4.025)" fill="#fff"/>
    <path id="Path_3649" data-name="Path 3649" d="M-16.678-1.387a.334.334,0,0,1,.141.259q0,.14,0,.281l0,.1a.57.57,0,0,1-.14.457.586.586,0,0,1-.347.032.425.425,0,0,1-.189-.189c-.009-.123-.009-.247-.01-.37l0-.1a.57.57,0,0,1,.139-.472A.515.515,0,0,1-16.678-1.387Z" transform="translate(24.23 4.025)" fill="#fff"/>
    <path id="Path_3650" data-name="Path 3650" d="M-13.316-.136c.176.1.176.1.221.189.011.119.012.237.014.357l0,.1c0,.236,0,.236-.057.326a.393.393,0,0,1-.277.12h-.059a.442.442,0,0,1-.256-.179,1.434,1.434,0,0,1-.022-.362v-.1a.5.5,0,0,1,.1-.363A.4.4,0,0,1-13.316-.136Z" transform="translate(15.769 7.052)" fill="#fff"/>
    <path id="Path_3651" data-name="Path 3651" d="M-14-.3a.437.437,0,0,1,.189.189c.009.113.009.227.01.341l0,.1a.621.621,0,0,1-.068.356.442.442,0,0,1-.355.09A.4.4,0,0,1-14.44.582,2.732,2.732,0,0,1-14.452.24l0-.095c0-.231,0-.231.074-.354A.418.418,0,0,1-14-.3Z" transform="translate(15.097 5.483)" fill="#fff"/>
    <path id="Path_3652" data-name="Path 3652" d="M-15.874-.98a.3.3,0,0,1,.138.226.56.56,0,0,1-.057.31.477.477,0,0,1-.364.095.4.4,0,0,1-.221-.189.5.5,0,0,1,.057-.378A.434.434,0,0,1-15.874-.98Z" transform="translate(21.762 5.091)" fill="#fff"/>
  </g>
</svg>
