<svg xmlns="http://www.w3.org/2000/svg" width="10.419" height="10.269" viewBox="0 0 10.419 10.269">
  <g id="motorbike" transform="translate(-7.48 -15.25)">
    <path id="Path_3903" data-name="Path 3903" d="M-166.52-5.051a.752.752,0,0,1,.24.36q0,.059,0,.119a.461.461,0,0,0,.2.331,2.791,2.791,0,0,0,.69.4l.1.042a2.434,2.434,0,0,0,1.065.166l.305,0,.161,0a.721.721,0,0,1,.474.133l.033.04.034.039a.875.875,0,0,1,.1.49c0,.031,0,.031,0,.063a.668.668,0,0,1-.163.491.688.688,0,0,1-.5.14h-.174a2.123,2.123,0,0,0,.684,1.485l.044.033a1.031,1.031,0,0,1,.393.642,1.166,1.166,0,0,1-.035.439h.063a1.481,1.481,0,0,1,1,.4,1.655,1.655,0,0,1,.344.583l.028.073a.95.95,0,0,1,.015.353l-.054.036c-.057.042-.057.042-.06.1s0,.123.006.185a1.13,1.13,0,0,1-.316.856,1.156,1.156,0,0,1-.843.3,1.169,1.169,0,0,1-.8-.411,1.413,1.413,0,0,1-.235-.468l-.038.041a.248.248,0,0,1-.2.065c-.091-.033-.114-.083-.153-.167a.692.692,0,0,1-.039-.2l-.035.021a.387.387,0,0,1-.174.027h-1.75l-1.109,0,0,.039-.005.052-.005.051a.967.967,0,0,1-.262.518l-.034.04a1.094,1.094,0,0,1-.722.326,1.138,1.138,0,0,1-.756-.239l-.054-.041a1.032,1.032,0,0,1-.346-.657c0-.03,0-.06,0-.091l-.083.005a.636.636,0,0,1-.437-.179.941.941,0,0,1-.209-.732A4.028,4.028,0,0,1-169.582-.2h2.642l-.021.149a.938.938,0,0,0,.186.715c.016.018.032.035.048.052a1.05,1.05,0,0,0,.034-.253l0-.051q.005-.084.01-.168l.007-.117.015-.247q.009-.157.019-.313.007-.122.015-.243l.007-.115c.012-.19.021-.38.025-.571V-1.4a.226.226,0,0,0-.036-.154.33.33,0,0,0-.155-.046l-.075-.01c-.162-.019-.324-.038-.487-.054-.413-.042-.413-.042-.551-.21l-.036-.042a.734.734,0,0,1-.055-.561c.025-.134.054-.266.082-.4l.031-.148.065-.308q.042-.2.083-.393l.08-.377.015-.072.043-.2.013-.06a.982.982,0,0,1,.311-.621A.714.714,0,0,1-166.52-5.051Zm.005,1.68a1.593,1.593,0,0,0-.128.618.487.487,0,0,0,.245.151l.047.018.148.055.1.037.143.053.254.1.047.018a.519.519,0,0,1,.254.274,1.37,1.37,0,0,1,0,.538l-.008.077-.022.207-.023.218-.044.412q-.04.369-.079.738l-.023.217-.026.241-.008.072-.007.066-.006.058c0,.053,0,.107,0,.16h.639V-2.774l-.426-.085c-.078-.021-.152-.042-.228-.068l-.056-.019a2.576,2.576,0,0,1-.72-.394C-166.487-3.373-166.487-3.373-166.514-3.371ZM-163.34,2a.509.509,0,0,0,.012.374.8.8,0,0,0,.468.459.751.751,0,0,0,.567-.038.792.792,0,0,0,.359-.39l.024-.049a.92.92,0,0,0-.031-.573.41.41,0,0,0-.29-.088h-.134A1.727,1.727,0,0,0-163.34,2Zm-5.71.149a.77.77,0,0,0,.341.554.773.773,0,0,0,.6.083.789.789,0,0,0,.426-.317.742.742,0,0,0,.107-.32Z" transform="translate(179.31 22.28)" fill="#d90810"/>
    <path id="Path_3904" data-name="Path 3904" d="M-22.364-.247h2.38a.551.551,0,0,1,.409.138.783.783,0,0,1,.168.57c0,.018,0,.036,0,.054q0,.089,0,.177,0,.062,0,.124,0,.13,0,.259,0,.166,0,.331,0,.128,0,.256,0,.061,0,.122c0,.546,0,.546-.133.706a.485.485,0,0,1-.369.176h-2.38a.551.551,0,0,1-.409-.138l-.035-.042-.036-.042a.562.562,0,0,1-.08-.36V2.022q0-.1,0-.207,0-.072,0-.144,0-.151,0-.3,0-.194,0-.387,0-.149,0-.3,0-.071,0-.143c0-.067,0-.133,0-.2V.279A.531.531,0,0,1-22.713-.1l.042-.035.042-.036A.428.428,0,0,1-22.364-.247Z" transform="translate(30.331 17.894)" fill="#d90810"/>
    <path id="Path_3905" data-name="Path 3905" d="M-11.425-.124H-8.78a.267.267,0,0,1,.139.048.367.367,0,0,1,.047.243c0,.017,0,.035,0,.053q0,.083,0,.167Q-8.6.44-8.6.5q0,.139,0,.277Q-9.145.78-9.692.783l-.508,0-.443,0-.234,0h-.262l-.078,0c-.171,0-.171,0-.238-.058A.829.829,0,0,1-11.538.6l-.035-.065L-11.6.481l-.026-.058a.759.759,0,0,1-.048-.288l0-.079A.2.2,0,0,1-11.6-.1.5.5,0,0,1-11.425-.124Z" transform="translate(21.032 20.969)" fill="#d90810"/>
    <path id="Path_3906" data-name="Path 3906" d="M-61.555-6.124a.935.935,0,0,1,.386.6.912.912,0,0,1-.177.68.814.814,0,0,1-.539.316.939.939,0,0,1-.721-.2.839.839,0,0,1-.288-.609.868.868,0,0,1,.244-.668A.9.9,0,0,1-61.555-6.124Z" transform="translate(74.978 21.508)" fill="#d90810"/>
  </g>
</svg>
