<svg xmlns="http://www.w3.org/2000/svg" width="10.824" height="10.824" viewBox="0 0 10.824 10.824">
  <path id="Icon_material-local-offer" data-name="Icon material-local-offer" d="M13.5,8.185,8.634,3.314A1.076,1.076,0,0,0,7.871,3H4.082A1.086,1.086,0,0,0,3,4.082V7.871a1.08,1.08,0,0,0,.319.769L8.19,13.51a1.076,1.076,0,0,0,.763.314,1.058,1.058,0,0,0,.763-.319L13.5,9.716a1.058,1.058,0,0,0,.319-.763,1.093,1.093,0,0,0-.319-.769ZM4.894,5.706a.812.812,0,1,1,.812-.812A.811.811,0,0,1,4.894,5.706Z" transform="translate(-3 -3)" fill="#fff"/>
</svg>
