<svg xmlns="http://www.w3.org/2000/svg" width="14.363" height="13.287" viewBox="0 0 14.363 13.287">
  <g id="wallet-_1_" transform="translate(-14 479.715)">
    <path id="Path_2926" data-name="Path 2926" d="M22.22-479.691c-.214.042-8.111,2.757-8.167,2.807A40.4,40.4,0,0,0,14-472.049c0,4.677,0,4.793.059,4.941a.952.952,0,0,0,.365.484c.315.211-.172.2,6.416.2,6.449,0,6.125.009,6.389-.16a1.119,1.119,0,0,0,.389-.463l.077-.163L27.7-468.6l.009-1.386.16-.012a.516.516,0,0,0,.43-.291c.056-.11.059-.175.059-1.4a4.767,4.767,0,0,0-.056-1.4.639.639,0,0,0-.11-.169.679.679,0,0,0-.38-.142h-.1l-.009-1.389-.009-1.386-.077-.166a1,1,0,0,0-.751-.588c-.11-.021-.686-.033-1.537-.033H23.971v-.736c0-.8-.021-.953-.172-1.235a1.741,1.741,0,0,0-.626-.611A1.5,1.5,0,0,0,22.22-479.691Zm.712.49a1.18,1.18,0,0,1,.561.591,2.447,2.447,0,0,1,.062.905v.742l-4.027,0c-2.217,0-4.009-.009-3.986-.018.181-.071,6.683-2.291,6.74-2.3A1.294,1.294,0,0,1,22.933-479.2Zm3.926,2.686a.661.661,0,0,1,.38.338,5.025,5.025,0,0,1,.056,1.445v1.327l-1.119.009c-1.122.009-1.122.009-1.318.086a1.7,1.7,0,0,0-.665.424,1.7,1.7,0,0,0,.027,2.407,1.584,1.584,0,0,0,.407.3c.368.178.448.187,1.611.187H27.3v2.665l-.083.157a.453.453,0,0,1-.24.24l-.157.083H20.852c-5.315,0-5.977-.006-6.075-.045a.579.579,0,0,1-.306-.288c-.053-.107-.056-.246-.056-4.742v-4.63h6.167C24.79-476.548,26.782-476.539,26.859-476.515Zm1.054,3.564a7.428,7.428,0,0,1,.036,1.261v1.226l-.068.044a5.92,5.92,0,0,1-1.386.036,5.043,5.043,0,0,1-1.49-.071,1.316,1.316,0,0,1-.73-1.858,1.307,1.307,0,0,1,.733-.605c.193-.065.223-.065,1.531-.068A8.7,8.7,0,0,1,27.912-472.951Z" transform="translate(0 0)" fill="#fff"/>
    <path id="Path_2927" data-name="Path 2927" d="M377.5-234.054a.705.705,0,0,0-.359.291.655.655,0,0,0-.107.484.728.728,0,0,0,1.223.442.623.623,0,0,0,.217-.445.653.653,0,0,0-.211-.591A.707.707,0,0,0,377.5-234.054Zm.475.466a.317.317,0,0,1-.131.531.323.323,0,0,1-.38-.184A.313.313,0,0,1,377.973-233.588Z" transform="translate(-352.253 -238.327)" fill="#fff"/>
    <path id="Path_2931" data-name="Path 2931" d="M-11.125-.03h2.181A.321.321,0,0,1-8.69.13a.346.346,0,0,1,.018.141V.341a.357.357,0,0,1-.16.212,1.067,1.067,0,0,1-.247.018h-2.181a.321.321,0,0,1-.254-.159A.346.346,0,0,1-11.53.271V.2C-11.475-.011-11.318-.029-11.125-.03Z" transform="translate(29.854 -470.662)" fill="#fff"/>
    <path id="Path_2932" data-name="Path 2932" d="M-11.125-.03h2.181A.321.321,0,0,1-8.69.13a.346.346,0,0,1,.018.141V.341a.357.357,0,0,1-.16.212,1.067,1.067,0,0,1-.247.018h-2.181a.321.321,0,0,1-.254-.159A.346.346,0,0,1-11.53.271V.2C-11.475-.011-11.318-.029-11.125-.03Z" transform="translate(29.854 -471.791)" fill="#fff"/>
    <path id="Path_2933" data-name="Path 2933" d="M-11.125-.03h2.181A.321.321,0,0,1-8.69.13a.346.346,0,0,1,.018.141V.341a.357.357,0,0,1-.16.212,1.067,1.067,0,0,1-.247.018h-2.181a.321.321,0,0,1-.254-.159A.346.346,0,0,1-11.53.271V.2C-11.475-.011-11.318-.029-11.125-.03Z" transform="translate(29.854 -472.92)" fill="#fff"/>
    <path id="Path_2934" data-name="Path 2934" d="M-13.054-.024h.288c.1,0,.2,0,.3,0h.28c.206,0,.206,0,.317.087a.3.3,0,0,1,.07.215V.348a.336.336,0,0,1-.16.212,1.516,1.516,0,0,1-.317.019h-.288c-.1,0-.2,0-.3,0h-.28c-.206,0-.206,0-.317-.087a.3.3,0,0,1-.07-.215V.207C-13.466-.038-13.264-.026-13.054-.024Z" transform="translate(29.596 -470.669)" fill="#fff"/>
    <path id="Path_2935" data-name="Path 2935" d="M-13.054-.024h.288c.1,0,.2,0,.3,0h.28c.206,0,.206,0,.317.087a.3.3,0,0,1,.07.215V.348a.336.336,0,0,1-.16.212,1.516,1.516,0,0,1-.317.019h-.288c-.1,0-.2,0-.3,0h-.28c-.206,0-.206,0-.317-.087a.3.3,0,0,1-.07-.215V.207C-13.466-.038-13.264-.026-13.054-.024Z" transform="translate(29.596 -471.797)" fill="#fff"/>
    <path id="Path_2936" data-name="Path 2936" d="M-13.054-.024h.288c.1,0,.2,0,.3,0h.28c.206,0,.206,0,.317.087a.3.3,0,0,1,.07.215V.348a.336.336,0,0,1-.16.212,1.516,1.516,0,0,1-.317.019h-.288c-.1,0-.2,0-.3,0h-.28c-.206,0-.206,0-.317-.087a.3.3,0,0,1-.07-.215V.207C-13.466-.038-13.264-.026-13.054-.024Z" transform="translate(29.596 -472.926)" fill="#fff"/>
  </g>
</svg>
