<svg xmlns="http://www.w3.org/2000/svg" width="13.879" height="14.29" viewBox="0 0 13.879 14.29">
  <g id="blueprint-_1_" transform="translate(-27 491.719)">
    <path id="Path_3065" data-name="Path 3065" d="M27.13-491.7a.227.227,0,0,0-.1.088c-.024.042-.033,1.433-.033,4.561v4.5l.079.061c.079.064.1.064,2.045.064h1.967v2.418c0,2.388,0,2.421.061,2.485a.323.323,0,0,0,.13.082c.036.009,2.185.012,4.773.009l4.709-.009.058-.073c.058-.07.058-.224.058-7.064s0-6.994-.058-7.064l-.058-.073-6.785-.006C30.109-491.722,27.17-491.713,27.13-491.7Zm13.264,7.121v6.667H31.576l-.006-2.442-.009-2.442-.073-.058c-.067-.055-.145-.058-2.036-.058H27.485v-8.333H40.394Z" transform="translate(0 0)" fill="#fff"/>
    <path id="Path_3066" data-name="Path 3066" d="M69.061-447.939c-.061.061-.061.1-.061,3.267v3.209l.07.064c.07.067.073.067,1.573.067,1.473,0,1.5,0,1.582-.064l.079-.061v-2h.758v.994c0,.976,0,1,.064,1.055s.145.058,1.676.073l1.609.015.009.355.009.355-1.6.009-1.594.009-.073.085-.073.085v1.949c0,1.927,0,1.951.064,2.03l.061.079h3.5c3.458,0,3.5,0,3.558-.061s.061-.1.061-2.033c0-1.227-.012-1.991-.03-2.027-.055-.1-.2-.121-.9-.121h-.679v-.727h.736c.733,0,.739,0,.8-.07l.067-.07v-3.2c0-3.164,0-3.2-.061-3.264S80.173-448,76.7-448s-3.515,0-3.576.061-.061.1-.061,1.03v.97H72.3v-.964c0-.927,0-.967-.061-1.03L72.179-448H70.652C69.161-448,69.118-448,69.061-447.939Zm2.758,1.352c0,.942.006,1.009.118,1.094a6.838,6.838,0,0,0,1.494,0c.1-.076.115-.194.115-1.112v-.906h3.061v3.245l.076.073a.236.236,0,0,0,.167.076.236.236,0,0,0,.167-.076l.076-.073v-3.245h2.758v.879h-.467c-.482,0-.633.027-.685.121-.018.036-.03.67-.03,1.652v1.594l.076.073c.073.076.082.076.591.076h.515v1.3h-.7c-.706,0-.785.009-.867.118a2.9,2.9,0,0,0-.039.733c0,.648,0,.691.064.767l.061.079h1.482v3.273H78.061v-.485c0-.476,0-.488-.076-.561l-.073-.076H75.239l-.073.076c-.073.073-.076.085-.076.561v.485H73.576v-3.273h1.591c1.536,0,1.594,0,1.648-.058.088-.088.1-.2.088-.879l-.009-.615-.085-.073-.085-.073H73.545v-.955c0-1-.012-1.1-.136-1.148-.027-.009-.361-.018-.742-.018-.633,0-.7.006-.761.058l-.073.058-.009,1-.009,1h-2.33v-1.121h.5a5.179,5.179,0,0,0,.548-.018c.133-.052.136-.106.136-1.724a12.54,12.54,0,0,0-.036-1.6c-.07-.133-.109-.139-.636-.142h-.509v-1.091h2.333Zm8.03,1.709v1.273h-.7v-2.545h.7Zm-9.667.2v1.258h-.7v-2.515h.7Zm7.394,7.515v.318h-2v-.636h2Z" transform="translate(-40.727 -42.394)" fill="#fff"/>
  </g>
</svg>
