<svg xmlns="http://www.w3.org/2000/svg" width="15.689" height="16.424" viewBox="0 0 15.689 16.424">
  <g id="bill-_6_" transform="translate(-11.992 511.94)">
    <path id="Path_2866" data-name="Path 2866" d="M12.6-511.913a.845.845,0,0,0-.4.26c-.228.253-.212-.273-.212,6.343v5.993l.077.16a.924.924,0,0,0,.2.27c.257.225.087.212,2.859.221l2.506.01.022.2a1.318,1.318,0,0,0,.751,1.03l.215.1,1.662.01,1.659.01v.3a1.411,1.411,0,0,0,.709,1.309c.3.176.369.183,2.724.183,2.409,0,2.31.01,2.31-.205,0-.132-.055-.18-.247-.215a.518.518,0,0,1-.228-.1c-.164-.151-.167-.17-.167-1.72a6.734,6.734,0,0,0-.061-1.636,1.4,1.4,0,0,0-.767-.879l-.215-.1-1.145-.01L23.7-500.4v-3.234a30.172,30.172,0,0,0-.045-3.295c-.077-.1-.318-.074-.581.064a1.045,1.045,0,0,1-.279.115,1.179,1.179,0,0,1-.289-.122.719.719,0,0,0-.423-.115.733.733,0,0,0-.42.122c-.257.138-.35.138-.552.01a.775.775,0,0,0-.885,0,.423.423,0,0,1-.549-.013l-.148-.09v-2.137c0-2.429.01-2.332-.257-2.6s-.051-.257-3.526-.253C14.062-511.939,12.647-511.926,12.6-511.913Zm6.291.436c.173.09.221.218.221.568v.314H12.378v-.269a1.48,1.48,0,0,1,.035-.362.527.527,0,0,1,.237-.266c.035-.016,1.434-.029,3.106-.029A24.614,24.614,0,0,1,18.893-511.477Zm.221,2.9v1.6l-.087.022a.744.744,0,0,0-.218.106.443.443,0,0,1-.523,0,1.09,1.09,0,0,0-.3-.125c-.148-.032-.17-.032-.25.029l-.087.064-.01,2.862-.006,2.858H12.378v-9.015h6.737Zm.436,2.1a.71.71,0,0,0,.414.112.71.71,0,0,0,.414-.112,1.029,1.029,0,0,1,.292-.112,1.029,1.029,0,0,1,.292.112.71.71,0,0,0,.414.112.736.736,0,0,0,.42-.112,1.056,1.056,0,0,1,.289-.112,1.056,1.056,0,0,1,.289.112.819.819,0,0,0,.786.032l.157-.077-.006,3.054-.01,3.054-1.267.016-1.267.016-.2.093a1.424,1.424,0,0,0-.648.683,1.987,1.987,0,0,0-.093.715,1.512,1.512,0,0,1-.093.68.894.894,0,0,1-1.572.029l-.087-.148-.01-4.094-.006-4.094.151.074a.782.782,0,0,0,.754-.032.9.9,0,0,1,.289-.112A.91.91,0,0,1,19.551-506.472Zm-1.912,6.561v.834H15.194a12.608,12.608,0,0,1-2.557-.058c-.231-.115-.244-.154-.253-.924l-.01-.687h5.265Zm8.348-.019a1.18,1.18,0,0,1,.545.494c.074.151.074.157.09,1.707a7.237,7.237,0,0,0,.071,1.678l.055.122-1.851-.01-1.851-.01-.135-.074a1.063,1.063,0,0,1-.452-.436l-.087-.164L22.355-498c-.019-1.319-.022-1.386-.087-1.553a2.1,2.1,0,0,0-.154-.3.745.745,0,0,1-.08-.141c0-.01.857-.016,1.9-.01A9.277,9.277,0,0,1,25.987-499.931Zm-4.543.032a1,1,0,0,1,.279.215c.192.221.215.353.215,1.206v.748H20.927c-.555,0-1.011,0-1.011-.01a.889.889,0,0,1,.08-.119,1.535,1.535,0,0,0,.241-.995c.016-.456.029-.549.09-.661a1.05,1.05,0,0,1,.462-.42A.994.994,0,0,1,21.444-499.9Z" transform="translate(0 0)" fill="#fff"/>
    <path id="Path_2867" data-name="Path 2867" d="M219.085-317.933a.192.192,0,0,0-.026.3c.055.048.176.055,1.1.055.969,0,1.046,0,1.094-.058a.232.232,0,0,0,.029-.25c-.064-.1-.176-.109-1.139-.109C219.207-318,219.169-318,219.085-317.933Z" transform="translate(-200.368 -187.718)" fill="#fff"/>
    <path id="Path_2868" data-name="Path 2868" d="M219.132-281.936a.206.206,0,0,0-.019.273c.035.051.1.064.289.074.366.019.5-.035.5-.205s-.1-.205-.417-.205C219.238-282,219.186-281.99,219.132-281.936Z" transform="translate(-200.434 -222.563)" fill="#fff"/>
    <path id="Path_2869" data-name="Path 2869" d="M250.221-281.917c-.087.109-.083.16.013.253l.077.08H251.7c1.553,0,1.534,0,1.534-.208s.022-.209-1.543-.209h-1.405Z" transform="translate(-230.525 -222.563)" fill="#fff"/>
    <path id="Path_2870" data-name="Path 2870" d="M219.15-246.1a.2.2,0,0,0,0,.273,1.092,1.092,0,0,0,.722,0,.2.2,0,0,0,0-.273A1.092,1.092,0,0,0,219.15-246.1Z" transform="translate(-200.462 -257.25)" fill="#fff"/>
    <path id="Path_2871" data-name="Path 2871" d="M250.155-245.929a.171.171,0,0,0,.013.25c.061.061.106.064,1.485.064,1.338,0,1.428,0,1.476-.058a.214.214,0,0,0,0-.276c-.045-.045-.225-.051-1.489-.051H250.2Z" transform="translate(-230.476 -257.408)" fill="#fff"/>
    <path id="Path_2872" data-name="Path 2872" d="M219.064-210.936a.237.237,0,0,0-.064.144c0,.16.1.209.417.209s.417-.048.417-.209-.1-.209-.417-.209C219.17-211,219.119-210.99,219.064-210.936Z" transform="translate(-200.366 -291.286)" fill="#fff"/>
    <path id="Path_2873" data-name="Path 2873" d="M250.233-210.92c-.1.093-.1.144-.013.253l.064.083h1.405c1.566,0,1.543,0,1.543-.209s.019-.209-1.534-.209H250.31Z" transform="translate(-230.525 -291.285)" fill="#fff"/>
    <path id="Path_2874" data-name="Path 2874" d="M102.538-143.9a.2.2,0,0,0-.055.337c.042.038.173.048.8.048.683,0,.751-.006.8-.058a.237.237,0,0,0,.029-.253.27.27,0,0,0-.112-.071A8.494,8.494,0,0,0,102.538-143.9Z" transform="translate(-87.52 -356.207)" fill="#fff"/>
    <path id="Path_2875" data-name="Path 2875" d="M353.466-121.933a.222.222,0,0,0-.083.138c0,.048-.039.1-.119.151a1.13,1.13,0,0,0-.215.2.679.679,0,0,0-.067.635.755.755,0,0,0,.642.414.238.238,0,0,1,.209.237.232.232,0,0,1-.234.257.254.254,0,0,1-.266-.241c-.026-.148-.08-.2-.212-.2-.327,0-.189.632.17.78.074.032.093.061.093.132a.226.226,0,0,0,.205.221.274.274,0,0,0,.212-.237c0-.045.038-.09.119-.132a.654.654,0,0,0,.324-.513.667.667,0,0,0-.536-.706c-.2-.032-.266-.061-.334-.151a.244.244,0,0,1,.324-.343.273.273,0,0,1,.148.228.212.212,0,0,0,.208.186c.189,0,.25-.215.135-.468-.058-.132-.27-.334-.346-.334-.022,0-.042-.035-.042-.08,0-.09-.128-.241-.2-.241A.3.3,0,0,0,353.466-121.933Z" transform="translate(-330.001 -377.43)" fill="#fff"/>
    <path id="Path_2876" data-name="Path 2876" d="M411.1-113.095a.211.211,0,0,0,.006.279c.051.045.138.055.526.055.411,0,.472-.006.517-.058a.2.2,0,0,0,0-.273A2.4,2.4,0,0,0,411.1-113.095Z" transform="translate(-386.252 -385.996)" fill="#fff"/>
    <path id="Path_2877" data-name="Path 2877" d="M411.071-85.036a.169.169,0,0,0-.071.157c0,.183.074.209.584.209.4,0,.449-.006.507-.064a.187.187,0,0,0-.055-.318A2.565,2.565,0,0,0,411.071-85.036Z" transform="translate(-386.207 -413.155)" fill="#fff"/>
    <path id="Path_2878" data-name="Path 2878" d="M411.071-55.949a.169.169,0,0,0-.071.157c0,.18.077.209.555.209.494,0,.6-.039.6-.218a.229.229,0,0,0-.064-.135c-.058-.058-.106-.064-.507-.064C411.237-56,411.128-55.99,411.071-55.949Z" transform="translate(-386.207 -441.313)" fill="#fff"/>
  </g>
</svg>
