<svg xmlns="http://www.w3.org/2000/svg" width="15.253" height="15.513" viewBox="0 0 15.253 15.513">
  <g id="employees" transform="translate(-12.619 -8.325)">
    <path id="Path_3673" data-name="Path 3673" d="M-162.658-20a3.8,3.8,0,0,1,1.08,1.323l.084-.025a3.66,3.66,0,0,1,2.266.057l.025-.083a2.99,2.99,0,0,1,1.354-1.484l.094-.053a3.36,3.36,0,0,1,2.413-.268,3.484,3.484,0,0,1,1.254.666l.075.061a3.317,3.317,0,0,1,1.022,1.694l.025.089a2.867,2.867,0,0,1,.049.588l0,.084a.974.974,0,0,1-.3.714,4.543,4.543,0,0,1-3.168.815,3.869,3.869,0,0,1-.779-.066l0,.106a1.174,1.174,0,0,1-.241.888,1.913,1.913,0,0,1-.484.355l-.076.042a4.735,4.735,0,0,1-1.491.4l-.063.008a4.6,4.6,0,0,1-.538.029h-.281l-.283,0a4.213,4.213,0,0,1-2.873-.813.875.875,0,0,1-.259-.611c0-.024,0-.047,0-.072s0-.049,0-.074,0-.05,0-.075q0-.092,0-.183l-.094.031a5.442,5.442,0,0,1-3.667-.658,1.23,1.23,0,0,1-.407-.6,3.244,3.244,0,0,1,.762-2.377A3.363,3.363,0,0,1-162.658-20Zm-4.154.853a2.766,2.766,0,0,0-.635,1.911c.023.182.132.263.268.371a3.85,3.85,0,0,0,1.777.539l.092.011a7.663,7.663,0,0,0,1.663-.042l.038-.113a3.472,3.472,0,0,1,1.56-1.956,2.137,2.137,0,0,0-.778-1.107,3.5,3.5,0,0,0-.86-.472l-.059-.023A2.863,2.863,0,0,0-166.812-19.152Zm9.339-.721-.092.049a2.765,2.765,0,0,0-1.255,1.393l.063.045a3.744,3.744,0,0,1,1.5,2.023,5.4,5.4,0,0,0,3.573-.5l.09-.061a.567.567,0,0,0,.205-.456,2.757,2.757,0,0,0-.789-1.92l-.07-.07-.066-.066a2.851,2.851,0,0,0-2.1-.728A2.437,2.437,0,0,0-157.472-19.873Zm-4.858,2.194-.078.069a2.779,2.779,0,0,0-.87,1.835l0,.119,0,.12a.719.719,0,0,0,.309.465,5.521,5.521,0,0,0,3.821.447,2.323,2.323,0,0,0,1.493-.724,2.242,2.242,0,0,0-.282-1.544,3.26,3.26,0,0,0-.532-.692l-.066-.066a2.837,2.837,0,0,0-1.978-.753A2.887,2.887,0,0,0-162.33-17.679Z" transform="translate(180.539 37.903)" fill="#fff"/>
    <path id="Path_3674" data-name="Path 3674" d="M-243.007-21.24q.084.073.167.149l.046.042a3.284,3.284,0,0,1,.831,1.212l.067-.044a1.868,1.868,0,0,1,1.471-.357,1.764,1.764,0,0,1,.75.4l.057.045a1.589,1.589,0,0,1,.47.913l.006.076.007.088a1.686,1.686,0,0,1-.422,1.2,1.722,1.722,0,0,1-1.183.556,1.7,1.7,0,0,1-1.191-.439c-.061-.063-.119-.127-.174-.2a1.711,1.711,0,0,0-.139-.149l-.051.035a3.587,3.587,0,0,1-1.109.436l.009.1a1.887,1.887,0,0,1-.378,1.422,1.61,1.61,0,0,1-1.048.558,1.89,1.89,0,0,1-1.341-.4A1.715,1.715,0,0,1-246.7-16.7a3.488,3.488,0,0,1,.031-.564l-.106-.025a3.673,3.673,0,0,1-.861-.33.642.642,0,0,0-.193-.084l-.035.052a1.664,1.664,0,0,1-1.1.688,1.72,1.72,0,0,1-1.238-.312l-.131-.114-.057-.045a1.56,1.56,0,0,1-.475-.958,1.688,1.688,0,0,1,.388-1.293q.072-.075.145-.149l.055-.056a1.68,1.68,0,0,1,1.167-.383,1.511,1.511,0,0,1,.887.336.261.261,0,0,0,.147.071l.029-.114a3.123,3.123,0,0,1,1.595-1.638A3.368,3.368,0,0,1-243.007-21.24Zm-3.939.525-.071.061a2.9,2.9,0,0,0-.65.973l-.037.082a.464.464,0,0,0,0,.4l.037.075a.652.652,0,0,1,.058.365l0,.1q0,.1-.012.205a.41.41,0,0,0,.081.341,1.522,1.522,0,0,0,.224.125l.092.048a4.791,4.791,0,0,0,.785.234l.064-.075a1.726,1.726,0,0,1,1.225-.684,1.731,1.731,0,0,1,1.209.392,1.718,1.718,0,0,1,.243.28c.042.06.042.06.107.066a1.942,1.942,0,0,0,1.195-.513.432.432,0,0,0,.006-.149l0-.089q0-.092-.007-.183a1.331,1.331,0,0,1,.077-.514,1.156,1.156,0,0,0-.214-.788,2.86,2.86,0,0,0-1.71-1.378A2.856,2.856,0,0,0-246.946-20.715Zm-3.191,1.357a1.268,1.268,0,0,0-.257.9,1.319,1.319,0,0,0,.46.8,1.269,1.269,0,0,0,.888.223,1.315,1.315,0,0,0,.846-.551,1.266,1.266,0,0,0,.131-.982,1.359,1.359,0,0,0-.594-.711A1.229,1.229,0,0,0-250.137-19.358Zm8.446-.029a1.231,1.231,0,0,0-.279.959,1.2,1.2,0,0,0,.445.753,1.255,1.255,0,0,0,.92.237,1.228,1.228,0,0,0,.784-.5,1.232,1.232,0,0,0,.193-.909,1.28,1.28,0,0,0-.518-.767A1.216,1.216,0,0,0-241.691-19.387Zm-4.3,1.835a1.24,1.24,0,0,0-.22.906,1.129,1.129,0,0,0,.142.381l.053.1a1.245,1.245,0,0,0,.853.514,1.244,1.244,0,0,0,.924-.3,1.273,1.273,0,0,0,.4-.936,1.264,1.264,0,0,0-.407-.846A1.225,1.225,0,0,0-245.991-17.552Z" transform="translate(265.124 33.887)" fill="#fff"/>
    <path id="Path_3675" data-name="Path 3675" d="M-116.521-13.2c.078.061.152.124.225.19l.065.056a2.229,2.229,0,0,1,.694,1.411,2.537,2.537,0,0,1-.568,1.878,2.37,2.37,0,0,1-1.621.8,2.476,2.476,0,0,1-1.835-.641,2.4,2.4,0,0,1-.73-1.66,2.412,2.412,0,0,1,.641-1.717A2.441,2.441,0,0,1-116.521-13.2Zm-2.758.615a1.967,1.967,0,0,0-.542,1.423,1.941,1.941,0,0,0,.642,1.349,1.967,1.967,0,0,0,1.427.481,1.934,1.934,0,0,0,1.3-.669,2.029,2.029,0,0,0,.439-1.567,1.874,1.874,0,0,0-.125-.407l-.034-.083a1.931,1.931,0,0,0-1.062-.982A1.972,1.972,0,0,0-119.279-12.583Z" transform="translate(143.405 21.949)" fill="#fff"/>
    <path id="Path_3676" data-name="Path 3676" d="M-70.827-3.553l.076.03a1.657,1.657,0,0,1,.842.876,1.794,1.794,0,0,1-.057,1.389,1.841,1.841,0,0,1-.986.839A1.8,1.8,0,0,1-72.3-.575a1.721,1.721,0,0,1-.721-.877l-.034-.09a1.757,1.757,0,0,1,.164-1.324,1.721,1.721,0,0,1,1-.759A1.874,1.874,0,0,1-70.827-3.553Zm-1.546.782a1.226,1.226,0,0,0-.272.879,1.323,1.323,0,0,0,.517.862,1.216,1.216,0,0,0,.895.183,1.263,1.263,0,0,0,.8-.56,1.22,1.22,0,0,0,.131-.9,1.2,1.2,0,0,0-.612-.757A1.224,1.224,0,0,0-72.373-2.771Z" transform="translate(91.543 11.993)" fill="#fff"/>
    <path id="Path_3677" data-name="Path 3677" d="M-51.884-.428a.285.285,0,0,1,.1.246q0,.073,0,.145V.04c0,.081,0,.163,0,.244q0,.083,0,.166,0,.2,0,.406l.1,0,.384,0,.166,0,.239,0,.075,0a.388.388,0,0,1,.269.071A.351.351,0,0,1-50.5,1.2a.358.358,0,0,1-.157.125c-.085,0-.168,0-.253,0h-.477l-.4,0,0,.1q0,.192,0,.384,0,.083,0,.166c0,.08,0,.159,0,.239l0,.075a.386.386,0,0,1-.071.269.33.33,0,0,1-.288.047.36.36,0,0,1-.14-.278q0-.07,0-.141V2.117c0-.079,0-.158,0-.237q0-.08,0-.161,0-.2.006-.393l-.1,0-.372,0-.161,0-.232,0-.072,0a.468.468,0,0,1-.283-.071.229.229,0,0,1-.081-.178A.272.272,0,0,1-53.42.856a1.774,1.774,0,0,1,.266-.012h.077l.244,0,.166,0,.406.006,0-.1q0-.192,0-.384,0-.083,0-.166c0-.08,0-.159,0-.239l0-.075A.369.369,0,0,1-52.2-.381.362.362,0,0,1-51.884-.428Z" transform="translate(77.52 9.621)" fill="#fff"/>
  </g>
</svg>
