<svg xmlns="http://www.w3.org/2000/svg" width="14.83" height="10.351" viewBox="0 0 14.83 10.351">
  <g id="list_1_" data-name="list (1)" transform="translate(-68.563 -132.53)">
    <path id="Path_2720" data-name="Path 2720" d="M-16.768-.371H-15.7l.9,0h.422l1.4,0h.456l1.466,0,1.506,0,.845,0h1.6a1.042,1.042,0,0,1,.644.19.835.835,0,0,1,.21.671.88.88,0,0,1-.377.5.814.814,0,0,1-.3.047h-4.283l-1.48,0-1.52,0h-2.471a.907.907,0,0,1-.551-.142A.878.878,0,0,1-17.5.335a.942.942,0,0,1,.183-.49A.809.809,0,0,1-16.768-.371Z" transform="translate(89.629 141.843)" fill="#ed1c24"/>
    <path id="Path_2721" data-name="Path 2721" d="M-15.6-.25h4.283l1.48,0,1.52,0h2.471a.907.907,0,0,1,.551.142A.878.878,0,0,1-5.023.44a.942.942,0,0,1-.183.49.809.809,0,0,1-.55.215H-6.822l-.9,0h-.422l-1.4,0H-10l-1.466,0-1.506,0-.845,0h-1.6a1.042,1.042,0,0,1-.644-.19A.835.835,0,0,1-16.273.3.88.88,0,0,1-15.9-.2.814.814,0,0,1-15.6-.25Z" transform="translate(88.416 132.794)" fill="#ed1c24"/>
    <path id="Path_2722" data-name="Path 2722" d="M-14.769-.371h1.085l.912,0h.43l1.428,0h.464l1.492,0,1.532,0,.86,0h1.631a.735.735,0,0,1,.553.19.724.724,0,0,1,.218.585.655.655,0,0,1-.263.456A.511.511,0,0,1-4.8.982H-5.889l-.913,0h-.43l-1.429,0h-.464l-1.493,0-1.533,0-.861,0h-1.632A.736.736,0,0,1-15.2.809a.725.725,0,0,1-.219-.585.842.842,0,0,1,.344-.547A.821.821,0,0,1-14.769-.371Z" transform="translate(87.549 137.4)" fill="#ed1c24"/>
    <path id="Path_2723" data-name="Path 2723" d="M-25.936-.072l.158,0a1.226,1.226,0,0,1,.772.186.788.788,0,0,1,.221.65.68.68,0,0,1-.289.453,1.2,1.2,0,0,1-.749.125l-.281,0h-.18l-.165,0a.741.741,0,0,1-.5-.3.794.794,0,0,1-.113-.6.748.748,0,0,1,.43-.465A2.171,2.171,0,0,1-25.936-.072Z" transform="translate(95.641 141.534)" fill="#ed1c24"/>
    <path id="Path_2724" data-name="Path 2724" d="M-23.741-.167l.281,0h.18l.165,0a.741.741,0,0,1,.5.3.794.794,0,0,1,.113.6.748.748,0,0,1-.43.465,2.171,2.171,0,0,1-.693.054l-.158,0a1.226,1.226,0,0,1-.772-.186.788.788,0,0,1-.221-.65.68.68,0,0,1,.289-.453A1.2,1.2,0,0,1-23.741-.167Z" transform="translate(93.348 132.705)" fill="#ed1c24"/>
    <path id="Path_2725" data-name="Path 2725" d="M-17.451-.08h.286c.1,0,.2,0,.293,0,.521,0,.521,0,.706.126a.778.778,0,0,1,.254.566.785.785,0,0,1-.231.55.783.783,0,0,1-.531.145h-.287c-.1,0-.2,0-.294,0-.524,0-.524,0-.709-.124a.767.767,0,0,1-.251-.569.764.764,0,0,1,.186-.506A.788.788,0,0,1-17.451-.08Z" transform="translate(86.777 137.091)" fill="#ed1c24"/>
  </g>
</svg>
