<svg id="quote" xmlns="http://www.w3.org/2000/svg" width="13.586" height="17.45" viewBox="0 0 13.586 17.45">
  <path id="Path_2954" data-name="Path 2954" d="M63.37-503.88a.738.738,0,0,0-.331.348c-.028.07-.039,2.6-.039,8.335,0,6.835.007,8.254.049,8.349a.7.7,0,0,0,.415.359c.063.011,2.953.014,6.424.011l6.3-.011.137-.109a.819.819,0,0,0,.194-.229c.06-.113.063-.539.063-7.413,0-5.047-.011-7.321-.039-7.391a25.19,25.19,0,0,0-2.232-2.232c-.137-.063-.338-.067-5.491-.063C64.433-503.926,63.458-503.919,63.37-503.88Zm10.542,1.387c0,1.288-.049,1.239,1.242,1.239h.869v14.22H63.563v-16.332H73.911Zm1.144.113.563.563H74.474v-.563c0-.31,0-.563.011-.563S74.745-502.69,75.055-502.38Z" transform="translate(-63 503.927)" fill="#fff"/>
  <path id="Path_2955" data-name="Path 2955" d="M106.739-470.649a2.092,2.092,0,0,0-1.672,1.556,2.039,2.039,0,0,0,.539,1.89,2.036,2.036,0,0,0,3.154-.317,2.059,2.059,0,0,0,.289-1.51A2.063,2.063,0,0,0,106.739-470.649Zm.546.563a1.5,1.5,0,0,1,1.225,1.679,1.473,1.473,0,0,1-.806,1.091,1.464,1.464,0,0,1-1.992-.715,1.486,1.486,0,0,1,.408-1.746,1.773,1.773,0,0,1,.9-.341C107.048-470.118,107.168-470.1,107.284-470.086Z" transform="translate(-103.536 471.843)" fill="#fff"/>
  <path id="Path_2956" data-name="Path 2956" d="M139.832-451.981a.337.337,0,0,0-.074.141c0,.028-.063.081-.137.12a.6.6,0,0,0-.348.546c-.025.4.208.658.7.753a.851.851,0,0,1,.289.109c.074.06.077.07.025.123a.436.436,0,0,1-.391.056.339.339,0,0,1-.158-.169.277.277,0,0,0-.524.18.851.851,0,0,0,.4.472.526.526,0,0,1,.18.183.272.272,0,0,0,.5,0,.3.3,0,0,1,.169-.158.646.646,0,0,0,.359-.348.587.587,0,0,0,.014-.5c-.113-.26-.267-.366-.7-.479-.208-.056-.285-.091-.292-.137-.021-.1.06-.165.2-.165.106,0,.151.028.275.158s.169.158.25.158a.293.293,0,0,0,.267-.282.722.722,0,0,0-.355-.486c-.081-.046-.148-.106-.148-.134a.273.273,0,0,0-.088-.137A.264.264,0,0,0,139.832-451.981Z" transform="translate(-136.52 453.901)" fill="#fff"/>
  <path id="Path_2957" data-name="Path 2957" d="M247.265-436.912a.271.271,0,0,0,.134.458c.042.011.834.014,1.76.011l1.686-.011.067-.084a.273.273,0,0,0-.021-.373l-.084-.088h-3.456Z" transform="translate(-240.701 439.356)" fill="#fff"/>
  <path id="Path_2958" data-name="Path 2958" d="M247.029-403.912a.252.252,0,0,0,.056.422,16.083,16.083,0,0,0,2.527.053c1.7,0,2.453-.011,2.513-.039a.267.267,0,0,0,.077-.436l-.084-.088h-5.005Z" transform="translate(-240.465 407.517)" fill="#fff"/>
  <path id="Path_2959" data-name="Path 2959" d="M104.132-346.747a2.219,2.219,0,0,0-1.675,1.5,2.359,2.359,0,0,0,0,1.232,2.243,2.243,0,0,0,1.408,1.426,2.158,2.158,0,0,0,2.675-1.39,2.2,2.2,0,0,0-.172-1.7,2.724,2.724,0,0,0-.743-.771A2.308,2.308,0,0,0,104.132-346.747Zm.662.563a1.6,1.6,0,0,1,1.267,1.785,1.608,1.608,0,0,1-1.316,1.32,1.586,1.586,0,0,1-1.792-1.8A1.583,1.583,0,0,1,104.794-346.184Z" transform="translate(-100.989 352.306)" fill="#fff"/>
  <path id="Path_2960" data-name="Path 2960" d="M155.074-324.981c-.07.088-.074.141-.074.736,0,.563.007.651.063.715a4.986,4.986,0,0,0,1.014.57.31.31,0,0,0,.271-.275c0-.151-.06-.208-.451-.429l-.334-.194v-.521c0-.507,0-.524-.088-.605A.264.264,0,0,0,155.074-324.981Z" transform="translate(-151.762 331.371)" fill="#fff"/>
  <path id="Path_2961" data-name="Path 2961" d="M247.222-310.895a.344.344,0,0,0-.222.275.342.342,0,0,0,.074.172l.07.092h3.506l.074-.081a.27.27,0,0,0-.113-.447C250.52-310.92,247.4-310.93,247.222-310.895Z" transform="translate(-240.524 317.71)" fill="#fff"/>
  <path id="Path_2962" data-name="Path 2962" d="M247.178-276.909a.248.248,0,0,0,.011.355l.084.1h5.012l.084-.1a.248.248,0,0,0,.011-.355l-.07-.091h-5.061Z" transform="translate(-240.628 284.987)" fill="#fff"/>
  <path id="Path_2963" data-name="Path 2963" d="M94.136-210.884a2.043,2.043,0,0,0-.3.187.723.723,0,0,1-.489.172.805.805,0,0,0-.852.725.673.673,0,0,1-.253.429.843.843,0,0,0-.208,1.112.843.843,0,0,1,.1.595c-.014.32-.011.363.067.507a.789.789,0,0,0,.264.278l.18.116-.243.517a3.306,3.306,0,0,0-.243.612.31.31,0,0,0,.109.208c.113.116.1.116.577.042.144-.021.144-.021.246.165a1.441,1.441,0,0,0,.18.267.323.323,0,0,0,.4.018,3.356,3.356,0,0,0,.334-.609c.25-.539.253-.542.373-.553a.338.338,0,0,1,.155.018,5.1,5.1,0,0,1,.282.549c.257.553.341.658.524.658.141,0,.225-.077.373-.331.06-.109.127-.2.148-.2s.141.018.264.039c.271.046.408,0,.489-.151.07-.134.06-.169-.218-.767a5.4,5.4,0,0,1-.218-.507l.109-.056a.768.768,0,0,0,.352-.384.8.8,0,0,0,.046-.479.771.771,0,0,1,.1-.581.779.779,0,0,0-.194-1.059.739.739,0,0,1-.246-.352c-.021-.084-.056-.218-.077-.3a.684.684,0,0,0-.2-.3.877.877,0,0,0-.7-.243.482.482,0,0,1-.359-.144,1.95,1.95,0,0,0-.3-.194A1.015,1.015,0,0,0,94.136-210.884Zm.57.676a.932.932,0,0,0,.651.236,1.133,1.133,0,0,1,.327.06,1.1,1.1,0,0,1,.1.278,1.089,1.089,0,0,0,.37.648.6.6,0,0,1,.2.267,1.36,1.36,0,0,1-.127.338.931.931,0,0,0-.113.627l.011.366-.317.162a.913.913,0,0,0-.486.4,1.447,1.447,0,0,1-.218.271.681.681,0,0,1-.306-.042,1.169,1.169,0,0,0-.774,0,.626.626,0,0,1-.289.046,1.75,1.75,0,0,1-.229-.282.933.933,0,0,0-.486-.4l-.31-.151v-.387a1.077,1.077,0,0,0-.113-.63,1.236,1.236,0,0,1-.116-.317.5.5,0,0,1,.162-.232,1.143,1.143,0,0,0,.387-.651c.084-.324.134-.37.419-.37a1.017,1.017,0,0,0,.662-.229.881.881,0,0,1,.3-.155A.826.826,0,0,1,94.707-210.208Zm-1.559,3.854a1,1,0,0,0,.352.324l.1.042-.056.12a.323.323,0,0,1-.077.12.565.565,0,0,1-.123-.127c-.1-.12-.109-.127-.271-.113a.6.6,0,0,1-.172.007c0-.007.042-.1.1-.208C93.08-206.361,93.147-206.435,93.147-206.354Zm2.679.176.092.208-.165-.018c-.176-.018-.232.014-.352.2l-.056.084-.056-.148-.06-.144.116-.049a.805.805,0,0,0,.236-.194.92.92,0,0,1,.137-.144A.811.811,0,0,1,95.826-206.178Z" transform="translate(-90.895 221.233)" fill="#fff"/>
  <path id="Path_2964" data-name="Path 2964" d="M126.234-177.733a1.331,1.331,0,0,0-.834,1.454,1.316,1.316,0,0,0,1.084,1.084,1.33,1.33,0,0,0,1.4-.732.984.984,0,0,0,.1-.57,1.032,1.032,0,0,0-.338-.9,1.116,1.116,0,0,0-.912-.394A1.076,1.076,0,0,0,126.234-177.733Zm.824.577a.694.694,0,0,1,.377.584.737.737,0,0,1-.619.831.788.788,0,0,1-.848-.574.758.758,0,0,1,.4-.862A.889.889,0,0,1,127.057-177.156Z" transform="translate(-123.182 189.272)" fill="#fff"/>
  <path id="Path_2965" data-name="Path 2965" d="M247.16-163.731a.263.263,0,0,0-.07.436l.084.088h3.456l.084-.088a.273.273,0,0,0,.021-.373l-.067-.084-1.721-.007A16.342,16.342,0,0,0,247.16-163.731Z" transform="translate(-240.525 175.734)" fill="#fff"/>
  <path id="Path_2966" data-name="Path 2966" d="M247.16-130.97a.259.259,0,0,0-.07.433l.084.088h5.005l.084-.088a.267.267,0,0,0-.077-.436C252.066-131.026,247.258-131.026,247.16-130.97Z" transform="translate(-240.525 144.138)" fill="#fff"/>
</svg>
