<svg xmlns="http://www.w3.org/2000/svg" width="18.98" height="14.514" viewBox="0 0 18.98 14.514">
  <g id="credit-card-_3__1_" data-name="credit-card-_3_ (1)" transform="translate(-0.176 451.605)">
    <path id="Path_2882" data-name="Path 2882" d="M9.41-450.789c-3.889.456-7.155.85-7.262.876a1.806,1.806,0,0,0-.687.393.34.34,0,0,0-.085.371c.085.208.278.219.486.03.267-.249.327-.26,2.041-.46.876-.1,1.878-.219,2.223-.26l3.34-.39c1.492-.171,3.715-.43,4.939-.575s2.3-.26,2.375-.26a.941.941,0,0,1,.846.724c.033.174.987,8.4.987,8.531a1.1,1.1,0,0,1-.3.6.958.958,0,0,1-.631.252l-.245.026-.022-.189c-.03-.241-.078-.33-.2-.36a.259.259,0,0,0-.334.171,11.793,11.793,0,0,0-.045,1.562l0,1.429-.093.189a.906.906,0,0,1-.5.442c-.108.041-1.592.048-7.463.048-7.3,0-7.329,0-7.5-.074a.938.938,0,0,1-.456-.423l-.082-.148v-8.869l.1-.178a.924.924,0,0,1,.594-.434c.137-.03,2.234-.037,7.466-.03,7.01.011,7.277.015,7.4.082a1.2,1.2,0,0,1,.438.412,12.685,12.685,0,0,1,.082,2.549l.019,2.438.082.082a.28.28,0,0,0,.393,0l.082-.082.011-2.2c.007-1.3,0-2.319-.026-2.5a1.451,1.451,0,0,0-1.1-1.288c-.193-.052-1.039-.059-7.485-.059-5.173,0-7.318.011-7.459.041a1.486,1.486,0,0,0-1.143,1.139c-.026.111-.033,1.722-.03,4.572l.011,4.4.085.215a1.664,1.664,0,0,0,.746.779l.245.119H16.293l.249-.119a1.453,1.453,0,0,0,.846-1.162c.019-.152.037-.664.037-1.132v-.857l.338-.041a1.6,1.6,0,0,0,.969-.434,1.517,1.517,0,0,0,.423-.857c.015-.163-.111-1.347-.464-4.4-.267-2.3-.5-4.26-.523-4.36a1.414,1.414,0,0,0-.427-.757,1.287,1.287,0,0,0-.943-.4C16.557-451.612,14.742-451.412,9.41-450.789Z" transform="translate(0 0)" fill="#fff"/>
    <path id="Path_2883" data-name="Path 2883" d="M377.333-307.814a.266.266,0,0,0-.148.293c.011.052.074.245.145.43a1.771,1.771,0,0,1,.122.872,1.765,1.765,0,0,1-.126.872c-.163.442-.174.538-.085.649a.275.275,0,0,0,.375.022,2.258,2.258,0,0,0,.323-.746,4.025,4.025,0,0,0,.033-1.432,2.112,2.112,0,0,0-.379-.924A.2.2,0,0,0,377.333-307.814Z" transform="translate(-363.014 -138.425)" fill="#fff"/>
    <path id="Path_2884" data-name="Path 2884" d="M348.268-293.007c-.1.126-.1.141.015.475a1.463,1.463,0,0,1,0,1.028c-.111.334-.093.445.078.523.223.1.412-.108.52-.571a2.127,2.127,0,0,0-.13-1.329C348.624-293.122,348.405-293.181,348.268-293.007Z" transform="translate(-335.107 -152.616)" fill="#fff"/>
    <path id="Path_2885" data-name="Path 2885" d="M319.539-278.641a.27.27,0,0,0-.119.353.44.44,0,0,1,0,.3c-.037.13-.037.163.015.241.278.423.7-.1.531-.657C319.895-278.645,319.695-278.752,319.539-278.641Z" transform="translate(-307.372 -166.503)" fill="#fff"/>
    <path id="Path_2886" data-name="Path 2886" d="M48.838-275.685a.908.908,0,0,0-.672.638,6.028,6.028,0,0,0-.026.894c.011.642.022.764.082.876a1,1,0,0,0,.412.419c.141.078.208.082,1.15.093a7.836,7.836,0,0,0,1.195-.03.838.838,0,0,0,.579-.438l.1-.193-.011-.846-.011-.85-.111-.178a.861.861,0,0,0-.315-.293l-.2-.115-1-.007C49.458-275.719,48.931-275.7,48.838-275.685Zm2.167.623.1.089v.731c0,.675,0,.735-.074.809-.108.115-.219.122-1.232.111-1.184-.015-1.084.063-1.1-.857a4.369,4.369,0,0,1,.026-.779c.074-.193.186-.212,1.236-.2C50.909-275.151,50.909-275.151,51.005-275.062Z" transform="translate(-46.183 -169.363)" fill="#fff"/>
    <path id="Path_2887" data-name="Path 2887" d="M80.22-242.9a.222.222,0,0,0,.011.338c.089.1.1.1.5.1.39,0,.419,0,.486-.089a.287.287,0,0,0,0-.375c-.067-.067-.122-.074-.5-.074C80.305-243,80.294-243,80.22-242.9Z" transform="translate(-77.004 -200.864)" fill="#fff"/>
    <path id="Path_2888" data-name="Path 2888" d="M48.282-170.9a.192.192,0,0,0-.071.212c.048.234.011.23,1.429.241,1.262.011,1.291.007,1.388-.067a.279.279,0,0,0,.026-.408c-.071-.07-.122-.074-1.373-.074h-1.3Z" transform="translate(-46.246 -270.192)" fill="#fff"/>
    <path id="Path_2889" data-name="Path 2889" d="M145-170.926a.277.277,0,0,0,.022.4c.1.074.141.078,1.336.078a9.585,9.585,0,0,0,1.329-.041.274.274,0,0,0,.026-.475,10.053,10.053,0,0,0-1.355-.041C145.125-171,145.073-171,145-170.926Z" transform="translate(-139.378 -270.192)" fill="#fff"/>
    <path id="Path_2890" data-name="Path 2890" d="M241.176-170.915a.256.256,0,0,0,.011.379l.089.093h2.568l.089-.093a.249.249,0,0,0,.015-.367l-.074-.1h-2.62Z" transform="translate(-231.981 -270.192)" fill="#fff"/>
    <path id="Path_2891" data-name="Path 2891" d="M337.179-170.907a.243.243,0,0,0-.022.356l.071.089,1.3.011c1.269.011,1.3.007,1.4-.067a.279.279,0,0,0,.026-.408c-.071-.07-.122-.074-1.373-.074h-1.3Z" transform="translate(-324.411 -270.192)" fill="#fff"/>
    <path id="Path_2892" data-name="Path 2892" d="M48.093-130.908a.306.306,0,0,0-.093.186.306.306,0,0,0,.093.186l.089.093h3.062c1.681,0,3.088-.011,3.121-.022a.349.349,0,0,0,.145-.33c-.052-.212.089-.2-3.255-.2H48.182Z" transform="translate(-46.049 -308.707)" fill="#fff"/>
  </g>
</svg>
