<svg xmlns="http://www.w3.org/2000/svg" width="27.585" height="32.222" viewBox="0 0 27.585 32.222">
  <g id="accounting-book-_1_" transform="translate(-56.636 489)">
    <path id="Path_3385" data-name="Path 3385" d="M60.693-488.869a2.122,2.122,0,0,0-1.335,1.39,16.392,16.392,0,0,0-.069,1.84v1.6l-.685.035a1.837,1.837,0,0,0-1.051.242,1.749,1.749,0,0,0,.028,3.091,1.968,1.968,0,0,0,1.058.235l.65.028v2.593l-.685.035a1.836,1.836,0,0,0-1.051.242,1.748,1.748,0,0,0,.028,3.091,1.968,1.968,0,0,0,1.058.235l.65.028v2.593l-.685.035a1.836,1.836,0,0,0-1.051.242,1.748,1.748,0,0,0,.028,3.091,1.968,1.968,0,0,0,1.058.235l.65.028v2.593l-.685.035a1.837,1.837,0,0,0-1.051.242A1.749,1.749,0,0,0,57.581-462a1.957,1.957,0,0,0,1.051.235l.65.028L59.3-460c.021,1.646.028,1.75.18,2.026a2.117,2.117,0,0,0,.968.968l.394.194,9.73.021c10.761.021,10.256.035,11.224-.422a4.417,4.417,0,0,0,2.227-2.559l.194-.567v-25.1l-.194-.567a4.927,4.927,0,0,0-1.245-1.923,4.6,4.6,0,0,0-1.819-.934c-.519-.131-.8-.138-10.221-.138C61.62-488.993,61.032-488.986,60.693-488.869Zm19.91,1.051a3.119,3.119,0,0,1,1.563.864,3.089,3.089,0,0,1,.913,1.791c.09.664.09,23.887,0,24.551a3.225,3.225,0,0,1-2.476,2.656c-.263.055-3.05.076-9.889.076-8.928,0-9.537-.007-9.765-.125a1.128,1.128,0,0,1-.394-.353c-.152-.228-.159-.29-.159-1.8v-1.57l.643-.035a1.921,1.921,0,0,0,1.4-.477,1.761,1.761,0,0,0,0-2.614,1.921,1.921,0,0,0-1.4-.477l-.643-.035v-2.586l.643-.035a1.921,1.921,0,0,0,1.4-.477,1.761,1.761,0,0,0,0-2.614,1.92,1.92,0,0,0-1.4-.477l-.643-.035v-2.586l.643-.035a1.921,1.921,0,0,0,1.4-.477,1.761,1.761,0,0,0,0-2.614,1.921,1.921,0,0,0-1.4-.477l-.643-.035V-480.4l.643-.035a1.921,1.921,0,0,0,1.4-.477,1.761,1.761,0,0,0,0-2.614,1.921,1.921,0,0,0-1.4-.477l-.643-.035v-1.57c0-1.515.007-1.577.159-1.805a1.128,1.128,0,0,1,.394-.353c.228-.118.837-.125,9.765-.125C77.554-487.893,80.341-487.873,80.6-487.817Zm-19.1,4.979a.716.716,0,0,1,.415.615.716.716,0,0,1-.415.615,15.576,15.576,0,0,1-3.361-.028.618.618,0,0,1-.346-.83c.173-.4.353-.443,2.026-.443A11.641,11.641,0,0,1,61.5-482.838Zm0,6.224a.716.716,0,0,1,.415.615.717.717,0,0,1-.415.616,15.576,15.576,0,0,1-3.361-.028.618.618,0,0,1-.346-.83c.173-.4.353-.443,2.026-.443A11.641,11.641,0,0,1,61.5-476.614Zm0,6.224a.717.717,0,0,1,.415.616.716.716,0,0,1-.415.615,15.579,15.579,0,0,1-3.361-.028.618.618,0,0,1-.346-.83c.173-.4.353-.443,2.026-.443A11.641,11.641,0,0,1,61.5-470.39Zm0,6.224a.716.716,0,0,1,.415.615.716.716,0,0,1-.415.615,15.579,15.579,0,0,1-3.361-.028.618.618,0,0,1-.346-.83c.173-.4.353-.443,2.026-.443A11.641,11.641,0,0,1,61.5-464.166Z" transform="translate(0)" fill="#ed1c24"/>
    <path id="Path_3386" data-name="Path 3386" d="M201.86-420.621a6.791,6.791,0,0,0-4.73,3.721,5.531,5.531,0,0,0-.629,2.918,5.556,5.556,0,0,0,.38,2.372,6.936,6.936,0,0,0,2.559,3.243,7.879,7.879,0,0,0,1.916.9,4.692,4.692,0,0,0,1.819.187,5.9,5.9,0,0,0,1.694-.125,6.864,6.864,0,0,0,4.959-5.069,7.182,7.182,0,0,0-.035-3.14,6.606,6.606,0,0,0-1.7-3.057,7.077,7.077,0,0,0-3.188-1.881A10.207,10.207,0,0,0,201.86-420.621Zm3.077,1.238a5.657,5.657,0,0,1,3.741,3.894,6.1,6.1,0,0,1,.042,2.891,5.718,5.718,0,0,1-4.481,4.184,7.163,7.163,0,0,1-2.621-.138,5.688,5.688,0,0,1-3.852-3.921,6.725,6.725,0,0,1,0-3.015,5.81,5.81,0,0,1,3.333-3.741,4.828,4.828,0,0,1,2.282-.367A4.094,4.094,0,0,1,204.937-419.383Z" transform="translate(-130.191 -63.573)" fill="#ed1c24"/>
    <path id="Path_3388" data-name="Path 3388" d="M180.184-195.841a.509.509,0,0,0,.028.747l.18.166,7.393.021c6.376.014,7.427,0,7.635-.083a.533.533,0,0,0,.187-.892c-.1-.111-.553-.118-7.69-.118h-7.587Z" transform="translate(-114.864 -272.737)" fill="#ed1c24"/>
    <path id="Path_3441" data-name="Path 3441" d="M180.1-195.841a1.022,1.022,0,0,0,.012.747l.078.166,3.2.021c2.758.014,3.212,0,3.3-.083a.935.935,0,0,0,.081-.892c-.042-.111-.239-.118-3.326-.118h-3.281Z" transform="translate(-110.398 -283.876)" fill="#ed1c24"/>
    <path id="Path_3442" data-name="Path 3442" d="M180.1-195.841a1.022,1.022,0,0,0,.012.747l.078.166,3.2.021c2.758.014,3.212,0,3.3-.083a.935.935,0,0,0,.081-.892c-.042-.111-.239-.118-3.326-.118h-3.281Z" transform="translate(-110.398 -282.113)" fill="#ed1c24"/>
    <path id="Path_3443" data-name="Path 3443" d="M180.1-195.841a1.022,1.022,0,0,0,.012.747l.078.166,3.2.021c2.758.014,3.212,0,3.3-.083a.935.935,0,0,0,.081-.892c-.042-.111-.239-.118-3.326-.118h-3.281Z" transform="translate(-110.398 -280.35)" fill="#ed1c24"/>
    <path id="Path_3389" data-name="Path 3389" d="M180.184-150.841a.509.509,0,0,0,.028.747l.18.166,7.393.021c6.376.014,7.427,0,7.635-.083a.533.533,0,0,0,.187-.892c-.1-.111-.553-.118-7.69-.118h-7.587Z" transform="translate(-114.864 -314.625)" fill="#ed1c24"/>
    <path id="Path_3390" data-name="Path 3390" d="M180.184-105.841a.509.509,0,0,0,.028.747l.18.166,7.393.021c6.376.014,7.427,0,7.635-.083a.533.533,0,0,0,.187-.892c-.1-.111-.553-.118-7.69-.118h-7.587Z" transform="translate(-114.864 -356.513)" fill="#ed1c24"/>
  </g>
</svg>
