<svg id="trace_2_" data-name="trace (2)" xmlns="http://www.w3.org/2000/svg" width="18.899" height="17.794" viewBox="0 0 18.899 17.794">
  <path id="Path_2798" data-name="Path 2798" fill="#fff" fill-rule="evenodd"/>
  <path id="Path_2799" data-name="Path 2799" d="M17.457,45.09a.885.885,0,0,0-.369.352,1.643,1.643,0,0,0-.078.464l-.021.354-.135.025a1.056,1.056,0,0,0-.8.658c-.034.114-.045,1.629-.045,6.167v6.016l.089.191a1.1,1.1,0,0,0,.512.5,16.846,16.846,0,0,0,3.075.086l2.934.019.187.086A2.25,2.25,0,0,0,24.687,60a1.712,1.712,0,0,1,.825-.1H26.1l.013.359c.012.327.023.373.129.524a1,1,0,0,0,.267.25l.151.085h3.536c3.4,0,3.541,0,3.677-.072a.8.8,0,0,0,.366-.373,25.172,25.172,0,0,0,.061-3.658V53.488l-.085-.151a1,1,0,0,0-.25-.267l-.165-.116-1.178-.011-1.178-.011V49.973c0-2.9,0-2.961-.078-3.12a1.1,1.1,0,0,0-.611-.527,1.7,1.7,0,0,0-.246-.06c-.03,0-.051-.117-.064-.353a1.491,1.491,0,0,0-.078-.467.852.852,0,0,0-.383-.359c-.072-.027-.969-.04-2.743-.039a12.408,12.408,0,0,0-2.96.09c-.178.048-.379.111-.446.139a.245.245,0,0,1-.262-.016,3.022,3.022,0,0,0-.449-.141,15.873,15.873,0,0,0-2.938-.072c-1.648,0-2.665.016-2.724.04m.154.429a.311.311,0,0,0-.121.124c-.049.125-.039,12.3.01,12.412a.3.3,0,0,0,.1.126c.034.017,1.27.04,2.748.05a12.7,12.7,0,0,1,2.924.1l.238.081V45.735l-.112-.058c-.345-.179-.446-.185-3.145-.2a18.033,18.033,0,0,0-2.646.041m7.123-.014a2.252,2.252,0,0,0-.7.176l-.1.054V58.414l.238-.079a3.522,3.522,0,0,1,1.086-.095l.848-.016V55.917c0-1.657.013-2.349.045-2.456a.849.849,0,0,1,.481-.481,14.608,14.608,0,0,1,1.756-.045h1.606l-.01-3.657c-.01-3.452-.014-3.66-.078-3.725s-.22-.068-2.5-.073c-1.335,0-2.539.008-2.675.025m-4.687.347a1.875,1.875,0,0,0-.056,3.633,1.87,1.87,0,1,0,.95-3.617,2.25,2.25,0,0,0-.894-.016m-.08.5a1.294,1.294,0,0,0-.585.42,1.2,1.2,0,0,0-.305.9,1,1,0,0,0,.124.617,1.418,1.418,0,0,0,1.51.789,1.337,1.337,0,0,0,.79-.421,1.415,1.415,0,0,0-.521-2.317,1.532,1.532,0,0,0-1.013.011m.337.206a1.551,1.551,0,0,1-.2.176.588.588,0,0,0-.248.524.5.5,0,0,0,.11.366.716.716,0,0,0,.518.278.21.21,0,0,1,.179.284.238.238,0,0,1-.122.116.227.227,0,0,1-.267-.184.229.229,0,1,0-.457.008.8.8,0,0,0,.293.517.888.888,0,0,1,.189.17c.08.115.246.1.366-.025a1.554,1.554,0,0,1,.2-.176.586.586,0,0,0,.248-.493.646.646,0,0,0-.575-.665c-.192-.026-.3-.155-.234-.292.089-.2.327-.141.389.089.046.172.151.249.291.214s.189-.176.132-.374a.944.944,0,0,0-.3-.4c-.28-.268-.37-.291-.518-.133m4.185.107a.233.233,0,0,0,.03.34,7.534,7.534,0,0,0,1.851.049c1.693-.01,1.763-.013,1.815-.085a.22.22,0,0,0-.016-.3c-.063-.057-.247-.063-1.845-.063a6.89,6.89,0,0,0-1.836.06m-7.766.133a.592.592,0,0,0-.21.2c-.064.116-.067.456-.067,6.093v5.97l.079.105a1.09,1.09,0,0,0,.184.184c.1.077.15.079,3.027.1l2.922.019.379.145a1.5,1.5,0,0,0,.686.144,1.553,1.553,0,0,0,.536-.081,2.544,2.544,0,0,1,1.261-.228h.587v-.81l-.733.021a2.977,2.977,0,0,0-1.416.243l-.212.1-.2-.088c-.11-.049-.312-.124-.448-.167a13.681,13.681,0,0,0-2.94-.1l-2.692-.021-.146-.117a.981.981,0,0,1-.223-.267c-.075-.148-.076-.236-.086-5.837-.01-5.368-.014-5.687-.076-5.685a.685.685,0,0,0-.208.077m13.726,3.022v3.11h.572V50.078a18.749,18.749,0,0,0-.061-3.011.535.535,0,0,0-.393-.329l-.118-.024v3.11m-5.957-1.964a.238.238,0,0,0,.007.324c.063.057.257.063,1.995.063,1.816,0,1.928,0,1.988-.07a.257.257,0,0,0,0-.328,8,8,0,0,0-1.995-.06c-1.826,0-1.938,0-2,.07m.022,1.171a.237.237,0,0,0-.025.338,9.316,9.316,0,0,0,2.17.06h2.11l.059-.085a.2.2,0,0,0-.017-.3c-.074-.074-.127-.076-2.144-.076a9.889,9.889,0,0,0-2.153.059m-6.657.907a.218.218,0,0,0-.071.177c0,.238-.111.229,2.7.229s2.7.009,2.7-.229.111-.229-2.7-.229a18.544,18.544,0,0,0-2.628.052m6.686.264a.238.238,0,0,0-.053.359,16.388,16.388,0,0,0,2.325.049,10.5,10.5,0,0,0,2.317-.06.239.239,0,0,0,.006-.3c-.052-.072-.126-.074-2.277-.083a17.417,17.417,0,0,0-2.318.039m-6.636.891a.235.235,0,0,0-.109.129.174.174,0,0,0,.016.208l.063.1h3.616l.062-.095a.211.211,0,0,0-.083-.325c-.094-.036-3.433-.046-3.565-.011m6.567.325a.316.316,0,0,0,0,.328,21.389,21.389,0,0,0,2.491.046c2.661,0,2.54.01,2.54-.21s.121-.21-2.54-.21a21.386,21.386,0,0,0-2.491.046m-6.663.968c-.059.089-.06.11-.009.2l.056.1,1.967.01a8.015,8.015,0,0,0,2.028-.05.237.237,0,0,0,.021-.286c-.038-.071-.1-.074-2.019-.074H17.878l-.065.1m8.845,1.1-.094.094v3.242h3.429V53.392H26.751l-.094.094m3.793,1.621v1.715h3.432L33.872,55.2l-.011-1.623-.107-.092-.107-.092h-3.2v1.715M17.813,53.568c-.059.089-.06.11-.009.2l.056.1,2.128.01a19,19,0,0,0,2.18-.033.313.313,0,0,0,.006-.331A16.494,16.494,0,0,0,20,53.468H17.878l-.065.1m14.169.632a.818.818,0,0,0-.046.362v.316H31.62c-.354,0-.408.029-.408.215s.11.242.447.242h.277v.3c0,.286.006.308.1.369s.11.059.2.009.1-.076.111-.369l.011-.313h.286c.253,0,.3-.011.379-.094.109-.109.116-.163.034-.279-.053-.076-.092-.085-.381-.085h-.322v-.316c0-.352-.029-.408-.21-.408a.278.278,0,0,0-.164.046m-14.161.534c-.081.116-.075.17.034.279l.094.094H20.18c2.18,0,2.233,0,2.307-.076a.2.2,0,0,0,.017-.3l-.059-.085H17.881l-.059.085m9.292.239a.211.211,0,0,0,.083.325,9.624,9.624,0,0,0,1.1.037c1.106,0,1.168-.012,1.168-.228s-.013-.229-1.2-.229H27.176l-.062.095m-9.255.909a.218.218,0,0,0-.071.177c0,.237-.1.229,2.548.229,2.283,0,2.41,0,2.469-.07a.238.238,0,0,0-.007-.324,10.8,10.8,0,0,0-2.469-.063,16.544,16.544,0,0,0-2.471.052m.05,1.155a.235.235,0,0,0-.109.129.174.174,0,0,0,.016.208l.063.1h2.583a22.268,22.268,0,0,0,2.643-.048.192.192,0,0,0,.015-.314l-.1-.1-2.526,0c-1.389,0-2.554.012-2.589.021m8.655,1.839v1.6l.092.107.092.107,1.623.011,1.623.011V57.279H26.564v1.6m3.887.118v1.716l1.6-.011,1.6-.011.106-.106.106-.106.011-1.6.011-1.6H30.451v1.716m-2.972-.8c-.127.127-.093.219.188.51l.265.273-.265.279a1.223,1.223,0,0,0-.265.352.275.275,0,0,0,.239.226c.057,0,.178-.092.351-.266l.264-.266.274.266c.291.283.407.326.524.2s.078-.238-.2-.521l-.267-.269.267-.265c.294-.292.339-.422.182-.531-.141-.1-.209-.071-.5.2l-.276.264-.272-.264c-.29-.28-.382-.314-.509-.187M32,58.225a.218.218,0,0,0,.037.337c.089.058.11.059.2.009a.215.215,0,0,0,.113-.163A.205.205,0,0,0,32,58.225m-.774.64c-.059.089-.06.11-.009.2l.056.1H33.02l.056-.1c.051-.09.05-.111-.009-.2l-.065-.1H31.291l-.065.1m.8.531a.219.219,0,1,0,.25,0,.161.161,0,0,0-.25,0" transform="translate(-15.4 -43.333)" fill="#fff" fill-rule="evenodd"/>
</svg>
