<svg id="interior-design" xmlns="http://www.w3.org/2000/svg" width="19.534" height="19.534" viewBox="0 0 19.534 19.534">
  <path id="Path_2753" data-name="Path 2753" d="M0-502.233v9.767H14.193v-2.671H12.323v.8H1.869v-.988l1.48-.011c1.4-.011,1.484-.015,1.648-.092a1.062,1.062,0,0,0,.5-.534c.076-.217.076-4.926,0-5.143a1.062,1.062,0,0,0-.5-.534c-.164-.076-.244-.08-1.648-.092l-1.48-.011v-1.828H3.506l.011-.225.011-.225.954.8c.527.439.961.8.973.8a1.55,1.55,0,0,0,.359-.492c-.019-.019-.546-.454-1.167-.973l-1.133-.942-.011-.294-.011-.294-.809-.011-.813-.008v-4.693h.61v1.641h.8v.485a2.343,2.343,0,0,0,.217,1.183,1.54,1.54,0,0,0,2.713-.084,2.327,2.327,0,0,0,.16-1.068v-.511l.412-.011.408-.011.011-.813.008-.809h.61v4.693H5.761v1.869H9.653v-6.562h.61v9.424h6.791v-9.424h.61v10.454l-2.659.008-2.663.011-.011,1.335-.008,1.335-.565.565-.561.561.221.217.217.221.794-.794.79-.79h.973v-.8h5.341V-512H0ZM18.924-504.9v6.486H13.582v.8h-.61v-1.412l2.663-.008,2.659-.011V-510.76l-4.624-.011-4.628-.008v6.6H6.371v-.61h2.06v-5.99l-3.594.008-3.6.011v5.952l.813.011.809.008v.61H1.221l.008,5.235.011,5.238H12.953l.011-.412.011-.408h.607v1.45H.61V-511.39H18.924ZM6.562-509.635v.5H3.09v-.992H6.562Zm9.882.839v1.335H10.912v-2.671h5.532Zm-10.69.885c-.011.511-.023.6-.1.74a.929.929,0,0,1-1.3.374c-.366-.229-.469-.5-.469-1.259v-.435H5.769Zm10.69,1.576v.515H10.912v-1.03h5.532Zm0,3.071v1.946H10.912v-3.892h5.532ZM2.861-498.532v2.556H1.869v-5.112h.992ZM4.834-501a.286.286,0,0,1,.088.187c0,.294-.111.34-.839.34H3.51v-.61h.618C4.708-501.088,4.75-501.085,4.834-501Zm.088,2.476v1.377l-.084-.023c-.05-.011-.366-.023-.706-.023H3.51v-2.671l.66-.011c.359,0,.679-.015.706-.019A5.762,5.762,0,0,1,4.922-498.528Zm-.156,2a.288.288,0,0,1,.072.465c-.08.084-.1.088-.706.088H3.51v-.61h.572A1.9,1.9,0,0,1,4.765-496.529Z" transform="translate(0 512)" fill="#fff"/>
  <path id="Path_2754" data-name="Path 2754" d="M307.324-457.891a.627.627,0,0,0-.282.317,4.554,4.554,0,0,0-.042.774c0,.725.023.836.21,1.007l.1.1h3.308l.118-.114c.172-.164.2-.328.183-1.083s-.031-.813-.271-.958c-.114-.072-.2-.076-1.686-.072C308.106-457.925,307.366-457.91,307.324-457.891Zm2.957,1.087v.515H307.61v-1.03h2.671Z" transform="translate(-295.287 459.989)" fill="#fff"/>
  <path id="Path_2755" data-name="Path 2755" d="M157.6-205.517a2.457,2.457,0,0,0-1.812,1.675,2.73,2.73,0,0,0-.023,1.278,2.488,2.488,0,0,0,1.8,1.736,2.38,2.38,0,0,0,2.659-1.282,2.8,2.8,0,0,0,.214-.584,2.417,2.417,0,0,0-1.713-2.785A2.6,2.6,0,0,0,157.6-205.517Zm.935.633a1.865,1.865,0,0,1,1.087.82,1.769,1.769,0,0,1-.279,2.14,1.766,1.766,0,0,1-3.022-1.232,1.661,1.661,0,0,1,.21-.862A1.76,1.76,0,0,1,158.533-204.884Z" transform="translate(-149.758 217.253)" fill="#fff"/>
  <path id="Path_2756" data-name="Path 2756" d="M407-91.676v.324h.61V-92H407Z" transform="translate(-391.472 108.024)" fill="#fff"/>
  <path id="Path_2757" data-name="Path 2757" d="M439.108-91.95a1.428,1.428,0,0,0-.008.317l.011.263.3.011.294.011V-92h-.286C439.211-92,439.123-91.985,439.108-91.95Z" transform="translate(-422.343 108.024)" fill="#fff"/>
  <path id="Path_2758" data-name="Path 2758" d="M472-91.772v.328l.3-.011.294-.011v-.61l-.294-.011L472-92.1Z" transform="translate(-453.992 108.12)" fill="#fff"/>
</svg>
