<svg xmlns="http://www.w3.org/2000/svg" width="16.898" height="16.852" viewBox="0 0 16.898 16.852">
  <g id="document_1_" data-name="document (1)" transform="translate(-15.424 -15.448)">
    <path id="Path_3325" data-name="Path 3325" d="M-89.786-.042H-79.31a1.425,1.425,0,0,1,1.045.4,1.878,1.878,0,0,1,.4,1.5q0,.121,0,.242,0,.327,0,.654,0,.342,0,.684,0,.574,0,1.147,0,.591,0,1.181c0,.024,0,.049,0,.074q0,.183,0,.366,0,1.515-.007,3.03l.071.013.095.018.093.018a1.591,1.591,0,0,1,.381.155l.071.035a1.9,1.9,0,0,1,.921,1.146,1.992,1.992,0,0,1,.069.574l0,.11c0,.119,0,.239,0,.358,0,.041,0,.082,0,.125q0,.328,0,.656c0,.223,0,.447.008.67,0,.174,0,.348,0,.521q0,.123,0,.247a2.691,2.691,0,0,1-.383,1.512,1.232,1.232,0,0,0-.209.622l0,.07c0,.072,0,.144,0,.216q0,.074,0,.148,0,.18-.006.36h-.561a3.162,3.162,0,0,1,.442-2.158.991.991,0,0,0,.089-.532c0-.031,0-.062,0-.093q0-.153,0-.306,0-.107,0-.213,0-.224,0-.448,0-.286,0-.571,0-.221,0-.441,0-.105,0-.21a2.165,2.165,0,0,0-.451-1.653,1.524,1.524,0,0,0-.645-.317l0,.081c.116,2.456.116,2.456-.6,3.25-.056.073-.111.148-.165.223a.85.85,0,0,1-.583.33,1.043,1.043,0,0,1-.657-.173,1.579,1.579,0,0,1-.386-.844,6.823,6.823,0,0,0-.278-.938.486.486,0,0,0-.281-.035c-.11.058-.11.058-.132.15a.76.76,0,0,0,.036.293l.032.117.035.126.035.13q.046.171.094.342.066.24.131.481l.07.256.032.117.028.1a1.316,1.316,0,0,1,.051.453,1.547,1.547,0,0,0,.459,1.266l.073.083q.071.079.145.155c.275.317.172.494.172.978h-10.1c0-.8,0-.8.226-1.052l.067-.084c.095-.117.194-.229.3-.336a.98.98,0,0,0,.228-.806,4.289,4.289,0,0,1,.185-1.077l.024-.09c.075-.281.154-.56.235-.839l.031-.108q.027-.094.056-.188a.5.5,0,0,0-.019-.434.464.464,0,0,0-.281-.035.484.484,0,0,0-.172.323l-.035.132-.036.139c-.279,1.058-.279,1.058-.6,1.277a.934.934,0,0,1-.735.083.936.936,0,0,1-.429-.333c-.047-.056-.1-.111-.145-.166-.826-.953-.653-2.17-.587-3.349l-.184.064-.1.036a1.289,1.289,0,0,0-.67.662,2.409,2.409,0,0,0-.136.893v.094q0,.152,0,.3v.106q0,.277,0,.554t0,.57q0,.22,0,.44,0,.1,0,.21a1.858,1.858,0,0,0,.254,1.135,2.939,2.939,0,0,1,.288,1.875h-.561l.01-.2a2.971,2.971,0,0,0-.487-1.753.633.633,0,0,1-.089-.346v-.1c0-.035,0-.07,0-.106s0-.074,0-.112q0-.183,0-.366v-.127q0-.332,0-.665,0-.274,0-.548,0-.332,0-.663,0-.126,0-.252a2.289,2.289,0,0,1,.44-1.644l.067-.089a1.825,1.825,0,0,1,1.027-.58l.1-.019.073-.014c0-.042,0-.083,0-.127q0-1.488-.007-2.977,0-.183,0-.367V5.69q0-.59,0-1.181,0-.606,0-1.212,0-.34,0-.681,0-.32,0-.641,0-.117,0-.235a1.737,1.737,0,0,1,.4-1.38A1.521,1.521,0,0,1-89.786-.042Zm-.8.91a1.361,1.361,0,0,0-.21.93v.129q0,.177,0,.354,0,.152,0,.3-.014,1.444-.018,2.888,0,.188,0,.376c0,.031,0,.062,0,.094q0,.755-.012,1.51-.008.777-.01,1.554,0,.478-.008.956,0,.329,0,.658c0,.126,0,.252,0,.378a2.951,2.951,0,0,0,.808,2.127.3.3,0,0,0,.267,0,1.168,1.168,0,0,0,.26-.624l.019-.075c.027-.1.054-.207.079-.311a1.327,1.327,0,0,1,.467-.866,1.081,1.081,0,0,1,.782-.067.966.966,0,0,1,.474.5,1.847,1.847,0,0,1-.105.967l-.044.163q-.054.2-.111.407-.065.237-.129.475-.031.114-.063.227a2.3,2.3,0,0,0-.1.74,1.468,1.468,0,0,1-.464,1.18c-.1.127-.189.265-.279.4h8.767a3.778,3.778,0,0,0-.337-.465,1.363,1.363,0,0,1-.4-1.088,6.083,6.083,0,0,0-.37-1.73l-.092-.332-.029-.1a1.27,1.27,0,0,1,.026-1.025.948.948,0,0,1,.465-.344,1.012,1.012,0,0,1,.771.14l.057.044a2.078,2.078,0,0,1,.39,1l.033.124q.032.123.063.247l.03.115.026.1a.368.368,0,0,0,.137.192.291.291,0,0,0,.222.016.677.677,0,0,0,.258-.3l.039-.065q.044-.073.086-.148a2.233,2.233,0,0,1,.146-.212,2.153,2.153,0,0,0,.307-1.442c0-.128,0-.257,0-.385q0-.376,0-.752c0-.292,0-.585,0-.877q0-.783-.005-1.565,0-.759-.006-1.517c0-.031,0-.062,0-.095q0-.188,0-.376,0-.812,0-1.624,0-.131,0-.262,0-.459,0-.918,0-.19,0-.379,0-.206,0-.412c0-.04,0-.079,0-.12a1.151,1.151,0,0,0-.279-.9,1.109,1.109,0,0,0-.854-.258v.1q0,.468-.008.937,0,.241,0,.482t0,.465q0,.089,0,.177c0,.083,0,.165,0,.248,0,.025,0,.049,0,.074a.4.4,0,0,1-.061.249.417.417,0,0,1-.264.056.777.777,0,0,1-.356-.264l-.1-.1q-.142-.141-.282-.284a.793.793,0,0,0-.267.191l-.07.071-.072.074-.142.145-.063.065a.429.429,0,0,1-.335.1.215.215,0,0,1-.174-.117,2,2,0,0,1-.015-.257V2.867c0-.086,0-.172,0-.258q0-.089,0-.179,0-.235,0-.471t0-.48q0-.471-.007-.942l-3.093,0h-.439l-1.177,0h-3.173A1.077,1.077,0,0,0-90.583.868Zm9.337-.331V2.325c.169-.143.169-.143.331-.294a.452.452,0,0,1,.3-.078.67.67,0,0,1,.29.2,1.034,1.034,0,0,0,.205.169V.537Z" transform="translate(108.473 15.492)" fill="#fff"/>
    <path id="Path_3326" data-name="Path 3326" d="M0,0H8.977V.561H2.244v.561H8.977v.561H2.244v.561H8.977v.561H2.244v.561H8.977v.561H2.244v.561H8.977V5.05H2.244v.561H8.977v.561H2.244v.561H1.683V6.172H0V5.611H1.683V5.05H0V4.489H1.683V3.928H0V3.367H1.683V2.805H0V2.244H1.683V1.683H0V1.122H1.683V.561H0Z" transform="translate(19.372 19.957)" fill="#fff"/>
    <path id="Path_3327" data-name="Path 3327" d="M0,0H3.928V.561H0Z" transform="translate(22.458 29.495)" fill="#fff"/>
    <path id="Path_3328" data-name="Path 3328" d="M0,0H3.928V.561H0Z" transform="translate(22.458 28.373)" fill="#fff"/>
    <path id="Path_3329" data-name="Path 3329" d="M0,0H3.928V.561H0Z" transform="translate(22.458 27.251)" fill="#fff"/>
    <path id="Path_3330" data-name="Path 3330" d="M0,0H3.928V.561H0Z" transform="translate(22.177 18.273)" fill="#fff"/>
    <path id="Path_3331" data-name="Path 3331" d="M0,0H3.928V.561H0Z" transform="translate(22.177 17.151)" fill="#fff"/>
    <path id="Path_3332" data-name="Path 3332" d="M-15.439,0h.561V.561h.561v.561h-.561v.561h-.561V1.122H-16V.561h.561Z" transform="translate(35.372 17.151)" fill="#fff"/>
    <path id="Path_3333" data-name="Path 3333" d="M0,0H.561V.561H0Z" transform="translate(21.336 29.495)" fill="#fff"/>
    <path id="Path_3334" data-name="Path 3334" d="M0,0H.561V.561H0Z" transform="translate(21.336 27.251)" fill="#fff"/>
  </g>
</svg>
