<svg xmlns="http://www.w3.org/2000/svg" width="17.424" height="14.514" viewBox="0 0 17.424 14.514">
  <g id="list-items_1_" data-name="list-items (1)" transform="translate(-15.85 456)">
    <path id="Path_3005" data-name="Path 3005" d="M16.436-455.953a1.157,1.157,0,0,0-.537.555c-.065.218-.065,13.091,0,13.308a1.078,1.078,0,0,0,.559.559c.116.033,1.967.044,8.113.044,8.98,0,8.171.029,8.457-.29a.991.991,0,0,0,.2-.319c.062-.2.062-6.125,0-6.328a.991.991,0,0,0-.2-.319c-.272-.3-.142-.29-3.03-.29H27.466v-3.03L25.5-454.03,23.529-456l-3.483,0C17.619-455.993,16.523-455.982,16.436-455.953Zm6.676,1.114v.581H21.233c-2.188,0-2.148,0-2.46.3a.974.974,0,0,0,0,1.415c.319.319.272.312,2.493.312h1.916l.044.109a.99.99,0,0,0,.5.428,13.7,13.7,0,0,0,1.654.044h1.509v2.612h-.2a.82.82,0,0,0-.686.272.823.823,0,0,0-.272.541c0,.054-.247.058-2.957.058H19.807l-.087.091a.267.267,0,0,0,0,.4l.087.091h5.918v1.451H19.807l-.087.091a.267.267,0,0,0,0,.4l.087.091h5.918v1.451H19.807l-.087.091a.267.267,0,0,0,0,.4l.087.091h5.918v.642c0,.356.011.682.022.726l.022.083H16.614l-.087-.091-.091-.087v-13l.091-.087.087-.091h6.5Zm1.977,1.234,1.379,1.379h-2.6l-.087-.091-.091-.087V-453.7c0-.707,0-1.288.011-1.288S24.331-454.364,25.089-453.605Zm-1.977.363v.439l-1.9-.011-1.9-.011-.116-.12a.318.318,0,0,1-.12-.294.414.414,0,0,1,.254-.4c.04-.018.911-.033,1.934-.033l1.858,0Zm4.934,5.515V-447H26.3v-.635c0-.878-.073-.816.961-.816h.78Zm2.322.708v1.437l-.381-.294c-.279-.21-.414-.29-.49-.29s-.21.08-.49.29l-.381.294v-2.87h1.742Zm2.231-1.342c.091.087.091.1.091.726V-447H30.949v-1.451h.78C32.513-448.453,32.513-448.453,32.6-448.362Zm-4.553,2.4a1.42,1.42,0,0,0,.069.613.552.552,0,0,0,.635.327,1.692,1.692,0,0,0,.435-.261l.316-.236.308.236c.417.319.668.356.925.141.181-.152.214-.279.214-.809v-.472h1.742v4.176l-.091.087-.087.091h-6.03l-.087-.091-.091-.087v-4.176h1.742Z" fill="#fff"/>
    <path id="Path_3006" data-name="Path 3006" d="M53.511-311.5a2.682,2.682,0,0,1-.53.464c-.018-.022-.083-.105-.149-.192a.549.549,0,0,0-.207-.174.292.292,0,0,0-.348.37,4.876,4.876,0,0,0,.283.414c.239.33.327.392.5.348a6.7,6.7,0,0,0,.726-.668c.566-.57.642-.66.642-.766a.3.3,0,0,0-.294-.294C54.03-312,53.947-311.935,53.511-311.5Z" transform="translate(-35.087 -138.775)" fill="#fff"/>
    <path id="Path_3007" data-name="Path 3007" d="M120.091-295.909a.283.283,0,0,0-.091.2.283.283,0,0,0,.091.2l.087.091h6.03l.087-.091a.283.283,0,0,0,.091-.2.283.283,0,0,0-.091-.2l-.087-.091h-6.03Z" transform="translate(-100.371 -154.195)" fill="#fff"/>
    <path id="Path_3008" data-name="Path 3008" d="M53.511-255.5a2.684,2.684,0,0,1-.53.464c-.018-.022-.083-.105-.149-.192a.549.549,0,0,0-.207-.174.292.292,0,0,0-.348.37,4.876,4.876,0,0,0,.283.414c.239.33.327.392.5.348a6.707,6.707,0,0,0,.726-.668c.566-.57.642-.66.642-.766a.3.3,0,0,0-.294-.294C54.03-256,53.947-255.935,53.511-255.5Z" transform="translate(-35.087 -192.743)" fill="#fff"/>
    <path id="Path_3009" data-name="Path 3009" d="M53.511-199.5a2.685,2.685,0,0,1-.53.464c-.018-.022-.083-.105-.149-.192a.549.549,0,0,0-.207-.174.292.292,0,0,0-.348.37,4.878,4.878,0,0,0,.283.414c.239.33.327.392.5.348a6.707,6.707,0,0,0,.726-.668c.566-.57.642-.66.642-.766a.3.3,0,0,0-.294-.294C54.03-200,53.947-199.935,53.511-199.5Z" transform="translate(-35.087 -246.712)" fill="#fff"/>
    <path id="Path_3010" data-name="Path 3010" d="M53.511-143.5a2.684,2.684,0,0,1-.53.464c-.018-.022-.083-.105-.149-.192a.549.549,0,0,0-.207-.174.292.292,0,0,0-.348.37,4.875,4.875,0,0,0,.283.414c.239.33.327.392.5.348a6.707,6.707,0,0,0,.726-.668c.566-.57.642-.66.642-.766a.3.3,0,0,0-.294-.294C54.03-144,53.947-143.935,53.511-143.5Z" transform="translate(-35.087 -300.68)" fill="#fff"/>
    <path id="Path_3011" data-name="Path 3011" d="M312.091-119.909a.283.283,0,0,0-.091.2.283.283,0,0,0,.091.2l.087.091h1.967l.087-.091a.283.283,0,0,0,.091-.2.283.283,0,0,0-.091-.2l-.087-.091h-1.967Z" transform="translate(-285.405 -323.809)" fill="#fff"/>
    <path id="Path_3012" data-name="Path 3012" d="M312.091-95.909a.283.283,0,0,0-.091.2.283.283,0,0,0,.091.2l.087.091h1.967l.087-.091a.283.283,0,0,0,.091-.2.283.283,0,0,0-.091-.2L314.144-96h-1.967Z" transform="translate(-285.405 -346.938)" fill="#fff"/>
  </g>
</svg>
