<svg xmlns="http://www.w3.org/2000/svg" width="17.138" height="14.566" viewBox="0 0 17.138 14.566">
  <g id="financial" transform="translate(-24.6 452.926)">
    <path id="Path_3067" data-name="Path 3067" d="M37.3-452.892a.277.277,0,0,0-.118.107,8.357,8.357,0,0,0-.041,1.222v1.151h-.518v-.663c0-.611-.007-.666-.078-.759l-.074-.1h-.733c-.966,0-.892-.078-.892.918a3.358,3.358,0,0,1-.037.748c-.019,0-.078.074-.13.159l-.093.163v3.232H31.962a17.651,17.651,0,0,0-2.74.056c-.2.1-.222.174-.222.692,0,.47,0,.474.107.592l.107.122,2.688.011,2.688.007v1.385c0,1.37,0,1.381.081,1.5a.66.66,0,0,0,.441.3c.089.015,1.014.03,2.051.033h1.888l.159.2a2.726,2.726,0,0,0,2.451.985,4.136,4.136,0,0,0,.818-.241c.041-.019.126.033.27.167.2.178.207.2.152.255a.317.317,0,0,0-.063.185c0,.1.078.2.789.915.437.437.863.833.944.885a.952.952,0,0,0,1.288-.392.717.717,0,0,0,.115-.463.817.817,0,0,0-.07-.389,12.721,12.721,0,0,0-.885-.955c-.711-.715-.833-.822-.933-.822a.407.407,0,0,0-.2.059c-.081.059-.089.056-.248-.1l-.167-.163.17-.318a2.534,2.534,0,0,0,.315-1.251,2.66,2.66,0,0,0-2.34-2.658l-.233-.026-.019-1.944-.019-1.944-.085-.118a.747.747,0,0,0-.241-.193c-.152-.074-.222-.078-1.129-.078h-.97v-1.129c0-1.192-.011-1.274-.174-1.348A7.231,7.231,0,0,0,37.3-452.892ZM38.4-451.4l.007.992h-.74v-2l.363.011.359.011Zm-2.288.492v.5h-.74v-1h.74Zm4.732,2.932c.007,1.792,0,1.9-.056,1.9a2.31,2.31,0,0,0-.374.107,2.769,2.769,0,0,0-1.7,1.855,3.218,3.218,0,0,0,0,1.3,2.105,2.105,0,0,1,.063.248c0,.056-3.491.059-3.6,0-.07-.037-.07-.118-.07-3.662,0-1.992.011-3.632.026-3.643s1.3-.022,2.858-.019l2.836.011Zm-6.25,2.01v.222H29.518v-.444h5.072Zm7.371.466a2.159,2.159,0,0,1,1.425,1.529,2.581,2.581,0,0,1-.052,1.2,2.228,2.228,0,0,1-1.407,1.362,2.4,2.4,0,0,1-1.211.015,2.211,2.211,0,0,1-1.574-2.077,2.187,2.187,0,0,1,.948-1.77A2.075,2.075,0,0,1,41.962-445.5Zm1.322,4.173c.137.141.152.167.1.207s-.074.033-.159-.026c-.189-.133-.248-.222-.2-.285S43.11-441.507,43.284-441.33Zm1.459.94c.359.363.67.7.692.74a.444.444,0,0,1-.481.589c-.1-.018-.267-.163-.811-.707l-.685-.685.3-.3a3.637,3.637,0,0,1,.315-.3C44.08-441.044,44.384-440.748,44.743-440.389Z" transform="translate(-4.237 0)" fill="#fff"/>
    <path id="Path_3068" data-name="Path 3068" d="M206.279-359.8a.517.517,0,0,0-.3.237,4.212,4.212,0,0,0,0,1.329.626.626,0,0,0,.17.174l.13.085,2.121-.007,2.121-.011.118-.122.122-.118.011-.622c.011-.6.007-.622-.074-.748a.5.5,0,0,0-.215-.174,18.466,18.466,0,0,0-2.129-.041C207.252-359.818,206.319-359.807,206.279-359.8Zm3.98.9v.407h-3.813v-.815h3.813Z" transform="translate(-174.611 -89.661)" fill="#fff"/>
    <path id="Path_3069" data-name="Path 3069" d="M208.185-304.884c-.174.063-.185.1-.185.715,0,.515.007.589.067.641s.159.063.641.063a3.757,3.757,0,0,0,.611-.03c.1-.067.126-.207.126-.663a4.936,4.936,0,0,0-.022-.559c-.044-.152-.189-.193-.707-.189A4.042,4.042,0,0,0,208.185-304.884Zm.733.7.011.2h-.411v-.411l.2.011.193.011Z" transform="translate(-176.61 -142.54)" fill="#fff"/>
    <path id="Path_3070" data-name="Path 3070" d="M252.149-304.693c-.137.056-.159.156-.159.711,0,.737-.041.7.707.7.777,0,.737.037.737-.7s.026-.722-.674-.733A3.5,3.5,0,0,0,252.149-304.693Zm.766.685v.2h-.407v-.407h.407Z" transform="translate(-218.971 -142.72)" fill="#fff"/>
    <path id="Path_3071" data-name="Path 3071" d="M296.185-304.884c-.174.063-.185.1-.185.715,0,.515.007.589.067.641s.159.063.641.063a3.758,3.758,0,0,0,.611-.03c.1-.067.126-.207.126-.663a4.939,4.939,0,0,0-.022-.559c-.044-.152-.189-.193-.707-.189A4.041,4.041,0,0,0,296.185-304.884Zm.733.7.011.2h-.411v-.411l.2.011.193.011Z" transform="translate(-261.352 -142.54)" fill="#fff"/>
    <path id="Path_3072" data-name="Path 3072" d="M208.066-261.926c-.067.067-.074.122-.074.648,0,.763-.037.722.7.722.544,0,.563,0,.648-.093s.093-.1.093-.629,0-.544-.093-.629-.1-.093-.648-.093C208.188-262,208.133-261.993,208.066-261.926Zm.852.648v.2h-.407v-.407h.407Z" transform="translate(-176.602 -183.858)" fill="#fff"/>
    <path id="Path_3073" data-name="Path 3073" d="M252.081-261.919c-.078.081-.081.122-.081.644v.563l.1.074c.089.07.148.078.633.078.515,0,.537,0,.622-.093s.093-.1.093-.641c0-.74.03-.711-.726-.711C252.185-262,252.159-262,252.081-261.919Zm.844.637v.2h-.407v-.407h.407Z" transform="translate(-218.981 -183.853)" fill="#fff"/>
    <path id="Path_3074" data-name="Path 3074" d="M207.159-219.693c-.137.056-.159.155-.159.711,0,.422.011.548.059.615l.056.081h1.344c1.255,0,1.348,0,1.4-.067s.063-.159.063-.644c0-.537,0-.578-.078-.644s-.156-.07-1.344-.078C207.811-219.722,207.2-219.711,207.159-219.693Zm2.247.685v.2h-1.888v-.407h1.888Z" transform="translate(-175.647 -224.573)" fill="#fff"/>
    <path id="Path_3075" data-name="Path 3075" d="M310.727-248.9a1.965,1.965,0,0,0-1.411,2.162,2,2,0,0,0,1.444,1.551,2.488,2.488,0,0,0,.966-.019,1.93,1.93,0,0,0,1.348-1.4,1.912,1.912,0,0,0-.159-1.314,2.341,2.341,0,0,0-.822-.826A2.036,2.036,0,0,0,310.727-248.9Zm1.089.57a1.506,1.506,0,0,1,.789,1.181,1.394,1.394,0,0,1-.907,1.411,1.6,1.6,0,0,1-1.089-.048,1.686,1.686,0,0,1-.692-.718,1.1,1.1,0,0,1-.1-.548,1.018,1.018,0,0,1,.1-.541,1.432,1.432,0,0,1,.844-.763A1.511,1.511,0,0,1,311.816-248.332Z" transform="translate(-274.15 -196.415)" fill="#fff"/>
    <path id="Path_3076" data-name="Path 3076" d="M125.093-392.907l-.093.089v1.625c0,1.581,0,1.625.074,1.7s.1.081.815.081h.737l.078-.1c.074-.1.078-.118.067-1.725l-.011-1.625-.089-.07c-.078-.063-.152-.07-.789-.07C125.189-393,125.181-393,125.093-392.907Zm1.166,1.7v1.277h-.74v-2.555h.74Z" transform="translate(-96.683 -57.708)" fill="#fff"/>
    <path id="Path_3077" data-name="Path 3077" d="M63.074-359.926c-.07.07-.074.122-.074,1.1s0,1.033.074,1.111.1.081.815.081h.737l.074-.1c.074-.1.078-.144.078-1.089s0-.992-.078-1.089l-.074-.1h-.74C63.2-360,63.144-360,63.074-359.926Zm1.185,1.111v.666h-.74v-1.333h.74Z" transform="translate(-36.978 -89.486)" fill="#fff"/>
    <path id="Path_3078" data-name="Path 3078" d="M26.633-221.693a2.6,2.6,0,0,0-1.933,1.744,1.927,1.927,0,0,0-.1.778,1.927,1.927,0,0,0,.1.778,2.544,2.544,0,0,0,1.34,1.54,2.578,2.578,0,0,0,3.61-1.692,2.579,2.579,0,0,0-.181-1.736,2.524,2.524,0,0,0-1.54-1.337A2.926,2.926,0,0,0,26.633-221.693Zm.977.522a2.084,2.084,0,0,1,1.54,1.518,2.139,2.139,0,0,1-.174,1.44,2.619,2.619,0,0,1-.866.866,2.071,2.071,0,0,1-2.958-1.366,2.036,2.036,0,0,1,.318-1.629A2.075,2.075,0,0,1,27.61-221.17Z" transform="translate(0 -222.632)" fill="#fff"/>
    <path id="Path_3079" data-name="Path 3079" d="M44.374-202.821a1.744,1.744,0,0,0-.818.5A1.734,1.734,0,0,0,43-201.011a1.8,1.8,0,0,0,.57,1.344,1.731,1.731,0,0,0,1.407.518A1.577,1.577,0,0,0,46-199.511a1.966,1.966,0,0,0,.618-.8,2.161,2.161,0,0,0,.063-1.181,1.907,1.907,0,0,0-1.333-1.329A2.29,2.29,0,0,0,44.374-202.821Zm1.081.585a1.478,1.478,0,0,1,.652.652,1.039,1.039,0,0,1,.1.574,1,1,0,0,1-.122.618,1.271,1.271,0,0,1-.633.618,1.061,1.061,0,0,1-.578.1,1.039,1.039,0,0,1-.574-.1,1.5,1.5,0,0,1-.655-.655,1,1,0,0,1-.1-.581,1.2,1.2,0,0,1,.081-.544,1.846,1.846,0,0,1,.5-.589A1.444,1.444,0,0,1,45.455-202.236Z" transform="translate(-17.719 -240.793)" fill="#fff"/>
    <path id="Path_3080" data-name="Path 3080" d="M75.465-184.919a.365.365,0,0,0-.059.185.127.127,0,0,1-.081.137.67.67,0,0,0-.285.289.6.6,0,0,0,.226.7,1.133,1.133,0,0,0,.348.085c.359.026.285.081-.115.081-.311,0-.355.007-.426.081-.152.163-.056.385.189.422.122.022.144.037.144.115a.341.341,0,0,0,.259.27.332.332,0,0,0,.259-.285c0-.085.026-.115.148-.167a.46.46,0,0,0,.285-.526.383.383,0,0,0-.167-.359c-.148-.141-.163-.144-.415-.144-.367,0-.322-.063.063-.081.274-.015.33-.03.389-.1a.242.242,0,0,0-.178-.411c-.115,0-.126-.011-.126-.1a.238.238,0,0,0-.259-.267C75.558-185,75.506-184.978,75.465-184.919Z" transform="translate(-48.533 -258.007)" fill="#fff"/>
    <path id="Path_3081" data-name="Path 3081" d="M226.133-144.944c-.167.07-.233.226-.233.537v.259h-.259c-.318,0-.467.067-.541.241a1.823,1.823,0,0,0,0,.848c.1.241.115.244,1.218.244h1l.126-.126c.122-.122.126-.137.126-.407v-.281h.244c.289,0,.478-.078.552-.226a1.866,1.866,0,0,0,0-.926c-.1-.2-.211-.218-1.207-.218A4.082,4.082,0,0,0,226.133-144.944Zm1.766.629v.167h-1.481v-.333H227.9Zm-.852.833v.148h-1.481v-.3h1.481Z" transform="translate(-193.029 -296.526)" fill="#fff"/>
    <path id="Path_3082" data-name="Path 3082" d="M155.193-121.941c-.148.1-.193.244-.193.607s.044.5.193.607c.07.052.237.059,1.074.059h.992l.118-.107.122-.107v-.9l-.122-.107-.118-.107h-.992C155.429-122,155.263-121.993,155.193-121.941Zm1.807.607v.148h-1.481v-.3H157Z" transform="translate(-125.572 -318.674)" fill="#fff"/>
    <path id="Path_3083" data-name="Path 3083" d="M65.881-72.926a.249.249,0,0,0,.015.344l.081.081h5.38c5.243,0,5.383,0,5.461-.07a.273.273,0,0,0,.011-.367C76.766-73,76.332-73,71.353-73,66.025-73,65.947-73,65.881-72.926Z" transform="translate(-39.692 -365.86)" fill="#fff"/>
  </g>
</svg>
