<svg xmlns="http://www.w3.org/2000/svg" width="16.754" height="16.76" viewBox="0 0 16.754 16.76">
  <g id="aggregation" transform="translate(-0.6 511.597)">
    <path id="Path_3215" data-name="Path 3215" d="M219.484-511.58a1.171,1.171,0,0,0-.672.528,1.115,1.115,0,0,0,0,.948,1.168,1.168,0,0,0,.5.472l.161.072v1.542l-.312-.312-.312-.312-.171.174-.174.171.617.617.613.613.613-.613.617-.617-.174-.171-.171-.174-.312.312-.312.312v-1.542l.167-.075a1.048,1.048,0,0,0,.587-.774,1.02,1.02,0,0,0-.945-1.184A1.293,1.293,0,0,0,219.484-511.58Zm.433.5a.556.556,0,0,1,.292.745.533.533,0,0,1-1.01-.239A.533.533,0,0,1,219.917-511.082Z" transform="translate(-210.753 0)" fill="#fff"/>
    <path id="Path_3216" data-name="Path 3216" d="M64.909-447.754a1.011,1.011,0,0,0-.689.725,1.04,1.04,0,0,0,.554,1.191,1.248,1.248,0,0,0,.886,0,1.213,1.213,0,0,0,.492-.5,1.239,1.239,0,0,0,0-.882A1.042,1.042,0,0,0,64.909-447.754Zm.535.5a.469.469,0,0,1,.292.485.425.425,0,0,1-.069.292.54.54,0,0,1-.813.1.517.517,0,0,1-.043-.735A.5.5,0,0,1,65.443-447.259Z" transform="translate(-61.498 -61.698)" fill="#fff"/>
    <path id="Path_3217" data-name="Path 3217" d="M347.066-447.581a1.04,1.04,0,0,0-.7,1.351l.069.2-.466.469-.466.466-.016-.433-.016-.436-.236-.01-.239-.01v1.742h1.742l-.01-.239-.01-.236-.436-.016-.433-.016.466-.466.469-.466.2.069a1.044,1.044,0,0,0,1.286-.525,1.082,1.082,0,0,0-.167-1.145A1.13,1.13,0,0,0,347.066-447.581Zm.469.5a.657.657,0,0,1,.338.4.569.569,0,0,1-.4.623.552.552,0,0,1-.584-.23.425.425,0,0,1-.069-.292.469.469,0,0,1,.292-.485A.471.471,0,0,1,347.535-447.086Z" transform="translate(-333.104 -61.887)" fill="#fff"/>
    <path id="Path_3218" data-name="Path 3218" d="M115.173-397.977a2.357,2.357,0,0,0-.023.449v.43l-.312-.312-.312-.312-.171.174-.174.171.312.312.308.308-.443.01-.44.01-.01.236-.01.239h1.742V-398h-.223A.763.763,0,0,0,115.173-397.977Z" transform="translate(-109.584 -109.871)" fill="#fff"/>
    <path id="Path_3219" data-name="Path 3219" d="M184.174-335.835c-.01.023-.013,1.2-.01,2.617l.01,2.575h4.69v-5.215l-2.339-.01A18.593,18.593,0,0,0,184.174-335.835Zm4.208,1,.007.535h-3.739v-.518a3.379,3.379,0,0,1,.023-.541c.01-.013.849-.02,1.86-.016l1.84.01Zm-.01,1.584v.541h-3.706l-.01-.508c0-.279,0-.525.007-.548a10.555,10.555,0,0,1,1.863-.036l1.847.01Zm.01,1.581-.01.535h-3.706l-.01-.535-.007-.531h3.739Z" transform="translate(-177.542 -169.963)" fill="#fff"/>
    <path id="Path_3220" data-name="Path 3220" d="M280-311.754v.246h.525V-312H280Z" transform="translate(-270.236 -193.05)" fill="#fff"/>
    <path id="Path_3221" data-name="Path 3221" d="M280.106-263.954a1.054,1.054,0,0,0-.007.253l.01.21.256.01.253.01V-264h-.246C280.194-264,280.119-263.987,280.106-263.954Z" transform="translate(-270.329 -239.476)" fill="#fff"/>
    <path id="Path_3222" data-name="Path 3222" d="M280-214.754v.246h.525V-215H280Z" transform="translate(-270.236 -286.868)" fill="#fff"/>
    <path id="Path_3223" data-name="Path 3223" d="M3.713-292.836l-.161.164.308.312.312.312H2.63l-.075-.167a1.028,1.028,0,0,0-1.122-.581,1.02,1.02,0,0,0-.748.567.761.761,0,0,0-.085.443.761.761,0,0,0,.085.443,1.02,1.02,0,0,0,.748.567,1.035,1.035,0,0,0,1.125-.587l.072-.161H4.172l-.312.312-.312.312.174.171.171.174.613-.617.617-.613-.607-.607c-.335-.335-.613-.607-.623-.607A1.371,1.371,0,0,0,3.713-292.836Zm-1.791.613a.469.469,0,0,1,.216.436.406.406,0,0,1-.069.282.54.54,0,0,1-.912,0,.593.593,0,0,1,0-.564A.54.54,0,0,1,1.922-292.223Z" transform="translate(0 -211.427)" fill="#fff"/>
    <path id="Path_3224" data-name="Path 3224" d="M374.107-292.393l-.607.607.617.613.613.617.171-.174.174-.171-.312-.312-.312-.312h1.542l.075.167a1.028,1.028,0,0,0,1.122.581,1.02,1.02,0,0,0,.748-.567.761.761,0,0,0,.085-.443.761.761,0,0,0-.085-.443,1.02,1.02,0,0,0-.748-.567,1.028,1.028,0,0,0-1.122.581l-.075.167h-1.542l.312-.312.308-.312-.161-.164a1.375,1.375,0,0,0-.18-.164C374.72-293,374.441-292.728,374.107-292.393Zm3.211.171a.469.469,0,0,1,.216.436.406.406,0,0,1-.069.282.54.54,0,0,1-.912,0,.593.593,0,0,1,0-.564A.54.54,0,0,1,377.318-292.223Z" transform="translate(-360.669 -211.427)" fill="#fff"/>
    <path id="Path_3225" data-name="Path 3225" d="M113.91-166.764l.01.239.44.01.443.01-.308.308-.312.312.174.171.171.174.312-.312.308-.308.01.443.01.44.239.01.236.01V-167H113.9Z" transform="translate(-109.584 -333.294)" fill="#fff"/>
    <path id="Path_3226" data-name="Path 3226" d="M345-166.131v.872l.239-.01.236-.01.01-.44.01-.443.308.308.312.312.171-.174.174-.171-.312-.312-.308-.308.443-.01.44-.01.01-.239.01-.236H345Z" transform="translate(-333.104 -333.294)" fill="#fff"/>
    <path id="Path_3227" data-name="Path 3227" d="M219.107-137.393l-.607.607.174.171.171.174.312-.312.312-.312v1.542l-.167.075a1.028,1.028,0,0,0-.581,1.122,1.02,1.02,0,0,0,.567.748.76.76,0,0,0,.443.085.779.779,0,0,0,.446-.085,1.036,1.036,0,0,0,.564-.748,1.028,1.028,0,0,0-.581-1.122l-.167-.075v-1.542l.312.312.312.312.171-.174.174-.171-.607-.607c-.335-.335-.613-.607-.623-.607S219.441-137.728,219.107-137.393Zm.81,2.381a.556.556,0,0,1,.292.745.533.533,0,0,1-1.01-.239A.533.533,0,0,1,219.917-135.012Z" transform="translate(-210.753 -361.343)" fill="#fff"/>
    <path id="Path_3228" data-name="Path 3228" d="M65.286-126.749a1,1,0,0,0-.7.974.766.766,0,0,0,.1.466,1.133,1.133,0,0,0,.213.308,1.054,1.054,0,0,0,1.446-.052.856.856,0,0,0,.266-.705.864.864,0,0,0-.075-.446,1.185,1.185,0,0,0-.492-.492A1.309,1.309,0,0,0,65.286-126.749Zm.617.535a.54.54,0,0,1-.144.964.468.468,0,0,1-.522-.144.511.511,0,0,1-.046-.715A.575.575,0,0,1,65.9-126.214Z" transform="translate(-61.888 -372.19)" fill="#fff"/>
    <path id="Path_3229" data-name="Path 3229" d="M385.746-126.744a1.156,1.156,0,0,0-.626.653,1.041,1.041,0,0,0,.535,1.253,1.082,1.082,0,0,0,1.145-.167,1.132,1.132,0,0,0,.213-.308.766.766,0,0,0,.1-.466.98.98,0,0,0-.551-.909A1.228,1.228,0,0,0,385.746-126.744Zm.59.492a.555.555,0,0,1,.3.584.656.656,0,0,1-.338.4.537.537,0,0,1-.722-.394A.539.539,0,0,1,386.336-126.252Z" transform="translate(-371.862 -372.186)" fill="#fff"/>
  </g>
</svg>
