<svg xmlns="http://www.w3.org/2000/svg" width="26.022" height="40.369" viewBox="0 0 26.022 40.369">
  <g id="order-food" transform="translate(-107 511.723)">
    <path id="Path_3082" data-name="Path 3082" d="M110.227-511.626a4.242,4.242,0,0,0-3.116,3.077c-.087.323-.11,3.274-.11,16.133,0,13.782.016,15.8.118,16.2a4.3,4.3,0,0,0,2.793,2.982c.489.166.694.174,3.566.205l3.037.032.789.671c.923.8,1.183.97,1.452.97a.913.913,0,0,0,.781-.576c.174-.529.063-.647-2.643-2.982-1.388-1.183-2.6-2.24-2.69-2.335a.6.6,0,0,1-.181-.473.7.7,0,0,1,.5-.734c.237-.079.434-.024,2.177.592,1.057.371,1.988.671,2.067.671a.931.931,0,0,0,.742-.513c.095-.229.11-1.223.11-5.94,0-5.569,0-5.68.158-5.877a.816.816,0,0,1,.97-.26.906.906,0,0,1,.387.3,40.324,40.324,0,0,1,.142,5.128l.039,4.938.189.205a.851.851,0,0,0,1.341-.158,11.514,11.514,0,0,0,.087-2.012,8.011,8.011,0,0,1,.11-2.083.917.917,0,0,1,.757-.513.917.917,0,0,1,.757.513,8.011,8.011,0,0,1,.11,2.083,11.513,11.513,0,0,0,.087,2.012.851.851,0,0,0,1.341.158c.181-.2.189-.245.229-1.791.039-1.7.079-1.854.45-2.02a.866.866,0,0,1,.978.142l.229.229v1.475c0,1.641.063,1.917.465,2.122a.743.743,0,0,0,.8,0c.379-.189.465-.513.465-1.672s.079-1.341.584-1.515a.842.842,0,0,1,.931.331,40.324,40.324,0,0,1,.142,5.128l.039,4.938.189.205a.842.842,0,0,0,1.349-.181c.055-.15.079-1.728.063-5.293l-.024-5.088-.181-.339a2.616,2.616,0,0,0-1.925-1.4l-.379-.055-.016-12.236-.024-12.236-.174-.458a4.342,4.342,0,0,0-2.627-2.6l-.513-.181-8.244-.016C112.159-511.729,110.589-511.713,110.227-511.626Zm2.611,2.012a2.823,2.823,0,0,0,.884,2.264c.686.623.615.615,5.072.615h3.944l.418-.189a2.914,2.914,0,0,0,1.317-1.4,5.143,5.143,0,0,0,.174-1.073l.047-.686h.852a3.935,3.935,0,0,1,2,.355,2.892,2.892,0,0,1,1.081,1.183l.181.394.024,11.967.016,11.959-.552-.284a1.876,1.876,0,0,0-1.1-.284,2.852,2.852,0,0,0-.884.134l-.355.134-.4-.387a2.316,2.316,0,0,0-1.972-.694l-.655.039v-2.588h1.743c1.956,0,2.169-.047,2.39-.513a.6.6,0,0,0,0-.718.837.837,0,0,0-.434-.4l-.308-.134v-.686a7.615,7.615,0,0,0-5.98-7.486l-.686-.134-.047-.584c-.047-.663-.158-.884-.513-1.057a.592.592,0,0,0-.694,0c-.355.174-.465.394-.513,1.057l-.047.584-.686.134a7.576,7.576,0,0,0-3.29,1.617,7.664,7.664,0,0,0-2.69,5.869v.686l-.308.134a.837.837,0,0,0-.434.4.6.6,0,0,0,0,.718c.237.513.268.513,4.047.513h3.4v8.914l-.213-.087c-.126-.047-.726-.26-1.349-.473-1.428-.489-1.941-.513-2.682-.142a2.4,2.4,0,0,0-1.089,3.258,3.527,3.527,0,0,0,1.073,1.175l.844.726-1.846.024a16.986,16.986,0,0,1-2.154-.063,2.843,2.843,0,0,1-1.317-.931c-.536-.7-.5.465-.481-16.779l.024-15.62.181-.394a2.869,2.869,0,0,1,1.033-1.16,3.772,3.772,0,0,1,2-.371l.923-.008Zm10.1.1c0,.655-.11.876-.521,1.049a53.985,53.985,0,0,1-7.321,0c-.41-.174-.521-.394-.521-1.049v-.576h8.362Zm-3.014,13.04a5.691,5.691,0,0,1,3.116,1.767,5.862,5.862,0,0,1,1.609,3.96l.047.852h-1.878l-.189-.355a2.687,2.687,0,0,0-1.183-1.089,2.671,2.671,0,0,0-2.075.047,2.915,2.915,0,0,0-1.215,1.207l-.047.189h-5.293l.047-.852a5.862,5.862,0,0,1,1.609-3.96A5.757,5.757,0,0,1,119.922-496.472Z" fill="#ed1c24"/>
  </g>
</svg>
