<svg xmlns="http://www.w3.org/2000/svg" xmlns:xlink="http://www.w3.org/1999/xlink" width="28" height="39" viewBox="0 0 28 39">
  <defs>
    <clipPath id="clip-path">
      <rect id="Rectangle_573" data-name="Rectangle 573" width="28" height="39" transform="translate(-0.122 0.469)" fill="#1fa3de"/>
    </clipPath>
  </defs>
  <g id="Mask_Group_1" data-name="Mask Group 1" transform="translate(0.122 -0.469)" clip-path="url(#clip-path)">
    <g id="side-table" transform="translate(0 10.611)">
      <path id="Path_1723" data-name="Path 1723" d="M2.909-1316.3a1.909,1.909,0,0,0-1.221,1.073,1.43,1.43,0,0,0-.143.77,1.464,1.464,0,0,0,.143.776,1.948,1.948,0,0,0,1.331,1.095c.2.055.259.094.259.187,0,.06-.149,3.064-.336,6.668-.38,7.394-.385,6.877.055,7.438a1.509,1.509,0,0,0,1.271.589,1.45,1.45,0,0,0,1.139-.451c.446-.446.4-.2,1.15-6.289.374-3.042.693-5.612.71-5.711l.033-.176H23.9l.033.176c.017.1.336,2.674.71,5.727.754,6.085.7,5.826,1.15,6.272a1.45,1.45,0,0,0,1.139.451,1.509,1.509,0,0,0,1.271-.589c.44-.556.435-.044.055-7.438-.187-3.6-.336-6.608-.336-6.668,0-.094.055-.132.259-.187a1.948,1.948,0,0,0,1.331-1.095,1.464,1.464,0,0,0,.143-.776,1.418,1.418,0,0,0-.182-.836,1.888,1.888,0,0,0-.941-.919l-.308-.143-8.858-.016c-6.6-.011-8.9.005-9.012.05a.6.6,0,0,0-.314.49.6.6,0,0,0,.3.484c.11.05,2.217.066,8.864.066,8.632,0,8.72,0,8.935.11a.869.869,0,0,1,.44.715.868.868,0,0,1-.44.715c-.215.11-.3.11-12.55.11H3.267l-.22-.121a.87.87,0,0,1-.429-.7.87.87,0,0,1,.429-.7c.209-.115.275-.121,1.463-.121a4.92,4.92,0,0,0,1.4-.077.547.547,0,0,0,0-.946A14.049,14.049,0,0,0,2.909-1316.3Zm3.521,3.917c-.127.952-1.612,13.083-1.612,13.144,0,.165-.358.462-.55.462a.7.7,0,0,1-.55-.5c0-.071.149-3,.33-6.5s.33-6.454.33-6.558v-.193H6.453Zm17.2-.137c.006.011.039.259.077.55l.066.539H7.427l.066-.539c.039-.292.072-.539.077-.55s3.615-.011,8.033-.011S23.635-1312.53,23.635-1312.525Zm3.191.193c0,.115.149,3.07.33,6.564s.33,6.415.33,6.487a.7.7,0,0,1-.55.5c-.193,0-.55-.3-.55-.462,0-.061-1.486-12.192-1.612-13.144l-.022-.149h2.074Z" transform="translate(-1.545 1316.388)" fill="#1fa3de"/>
      <path id="Path_1724" data-name="Path 1724" d="M340.824-1315.851a.551.551,0,0,0,.27,1.023.582.582,0,0,0,.55-.545A.554.554,0,0,0,340.824-1315.851Z" transform="translate(-334.519 1315.929)" fill="#1fa3de"/>
    </g>
  </g>
</svg>
