<svg xmlns="http://www.w3.org/2000/svg" width="15.318" height="17.282" viewBox="0 0 15.318 17.282">
  <g id="contract-_1_" transform="translate(-29.5 511.775)">
    <path id="Path_3035" data-name="Path 3035" d="M30.388-511.718a1.664,1.664,0,0,0-.307.135,1.506,1.506,0,0,0-.49.571l-.091.193v14.12l.095.189a1.319,1.319,0,0,0,.953.74c.138.024.649.034,1.6.027l1.4-.01.064-.081a.238.238,0,0,0-.014-.334c-.078-.074-.088-.074-1.463-.074-1.5,0-1.625-.01-1.848-.182a.955.955,0,0,1-.209-.267l-.084-.172v-6.891c0-6.867,0-6.894.071-7.046a.709.709,0,0,1,.351-.382l.135-.074,3.962-.01,3.959-.007v.8a9.8,9.8,0,0,0,.037,1.007,1.316,1.316,0,0,0,1.061,1.057,9.664,9.664,0,0,0,1,.037h.8v2.226c0,1.226.01,2.253.02,2.283a.273.273,0,0,0,.449.007,23.954,23.954,0,0,0,.03-2.405l-.01-2.331-.095-.186a31.552,31.552,0,0,0-2.912-2.908l-.169-.081-4.053-.007A31.735,31.735,0,0,0,30.388-511.718Zm10.58,2.817a4.153,4.153,0,0,1-.686.02c-.655-.013-.692-.017-.851-.1a.816.816,0,0,1-.419-.537,6.187,6.187,0,0,1-.037-.787v-.615l1,1C40.519-509.377,40.968-508.914,40.968-508.9Z" fill="#fff"/>
    <path id="Path_3036" data-name="Path 3036" d="M82.213-425.912a.2.2,0,0,0,.01.307l.081.095,2.125.01c1.473.007,2.148,0,2.209-.027a.318.318,0,0,0,.166-.25.323.323,0,0,0-.071-.135L86.665-426H82.281Z" transform="translate(-50.869 -82.877)" fill="#fff"/>
    <path id="Path_3037" data-name="Path 3037" d="M82.084-373.916a.256.256,0,0,0-.084.135.341.341,0,0,0,.176.267c.044.01,1.956.02,4.253.02,4.175,0,4.175,0,4.266-.071a.253.253,0,0,0,.02-.368C90.647-374,90.6-374,86.408-374H82.166Z" transform="translate(-50.727 -133.121)" fill="#fff"/>
    <path id="Path_3038" data-name="Path 3038" d="M82.3-327.943a.342.342,0,0,0-.091.169.175.175,0,0,0,.064.193l.088.088h4.243c4.2,0,4.239,0,4.307-.068a.253.253,0,0,0-.02-.368C90.8-328,90.8-328,86.589-328A30.9,30.9,0,0,0,82.3-327.943Z" transform="translate(-50.924 -177.567)" fill="#fff"/>
    <path id="Path_3039" data-name="Path 3039" d="M89.809-258.936c-.122.071-.25.27-1.257,1.969-.618,1.04-1.138,1.949-1.159,2.017-.084.3.078.53.591.817a1.073,1.073,0,0,0,1.091.155c.125-.057.243-.061.243-.01,0,.007-.068.108-.149.223a.931.931,0,0,0-.223.625.835.835,0,0,0,.834.817c.125,0,.138.007.172.128a.974.974,0,0,0,.422.483.952.952,0,0,0,.331.088c.186.017.193.024.23.142a.909.909,0,0,0,.426.476,1.012,1.012,0,0,0,.591.061c.111-.024.122-.017.22.132a.8.8,0,0,0,.692.361.81.81,0,0,0,.564-.2l.1-.081.341.2a1.166,1.166,0,0,0,.8.257.869.869,0,0,0,.7-.567c.024-.081.044-.149.047-.155a.652.652,0,0,1,.128.044,1.031,1.031,0,0,0,.615,0,1.236,1.236,0,0,0,.23-.135.925.925,0,0,0,.294-.5c0-.081.01-.084.2-.081a1.3,1.3,0,0,0,.324-.044.919.919,0,0,0,.537-.615c.024-.088.027-.088.176-.054a.87.87,0,0,0,.665-.155.865.865,0,0,0,.247-1.054.449.449,0,0,1-.064-.193.615.615,0,0,1,.155-.1.378.378,0,0,1,.331-.034,1.081,1.081,0,0,0,.824-.189c.436-.25.547-.338.608-.463a.624.624,0,0,0,.007-.486c-.169-.324-2.2-3.722-2.273-3.8a.526.526,0,0,0-.453-.152,3.018,3.018,0,0,0-.969.578.861.861,0,0,0-.236.713c.01.243.007.257-.068.277a1.458,1.458,0,0,1-.767-.159,1.635,1.635,0,0,0-1.341-.037l-.527.138-.267-.128a.961.961,0,0,0-.584-.125,1.474,1.474,0,0,0-.736.162c-.486.186-.645.2-.905.078l-.172-.081-.017-.23c-.03-.426-.182-.628-.713-.949C90.214-259.034,90.039-259.067,89.809-258.936Zm.611.625c.368.22.473.358.443.591-.02.145-1.726,3.064-1.868,3.192a.481.481,0,0,1-.436.108,2.839,2.839,0,0,1-.405-.206c-.263-.159-.284-.176-.247-.243.071-.132,2.094-3.55,2.131-3.594.017-.02.037-.041.047-.041S90.245-258.419,90.42-258.311Zm8.712,1.618c.591.993,1.074,1.834,1.078,1.861a1.794,1.794,0,0,1-.655.415.455.455,0,0,1-.446-.125,9.046,9.046,0,0,1-.5-.787,8.558,8.558,0,0,0-.466-.736.265.265,0,0,0-.314.027c-.128.128-.091.236.338.959.223.378.412.706.422.736s-.034.081-.149.152l-.166.1-.855-.507c-2.162-1.28-2.679-1.581-2.733-1.581a.284.284,0,0,0-.236.23.965.965,0,0,1-.142.456.642.642,0,0,1-.432.226h-.108l.014-.652c.017-.956.044-.993.878-1.209a5.915,5.915,0,0,1,.608-.132,1.254,1.254,0,0,1,.29.071c.76.287.966.321,1.3.22l.159-.047.1.166c.111.182.226.25.348.2.226-.088.22-.243-.02-.649-.318-.53-.27-.719.263-1.034.169-.1.314-.179.324-.179S98.544-257.689,99.132-256.693Zm-5.675-.52c.047.02.081.047.074.057s-.061.125-.125.257l-.118.236v.784c0,.871,0,.875.257,1.051.1.071.145.078.368.068a1.029,1.029,0,0,0,.885-.557c.1-.172.108-.179.176-.135.037.027.787.47,1.659.983s1.628.983,1.682,1.037a.3.3,0,0,1-.007.443c-.182.206-.213.193-1.534-.591a11.254,11.254,0,0,0-1.263-.7.246.246,0,0,0-.186.4c.03.037.439.294.9.567s.878.527.919.564a.334.334,0,0,1-.044.517c-.179.118-.253.088-1.2-.473-.493-.29-.929-.537-.973-.551a.25.25,0,0,0-.263.182c-.047.182.007.233.73.662.595.351.7.429.753.537a.222.222,0,0,1,.014.24.461.461,0,0,1-.128.172c-.155.108-.26.071-.919-.318-.345-.2-.665-.378-.713-.392a.269.269,0,0,0-.274.284c.03.128.057.155.361.331s.385.253.409.378a.351.351,0,0,1-.388.4,2.818,2.818,0,0,1-.669-.388.746.746,0,0,1,.051-.149.962.962,0,0,0,.01-.571.978.978,0,0,0-.5-.524l-.159-.054.03-.149a.677.677,0,0,0-.007-.328.831.831,0,0,0-.757-.659l-.2-.02-.047-.142a.861.861,0,0,0-.176-.27.755.755,0,0,0-.632-.263.6.6,0,0,0-.415.108l-.176.111-.1-.122a.943.943,0,0,0-.243-.189.962.962,0,0,0-.676-.047c-.159.064-.22.068-.243.01-.01-.034,1.48-2.611,1.554-2.682a.848.848,0,0,1,.209.081.945.945,0,0,0,.537.095,1.421,1.421,0,0,0,.726-.159C93.038-257.257,93.282-257.294,93.457-257.213ZM90.3-253.926a.342.342,0,0,1,.162.351,2.7,2.7,0,0,1-.5.713.346.346,0,0,1-.5-.3c0-.108.041-.186.226-.443C89.954-253.984,90.069-254.044,90.3-253.926Zm1.436.257c.155.172.118.277-.284.844-.193.267-.385.527-.432.578a.331.331,0,0,1-.405.081.291.291,0,0,1-.176-.307c0-.108.064-.213.405-.692a4.183,4.183,0,0,1,.483-.6A.358.358,0,0,1,91.731-253.669Zm.939.669a.256.256,0,0,1,.111.23c0,.115-.054.209-.415.713a3.421,3.421,0,0,1-.486.6.344.344,0,0,1-.47-.22.245.245,0,0,1,.034-.257,11.168,11.168,0,0,1,.824-1.115A.322.322,0,0,1,92.67-253Zm.672,1.148c.142.142.132.284-.034.53-.2.294-.287.368-.449.368a.251.251,0,0,1-.233-.111c-.142-.159-.132-.284.044-.544s.274-.341.439-.341A.289.289,0,0,1,93.342-251.852Z" transform="translate(-55.918 -244.226)" fill="#fff"/>
  </g>
</svg>
