<svg xmlns="http://www.w3.org/2000/svg" width="20.533" height="13.087" viewBox="0 0 20.533 13.087">
  <g id="Group_567" data-name="Group 567" transform="translate(0 0)" opacity="0.12">
    <path id="Path_867" data-name="Path 867" d="M-6624.039-11076.194c-.183-.251-4.554-6.145-10.135-6.145s-9.952,5.894-10.135,6.145a.675.675,0,0,0,0,.8c.183.251,4.553,6.143,10.135,6.143s9.952-5.894,10.135-6.143A.677.677,0,0,0-6624.039-11076.194Zm-10.135,5.589c-4.111,0-7.672-3.911-8.727-5.188,1.053-1.28,4.606-5.189,8.727-5.189s7.672,3.909,8.727,5.189C-6626.5-11074.515-6630.054-11070.605-6634.174-11070.605Z" transform="translate(6644.44 11082.339)"/>
    <path id="Path_868" data-name="Path 868" d="M-6633.189-11079.461a4.066,4.066,0,0,0-4.062,4.062,4.064,4.064,0,0,0,4.062,4.06,4.065,4.065,0,0,0,4.062-4.06A4.067,4.067,0,0,0-6633.189-11079.461Zm0,6.768a2.71,2.71,0,0,1-2.708-2.706,2.709,2.709,0,0,1,2.708-2.707,2.708,2.708,0,0,1,2.707,2.707A2.71,2.71,0,0,1-6633.189-11072.693Z" transform="translate(6643.455 11081.943)"/>
  </g>
</svg>
