<svg xmlns="http://www.w3.org/2000/svg" width="18.889" height="18.898" viewBox="0 0 18.889 18.898">
  <g id="Group_17293" data-name="Group 17293" transform="translate(-0.166 511.859)">
    <path id="Path_2093" data-name="Path 2093" d="M9.437-511.839c-.078.018-8.384,3.751-8.713,3.913A.836.836,0,0,0,.2-507.2a.881.881,0,0,0,.528.857c.185.078,17.64.078,17.824,0a.881.881,0,0,0,.528-.857.9.9,0,0,0-.292-.587c-.111-.089-8.277-3.788-8.809-3.991A.853.853,0,0,0,9.437-511.839Z" transform="translate(-0.028)" fill="#ed1c24"/>
    <path id="Path_2094" data-name="Path 2094" d="M30.07-339.9a.43.43,0,0,0-.314.425.322.322,0,0,0,.126.27.332.332,0,0,0,.314.126h.188v7.746l-.236.015a.86.86,0,0,0-.705.413.867.867,0,0,0,.155,1.063c.24.229-.373.214,8.1.214h7.727l.166-.089a.855.855,0,0,0-.406-1.61H45v-7.753h.181a.412.412,0,0,0,.14-.809C45.21-339.929,30.2-339.937,30.07-339.9Zm4.6,4.7v3.876H32.119v-7.753h2.547Zm4.312.007.007,3.869H36.4v-7.753l1.285.007,1.281.011Zm4.29-.007v3.876H40.684v-3.851c0-2.119.011-3.865.026-3.876s.594-.026,1.292-.026h1.266Z" transform="translate(-28.082 -165.589)" fill="#ed1c24"/>
    <path id="Path_2095" data-name="Path 2095" d="M.861-46.606a.874.874,0,0,0-.69.93.8.8,0,0,0,.273.532c.266.258-.428.24,9.156.24,6.191,0,8.7-.011,8.816-.041a.859.859,0,0,0,.62-.827.831.831,0,0,0-.509-.783c-.14-.063-.55-.066-8.842-.07C4.9-46.628.931-46.621.861-46.606Z" transform="translate(0 -448.058)" fill="#ed1c24"/>
  </g>
</svg>
