<svg xmlns="http://www.w3.org/2000/svg" width="12.754" height="12.754" viewBox="0 0 12.754 12.754">
  <g id="Group_15100" data-name="Group 15100" opacity="0.7">
    <g id="Group_506" data-name="Group 506">
      <path id="Path_892" data-name="Path 892" d="M609.64,986.17a.5.5,0,0,0,.5-.5v-5.281a1.994,1.994,0,0,0-1.992-1.992H607.5v-.5a.5.5,0,0,0-1,0v.5h-2.266v-.5a.5.5,0,0,0-1,0v.5H601v-.5a.5.5,0,1,0-1,0v.5h-.623a2,2,0,0,0-1.993,1.992v7.772a2,2,0,0,0,1.993,1.993h8.768a2,2,0,0,0,1.992-1.993.5.5,0,1,0-1,0,1,1,0,0,1-1,1h-8.768a1,1,0,0,1-1-1v-7.772a1,1,0,0,1,1-1H600v.5a.5.5,0,1,0,1,0v-.5h2.242v.5a.5.5,0,1,0,1,0v-.5H606.5v.5a.5.5,0,1,0,1,0v-.5h.648a1,1,0,0,1,1,1v5.281A.5.5,0,0,0,609.64,986.17Z" transform="translate(-597.384 -977.402)" fill="#302f34"/>
      <path id="Path_893" data-name="Path 893" d="M606.669,983.679l-2.455,3.43a.285.285,0,0,1-.2.1.282.282,0,0,1-.214-.077l-1.59-1.526a.5.5,0,1,0-.69.719l1.591,1.528a1.284,1.284,0,0,0,.884.353l.084,0a1.282,1.282,0,0,0,.913-.476l.017-.021,2.465-3.444a.5.5,0,0,0-.81-.58Z" transform="translate(-598.082 -978.464)" fill="#302f34"/>
    </g>
  </g>
</svg>
