<svg xmlns="http://www.w3.org/2000/svg" width="14.897" height="17.486" viewBox="0 0 14.897 17.486">
  <g id="loan-_1_" transform="translate(-38.117 511.769)">
    <path id="Path_3065" data-name="Path 3065" d="M42.231-511.729a.568.568,0,0,0-.287.3,2.144,2.144,0,0,0-.038.468v.369l-.424.014c-.461.01-.526.034-.684.246-.068.092-.072.14-.082,1.531l-.01,1.439.075.082a.241.241,0,0,0,.369-.01c.068-.089.072-.126.072-1.435v-1.347H51.305v13.773H43.643l.021-.079a3.154,3.154,0,0,0-.014-1.494,3.807,3.807,0,0,0-.232-.564,2.227,2.227,0,0,0-.5-.653,2.048,2.048,0,0,0-.7-.523,3.216,3.216,0,0,0-.913-.3l-.079-.014v-3.192c0-1.757-.01-3.22-.021-3.25a.327.327,0,0,0-.123-.106.188.188,0,0,0-.2-.01.267.267,0,0,0-.133.1c-.021.038-.034,1.275-.034,3.254v3.192l-.3.058a2.82,2.82,0,0,0-1.7,4.5,2.825,2.825,0,0,0,3.695.68,3.307,3.307,0,0,0,.858-.824l.188-.267h8l.116-.072c.2-.123.249-.277.249-.731v-.393h.414c.478,0,.6-.044.714-.277.065-.126.068-.212.068-2.895,0-2.748,0-2.765-.072-2.857a.231.231,0,0,0-.369,0c-.072.092-.072.113-.072,2.8v2.714h-.684l-.007-6.371-.01-6.374-.072-.092a.931.931,0,0,0-.164-.164c-.092-.072-.109-.072-4.621-.082l-4.525-.007v-.684H52.5v3.654c0,3.517,0,3.657.065,3.732a.264.264,0,0,0,.383,0c.065-.079.065-.2.058-3.818-.01-3.712-.01-3.736-.082-3.828a.931.931,0,0,0-.164-.164c-.092-.072-.1-.072-5.26-.079C43.246-511.773,42.317-511.766,42.231-511.729Zm-.6,12.427a2.3,2.3,0,0,1,.926.578,2.286,2.286,0,0,1,.584.943,1.825,1.825,0,0,1,.079.684,1.614,1.614,0,0,1-.106.738,2.285,2.285,0,0,1-1.159,1.316,2.068,2.068,0,0,1-1.145.239,2.034,2.034,0,0,1-.906-.236,2.306,2.306,0,0,1-.677-3.613,2.3,2.3,0,0,1,1.145-.687A2.7,2.7,0,0,1,41.633-499.3Z" fill="#fff"/>
    <path id="Path_3066" data-name="Path 3066" d="M71.6-121.89a4.7,4.7,0,0,0-.615.543l-.5.5-.133-.137a.754.754,0,0,0-.906-.2.714.714,0,0,0-.342.834,3.924,3.924,0,0,0,1.008,1.025.9.9,0,0,0,.752,0,11.708,11.708,0,0,0,1.675-1.668.694.694,0,0,0-.332-.885A.83.83,0,0,0,71.6-121.89Zm.437.5c.116.116.058.2-.67.926l-.711.707h-.167c-.167,0-.167,0-.537-.369s-.424-.461-.314-.567c.092-.1.185-.058.431.167s.4.294.543.222c.044-.024.328-.287.632-.584.461-.458.564-.543.649-.543A.232.232,0,0,1,72.034-121.391Z" transform="translate(-29.895 -376.503)" fill="#fff"/>
    <path id="Path_3067" data-name="Path 3067" d="M159.072-426.916c-.068.089-.072.133-.072,1.063v.971l.085.082c.079.082.1.085.472.085.342,0,.4-.01.482-.072a.248.248,0,0,0,.014-.373c-.058-.055-.12-.068-.308-.068h-.232v-.813c0-.807,0-.817-.079-.889A.241.241,0,0,0,159.072-426.916Z" transform="translate(-116.752 -81.866)" fill="#fff"/>
    <path id="Path_3068" data-name="Path 3068" d="M202.214-426.847a1.157,1.157,0,0,0-.6.574.856.856,0,0,0-.113.5.985.985,0,0,0,.311.769,1.133,1.133,0,0,0,1.9-.373.971.971,0,0,0,.058-.465,1.084,1.084,0,0,0-.619-.964A1.312,1.312,0,0,0,202.214-426.847Zm.66.482a.777.777,0,0,1,.338.311.7.7,0,0,1,.048.267.618.618,0,0,1-1.042.472.621.621,0,0,1,.4-1.087A.884.884,0,0,1,202.874-426.366Z" transform="translate(-157.799 -81.956)" fill="#fff"/>
    <path id="Path_3069" data-name="Path 3069" d="M278.369-426.942a13.071,13.071,0,0,0-.769,1.989.209.209,0,0,0,.079.178c.164.133.349.048.444-.212l.058-.15h.742l.048.137c.048.15.185.29.28.29a.277.277,0,0,0,.243-.249,13.771,13.771,0,0,0-.755-1.982.358.358,0,0,0-.185-.058A.358.358,0,0,0,278.369-426.942Zm.318,1.2c.024.072.014.075-.13.075-.085,0-.157-.014-.157-.031a1.535,1.535,0,0,1,.075-.208l.075-.181.058.133C278.639-425.879,278.673-425.787,278.687-425.742Z" transform="translate(-231.298 -81.871)" fill="#fff"/>
    <path id="Path_3070" data-name="Path 3070" d="M342.2-426.928c-.062.065-.065.144-.075,1-.007.513,0,.964.01,1.008a.287.287,0,0,0,.236.212.31.31,0,0,0,.167-.072c.089-.068.092-.072.1-.6l.01-.537.338.5c.185.273.376.537.424.588a.275.275,0,0,0,.386.031l.082-.065.01-.954c.01-.926.007-.957-.061-1.046a.211.211,0,0,0-.191-.092c-.208,0-.232.068-.253.66l-.017.52-.39-.564c-.212-.311-.41-.584-.441-.608A.284.284,0,0,0,342.2-426.928Z" transform="translate(-293.613 -81.872)" fill="#fff"/>
    <path id="Path_3071" data-name="Path 3071" d="M159.216-342.959a.231.231,0,0,0-.082.383l.068.089h2.956c2.908,0,2.953,0,3.021-.068a.256.256,0,0,0-.021-.373c-.092-.072-.109-.072-2.984-.072C160.149-343,159.264-342.986,159.216-342.959Z" transform="translate(-116.814 -163.001)" fill="#fff"/>
    <path id="Path_3072" data-name="Path 3072" d="M351.47-342.928a.225.225,0,0,0-.089.137c0,.038-.055.1-.13.15a.665.665,0,0,0-.28.707c.058.208.239.369.578.506.308.123.366.2.263.359-.079.12-.249.144-.448.055s-.26-.089-.373,0c-.191.15-.072.407.236.509a.249.249,0,0,1,.171.154.237.237,0,0,0,.308.14c.062-.017.109-.068.154-.171a.327.327,0,0,1,.133-.174.827.827,0,0,0,.345-.444.687.687,0,0,0-.1-.588c-.1-.133-.15-.164-.557-.349-.253-.113-.287-.171-.144-.263.082-.058.1-.055.263.017.273.123.318.123.414.027.174-.174.075-.386-.239-.519-.075-.031-.116-.072-.116-.116,0-.075-.15-.208-.239-.208A.311.311,0,0,0,351.47-342.928Z" transform="translate(-302.093 -163.001)" fill="#fff"/>
    <path id="Path_3073" data-name="Path 3073" d="M159.155-308.911a.234.234,0,0,0-.007.325l.065.082,2.939.01c2.932.007,2.936.007,3.025-.065a.253.253,0,0,0,.024-.373c-.068-.068-.113-.068-3.021-.068h-2.956Z" transform="translate(-116.834 -195.839)" fill="#fff"/>
    <path id="Path_3074" data-name="Path 3074" d="M159.295-275.9a.241.241,0,0,0-.075.39l.068.089h2.956c2.908,0,2.953,0,3.021-.068a.256.256,0,0,0-.021-.373c-.092-.072-.106-.072-2.984-.068C160.672-275.932,159.336-275.918,159.295-275.9Z" transform="translate(-116.899 -227.776)" fill="#fff"/>
    <path id="Path_3075" data-name="Path 3075" d="M161.155-241.911a.234.234,0,0,0-.007.325l.065.082h7.43l.065-.082a.234.234,0,0,0-.007-.325l-.068-.089h-7.41Z" transform="translate(-118.766 -260.549)" fill="#fff"/>
    <path id="Path_3076" data-name="Path 3076" d="M161.295-208.695a.241.241,0,0,0-.075.39l.068.089h1.5c1.456,0,1.5,0,1.569-.068a.264.264,0,0,0,0-.345l-.065-.082-1.466-.007C162.029-208.722,161.336-208.712,161.295-208.695Z" transform="translate(-118.831 -292.692)" fill="#fff"/>
    <path id="Path_3077" data-name="Path 3077" d="M250.119-208.5a2.023,2.023,0,0,0-.813.376,1.992,1.992,0,0,0-.55.666c-.044.106-.048.106-.294.106-.219,0-.263.01-.355.089a.237.237,0,0,0-.106.236c0,.137.014.161.181.308l.178.157-.178.154c-.164.144-.181.171-.181.3a.316.316,0,0,0,.068.219c.082.085.15.106.424.116l.205.01.12.205a1.976,1.976,0,0,0,2.563.759,2.286,2.286,0,0,0,.824-.772l.12-.208h.226c.27,0,.393-.075.427-.253.024-.144-.024-.236-.205-.407l-.14-.126.14-.13c.181-.164.229-.26.205-.4-.034-.178-.157-.253-.427-.253h-.226l-.12-.208a2.084,2.084,0,0,0-1.159-.9A2.177,2.177,0,0,0,250.119-208.5Zm.687.513a1.283,1.283,0,0,1,.687.355c.325.3.4.28-.981.28a9.348,9.348,0,0,1-1.213-.034,1.575,1.575,0,0,1,.554-.475A1.3,1.3,0,0,1,250.806-207.987Zm1.265,1.237a.281.281,0,0,0,0,.369l.068.089h-3.254l.051-.075a.387.387,0,0,0,.055-.2.387.387,0,0,0-.055-.2l-.051-.075h3.254Zm-.376,1.032a1.727,1.727,0,0,1-.567.472,1.43,1.43,0,0,1-1.275-.024,1.575,1.575,0,0,1-.554-.475,9.348,9.348,0,0,1,1.213-.034C251.671-205.779,251.725-205.776,251.695-205.718Z" transform="translate(-202.71 -292.873)" fill="#fff"/>
  </g>
</svg>
