<svg xmlns="http://www.w3.org/2000/svg" width="42" height="39" viewBox="0 0 42 39">
  <g id="Group_18114" data-name="Group 18114" transform="translate(-14.916 -12)">
    <g id="Rectangle_2477" data-name="Rectangle 2477" transform="translate(14.916 12)" fill="none" stroke="#000" stroke-width="0.5">
      <rect width="42" height="39" rx="7" stroke="none"/>
      <rect x="0.25" y="0.25" width="41.5" height="38.5" rx="6.75" fill="none"/>
    </g>
    <g id="cooking" transform="translate(24.045 517.842)">
      <path id="Path_3128" data-name="Path 3128" d="M12.082-497.624a2.8,2.8,0,0,0-1.514.939l-.169.228H9.825a2.53,2.53,0,0,0-1.988.657,1.61,1.61,0,0,0-.059,2.362l.269.287v2.476c0,2.75.014,2.891.3,3.5a4.255,4.255,0,0,0,.994,1.354l.451.451-.173.178c-.214.223-.429.287-1.181.356a3.8,3.8,0,0,0-3.311,1.851l-.137.274-1.97.023a7.949,7.949,0,0,0-2.134.1,1.212,1.212,0,0,0-.666.994,1.2,1.2,0,0,0,.666,1.122,1.891,1.891,0,0,0,.771.1l.6.018.146.278a4.884,4.884,0,0,0,.994,1.327l.406.392H3.537a1.118,1.118,0,0,0-.894.447c-.132.2-.137.214-.15.839a2.556,2.556,0,0,0,.041.784,1.041,1.041,0,0,0,.511.552c.233.114.242.114,1.4.114,1.3,0,1.332-.009,1.391-.305a.236.236,0,0,0-.087-.26l-.119-.119H4.522c-1.418,0-1.354.032-1.354-.679,0-.451.009-.5.1-.588l.1-.1h3.7c4.337,0,3.9-.064,3.931.565.018.456-.009.588-.132.711-.087.087-.16.091-2.006.091H6.948l-.109.114a.292.292,0,0,0,0,.456l.109.114H8.872c2.07,0,2.152-.009,2.435-.237a1.092,1.092,0,0,0,.378-.894l.023-.374,3.99.009,3.99.014.055.219a1.15,1.15,0,0,0,.57.734c.246.141.255.141.889.137a2.037,2.037,0,0,0,.9-.1,1.835,1.835,0,0,0,1.067-1.117,4.008,4.008,0,0,0,.082-1.259c0-.962-.009-1.044-.109-1.29a2.071,2.071,0,0,0-.88-.944,1.522,1.522,0,0,0-.365-.137c-.078,0-.082-.1-.082-2.435v-2.43l.378-.023a1.339,1.339,0,0,0,1.222-.766l.109-.205v-3.7l-.137-.269a1.368,1.368,0,0,0-.793-.67,6.032,6.032,0,0,0-1.167-.059c-.9,0-.971,0-1.186.1a1.548,1.548,0,0,0-.7.67l-.123.228v3.648l.128.26a1.3,1.3,0,0,0,1.208.757l.374.023v4.82h-.57l-.214-.871a3.882,3.882,0,0,0-.73-1.76,4.412,4.412,0,0,0-3.242-1.332c-.534-.046-.821-.164-.976-.4-.073-.114-.073-.114.251-.41a4.733,4.733,0,0,0,1.313-2.047,15.088,15.088,0,0,0,.1-2.855l.018-2.581.251-.26a1.473,1.473,0,0,0,.5-1.167,1.186,1.186,0,0,0-.146-.689,2.13,2.13,0,0,0-1.459-1.113,5.555,5.555,0,0,0-.9-.068h-.593l-.1-.187a2.083,2.083,0,0,0-1.131-.912A3.182,3.182,0,0,0,12.082-497.624Zm1.263.757a1.362,1.362,0,0,1,.766.752c.1.214.16.3.237.315.059.014.474.032.926.036.789.014.83.018,1.094.141a1.151,1.151,0,0,1,.771,1.035c0,.36-.114.547-.579.939l-.169.141v2.212l-.1-.023a20.067,20.067,0,0,0-2.736-.351c-.223,0-.269.014-.351.119a.312.312,0,0,0-.014.429c.078.091.155.109.812.169.4.036.748.073.775.082a.507.507,0,0,1,.078.278,2.015,2.015,0,0,0,1.172,1.509l.365.173v.242a3.363,3.363,0,0,1-1.058,2.335,3.863,3.863,0,0,1-3.525,1.236A5.655,5.655,0,0,1,9.8-486.315a3.091,3.091,0,0,1-1.067-2.28v-.328l.342-.16a2.037,2.037,0,0,0,1.176-1.468l.064-.319.269-.032c.146-.018.524-.05.834-.073.506-.036.575-.05.652-.146a.352.352,0,0,0-.009-.456c-.078-.077-.15-.091-.447-.091a18.96,18.96,0,0,0-2.777.351l-.1.023v-1.1c0-1.245.05-1.067-.4-1.473a.858.858,0,0,1-.342-.7,1.239,1.239,0,0,1,.812-1.058c.26-.119.31-.128,1.049-.141.429,0,.821-.023.876-.032a.507.507,0,0,0,.219-.223,2.531,2.531,0,0,1,.789-.752A2.093,2.093,0,0,1,13.345-496.867ZM9.552-490.6a1.406,1.406,0,0,1-.492.73c-.324.237-.333.228-.319-.287l.014-.442.365-.078C9.62-490.775,9.593-490.779,9.552-490.6Zm6.589-.05.228.05.014.47.014.47-.141-.073a1.4,1.4,0,0,1-.707-.88l-.032-.15.2.032C15.822-490.711,16.018-490.674,16.141-490.647Zm6.48.073c.242.223.246.278.246,2.011,0,1.769,0,1.81-.292,2.015-.132.1-.2.1-1.021.114s-.9.009-1.072-.078c-.378-.182-.374-.164-.374-2.079,0-1.879,0-1.838.31-2.034.137-.082.214-.087,1.113-.077C22.488-490.688,22.5-490.688,22.62-490.574Zm-11.062,6.119a3.389,3.389,0,0,0,2.462-.191c.187-.078.42-.187.524-.242l.187-.1.192.214.192.214-.192.169a4.547,4.547,0,0,1-4.537.164c-.415-.269-.42-.283-.2-.543l.192-.223.374.2A6.824,6.824,0,0,0,11.558-484.455Zm-2.371,1.017v.757l-.442-.014-.447-.014v-1.414l.16-.027a3.38,3.38,0,0,1,.447-.036l.283,0Zm7.424-.72.237.027-.009,1.076-.014,1.076h-.866l-.014-1.108-.009-1.1h.214A4.051,4.051,0,0,1,16.61-484.158Zm-9.02.812v.661H6.679a6.045,6.045,0,0,1-.912-.036,2.073,2.073,0,0,1,.415-.552,2.935,2.935,0,0,1,.994-.6c.192-.068.36-.128.383-.132A3.4,3.4,0,0,1,7.591-483.346Zm10.67-.378a2.25,2.25,0,0,1,.675.474,3.256,3.256,0,0,1,.8,1.851l.21.9-.114.214c-.114.21-.114.228-.114,1.345v1.135h-1l-.046-.242c-.027-.128-.16-.9-.3-1.71-.287-1.678-.342-1.833-.73-2.088l-.114-.073V-484l.173.046A4.665,4.665,0,0,1,18.261-483.725Zm-7.579.4a4.928,4.928,0,0,0,1.833.292,7.069,7.069,0,0,0,1-.059,5.053,5.053,0,0,0,1.432-.483c.146-.087.274-.16.283-.16s.018.4.018.889v.889H13.614l-.068-.128a1.46,1.46,0,0,0-.529-.492c-.146-.078-.3-.087-1.651-.1l-1.5-.014v-1.044l.223.141A4.571,4.571,0,0,0,10.682-483.324Zm-8.764,1.436a2.4,2.4,0,0,0,.1.775c.023.068-.018.078-.41.064-.41-.018-.447-.027-.565-.146a.479.479,0,0,1,.146-.766A1.966,1.966,0,0,1,1.613-482l.333,0Zm9.357.091a3.464,3.464,0,0,1-.538,1.651,4.393,4.393,0,0,1-1.628,1.591l-.356.2H5.206l-.324-.164a3.767,3.767,0,0,1-.958-.661,4.454,4.454,0,0,1-1.186-1.9,1.7,1.7,0,0,1-.087-.889c.014-.018,1.961-.027,4.318-.023l4.291.014Zm1.5-.119a.442.442,0,0,1,.182.565c-.1.233-.269.306-.716.306-.365,0-.369,0-.337-.1a3.3,3.3,0,0,0,.055-.479l.027-.374h.324A.845.845,0,0,1,12.771-481.915Zm4.61.762a13.151,13.151,0,0,1,.356,1.733l.278,1.614H11.6l-.214-.223a1.047,1.047,0,0,0-.944-.324H10.09l.324-.3A5.155,5.155,0,0,0,11.444-480l.178-.347.62-.018a1.687,1.687,0,0,0,.8-.114,1.35,1.35,0,0,0,.565-.625l.055-.164H17.3Zm4.551,1.04a1.079,1.079,0,0,1,.6.693,3.675,3.675,0,0,1,.055,1.081c-.018.907-.05,1.035-.337,1.327-.264.26-.447.319-1.035.319l-.543,0-.132-.151-.132-.146v-1.473c0-1.851-.046-1.756.821-1.76A1.316,1.316,0,0,1,21.932-480.113Z" transform="translate(0 0)" fill="#df1a22"/>
      <path id="Path_3129" data-name="Path 3129" d="M262.041-449.61l-.141.141.014.917c.014.9.014.917.123,1a.352.352,0,0,0,.461,0c.087-.087.091-.15.091-1.04,0-1.044,0-1.058-.283-1.126C262.205-449.747,262.155-449.724,262.041-449.61Z" transform="translate(-249.754 -45.757)" fill="#df1a22"/>
      <path id="Path_3130" data-name="Path 3130" d="M211.114-433.886c-.114.109-.114.114-.114,1.017,0,1.012.018,1.076.306,1.131a.236.236,0,0,0,.26-.087l.119-.119v-.917c0-.912,0-.917-.114-1.026a.376.376,0,0,0-.228-.114A.376.376,0,0,0,211.114-433.886Z" transform="translate(-201.175 -60.769)" fill="#df1a22"/>
      <path id="Path_3131" data-name="Path 3131" d="M314.119-433.822l-.119.091v1.906l.119.091a.268.268,0,0,0,.356.046c.191-.091.214-.233.2-1.176-.014-.862-.014-.88-.123-.967A.313.313,0,0,0,314.119-433.822Z" transform="translate(-299.478 -60.851)" fill="#df1a22"/>
      <path id="Path_3132" data-name="Path 3132" d="M218.415-325.691a.987.987,0,0,0-.465.306.359.359,0,0,0,.091.424c.15.119.205.119.429,0a1.007,1.007,0,0,1,.388-.091,1.007,1.007,0,0,1,.388.091c.223.114.278.114.429,0a.362.362,0,0,0,.073-.456,1.02,1.02,0,0,0-.821-.3A2.728,2.728,0,0,0,218.415-325.691Z" transform="translate(-207.778 -164.112)" fill="#df1a22"/>
      <path id="Path_3133" data-name="Path 3133" d="M279.541-325.832c-.406.155-.547.461-.319.684.132.137.223.141.447.023a.884.884,0,0,1,.793.009c.187.091.214.1.324.032.31-.173.274-.479-.082-.675A1.81,1.81,0,0,0,279.541-325.832Z" transform="translate(-266.182 -163.944)" fill="#df1a22"/>
      <path id="Path_3134" data-name="Path 3134" d="M111.752-319.61a1.061,1.061,0,0,0-.315.506,1.121,1.121,0,0,0,.141.939,1.826,1.826,0,0,1,.155.465.654.654,0,0,1-.16.306c-.233.278-.205.524.064.634.192.082.374-.027.584-.342a.871.871,0,0,0,.187-.543.882.882,0,0,0-.1-.556c-.287-.616-.287-.716-.014-1a.345.345,0,0,0,.018-.547C112.121-319.91,112.017-319.883,111.752-319.61Z" transform="translate(-106.104 -169.715)" fill="#df1a22"/>
      <path id="Path_3135" data-name="Path 3135" d="M70.155-278.862a1.157,1.157,0,0,0-.205,1.459,2.26,2.26,0,0,1,.164.5.723.723,0,0,1-.16.315c-.187.237-.2.378-.046.529.173.178.342.15.565-.1a1.1,1.1,0,0,0,.164-1.386c-.2-.433-.2-.588-.027-.784.255-.3.283-.511.082-.652C70.515-279.1,70.342-279.067,70.155-278.862Z" transform="translate(-66.399 -208.653)" fill="#df1a22"/>
    </g>
  </g>
</svg>
