<svg xmlns="http://www.w3.org/2000/svg" width="16.93" height="16.932" viewBox="0 0 16.93 16.932">
  <g id="exit-_1_" transform="translate(-0.05 512)">
    <path id="Path_3049" data-name="Path 3049" d="M9.172-511.9l-.1.1v4.411l.1.1a.232.232,0,0,0,.311.056c.155-.083.152-.03.155-2.169v-2.024h6.779v15.807l-3.777,0a35.65,35.65,0,0,1-3.631-.043,1,1,0,0,0,.728-.946c0-.218-.093-.433-.724-1.7a7.846,7.846,0,0,0-.751-1.379c-.073-.066-.516-.354-.989-.638s-.873-.532-.886-.546a4.377,4.377,0,0,1,.155-.817.569.569,0,0,1,.139.112.887.887,0,0,0,.675.255l.248,0,1.052-.529a10.6,10.6,0,0,0,1.2-.658.988.988,0,0,0-.212-1.63.782.782,0,0,0-.427-.093c-.231,0-.251.01-.853.308-.337.169-.628.3-.642.3a4.016,4.016,0,0,1-.367-.579.4.4,0,0,1,.126-.05,2.057,2.057,0,0,0,1.293-1.389,2.714,2.714,0,0,0-.013-.939,1.99,1.99,0,0,0-1.306-1.362,2.482,2.482,0,0,0-1.124,0,2,2,0,0,0-1.3,1.362,2.374,2.374,0,0,0,0,.966.87.87,0,0,1,.04.225c-.01.007-.519.228-1.138.489-1.333.562-1.362.579-1.495.731-.179.2-.228.344-.486,1.4a4.387,4.387,0,0,0-.238,1.25.94.94,0,0,0,.579.837.716.716,0,0,0,.437.066.859.859,0,0,0,.648-.3c.172-.182.208-.278.407-1.068l.188-.761L4.3-502.9a3.47,3.47,0,0,1,.334-.132c.02.023-.354,1.994-.39,2.047-.073.1-1.366,1.548-1.386,1.548s-.3-.241-.638-.542a7.564,7.564,0,0,0-.757-.615,1.1,1.1,0,0,0-.744-.05,1.073,1.073,0,0,0-.552.486.7.7,0,0,0-.1.443.836.836,0,0,0,.2.615c.132.165,1.978,1.8,2.143,1.9a1.087,1.087,0,0,0,.936.03A10.5,10.5,0,0,0,4.433-498.2l.962-.972.721.437.721.44.536,1.095a9.2,9.2,0,0,0,.661,1.233,1.145,1.145,0,0,0,.48.3c.046.013-1.8.026-4.094.026l-4.18,0-.1.1a.229.229,0,0,0,0,.37l.1.1H16.788l.1-.1.1-.1v-16.548l-.1-.1-.1-.1H9.268Zm-1.938,4.517A1.349,1.349,0,0,1,8-505.333a1.479,1.479,0,0,1-.668.522,2.472,2.472,0,0,1-.36.073c-.228.023-.327.1-.357.261-.017.083.043.205.377.761.394.665.463.744.632.744a7.94,7.94,0,0,0,.767-.351c.734-.367.87-.407,1.048-.311a.471.471,0,0,1,.2.367c0,.255-.06.3-1.187.866-.9.45-1.052.519-1.141.5-.225-.046-.274-.1-.473-.5a1.948,1.948,0,0,0-.251-.417.293.293,0,0,0-.337.043c-.063.066-.112.241-.278,1-.112.506-.2.962-.2,1.015a.3.3,0,0,0,.06.162c.03.036.466.314.966.618s.959.589,1.022.635a5.947,5.947,0,0,1,.737,1.353c.341.7.622,1.3.622,1.349a.587.587,0,0,1-.066.212.4.4,0,0,1-.615.126,8.929,8.929,0,0,1-.655-1.227l-.569-1.161-.913-.556a4.284,4.284,0,0,0-1.022-.552c-.1,0-.192.079-1.171,1.071-1.128,1.141-1.131,1.144-1.376,1.078a7.025,7.025,0,0,1-.956-.78C.69-499.44.654-499.477.627-499.629a.485.485,0,0,1,.139-.41.513.513,0,0,1,.387-.076,7.985,7.985,0,0,1,.83.681,7.883,7.883,0,0,0,.83.681.271.271,0,0,0,.162-.013c.056-.026,1.366-1.458,1.789-1.958.046-.056.509-2.57.509-2.768a.255.255,0,0,0-.251-.274,8.364,8.364,0,0,0-1.5.625,6.407,6.407,0,0,0-.245.853c-.106.433-.208.823-.231.87a.384.384,0,0,1-.347.225c-.155.013-.172.01-.3-.119-.112-.109-.132-.152-.132-.268,0-.149.433-1.938.513-2.11a.427.427,0,0,1,.122-.155c.043-.026.585-.265,1.21-.529l1.134-.48.185.079c.235.106.354.106.456,0,.119-.116.109-.255-.033-.446a2.972,2.972,0,0,1-.208-.351.964.964,0,0,1-.089-.526.957.957,0,0,1,.106-.556A1.342,1.342,0,0,1,7.234-507.387Z" fill="#fff"/>
    <path id="Path_3050" data-name="Path 3050" d="M273.316-315.52c-.129.066-.169.179-.159.43.013.271.086.367.278.367s.278-.122.278-.41c0-.189-.013-.241-.073-.311A.263.263,0,0,0,273.316-315.52Z" transform="translate(-264.075 -189.955)" fill="#fff"/>
    <path id="Path_3051" data-name="Path 3051" d="M327.118-289.921a.222.222,0,0,0-.093.2c0,.109.033.155.36.483l.364.364h-3.089l-.089.079a.259.259,0,0,0,0,.4l.089.079h3.085l-.37.374c-.308.314-.37.394-.37.476a.3.3,0,0,0,.291.274c.109,0,.169-.05.757-.638.612-.612.638-.645.638-.767s-.026-.155-.638-.767c-.559-.559-.651-.638-.741-.638A.326.326,0,0,0,327.118-289.921Z" transform="translate(-313.696 -214.659)" fill="#fff"/>
    <path id="Path_3052" data-name="Path 3052" d="M273.129-195.956c-.122.093-.129.165-.129,1.214,0,1.224.007,1.257.3,1.257a.271.271,0,0,0,.179-.083l.083-.079v-2.176l-.083-.089A.282.282,0,0,0,273.129-195.956Z" transform="translate(-263.924 -305.551)" fill="#fff"/>
  </g>
</svg>
