<svg xmlns="http://www.w3.org/2000/svg" width="17.223" height="18.723" viewBox="0 0 17.223 18.723">
  <g id="debit" transform="translate(-32.586 -11.481)">
    <path id="Path_2747" data-name="Path 2747" d="M-7.342-3.9l.1,0,.111,0,.118,0,.394-.008.282-.007c.863-.02,1.726-.03,2.589-.038l.347,0h.087c.463,0,.926-.015,1.389-.027S-.967-4.007-.49-4.01c.267,0,.534,0,.8-.015C2.1-4.086,2.1-4.086,2.673-3.573a4.81,4.81,0,0,1,.505.56A1.227,1.227,0,0,0,4.1-2.4a4.667,4.667,0,0,0,.844-.01c.2-.016.391-.024.588-.03s.368-.013.552-.025l.083-.005.221-.016a.4.4,0,0,1,.274.079.9.9,0,0,1,.043.419v.109q0,.181,0,.362v.259q0,.352,0,.7,0,.368,0,.736,0,.618,0,1.236,0,.637,0,1.273v.079q0,.2,0,.394,0,1.633,0,3.266L6.815,6.4l.438-.1.189-.045c.821-.2.821-.2,1.105-.088a1.2,1.2,0,0,1,.287.711l.025.123q.041.2.081.4L9,7.675q.06.293.118.586.075.375.153.749.059.288.117.577l.056.276q.04.193.078.387l.024.114a1.449,1.449,0,0,1,.009.655.824.824,0,0,1-.579.309l-.1.024a1.638,1.638,0,0,1-.4.053c0,.037,0,.073,0,.111q.006.52.009,1.039,0,.267,0,.534t0,.516q0,.1,0,.2c0,.092,0,.184,0,.276l0,.082a.547.547,0,0,1-.217.449.761.761,0,0,1-.36.045h-.6l-.7,0H6.374l-1,0-1.44,0-1.012,0-.6,0H1.25l-.083,0a.553.553,0,0,1-.451-.218.59.59,0,0,1-.039-.309H.571l-2.545.006-1.231,0-1.072,0H-5.995a.291.291,0,0,1-.194-.065.611.611,0,0,1-.053-.364v-.088c0-.092,0-.185,0-.277q0-.094,0-.188,0-.23.006-.461l-.115,0-.423,0-.183,0-.263,0-.083,0c-.187,0-.187,0-.272-.055a.523.523,0,0,1-.065-.343v-.084c0-.094,0-.187,0-.281q0-.1,0-.2,0-.279,0-.558,0-.3,0-.6,0-.589,0-1.179,0-.479,0-.958V8.331q0-.138,0-.276,0-1.3,0-2.595,0-1.114,0-2.228,0-1.293,0-2.585,0-.138,0-.275V.234q0-.478,0-.957,0-.583,0-1.166,0-.3,0-.6,0-.272,0-.544,0-.1,0-.2c0-.089,0-.178,0-.267v-.15a.3.3,0,0,1,.063-.193A.376.376,0,0,1-7.342-3.9Zm.184.443V12.254H.677V9.861l-6.638-.039c0-1.679,0-1.679-.006-2.381q0-.728,0-1.456,0-.53,0-1.06,0-.281,0-.562,0-.264,0-.528,0-.1,0-.194c0-.088,0-.176,0-.265,0-.049,0-.1,0-.15.014-.119.014-.119.063-.184a.29.29,0,0,1,.225-.066h9.03c.074.01.074.01.189.087a.563.563,0,0,1,.015.163v.218c0,.04,0,.079,0,.12,0,.131,0,.262,0,.393q0,.136,0,.272,0,.359,0,.718t0,.732q.005.718.008,1.437l.463-.092L4.166,7l.129-.026.118-.023c.145-.031.289-.068.432-.1V-.443L2.028-.482c-.7-.7-.141-1.98-.154-2.972Zm9.493.386V-.906H4.5c-.142-.166-.278-.321-.431-.474l-.056-.056-.18-.18-.126-.126L3.443-2l-.337-.337L2.846-2.6l-.124-.124L2.549-2.9,2.45-3C2.387-3.072,2.387-3.072,2.336-3.067ZM4.111-2.025a2.257,2.257,0,0,0,.453.438A1.744,1.744,0,0,1,5.34-.553,8.526,8.526,0,0,1,5.371.792c0,.21,0,.419,0,.629,0,.4-.006.79-.014,1.186-.008.451-.011.9-.013,1.352q-.007,1.388-.032,2.777l.2-.031.114-.018c.205-.039.407-.093.61-.144V-2.025ZM-5.536,3.416V4.574h1.081V3.416Zm1.544,0V4.574H1.564V3.416Zm6.02,0V4.574H3.108V3.416ZM-5.536,5.037V6.195h1.081V5.037Zm1.544,0V6.195H1.564V5.037Zm6.02,0V6.195H3.108V5.037ZM7.954,6.614l-.1.023-.113.025-.12.026-.4.087-.28.062-.668.147-.951.209L4.6,7.353l-1.414.31-.227.049-.713.154-.253.055-.117.025L1.77,7.97l-.093.02a.378.378,0,0,0-.151.057l.014.15.008.084c.015.106.034.209.056.314l.021.105.016.08c.707-.138,1.411-.288,2.114-.442l.432-.095.723-.159.924-.2.8-.176.254-.056.4-.088.214-.047q.445-.1.889-.2a4.738,4.738,0,0,0-.116-.733A1.373,1.373,0,0,0,7.954,6.614Zm-13.49.044V7.815h1.081V6.658Zm1.544,0V7.815q1,.005,2,.008l.928,0,.809,0,.428,0H.651l.144,0h.246c.128-.025.164-.081.254-.173l.27-.116V6.658Zm6.02,0v.81l1.081-.232V6.658ZM8.121,7.815l-.112.025-.373.082-.263.058-.56.124-1.3.287-.288.064-2.453.538-.079.017L1.8,9.2a1.09,1.09,0,0,0-.039.154c.13.129.566.055.756.055a7.474,7.474,0,0,0,1.66-.239l.312-.069q.364-.08.726-.164.41-.094.821-.185Q6.742,8.6,7.45,8.439l.584-.131.1-.022.178-.039a1.129,1.129,0,0,0,.276-.084l-.077-.425A1.918,1.918,0,0,0,8.121,7.815Zm-13.657.464V9.4h1.081V8.279Zm1.544,0V9.4H1.294A5.417,5.417,0,0,0,1.1,8.279Zm12.259.415-.1.022-.325.071-.225.049-.593.13L6.418,9.1l-1.188.261V9.4h.1l.981.01.5.005.487.005.185,0,.261,0,.15,0a1.956,1.956,0,0,1,.453.088A.832.832,0,0,1,8.45,10l0,.082c0,.086,0,.172.006.258l0,.176q.006.215.01.43l.617-.116a.488.488,0,0,0,0-.32l-.026-.126-.029-.136-.029-.14q-.046-.221-.092-.442l-.062-.3q-.076-.368-.153-.735A2,2,0,0,0,8.267,8.693ZM1.14,9.861v4.361H8.009V9.861Zm-6.908,2.856v.965H.677v-.965Z" transform="translate(40.223 15.533)" fill="#fff"/>
    <path id="Path_2748" data-name="Path 2748" d="M-11.123-.24h2.251l.944,0h2.275a.472.472,0,0,1,.307.217.309.309,0,0,1-.116.27A1.716,1.716,0,0,1-5.7.248h-5.68l-.1-.014a.389.389,0,0,1-.077-.347A.61.61,0,0,1-11.123-.24Z" transform="translate(45.782 14.775)" fill="#fff"/>
    <path id="Path_2749" data-name="Path 2749" d="M-7.6-.229h2.244l1.1,0h2.379l.1.014a.268.268,0,0,1,.065.256c-.027.13-.027.13-.065.169-.078,0-.156.005-.234.005H-4.255l-1.1,0H-7.732L-7.836.2A.268.268,0,0,1-7.9-.054C-7.858-.264-7.8-.228-7.6-.229Z" transform="translate(42.136 16.008)" fill="#fff"/>
    <path id="Path_2750" data-name="Path 2750" d="M-12.921-.061h3.239a.485.485,0,0,1,.23.087A.734.734,0,0,1-9.413.3.26.26,0,0,1-9.6.431h-3.636A.269.269,0,0,1-13.427.3a.536.536,0,0,1,0-.232C-13.289-.088-13.113-.063-12.921-.061Z" transform="translate(47.65 13.4)" fill="#fff"/>
    <path id="Path_2751" data-name="Path 2751" d="M-9.432-.011h.726a.322.322,0,0,1,.183.058.556.556,0,0,1,.059.325V.6c0,.079,0,.157,0,.236v.15c0,.046,0,.091,0,.138a.32.32,0,0,1-.059.187,1.147,1.147,0,0,1-.59.06l-.145,0h-.267a.34.34,0,0,1-.2-.082A.484.484,0,0,1-9.81.953c0-.048,0-.1,0-.145l0-.151V.507c0-.362,0-.362.061-.459A.533.533,0,0,1-9.432-.011Zm.1.478V.892h.386V.467Z" transform="translate(51.81 25.776)" fill="#fff"/>
    <path id="Path_2752" data-name="Path 2752" d="M-9.027-.113h2.091a.227.227,0,0,1,.178.092.248.248,0,0,1,.041.181.343.343,0,0,1-.191.21,1.12,1.12,0,0,1-.228.015H-9.118a.379.379,0,0,1-.26-.13.351.351,0,0,1,.044-.3A.44.44,0,0,1-9.027-.113Z" transform="translate(51.396 28.81)" fill="#fff"/>
    <path id="Path_2753" data-name="Path 2753" d="M-7.788-.011h.54a.259.259,0,0,1,.2.131c.025.2.025.2-.048.3a.322.322,0,0,1-.243.067h-.511A.4.4,0,0,1-8.089.351a.336.336,0,0,1,.047-.3A.339.339,0,0,1-7.788-.011Z" transform="translate(53.117 27.782)" fill="#fff"/>
    <path id="Path_2754" data-name="Path 2754" d="M-7.852-.011h.54a.252.252,0,0,1,.2.131.852.852,0,0,1-.039.27.781.781,0,0,1-.5.089l-.107,0h-.2a.258.258,0,0,1-.2-.13c-.025-.2-.025-.2.047-.3A.34.34,0,0,1-7.852-.011Z" transform="translate(50.171 27.782)" fill="#fff"/>
    <path id="Path_2755" data-name="Path 2755" d="M-10.018-.048H-9.9l.113,0h.208a.256.256,0,0,1,.2.13.536.536,0,0,1,0,.232.331.331,0,0,1-.233.127c-.1.005-.191.006-.288.005l-.1,0c-.24,0-.24,0-.367-.09a.235.235,0,0,1-.049-.2C-10.349-.075-10.226-.047-10.018-.048Z" transform="translate(53.947 27.822)" fill="#fff"/>
    <path id="Path_2756" data-name="Path 2756" d="M-12.769-.107l.107,0h.2a.21.21,0,0,1,.151.09.259.259,0,0,1,.042.2c-.034.111-.034.111-.15.188a2.66,2.66,0,0,1-.367.012l-.1,0h-.187a.257.257,0,0,1-.194-.13.846.846,0,0,1,0-.27A.788.788,0,0,1-12.769-.107Z" transform="translate(59.843 27.879)" fill="#fff"/>
  </g>
</svg>
