<svg xmlns="http://www.w3.org/2000/svg" width="17.001" height="16.999" viewBox="0 0 17.001 16.999">
  <g id="discuss" transform="translate(-32.025 479.901)">
    <path id="Path_3586" data-name="Path 3586" d="M33.737-479.86a2.266,2.266,0,0,0-1.055.581,2.215,2.215,0,0,0-.592,1.1,21.655,21.655,0,0,0,0,2.626,2.148,2.148,0,0,0,1.146,1.492,2.554,2.554,0,0,0,1.362.232h.6l.444.88c.38.748.463.888.554.918.235.083.277.038.759-.918l.444-.88h2.349l.3.577c.243.474.315.588.4.615.224.08.288.011.607-.615l.3-.577H43.7l.444.88c.38.748.463.888.554.918.235.083.277.038.759-.918l.444-.88h.6a2.581,2.581,0,0,0,1.359-.228,2.167,2.167,0,0,0,1.15-1.5,21.658,21.658,0,0,0,0-2.626,2.182,2.182,0,0,0-1.681-1.681C47.035-479.916,34.014-479.913,33.737-479.86Zm13.841.721a1.459,1.459,0,0,1,.725.744l.121.254v2.543l-.121.254a1.459,1.459,0,0,1-.725.744l-.288.14-.869.019c-.854.019-.865.019-.934.106-.034.049-.2.361-.364.694s-.311.6-.323.6a6.637,6.637,0,0,1-.323-.611,5.963,5.963,0,0,0-.387-.7l-.084-.091H42.565c-.843,0-1.48.015-1.537.038-.072.027-.144.133-.277.4a2.419,2.419,0,0,1-.2.361,2.42,2.42,0,0,1-.2-.361c-.133-.266-.2-.372-.277-.4-.057-.023-.695-.038-1.537-.038H37.092l-.083.091a5.964,5.964,0,0,0-.387.7,6.635,6.635,0,0,1-.323.611c-.011,0-.156-.273-.323-.6s-.33-.645-.364-.694c-.068-.087-.08-.087-.934-.106l-.865-.019-.254-.121a1.459,1.459,0,0,1-.744-.725l-.14-.288v-2.547l.121-.254a1.969,1.969,0,0,1,.273-.421,1.787,1.787,0,0,1,.748-.44c.087-.019,2.873-.03,6.812-.03l6.661.008Z" transform="translate(-0.024)" fill="#fff"/>
    <path id="Path_3587" data-name="Path 3587" d="M104.611-441.944a2.511,2.511,0,0,0-.232.376l-.163.3-.345.065c-.4.076-.455.1-.539.228-.091.14-.046.25.247.569l.258.285-.03.216c-.061.429-.053.619.034.706.114.114.277.095.626-.065a2.048,2.048,0,0,1,.345-.137,1.818,1.818,0,0,1,.345.137c.357.159.524.163.638.008.072-.1.076-.121.03-.486l-.046-.383.266-.285c.239-.251.269-.3.269-.429,0-.209-.1-.277-.543-.361l-.364-.068-.156-.288a2.545,2.545,0,0,0-.239-.38A.3.3,0,0,0,104.611-441.944Zm.3,1.044a.366.366,0,0,0,.3.213l.194.045-.114.137a.431.431,0,0,0-.114.361c0,.213,0,.216-.08.175a.473.473,0,0,0-.482-.034c-.091.042-.171.076-.175.076s0-.091.008-.2a.349.349,0,0,0-.11-.345c-.133-.148-.114-.209.065-.209a.429.429,0,0,0,.319-.266c.027-.061.057-.114.072-.114A.631.631,0,0,1,104.915-440.9Z" transform="translate(-68.561 -36.447)" fill="#fff"/>
    <path id="Path_3588" data-name="Path 3588" d="M328.611-433.944a2.514,2.514,0,0,0-.232.376l-.163.3-.345.065c-.4.076-.455.1-.539.228-.091.14-.046.25.247.569l.258.285-.03.216c-.061.429-.053.619.034.706.114.114.277.095.63-.065a2.045,2.045,0,0,1,.345-.137,1.932,1.932,0,0,1,.342.137c.357.159.524.163.638.008.072-.1.076-.121.03-.486l-.046-.383.266-.285c.239-.25.269-.3.269-.429,0-.209-.1-.277-.543-.361l-.364-.068-.156-.288a2.539,2.539,0,0,0-.239-.38A.3.3,0,0,0,328.611-433.944Zm.3,1.044a.366.366,0,0,0,.3.213l.194.046-.114.137a.431.431,0,0,0-.114.361c0,.213,0,.216-.08.175a.473.473,0,0,0-.482-.034c-.091.042-.171.076-.175.076s0-.091.008-.2a.348.348,0,0,0-.11-.345c-.133-.148-.114-.209.065-.209a.428.428,0,0,0,.319-.266c.027-.061.057-.114.072-.114A.629.629,0,0,1,328.915-432.9Z" transform="translate(-284.059 -44.143)" fill="#fff"/>
    <path id="Path_3589" data-name="Path 3589" d="M215.331-432.6a1.065,1.065,0,0,0-.3.137.885.885,0,0,0-.353,1.127,9.35,9.35,0,0,0,1.469,1.48c.133,0,.285-.125.862-.71.672-.679.74-.789.71-1.184a.9.9,0,0,0-1.427-.66l-.125.095-.083-.076A.961.961,0,0,0,215.331-432.6Zm.509.808c.156.14.239.19.326.19s.171-.049.326-.19.239-.19.326-.19a.318.318,0,0,1,.3.307c0,.106-.064.19-.474.6l-.474.478-.474-.478c-.41-.41-.474-.493-.474-.6a.321.321,0,0,1,.3-.307C215.6-431.978,215.688-431.925,215.84-431.788Z" transform="translate(-175.645 -45.498)" fill="#fff"/>
    <path id="Path_3590" data-name="Path 3590" d="M40-271.825a2.83,2.83,0,0,0-.474.178,2.6,2.6,0,0,0-.854.869,2.266,2.266,0,0,0-.25,1.287,2.094,2.094,0,0,0,.607,1.791l.269.27-.235.1a3.812,3.812,0,0,0-1.078.736l-.258.254-.152-.08-.148-.08.178-.2a2.082,2.082,0,0,0,.49-1.617,1.885,1.885,0,0,0-.52-1.5,1.791,1.791,0,0,0-2.6,0,1.891,1.891,0,0,0-.52,1.522,1.958,1.958,0,0,0,.49,1.567,1.191,1.191,0,0,1,.19.228c-.008.008-.11.068-.224.133a3.343,3.343,0,0,0-1.556,2.691l-.049.277h-.547c-.528,0-.55,0-.638.095a.279.279,0,0,0,0,.417l.091.095H48.841l.091-.095a.279.279,0,0,0,0-.417c-.087-.091-.11-.095-.638-.095h-.547l-.046-.277a3.377,3.377,0,0,0-1.545-2.683c-.125-.068-.232-.133-.239-.14a1.191,1.191,0,0,1,.175-.212,2,2,0,0,0,.5-1.583,1.891,1.891,0,0,0-.52-1.522,1.791,1.791,0,0,0-2.6,0,1.891,1.891,0,0,0-.52,1.522,1.977,1.977,0,0,0,.478,1.556,2.493,2.493,0,0,1,.2.235.491.491,0,0,1-.148.087l-.152.065-.247-.247a3.7,3.7,0,0,0-1.066-.729l-.239-.1.25-.254a2.21,2.21,0,0,0,.615-1.844,2.065,2.065,0,0,0-.622-1.746A2.074,2.074,0,0,0,40-271.825Zm1.146.676a1.45,1.45,0,0,1,.736.721l.14.288v1.336l-.14.288a1.459,1.459,0,0,1-.744.725,1.053,1.053,0,0,1-.615.121,1.053,1.053,0,0,1-.615-.121,1.459,1.459,0,0,1-.744-.725l-.14-.288v-1.332l.121-.254a1.466,1.466,0,0,1,.653-.706,1.3,1.3,0,0,1,.808-.182A1.24,1.24,0,0,1,41.148-271.149Zm-4.376,1.484a1.179,1.179,0,0,1,.569.543l.129.239v1.252l-.129.239a1.1,1.1,0,0,1-.55.531.9.9,0,0,1-.516.1.839.839,0,0,1-.562-.125,1.164,1.164,0,0,1-.547-.573c-.08-.156-.087-.224-.087-.8,0-.588,0-.638.095-.816a1.283,1.283,0,0,1,.816-.668A1.576,1.576,0,0,1,36.772-269.665Zm8.5,0a1.179,1.179,0,0,1,.569.543l.129.239v1.252l-.129.239a1.1,1.1,0,0,1-.55.531.9.9,0,0,1-.516.1.839.839,0,0,1-.562-.125,1.164,1.164,0,0,1-.547-.573c-.08-.156-.087-.224-.087-.8,0-.588,0-.638.095-.816a1.283,1.283,0,0,1,.816-.668A1.576,1.576,0,0,1,45.273-269.665ZM40.981-267a3.1,3.1,0,0,1,2.5,2.205c.068.239.307,1.324.307,1.381a2.381,2.381,0,0,1-.433.019h-.433l-.159-.676c-.129-.55-.175-.687-.25-.759a.258.258,0,0,0-.349-.023c-.163.114-.163.194-.011.846l.144.611H40.54c-.968,0-1.761-.011-1.761-.023s.053-.269.114-.573a6.344,6.344,0,0,0,.114-.641.328.328,0,0,0-.3-.281c-.228,0-.281.106-.421.846l-.129.672h-.444a3.489,3.489,0,0,1-.448-.015c0-.049.2-1.01.269-1.256a3.308,3.308,0,0,1,1.04-1.666A3.135,3.135,0,0,1,40.981-267Zm-3.966,1.025c.338.125.338.129.19.436a6.332,6.332,0,0,0-.44,1.526l-.129.619h-1.5l.11-.41a3.736,3.736,0,0,0,.114-.512.322.322,0,0,0-.3-.292c-.209,0-.281.121-.417.695l-.121.52h-.3a.866.866,0,0,1-.3-.027c0-.015.053-.277.118-.581a2.435,2.435,0,0,1,.691-1.457,2.183,2.183,0,0,1,.979-.573A2.863,2.863,0,0,1,37.015-265.98Zm8.33-.057a2.153,2.153,0,0,1,.975.573A2.461,2.461,0,0,1,47.015-264c.061.307.114.569.114.577a1.167,1.167,0,0,1-.3.019h-.3l-.1-.448c-.137-.577-.175-.668-.315-.725a.287.287,0,0,0-.376.156c-.042.083-.034.163.061.558l.106.459H44.415l-.129-.619a6.539,6.539,0,0,0-.44-1.522,1.172,1.172,0,0,1-.11-.3,1.479,1.479,0,0,1,.49-.2A3.082,3.082,0,0,1,45.345-266.037Z" transform="translate(0 -200.11)" fill="#fff"/>
  </g>
</svg>
