<svg xmlns="http://www.w3.org/2000/svg" width="22.107" height="22.12" viewBox="0 0 22.107 22.12">
  <g id="funding" transform="translate(-0.205 511.966)">
    <path id="Path_215" data-name="Path 215" d="M102.355-511.823a6.869,6.869,0,0,0-5.77,4.626,6.531,6.531,0,0,0-.026,4.219,5.808,5.808,0,0,0,.745,1.512.444.444,0,0,0,.707-.24c.039-.146.026-.193-.176-.608a5.687,5.687,0,0,1-.677-3.165,5.923,5.923,0,0,1,6.387-5.44,5.779,5.779,0,0,1,3.645,1.662,5.836,5.836,0,0,1,1.782,3.778,5.687,5.687,0,0,1-.677,3.165c-.2.415-.214.463-.176.608a.444.444,0,0,0,.707.24,5.808,5.808,0,0,0,.745-1.512,6.732,6.732,0,0,0-1.671-6.871A6.855,6.855,0,0,0,102.355-511.823Z" transform="translate(-91.807)" fill="#ffa200" stroke="#ffa200" stroke-width="0.2"/>
    <path id="Path_216" data-name="Path 216" d="M205.127-447.825c-.18.081-.244.214-.27.548l-.021.291h-.2a2.375,2.375,0,0,0-.857.171,1.636,1.636,0,0,0-.608.634c-.094.188-.1.248-.1,1.037s0,.848.1,1.037a1.636,1.636,0,0,0,.608.634,2.3,2.3,0,0,0,.865.171h.206v1.8h-.3c-.257,0-.317-.017-.428-.111a.465.465,0,0,1-.158-.266.59.59,0,0,0-.278-.463.422.422,0,0,0-.531.12c-.1.124-.116.167-.1.4a1.412,1.412,0,0,0,.111.458,1.636,1.636,0,0,0,.608.634,2.375,2.375,0,0,0,.857.171h.2l.021.291a1.088,1.088,0,0,0,.094.407.456.456,0,0,0,.514.158c.206-.069.291-.218.317-.565l.021-.291h.2a2.375,2.375,0,0,0,.857-.171,1.636,1.636,0,0,0,.608-.634c.094-.188.1-.248.1-1.037s0-.848-.1-1.037a1.636,1.636,0,0,0-.608-.634,2.3,2.3,0,0,0-.865-.171h-.206v-1.8h.3c.257,0,.317.017.428.111a.465.465,0,0,1,.159.266.59.59,0,0,0,.278.463.422.422,0,0,0,.531-.12c.1-.124.116-.167.1-.4a1.411,1.411,0,0,0-.111-.458,1.636,1.636,0,0,0-.608-.634,2.375,2.375,0,0,0-.857-.171h-.2l-.021-.291c-.026-.338-.111-.5-.3-.561A.352.352,0,0,0,205.127-447.825Zm-.278,2.681v.9h-.3c-.27,0-.313-.013-.437-.124l-.141-.124v-1.3l.141-.124c.124-.111.167-.124.437-.124h.3Zm1.679,1.966.141.124v1.3l-.141.124c-.124.111-.167.124-.437.124h-.3v-1.8h.3C206.361-443.3,206.4-443.289,206.528-443.178Z" transform="translate(-194.061 -61.239)" fill="#ffa200" stroke="#ffa200" stroke-width="0.2"/>
    <path id="Path_217" data-name="Path 217" d="M149.171-362.819a3.933,3.933,0,0,0-.009.463l.013.4h.9v-.9l-.441-.013C149.3-362.874,149.188-362.866,149.171-362.819Z" transform="translate(-142.478 -142.609)" fill="#ffa200" stroke="#ffa200" stroke-width="0.2"/>
    <path id="Path_218" data-name="Path 218" d="M341.171-362.819a3.928,3.928,0,0,0-.009.463l.013.4h.9v-.9l-.441-.013C341.3-362.874,341.188-362.866,341.171-362.819Z" transform="translate(-326.254 -142.609)" fill="#ffa200" stroke="#ffa200" stroke-width="0.2"/>
    <path id="Path_219" data-name="Path 219" d="M20.443-298.45c-.617.073-1.054.351-2.03,1.3a5.66,5.66,0,0,1-1.551,1.174,4.723,4.723,0,0,1-.964.505c-.043-.013-.2-.077-.356-.146l-.278-.12-2.27-.021-2.27-.026-.578-.2-.578-.206L8-296.171a6.469,6.469,0,0,0-1.885.111,3.9,3.9,0,0,0-1.769,1.105c-.424.433-.488.647-.266.887a.44.44,0,0,0,.433.137,2.811,2.811,0,0,0,.531-.433,2.818,2.818,0,0,1,1.221-.78c.338-.116.356-.116,1.713-.133l1.371-.013.643.227.643.223,2.3.026,2.3.021.188.129a.909.909,0,0,1,0,1.5l-.188.128-2.36.021-2.364.021-.236.111a1.316,1.316,0,0,0-.685.655c-.236.48-.171.9.154,1.011.3.1.544-.073.6-.428a.56.56,0,0,1,.154-.3l.129-.124H12.75c1.169,0,2.249-.021,2.4-.043a1.828,1.828,0,0,0,1.482-2.412,1.026,1.026,0,0,1-.056-.218c.009-.009.424-.257.917-.553a4.991,4.991,0,0,0,1.306-.951c1-1.024,1.422-1.306,1.932-1.306s.548-.094-.578,1.713l-1,1.606-2.416,1.979-2.412,1.979-3.106,0c-1.923,0-3.161.017-3.255.043a1.562,1.562,0,0,0-.48.373l-.334.334-2.155-2.15c-1.182-1.178-2.2-2.167-2.253-2.2a.451.451,0,0,0-.257-.021c-.129.021-.308.184-1.148,1.019s-1,1.019-1.019,1.148a.453.453,0,0,0,.531.531c.124-.026.3-.167.947-.818l.8-.784L5-290.388,7.4-287.981l-.788.792c-.651.655-.792.822-.818.947a.453.453,0,0,0,.531.531c.129-.021.313-.184,1.148-1.019,1.255-1.259,1.246-1.229.617-1.85l-.3-.3.223-.227.223-.227h3.131c2.921,0,3.14,0,3.277-.077.154-.077,5-4.031,5.17-4.211.051-.056.617-.942,1.255-1.966,1.114-1.782,1.165-1.872,1.144-2.035-.03-.223-.3-.475-.728-.681A1.594,1.594,0,0,0,20.443-298.45Z" transform="translate(0 -204.245)" fill="#ffa200" stroke="#ffa200" stroke-width="0.2"/>
  </g>
</svg>
