<svg xmlns="http://www.w3.org/2000/svg" width="16.592" height="18.897" viewBox="0 0 16.592 18.897">
  <g id="money-bag" transform="translate(-59.043 480.018)">
    <path id="Path_2099" data-name="Path 2099" d="M203.027-479.954c-.186.135-.186.224,0,.983.093.388.186.776.211.86l.038.156.2-.093c.194-.089.245-.093,2.189-.105,1.99-.013,1.99-.013,2.286.089l.3.1.19-.8a8.907,8.907,0,0,0,.194-.923.351.351,0,0,0-.278-.308,3.048,3.048,0,0,0-1.539.367,2.519,2.519,0,0,1-2.231-.046,2.9,2.9,0,0,0-1.139-.32C203.183-480.021,203.107-480.009,203.027-479.954Z" transform="translate(-137.779)" fill="#ed1c24"/>
    <path id="Path_2100" data-name="Path 2100" d="M131.089-419.89a.905.905,0,0,0-.527.826,1.714,1.714,0,0,1-.426.548,12.738,12.738,0,0,0-2.345,3.18,7.756,7.756,0,0,0-.628,1.843,3.6,3.6,0,0,0,.261,1.944c.046.093.093.181.1.19a6.5,6.5,0,0,0,.552-.506,2.616,2.616,0,0,1,1.375-.86,55.277,55.277,0,0,1,5.545,0,2.056,2.056,0,0,1,.822.4.775.775,0,0,0,.181.126c.021,0,.493-.455,1.05-1.016,1.012-1.016,1.261-1.223,1.636-1.366a.507.507,0,0,0,.2-.105c0-.013-.131-.291-.291-.616a12.619,12.619,0,0,0-2.29-3.142c-.417-.447-.5-.552-.5-.666a1,1,0,0,0-.569-.81,7.036,7.036,0,0,0-2.049-.08h-1.877Z" transform="translate(-65.213 -57.487)" fill="#ed1c24"/>
    <path id="Path_2101" data-name="Path 2101" d="M359.886-276.841c-.2.08-.358.215-1.109.961l-.877.869.434.03a4.509,4.509,0,0,1,2.332.835l.3.215.325-.346a3.692,3.692,0,0,0,.464-.6.915.915,0,0,0,.139-.595,1.188,1.188,0,0,0-.114-.578,1.608,1.608,0,0,0-.7-.738A1.676,1.676,0,0,0,359.886-276.841Z" transform="translate(-286.255 -194.527)" fill="#ed1c24"/>
    <path id="Path_2102" data-name="Path 2102" d="M129.4-231.715c-.363.1-.6.291-1.505,1.185l-.894.89,1.851,1.855c1.016,1.02,1.881,1.919,1.919,1.99s.1.139.143.139c.1,0,1.581-.207,1.594-.224a2.993,2.993,0,0,0-.072-.43,5.142,5.142,0,0,1,.194-2.522c.03-.067-.013-.072-.54-.072s-.578,0-.687-.1a.312.312,0,0,1,0-.485c.105-.089.143-.093.856-.093l.746,0,.211-.3A4.88,4.88,0,0,1,135-231.331c.274-.122.266-.16-.08-.316l-.219-.1-2.551-.008A25.945,25.945,0,0,0,129.4-231.715Z" transform="translate(-65.091 -237.79)" fill="#ed1c24"/>
    <path id="Path_2103" data-name="Path 2103" d="M272.965-214.647a3.984,3.984,0,0,0-3.061,2.956,4.73,4.73,0,0,0,0,1.6,3.929,3.929,0,0,0,2.825,2.977,4.7,4.7,0,0,0,1.94,0,3.767,3.767,0,0,0,2.193-1.581,3.967,3.967,0,0,0,.548-3.209,4.62,4.62,0,0,0-.713-1.379,4.137,4.137,0,0,0-1.83-1.257,2.526,2.526,0,0,0-1.021-.152A3.767,3.767,0,0,0,272.965-214.647ZM275.2-211.9c.181.228.16.261-.852,1.269-.852.856-.953.94-1.08.94s-.2-.059-.641-.489a3.738,3.738,0,0,1-.523-.595.362.362,0,0,1,.413-.409,2.419,2.419,0,0,1,.43.358l.342.329.755-.755c.708-.708.767-.759.915-.759A.252.252,0,0,1,275.2-211.9Z" transform="translate(-201.905 -254.132)" fill="#ed1c24"/>
    <path id="Path_2104" data-name="Path 2104" d="M60.622-176.815a9,9,0,0,0-.831.767c-.595.6-.7.738-.73.873-.067.346-.072.342,2.011,2.421,2.1,2.1,2.045,2.049,2.4,1.974a8.233,8.233,0,0,0,1.645-1.628c.11-.367.156-.308-1.919-2.4-1.05-1.054-1.961-1.952-2.033-1.99A.638.638,0,0,0,60.622-176.815Z" transform="translate(0 -290.366)" fill="#ed1c24"/>
  </g>
</svg>
