<svg xmlns="http://www.w3.org/2000/svg" width="29.564" height="29.53" viewBox="0 0 29.564 29.53">
  <g id="shopping-cart-_1_" transform="translate(0.053 511.969)">
    <path id="Path_3490" data-name="Path 3490" d="M.787-511.884a1.559,1.559,0,0,0-.473.335,1.269,1.269,0,0,0,.318,2.015c.2.127.283.133,1.542.162l1.328.029.375.179a2.264,2.264,0,0,1,1.016.953C5-507.987,8.38-495,8.38-494.782a16.2,16.2,0,0,1-1.449.883,8.239,8.239,0,0,0-1.778,1.155,3,3,0,0,0-.854,2.281,3.031,3.031,0,0,0,2.05,2.7l.329.127,9.96.017c7.771.012,10.017,0,10.219-.058a1.387,1.387,0,0,0,.924-1.236,1.418,1.418,0,0,0-.895-1.23c-.162-.046-3.1-.064-9.977-.064H7.161l-.139-.144a.381.381,0,0,1-.046-.543c.058-.064.82-.52,1.692-1.016l1.588-.895h3.672c3.528,0,3.7-.006,4.053-.115a2.344,2.344,0,0,0,1.085-.756,2.931,2.931,0,0,0,.26-.508l.133-.323,2.558-.029a13.639,13.639,0,0,0,2.846-.133,3.28,3.28,0,0,0,1.8-1.553c.121-.26.566-1.882,1.513-5.595.733-2.875,1.334-5.271,1.334-5.329a.448.448,0,0,0-.144-.237l-.139-.144H7.814l-.069-.306c-.04-.162-.144-.537-.237-.82a4.809,4.809,0,0,0-3.8-3.262A15.044,15.044,0,0,0,.787-511.884Zm2.956.866a4.521,4.521,0,0,1,1.518.652l.144.121-.294.3-.3.294-.254-.15c-.595-.346-.837-.4-2.229-.433-1.27-.035-1.293-.035-1.4-.173a.378.378,0,0,1,.035-.554c.139-.144.15-.144,1.236-.144A9.476,9.476,0,0,1,3.743-511.018Zm2.436,1.582c.381.537.5.958,2.257,7.829,1.542,6.045,1.755,6.83,1.882,6.94l.144.133h4.042c2.217,0,4.036.017,4.036.046,0,.127-.323.491-.566.629l-.271.162-3.868.029-3.868.029-1.64.924a14.4,14.4,0,0,0-1.911,1.184,1.213,1.213,0,0,0-.341,1.3,1.564,1.564,0,0,0,.843.831c.15.046,3.268.064,9.965.064H26.63l.139.144a.376.376,0,0,1,0,.583l-.139.139-9.919-.012L6.792-488.5l-.352-.162a2.469,2.469,0,0,1-1.1-1.109,1.594,1.594,0,0,1-.162-.866,1.628,1.628,0,0,1,.162-.872c.248-.531.618-.849,1.715-1.472,2.263-1.27,2.182-1.224,2.252-1.415.04-.092-.4-1.882-1.622-6.674-1.882-7.379-1.848-7.24-2.084-7.662l-.173-.312.277-.277a1.882,1.882,0,0,1,.318-.283C6.041-509.6,6.116-509.528,6.18-509.436Zm5.283,2.933c.064.3.439,2.806.439,2.91s-.075.11-1.524.11H8.853l-.064-.248c-.035-.133-.208-.8-.381-1.49s-.329-1.288-.352-1.339c-.035-.092.1-.1,1.669-.1h1.7Zm4.272.231c.017.219.046.7.064,1.085s.046.918.064,1.2l.035.508h-.924c-.843,0-.93.012-1.074.121a.352.352,0,0,0-.15.312.352.352,0,0,0,.15.312c.144.11.231.121,1.1.121h.947l.006.329c0,.185.035.9.069,1.594l.069,1.253H13.426l-.45-2.962c-.248-1.622-.5-3.251-.554-3.608l-.1-.647H15.7Zm4.249-.289c0,.289-.121,2.621-.15,2.829l-.029.248H16.763l-.035-.479c-.017-.26-.046-.814-.064-1.224s-.046-.912-.064-1.114l-.035-.358h1.709C19.863-506.659,19.985-506.653,19.985-506.561Zm4.255.029c-.017.075-.127.791-.248,1.588l-.219,1.461H20.689l.023-.335c.035-.479.139-2.5.139-2.685v-.156h3.418Zm3.88,1.432c-.219.86-.4,1.576-.4,1.588s-.687.029-1.53.029a11.229,11.229,0,0,1-1.53-.052c0-.029.1-.716.231-1.536s.231-1.507.231-1.536a13.739,13.739,0,0,1,1.7-.052h1.7Zm-16.045,2.512c0,.017.1.7.231,1.53s.231,1.524.231,1.559a6.145,6.145,0,0,1-1.328.058H9.886l-.058-.219c-.029-.115-.2-.785-.381-1.484s-.335-1.316-.352-1.374c-.029-.092.069-.1,1.472-.1C11.4-502.617,12.075-502.606,12.075-502.588Zm7.639,1.224c-.035.693-.069,1.409-.069,1.594l-.006.329-1.339-.012-1.345-.017-.069-1.241c-.035-.681-.064-1.391-.069-1.576l-.006-.329h2.973Zm3.909-1.2c0,.035-.1.733-.231,1.559s-.231,1.513-.231,1.53-.595.029-1.328.029H20.5v-.133c0-.294.127-2.9.15-2.973A15.929,15.929,0,0,1,23.622-502.559Zm3.845.04c-.017.058-.179.676-.352,1.374s-.352,1.368-.381,1.484l-.058.219H24.015l.029-.133c.017-.069.127-.785.248-1.588l.219-1.455h1.5C27.4-502.617,27.5-502.611,27.467-502.519Zm-14.561,5.4c.121.8.231,1.518.248,1.588l.029.133H12.057c-1.028,0-1.132-.012-1.16-.1-.017-.052-.191-.722-.381-1.484s-.37-1.432-.381-1.49c-.029-.092.058-.1,1.264-.1h1.288Zm3.233-1.212c.029.214.15,2.546.15,2.829,0,.1-.092.1-1.126.1a6.161,6.161,0,0,1-1.126-.052c0-.029-.1-.716-.231-1.536s-.231-1.507-.231-1.536a7.769,7.769,0,0,1,1.264-.052h1.27Zm3.418.26c-.017.283-.046.82-.064,1.2s-.046.866-.064,1.08l-.035.393h-2.24v-.156c0-.185-.1-2.206-.139-2.69l-.023-.329h2.6Zm3.43-.393c0,.1-.375,2.61-.439,2.9l-.035.162h-2.24l.029-.45c.035-.468.144-2.517.144-2.65,0-.058.254-.075,1.27-.075C22.918-498.576,22.987-498.57,22.987-498.466Zm3.441-.012c-.017.058-.11.427-.208.826a7.972,7.972,0,0,1-.294.976,2.178,2.178,0,0,1-2.113,1.264l-.4-.017.242-1.559c.133-.86.242-1.565.248-1.576s.577-.012,1.282-.012C26.37-498.576,26.457-498.57,26.428-498.477Z" fill="#ed1c24"/>
    <path id="Path_3491" data-name="Path 3491" d="M137.128-74.584a2.35,2.35,0,0,0-1.467,1.241,1.594,1.594,0,0,0-.162.866,1.627,1.627,0,0,0,.162.872,2.469,2.469,0,0,0,1.109,1.1,1.606,1.606,0,0,0,.866.162,1.539,1.539,0,0,0,.895-.179,2.209,2.209,0,0,0,1.062-1.062,1.539,1.539,0,0,0,.179-.895,1.54,1.54,0,0,0-.179-.895,2.113,2.113,0,0,0-1.824-1.241A2.653,2.653,0,0,0,137.128-74.584Zm1.2,1.022a1.253,1.253,0,0,1,.214,1.98,1.206,1.206,0,0,1-1.8.012,1.209,1.209,0,0,1-.341-1.3,1.574,1.574,0,0,1,.774-.82A1.4,1.4,0,0,1,138.323-73.562Z" transform="translate(-127.727 -412.098)" fill="#ed1c24"/>
    <path id="Path_3492" data-name="Path 3492" d="M165.144-44.856a.475.475,0,0,0-.144.289.514.514,0,0,0,.433.433.514.514,0,0,0,.433-.433.514.514,0,0,0-.433-.433A.475.475,0,0,0,165.144-44.856Z" transform="translate(-155.523 -440.008)" fill="#ed1c24"/>
    <path id="Path_3493" data-name="Path 3493" d="M394.128-74.584a2.35,2.35,0,0,0-1.467,1.241,1.594,1.594,0,0,0-.162.866,1.627,1.627,0,0,0,.162.872,2.469,2.469,0,0,0,1.109,1.1,1.606,1.606,0,0,0,.866.162,1.539,1.539,0,0,0,.895-.179,2.209,2.209,0,0,0,1.062-1.062,1.539,1.539,0,0,0,.179-.895,1.539,1.539,0,0,0-.179-.895,2.113,2.113,0,0,0-1.824-1.241A2.653,2.653,0,0,0,394.128-74.584Zm1.2,1.022a1.253,1.253,0,0,1,.214,1.98,1.206,1.206,0,0,1-1.8.012,1.209,1.209,0,0,1-.341-1.3,1.574,1.574,0,0,1,.774-.82A1.4,1.4,0,0,1,395.323-73.562Z" transform="translate(-369.888 -412.098)" fill="#ed1c24"/>
    <path id="Path_3494" data-name="Path 3494" d="M422.144-44.856a.475.475,0,0,0-.144.289.514.514,0,0,0,.433.433.514.514,0,0,0,.433-.433.514.514,0,0,0-.433-.433A.475.475,0,0,0,422.144-44.856Z" transform="translate(-397.685 -440.008)" fill="#ed1c24"/>
  </g>
</svg>
