<svg xmlns="http://www.w3.org/2000/svg" width="18.543" height="16.902" viewBox="0 0 18.543 16.902">
  <g id="secure-payment" transform="translate(-7.999 481.941)">
    <path id="Path_3306" data-name="Path 3306" d="M9.1-481.891a1.508,1.508,0,0,0-1.029,1.025C8-480.634,8-480.5,8-476.5c0,4.551-.007,4.36.236,4.771a1.468,1.468,0,0,0,.662.58c.243.116.243.116.977.127l.737.015.022.217a1.59,1.59,0,0,0,.876,1.186l.213.1,3.293.019,3.293.019.026.393a4.433,4.433,0,0,0,3.046,3.888,1.51,1.51,0,0,0,1.063.079,4.442,4.442,0,0,0,2.047-1.209,4.305,4.305,0,0,0,1.269-2.927l.026-.427.138-.094a1.623,1.623,0,0,0,.513-.644l.1-.221v-8.607l-.082-.206a1.657,1.657,0,0,0-.879-.872,2.429,2.429,0,0,0-.913-.094l-.715-.015-.022-.176a1.57,1.57,0,0,0-.7-1.119c-.415-.247.1-.232-7.275-.228C10.66-481.94,9.223-481.928,9.1-481.891Zm13.607.591a1.014,1.014,0,0,1,.632.786v.1H17.662c-6.186,0-5.913-.007-6.28.206a1.746,1.746,0,0,0-.606.662l-.1.217H8.591l.015-.685c.011-.621.019-.7.094-.838a1.086,1.086,0,0,1,.5-.445C9.38-481.36,22.5-481.367,22.711-481.3Zm2.62,1.546a.916.916,0,0,1,.509.423c.1.172.1.191.116.857l.015.685H11.21l.015-.685c.011-.666.015-.685.116-.857a.977.977,0,0,1,.5-.427c.116-.041,1.325-.049,6.733-.052C24.38-479.81,25.188-479.8,25.33-479.754ZM10.619-475.17v3.555H9.975c-.569,0-.666-.011-.816-.079a.946.946,0,0,1-.46-.427c-.082-.15-.082-.15-.094-3.379L8.6-478.725h2.021Zm15.336,1.205-.011,3.23-.082.15-.082.15,0-.98c0-.962,0-.981-.086-1.07a17.229,17.229,0,0,0-1.849-.846c-.969-.412-1.781-.752-1.8-.752-.09,0-3.623,1.542-3.664,1.6a5.449,5.449,0,0,0-.049,1.235v1.171H15.121c-3.035,0-3.218,0-3.361-.071a1.125,1.125,0,0,1-.5-.558c-.034-.109-.045-1-.045-3.316v-3.166H25.963Zm-2.313,1.205,1.516.647v1.568a6.213,6.213,0,0,1-.176,2.3,3.926,3.926,0,0,1-2.717,2.571l-.258.06-.333-.1A3.885,3.885,0,0,1,20-466.742a3.874,3.874,0,0,1-.954-1.643l-.1-.329-.011-1.7-.015-1.7,1.546-.662c.85-.363,1.572-.655,1.6-.644S22.808-473.119,23.642-472.76Z" transform="translate(0 0)" fill="#fff"/>
    <path id="Path_3307" data-name="Path 3307" d="M122.005-312.94a.925.925,0,0,0-.423.408c-.082.146-.082.183-.082,1.647v1.5l.1.183a.844.844,0,0,0,.543.43c.079.019,1.074.037,2.208.037,2.257,0,2.313,0,2.549-.217a1.136,1.136,0,0,0,.195-.262c.075-.15.079-.206.079-1.658s0-1.512-.079-1.669a.849.849,0,0,0-.479-.419c-.1-.03-.79-.041-2.309-.041A13.275,13.275,0,0,0,122.005-312.94Zm1.385.82v.281h-1.31v-.172a.44.44,0,0,1,.127-.359,3.78,3.78,0,0,1,.614-.03h.569Zm1.31.655v.936h-.711V-312.4h.711Zm1.8-.872c.049.045.067.116.067.281v.217H125.3v-.561h.569C126.343-312.4,126.444-312.39,126.5-312.338Zm-3.114,1.452v.356h-1.31v-.329a1.345,1.345,0,0,1,.026-.355,4.3,4.3,0,0,1,.655-.026h.629Zm3.181,0v.356H125.3v-.711h1.272Zm0,1.194c0,.385.168.359-2.23.359-2.35,0-2.212.019-2.249-.307s-.247-.292,2.253-.292h2.227Z" transform="translate(-109.253 -162.619)" fill="#fff"/>
    <path id="Path_3308" data-name="Path 3308" d="M324.666-290.73a.29.29,0,0,0-.067.483c.071.064.243.067,2.481.067,2.294,0,2.41,0,2.492-.071a.3.3,0,0,0,0-.427l-.086-.082-2.365-.008A19.867,19.867,0,0,0,324.666-290.73Z" transform="translate(-304.653 -184.017)" fill="#fff"/>
    <path id="Path_3309" data-name="Path 3309" d="M334.528-190.815a3.378,3.378,0,0,0-.748.647l-.617.61-.266-.251a.985.985,0,0,0-.442-.3.7.7,0,0,0-.838.857c.037.142.12.247.569.7a6.123,6.123,0,0,0,.666.61.836.836,0,0,0,.58.034,19.058,19.058,0,0,0,1.961-1.965.694.694,0,0,0-.385-.936A.656.656,0,0,0,334.528-190.815Zm.318.636a16.314,16.314,0,0,1-1.658,1.714,3.207,3.207,0,0,1-.543-.479c-.457-.457-.479-.486-.415-.546s.082-.049.4.273c.359.356.49.434.632.382a9.981,9.981,0,0,0,.775-.73C334.692-190.22,334.846-190.336,334.846-190.179Z" transform="translate(-311.484 -280.193)" fill="#fff"/>
  </g>
</svg>
