<svg id="process-_1_" xmlns="http://www.w3.org/2000/svg" width="18.703" height="18.616" viewBox="0 0 18.703 18.616">
  <path id="Path_2932" data-name="Path 2932" d="M9.439-510.6c-.4.066-.489.216-.489.8v.4l-.208.08-.2.08-.318-.314c-.314-.307-.321-.31-.5-.31-.223,0-.343.08-.734.486-.475.493-.479.647-.026,1.118l.3.314-.077.19-.077.194H6.721c-.574,0-.752.1-.8.457l-.022.146-2.046.018c-1.125.011-2.053.026-2.064.029-.088.044-1.7,1.7-1.739,1.786S0-504.335,0-500.934c0,3.927,0,4.08.069,4.212a.579.579,0,0,0,.343.318,12.363,12.363,0,0,0,2.2.055H4.676v.2c0,.172.015.208.095.274.226.179.453,0,.453-.347v-.124h.369c.351,0,.369,0,.391.08a3.1,3.1,0,0,0,.168.376,2.431,2.431,0,0,0,1.045,1.03,2.367,2.367,0,0,0,2.184-.007,2.4,2.4,0,0,0,1.194-2.893,2.428,2.428,0,0,0-1.753-1.6l-.274-.062v-.683c0-.617-.007-.694-.066-.745a.318.318,0,0,0-.395.015c-.062.069-.069.15-.08.745L8-499.422l-.2.04a2.29,2.29,0,0,0-1.194.654,2.253,2.253,0,0,0-.712,1.5l-.026.31H.566l-.011-4-.007-4,.738-.738.742-.742h3.85l.022.135a.589.589,0,0,0,.274.457,1.151,1.151,0,0,0,.53.066h.4l.073.194.077.19-.281.3c-.479.508-.468.668.08,1.216.395.4.574.486.8.395L8-503.5l.011.833c.011.76.018.84.08.91a.265.265,0,0,0,.208.077c.248,0,.252-.015.252-1.249a8.551,8.551,0,0,1,.033-1.089,1.1,1.1,0,0,1,.2.073l.168.069v.395c0,.457.051.6.256.723.113.066.19.073.658.073s.544-.007.654-.073c.208-.124.259-.267.259-.731v-.4l.194-.073.19-.077.314.3c.475.449.654.442,1.143-.044.38-.38.46-.5.46-.72,0-.179,0-.186-.31-.5l-.31-.318.084-.208.08-.208h.395c.581,0,.749-.1.793-.471l.018-.168.23-.018c.263-.022.336-.08.336-.278,0-.172-.139-.27-.384-.27h-.19l-.022-.168c-.037-.332-.248-.453-.8-.453h-.38l-.077-.194-.073-.19.267-.274c.314-.321.347-.38.347-.6,0-.186-.121-.365-.479-.7-.321-.3-.391-.343-.577-.343s-.267.04-.606.365l-.256.248-.19-.073-.194-.077v-.387c0-.471-.066-.65-.267-.745A3.06,3.06,0,0,0,9.439-510.6Zm.676.537.113.022v.413c0,.53.04.6.457.782.541.23.683.2,1.1-.212a1.078,1.078,0,0,1,.259-.223,1.271,1.271,0,0,1,.27.241l.23.237-.321.325-.318.325.015.194a1.568,1.568,0,0,0,.391.858c.11.077.168.084.533.084.475,0,.457-.015.457.391,0,.351.011.34-.427.34-.413,0-.584.051-.676.194a2.664,2.664,0,0,0-.285.774c0,.183.044.252.351.566l.27.274-.256.256-.256.256-.3-.3c-.387-.384-.464-.405-.91-.223-.365.146-.457.2-.515.3a2.177,2.177,0,0,0-.062.515l-.018.438-.354.011-.358.011v-.413c0-.574-.029-.621-.479-.822a1.508,1.508,0,0,0-.5-.153c-.153,0-.172.011-.486.314l-.321.318-.256-.252-.256-.252.252-.259a3.884,3.884,0,0,0,.31-.347c.088-.132.073-.325-.055-.625-.23-.555-.226-.555-.818-.581l-.438-.018V-507l.446-.018c.373-.015.46-.029.544-.095a1.874,1.874,0,0,0,.38-.888c0-.153-.015-.175-.318-.486l-.318-.321.252-.256.252-.256.3.292a1.67,1.67,0,0,0,.395.311,1.09,1.09,0,0,0,.665-.132c.416-.179.457-.248.457-.785,0-.362.007-.413.066-.427A1.983,1.983,0,0,1,10.115-510.063ZM8.749-498.819A1.87,1.87,0,0,1,10.14-496.9a1.86,1.86,0,0,1-2.279,1.7A1.824,1.824,0,0,1,6.429-497a1.834,1.834,0,0,1,1.279-1.783A2.092,2.092,0,0,1,8.749-498.819Z" transform="translate(0 510.618)" fill="#fff"/>
  <path id="Path_2933" data-name="Path 2933" d="M218.794-454.674a2.082,2.082,0,0,0-1.33,1.008,1.938,1.938,0,0,0,1.078,2.714,1.938,1.938,0,0,0,2.352-.968,1.89,1.89,0,0,0,.077-1.567c-.117-.27-.387-.314-.511-.091-.047.084-.047.121.018.325a1.4,1.4,0,0,1-.709,1.721.973.973,0,0,1-.592.121,1.022,1.022,0,0,1-.555-.1,1.378,1.378,0,0,1-.763-1.658,1.364,1.364,0,0,1,1.658-.946c.3.073.409.055.482-.088a.261.261,0,0,0-.161-.38A1.934,1.934,0,0,0,218.794-454.674Z" transform="translate(-209.314 456.75)" fill="#fff"/>
  <path id="Path_2934" data-name="Path 2934" d="M247.533-424.934a.846.846,0,0,0-.533.789.839.839,0,0,0,1.421.606.817.817,0,0,0,.011-1.191A.829.829,0,0,0,247.533-424.934Zm.508.584a.286.286,0,0,1-.194.493.279.279,0,0,1-.3-.281.305.305,0,0,1,.292-.3A.285.285,0,0,1,248.041-424.35Z" transform="translate(-237.977 428.117)" fill="#fff"/>
  <path id="Path_2935" data-name="Path 2935" d="M194.727-158.382l-.49.486-.34-.332a1.924,1.924,0,0,0-.442-.362.26.26,0,0,0-.307.256c-.011.128.011.157.431.584.486.5.6.566.76.5a8.482,8.482,0,0,0,1.271-1.293.261.261,0,0,0-.256-.311C195.22-158.864,195.2-158.846,194.727-158.382Z" transform="translate(-186.091 171.704)" fill="#fff"/>
  <path id="Path_2936" data-name="Path 2936" d="M403.185-404.956a.283.283,0,0,0-.113.424,1,1,0,0,1,.077.23.382.382,0,0,0,.091.2.3.3,0,0,0,.365,0c.183-.164.022-.771-.23-.855-.058-.022-.11-.04-.113-.04S403.225-404.978,403.185-404.956Z" transform="translate(-388.299 408.858)" fill="#fff"/>
  <path id="Path_2937" data-name="Path 2937" d="M406.569-367.9c-.058.062-.069.135-.069.4,0,.285.011.332.08.4a.284.284,0,0,0,.376.015c.062-.058.073-.113.073-.409s-.011-.351-.073-.413A.29.29,0,0,0,406.569-367.9Z" transform="translate(-391.651 373.186)" fill="#fff"/>
  <path id="Path_2938" data-name="Path 2938" d="M58.023-339.923a.273.273,0,0,0-.022.4c.073.073.121.073,2.068.073,1.333,0,2.016-.015,2.064-.04a.27.27,0,0,0-.026-.468,19.438,19.438,0,0,0-2.038-.04C58.155-340,58.118-340,58.023-339.923Z" transform="translate(-55.81 346.232)" fill="#fff"/>
  <path id="Path_2939" data-name="Path 2939" d="M406.569-330.9c-.058.062-.069.135-.069.4,0,.285.011.332.08.4a.284.284,0,0,0,.376.015c.062-.058.073-.113.073-.409s-.011-.351-.073-.413A.29.29,0,0,0,406.569-330.9Z" transform="translate(-391.651 337.538)" fill="#fff"/>
  <path id="Path_2940" data-name="Path 2940" d="M58.145-302.927a.282.282,0,0,0,0,.369l.069.088h4.033l.088-.1a.219.219,0,0,0,.011-.332L62.269-303H60.241C58.265-303,58.218-303,58.145-302.927Z" transform="translate(-55.953 310.584)" fill="#fff"/>
  <path id="Path_2941" data-name="Path 2941" d="M313.594-293.9c-.058.066-.069.135-.069.438v.362h-1.49c-1.637,0-1.647,0-1.761.219a11.912,11.912,0,0,0,0,2.447c.132.219.121.219,1.746.219h1.483v.548h-1.443c-1.6,0-1.637,0-1.772.226-.069.113-.073.183-.073,1.235,0,1.22,0,1.235.216,1.377.124.084.124.084,1.6.084h1.476v.548h-1.476c-1.472,0-1.472,0-1.6.084-.186.124-.216.216-.216.668v.4l-.11.08a.227.227,0,0,0-.11.23c0,.124.015.153.11.208l.11.062v.42c0,.358.011.438.073.541.146.234,0,.226,3.507.226s3.361.007,3.507-.226c.069-.113.073-.183.073-1.227,0-1.224-.007-1.26-.23-1.4-.11-.069-.194-.073-1.6-.073h-1.49v-.548h.413c.365,0,.424-.007.493-.073a.278.278,0,0,0,.08-.2.278.278,0,0,0-.08-.2c-.077-.073-.117-.073-2.137-.073h-2.057v-1.826h6.064v1.826H316.4c-.384,0-.442.007-.511.073a.287.287,0,0,0,0,.4c.073.066.128.073.61.073.464,0,.548-.011.65-.073.223-.135.23-.172.23-1.4,0-1.1,0-1.111-.084-1.235a.508.508,0,0,0-.208-.168,12.2,12.2,0,0,0-1.582-.044l-1.454,0,.011-.267.011-.263,1.523-.018,1.527-.018.117-.121.121-.117.011-1.132a4.015,4.015,0,0,0-.051-1.264c-.113-.234-.1-.234-1.768-.234h-1.5v-.365c0-.318-.011-.376-.073-.438A.29.29,0,0,0,313.594-293.9Zm3.236,2.243v.895h-6.064v-1.79h6.064Zm0,6.922v.913h-6.064v-1.826h6.064Z" transform="translate(-298.676 301.889)" fill="#fff"/>
  <path id="Path_2942" data-name="Path 2942" d="M351.934-237.956a.283.283,0,0,0,.033.464,21.235,21.235,0,0,0,2.148.04c2.027,0,2.06,0,2.155-.077a.264.264,0,0,0,.015-.4c-.077-.073-.117-.073-2.184-.073A16.979,16.979,0,0,0,351.934-237.956Z" transform="translate(-338.977 247.958)" fill="#fff"/>
  <path id="Path_2943" data-name="Path 2943" d="M351.839-48.7a.281.281,0,0,0-.11.442c.066.073.11.073,2.2.073s2.13,0,2.2-.073a.29.29,0,0,0,0-.387c-.073-.066-.168-.069-2.148-.077C352.844-48.722,351.879-48.711,351.839-48.7Z" transform="translate(-338.817 65.592)" fill="#fff"/>
  <path id="Path_2944" data-name="Path 2944" d="M58-266.927a.273.273,0,0,0,.022.4c.095.077.132.077,2.046.077a19.455,19.455,0,0,0,2.038-.04.27.27,0,0,0,.026-.468c-.047-.026-.731-.04-2.064-.04C58.122-267,58.074-267,58-266.927Z" transform="translate(-55.81 275.899)" fill="#fff"/>
  <path id="Path_2945" data-name="Path 2945" d="M58.023-230.923a.273.273,0,0,0-.022.4c.073.073.121.073,2.068.073,1.333,0,2.016-.015,2.064-.04a.27.27,0,0,0-.026-.468,19.447,19.447,0,0,0-2.038-.04C58.155-231,58.118-231,58.023-230.923Z" transform="translate(-55.81 241.214)" fill="#fff"/>
  <path id="Path_2946" data-name="Path 2946" d="M58.145-193.927a.282.282,0,0,0,0,.369l.069.088h1.951l.069-.088a.282.282,0,0,0,0-.369c-.069-.069-.121-.073-1.041-.073S58.214-194,58.145-193.927Z" transform="translate(-55.953 205.566)" fill="#fff"/>
  <path id="Path_2947" data-name="Path 2947" d="M351.732-142.934a.265.265,0,0,0,0,.384l.08.08h2.111c2.027,0,2.119,0,2.192-.069a.29.29,0,0,0,0-.387C356.046-143,356-143,353.931-143,351.929-143,351.813-143,351.732-142.934Z" transform="translate(-338.805 156.429)" fill="#fff"/>
  <path id="Path_2948" data-name="Path 2948" d="M128.073-94.9c-.062.062-.073.121-.073.416,0,.329,0,.351.095.42a.215.215,0,0,0,.285.037c.113-.051.168-.2.168-.453,0-.23-.058-.409-.146-.457A.285.285,0,0,0,128.073-94.9Z" transform="translate(-123.324 110.156)" fill="#fff"/>
  <path id="Path_2949" data-name="Path 2949" d="M129.059-58.021c-.142.142-.073.405.164.614s.464.2.559,0a.281.281,0,0,0-.139-.369.472.472,0,0,1-.164-.164A.259.259,0,0,0,129.059-58.021Z" transform="translate(-124.273 74.628)" fill="#fff"/>
  <path id="Path_2950" data-name="Path 2950" d="M162.183-48.72a.262.262,0,0,0-.183.27c0,.2.091.252.475.252s.475-.047.475-.252-.095-.274-.435-.285A1.442,1.442,0,0,0,162.183-48.72Z" transform="translate(-156.082 65.608)" fill="#fff"/>
  <path id="Path_2951" data-name="Path 2951" d="M199.183-48.72a.262.262,0,0,0-.183.27c0,.2.091.252.475.252s.475-.047.475-.252-.095-.274-.435-.285A1.442,1.442,0,0,0,199.183-48.72Z" transform="translate(-191.731 65.608)" fill="#fff"/>
  <path id="Path_2952" data-name="Path 2952" d="M236.183-48.72a.262.262,0,0,0-.183.27c0,.2.091.252.475.252s.475-.047.475-.252-.095-.274-.435-.285A1.442,1.442,0,0,0,236.183-48.72Z" transform="translate(-227.379 65.608)" fill="#fff"/>
  <path id="Path_2953" data-name="Path 2953" d="M273.183-48.72a.262.262,0,0,0-.183.27c0,.2.091.252.475.252s.475-.047.475-.252-.095-.274-.435-.285A1.443,1.443,0,0,0,273.183-48.72Z" transform="translate(-263.028 65.608)" fill="#fff"/>
</svg>
