<svg xmlns="http://www.w3.org/2000/svg" width="18.471" height="15.359" viewBox="0 0 18.471 15.359">
  <g id="stopwatch" transform="translate(0.468 -42.738)">
    <path id="Path_3335" data-name="Path 3335" d="M-346.824-4.771l.168.053.447.144.382.122.479.153.091.029c1.339.43,1.339.43,1.591.878a1.244,1.244,0,0,1,.036.9,1.265,1.265,0,0,1-.684.648,1.653,1.653,0,0,1-.936-.072l-.144.468.18.072.068.058a.516.516,0,0,0,.326.066h.074l.233,0a2.232,2.232,0,0,1,1.7.5A1.611,1.611,0,0,1-342.4.476a2.009,2.009,0,0,1-.334.886l.108.009a1.439,1.439,0,0,1,.859.577,1.447,1.447,0,0,1,.273.9v.091a1.587,1.587,0,0,1-.519,1.12l.071.059a1.565,1.565,0,0,1,.624,1c0,.085.006.169,0,.254,0,.045,0,.045,0,.091a1.536,1.536,0,0,1-.44,1.046,1.821,1.821,0,0,1-1.285.457l-.111,0-.268.009.054.1.07.137.036.068a1.461,1.461,0,0,1,.07,1.086,1.682,1.682,0,0,1-.844.972,1.791,1.791,0,0,1-.789.122h-.118l-.392,0-.281,0-.45,0q-.562-.006-1.125-.008h-.083l-.675,0-.608,0h-.088q-.607,0-1.215-.011-1.048-.013-2.1-.013h-.082a11.088,11.088,0,0,0-4.694.791,1.492,1.492,0,0,1-.807.192.743.743,0,0,1-.274-.48l-.024-.091c-.026-.1-.052-.2-.078-.3l-.057-.217q-.061-.233-.121-.466-.095-.369-.192-.737l-.2-.769q-.351-1.349-.715-2.695l-.158-.592-.117-.437-.027-.1-.052-.192-.048-.178q-.074-.276-.152-.55a.863.863,0,0,1-.019-.4.825.825,0,0,1,.494-.264l.106-.033.343-.1.235-.072.585-.178.4-.122.409-.125.076-.023.208-.063.116-.035a.415.415,0,0,1,.162-.024l.018-.057c.073-.225.16-.441.253-.659l.047-.11.1-.23.149-.35.1-.224.044-.1c.235-.549.235-.549.375-.642a.366.366,0,0,1,.322.07.38.38,0,0,1,.062.335,2.931,2.931,0,0,1-.2.528c-.032.07-.063.141-.094.212-.1.217-.192.433-.3.647-.032.066-.063.133-.095.2q-.058.123-.12.245a.82.82,0,0,0-.06.638l.021.08c.022.084.044.168.066.251l.04.157c.043.166.086.331.13.5l.05.189.135.509.084.319q.342,1.3.691,2.593l.065.243q.143.53.286,1.06l.118.436.055.2.075.277.022.082a1.255,1.255,0,0,1,.05.347l2.989-.036-.5-.288a5.843,5.843,0,0,1-.919-.741c-.048-.047-.1-.093-.147-.138a5.2,5.2,0,0,1-1.022-1.425l-.035-.067a5.886,5.886,0,0,1-.347-4.407A5.954,5.954,0,0,1-351.193-1.7l.067-.035a6.43,6.43,0,0,1,.977-.388l.074-.024c.062-.019.126-.036.189-.052.181-.078.235-.266.312-.438a1.116,1.116,0,0,0-.027-.877,1.114,1.114,0,0,0-.651-.6,1.47,1.47,0,0,0-1.134.171c-.117.059-.235.115-.353.172l-.579.28q-.262.128-.526.252l-.112.053-.2.1a3.422,3.422,0,0,0-1.489,1.235.452.452,0,0,1-.257.23.448.448,0,0,1-.322-.095.47.47,0,0,1-.038-.338,5.089,5.089,0,0,1,2.491-1.914l.2-.094q.378-.177.757-.351l.241-.113a2.007,2.007,0,0,1,.931-.24h.092a1.476,1.476,0,0,1,.617.119l.082.037a1.761,1.761,0,0,1,.886,1,1.828,1.828,0,0,1-.068,1.3l.079-.018a1.494,1.494,0,0,1,.275-.023h.3a3.1,3.1,0,0,1,.534.041l.072-.432-.095-.033a1.2,1.2,0,0,1-.805-.687,1.094,1.094,0,0,1,.006-.8,1.119,1.119,0,0,1,.593-.622A1.892,1.892,0,0,1-346.824-4.771Zm-1.269.628a.755.755,0,0,0-.038.464.874.874,0,0,0,.5.377l.085.031c.092.033.184.065.277.1l.1.033c.239.082.479.16.719.237l.11.036.732.235.082.026q.218.07.436.136l.1.031a.952.952,0,0,0,.537.023.374.374,0,0,0,.142-.1l.062-.056a.554.554,0,0,0,.094-.407.468.468,0,0,0-.154-.3,2.858,2.858,0,0,0-.566-.245l-.079-.027-.257-.087-.089-.03c-.6-.2-1.195-.39-1.8-.572l-.078-.024C-347.532-4.376-347.819-4.445-348.094-4.143Zm.9,1.616-.072.324.145.04a11.4,11.4,0,0,1,1.187.392.818.818,0,0,0,.108-.36l-.515-.169-.175-.058-.252-.083-.079-.026A1.025,1.025,0,0,0-347.2-2.527Zm-5.042,2.3-.071.064a5.013,5.013,0,0,0-1.225,1.989l-.041.116A5.349,5.349,0,0,0-353.239,6a5.6,5.6,0,0,0,.965,1.308l.078.085a4.823,4.823,0,0,0,1.29.923l.126.066a5.219,5.219,0,0,0,3.906.271l.145-.049.07-.024a4.543,4.543,0,0,0,.85-.409.855.855,0,0,1,.412-.143.311.311,0,0,1,.18.108c.027.19.027.19,0,.288a1.151,1.151,0,0,1-.423.3l-.076.04-.185.1v.036l.58.008.2,0a1.661,1.661,0,0,0,1.08-.219,1.116,1.116,0,0,0,.357-.764,1.353,1.353,0,0,0-.162-.54h-.144c-.094.1-.179.194-.263.3a.488.488,0,0,1-.3.2.351.351,0,0,1-.262-.071.4.4,0,0,1-.036-.288,2.424,2.424,0,0,1,.252-.288,5.546,5.546,0,0,0,1.44-4.141,5.147,5.147,0,0,0-.252-1.188l-.045-.136a4.87,4.87,0,0,0-1.216-1.916l-.095-.1a5.311,5.311,0,0,0-3.722-1.539A5.477,5.477,0,0,0-352.237-.223Zm7.922-.432a4.315,4.315,0,0,0,.351.434A6.3,6.3,0,0,1-343.2.93a.914.914,0,0,0,.227-.691,1.115,1.115,0,0,0-.407-.713,1.318,1.318,0,0,0-.731-.182h-.2Zm-12.613,2.478-.07.021-.229.069-.159.048-.333.1-.428.129-.328.1-.158.047-.22.067-.127.038a.24.24,0,0,0-.17.108c.02.109.045.211.074.317l.027.1q.045.167.09.334l.064.237q.086.321.173.642t.179.666l.22.816q.225.837.447,1.675l.091.346.03.112.058.22.141.534.132.5.048.182q.032.123.065.245l.036.138c.023.106.023.106.106.137.076-.018.151-.039.225-.061l.07-.021.229-.07.159-.048.334-.1.428-.131.407-.124.079-.024.22-.068.127-.039a.615.615,0,0,0,.17-.068,3.918,3.918,0,0,0-.123-.634l-.027-.1-.09-.335-.064-.239-.172-.641-.178-.665-.324-1.21-.26-.974-.277-1.035-.077-.288-.12-.447-.043-.162-.059-.218-.033-.123a.494.494,0,0,0-.063-.166A1.01,1.01,0,0,0-356.928,1.823Zm14.126.115.013.068.057.31.02.107a7.082,7.082,0,0,1,.111.955l0,.095q.006.115.011.229a.994.994,0,0,0,.468-.5,1.067,1.067,0,0,0-.036-.77,1.132,1.132,0,0,0-.54-.491Zm.144,2.521-.016.073a6.47,6.47,0,0,1-.564,1.7.162.162,0,0,0-.032.138,1.489,1.489,0,0,0,1.074-.239.994.994,0,0,0,.317-.734.974.974,0,0,0-.274-.688A.694.694,0,0,0-342.658,4.459Z" transform="translate(359.313 47.688)" fill="#fff"/>
    <path id="Path_3336" data-name="Path 3336" d="M-204.287-30.151a4.584,4.584,0,0,1,1.276,1.866l.041.106a4.556,4.556,0,0,1,.067,2.739l-.023.08a4.419,4.419,0,0,1-.877,1.613l-.092.11a4.5,4.5,0,0,1-2.681,1.475l-.11.02a4.924,4.924,0,0,1-1.87-.128l-.073-.02a4.405,4.405,0,0,1-1.871-1.1l-.09-.083a4.477,4.477,0,0,1-1.327-3.129,4.7,4.7,0,0,1,1.377-3.391A4.661,4.661,0,0,1-204.287-30.151Zm-4.432-.311-.091.033a.367.367,0,0,0-.251.163l.052.1a.474.474,0,0,1,.056.333.369.369,0,0,1-.144.144.439.439,0,0,1-.216,0,.665.665,0,0,1-.216-.288c-.411.068-.807.6-1.049.911l-.031.061c.048.144.127.171.252.252a.455.455,0,0,1,.036.288.369.369,0,0,1-.144.144.5.5,0,0,1-.4-.108l-.108.036a2.632,2.632,0,0,0-.108.261l-.028.079a4.017,4.017,0,0,0-.224,1.065l.064,0,.287.01.1,0,.1,0,.089,0a.409.409,0,0,1,.226.124.343.343,0,0,1,.018.144c0,.025,0,.049,0,.074-.027.1-.077.124-.163.178a.746.746,0,0,1-.172.018l-.1,0-.1,0-.1,0-.249.008a3.552,3.552,0,0,0,.4,1.44c.128-.05.128-.05.252-.108a.364.364,0,0,1,.3.059.322.322,0,0,1,.059.3,1.789,1.789,0,0,1-.324.288,3.913,3.913,0,0,0,1.08,1.044.511.511,0,0,0,.144-.288c.264-.044.264-.044.376-.007a.218.218,0,0,1,.092.115.7.7,0,0,1-.108.468,3.067,3.067,0,0,0,1.44.4l0-.061c0-.091.007-.182.011-.273l0-.1,0-.092,0-.085a.531.531,0,0,1,.084-.223.476.476,0,0,1,.288-.036.464.464,0,0,1,.144.108.56.56,0,0,1,.022.176l0,.1,0,.107,0,.108q0,.132.006.264a4.246,4.246,0,0,0,1.44-.36.946.946,0,0,0-.077-.225.738.738,0,0,1,0-.387c.257-.048.257-.048.389,0a.7.7,0,0,1,.187.286,2.215,2.215,0,0,0,.5-.36l.066-.061a3.786,3.786,0,0,0,.515-.623l-.243-.194a.453.453,0,0,1-.081-.275c.011-.048.022-.1.036-.144a.647.647,0,0,1,.54.072h.072a3.7,3.7,0,0,0,.36-1.44l-.064,0-.289-.011-.1,0-.1,0-.09,0c-.078-.011-.078-.011-.186-.083a.54.54,0,0,1-.007-.338.211.211,0,0,1,.115-.095c.055-.005.11-.009.165-.011l.1,0,.1,0,.1,0,.253-.011a4.151,4.151,0,0,0-.36-1.44,2.052,2.052,0,0,0-.288.108.81.81,0,0,1-.324-.036c-.051-.338-.051-.338,0-.432a1.669,1.669,0,0,1,.18-.072c.037-.035.073-.071.108-.108l-.211-.264c-.044-.054-.087-.109-.13-.164a2.608,2.608,0,0,0-.739-.616l-.031.062c-.119.217-.119.217-.278.265a.768.768,0,0,1-.268-.038.6.6,0,0,1,.072-.5c-.025-.118-.025-.118-.141-.162l-.138-.054-.074-.029a3.7,3.7,0,0,0-1.088-.224l0,.068c0,.1-.006.2-.01.3l0,.107,0,.1,0,.094a.245.245,0,0,1-.124.19.446.446,0,0,1-.36-.072.884.884,0,0,1-.047-.268l0-.092,0-.1,0-.1q-.006-.119-.011-.238A3.221,3.221,0,0,0-208.719-30.462Z" transform="translate(218.153 77.947)" fill="#fff"/>
    <path id="Path_3337" data-name="Path 3337" d="M-34.335-3.076a.879.879,0,0,1,.4.5,3.7,3.7,0,0,1,.016.424v.123q0,.128,0,.256c0,.13,0,.26,0,.391q0,.125,0,.25v.117a.87.87,0,0,1-.234.673l-.071.049-.071.05a1.038,1.038,0,0,1-.688.116.954.954,0,0,1-.54-.432,1.464,1.464,0,0,1-.085-.611v-.115q0-.12,0-.241c0-.122,0-.244,0-.366q0-.117,0-.235l0-.109a1.063,1.063,0,0,1,.252-.723A.872.872,0,0,1-34.335-3.076Zm-.6.536a.638.638,0,0,0-.105.462v.1q0,.107,0,.213c0,.109,0,.217,0,.326q0,.1,0,.207v.1a.609.609,0,0,0,.087.363.2.2,0,0,0,.186.09.307.307,0,0,0,.252-.164,1.936,1.936,0,0,0,.02-.363v-.107q0-.112,0-.224c0-.115,0-.229,0-.344q0-.109,0-.218v-.1a.436.436,0,0,0-.107-.354A.269.269,0,0,0-34.937-2.54Z" transform="translate(45.588 52.198)" fill="#fff"/>
  </g>
</svg>
