<svg xmlns="http://www.w3.org/2000/svg" width="18.979" height="15.696" viewBox="0 0 18.979 15.696">
  <g id="team_1_" data-name="team (1)" transform="translate(-12.677 -102.716)">
    <path id="Path_2852" data-name="Path 2852" d="M-94.106-.028h1.012a3.148,3.148,0,0,1,2.3.775,2.927,2.927,0,0,1,.717,1.186H-86.8l.195-.507A2.779,2.779,0,0,1-85,.1a5.147,5.147,0,0,1,1.375-.129h.944c1.6,0,1.6,0,2.2.283l.117.056A2.7,2.7,0,0,1-79.07,1.9a4.578,4.578,0,0,1,.122,1.264c0,.1,0,.2,0,.294q0,.094,0,.188c0,.029,0,.058,0,.088a.608.608,0,0,1-.132.424.523.523,0,0,1-.275.044h-2.91l-1.844,0,.038.144a1.474,1.474,0,0,1,.05.359c0,.034,0,.068,0,.1,0,.053,0,.053,0,.108,0,.037,0,.075,0,.113q0,.118,0,.235c0,.12,0,.24,0,.361q0,.115,0,.229c0,.036,0,.072,0,.109s0,.05,0,.1c0,.029,0,.059,0,.089a.28.28,0,0,1-.132.194.872.872,0,0,1-.406.044h-7.854c-.278,0-.278,0-.4-.088a.445.445,0,0,1-.045-.239v-.1c0-.054,0-.054,0-.11,0-.037,0-.074,0-.113q0-.119,0-.237,0-.18,0-.36,0-.115,0-.23V4.8c0-.034,0-.068,0-.1s0-.059,0-.09a2.506,2.506,0,0,1,.088-.414h-.077l-1.852.006-.9,0-.781,0h-1.25a.393.393,0,0,1-.253-.131,1.285,1.285,0,0,1-.047-.421V3.564q0-.1,0-.193c0-.1,0-.192,0-.289a3.1,3.1,0,0,1,.278-1.562l.042-.078a2.7,2.7,0,0,1,.355-.524l.082-.094C-96.347-.06-95.224-.031-94.106-.028ZM-96.9,1.4a2.186,2.186,0,0,0-.433,1.35c0,.05,0,.1,0,.152v.157q0,.08,0,.16,0,.2,0,.391.93.016,1.86.024.432,0,.864.011.377.007.753.009c.133,0,.266,0,.4.005a1.933,1.933,0,0,0,.994-.094,1.076,1.076,0,0,0,.239-.423,3.349,3.349,0,0,1,1.56-1.053,1.974,1.974,0,0,0-.351-.7l-.053-.073A2.167,2.167,0,0,0-92.492.567c-.217-.012-.433-.012-.65-.012H-94.8A2.508,2.508,0,0,0-96.9,1.4Zm11.036-.035a1.416,1.416,0,0,0-.352.725l.121.05A3.384,3.384,0,0,1-84.42,3.492l.078.117a.563.563,0,0,0,.191.014h1.188l.763,0,.868,0,1.786-.006q0-.228.006-.455c0-.076,0-.153,0-.229a2.346,2.346,0,0,0-.622-1.73A1.971,1.971,0,0,0-80.715.8L-80.8.756a2.96,2.96,0,0,0-1.344-.2h-.58l-.5,0h-.57A2.472,2.472,0,0,0-85.862,1.363Zm-5.962,2.182A3.469,3.469,0,0,0-92.3,5.792h7.721A3.147,3.147,0,0,0-85.27,3.3l-.086-.082-.072-.075a2.8,2.8,0,0,0-2.1-.605h-1.918A2.822,2.822,0,0,0-91.824,3.545Z" transform="translate(110.602 112.025)" fill="#fff"/>
    <path id="Path_2853" data-name="Path 2853" d="M-92.415-10.876a2.416,2.416,0,0,1,.939,1.6,2.633,2.633,0,0,1-.541,1.872c-.039.04-.08.079-.122.117l-.083.077a2.537,2.537,0,0,1-1.905.586,2.4,2.4,0,0,1-1.518-.833,2.572,2.572,0,0,1-.492-1.954,2.354,2.354,0,0,1,1.005-1.513A2.426,2.426,0,0,1-92.415-10.876Zm-2.844.867a1.936,1.936,0,0,0-.311,1.356,1.89,1.89,0,0,0,.78,1.17,1.9,1.9,0,0,0,1.415.248,1.926,1.926,0,0,0,1.1-.853A1.862,1.862,0,0,0-92.121-9.5a1.869,1.869,0,0,0-.919-1.058A1.813,1.813,0,0,0-95.259-10.009Z" transform="translate(115.981 119.725)" fill="#fff"/>
    <path id="Path_2854" data-name="Path 2854" d="M-72.371-3.789l.094.036a2.2,2.2,0,0,1,1.121,1.238,2.287,2.287,0,0,1-.135,1.678A2.221,2.221,0,0,1-72.494.2,2.3,2.3,0,0,1-74.243.032a2.892,2.892,0,0,1-.351-.273l-.081-.068a2.113,2.113,0,0,1-.631-1.382,2.336,2.336,0,0,1,.491-1.526A2.232,2.232,0,0,1-72.371-3.789Zm-2.04,1.041a1.605,1.605,0,0,0-.3,1.142,1.7,1.7,0,0,0,.6,1.023,1.634,1.634,0,0,0,1.246.276,1.713,1.713,0,0,0,.96-.636,1.769,1.769,0,0,0,.2-1.346,1.667,1.667,0,0,0-.784-.916A1.581,1.581,0,0,0-74.411-2.748Z" transform="translate(100.854 111)" fill="#fff"/>
    <path id="Path_2855" data-name="Path 2855" d="M-88.851-14.348a2.248,2.248,0,0,1,.634,1.665,2.267,2.267,0,0,1-.8,1.532,2.13,2.13,0,0,1-1.5.462,2.258,2.258,0,0,1-1.508-.8,2.383,2.383,0,0,1-.389-1.837,2.23,2.23,0,0,1,1.03-1.355A2.244,2.244,0,0,1-88.851-14.348Zm-2.686.552a2.29,2.29,0,0,0-.161.266l-.049.086a1.636,1.636,0,0,0-.073,1.1,1.7,1.7,0,0,0,.434.644l.058.057a1.521,1.521,0,0,0,1.061.384,1.753,1.753,0,0,0,1.159-.625,1.624,1.624,0,0,0,.277-1.243,1.73,1.73,0,0,0-.763-1.042A1.575,1.575,0,0,0-91.537-13.8Z" transform="translate(107 121.988)" fill="#fff"/>
    <path id="Path_2939" data-name="Path 2939" d="M353.763-121.9a.345.345,0,0,0-.13.215c0,.075-.06.155-.185.235a1.759,1.759,0,0,0-.334.309,1.056,1.056,0,0,0-.1.988,1.174,1.174,0,0,0,1,.644.369.369,0,0,1,.324.369.361.361,0,0,1-.364.4.4.4,0,0,1-.414-.374c-.04-.23-.125-.309-.329-.309-.509,0-.294.983.264,1.213.115.05.145.095.145.2a.352.352,0,0,0,.319.344.427.427,0,0,0,.329-.369c0-.07.06-.14.185-.2a1.018,1.018,0,0,0,.5-.8,1.038,1.038,0,0,0-.833-1.1c-.309-.05-.414-.095-.519-.235a.379.379,0,0,1,.5-.534.425.425,0,0,1,.23.354.33.33,0,0,0,.324.289c.294,0,.389-.334.21-.729-.09-.2-.419-.519-.539-.519-.035,0-.065-.055-.065-.125,0-.14-.2-.374-.314-.374A.461.461,0,0,0,353.763-121.9Z" transform="translate(-333.116 224.716)" fill="#fff"/>
    <path id="Path_2940" data-name="Path 2940" d="M411.124-113.063a.327.327,0,0,0,.01.434c.08.07.215.085.818.085.639,0,.733-.01.8-.09a.314.314,0,0,0,0-.424A3.728,3.728,0,0,0,411.124-113.063Z" transform="translate(-388.331 216.309)" fill="#fff"/>
    <path id="Path_2941" data-name="Path 2941" d="M411.11-85.006a.264.264,0,0,0-.11.245c0,.284.115.324.908.324.624,0,.7-.01.788-.1a.291.291,0,0,0-.085-.494A3.989,3.989,0,0,0,411.11-85.006Z" transform="translate(-388.286 189.649)" fill="#fff"/>
    <path id="Path_2942" data-name="Path 2942" d="M411.11-55.92a.263.263,0,0,0-.11.244c0,.279.12.324.863.324.768,0,.928-.06.933-.339a.356.356,0,0,0-.1-.21c-.09-.09-.165-.1-.788-.1C411.369-56,411.2-55.985,411.11-55.92Z" transform="translate(-388.286 162.01)" fill="#fff"/>
  </g>
</svg>
