<svg xmlns="http://www.w3.org/2000/svg" width="16.507" height="17.289" viewBox="0 0 16.507 17.289">
  <g id="salesman" transform="translate(-11.315 0.695)">
    <path id="Path_3310" data-name="Path 3310" d="M-414.85-.234a.335.335,0,0,1,.183.236c.007.084.008.166.006.25,0,.048,0,.048,0,.1,0,.1,0,.209,0,.314q0,.109,0,.218,0,.228,0,.457,0,.293,0,.586,0,.225,0,.45,0,.108,0,.216c0,.1,0,.2,0,.3,0,.045,0,.045,0,.09,0,.2,0,.2-.083.307a.4.4,0,0,1-.341.07,5.227,5.227,0,0,1-.66-.2l-.162-.054-.423-.143-.433-.146-.847-.286c-.009.087-.018.174-.026.261l-.008.074a.336.336,0,0,0,.064.286,1.116,1.116,0,0,0,.16.1.8.8,0,0,1,.292.375,2.1,2.1,0,0,1-.046.888l-.022.105q-.036.17-.074.34l-.051.239q-.053.249-.108.5-.069.318-.137.637-.053.246-.106.492l-.05.235q-.035.164-.071.328l-.02.1a1.423,1.423,0,0,1-.335.734,1.249,1.249,0,0,1-.876.2,1.047,1.047,0,0,1-.618-.514c-.041-.081-.079-.163-.116-.246l-.042-.091c-.043-.094-.086-.189-.128-.284l-.088-.192c-.222-.486-.222-.486-.289-.661h-.034l-.184.825-.086.383-.083.37-.032.141-.044.2-.025.114a.514.514,0,0,0-.018.194l.071.017a11.386,11.386,0,0,1,2.22.757l.07.033q.237.114.469.236l.065.034a9.54,9.54,0,0,1,1.552,1.044l.055.045c.3.245.576.512.85.785l.05.049a7.509,7.509,0,0,1,.628.7l.057.072c.048.062.095.124.141.187l.047.061a1.109,1.109,0,0,1,.227.859.966.966,0,0,1-.455.6.951.951,0,0,1-.741.069,1.364,1.364,0,0,1-.644-.56,7.214,7.214,0,0,0-1.6-1.592l-.116-.086a8.332,8.332,0,0,0-.861-.554l-.077-.044a9.417,9.417,0,0,0-3.9-1.1c0,.03,0,.06,0,.091a5.988,5.988,0,0,1-1.514,3.649l-.087.1a6.118,6.118,0,0,1-3.954,2.072,1.007,1.007,0,0,1-.675-.15l-.091-.057a.974.974,0,0,1-.291-.689,1.073,1.073,0,0,1,.217-.644,1.491,1.491,0,0,1,.827-.345,4.813,4.813,0,0,0,2.369-1.2l.068-.061a4.532,4.532,0,0,0,1.316-3.085q0-.12,0-.24a14.178,14.178,0,0,1,.288-2.731l.018-.1.016-.084a.558.558,0,0,0,.011-.172,1.123,1.123,0,0,0-.775.067,2.125,2.125,0,0,0-.415.354c-.091.084-.091.084-.152.083a.828.828,0,0,1-.252-.194l-.092-.089c-.066-.086-.066-.086-.067-.155a1.73,1.73,0,0,1,.992-.717,1.955,1.955,0,0,1,.9.012l.168-1.011A4.969,4.969,0,0,0-427.1,7.5a5.689,5.689,0,0,0-.294.786,1.07,1.07,0,0,1-.529.722,1.141,1.141,0,0,1-.735.024A1.042,1.042,0,0,1-429.2,8.5a3.1,3.1,0,0,1,.545-2.041,6.528,6.528,0,0,1,3.833-3.12,7.98,7.98,0,0,1,2.318-.282h2.309a.764.764,0,0,1,.392.077.781.781,0,0,1,.161.281c.09.233.2.458.3.683l.061.132.149.319h.034l.016-.079q.038-.179.076-.359l.026-.125c.12-.556.12-.556.351-.747l.066-.057a.85.85,0,0,1,.239-.116l.034-.606-.149.006-.194,0-.1,0-.1,0-.087,0a.37.37,0,0,1-.253-.188,1.4,1.4,0,0,1-.021-.327c0-.032,0-.063,0-.1q0-.1,0-.2c0-.1,0-.2,0-.3q0-.1,0-.194V1.079A.564.564,0,0,1-419.1.741a.5.5,0,0,1,.417-.1A5.916,5.916,0,0,0-416.4.215c.223-.082.447-.16.67-.238l.23-.084.141-.051.122-.045A.916.916,0,0,1-414.85-.234Zm-.661.8-.123.041-.133.045L-415.9.7l-.358.12-.365.122-.717.239v.775l.472.158.159.053c.473.159.948.31,1.424.463V.507A.758.758,0,0,0-415.512.569Zm-3.045.713v.573h.573V1.282Zm.27,2.56a1.759,1.759,0,0,0-.07.256l-.016.075c-.017.08-.033.16-.049.24l-.035.165q-.043.2-.085.4-.053.257-.11.513l-.019.09a.475.475,0,0,1-.156.312.506.506,0,0,1-.3.034.946.946,0,0,1-.269-.409l-.037-.082-.119-.263L-419.636,5q-.118-.257-.234-.515l-.161-.356-.084-.186a.736.736,0,0,0-.126-.234c-.08,0-.159,0-.239,0h-.457l-.382,0-.236.91-.267-.065-.084-.02c-.184-.045-.184-.045-.221-.083a1.3,1.3,0,0,1,.034-.148l.023-.091.025-.1.048-.186.022-.084a.3.3,0,0,0,.016-.136l-.559,0h-.189a5.841,5.841,0,0,0-4.2,1.555l-.052.051c-.051.049-.1.1-.154.146a4.982,4.982,0,0,0-.977,1.326c-.028.054-.058.107-.087.16a6.2,6.2,0,0,0-.383.978l-.034.1a.462.462,0,0,0,.057.333.293.293,0,0,0,.246.105.488.488,0,0,0,.27-.269c.027-.082.052-.163.076-.246a4.971,4.971,0,0,1,.9-1.708l.045-.057a5.1,5.1,0,0,1,3.256-1.83c.354-.031.354-.031.5.059a2.18,2.18,0,0,1-.08,1.034l-.046.267-.021.118a1.547,1.547,0,0,0-.015.274.954.954,0,0,0,.677-.306,1.023,1.023,0,0,0,.267-.7l.606.1a1.763,1.763,0,0,1-.667,1.223,2.022,2.022,0,0,1-.983.326,4.289,4.289,0,0,0-.126.557l-.016.091-.032.19q-.024.145-.049.291l-.031.185-.015.088-.014.081-.012.072a.623.623,0,0,0-.008.164h2.358c.184-.782.184-.782.358-1.566l.03-.137q.062-.281.123-.563.038-.176.077-.351l.042-.194.026-.119.023-.1a1.346,1.346,0,0,1,.129-.3.513.513,0,0,1,.337-.034.927.927,0,0,1,.248.359l.032.067.1.22.071.153q.184.4.363.794l.034.076q.081.18.162.361a1.182,1.182,0,0,0,.47.7.387.387,0,0,0,.235-.08,1.009,1.009,0,0,0,.159-.449l.025-.115q.028-.129.056-.257c.033-.153.067-.307.1-.46q.086-.391.171-.782.049-.227.1-.453t.1-.447l.037-.168q.026-.117.051-.234l.015-.068a1.666,1.666,0,0,0,.034-.462.367.367,0,0,0-.269-.189A.411.411,0,0,0-418.287,3.842Zm-5.592,5.222.029.128.016.072a.556.556,0,0,0,.288.327,1.51,1.51,0,0,0,.566.063,10.518,10.518,0,0,1,2.268.286l.09.022a8.712,8.712,0,0,1,2,.787l.072.038a8.2,8.2,0,0,1,1.107.7l.064.048a9.008,9.008,0,0,1,.846.727l.063.061a7.6,7.6,0,0,1,.827.925l.042.056.114.156a.358.358,0,0,0,.263.164.236.236,0,0,0,.2-.084.374.374,0,0,0,.072-.335A.8.8,0,0,0-415.1,13l-.046-.056c-.048-.059-.1-.117-.146-.175l-.1-.117a6.491,6.491,0,0,0-.51-.556q-.131-.13-.26-.263a6.579,6.579,0,0,0-.683-.613l-.058-.046a10.182,10.182,0,0,0-6.41-2.112h-.168Zm0,1.044-.01.071a6.814,6.814,0,0,1-.293,1.377l-.023.065a5.143,5.143,0,0,1-2.634,2.9,5.521,5.521,0,0,1-1.394.428.833.833,0,0,0-.4.149.506.506,0,0,0-.034.3.322.322,0,0,0,.221.158,1.493,1.493,0,0,0,.438-.04l.094-.018a5.576,5.576,0,0,0,2.549-1.245l.087-.076c.084-.075.167-.151.25-.228l.073-.066a5.618,5.618,0,0,0,1.559-2.974l.017-.086a2.657,2.657,0,0,0,.036-.545l-.092-.028-.12-.037-.12-.037Z" transform="translate(442.122 0.405)" fill="#fff"/>
    <path id="Path_3311" data-name="Path 3311" d="M-17.69-.052h3.936a.332.332,0,0,1,.22.152A.724.724,0,0,1-13.5.442c0,.028,0,.056,0,.085q0,.14,0,.279,0,.1,0,.194,0,.2,0,.406,0,.26,0,.521,0,.2,0,.4,0,.1,0,.192,0,.134,0,.269c0,.027,0,.053,0,.08,0,.237,0,.237-.076.335a.529.529,0,0,1-.317.077h-1.7l-.715,0-.614,0h-.776l-.123,0c-.268,0-.268,0-.409-.089a.672.672,0,0,1-.081-.39V2.726c0-.095,0-.189,0-.284q0-.1,0-.2,0-.207,0-.414c0-.177,0-.353,0-.53q0-.2,0-.408,0-.1,0-.2c0-.091,0-.182,0-.273V.344a.559.559,0,0,1,.082-.308A.905.905,0,0,1-17.69-.052Zm.013.628V2.63h3.537V.575Z" transform="translate(29.621 10.038)" fill="#fff"/>
    <path id="Path_3312" data-name="Path 3312" d="M-60.886-7.206a1.452,1.452,0,0,1,.488.749c.008.093.012.181.011.273v.08a5.555,5.555,0,0,1-.122.933L-60.541-5q-.038.208-.078.416c-.014.076-.027.151-.04.227l-.024.137-.02.119a.4.4,0,0,1-.166.235.776.776,0,0,1-.274.039h-.588l-.38,0h-.557a.512.512,0,0,1-.256-.113A.457.457,0,0,1-63-4.253v-.068c0-.074,0-.148,0-.223q0-.078,0-.156,0-.163,0-.327,0-.208,0-.416,0-.161,0-.322,0-.077,0-.153a1.594,1.594,0,0,1,.353-1.147A1.4,1.4,0,0,1-60.886-7.206Zm-1.33.623a.528.528,0,0,0-.136.294h1.314a.694.694,0,0,0-.306-.447A.685.685,0,0,0-62.216-6.582Zm-.169.9v1.213h1.078a3.815,3.815,0,0,0,.1-.43L-61.187-5l.018-.109.019-.109.018-.106.016-.1a1.057,1.057,0,0,0,.011-.258Z" transform="translate(82.415 6.762)" fill="#fff"/>
  </g>
</svg>
