<svg xmlns="http://www.w3.org/2000/svg" width="18.538" height="18.6" viewBox="0 0 18.538 18.6">
  <g id="location_1_" data-name="location (1)" transform="translate(0.412 1.683)">
    <path id="Path_2639" data-name="Path 2639" d="M-335.529-32.7c.09.079.177.161.264.244l.1.09a5,5,0,0,1,1.5,3.425,5.627,5.627,0,0,1-.3,1.981l-.026.075a8.908,8.908,0,0,1-1,1.793,3.986,3.986,0,0,0-.276.482l.078.029a2.909,2.909,0,0,1,.3.151l.118.066.126.071.131.073.27.151.479.267.222.125c.189.108.378.21.574.306l.118.061c.073.038.147.074.222.108.342.182.421.487.54.834.052.149.109.3.166.444q.07.183.139.366l.048.128.05.132.1.276.189.5.49,1.293.148.391.629,1.657.088.232.083.217.077.2c.053.139.106.278.161.416l.05.126.042.1a.858.858,0,0,1,.031.418.279.279,0,0,1-.176.127,1.1,1.1,0,0,1-.658-.242l-.231-.14-.119-.072c-.183-.109-.37-.209-.558-.31q-.453-.243-.9-.5c-.282-.162-.566-.321-.85-.48q-.291-.162-.58-.327l-.115-.066-.217-.124-.1-.056-.086-.049a.577.577,0,0,0-.223-.075.732.732,0,0,0-.183.091l-.109.062-.117.069-.122.07-.251.144c-.178.1-.358.2-.538.305l-.206.116-.662.372-.769.432-.205.116q-.27.152-.536.309l-.113.066-.213.127c-.31.18-.31.18-.489.165a2.271,2.271,0,0,1-.529-.261l-.13-.074-.266-.153c-.2-.114-.4-.224-.6-.335q-.457-.255-.91-.516-.425-.243-.854-.481c-.187-.1-.373-.21-.556-.321l-.1-.062-.193-.118-.088-.052-.076-.046a.518.518,0,0,0-.39.1l-.094.053-.107.061-.115.065-.245.138-.063.036-.417.234c-.372.207-.743.417-1.11.633-.326.192-.656.375-.991.553-.166.089-.329.178-.488.278l-.083.052-.149.1a.666.666,0,0,1-.528.1.268.268,0,0,1-.123-.178,1.577,1.577,0,0,1,.137-.61l.04-.1q.065-.169.132-.337l.093-.24.2-.511c.152-.392.3-.786.45-1.18l.251-.663.1-.262.049-.129.1-.251q.26-.684.52-1.368.12-.316.239-.633l.15-.4.069-.185q.047-.126.095-.251l.027-.074a.777.777,0,0,1,.422-.445l.118-.065.127-.069.132-.072.271-.149c.2-.11.4-.221.6-.333l.111-.062q.274-.153.546-.309l.105-.06.2-.113.088-.051.076-.044a2.316,2.316,0,0,1,.257-.112c-.142-.269-.3-.527-.461-.782a6.853,6.853,0,0,1-1.058-2.364l-.027-.128a5.223,5.223,0,0,1,.827-3.745,7.155,7.155,0,0,1,.574-.683l.087-.1a5.159,5.159,0,0,1,2.407-1.351l.079-.023A5.145,5.145,0,0,1-335.529-32.7Zm-6.677.843a4.614,4.614,0,0,0-1.243,3.24,5.756,5.756,0,0,0,1.143,3.043c.093.145.185.29.277.436l.053.083q.218.345.433.692.293.47.591.936.268.42.53.843t.517.818q.28.439.554.882l.18.287.045.072a.414.414,0,0,0,.172.181.319.319,0,0,0,.284-.054,3.116,3.116,0,0,0,.277-.4l.116-.187.06-.1c.091-.146.184-.292.276-.438l.108-.172.271-.429.109-.172.267-.423q.3-.473.6-.949.328-.525.662-1.047.221-.347.44-.7.124-.2.251-.394a5.03,5.03,0,0,0,.9-3.891,4.711,4.711,0,0,0-2.046-2.908l-.12-.078A4.644,4.644,0,0,0-342.206-31.86Zm-.479,8.035-.119.066-.129.072-.132.074-.273.153-.383.214c-.274.152-.274.152-.546.308a1.808,1.808,0,0,1-.238.115.888.888,0,0,0-.536.543c-.048.127-.092.256-.135.385l-.076.212q-.082.225-.161.451c-.126.355-.261.707-.395,1.059q-.115.3-.228.6-.251.667-.505,1.333c-.245.645-.49,1.29-.727,1.937a3,3,0,0,0,.4-.191l.063-.035.2-.113.143-.079q.45-.25.9-.506c.243-.14.487-.277.732-.414l.227-.128q.223-.125.448-.248l.208-.115.1-.052.089-.05.078-.042a.768.768,0,0,0,.189-.47l.015-.07.031-.149.049-.237q.061-.294.122-.587l.1-.5.048-.233.03-.143.026-.126a.832.832,0,0,1,.1-.251.566.566,0,0,1,.325-.036.367.367,0,0,1,.108.108,2.632,2.632,0,0,1-.1.835l-.032.146q-.041.191-.083.381-.067.306-.134.612l-.047.213-.029.131-.025.115a.694.694,0,0,0-.018.244l.083.046q.851.468,1.7.946l.511.29.1.058q.463.262.927.52l.109.061.1.053q.1.054.188.112c.078.054.078.054.156.048q.011-.709.017-1.417,0-.329.008-.658t.006-.635q0-.121,0-.242c0-.113,0-.226,0-.339l0-.1a.686.686,0,0,0-.04-.259,1.163,1.163,0,0,0-.248-.174.5.5,0,0,1-.2-.208l-.058-.093-.059-.1-.064-.105-.134-.221c-.111-.183-.225-.365-.339-.546l-.137-.219q-.223-.356-.45-.709-.275-.431-.544-.865-.219-.352-.442-.7a.37.37,0,0,0-.115.247l-.023.11-.024.119-.052.249-.081.393q-.039.19-.079.379l-.024.119-.023.111-.02.1a.873.873,0,0,1-.136.272.4.4,0,0,1-.3.007.207.207,0,0,1-.1-.115,2.583,2.583,0,0,1,.079-.724l.024-.112q.038-.175.077-.351l.077-.353.048-.219.022-.1.019-.088a.674.674,0,0,0,.014-.224A.5.5,0,0,0-342.685-23.825Zm7.42-.1a6.814,6.814,0,0,0,.139.827l.032.15.086.4.09.424.152.712.175.822.15.707.09.422.085.4.045.215.028.129.024.112a.516.516,0,0,0,.184.345l.108.058.121.066.13.069.134.072.27.146c.172.093.341.19.511.288.347.2.7.395,1.045.59l.425.239.189.107.239.136.108.061.1.054a.226.226,0,0,0,.189.038l-.021-.056-.066-.173-.079-.209-.228-.6-.421-1.109-.166-.437-.083-.219-.494-1.3-.081-.215-.027-.071-.054-.142-.131-.346-.05-.132-.049-.129-.094-.246c-.064-.165-.126-.329-.18-.5a.861.861,0,0,0-.482-.586l-.125-.059-.13-.066-.268-.135c-.209-.1-.411-.221-.614-.336l-.222-.124q-.184-.1-.367-.209l-.073-.042-.181-.106C-335.187-23.931-335.187-23.931-335.265-23.926Zm-.615.181c-.036.053-.071.107-.1.162l-.066.106-.072.116-.149.24-.038.062q-.184.3-.373.59l-.126.2-.061.1-.274.432-.052.083q-.187.3-.372.595l-.275.439-.117.187q-.07.113-.142.226l-.077.122a.549.549,0,0,1-.236.181.3.3,0,0,0-.167.181,2.15,2.15,0,0,0-.006.281c0,.036,0,.071,0,.108,0,.118,0,.235,0,.353q0,.122,0,.245c0,.215,0,.429.007.644s0,.438.006.657q0,.645.014,1.289a1.828,1.828,0,0,0,.372-.156l.088-.051.094-.055.2-.118.108-.063c.183-.105.368-.209.553-.312l.114-.064.463-.259c.433-.242.865-.484,1.295-.731q.288-.165.578-.325a7.355,7.355,0,0,0-.135-.773l-.031-.145-.083-.393-.07-.329-.164-.775-.169-.8-.145-.687-.087-.41-.082-.385-.044-.208-.027-.126-.023-.109c-.027-.109-.061-.214-.1-.32Z" transform="translate(347.703 32.246)" fill="#fff"/>
    <path id="Path_2640" data-name="Path 2640" d="M-126.6-14c.077.059.151.12.224.184l.105.084a2.91,2.91,0,0,1,.951,1.954,2.965,2.965,0,0,1-.664,2.154l-.067.075-.067.088a2.817,2.817,0,0,1-1.741.924,3.123,3.123,0,0,1-2.35-.624l-.072-.063-.106-.085a2.921,2.921,0,0,1-.87-1.47l-.022-.084a3.134,3.134,0,0,1,.384-2.266,3.586,3.586,0,0,1,.289-.362l.086-.113A3.074,3.074,0,0,1-126.6-14Zm-3.289.63q-.088.084-.174.169l-.077.073a2.371,2.371,0,0,0-.626,1.6,2.435,2.435,0,0,0,.739,1.722l.073.076a2.426,2.426,0,0,0,1.663.647,2.618,2.618,0,0,0,1.808-.849,2.491,2.491,0,0,0,.584-1.788,2.39,2.39,0,0,0-.729-1.521l-.079-.079A2.387,2.387,0,0,0-129.887-13.371Z" transform="translate(137.185 15.05)" fill="#fff"/>
    <path id="Path_2641" data-name="Path 2641" d="M-81.746-9.376a2,2,0,0,1,.763,1.185,2.043,2.043,0,0,1-.385,1.583A1.865,1.865,0,0,1-82.6-5.9a2.146,2.146,0,0,1-1.667-.533,2.043,2.043,0,0,1-.546-1.51,1.975,1.975,0,0,1,.661-1.326A2,2,0,0,1-81.746-9.376Zm-2.149.688a1.405,1.405,0,0,0-.327,1.08,1.447,1.447,0,0,0,.615.94,1.5,1.5,0,0,0,1.121.156,1.484,1.484,0,0,0,.844-.766,1.4,1.4,0,0,0-.012-1.09,1.49,1.49,0,0,0-.859-.744A1.419,1.419,0,0,0-83.9-8.688Z" transform="translate(91.744 11.337)" fill="#fff"/>
  </g>
</svg>
