<svg id="graphic-design" xmlns="http://www.w3.org/2000/svg" width="16.916" height="16.912" viewBox="0 0 16.916 16.912">
  <path id="Path_2918" data-name="Path 2918" d="M13.7-511.834a19.349,19.349,0,0,0-2.237,2.138c-1.134,1.13-2.082,2.1-2.109,2.158a.251.251,0,0,0,.271.36c.063-.013.773-.7,2.191-2.118,1.97-1.963,2.109-2.1,2.214-2.1s.2.083,1.279,1.167,1.167,1.173,1.167,1.276-.043.155-.3.423l-.3.307-.73-.727c-.651-.648-.744-.727-.836-.727a.282.282,0,0,0-.271.254c0,.073.136.225.734.826l.737.737-.3.3-.3.3-.344-.337c-.284-.278-.36-.337-.443-.337a.263.263,0,0,0-.261.225c-.02.1,0,.126.33.463l.35.357-.307.3-.3.3-.3-.3c-.334-.337-.443-.4-.585-.354a.23.23,0,0,0-.159.248c0,.073.069.162.337.43l.34.34-.307.3-.3.307-.7-.7c-.387-.383-.737-.714-.78-.734a.238.238,0,0,0-.337.238c0,.129.023.155.717.856l.717.72-.294.3-.3.3-.314-.311c-.354-.35-.433-.4-.582-.334-.112.046-.145.1-.145.251,0,.083.063.162.33.44l.327.337-.254.254-.254.254L9.79-504.706l-1.279-1.279.261-.268c.284-.294.334-.4.251-.532-.142-.215-.317-.165-.664.185l-.231.231L5.6-508.893c-2.71-2.7-2.624-2.627-3.077-2.746a2.011,2.011,0,0,0-.991.026,1.753,1.753,0,0,0-1.17,1.229,1.559,1.559,0,0,0-.043.542,1.507,1.507,0,0,0,.254.856c.056.086,1.216,1.269,2.581,2.634l2.479,2.479-2.694,2.694A30.509,30.509,0,0,0,.166-498.3a.751.751,0,0,0-.033.615c.05.145.185.291,1.266,1.372,1.124,1.127,1.223,1.216,1.388,1.269a.84.84,0,0,0,.615-.033c.093-.043.955-.882,2.842-2.766l2.713-2.7.195.2a1.379,1.379,0,0,0,.271.228.266.266,0,0,0,.34-.274c0-.053-.9-.968-3.173-3.245l-3.173-3.173.347-.347.344-.344.245.235a1.323,1.323,0,0,0,.334.261.256.256,0,0,0,.3-.3,1.323,1.323,0,0,0-.261-.334l-.235-.245.327-.327a2.723,2.723,0,0,1,.364-.331c.017,0,2.185,2.151,4.819,4.786l4.782,4.782-.347.347-.347.347-4.125-4.121c-2.37-2.37-4.161-4.138-4.214-4.158a.253.253,0,0,0-.321.321c.02.053,1.788,1.844,4.158,4.214l4.121,4.125-.347.347-.347.347-1.272-1.272c-1.315-1.312-1.325-1.319-1.5-1.253a.331.331,0,0,0-.136.291c.01.036.648.7,1.415,1.461l1.4,1.395,1.6.618a16.217,16.217,0,0,0,1.725.621.406.406,0,0,0,.407-.4c0-.073-.238-.73-.625-1.728L15.4-499.1l-1.973-1.973-1.976-1.976,2.694-2.694a30.509,30.509,0,0,0,2.773-2.875.751.751,0,0,0,.033-.615c-.05-.145-.185-.291-1.266-1.372s-1.226-1.216-1.372-1.266A.751.751,0,0,0,13.7-511.834Zm-11.177.747c.218.083.39.221.873.711l.39.39L2.9-509.1l-.886.886-.486-.5a2.939,2.939,0,0,1-.572-.674A1.243,1.243,0,0,1,2.519-511.087Zm1.973,1.811.33.33-.886.886-.882.882-.337-.34-.34-.337.876-.876c.483-.483.882-.876.892-.876S4.31-509.458,4.492-509.276Zm3.827,8.6-.254.254-.337-.327c-.278-.268-.357-.331-.44-.331-.149,0-.2.033-.251.145-.063.149-.017.228.334.582l.311.314-.3.3-.3.294-.72-.717c-.7-.694-.727-.717-.856-.717a.23.23,0,0,0-.238.324,8.012,8.012,0,0,0,.734.793l.7.7-.307.3-.3.307-.34-.34c-.268-.268-.357-.337-.43-.337a.23.23,0,0,0-.248.159c-.05.142.017.251.354.585l.3.3-.3.3-.3.307-.357-.35c-.337-.334-.36-.35-.463-.331a.263.263,0,0,0-.225.261c0,.083.059.159.337.443l.337.344-.3.3-.3.3-.737-.737c-.6-.6-.754-.734-.826-.734a.282.282,0,0,0-.254.271c0,.093.079.185.727.836l.727.73-.307.3c-.268.261-.327.3-.423.3s-.2-.1-1.276-1.167S.609-497.868.609-497.973s.159-.274,2.7-2.816l2.7-2.7,1.279,1.279,1.282,1.282Zm7.241,3.44c.268.691.479,1.259.473,1.269s-.582-.2-1.276-.476l-1.259-.489.783-.783c.43-.433.787-.78.79-.777S15.3-497.924,15.56-497.236Z" transform="translate(-0.083 511.917)" fill="#fff"/>
</svg>
