<svg xmlns="http://www.w3.org/2000/svg" width="18.729" height="14.001" viewBox="0 0 18.729 14.001">
  <g id="credit" transform="translate(-31.36 -119.586)">
    <path id="Path_3096" data-name="Path 3096" d="M-65-.031h13.176a2.641,2.641,0,0,1,1.808.683l.1.084a2.562,2.562,0,0,1,.8,1.8c0,.218,0,.436,0,.654q0,.142,0,.284,0,.3,0,.592,0,.379,0,.759,0,.293,0,.585,0,.14,0,.28c0,.13,0,.26,0,.39,0,.058,0,.058,0,.117,0,.26,0,.26-.1.393a.356.356,0,0,1-.254.08h-.083a.4.4,0,0,1-.25-.189,2.449,2.449,0,0,1-.021-.358c0-.054,0-.054,0-.109,0-.12,0-.239,0-.359q0-.125,0-.25,0-.33,0-.66,0-.526,0-1.053,0-.183,0-.366a2.627,2.627,0,0,0-.581-2,2.285,2.285,0,0,0-1.743-.6H-64.921a2.229,2.229,0,0,0-1.607.594A2.7,2.7,0,0,0-67.1,3.3q0,.091,0,.182,0,.246,0,.492,0,.154,0,.308,0,.539,0,1.078,0,.5,0,1,0,.431,0,.862,0,.257,0,.514t0,.484q0,.088,0,.176a2.608,2.608,0,0,0,.635,2,2.99,2.99,0,0,0,2.117.552h1.432l2.111,0,1.169,0h1.864a.376.376,0,0,1,.3.187.407.407,0,0,1,.021.167c0,.027,0,.055,0,.083a.414.414,0,0,1-.189.25,1.915,1.915,0,0,1-.318.021h-3.057q-.641,0-1.282,0H-64.9a2.857,2.857,0,0,1-2.192-.86l-.081-.078a2.723,2.723,0,0,1-.645-2q0-.106,0-.211,0-.285,0-.57,0-.239,0-.478,0-.564,0-1.128,0-.58,0-1.159,0-.5,0-1,0-.3,0-.6,0-.28,0-.56,0-.1,0-.2A2.8,2.8,0,0,1-66.968.692l.078-.081A2.6,2.6,0,0,1-65-.031Z" transform="translate(99.188 119.619)" fill="#fff"/>
    <path id="Path_3097" data-name="Path 3097" d="M-132.174-18.234a3.735,3.735,0,0,1,1.146,1.67l.043.119a3.614,3.614,0,0,1-.329,2.684,3.5,3.5,0,0,1-2.119,1.683,3.659,3.659,0,0,1-2.8-.368,4.007,4.007,0,0,1-.541-.411l-.1-.084a3.367,3.367,0,0,1-1.045-2.258,3.728,3.728,0,0,1,1.042-2.827,3.835,3.835,0,0,1,1.39-.828l.119-.043A3.632,3.632,0,0,1-132.174-18.234Zm-3.144.088-.1.037a2.873,2.873,0,0,0-1.566,1.476,2.947,2.947,0,0,0-.027,2.254,3.015,3.015,0,0,0,1.647,1.564,2.958,2.958,0,0,0,2.207-.125,2.983,2.983,0,0,0,1.475-1.786,2.791,2.791,0,0,0-.059-1.67l-.037-.1a2.872,2.872,0,0,0-1.476-1.566A2.816,2.816,0,0,0-135.317-18.146Z" transform="translate(180.947 145.537)" fill="#fff"/>
    <path id="Path_3098" data-name="Path 3098" d="M-26.018-.007h.114l.236,0c.12,0,.239,0,.359,0h.338a1.058,1.058,0,0,1,.711.261l.055.068.057.067a1.217,1.217,0,0,1,.2.72v.1q0,.1,0,.2c0,.1,0,.2,0,.3a1.353,1.353,0,0,1-.308,1.052,1.05,1.05,0,0,1-.812.27h-.114l-.238,0c-.12,0-.241,0-.361.006-.762.009-.762.009-1.065-.276a1.531,1.531,0,0,1-.3-1.154c0-.09,0-.18,0-.269a1.67,1.67,0,0,1,.228-1A1.151,1.151,0,0,1-26.018-.007Zm-.357.848a1.4,1.4,0,0,0-.069.675l0,.161c0,.051,0,.1,0,.155s0,.093,0,.142a.515.515,0,0,0,.187.336,1.941,1.941,0,0,0,.726.052l.155,0h.286a.649.649,0,0,0,.416-.223c.018-.177.015-.354.015-.531,0-.088,0-.176,0-.264q0-.084,0-.168V1.026a.371.371,0,0,0-.187-.3,2.135,2.135,0,0,0-.682-.049l-.156,0h-.287A.578.578,0,0,0-26.375.841Z" transform="translate(60.519 121.583)" fill="#fff"/>
    <path id="Path_3099" data-name="Path 3099" d="M-32.618-.03h.083a.384.384,0,0,1,.25.189,2.25,2.25,0,0,1,.027.424V.707q0,.132,0,.263c0,.134,0,.267.005.4q0,.128,0,.256l0,.12a.718.718,0,0,1-.251.586l-.077.073-.152.159c-.741.75-.741.75-1.006.768a.457.457,0,0,1-.3-.26.555.555,0,0,1,.159-.445q.086-.091.174-.18l.123-.126c.352-.358.352-.358.487-.441a.4.4,0,0,0,.124-.361l0-.1V1.309c0-.113,0-.226,0-.339s0-.226,0-.339q0-.105,0-.211a.512.512,0,0,1,.1-.367A.346.346,0,0,1-32.618-.03Z" transform="translate(79.164 128.15)" fill="#fff"/>
    <path id="Path_3100" data-name="Path 3100" d="M-14.442-.2h.96l.518,0h1.011a1.112,1.112,0,0,1,.436.14.634.634,0,0,1,.042.416.374.374,0,0,1-.309.188h-1.249c-.194,0-.388,0-.581,0h-.662c-.1,0-.2,0-.3,0h-.089a.382.382,0,0,1-.327-.126.435.435,0,0,1-.065-.36c.119-.191.119-.191.238-.234A2.376,2.376,0,0,1-14.442-.2Z" transform="translate(59.062 123.043)" fill="#fff"/>
    <path id="Path_3101" data-name="Path 3101" d="M-10.347-.037l.16,0h.721c.159,0,.317,0,.476,0h.928a.389.389,0,0,1,.287.188.409.409,0,0,1,.021.167V.4a.432.432,0,0,1-.189.25A1.022,1.022,0,0,1-8.2.673l-.16,0h-.721c-.159,0-.317,0-.476,0h-.927a.389.389,0,0,1-.287-.188A.408.408,0,0,1-10.8.318V.235C-10.735,0-10.565-.036-10.347-.037Z" transform="translate(47.492 126.948)" fill="#fff"/>
    <path id="Path_3102" data-name="Path 3102" d="M-9.643-.037l.14,0h.63c.166,0,.331,0,.5,0h.465l.14,0h.123a.4.4,0,0,1,.274.188.409.409,0,0,1,.021.167V.4a.442.442,0,0,1-.189.25.81.81,0,0,1-.23.022l-.14,0h-.63c-.166,0-.331,0-.5,0H-9.5l-.14,0h-.123A.4.4,0,0,1-10.04.485a.408.408,0,0,1-.021-.167V.235C-10,.018-9.85-.036-9.643-.037Z" transform="translate(43.426 126.948)" fill="#fff"/>
    <path id="Path_3103" data-name="Path 3103" d="M-9.643-.037l.14,0h.63c.166,0,.331,0,.5,0h.465l.14,0h.123a.4.4,0,0,1,.274.188.409.409,0,0,1,.021.167V.4a.442.442,0,0,1-.189.25.81.81,0,0,1-.23.022l-.14,0h-.63c-.166,0-.331,0-.5,0H-9.5l-.14,0h-.123A.4.4,0,0,1-10.04.485a.408.408,0,0,1-.021-.167V.235C-10,.018-9.85-.036-9.643-.037Z" transform="translate(54.088 121.618)" fill="#fff"/>
    <path id="Path_3104" data-name="Path 3104" d="M-9.614-.015h.133l.138,0,.138,0h.254a.407.407,0,0,1,.275.188A.408.408,0,0,1-8.656.34V.424a.442.442,0,0,1-.189.25A.8.8,0,0,1-9.072.7H-9.2l-.138,0-.138,0h-.254a.407.407,0,0,1-.275-.188A.408.408,0,0,1-10.03.34V.257C-9.974.041-9.819-.014-9.614-.015Z" transform="translate(49.392 128.259)" fill="#fff"/>
    <path id="Path_3105" data-name="Path 3105" d="M-9.614-.015h.133l.138,0,.138,0h.254a.407.407,0,0,1,.275.188A.408.408,0,0,1-8.656.34V.424a.442.442,0,0,1-.189.25A.8.8,0,0,1-9.072.7H-9.2l-.138,0-.138,0h-.254a.407.407,0,0,1-.275-.188A.408.408,0,0,1-10.03.34V.257C-9.974.041-9.819-.014-9.614-.015Z" transform="translate(47.393 128.259)" fill="#fff"/>
    <path id="Path_3106" data-name="Path 3106" d="M-9.614-.015h.133l.138,0,.138,0h.254a.407.407,0,0,1,.275.188A.408.408,0,0,1-8.656.34V.424a.442.442,0,0,1-.189.25A.8.8,0,0,1-9.072.7H-9.2l-.138,0-.138,0h-.254a.407.407,0,0,1-.275-.188A.408.408,0,0,1-10.03.34V.257C-9.974.041-9.819-.014-9.614-.015Z" transform="translate(45.394 128.259)" fill="#fff"/>
    <path id="Path_3107" data-name="Path 3107" d="M-9.614-.015h.133l.138,0,.138,0h.254a.407.407,0,0,1,.275.188A.408.408,0,0,1-8.656.34V.424a.442.442,0,0,1-.189.25A.8.8,0,0,1-9.072.7H-9.2l-.138,0-.138,0h-.254a.407.407,0,0,1-.275-.188A.408.408,0,0,1-10.03.34V.257C-9.974.041-9.819-.014-9.614-.015Z" transform="translate(43.395 128.259)" fill="#fff"/>
  </g>
</svg>
