<svg xmlns="http://www.w3.org/2000/svg" width="17.152" height="17.166" viewBox="0 0 17.152 17.166">
  <g id="tax_1_" data-name="tax (1)" transform="translate(-14.589 -14.474)">
    <path id="Path_3283" data-name="Path 3283" d="M-83.607-.249h4.216l1.538,0h4.146a1.286,1.286,0,0,1,.817.237l.064.079.067.079a1.018,1.018,0,0,1,.135.615c0,.047,0,.047,0,.1q0,.157,0,.315,0,.113,0,.226,0,.307,0,.613t0,.641q0,.607,0,1.213,0,.691,0,1.382,0,1.421,0,2.842h.374a2.569,2.569,0,0,1,1.617.713l.076.069a2.784,2.784,0,0,1,.865,1.953,3.018,3.018,0,0,1-.861,2.209,2.364,2.364,0,0,1-.258.213l.1.009a1.318,1.318,0,0,1,.924.377,1.125,1.125,0,0,1,.251.822,1.313,1.313,0,0,1-.284.6q.057.114.116.228l.046.09.047.09a1.053,1.053,0,0,1,.005.784,1.115,1.115,0,0,1-.57.586,1.9,1.9,0,0,1-.555.08H-85.072a1.774,1.774,0,0,1-1.282-.334,1.607,1.607,0,0,1-.334-1.154c0-.042,0-.085,0-.129q0-.173,0-.345c0-.121,0-.242,0-.363q0-.3,0-.608,0-.351,0-.7,0-.3,0-.6,0-.18,0-.361,0-.2,0-.4V11.58a.562.562,0,0,1,.12-.267.431.431,0,0,1,.233-.04h.919l.59,0c0-.023,0-.045,0-.069q0-2.016-.005-4.031,0-.242,0-.484c0-.032,0-.064,0-.1q0-.78,0-1.56,0-.8,0-1.6,0-.494,0-.988,0-.339,0-.678,0-.2,0-.391c0-.141,0-.283,0-.424V.83a1.1,1.1,0,0,1,.3-.856A1.345,1.345,0,0,1-83.607-.249Zm-.614.685a.635.635,0,0,0-.08.4V.914c0,.088,0,.175,0,.263q0,.095,0,.19,0,.262,0,.523,0,.282,0,.564,0,.489,0,.978,0,.707,0,1.415,0,1.148,0,2.3v.139q0,.767,0,1.534,0,.278,0,.556c0,.046,0,.091,0,.139q0,1.144,0,2.287,0,.705,0,1.411,0,.484,0,.967,0,.279,0,.558,0,.256,0,.511,0,.092,0,.185c0,.084,0,.168,0,.252,0,.047,0,.093,0,.141a2.352,2.352,0,0,1-.12.538h8.958l-.107-.355a1.175,1.175,0,0,1,.284-.889q-.057-.114-.116-.228l-.047-.09-.047-.09a1,1,0,0,1-.018-.75.983.983,0,0,1,.544-.584,2.97,2.97,0,0,1,.678-.107c-.12-.121-.12-.121-.245-.239a2.754,2.754,0,0,1-.865-1.745A2.988,2.988,0,0,1-74.694,9l.064-.073a3.287,3.287,0,0,1,1.465-.815q.006-1.483.009-2.966,0-.689,0-1.377,0-.6,0-1.2,0-.318,0-.636,0-.3,0-.6,0-.11,0-.22c0-.1,0-.2,0-.3l0-.088A.421.421,0,0,0-73.249.4a.527.527,0,0,0-.378-.112h-4.425l-1.529,0-1.57,0H-83.7A.642.642,0,0,0-84.221.436Zm9.985,8.816a2.431,2.431,0,0,0-.684,1.787,2.2,2.2,0,0,0,.581,1.448l.069.081a2.228,2.228,0,0,0,1.393.706,2.415,2.415,0,0,0,1.821-.554q.083-.08.164-.162l.067-.064a2.294,2.294,0,0,0,.585-1.651A2.26,2.26,0,0,0-71,9.216l-.071-.073A2.363,2.363,0,0,0-74.236,9.252Zm-11.9,2.559q0,.77-.006,1.541,0,.358,0,.715t0,.691q0,.132,0,.263,0,.185,0,.369V15.5a1.044,1.044,0,0,0,.165.669.712.712,0,0,0,.5.193.723.723,0,0,0,.564-.27.546.546,0,0,0,.1-.361c0-.035,0-.069,0-.1s0-.076,0-.115,0-.08,0-.121q0-.2,0-.4,0-.137,0-.274,0-.325,0-.649,0-.37,0-.739,0-.76,0-1.52ZM-74.974,14a.6.6,0,0,0-.111.4.718.718,0,0,0,.32.391,1.354,1.354,0,0,0,.35.041h1.47l.718,0h1.368a.9.9,0,0,0,.677-.216.615.615,0,0,0,.109-.4.728.728,0,0,0-.32-.391.955.955,0,0,0-.313-.041h-1.5l-.733,0h-1.4A.815.815,0,0,0-74.974,14Zm0,1.529a.632.632,0,0,0-.107.4.738.738,0,0,0,.32.391.764.764,0,0,0,.276.041h1.529l.747,0h1.424a.738.738,0,0,0,.6-.218.54.54,0,0,0,.113-.364.6.6,0,0,0-.284-.391,1.744,1.744,0,0,0-.634-.081h-3.273A.946.946,0,0,0-74.979,15.532Z" transform="translate(101.277 14.733)" fill="#fff"/>
    <path id="Path_3284" data-name="Path 3284" d="M-7.805-.034H1.451a.243.243,0,0,1,.181.12.485.485,0,0,1,.013.293.371.371,0,0,1-.227.133C1.327.519,1.24.521,1.15.521H-.459l-1.033,0-1.4,0-2.2,0V3.96l1.441-.006.9,0,1.433,0,1.043,0,.553,0h.971l.077,0a.331.331,0,0,1,.279.105.3.3,0,0,1,.054.224.293.293,0,0,1-.178.227.646.646,0,0,1-.164.014H-7.627a.652.652,0,0,1-.379-.083.273.273,0,0,1-.087-.2.321.321,0,0,1,.162-.267A.905.905,0,0,1-7.7,3.944h.142l.149,0h.137l.508,0,1.146.009V.512l-1.458.01h-.675A.5.5,0,0,1-8.073.37C-8.09.108-8.09.108-8.029.029A.282.282,0,0,1-7.805-.034Z" transform="translate(25.769 18.531)" fill="#fff"/>
    <path id="Path_3285" data-name="Path 3285" d="M-17.5-.2h.822l.444,0h.866A.587.587,0,0,1-14.958,0a.691.691,0,0,1,.1.453V.546q0,.093,0,.187c0,.095,0,.19,0,.285q0,.091,0,.182l0,.086A.6.6,0,0,1-15,1.726a.632.632,0,0,1-.485.148h-.391l-.43,0-.443,0h-.5c-.528.006-.528.006-.733-.158a.706.706,0,0,1-.151-.539V1.1q0-.091,0-.181c0-.092,0-.184,0-.276q0-.088,0-.176l0-.083a.6.6,0,0,1,.159-.435A.63.63,0,0,1-17.5-.2ZM-17.6.34v1h2.2v-1Z" transform="translate(35.829 15.93)" fill="#fff"/>
    <path id="Path_3286" data-name="Path 3286" d="M-25.814-.1h.239c.534,0,.534,0,.736.176a1.083,1.083,0,0,1,.16.755l0,.136c0,.5,0,.5-.2.7a1.528,1.528,0,0,1-.86.142l-.138,0c-.536,0-.536,0-.719-.171a.908.908,0,0,1-.169-.7c0-.076,0-.153,0-.229-.006-.478-.006-.478.156-.659A1.115,1.115,0,0,1-25.814-.1Zm-.4.55v.818l.478,0h.39c.09.006.09.006.128-.04,0-.058,0-.116,0-.175V.835l0-.389Z" transform="translate(44.446 28.657)" fill="#fff"/>
    <path id="Path_3287" data-name="Path 3287" d="M-18.555-.157h.253l.26,0h.245a.656.656,0,0,1,.483.173,1.062,1.062,0,0,1,.166.753l0,.135c0,.489,0,.489-.156.658a.818.818,0,0,1-.553.161h-.264c-.091,0-.181,0-.272,0h-.256a.586.586,0,0,1-.432-.162.611.611,0,0,1-.16-.468V1.018q0-.075,0-.149c0-.076,0-.151,0-.227,0-.413,0-.413.123-.613A.7.7,0,0,1-18.555-.157Zm-.133.54v.782h1V.384Z" transform="translate(36.917 23.814)" fill="#fff"/>
    <path id="Path_3288" data-name="Path 3288" d="M-9.259-.235h1.547l.757,0h1.641a.362.362,0,0,1,.225.12.524.524,0,0,1,.036.249A.475.475,0,0,1-5.231.3a1.948,1.948,0,0,1-.4.022h-.807l-.587,0h-1.61l-.388,0h-.316A.372.372,0,0,1-9.568.2a.344.344,0,0,1,.011-.313C-9.465-.236-9.4-.235-9.259-.235Z" transform="translate(30.037 30.08)" fill="#fff"/>
    <path id="Path_3289" data-name="Path 3289" d="M-16.162-.06h3.51c.258,0,.258,0,.377.084a.418.418,0,0,1,.047.327.343.343,0,0,1-.225.16h-4.064a.344.344,0,0,1-.225-.16.524.524,0,0,1,0-.249C-16.585-.088-16.389-.062-16.162-.06Z" transform="translate(38.42 17.307)" fill="#fff"/>
    <path id="Path_3290" data-name="Path 3290" d="M-8.726-.349h.763l.625,0,.646,0h1.168c.222,0,.222,0,.336.082a.4.4,0,0,1,.051.327A.358.358,0,0,1-5.28.19a1.764,1.764,0,0,1-.343.018h-3c-.221,0-.221,0-.334-.063A.353.353,0,0,1-9.048-.13C-8.968-.3-8.91-.348-8.726-.349Z" transform="translate(29.481 25.287)" fill="#fff"/>
    <path id="Path_3291" data-name="Path 3291" d="M-69.375-.278a.318.318,0,0,1,.167.24c-.07.333-.493.625-.731.862l-.132.132-.276.276-.354.354-.273.273-.13.131-.182.181-.054.055c-.16.159-.16.159-.306.172a.3.3,0,0,1-.253-.116.325.325,0,0,1,0-.3,2.369,2.369,0,0,1,.273-.315l.063-.064.205-.208.071-.072.373-.376q.193-.194.384-.39l.3-.3.141-.144c.066-.067.132-.134.2-.2l.058-.061A.449.449,0,0,1-69.375-.278Z" transform="translate(95.745 19.712)" fill="#fff"/>
    <path id="Path_3292" data-name="Path 3292" d="M-69.351-.244c.071.036.071.036.107.107a.411.411,0,0,1-.041.346c-.21.229-.428.449-.648.668L-70.061,1l-.265.265-.34.34-.262.262L-71.054,2l-.175.175-.1.1a.474.474,0,0,1-.313.166.279.279,0,0,1-.216-.089A.4.4,0,0,1-71.875,2a1.456,1.456,0,0,1,.205-.234L-71.6,1.7c.071-.072.142-.143.213-.214l.148-.15.312-.312q.2-.2.4-.4.153-.155.307-.308l.147-.148c.068-.069.137-.137.206-.206l.06-.062A.463.463,0,0,1-69.351-.244Z" transform="translate(99.417 24.583)" fill="#fff"/>
    <path id="Path_3293" data-name="Path 3293" d="M-11.431-.32h.481l.526,0,.544,0H-8.9a.424.424,0,0,1,.3.084.328.328,0,0,1,.054.29A.3.3,0,0,1-8.76.22c-.09,0-.18.005-.27.005H-11.4a.714.714,0,0,1-.379-.08A.6.6,0,0,1-11.853-.1C-11.749-.328-11.665-.319-11.431-.32Z" transform="translate(32.286 28.955)" fill="#fff"/>
    <path id="Path_3294" data-name="Path 3294" d="M-11.535-.32h.487l.533,0,.551,0h1c.189,0,.189,0,.278.084a.458.458,0,0,1,.036.29.312.312,0,0,1-.107.142A1.851,1.851,0,0,1-9.052.2h-2.56c-.189,0-.189,0-.276-.064A.413.413,0,0,1-11.96-.1C-11.847-.326-11.775-.319-11.535-.32Z" transform="translate(32.393 26.502)" fill="#fff"/>
    <path id="Path_3295" data-name="Path 3295" d="M-10.718-.4l.141,0h.23l.406,0,.42,0,.323,0,.155,0H-8.7a.417.417,0,0,1,.288.2A.523.523,0,0,1-8.45.033.344.344,0,0,1-8.7.153h-2.136a.348.348,0,0,1-.247-.12A.344.344,0,0,1-11.07-.28C-10.967-.414-10.881-.4-10.718-.4Z" transform="translate(31.55 27.79)" fill="#fff"/>
    <path id="Path_3296" data-name="Path 3296" d="M-40.533,0c.07.009.07.009.177.081a.369.369,0,0,1,0,.334c-.136.241-.279.475-.429.708l-.065.1-.179.278-.044.07c-.09.139-.09.139-.169.179a.573.573,0,0,1-.213,0,1.835,1.835,0,0,1-.364-.462l-.048-.075c-.148-.238-.148-.238-.156-.387.078-.163.078-.163.178-.213a.573.573,0,0,1,.213,0,1.767,1.767,0,0,1,.284.32L-41.3.856l.176-.283.076-.123.11-.176.067-.107C-40.773.011-40.719,0-40.533,0Z" transform="translate(60.079 26.179)" fill="#fff"/>
    <path id="Path_3297" data-name="Path 3297" d="M-16.4-.1h.979c.308,0,.308,0,.437.081a.6.6,0,0,1,.071.249.655.655,0,0,1-.142.213c-.056,0-.112.005-.169.006h-.6l-.389,0h-.571a.239.239,0,0,1-.188-.12.419.419,0,0,1-.013-.273C-16.862-.143-16.6-.1-16.4-.1Z" transform="translate(37.438 23.792)" fill="#fff"/>
    <path id="Path_3298" data-name="Path 3298" d="M-5.388-.046h.71c.132,0,.264,0,.4,0H-3.7a.2.2,0,0,1,.146.084.4.4,0,0,1,.043.29A.464.464,0,0,1-3.622.47.548.548,0,0,1-3.8.488h-.6c-.129,0-.258,0-.386,0h-.567a.346.346,0,0,1-.227-.16.384.384,0,0,1,.043-.29A.2.2,0,0,1-5.388-.046Z" transform="translate(27.254 16.085)" fill="#fff"/>
    <path id="Path_3299" data-name="Path 3299" d="M-7.733-.216l.089,0h.4c.106,0,.211,0,.317,0h.2l.1,0c.218,0,.218,0,.333.105a.335.335,0,0,1,.052.224c-.038.12-.038.12-.11.18a.906.906,0,0,1-.414.06h-.825c-.248,0-.248,0-.36-.082A.3.3,0,0,1-8.015.01C-7.97-.154-7.9-.214-7.733-.216Z" transform="translate(29.379 21.163)" fill="#fff"/>
    <path id="Path_3300" data-name="Path 3300" d="M-12.071-.015h.223c.077,0,.153,0,.23,0h.281a.324.324,0,0,1,.257.161.355.355,0,0,1,.036.178c-.078.163-.078.163-.178.213-.161.009-.322.01-.484.01l-.241,0H-12.1l-.141,0a.3.3,0,0,1-.206-.081A.362.362,0,0,1-12.5.146.49.49,0,0,1-12.071-.015Z" transform="translate(30.198 19.715)" fill="#fff"/>
    <path id="Path_3301" data-name="Path 3301" d="M-27-.234a.315.315,0,0,1,.142.142.431.431,0,0,1-.061.342l-.085.086L-27.1.43l-.1.1-.1.1C-27.574.9-27.574.9-27.822.9A.428.428,0,0,1-28,.726c.01-.3.177-.424.378-.62l.1-.1.094-.094.086-.085A.431.431,0,0,1-27-.234Z" transform="translate(55.507 24.573)" fill="#fff"/>
    <path id="Path_3302" data-name="Path 3302" d="M-15.708-.276a.59.59,0,0,1,.32.32.552.552,0,0,1-.064.4.388.388,0,0,1-.265.176.6.6,0,0,1-.488-.154.5.5,0,0,1-.08-.357.474.474,0,0,1,.213-.33A.5.5,0,0,1-15.708-.276Z" transform="translate(41.971 21.274)" fill="#fff"/>
    <path id="Path_3303" data-name="Path 3303" d="M-17.445-1.08a.441.441,0,0,1,.251.257.659.659,0,0,1-.062.462.587.587,0,0,1-.459.158.569.569,0,0,1-.331-.23.787.787,0,0,1-.036-.355A.479.479,0,0,1-17.445-1.08Z" transform="translate(41.821 20.719)" fill="#fff"/>
    <path id="Path_3304" data-name="Path 3304" d="M-9.976-.011h.541A.365.365,0,0,1-9.2.11a.344.344,0,0,1-.011.313.261.261,0,0,1-.131.113c-.134.011-.268.012-.4.013l-.113,0c-.274,0-.274,0-.417-.1a.283.283,0,0,1-.065-.225C-10.281.031-10.176-.011-9.976-.011Z" transform="translate(31.699 19.716)" fill="#fff"/>
    <path id="Path_3305" data-name="Path 3305" d="M-15.7-.157l.114,0h.21a.354.354,0,0,1,.232.119.344.344,0,0,1-.011.313.261.261,0,0,1-.131.113c-.135.01-.269.008-.4.009l-.114,0h-.21A.354.354,0,0,1-16.25.279a.344.344,0,0,1,.011-.313C-16.107-.2-15.9-.156-15.7-.157Z" transform="translate(40.095 27.544)" fill="#fff"/>
  </g>
</svg>
