<svg xmlns="http://www.w3.org/2000/svg" width="17.854" height="17.848" viewBox="0 0 17.854 17.848">
  <g id="payment-check" transform="translate(-38.965 -39.06)">
    <path id="Path_2701" data-name="Path 2701" d="M-138.1-11.448l.014-.078.02-.1.019-.1c.03-.089.03-.089.154-.171a1.138,1.138,0,0,1,.195-.011h4.836l1.672,0,1.715,0h3.018a.371.371,0,0,1,.259.185,1.039,1.039,0,0,1,.021.262c0,.026,0,.053,0,.08,0,.089,0,.177,0,.266q0,.1,0,.192c0,.177,0,.353,0,.53s0,.381,0,.571q0,.559,0,1.119,0,.455,0,.91c0,.043,0,.086,0,.131q0,.131,0,.263,0,1.234,0,2.467,0,1.058,0,2.116,0,1.228,0,2.457,0,.131,0,.262V.02q0,.454,0,.908,0,.554,0,1.108,0,.282,0,.565,0,.259,0,.518,0,.093,0,.187a2.545,2.545,0,0,1-.708,1.871,2.424,2.424,0,0,1-1.777.723h-4.256l-1.552,0-1.6,0h-2.045a2.831,2.831,0,0,1-2.2-.707,2.389,2.389,0,0,1-.724-1.71v-.11q0-.179,0-.357,0-.125,0-.249,0-.261,0-.521,0-.334,0-.668,0-.257,0-.514,0-.123,0-.246c0-.115,0-.229,0-.344v-.1a.589.589,0,0,1,.088-.358.584.584,0,0,1,.374-.08h.084l.269,0h.166l.615.005,1.39.01c-.014-1.454-.027-2.908-.041-4.406l-.659.288a4.176,4.176,0,0,1-3.137-.249,4.17,4.17,0,0,1-1.979-2.414,4.115,4.115,0,0,1,.34-3.06,4.172,4.172,0,0,1,2.455-1.929A4.259,4.259,0,0,1-138.1-11.448Zm.7.206c-.032.3-.032.3.067.422l.093.077A3.593,3.593,0,0,1-136.12-8.4a4.161,4.161,0,0,1-1.079,3.21,1.189,1.189,0,0,1-.147.139.334.334,0,0,0-.072.272c0,.042,0,.084,0,.127s0,.091,0,.139,0,.1,0,.146q0,.2,0,.4c0,.138,0,.276,0,.414q0,.392,0,.785,0,.447,0,.894,0,.919.006,1.838h.105l2.53.009,1.223,0,1.066,0,.565,0,.531,0h.612a.3.3,0,0,1,.2.07.63.63,0,0,1,.062.377V.525c0,.1,0,.207,0,.311q0,.109,0,.217,0,.287,0,.573,0,.457.005.913,0,.158,0,.317a2.485,2.485,0,0,0,.546,1.844,1.913,1.913,0,0,0,1.463.5,1.745,1.745,0,0,0,1.133-.552,2.528,2.528,0,0,0,.5-1.836q0-.091,0-.182,0-.249,0-.5,0-.269,0-.539,0-.466,0-.933,0-.674,0-1.349,0-1.094,0-2.188,0-1.063,0-2.125c0-.044,0-.088,0-.134q0-.518,0-1.036,0-2.537,0-5.073Zm-5.024,1.029a3.4,3.4,0,0,0-.876,2.508,3.076,3.076,0,0,0,.752,1.857l.062.08A3.144,3.144,0,0,0-140.533-4.7a3.434,3.434,0,0,0,2.385-.58c.094-.073.094-.073.12-.184l.049-.1.144-.041c.346-.113.563-.536.72-.845a3.391,3.391,0,0,0,.223-2.469,3.909,3.909,0,0,0-.634-1.133l-.062-.08a3.161,3.161,0,0,0-1.956-1.073l-.118-.019A3.4,3.4,0,0,0-142.427-10.213Zm2.059,10.83a6.015,6.015,0,0,0,.534,4.084,2.239,2.239,0,0,0,1.632.533h4.775l3.024,0-.117-.157-.066-.088c-.055-.073-.112-.145-.17-.216-.764-1.071-.38-3.47-.389-4.151Z" transform="translate(183 51)" fill="#fff"/>
    <path id="Path_2702" data-name="Path 2702" d="M-9.731-.041h5.262A.4.4,0,0,1-4.2.145.4.4,0,0,1-4.176.31V.392a.435.435,0,0,1-.187.247A.821.821,0,0,1-4.593.66H-9.855a.4.4,0,0,1-.272-.185A.4.4,0,0,1-10.147.31V.227C-10.091.01-9.936-.04-9.731-.041Z" transform="translate(58.029 48.672)" fill="#fff"/>
    <path id="Path_2703" data-name="Path 2703" d="M-9.731-.041h5.262A.4.4,0,0,1-4.2.145.4.4,0,0,1-4.176.31V.392a.435.435,0,0,1-.187.247A.821.821,0,0,1-4.593.66H-9.855a.4.4,0,0,1-.272-.185A.4.4,0,0,1-10.147.31V.227C-10.091.01-9.936-.04-9.731-.041Z" transform="translate(58.029 46.366)" fill="#fff"/>
    <path id="Path_2704" data-name="Path 2704" d="M-9.731-.041h5.262A.4.4,0,0,1-4.2.145.4.4,0,0,1-4.176.31V.392a.435.435,0,0,1-.187.247A.821.821,0,0,1-4.593.66H-9.855a.4.4,0,0,1-.272-.185A.4.4,0,0,1-10.147.31V.227C-10.091.01-9.936-.04-9.731-.041Z" transform="translate(58.029 44.06)" fill="#fff"/>
    <path id="Path_2705" data-name="Path 2705" d="M-9.731-.041h5.262A.4.4,0,0,1-4.2.145.4.4,0,0,1-4.176.31V.392a.435.435,0,0,1-.187.247A.821.821,0,0,1-4.593.66H-9.855a.4.4,0,0,1-.272-.185A.4.4,0,0,1-10.147.31V.227C-10.091.01-9.936-.04-9.731-.041Z" transform="translate(58.029 41.754)" fill="#fff"/>
    <path id="Path_2706" data-name="Path 2706" d="M-84.709-.011a.475.475,0,0,1,.265.085.533.533,0,0,1,.09.337,1.515,1.515,0,0,1-.4.549l-.112.123-.172.187c-.122.132-.238.268-.351.408-.139.172-.284.335-.435.5-.186.2-.361.4-.531.614-.412.506-.412.506-.648.539a.419.419,0,0,1-.331-.141l-.086-.079q-.254-.243-.5-.493l-.108-.107-.1-.1-.092-.092a.483.483,0,0,1-.124-.407.335.335,0,0,1,.073-.184.539.539,0,0,1,.345-.085.944.944,0,0,1,.417.311l.121.12q.167.165.332.333a2.778,2.778,0,0,0,.512-.531c.111-.137.231-.266.352-.4.15-.16.295-.323.432-.494.2-.244.407-.475.623-.7.055-.058.11-.118.164-.177A.3.3,0,0,1-84.709-.011Z" transform="translate(129.649 41.393)" fill="#fff"/>
  </g>
</svg>
