<svg id="Group_1781" data-name="Group 1781" xmlns="http://www.w3.org/2000/svg" width="25.131" height="25.125" viewBox="0 0 25.131 25.125">
  <path id="Path_1075" data-name="Path 1075" d="M5.174-511.784c-.353.157-.466.417-.466,1.07v.432H3.594a4,4,0,0,0-2.106.3A2.9,2.9,0,0,0,.3-508.8c-.329.667-.309,0-.309,10.308,0,9.174,0,9.361.1,9.734A2.521,2.521,0,0,0,.8-487.526a2.521,2.521,0,0,0,1.237.707c.373.1.564.1,10.524.1s10.151,0,10.524-.1a2.359,2.359,0,0,0,1.212-.687,2.5,2.5,0,0,0,.731-1.257c.1-.373.1-.56.1-9.734,0-10.313.02-9.64-.309-10.308a2.915,2.915,0,0,0-1.178-1.173,4.03,4.03,0,0,0-2.1-.3H20.425l-.02-.535c-.015-.447-.034-.564-.118-.672a.728.728,0,0,0-1.232-.025c-.1.147-.113.226-.113.7v.535H15.654v-.491c0-.574-.064-.766-.3-.938a.776.776,0,0,0-.81-.015c-.295.216-.339.329-.353.908l-.02.535h-3.22l-.02-.535c-.015-.579-.059-.692-.353-.908a.776.776,0,0,0-.81.015c-.236.172-.3.363-.3.938v.491H6.18v-.535c0-.471-.015-.55-.113-.7A.719.719,0,0,0,5.174-511.784Zm-.456,3.5c.02.609.088.776.383.942a.721.721,0,0,0,.982-.25c.083-.137.1-.25.1-.692v-.525H9.469v.525c0,.442.015.555.1.692a.724.724,0,0,0,1.266-.039,1.329,1.329,0,0,0,.108-.7v-.481h3.24v.481a1.27,1.27,0,0,0,.113.7.719.719,0,0,0,1.261.039c.083-.137.1-.25.1-.692v-.525h3.289v.525c0,.6.064.766.353.952a.826.826,0,0,0,.785-.034c.245-.182.3-.349.324-.918l.02-.53,1.163.015,1.158.015.26.147a1.254,1.254,0,0,1,.589.707,7.224,7.224,0,0,1,.059,1.286v1.124H1.468v-1.124a7.143,7.143,0,0,1,.059-1.286,1.311,1.311,0,0,1,.456-.628c.334-.226.476-.245,1.625-.25H4.7Zm18.937,11.638c0,8.32.029,7.677-.373,8.079s.555.373-10.72.373-10.318.034-10.72-.373-.373.241-.373-8.079v-7.4H23.655Z" transform="translate(0.005 511.845)" fill="#fff"/>
  <path id="Path_1076" data-name="Path 1076" d="M72.868-302.892a1.446,1.446,0,0,0-.265.25c-.1.137-.1.191-.1,1.949s0,1.811.1,1.949a1.277,1.277,0,0,0,.265.245c.162.113.177.113,1.939.113s1.777,0,1.939-.113a1.277,1.277,0,0,0,.265-.245c.1-.137.1-.191.1-1.949s0-1.811-.1-1.949a1.446,1.446,0,0,0-.265-.25c-.162-.108-.177-.108-1.939-.108S73.03-303,72.868-302.892Zm2.8,2.2v.834H73.948v-1.669h1.718Z" transform="translate(-68.942 313.251)" fill="#fff"/>
  <path id="Path_1078" data-name="Path 1078" d="M210.937-293.63a7.839,7.839,0,0,0-1.065.967l-.923.923-.329-.329a3.222,3.222,0,0,0-.491-.4.737.737,0,0,0-.992.937,5.485,5.485,0,0,0,.7.785c.741.751.923.859,1.276.756.172-.054.412-.265,1.428-1.271a16.931,16.931,0,0,0,1.286-1.369A.742.742,0,0,0,210.937-293.63Z" transform="translate(-196.92 307.512)" fill="#fff"/>
  <path id="Path_1081" data-name="Path 1081" d="M345.648-174.705a.716.716,0,0,0-.466.52,15.111,15.111,0,0,0-.039,1.851c.015,1.89.02,1.9.432,2.106.211.113.25.113,1.89.113s1.679,0,1.89-.113a.661.661,0,0,0,.334-.329c.108-.211.108-.255.108-1.89,0-2.469.162-2.3-2.258-2.317A8.612,8.612,0,0,0,345.648-174.705Zm2.651,2.258v.834h-1.669l-.015-.785a7.884,7.884,0,0,1,.015-.844c.015-.054.2-.064.844-.054l.825.015Z" transform="translate(-328.198 191.313)" fill="#fff"/>
</svg>
