<svg xmlns="http://www.w3.org/2000/svg" width="7.715" height="9.807" viewBox="0 0 7.715 9.807">
  <g id="Group_14875" data-name="Group 14875" transform="translate(0 0)">
    <path id="Path_2459" data-name="Path 2459" d="M370.723,218.063h1.806v.758h1.884l.214.8v7.012l-.544.544H368l-.454-.454v-7.374l.626-.626h1.517v-.442l.214-.214Z" transform="translate(-367.244 -217.743)" fill="#0c2696" opacity="0.12"/>
    <g id="Group_14874" data-name="Group 14874" transform="translate(0 0)">
      <path id="Path_872" data-name="Path 872" d="M82.419-479.706a.712.712,0,0,0-.526.578l-.015.1h-.585a3.48,3.48,0,0,0-.714.033,1.072,1.072,0,0,0-.767.771c-.05.188-.05,7.316,0,7.5a1.072,1.072,0,0,0,.767.771c.114.028.5.033,3.036.033,1.884,0,2.946-.009,3.023-.022a1.082,1.082,0,0,0,.83-.83c.013-.075.022-1.417.022-3.724,0-3.971.009-3.724-.134-3.991a1.191,1.191,0,0,0-.431-.423c-.217-.109-.315-.123-.948-.123h-.585l-.015-.1a.851.851,0,0,0-.173-.372.86.86,0,0,0-.193-.14l-.138-.074-1.194,0C83.022-479.721,82.457-479.715,82.419-479.706Zm2.267,2.144v1.461l-.473-.234a1.739,1.739,0,0,0-.569-.237,1.757,1.757,0,0,0-.578.241l-.482.241v-2.935h2.1Zm-2.8.436.007,1.2.053.114a.849.849,0,0,0,.37.364.615.615,0,0,0,.269.046l.169,0,.44-.219.44-.217.44.217.44.219.169,0a.614.614,0,0,0,.278-.05.822.822,0,0,0,.364-.364c.05-.11.05-.11.057-1.31l.007-1.2.589.007c.554.007.591.009.648.053a.6.6,0,0,1,.105.105l.046.059v7.268l-.046.059a.6.6,0,0,1-.105.105,16.094,16.094,0,0,1-2.992.046,16.094,16.094,0,0,1-2.992-.046.6.6,0,0,1-.105-.105,23.25,23.25,0,0,1-.053-3.634c0-1.967,0-3.605.007-3.645a.379.379,0,0,1,.2-.239,2.835,2.835,0,0,1,.629-.031h.563Z" transform="translate(-79.775 479.719)" fill="#0c2696"/>
      <g id="Group_14872" data-name="Group 14872" transform="translate(2.109 5.956)">
        <path id="Path_873" data-name="Path 873" d="M176.317-207.743a.36.36,0,0,0-.2.4.375.375,0,0,0,.228.252c.055.018.563.022,1.564.018,1.457-.007,1.483-.007,1.542-.053a.309.309,0,0,0,.151-.294.309.309,0,0,0-.151-.294c-.059-.046-.083-.046-1.564-.05A12.272,12.272,0,0,0,176.317-207.743Z" transform="translate(-176.111 207.769)" fill="#0c2696"/>
        <path id="Path_874" data-name="Path 874" d="M176.317-143.743a.36.36,0,0,0-.2.4.375.375,0,0,0,.228.252c.055.018.458.022,1.213.018,1.1-.007,1.132-.009,1.192-.053a.309.309,0,0,0,.151-.294.309.309,0,0,0-.151-.294c-.059-.046-.088-.046-1.213-.05A7.745,7.745,0,0,0,176.317-143.743Z" transform="translate(-176.111 145.171)" fill="#0c2696"/>
      </g>
    </g>
  </g>
</svg>
