<svg xmlns="http://www.w3.org/2000/svg" width="20.439" height="22.317" viewBox="0 0 20.439 22.317">
  <g id="data-transfer" transform="translate(-40 491.726)">
    <path id="Path_3514" data-name="Path 3514" d="M44.638-491.706c-.038.014-1.1,1.051-2.352,2.3L40-487.125v2.2l.123.095c.156.123.213.123.369,0l.123-.095v-1.742l1.529-.014,1.524-.014.317-.151a1.853,1.853,0,0,0,.875-.857l.133-.27.014-1.552.014-1.547h3.6c2.688,0,3.649.014,3.8.057a1.406,1.406,0,0,1,.729.729,3.4,3.4,0,0,1,.057.7c0,.582.062.715.331.705s.308-.081.3-.781a2.124,2.124,0,0,0-.1-.875,1.942,1.942,0,0,0-1.065-1.065c-.251-.1-.265-.1-4.108-.114C46.445-491.73,44.676-491.72,44.638-491.706Zm-.284,3.5a1.118,1.118,0,0,1-.577.757l-.251.137-1.193.014a10.223,10.223,0,0,1-1.2-.019c0-.024.729-.771,1.623-1.666l1.618-1.618.014,1.074A9.249,9.249,0,0,1,44.354-488.209Z" transform="translate(0 0)" fill="#fff"/>
    <path id="Path_3515" data-name="Path 3515" d="M181.8-419.8l-2.3,2.3v12.99l.114.284a2.144,2.144,0,0,0,1.022,1.022l.284.114,5.229.014c3.431.009,5.357,0,5.6-.033a1.8,1.8,0,0,0,1.443-1.036l.128-.27.014-1.533c.014-1.7.014-1.708-.3-1.708s-.3.014-.317,1.609c-.014,1.443-.014,1.448-.137,1.68a1.251,1.251,0,0,1-.7.591c-.27.071-10.7.066-10.96-.009a1.405,1.405,0,0,1-.729-.729c-.043-.147-.057-1.145-.057-3.966v-3.767h2.413v.26c0,.2.024.284.095.355.2.2.3.147,1.254-.691,1.268-1.112,1.349-1.193,1.349-1.372,0-.132-.1-.241-.98-1.041-.539-.492-1.055-.951-1.14-1.027-.336-.265-.577-.109-.577.379v.3h-2.413v-1.935l1.5-.014c1.443-.014,1.51-.019,1.77-.123a1.939,1.939,0,0,0,.946-.9l.156-.317.014-1.524.014-1.529h3.6c2.593,0,3.649.014,3.781.057a1.3,1.3,0,0,1,.672.577l.1.194.024,6.161c.014,3.388.033,6.166.047,6.18s.076.047.133.076a.307.307,0,0,0,.412-.156c.014-.052.019-2.868.014-6.251l-.014-6.152-.156-.317a1.939,1.939,0,0,0-.946-.9l-.27-.109-3.928-.014L184.1-422.1Zm1.983,1.472a1.177,1.177,0,0,1-.653.577,8.342,8.342,0,0,1-1.358.057h-1.178l1.633-1.633,1.633-1.633.014,1.211C183.877-418.593,183.873-418.522,183.778-418.328Zm.194,4.174.5.468-.237.213c-1.027.918-1.013.909-1.06.776a.38.38,0,0,0-.142-.166,9.857,9.857,0,0,0-1.491-.052h-1.4v-1.562h1.434c1.552,0,1.519,0,1.609-.251.033-.085.038-.08.161.009C183.418-414.666,183.7-414.41,183.972-414.154Z" transform="translate(-132.898 -66.331)" fill="#fff"/>
    <path id="Path_3516" data-name="Path 3516" d="M321.725-389.822a2.988,2.988,0,0,0-2.04,2.035,3.407,3.407,0,0,0,0,1.514,2.887,2.887,0,0,0,1.193,1.628,2.583,2.583,0,0,0,1.462.464,2.544,2.544,0,0,0,1.424-.293c.4-.194.511-.364.379-.563s-.237-.194-.61-.009a2.257,2.257,0,0,1-1.557.213,2.373,2.373,0,0,1-.819-.374,4.841,4.841,0,0,1,.7-.781l.734-.734h1.046c.989,0,1.046,0,1.046.09a2.271,2.271,0,0,1-.251.705c-.095.185-.1.208-.033.327.1.18.208.232.364.18.265-.095.582-.965.582-1.609a2.939,2.939,0,0,0-2.163-2.792A4.078,4.078,0,0,0,321.725-389.822Zm.45,1.6v1.051l-.752.753-.752.752-.123-.185a2.3,2.3,0,0,1-.123-2.139,2.759,2.759,0,0,1,.89-.989,2.95,2.95,0,0,1,.8-.293C322.16-389.278,322.174-389.036,322.174-388.223Zm1.273-.833a2.288,2.288,0,0,1,1.216,1.519l.033.2H322.79v-1.94l.156.028A3.137,3.137,0,0,1,323.447-389.055Z" transform="translate(-266.368 -97.019)" fill="#fff"/>
    <path id="Path_3517" data-name="Path 3517" d="M40.193-335.879c-.071.085-.076.478-.066,5.172l.014,5.083.151.289a2.084,2.084,0,0,0,.951.88c.265.109.293.109,2.522.123,2.148.014,2.257.009,2.361-.076a.346.346,0,0,0,.028-.473c-.071-.071-.293-.08-2.361-.1-2.134-.024-2.3-.028-2.423-.114a1.388,1.388,0,0,1-.511-.525l-.1-.189-.014-4.988c-.009-4.538-.019-5-.09-5.078A.357.357,0,0,0,40.193-335.879Z" transform="translate(-0.117 -148.392)" fill="#fff"/>
    <path id="Path_3518" data-name="Path 3518" d="M72.218-212.044c-.6.53-1.1,1-1.131,1.041a.232.232,0,0,0,0,.2,12.265,12.265,0,0,0,1.136,1.117c.937.852,1.107.989,1.24.989.213,0,.3-.142.3-.483v-.274h.918a6.883,6.883,0,0,0,1.046-.047.3.3,0,0,0,.151-.416l-.057-.128H73.264l-.076.142-.08.161a14.317,14.317,0,0,1-1.221-1.14,5.622,5.622,0,0,1,.615-.587l.61-.535.057.133a.329.329,0,0,0,.137.166c.043.014.606.028,1.254.028h1.178l.095-.128a.265.265,0,0,0-.052-.407c-.085-.071-.208-.08-1.06-.08h-.965v-.274c0-.322-.085-.435-.317-.435C73.326-213,73.113-212.834,72.218-212.044Z" transform="translate(-29.592 -265.536)" fill="#fff"/>
    <path id="Path_3519" data-name="Path 3519" d="M218.2-157.886a.259.259,0,0,0-.028.407l.09.114,4.822.014c2.65,0,4.865,0,4.922-.014a.312.312,0,0,0,.251-.331c0-.327.331-.308-5.078-.308h-4.865Z" transform="translate(-169.662 -317.929)" fill="#fff"/>
    <path id="Path_3520" data-name="Path 3520" d="M218.2-126.886a.259.259,0,0,0-.028.407l.09.114,4.822.014c2.65,0,4.865,0,4.922-.014a.312.312,0,0,0,.251-.331c0-.327.331-.308-5.078-.308h-4.865Z" transform="translate(-169.662 -347.462)" fill="#fff"/>
    <path id="Path_3521" data-name="Path 3521" d="M218.737-95.915a.325.325,0,0,0-.019.464,19.914,19.914,0,0,0,3.36,0,.325.325,0,0,0-.019-.464c-.1-.08-.222-.085-1.661-.085S218.841-96,218.737-95.915Z" transform="translate(-170.176 -376.999)" fill="#fff"/>
    <path id="Path_3522" data-name="Path 3522" d="M358.232-95.9a.276.276,0,0,0-.047.412l.071.1h1.623c1.51,0,1.628,0,1.7-.085a.343.343,0,0,0,.043-.369c-.095-.147-.256-.161-1.751-.161C358.412-96,358.355-96,358.232-95.9Z" transform="translate(-303.061 -376.999)" fill="#fff"/>
    <path id="Path_3523" data-name="Path 3523" d="M218.743-64.685a.3.3,0,0,0-.137.416l.057.128,1.637.014c1.8.014,1.808.009,1.808-.27,0-.312.009-.312-1.708-.322C219.529-64.723,218.8-64.709,218.743-64.685Z" transform="translate(-170.121 -406.8)" fill="#fff"/>
    <path id="Path_3524" data-name="Path 3524" d="M358.232-64.9a.276.276,0,0,0-.047.412l.071.1h1.623c1.51,0,1.628,0,1.7-.085a.343.343,0,0,0,.043-.369c-.095-.147-.256-.161-1.751-.161C358.412-65,358.355-65,358.232-64.9Z" transform="translate(-303.061 -406.532)" fill="#fff"/>
  </g>
</svg>
