<svg xmlns="http://www.w3.org/2000/svg" width="14.932" height="16.56" viewBox="0 0 14.932 16.56">
  <g id="employee-engagement" transform="translate(-28.099 -3.498)">
    <path id="Path_3653" data-name="Path 3653" d="M-104-13.4a2.238,2.238,0,0,1,.815,1.494,2.237,2.237,0,0,1-.433,1.54c-.071.081-.145.157-.223.231l-.068.07a2,2,0,0,1-1.43.537h-.1a2.081,2.081,0,0,1-1.481-.672l-.062-.059a2.135,2.135,0,0,1-.54-1.435,2.286,2.286,0,0,1,.728-1.626A2.235,2.235,0,0,1-104-13.4Zm-2.661.677a1.671,1.671,0,0,0-.36,1.21,2.733,2.733,0,0,0,.164.557,1.1,1.1,0,0,0,.279-.189,1.947,1.947,0,0,1,1.426-.434,1.965,1.965,0,0,1,1.184.567c.056.064.056.064.128.056a1.806,1.806,0,0,0,.033-1.4,1.748,1.748,0,0,0-.943-.893A1.715,1.715,0,0,0-106.666-12.725Zm.2,2.128a.331.331,0,0,0-.033.131,1.876,1.876,0,0,0,1.476.426,1.771,1.771,0,0,0,.82-.426.685.685,0,0,0-.325-.408,1.665,1.665,0,0,0-.494-.215l-.08-.023A1.52,1.52,0,0,0-106.469-10.6Z" transform="translate(140.926 29.589)" fill="#fff"/>
    <path id="Path_3654" data-name="Path 3654" d="M-63.783,0h.1A2.081,2.081,0,0,1-62.2.671l.062.059a2.135,2.135,0,0,1,.54,1.435,2.341,2.341,0,0,1-.68,1.582,2.225,2.225,0,0,1-1.638.574,2.125,2.125,0,0,1-1.452-.682,2.227,2.227,0,0,1-.577-1.577A2.136,2.136,0,0,1-65.281.605l.068-.07A2,2,0,0,1-63.783,0ZM-65.1,1.117a1.817,1.817,0,0,0-.349,1.226,2.76,2.76,0,0,0,.164.557.832.832,0,0,0,.262-.189,1.9,1.9,0,0,1,1.4-.444,1.819,1.819,0,0,1,1.218.567c.063.072.063.072.137.065l.064-.186.036-.1a1.647,1.647,0,0,0-.122-1.223,1.729,1.729,0,0,0-1.025-.85A1.735,1.735,0,0,0-65.1,1.117Zm.242,2.111c-.023.043-.045.087-.066.131a1.667,1.667,0,0,0,1.263.467,1.661,1.661,0,0,0,1.033-.467,1.267,1.267,0,0,0-.691-.57A1.435,1.435,0,0,0-64.855,3.228Z" transform="translate(99.344 3.5)" fill="#fff"/>
    <path id="Path_3655" data-name="Path 3655" d="M-63.8-.03h.094a2.127,2.127,0,0,1,1.472.646,2.315,2.315,0,0,1,.582,1.805,2.115,2.115,0,0,1-.724,1.36,2.368,2.368,0,0,1-1.742.5,2.151,2.151,0,0,1-1.383-.791A2.36,2.36,0,0,1-65.944,1.7,2.18,2.18,0,0,1-65.106.378,2.242,2.242,0,0,1-63.8-.03ZM-65.08,1.028a1.785,1.785,0,0,0-.393,1.284,1.644,1.644,0,0,0,.171.557l.131-.066V2.739l.056-.026a1.588,1.588,0,0,0,.22-.148,2.03,2.03,0,0,1,1.4-.318,2.1,2.1,0,0,1,1.148.623.762.762,0,0,0,.208-.573A1.789,1.789,0,0,0-62.63.929,1.728,1.728,0,0,0-63.884.464,1.671,1.671,0,0,0-65.08,1.028Zm.211,2.132c-.037.044-.071.09-.105.136a1.582,1.582,0,0,0,1.04.5,1.784,1.784,0,0,0,1.288-.472,1.077,1.077,0,0,0-.6-.525A1.459,1.459,0,0,0-64.87,3.16Z" transform="translate(104.678 12.712)" fill="#fff"/>
    <path id="Path_3656" data-name="Path 3656" d="M-101.563-11.822a2.2,2.2,0,0,1,.853,1.309,3.893,3.893,0,0,1,.023.455v.094a2,2,0,0,1-.233.9l-.034.068a2.121,2.121,0,0,1-1.239,1.006,2.1,2.1,0,0,1-.651.086h-.1a2.159,2.159,0,0,1-1.495-.665,2.242,2.242,0,0,1-.569-1.645,2.177,2.177,0,0,1,.632-1.409A2.251,2.251,0,0,1-101.563-11.822Zm-2.548.66a1.825,1.825,0,0,0-.393,1.344,1.478,1.478,0,0,0,.2.525l.041-.048a2.006,2.006,0,0,1,1.314-.62,2.1,2.1,0,0,1,1.385.461c.072.068.143.136.211.207l.064-.156.036-.088a1.691,1.691,0,0,0-.023-1.144,1.772,1.772,0,0,0-1.021-.968A1.741,1.741,0,0,0-104.112-11.163Zm.1,2.263a1.352,1.352,0,0,0,.754.478,1.859,1.859,0,0,0,1.443-.314.644.644,0,0,0,.131-.164,1.549,1.549,0,0,0-1.076-.6A1.584,1.584,0,0,0-104.013-8.9Z" transform="translate(143.717 18.776)" fill="#fff"/>
    <path id="Path_3657" data-name="Path 3657" d="M-101.63-12.117a2.168,2.168,0,0,1,.864,1.447,2.249,2.249,0,0,1-.506,1.717q-.074.077-.15.152l-.059.062a2.126,2.126,0,0,1-1.508.542,2.233,2.233,0,0,1-1.569-.723,2.358,2.358,0,0,1-.5-1.816,2.182,2.182,0,0,1,.8-1.348A2.236,2.236,0,0,1-101.63-12.117Zm-2.568.662a1.712,1.712,0,0,0-.384,1.086c0,.027,0,.054,0,.082a1.531,1.531,0,0,0,.144.633c.1.011.1.011.156-.049l.067-.068a1.961,1.961,0,0,1,1.43-.485,1.7,1.7,0,0,1,1.108.445c.053.066.053.066.124.058l.066.131h.066l.064-.154.036-.086a1.636,1.636,0,0,0-.034-1.1l-.03-.081a1.74,1.74,0,0,0-.888-.87l-.076-.036A1.756,1.756,0,0,0-104.2-11.455Zm.217,2.141c-.032.039-.065.079-.1.119a1.507,1.507,0,0,0,1.027.5,1.691,1.691,0,0,0,1.194-.385c.037-.037.073-.076.107-.115a1.447,1.447,0,0,0-.918-.59A1.467,1.467,0,0,0-103.982-9.314Z" transform="translate(133.19 25.203)" fill="#fff"/>
    <path id="Path_3658" data-name="Path 3658" d="M-100.494-10.939a3.407,3.407,0,0,1,.328.3l.062.059a2.133,2.133,0,0,1,.54,1.526,2.2,2.2,0,0,1-.721,1.551A2.358,2.358,0,0,1-102.1-7a2.182,2.182,0,0,1-1.348-.8,2.148,2.148,0,0,1-.423-.968l-.013-.087a2.284,2.284,0,0,1,.5-1.7A2.21,2.21,0,0,1-100.494-10.939Zm-2.5.679a1.81,1.81,0,0,0-.389,1.42.867.867,0,0,0,.2.459l.068-.07.1-.094.048-.048a1.88,1.88,0,0,1,1.348-.455,2.024,2.024,0,0,1,1.26.574.287.287,0,0,0,.131.094l.064-.17.036-.1a1.661,1.661,0,0,0-.111-1.267,1.8,1.8,0,0,0-1.07-.861A1.732,1.732,0,0,0-102.992-10.26Zm.169,2.174a.786.786,0,0,0-.066.131,1.574,1.574,0,0,0,1.154.471,1.653,1.653,0,0,0,1.076-.373.873.873,0,0,0,.1-.131,1.585,1.585,0,0,0-1.067-.6A1.532,1.532,0,0,0-102.823-8.086Z" transform="translate(132 17.864)" fill="#fff"/>
    <path id="Path_3659" data-name="Path 3659" d="M-105.721-14.824a2.232,2.232,0,0,1,.763,1.545,2.293,2.293,0,0,1-.589,1.61,2.247,2.247,0,0,1-1.585.681,2.291,2.291,0,0,1-1.574-.668,2.287,2.287,0,0,1-.6-1.623,2.314,2.314,0,0,1,.8-1.58A2.243,2.243,0,0,1-105.721-14.824Zm-2.689.578A1.718,1.718,0,0,0-108.8-13a1.761,1.761,0,0,0,.677,1.182,1.748,1.748,0,0,0,1.263.312,1.741,1.741,0,0,0,1.139-.751,1.74,1.74,0,0,0,.2-1.39,1.773,1.773,0,0,0-.893-1.03A1.692,1.692,0,0,0-108.41-14.246Z" transform="translate(142.703 24.942)" fill="#fff"/>
    <path id="Path_3660" data-name="Path 3660" d="M-44.129-.2a.7.7,0,0,1,.34.4l.035.072c.084.175.084.175.084.251l.107,0,.141.007.07,0a.956.956,0,0,1,.436.119.442.442,0,0,1,.082.315.781.781,0,0,1-.314.4.365.365,0,0,0-.17.247,1.481,1.481,0,0,0,.041.221,1.031,1.031,0,0,1,.012.5.462.462,0,0,1-.242.154,1.016,1.016,0,0,1-.589-.216.214.214,0,0,0-.182-.044,1.747,1.747,0,0,0-.289.15c-.235.129-.235.129-.369.117a.414.414,0,0,1-.277-.236,1.513,1.513,0,0,1,.024-.409.516.516,0,0,0-.006-.418,2.367,2.367,0,0,0-.215-.157.577.577,0,0,1-.215-.3.37.37,0,0,1,.084-.308A.673.673,0,0,1-45.16.529l.075-.012A2.138,2.138,0,0,1-44.752.49L-44.725.4a2.953,2.953,0,0,1,.131-.314l.048-.1A.376.376,0,0,1-44.129-.2Zm-.1.721-.041.069-.054.09-.053.09a.3.3,0,0,1-.215.172l-.118.025L-44.825,1l-.091.019.041.047.054.062.053.061a.512.512,0,0,1,.119.41v.07c0,.057,0,.113,0,.17l.056-.029a.74.74,0,0,1,.468-.1,1.994,1.994,0,0,1,.207.1.136.136,0,0,0,.121.029l-.011-.071a.679.679,0,0,1,.127-.584c.047-.056.1-.111.146-.165L-43.626,1c-.307-.054-.307-.054-.4-.146a2.023,2.023,0,0,1-.1-.2C-44.161.61-44.194.566-44.227.523Z" transform="translate(79.799 10.632)" fill="#fff"/>
    <path id="Path_3661" data-name="Path 3661" d="M-31.629-2.054a.9.9,0,0,1,.361.4.884.884,0,0,1-.078.66.812.812,0,0,1-.5.307.787.787,0,0,1-.667-.224.734.734,0,0,1-.19-.563A.777.777,0,0,1-32.392-2,.82.82,0,0,1-31.629-2.054Zm-.519.512c-.059.087-.059.087-.049.178a.3.3,0,0,0,.129.176.323.323,0,0,0,.256-.039.363.363,0,0,0,.072-.223.322.322,0,0,0-.131-.164A.245.245,0,0,0-32.148-1.541Z" transform="translate(67.541 18.54)" fill="#fff"/>
    <path id="Path_3662" data-name="Path 3662" d="M-33.657-3.531a.752.752,0,0,1,.3.4.864.864,0,0,1-.131.656.784.784,0,0,1-.477.274.874.874,0,0,1-.66-.225.853.853,0,0,1-.169-.615.878.878,0,0,1,.262-.456A.769.769,0,0,1-33.657-3.531Zm-.619.5a.147.147,0,0,0-.033.131.274.274,0,0,0,.1.164.372.372,0,0,0,.23.033c.087-.044.087-.044.131-.131a.372.372,0,0,0-.033-.23C-34.053-3.2-34.122-3.171-34.276-3.029Z" transform="translate(64.339 17.004)" fill="#fff"/>
    <path id="Path_3663" data-name="Path 3663" d="M-34.492-4.476A.735.735,0,0,1-34.213-4a.975.975,0,0,1-.143.58.894.894,0,0,1-.683.249.773.773,0,0,1-.5-.313A.884.884,0,0,1-35.65-4.1a.7.7,0,0,1,.326-.42A.746.746,0,0,1-34.492-4.476Zm-.633.439a.372.372,0,0,0-.033.23c.044.087.044.087.131.131a.372.372,0,0,0,.23-.033.238.238,0,0,0,.1-.164A.352.352,0,0,0-34.83-4.1C-34.951-4.168-35.02-4.12-35.125-4.037Z" transform="translate(75.812 17.979)" fill="#fff"/>
    <path id="Path_3664" data-name="Path 3664" d="M-34.108-3.881a.84.84,0,0,1,.309.6.781.781,0,0,1-.243.547.827.827,0,0,1-.657.166.8.8,0,0,1-.468-.328.834.834,0,0,1-.055-.66.788.788,0,0,1,.362-.394A.8.8,0,0,1-34.108-3.881Zm-.623.459a.273.273,0,0,0-.033.2.3.3,0,0,0,.131.164.246.246,0,0,0,.2,0,.3.3,0,0,0,.131-.164.273.273,0,0,0-.033-.2A.26.26,0,0,0-34.731-3.422Z" transform="translate(70.106 8.183)" fill="#fff"/>
    <path id="Path_3665" data-name="Path 3665" d="M-31.715-2a.756.756,0,0,1,.345.432.831.831,0,0,1-.084.64.856.856,0,0,1-.4.289.863.863,0,0,1-.709-.17.817.817,0,0,1-.221-.628.759.759,0,0,1,.312-.507A.821.821,0,0,1-31.715-2Zm-.519.494c-.062.081-.062.081-.047.2s.019.112.094.176a.394.394,0,0,0,.291-.041.336.336,0,0,0,.07-.189.728.728,0,0,0-.131-.2A.351.351,0,0,0-32.234-1.506Z" transform="translate(72.94 9.302)" fill="#fff"/>
    <path id="Path_3666" data-name="Path 3666" d="M-31.261-2.076a.837.837,0,0,1,.381.473.882.882,0,0,1-.164.689.8.8,0,0,1-.646.206.639.639,0,0,1-.465-.239.757.757,0,0,1-.154-.61.763.763,0,0,1,.365-.517A.851.851,0,0,1-31.261-2.076Zm-.5.482a.32.32,0,0,0-.072.189.728.728,0,0,0,.131.2.351.351,0,0,0,.3-.051.426.426,0,0,0,0-.309A.285.285,0,0,0-31.759-1.594Z" transform="translate(61.861 9.38)" fill="#fff"/>
    <path id="Path_3667" data-name="Path 3667" d="M-30.392-.215a.346.346,0,0,1,.131.164.353.353,0,0,1-.033.23,1.449,1.449,0,0,1-.3.2L-30.7.446l-.12.073-.057.036a.577.577,0,0,1-.4.083.311.311,0,0,1-.131-.131.357.357,0,0,1,0-.2,1.65,1.65,0,0,1,.471-.355l.082-.05A.637.637,0,0,1-30.392-.215Z" transform="translate(69.013 10.059)" fill="#fff"/>
    <path id="Path_3668" data-name="Path 3668" d="M-10.639-.379a3.27,3.27,0,0,1,.371.207l.1.059c.242.146.242.146.317.259A.331.331,0,0,1-9.9.42a.362.362,0,0,1-.309.053,2.994,2.994,0,0,1-.353-.189l-.094-.054C-10.924.077-10.924.077-11-.051a.563.563,0,0,1,.07-.293A.386.386,0,0,1-10.639-.379Z" transform="translate(43.391 10.223)" fill="#fff"/>
    <path id="Path_3669" data-name="Path 3669" d="M-10.874-.365a2.994,2.994,0,0,1,.353.189l.094.054c.265.154.265.154.341.283a.384.384,0,0,1-.088.293.477.477,0,0,1-.273.035A.978.978,0,0,1-10.623.4l-.1-.057-.1-.06-.1-.059c-.243-.146-.243-.146-.318-.259a.331.331,0,0,1,.051-.275A.362.362,0,0,1-10.874-.365Z" transform="translate(48.84 13.226)" fill="#fff"/>
    <path id="Path_3670" data-name="Path 3670" d="M-30.19-.155a.311.311,0,0,1,.131.131.357.357,0,0,1,0,.2,1.638,1.638,0,0,1-.473.355l-.083.05c-.258.15-.258.15-.428.12a.449.449,0,0,1-.164-.164A.329.329,0,0,1-31.173.3a1.456,1.456,0,0,1,.3-.2l.114-.071.12-.073.057-.036A.577.577,0,0,1-30.19-.155Z" transform="translate(63.597 13.015)" fill="#fff"/>
    <path id="Path_3671" data-name="Path 3671" d="M-10.127-.219a.327.327,0,0,1,.131.1.96.96,0,0,1,.016.229V.175q0,.07,0,.141c0,.072,0,.143,0,.215q0,.068,0,.137V.793a.243.243,0,0,1-.057.165.446.446,0,0,1-.251.069A.218.218,0,0,1-10.455.9c-.008-.145-.009-.289-.01-.434,0-.072,0-.144,0-.216q0-.069,0-.137V-.018c.015-.1.015-.1.076-.166A.4.4,0,0,1-10.127-.219Z" transform="translate(45.797 14.391)" fill="#fff"/>
    <path id="Path_3672" data-name="Path 3672" d="M-11.123-.737a.256.256,0,0,1,.1.1,1.275,1.275,0,0,1,.014.229v.067q0,.07,0,.141c0,.072,0,.143,0,.215q0,.068,0,.137V.275c-.016.1-.016.1-.077.166a.4.4,0,0,1-.267.036.327.327,0,0,1-.131-.1A.96.96,0,0,1-11.5.15c0-.022,0-.044,0-.067q0-.07,0-.141c0-.072,0-.143,0-.215q0-.068,0-.137V-.535A.232.232,0,0,1-11.438-.7.31.31,0,0,1-11.123-.737Z" transform="translate(46.826 8.908)" fill="#fff"/>
  </g>
</svg>
