<svg xmlns="http://www.w3.org/2000/svg" width="40.401" height="27.92" viewBox="0 0 40.401 27.92">
  <g id="team_1_" data-name="team (1)" transform="translate(-10.08 425.876)">
    <path id="Path_3495" data-name="Path 3495" d="M128.551-425.8A3.373,3.373,0,0,0,126.5-424.1a3.822,3.822,0,0,0,0,2.423,3.466,3.466,0,0,0,1.528,1.5,2.291,2.291,0,0,0,1.207.23,2.674,2.674,0,0,0,2.136-.9,2.4,2.4,0,0,0,.78-2.045,2.4,2.4,0,0,0-.78-2.045A3.068,3.068,0,0,0,128.551-425.8Zm1.552,1.134a1.935,1.935,0,0,1,1.1,1.782,1.915,1.915,0,0,1-1.971,1.963,1.915,1.915,0,0,1-1.971-1.963,2,2,0,0,1,1.479-1.939A2.284,2.284,0,0,1,130.1-424.67Z" transform="translate(-106.674)" fill="#ed1c24"/>
    <path id="Path_3496" data-name="Path 3496" d="M315.32-425.572a2.966,2.966,0,0,0-1.429,4.592,3.267,3.267,0,0,0,2.431,1.216,3.523,3.523,0,0,0,1.783-.649,2.96,2.96,0,0,0,.263-4.444A2.894,2.894,0,0,0,315.32-425.572Zm1.61.936a2.053,2.053,0,0,1,1.323,2.144,2.012,2.012,0,0,1-2.423,1.659,1.971,1.971,0,0,1-.953-3.327A1.9,1.9,0,0,1,316.93-424.636Z" transform="translate(-278.313 -0.125)" fill="#ed1c24"/>
    <path id="Path_3497" data-name="Path 3497" d="M98.566-346.759a3.033,3.033,0,0,0-1.479,1.372c-.23.468-.23.476-.255,2.382l-.033,1.914.214.435a1.7,1.7,0,0,0,.559.674l.337.238,4.124.025,4.124.025.444-.238a1.286,1.286,0,0,0,.674-.674l.23-.452-.025-1.93c-.025-1.922-.025-1.93-.255-2.4a2.981,2.981,0,0,0-1.5-1.372c-.427-.164-.616-.173-3.59-.164C99.2-346.924,98.969-346.915,98.566-346.759Zm6.916.969a1.831,1.831,0,0,1,.936,1.051,18.136,18.136,0,0,1-.008,3.664c-.156.3-.329.378-.78.386h-.435v-.731c0-.846-.1-1.019-.526-.977-.345.033-.46.3-.46,1.068v.641H100.02v-.682c0-.789-.115-1.043-.493-1.043-.411,0-.493.172-.493.994v.731h-.386c-.419-.008-.6-.1-.747-.386a18.135,18.135,0,0,1-.008-3.664,1.831,1.831,0,0,1,.936-1.051c.3-.14.6-.156,3.327-.156S105.187-345.93,105.482-345.79Z" transform="translate(-79.597 -72.465)" fill="#ed1c24"/>
    <path id="Path_3498" data-name="Path 3498" d="M286.807-346.654a2.757,2.757,0,0,0-1.314.978c-.46.665-.493.862-.493,2.974,0,1.725.016,1.955.156,2.226a1.6,1.6,0,0,0,.846.8,65.194,65.194,0,0,0,8.592,0,1.587,1.587,0,0,0,.846-.8c.156-.288.164-.46.14-2.341-.025-1.963-.033-2.045-.222-2.44a3,3,0,0,0-1.281-1.273l-.411-.205-3.245-.016A16.456,16.456,0,0,0,286.807-346.654Zm6.908,1.043a2.125,2.125,0,0,1,.608.542l.246.353.025,1.881.025,1.881-.205.205a.715.715,0,0,1-.624.205h-.411v-.682c0-.772-.123-1.043-.468-1.043-.419,0-.517.2-.517,1v.723h-4.271v-.715c0-.8-.107-1.01-.5-1.01-.361,0-.485.255-.485,1.043v.682h-.361a.9.9,0,0,1-.575-.173l-.222-.172L286-342.8l.025-1.914.246-.353a2.24,2.24,0,0,1,.608-.542c.361-.189.378-.189,3.417-.189S293.354-345.8,293.715-345.611Z" transform="translate(-252.338 -72.611)" fill="#ed1c24"/>
    <path id="Path_3499" data-name="Path 3499" d="M41.157-252.746a3.113,3.113,0,0,0-1.922,1.84,3.432,3.432,0,0,0,.09,2.259,3.034,3.034,0,0,0,3.179,1.7,3.032,3.032,0,0,0,2.218-1.659,2.048,2.048,0,0,0,.23-1.257,2.3,2.3,0,0,0-.222-1.29,3.146,3.146,0,0,0-1.437-1.429A3.411,3.411,0,0,0,41.157-252.746Zm1.544.986a2,2,0,0,1,.838,3.162,1.972,1.972,0,0,1-3.475-1.249A1.971,1.971,0,0,1,42.7-251.76Z" transform="translate(-26.624 -158.814)" fill="#ed1c24"/>
    <path id="Path_3500" data-name="Path 3500" d="M222.168-252.741a3.114,3.114,0,0,0-1.922,1.84,2.486,2.486,0,0,0-.14,1.166,2.177,2.177,0,0,0,.312,1.216,2.976,2.976,0,0,0,4,1.29,3.449,3.449,0,0,0,1.347-1.413,2.25,2.25,0,0,0,.2-1.216,2.3,2.3,0,0,0-.222-1.29,3.114,3.114,0,0,0-1.413-1.421A3.441,3.441,0,0,0,222.168-252.741Zm1.93,1.175a2.022,2.022,0,0,1,.46,2.974,1.986,1.986,0,0,1-3.015,0,2,2,0,0,1,.821-3.162A2.216,2.216,0,0,1,224.1-251.567Z" transform="translate(-192.767 -158.819)" fill="#ed1c24"/>
    <path id="Path_3501" data-name="Path 3501" d="M403.046-252.765a3.216,3.216,0,0,0-1.939,1.98,3.025,3.025,0,0,0,1.889,3.7,3.358,3.358,0,0,0,2.029-.049,3.2,3.2,0,0,0,1.585-1.454,2.113,2.113,0,0,0,.246-1.3,2.3,2.3,0,0,0-.222-1.29,3.114,3.114,0,0,0-1.413-1.421A3.431,3.431,0,0,0,403.046-252.765Zm1.947,1.175a2.209,2.209,0,0,1,.632.633,1.537,1.537,0,0,1,.246,1.076c0,.591-.025.706-.23,1.01a1.96,1.96,0,0,1-3.442-.14,1.962,1.962,0,0,1,1.06-2.768A2.216,2.216,0,0,1,404.993-251.59Z" transform="translate(-358.794 -158.795)" fill="#ed1c24"/>
    <path id="Path_3502" data-name="Path 3502" d="M12.4-174.574a2.783,2.783,0,0,0-2.07,1.561c-.205.444-.214.5-.238,2.333a6.818,6.818,0,0,0,.107,2.234,1.9,1.9,0,0,0,1.084,1.01c.435.123,7.836.123,8.28,0a1.87,1.87,0,0,0,1.109-1.134,11.786,11.786,0,0,0,.066-2.177c-.025-1.8-.025-1.824-.255-2.284a3.245,3.245,0,0,0-1.5-1.413c-.37-.148-.657-.164-3.277-.181C14.123-174.631,12.636-174.615,12.4-174.574Zm6.3,1.076a2.159,2.159,0,0,1,.977,1.117,13.992,13.992,0,0,1,.09,1.939v1.635l-.238.238a.731.731,0,0,1-.657.238h-.419v-.772c0-.8-.033-.879-.386-.986-.14-.041-.238-.008-.394.148-.189.189-.205.271-.205.912v.7H13.277v-.7c0-.641-.016-.723-.205-.912-.156-.156-.255-.189-.394-.148-.353.107-.386.189-.386.986v.772h-.378a.7.7,0,0,1-.616-.238l-.238-.238v-1.717c0-1.676.008-1.725.205-2.136a1.709,1.709,0,0,1,1.2-.92c.2-.041,1.618-.074,3.154-.066A12.281,12.281,0,0,1,18.7-173.5Z" transform="translate(0 -230.612)" fill="#ed1c24"/>
    <path id="Path_3503" data-name="Path 3503" d="M193.414-174.574a4.207,4.207,0,0,0-.723.189,3.475,3.475,0,0,0-1.38,1.4c-.189.4-.2.542-.222,2.308a6.819,6.819,0,0,0,.107,2.234,1.9,1.9,0,0,0,1.084,1.01c.427.123,7.836.123,8.263,0a1.873,1.873,0,0,0,1.084-1.01,6.818,6.818,0,0,0,.107-2.234c-.025-1.865-.025-1.881-.255-2.349a3.333,3.333,0,0,0-1.511-1.429,12.525,12.525,0,0,0-3.269-.164C195.123-174.631,193.644-174.615,193.414-174.574ZM199.7-173.5a1.943,1.943,0,0,1,.912.936c.131.288.156.559.156,2.037v1.717l-.246.238a.613.613,0,0,1-.633.222l-.394-.025-.041-.78c-.041-.747-.049-.78-.263-.887a.38.38,0,0,0-.394-.016c-.246.131-.329.419-.329,1.117v.608h-4.189v-.7c0-.641-.016-.723-.205-.912-.156-.156-.255-.189-.394-.148-.353.107-.386.189-.386.986v.772h-.378a.7.7,0,0,1-.616-.238l-.238-.238v-1.717c0-1.487.025-1.75.156-2.037a1.694,1.694,0,0,1,1.249-1.027c.2-.033,1.618-.066,3.154-.058A12.222,12.222,0,0,1,199.7-173.5Z" transform="translate(-166.132 -230.612)" fill="#ed1c24"/>
    <path id="Path_3504" data-name="Path 3504" d="M374.42-174.769a2.906,2.906,0,0,0-2.119,1.626c-.164.353-.181.542-.205,2.2a11.736,11.736,0,0,0,.066,2.177,1.87,1.87,0,0,0,1.109,1.134c.444.123,7.845.123,8.28,0a1.9,1.9,0,0,0,1.084-1.01,6.819,6.819,0,0,0,.107-2.234c-.025-1.824-.033-1.9-.238-2.333a2.734,2.734,0,0,0-2.144-1.569C379.751-174.859,375.02-174.859,374.42-174.769Zm5.881.986a1.683,1.683,0,0,1,1.265.928c.2.411.205.46.205,2.136V-169l-.246.238a.613.613,0,0,1-.633.222l-.394-.025-.041-.78c-.041-.747-.049-.78-.263-.887a.38.38,0,0,0-.394-.016c-.246.131-.329.419-.329,1.117v.608h-4.189v-.7c0-.641-.016-.723-.205-.912-.156-.156-.255-.189-.394-.148-.353.107-.386.189-.386.986v.772h-.378a.7.7,0,0,1-.616-.238l-.238-.238v-1.635a14.146,14.146,0,0,1,.09-1.947,1.84,1.84,0,0,1,1.47-1.224C375.069-173.882,379.882-173.857,380.3-173.783Z" transform="translate(-332.27 -230.417)" fill="#ed1c24"/>
  </g>
</svg>
