<svg xmlns="http://www.w3.org/2000/svg" width="22.799" height="19.287" viewBox="0 0 22.799 19.287">
  <g id="shapes" transform="translate(0 0)">
    <path id="Path_2791" data-name="Path 2791" d="M16.082-472.683c-.062.009-.281.04-.49.067a6.31,6.31,0,0,0-3.724,2.045,8.55,8.55,0,0,0-.913,1.345.6.6,0,0,1-.138.214c-.018,0-1-.557-2.183-1.243s-2.2-1.252-2.25-1.27a.287.287,0,0,0-.2.022c-.6.312-6.01,3.461-6.085,3.546l-.1.107v3.555c0,3.323,0,3.564.08,3.648.129.156,6.1,3.573,6.237,3.573a11.337,11.337,0,0,0,1.5-.8c.762-.437,1.385-.784,1.394-.766s-.281.659-.637,1.43a9.364,9.364,0,0,0-.646,1.564,1.409,1.409,0,0,0,.486.855,7.619,7.619,0,0,0,4.094,1.305,23.366,23.366,0,0,0,3.662,0c2.789-.307,4.513-1.127,4.553-2.161a3.93,3.93,0,0,0-.655-1.434.358.358,0,0,0-.4.071c-.116.116-.08.307.151.82a3.221,3.221,0,0,1,.223.57c0,.232-.53.61-1.221.873a12.4,12.4,0,0,1-4.459.664,12.584,12.584,0,0,1-4.535-.664,2.18,2.18,0,0,1-1.194-.811c-.031-.085.414-1.091,2.7-6.081,1.51-3.288,2.775-6.014,2.815-6.059a.232.232,0,0,1,.347.009c.04.049,1.065,2.236,2.272,4.869,1.305,2.842,2.236,4.811,2.294,4.856a.3.3,0,0,0,.428-.036.232.232,0,0,0,.089-.236c-.013-.067-.249-.606-.517-1.2s-.494-1.083-.494-1.091a.882.882,0,0,1,.214-.1,6.4,6.4,0,0,0,3.359-3.074,6.228,6.228,0,0,0-.628-6.549,3.043,3.043,0,0,0-.713-.744.331.331,0,0,0-.423.379,2.609,2.609,0,0,0,.334.445,5.42,5.42,0,0,1,1.149,2.009,5.555,5.555,0,0,1-.04,3.506,5.675,5.675,0,0,1-2.134,2.793c-.584.392-1.345.739-1.43.65-.018-.022-.731-1.564-1.586-3.426a32.753,32.753,0,0,0-1.711-3.542.88.88,0,0,0-1.27.018,11.561,11.561,0,0,0-1.114,2.218c-.517,1.123-.949,2.04-.962,2.04a4.545,4.545,0,0,1-.4-.94,5.98,5.98,0,0,1-.156-2.6,5.62,5.62,0,0,1,2.945-3.974,6.517,6.517,0,0,1,1.622-.552,7.6,7.6,0,0,1,1.826,0,6.8,6.8,0,0,1,1.483.463,1.894,1.894,0,0,0,.445.16.315.315,0,0,0,.276-.472,4.7,4.7,0,0,0-1.982-.8A8.655,8.655,0,0,0,16.082-472.683Zm-7.631,3.1c1.145.664,2.1,1.221,2.116,1.238a.781.781,0,0,1-.049.339c-.049.174-.107.463-.138.646a1.091,1.091,0,0,1-.1.383c-.031.027-.931.552-2,1.172-1.911,1.1-1.951,1.118-2.071,1.056-.071-.036-.806-.459-1.639-.94s-1.568-.887-1.63-.9a.329.329,0,0,0-.258.548c.049.045.806.5,1.679,1l1.59.918.013,3.06c0,1.679,0,3.056-.022,3.056s-1.207-.682-2.642-1.506L.69-461.02l-.013-3.065a19.23,19.23,0,0,1,.049-3.043c.031.013.236.125.454.249.432.249.49.263.637.156a.287.287,0,0,0,.138-.37c-.036-.107-.143-.187-.49-.388a1.472,1.472,0,0,1-.41-.29c.067-.067,5.2-3.02,5.257-3.025C6.339-470.794,7.3-470.251,8.451-469.587Zm1.884,3.6a6.549,6.549,0,0,0,.851,2.731l.1.165-.771,1.666-.766,1.671-1.4.811c-.775.445-1.475.851-1.555.9l-.151.089v-6.139l1.818-1.051c1-.579,1.826-1.056,1.849-1.056S10.335-466.108,10.335-465.987Z" transform="translate(0 472.696)" fill="#fff"/>
  </g>
</svg>
