  <svg xmlns="http://www.w3.org/2000/svg" width="13.001" height="16.663" viewBox="0 0 13.001 16.663">
  <g id="list-_2_" transform="translate(-74.5 488.767)">
    <path id="Path_3601" data-name="Path 3601" d="M75.521-488.718a1.469,1.469,0,0,0-.34.14,1.757,1.757,0,0,0-.584.655l-.1.2v14.577l.118.24a1.592,1.592,0,0,0,.749.716l.208.082H86.426l.208-.082a1.592,1.592,0,0,0,.749-.716l.118-.24v-14.577l-.118-.24a1.592,1.592,0,0,0-.749-.716l-.208-.082-5.354-.007C76.441-488.771,75.693-488.764,75.521-488.718Zm11.052.605a1,1,0,0,1,.423.648c.029.218.029,13.849,0,14.068a1,1,0,0,1-.423.648l-.175.107H75.6l-.175-.107a.951.951,0,0,1-.426-.709c-.011-.122-.018-3.349-.011-7.17.011-6.7.014-6.952.079-7.073a.884.884,0,0,1,.423-.444l.186-.093,5.358.007,5.361.011Z" fill="#fff"/>
    <path id="Path_3602" data-name="Path 3602" d="M130.275-423.936a1.552,1.552,0,0,0-1.082,1.583,1.537,1.537,0,0,0,1.422,1.458,1.542,1.542,0,0,0,1.673-1.662A1.529,1.529,0,0,0,130.733-424,1.762,1.762,0,0,0,130.275-423.936Zm.938.566a1,1,0,0,1,.559.91,1.007,1.007,0,0,1-1.031,1.039.992.992,0,0,1-1.021-1.028.807.807,0,0,1,.118-.48A1.012,1.012,0,0,1,131.213-423.37Z" transform="translate(-52.731 -62.447)" fill="#fff"/>
    <path id="Path_3603" data-name="Path 3603" d="M244.668-410.686a.267.267,0,0,0-.014.455c.047.029.817.039,2.367.039h2.3l.086-.09a.235.235,0,0,0,.021-.344l-.068-.086-2.306-.007C245.481-410.722,244.721-410.711,244.668-410.686Z" transform="translate(-163.943 -75.253)" fill="#fff"/>
    <path id="Path_3604" data-name="Path 3604" d="M244.515-364.939a.234.234,0,0,0-.043.344l.075.1H246.1c1.508,0,1.558,0,1.626-.072a.287.287,0,0,0,.072-.179.287.287,0,0,0-.072-.179c-.068-.068-.118-.072-1.608-.072C244.712-365,244.583-365,244.515-364.939Z" transform="translate(-163.83 -119.334)" fill="#fff"/>
    <path id="Path_3605" data-name="Path 3605" d="M130.736-299.571a1.635,1.635,0,0,0-1.107.892,1.067,1.067,0,0,0-.129.648,1.067,1.067,0,0,0,.129.648,1.548,1.548,0,0,0,2.059.77,1.455,1.455,0,0,0,.612-.5,1.566,1.566,0,0,0-.723-2.385A1.789,1.789,0,0,0,130.736-299.571Zm.655.559a1.26,1.26,0,0,1,.344.215,1.03,1.03,0,0,1-.018,1.551,1.042,1.042,0,0,1-1.579-.272,1.294,1.294,0,0,1-.086-.82A1.06,1.06,0,0,1,131.391-299.013Z" transform="translate(-53.03 -182.399)" fill="#fff"/>
    <path id="Path_3606" data-name="Path 3606" d="M244.5-285.939a.232.232,0,0,0-.032.355l.09.1h4.67l.068-.086a.252.252,0,0,0-.014-.355L249.2-286h-2.314A9.9,9.9,0,0,0,244.5-285.939Z" transform="translate(-163.818 -195.505)" fill="#fff"/>
    <path id="Path_3607" data-name="Path 3607" d="M244.609-240.693a.278.278,0,0,0-.168.3c.05.2.039.2,1.7.2h1.529l.075-.082a.264.264,0,0,0,0-.369c-.072-.064-.158-.068-1.569-.075C245.358-240.722,244.652-240.711,244.609-240.693Z" transform="translate(-163.849 -239.164)" fill="#fff"/>
    <path id="Path_3608" data-name="Path 3608" d="M130.227-174.858a1.576,1.576,0,0,0-1.092,1.107,1.562,1.562,0,0,0,.87,1.819,1.065,1.065,0,0,0,.637.115,1.03,1.03,0,0,0,.663-.133,1.554,1.554,0,0,0,.469-2.471A1.562,1.562,0,0,0,130.227-174.858Zm.842.566a1.023,1.023,0,0,1,.6.953,1.02,1.02,0,0,1-1.633.82,1.039,1.039,0,0,1,.19-1.784A1.122,1.122,0,0,1,131.069-174.292Z" transform="translate(-52.629 -302.614)" fill="#fff"/>
    <path id="Path_3609" data-name="Path 3609" d="M244.472-160.9a.23.23,0,0,0,.043.34,9.37,9.37,0,0,0,2.389.064h2.321l.075-.082a.248.248,0,0,0,.007-.347c-.072-.072-.118-.072-2.414-.072h-2.346Z" transform="translate(-163.83 -316.028)" fill="#fff"/>
    <path id="Path_3610" data-name="Path 3610" d="M244.666-115.961a.265.265,0,0,0,.043.458,11.96,11.96,0,0,0,1.587.032c1.408-.011,1.493-.014,1.565-.079a.249.249,0,0,0-.018-.376c-.093-.075-.133-.075-1.6-.075A14.621,14.621,0,0,0,244.666-115.961Z" transform="translate(-163.963 -359.416)" fill="#fff"/>
  </g>
</svg>
