<svg xmlns="http://www.w3.org/2000/svg" width="14.755" height="14.764" viewBox="0 0 14.755 14.764">
  <g id="clock_2_" transform="translate(0 0)" opacity="0.7">
    <path id="Path_1368" data-name="Path 1368" d="M7.191-511.6a7.508,7.508,0,0,0-3.9,1.554,8.517,8.517,0,0,0-1.716,1.912,10.076,10.076,0,0,0-.664,1.36,8.977,8.977,0,0,0-.37,1.441,9,9,0,0,0,0,2.2,7.289,7.289,0,0,0,.685,2.152,6.856,6.856,0,0,0,1.412,1.967,6.857,6.857,0,0,0,1.967,1.412,7.29,7.29,0,0,0,2.152.685,9,9,0,0,0,2.2,0,7.29,7.29,0,0,0,2.152-.685,6.857,6.857,0,0,0,1.967-1.412,6.856,6.856,0,0,0,1.412-1.967,6.62,6.62,0,0,0,.52-1.375,6.161,6.161,0,0,0,.225-1.875A6.162,6.162,0,0,0,15-506.111a6.62,6.62,0,0,0-.52-1.375,6.855,6.855,0,0,0-1.412-1.967,6.856,6.856,0,0,0-1.967-1.412,7.18,7.18,0,0,0-2.137-.679A9.94,9.94,0,0,0,7.191-511.6Zm1.352,1.158a6.179,6.179,0,0,1,3.72,1.8,6.115,6.115,0,0,1,1.831,4.408,6.115,6.115,0,0,1-1.831,4.408A6.115,6.115,0,0,1,7.856-498a6.115,6.115,0,0,1-4.408-1.831,6.115,6.115,0,0,1-1.831-4.408,6.115,6.115,0,0,1,1.831-4.408,6.224,6.224,0,0,1,3.686-1.8A9.182,9.182,0,0,1,8.543-510.444Z" transform="translate(-0.475 511.62)"/>
    <path id="Path_1369" data-name="Path 1369" d="M236.453-392.945a.588.588,0,0,0-.3.364c-.023.084-.029.621-.023,1.921.009,1.759.012,1.808.069,1.921a6.983,6.983,0,0,0,1.213.991c.633.482,1.21.91,1.282.953a.57.57,0,0,0,.809-.731c-.058-.121-.176-.217-1.144-.945l-1.08-.809v-1.612c0-1.126-.009-1.638-.032-1.707a.571.571,0,0,0-.546-.4A.723.723,0,0,0,236.453-392.945Z" transform="translate(-229.321 396.426)"/>
  </g>
</svg>
