<svg xmlns="http://www.w3.org/2000/svg" width="18.023" height="18.014" viewBox="0 0 18.023 18.014">
  <g id="cargo" transform="translate(-8.123 504.054)">
    <path id="Path_3570" data-name="Path 3570" d="M11.6-504a.861.861,0,0,0-.443.36l-.1.153-.916.018c-.847.018-.93.025-1.126.105a1.6,1.6,0,0,0-.763.727l-.116.24-.011,6.683c-.007,6.029,0,6.7.051,6.886a1.443,1.443,0,0,0,1.1,1.017c.134.029,1.286.04,3.877.04H16.84v.1a.942.942,0,0,0,.636.734,1.777,1.777,0,0,0,.356.04h.193l.087.185a1.161,1.161,0,0,0,1.533.567,1.242,1.242,0,0,0,.578-.611l.044-.142h2.409l.087.185a1.161,1.161,0,0,0,1.533.567,1.267,1.267,0,0,0,.578-.607l.04-.138.3-.015a.891.891,0,0,0,.843-.5c.065-.116.069-.247.08-1.744l.011-1.621-.512-.68-.509-.68H23.817v-6.723H23.9a2.771,2.771,0,0,0,.821-.276,2.474,2.474,0,0,0,1.126-1.159,2.527,2.527,0,0,0-.505-3,2.441,2.441,0,0,0-1.712-.752,2.615,2.615,0,0,0-2.707,2.213l-.018.1H19.758l-.022-.3a1.467,1.467,0,0,0-.68-1.217c-.345-.207-.465-.225-1.421-.225h-.861l-.044-.109a.992.992,0,0,0-.5-.429C16.015-504.074,11.785-504.067,11.6-504Zm4.491.552c.134.055.164.2.164.868v.643l-.105.105-.109.105-2.148-.007-2.151-.011-.069-.087c-.062-.076-.069-.149-.069-.774,0-.68,0-.687.091-.774l.087-.091h2.126C15.077-503.471,16.062-503.46,16.095-503.449Zm7.838.018a2.1,2.1,0,0,1,1.519,1.374,1.958,1.958,0,0,1-.509,2.039,1.963,1.963,0,0,1-2.558.251,2.007,2.007,0,0,1-.294-3.1A2.029,2.029,0,0,1,23.933-503.431Zm-12.907.832v.291h-.669c-.632,0-.672,0-.789.084a.9.9,0,0,0-.2.2l-.084.124v12.551l.08.12a1.071,1.071,0,0,0,.185.2c.1.076.116.076,3.7.087l3.594.007v.581l-3.75-.007-3.754-.011-.145-.08a1.248,1.248,0,0,1-.262-.2c-.247-.258-.229.3-.229-6.97,0-5.825.007-6.6.055-6.712a.842.842,0,0,1,.425-.461c.185-.094.2-.094,1.017-.094h.829Zm7.526-.247a1,1,0,0,1,.516.443l.08.149.011,4.477.007,4.481h-.581v-8.525l-.08-.16c-.153-.294-.193-.309-.978-.32l-.687-.011v-.578h.785A5.326,5.326,0,0,1,18.551-502.846ZM11.1-501.679c0,.084.254.352.414.436l.149.08h4.55l.178-.109a1.053,1.053,0,0,0,.287-.28l.109-.171h.61l.607,0v8.431H16.84v3.779H9.863v-12.21h.618C10.967-501.727,11.1-501.716,11.1-501.679Zm9.826.578c.007.025.036.16.073.3a2.621,2.621,0,0,0,2,1.915l.24.047v6.7h-.581V-493.3H19.747v-7.849h.581C20.764-501.145,20.913-501.134,20.924-501.1Zm-2.34,8.968v.581H20.91v-1.163h1.163v4.07H17.421v-4.07h1.163Zm1.744-.291v.291H19.165v-.581h1.163Zm4.869,1.355.363.487v1.937H22.654v-2.907h2.18ZM18.242-487.9a1.346,1.346,0,0,0-.171.294l-.04.127-.236-.015c-.3-.018-.374-.091-.374-.378v-.2h.948Zm4.651,0a1.24,1.24,0,0,0-.167.291l-.044.124H20.3l-.069-.156a1.376,1.376,0,0,0-.189-.291l-.116-.134h3.1Zm2.667.018a.324.324,0,0,1-.105.291c-.091.091-.134.105-.309.105h-.2l-.069-.156a1.376,1.376,0,0,0-.189-.291l-.116-.134h.988Zm-6.076.2a.677.677,0,0,1,.247.534.588.588,0,0,1-.894.432.577.577,0,0,1,.036-.981.4.4,0,0,1,.32-.073A.706.706,0,0,1,19.485-487.678Zm4.651,0a.677.677,0,0,1,.247.534.588.588,0,0,1-.894.432.577.577,0,0,1,.036-.981.4.4,0,0,1,.32-.073A.706.706,0,0,1,24.137-487.678Z" transform="translate(0 0)" fill="#fff"/>
    <path id="Path_3571" data-name="Path 3571" d="M395.555-460.248l-.756.756-.193-.193-.193-.189-.207.211-.207.207.392.392.389.389.974-.974.97-.97-.193-.193a2.489,2.489,0,0,0-.207-.189C396.315-461,395.97-460.662,395.555-460.248Z" transform="translate(-371.855 -41.49)" fill="#fff"/>
    <path id="Path_3572" data-name="Path 3572" d="M67.577-411.933c-.4.534-.741.992-.767,1.025-.036.051-.065.036-.218-.113l-.178-.174-.207.211-.207.207.411.411.414.411.97-1.3.974-1.3-.084-.065c-.047-.036-.153-.116-.236-.174L68.3-412.9Z" transform="translate(-55.774 -87.842)" fill="#fff"/>
    <path id="Path_3573" data-name="Path 3573" d="M160-407.709v.291h3.779V-408H160Z" transform="translate(-146.358 -92.564)" fill="#fff"/>
    <path id="Path_3574" data-name="Path 3574" d="M160-375.709v.291h2.616V-376H160Z" transform="translate(-146.358 -123.401)" fill="#fff"/>
    <path id="Path_3575" data-name="Path 3575" d="M248-375.709v.291h.581V-376H248Z" transform="translate(-231.16 -123.401)" fill="#fff"/>
    <path id="Path_3576" data-name="Path 3576" d="M160-343.709v.291h3.779V-344H160Z" transform="translate(-146.358 -154.238)" fill="#fff"/>
    <path id="Path_3577" data-name="Path 3577" d="M67.577-315.933c-.4.534-.741.992-.767,1.025-.036.051-.065.036-.218-.113l-.178-.174-.207.211-.207.207.411.411.414.411.97-1.3.974-1.3-.084-.065c-.047-.036-.153-.116-.236-.174L68.3-316.9Z" transform="translate(-55.774 -180.353)" fill="#fff"/>
    <path id="Path_3578" data-name="Path 3578" d="M160-311.709v.291h3.779V-312H160Z" transform="translate(-146.358 -185.075)" fill="#fff"/>
    <path id="Path_3579" data-name="Path 3579" d="M160-279.709v.291h2.616V-280H160Z" transform="translate(-146.358 -215.912)" fill="#fff"/>
    <path id="Path_3580" data-name="Path 3580" d="M248-279.709v.291h.581V-280H248Z" transform="translate(-231.16 -215.912)" fill="#fff"/>
    <path id="Path_3581" data-name="Path 3581" d="M160-247.709v.291h3.779V-248H160Z" transform="translate(-146.358 -246.75)" fill="#fff"/>
    <path id="Path_3582" data-name="Path 3582" d="M72-198.546v1.454h3.489V-200H72Zm2.907,0v.872H72.581v-1.744h2.326Z" transform="translate(-61.556 -293.005)" fill="#fff"/>
    <path id="Path_3583" data-name="Path 3583" d="M184-199.709v.291h1.744V-200H184Z" transform="translate(-169.486 -293.005)" fill="#fff"/>
    <path id="Path_3584" data-name="Path 3584" d="M184-167.709v.291h1.744V-168H184Z" transform="translate(-169.486 -323.842)" fill="#fff"/>
    <path id="Path_3585" data-name="Path 3585" d="M184-135.709v.291h1.744V-136H184Z" transform="translate(-169.486 -354.68)" fill="#fff"/>
  </g>
</svg>
