<svg xmlns="http://www.w3.org/2000/svg" width="19.559" height="19.561" viewBox="0 0 19.559 19.561">
  <g id="product-_2_" transform="translate(-7.9 503.759)">
    <path id="Path_2205" data-name="Path 2205" d="M313.478-503.717a1.585,1.585,0,0,0-.967.836c-.178.383-.17.552.118,2.241a6.342,6.342,0,0,0,.383,1.768,1.515,1.515,0,0,0,1.1.769l.154.024.016.371c.012.331.028.387.13.533a.765.765,0,0,0,.967.264,9.657,9.657,0,0,0,.848-.631l.671-.537.73-.016c.844-.016,1.022-.063,1.365-.363.383-.335.418-.45.71-2.182.288-1.693.3-1.858.118-2.245a1.631,1.631,0,0,0-.73-.738l-.26-.126-2.584-.008C314.279-503.765,313.616-503.753,313.478-503.717Zm5.374.687a.813.813,0,0,1,.438.537c.043.142.024.316-.182,1.543-.3,1.8-.28,1.72-.45,1.918-.241.288-.347.316-1.215.316h-.754l-.793.631a8.566,8.566,0,0,1-.844.631c-.13,0-.15-.091-.15-.679v-.584h-.383a1.247,1.247,0,0,1-.544-.075,1.082,1.082,0,0,1-.45-.454c-.02-.043-.146-.754-.284-1.578-.225-1.365-.245-1.507-.2-1.673a.79.79,0,0,1,.454-.544l.2-.095h4.936Z" transform="translate(-292.479)" fill="#fff"/>
    <path id="Path_2206" data-name="Path 2206" d="M342.166-474.5l-.5.5-.833-.418A6.4,6.4,0,0,0,340-474.8c0,.036.548,1.981.793,2.809l.079.268h3.622l.079-.268c.245-.829.793-2.774.793-2.809a6.4,6.4,0,0,0-.836.379l-.833.418-.5-.5c-.276-.272-.505-.5-.517-.5S342.438-474.775,342.166-474.5Zm.967.84.43.434.395-.2a2.283,2.283,0,0,1,.406-.181,7.676,7.676,0,0,1-.264.982l-.079.268h-2.675l-.079-.268a7.678,7.678,0,0,1-.264-.982,2.284,2.284,0,0,1,.406.181l.395.2.43-.434c.237-.237.438-.43.45-.43S342.9-473.9,343.133-473.662Z" transform="translate(-318.997 -27.624)" fill="#fff"/>
    <path id="Path_2207" data-name="Path 2207" d="M11.041-487.613A5.226,5.226,0,0,0,8.5-486.449a1,1,0,0,0,.095,1.456l.142.126-.178.2a1.321,1.321,0,0,0-.339.8,1.529,1.529,0,0,0,.418.959l.3.406-.043.225a1.263,1.263,0,0,0,.126.888,1.234,1.234,0,0,0,.927.647l.193.024.067.264a2.239,2.239,0,0,0,1.018,1.314,2.935,2.935,0,0,0,.288.162c.024.008.02.1-.012.253l-.051.241-.185.028a4.136,4.136,0,0,0-.537.142A4.15,4.15,0,0,0,8.018-475.4l-.091.335L7.912-471.9,7.9-468.733h8.747c6.751,0,8.783-.012,8.909-.047a1.172,1.172,0,0,0,.608-.608c.067-.233.067-6.033,0-6.266a1.172,1.172,0,0,0-.608-.608c-.122-.035-1.121-.047-4.088-.047H17.543l-.205-.32a4.115,4.115,0,0,0-2.557-1.8l-.32-.071-.051-.237c-.032-.15-.036-.241-.012-.249a2.935,2.935,0,0,0,.288-.162,2.239,2.239,0,0,0,1.018-1.314l.067-.264.2-.028a1.5,1.5,0,0,0,.758-.387,2.151,2.151,0,0,0,.205-.32.936.936,0,0,0,.1-.537,1.147,1.147,0,0,0-.26-.8L16.7-482.9l.134-.387a3.155,3.155,0,0,0,.213-1.361,3.275,3.275,0,0,0-2.356-2.912,6.106,6.106,0,0,0-1.8-.1A14.838,14.838,0,0,0,11.041-487.613Zm3.6.7a2.666,2.666,0,0,1,1.677,1.724,2.8,2.8,0,0,1-.02,1.539c-.146.45-.142.442-.335.41l-.166-.028v-.217a.947.947,0,0,0-.241-.694c-.272-.308-.308-.316-1.535-.339-1.081-.02-1.085-.02-1.286-.126a2.149,2.149,0,0,1-.32-.205,1.52,1.52,0,0,1-.387-.746L12-485.778h-.623v.11a1.821,1.821,0,0,0,.051.316c.059.225.055.245-.067.245a1.812,1.812,0,0,0-.982.667l-.063.091-.7-.608a5.693,5.693,0,0,1-.738-.706c-.063-.185,0-.3.28-.505a4.531,4.531,0,0,1,1.219-.631,6.087,6.087,0,0,1,2.482-.225l1.46.008Zm-2.6,2.557a2.03,2.03,0,0,0,.876.43c.118.02.627.039,1.136.039h.923l.1.1.1.1-.012,1.511-.012,1.511-.146.3a1.517,1.517,0,0,1-.773.754l-.264.126H11.948l-.264-.126a1.517,1.517,0,0,1-.773-.754l-.146-.3-.012-1.5c-.016-1.748-.012-1.76.284-2.056a.836.836,0,0,1,.651-.292C11.838-484.516,11.885-484.5,12.035-484.354Zm-2.344.292.418.355v.221l0,.225-.17.024a2.081,2.081,0,0,0-.379.122.863.863,0,0,1-.229.087c-.008-.008-.11-.146-.229-.3-.221-.292-.284-.473-.241-.655.028-.1.331-.462.379-.442C9.261-484.421,9.459-484.259,9.691-484.062Zm.422,2.071c0,.7,0,.683-.249.576a.635.635,0,0,1-.008-1.152C10.117-482.681,10.113-482.689,10.113-481.99Zm6.033-.521a.558.558,0,0,1,.26.521.489.489,0,0,1-.083.339.642.642,0,0,1-.4.276l-.13.024v-1.282l.13.028A.615.615,0,0,1,16.146-482.511ZM13.8-478.569l.067.264-.454.454-.458.458-.458-.458-.454-.454.067-.264.063-.264h1.562Zm-1.736,1.192.466.47-.347.434a5.554,5.554,0,0,1-.359.426c-.039-.035-.521-1.732-.505-1.76a.22.22,0,0,1,.15-.039C11.577-477.847,11.66-477.784,12.063-477.378Zm2.529-.434c.016.032-.466,1.728-.505,1.764,0,0-.166-.185-.359-.426l-.347-.434.466-.47c.4-.406.485-.47.6-.47A.249.249,0,0,1,14.592-477.812Zm-3.472,1.641c.241.793.442,1.44.454,1.44a2.4,2.4,0,0,0,.253-.3,1.19,1.19,0,0,1,.253-.276c.012.008-.075.738-.193,1.618l-.209,1.6.639.639.639.639.639-.639.639-.639-.209-1.6c-.118-.88-.205-1.61-.193-1.618a1.19,1.19,0,0,1,.253.276,2.4,2.4,0,0,0,.253.3c.012,0,.217-.647.454-1.44a14.147,14.147,0,0,1,.473-1.44,4.024,4.024,0,0,1,.813.5,3.585,3.585,0,0,1,.777.9l.134.217-.079.111c-.17.237-.17.288-.158,3.476l.012,3.046h-.651v-6H15.48v6h-5.05v-6H9.8v6H8.531l.012-2.809a13.873,13.873,0,0,1,.1-3.113A3.546,3.546,0,0,1,10.4-477.5a1.276,1.276,0,0,1,.249-.114A14.146,14.146,0,0,1,11.12-476.171Zm1.894-.189c.028.079.533,3.823.533,3.965,0,.063-.095.185-.3.387l-.3.292-.3-.292c-.2-.2-.3-.324-.3-.387,0-.142.505-3.886.533-3.965.016-.035.043-.067.059-.067S13-476.4,13.014-476.36Zm6.885,1.63v.947h3.156v-1.894h2.332l.095.1.1.095v5.926l-.1.095-.095.1h-7.82l-.095-.1-.1-.095v-5.926l.1-.095.095-.1H19.9Zm2.525-.316v.631H20.53v-1.263h1.894Z" transform="translate(0 -15.465)" fill="#fff"/>
    <path id="Path_2208" data-name="Path 2208" d="M96.24-375.9a.312.312,0,0,0,.217.533.333.333,0,0,0,.316-.316.333.333,0,0,0-.316-.316A.308.308,0,0,0,96.24-375.9Z" transform="translate(-84.765 -122.718)" fill="#fff"/>
    <path id="Path_2209" data-name="Path 2209" d="M160.24-375.9a.312.312,0,0,0,.217.533.333.333,0,0,0,.316-.316.333.333,0,0,0-.316-.316A.308.308,0,0,0,160.24-375.9Z" transform="translate(-146.24 -122.718)" fill="#fff"/>
    <path id="Path_2210" data-name="Path 2210" d="M97.249-329.817q-.249.083-.249.142a1.67,1.67,0,0,0,.418.651,1.636,1.636,0,0,0,2.241.008,1.766,1.766,0,0,0,.418-.659c0-.067-.56-.268-.58-.209a1.154,1.154,0,0,1-.694.651,1.008,1.008,0,0,1-1.152-.517c-.039-.087-.091-.158-.114-.154A2.043,2.043,0,0,0,97.249-329.817Z" transform="translate(-85.584 -166.996)" fill="#fff"/>
    <path id="Path_2211" data-name="Path 2211" d="M264-87.684v.316h2.525V-88H264Z" transform="translate(-245.995 -399.355)" fill="#fff"/>
    <path id="Path_2212" data-name="Path 2212" d="M264-55.684v.316h2.525V-56H264Z" transform="translate(-245.995 -430.092)" fill="#fff"/>
    <path id="Path_2213" data-name="Path 2213" d="M243.23-346.27l-.73.73.229.225.225.229.355-.355.355-.355v3.334h.631V-345.8l.355.355.355.355.225-.229.229-.225-.73-.73c-.4-.4-.738-.73-.75-.73S243.632-346.673,243.23-346.27Z" transform="translate(-225.344 -150.574)" fill="#fff"/>
    <path id="Path_2214" data-name="Path 2214" d="M387.23-346.27l-.73.73.229.225.225.229.355-.355.355-.355v3.334h.631V-345.8l.355.355.355.355.225-.229.229-.225-.73-.73c-.4-.4-.738-.73-.75-.73S387.632-346.673,387.23-346.27Z" transform="translate(-363.662 -150.574)" fill="#fff"/>
    <path id="Path_2215" data-name="Path 2215" d="M315.23-306.27l-.73.73.229.225.225.229.355-.355.355-.355v2.387h.631V-305.8l.355.355.355.355.225-.229.229-.225-.73-.73c-.4-.4-.738-.73-.75-.73S315.632-306.673,315.23-306.27Z" transform="translate(-294.503 -188.996)" fill="#fff"/>
  </g>
</svg>
