<svg xmlns="http://www.w3.org/2000/svg" width="14.134" height="14.129" viewBox="0 0 14.134 14.129">
  <g id="finances" transform="translate(0 511.723)">
    <path id="Path_3874" data-name="Path 3874" d="M1.057-511.692a1.059,1.059,0,0,0-.6.536l-.061.13v5.6l.072.155a.979.979,0,0,0,.748.544l.133.014v.643l-.2.033a1.414,1.414,0,0,0-1.115,1.057A17.772,17.772,0,0,0,0-500.833c0,1.314.011,2.016.03,2.112a1.469,1.469,0,0,0,1.1,1.1c.1.022,1.066.03,3.079.03,3.228,0,3.12.006,3.449-.171a1.393,1.393,0,0,0,.712-.928l.03-.116h3.5l.055-.072a.165.165,0,0,0-.008-.251l-.066-.077-1.742-.008-1.742-.006v-1.817a10.155,10.155,0,0,0-.052-2,1.415,1.415,0,0,0-.983-.975,27.3,27.3,0,0,0-2.877-.041H1.767v-1.126c0-1.254,0-1.284.182-1.491a.834.834,0,0,1,.226-.177l.13-.064H7.745c4.962,0,5.448,0,5.539.044a.85.85,0,0,1,.364.34l.061.113.008,3.3c.008,3.634.017,3.44-.163,3.656-.149.179-.265.221-.668.24-.331.014-.359.019-.409.08a.214.214,0,0,0,.006.282c.055.055.083.058.447.047a1.1,1.1,0,0,0,.544-.08,1.143,1.143,0,0,0,.544-.544l.1-.21.008-3.338c.008-3.639.011-3.515-.146-3.788a1.286,1.286,0,0,0-.5-.445,2.53,2.53,0,0,0-1.138-.121h-.668l-.008-1.844-.008-1.842-.077-.157a.985.985,0,0,0-.456-.456l-.157-.077-4.9-.006C2.1-511.725,1.151-511.72,1.057-511.692Zm1.4.445a2.149,2.149,0,0,1-.235.665,2.238,2.238,0,0,1-.657.671,2.062,2.062,0,0,1-.635.237l-.13.019v-.588c0-.635.017-.748.13-.884.146-.171.226-.191.914-.191h.613Zm6.737-.006a2.482,2.482,0,0,0,.232.751,2.431,2.431,0,0,0,.61.768,2.588,2.588,0,0,0,1.16.489h.069v1.933H9.827c-1.358,0-1.439,0-1.419-.05a3.967,3.967,0,0,0,.138-.7A2.619,2.619,0,0,0,8.2-509.5a2.446,2.446,0,0,0-1.06-.975,2.016,2.016,0,0,0-1.1-.243,2.075,2.075,0,0,0-1.107.243c-.406.2-.514.345-.364.5.083.088.174.08.364-.033a2.044,2.044,0,0,1,1.218-.309,1.924,1.924,0,0,1,.8.2,2.139,2.139,0,0,1,1.121,1.356,2.128,2.128,0,0,1-.086,1.325l-.052.121H7.234a4.871,4.871,0,0,1-.685-.022l.086-.177a.633.633,0,0,0-.124-.779,1.4,1.4,0,0,0-.345-.182c-.273-.1-.381-.191-.353-.284.047-.157.232-.2.428-.1.135.069.2.069.279,0a.17.17,0,0,0,.064-.155c0-.116-.086-.207-.248-.268a.168.168,0,0,1-.119-.133.225.225,0,0,0-.207-.166.236.236,0,0,0-.182.193c0,.055-.017.086-.058.1a.725.725,0,0,0-.306.3.577.577,0,0,0-.058.265c0,.268.116.411.464.566.42.185.414.182.422.3.025.284-.246.4-.569.251-.182-.083-.2-.086-.3-.008-.066.052-.075.072-.061.179l.014.119H4.139l-.052-.124a2.11,2.11,0,0,1,.138-1.847,1.228,1.228,0,0,0,.11-.243.249.249,0,0,0-.058-.116.206.206,0,0,0-.312-.006,2.767,2.767,0,0,0-.348.734,2.613,2.613,0,0,0,0,1.392c.028.091.052.177.052.188s-.34.022-.751.028c-.745.008-.757.008-.906.08a1.306,1.306,0,0,0-.26.163c-.1.088-.11.091-.191.058a3.491,3.491,0,0,0-.624-.185L.8-507.211v-2.027l.16-.019a2.377,2.377,0,0,0,1.7-1.251,2.807,2.807,0,0,0,.21-.7.169.169,0,0,1,.019-.094c.008-.011,1.433-.019,3.161-.019H9.194Zm1.753-.011a.517.517,0,0,1,.276.284,2.5,2.5,0,0,1,.041.715v.613l-.116-.019a2.342,2.342,0,0,1-.652-.243,2.334,2.334,0,0,1-.351-.284,2.333,2.333,0,0,1-.284-.351,2.342,2.342,0,0,1-.243-.652l-.019-.116h.618C10.76-511.317,10.851-511.308,10.948-511.264ZM1.212-506.7c.174.061.182.069.174.146-.006.044-.017.384-.022.754l-.017.671-.11-.014a.542.542,0,0,1-.373-.3C.8-505.551.8-505.59.8-506.175v-.621l.116.019A2.593,2.593,0,0,1,1.212-506.7Zm6.21,3.148a.99.99,0,0,1,.552.781l.014.177H.406l.017-.16a.988.988,0,0,1,.621-.823l.157-.066,3.037.008,3.037.006Zm.558,1.7v.331H.414v-.663H7.98Zm-.006,1.924-.008,1.182-.075.157a1.039,1.039,0,0,1-.48.48l-.163.08H1.173l-.166-.077a1.064,1.064,0,0,1-.5-.5l-.077-.168L.42-499.935.411-501.1H7.982Z" transform="translate(0 0)" fill="#fff"/>
    <path id="Path_3875" data-name="Path 3875" d="M325.309-408.479a.588.588,0,0,0-.384.3.64.64,0,0,0,0,.641.643.643,0,0,0,1.193-.19A.654.654,0,0,0,325.309-408.479Zm.334.461a.235.235,0,0,1-.249.387.229.229,0,0,1,.088-.442A.221.221,0,0,1,325.643-408.017Z" transform="translate(-315.868 -100.372)" fill="#fff"/>
    <path id="Path_3876" data-name="Path 3876" d="M65.91-408.03a.64.64,0,0,0,.323,1.2.646.646,0,0,0,.516-1.035A.657.657,0,0,0,65.91-408.03Zm.417.342a.231.231,0,0,1-.179.425.233.233,0,0,1-.014-.425C66.238-407.732,66.219-407.732,66.327-407.688Z" transform="translate(-63.775 -100.746)" fill="#fff"/>
    <path id="Path_3877" data-name="Path 3877" d="M24.127-114.945a.206.206,0,0,0,0,.273c.072.072.21.1.461.08s.315-.064.315-.215c0-.168-.052-.193-.409-.193C24.219-115,24.177-114.994,24.127-114.945Z" transform="translate(-23.41 -385.769)" fill="#fff"/>
    <path id="Path_3878" data-name="Path 3878" d="M59.2-114.928a.165.165,0,0,0,.008.251c.066.075.072.077.362.077s.3,0,.362-.077a.165.165,0,0,0,.008-.251c-.055-.069-.064-.072-.37-.072S59.256-115,59.2-114.928Z" transform="translate(-57.514 -385.769)" fill="#fff"/>
    <path id="Path_3879" data-name="Path 3879" d="M95.047-114.95A.24.24,0,0,0,95-114.8c0,.146.072.193.315.21s.389-.008.461-.08a.206.206,0,0,0,0-.273c-.05-.05-.091-.055-.367-.055S95.086-114.992,95.047-114.95Z" transform="translate(-92.377 -385.769)" fill="#fff"/>
    <path id="Path_3880" data-name="Path 3880" d="M130.127-114.945a.206.206,0,0,0,0,.273c.072.072.21.1.467.08.174-.011.218-.025.26-.077a.228.228,0,0,0,.006-.271c-.039-.058-.064-.061-.359-.061C130.219-115,130.177-114.994,130.127-114.945Z" transform="translate(-126.483 -385.769)" fill="#fff"/>
    <path id="Path_3881" data-name="Path 3881" d="M401.767-312.945a.262.262,0,0,0-.091.179c-.008.072-.033.124-.052.124a.8.8,0,0,0-.348.273.665.665,0,0,0,.017.8,1.878,1.878,0,0,0,.663.378.954.954,0,0,1,.254.13.388.388,0,0,1-.047.533c-.08.075-.1.083-.312.091a.525.525,0,0,1-.359-.061c-.166-.088-.268-.091-.345-.008a.2.2,0,0,0-.022.254,1,1,0,0,0,.431.224c.119.03.124.036.141.144.019.149.066.2.191.2s.2-.069.213-.226c.014-.11.022-.124.13-.168a.87.87,0,0,0,.232-.163.773.773,0,0,0,.066-1.077,1.063,1.063,0,0,0-.494-.284c-.4-.152-.505-.257-.442-.447.072-.215.318-.271.607-.133.146.069.16.069.237.028a.2.2,0,0,0,.1-.26c-.019-.052-.08-.1-.224-.168-.182-.088-.2-.1-.215-.2a.261.261,0,0,0-.207-.215A.25.25,0,0,0,401.767-312.945Z" transform="translate(-390.013 -193.236)" fill="#fff"/>
    <path id="Path_3882" data-name="Path 3882" d="M90.2-290.928a.165.165,0,0,0,.008.251l.066.077,3.766.008c2.068,0,3.8,0,3.854-.008a.205.205,0,0,0,.144-.34L97.982-291H90.256Z" transform="translate(-87.658 -214.629)" fill="#fff"/>
    <path id="Path_3883" data-name="Path 3883" d="M306.188-258.893a.214.214,0,0,0-.064.331c.052.052.091.055.936.055h.884l.055-.072a.18.18,0,0,0-.055-.3,3.189,3.189,0,0,0-.886-.039A8.646,8.646,0,0,0,306.188-258.893Z" transform="translate(-297.621 -245.825)" fill="#fff"/>
    <path id="Path_3884" data-name="Path 3884" d="M321.792-166.945a.215.215,0,0,0,.011.284l.061.061h3.7l.052-.066a.228.228,0,0,0,.008-.273l-.041-.061h-1.872C321.872-167,321.842-167,321.792-166.945Z" transform="translate(-312.86 -335.205)" fill="#fff"/>
    <path id="Path_3885" data-name="Path 3885" d="M321.669-135.936a.2.2,0,0,0-.014.3c.061.047.157.05,1.911.05,1.811,0,1.847,0,1.9-.055a.206.206,0,0,0-.017-.3c-.072-.058-.094-.058-1.891-.058h-1.817Z" transform="translate(-312.712 -365.349)" fill="#fff"/>
    <path id="Path_3886" data-name="Path 3886" d="M321.489-103.915a.251.251,0,0,0-.077.1.152.152,0,0,0-.008.163.215.215,0,0,0,.083.108c.03.017.757.028,1.869.028,1.8,0,1.822,0,1.894-.058a.186.186,0,0,0,0-.3c-.072-.058-.094-.058-1.9-.055C322.348-103.932,321.508-103.923,321.489-103.915Z" transform="translate(-312.51 -396.531)" fill="#fff"/>
  </g>
</svg>
