<svg xmlns="http://www.w3.org/2000/svg" width="33.715" height="33.741" viewBox="0 0 33.715 33.741">
  <g id="key" transform="translate(-21 490.912)">
    <path id="Path_3448" data-name="Path 3448" d="M34.858-490.811a1.646,1.646,0,0,0-.56.337c-.424.409-.474.574-.517,1.7l-.036,1.027-.646.23c-.359.129-.962.381-1.343.56l-.689.33-.632-.639a5.356,5.356,0,0,0-.933-.783,1.631,1.631,0,0,0-1.285-.007,42.944,42.944,0,0,0-4.38,4.4,1.633,1.633,0,0,0,.036,1.235,5.352,5.352,0,0,0,.783.934l.639.632-.33.689c-.18.381-.431.984-.56,1.343l-.23.646-1.027.036c-1.127.043-1.292.093-1.7.51s-.445.661-.445,3.583.029,3.159.445,3.583.574.467,1.7.51l1.027.036.23.646c.129.359.381.962.56,1.343l.33.689-.639.632a5.353,5.353,0,0,0-.783.933,1.633,1.633,0,0,0-.036,1.235,42.941,42.941,0,0,0,4.38,4.4,1.631,1.631,0,0,0,1.285-.007,5.356,5.356,0,0,0,.933-.783l.632-.639.689.33c.381.18.984.431,1.343.56l.646.23.036,1.027c.043,1.127.093,1.292.51,1.7s.661.445,3.583.445,3.159-.029,3.583-.445.467-.574.51-1.7L42-460.345l.646-.23c.359-.129.962-.38,1.343-.56l.689-.33.632.639a5.356,5.356,0,0,0,.933.783,1.631,1.631,0,0,0,1.285.007,42.94,42.94,0,0,0,4.38-4.4,1.652,1.652,0,0,0-.036-1.242,3.859,3.859,0,0,0-.639-.783c-.388-.373-.546-.474-.711-.474a.581.581,0,0,0-.517.517,2.524,2.524,0,0,0,.5.668c.373.395.5.582.5.732s-.33.531-1.96,2.154c-1.644,1.651-1.989,1.96-2.161,1.96s-.373-.165-1.084-.862a5.967,5.967,0,0,0-.991-.862,8.089,8.089,0,0,0-1.063.467,16.989,16.989,0,0,1-1.752.725,5.252,5.252,0,0,0-.912.366c-.115.1-.129.258-.129,1.278,0,1.07-.014,1.178-.151,1.357l-.144.187H35.08l-.144-.187c-.136-.18-.151-.287-.151-1.357,0-1.02-.014-1.178-.122-1.271a4.83,4.83,0,0,0-.933-.381,18.3,18.3,0,0,1-1.752-.725,8.449,8.449,0,0,0-1.048-.46,5.967,5.967,0,0,0-.991.862c-.711.7-.919.862-1.084.862s-.517-.309-2.161-1.96-1.96-1.989-1.96-2.161.165-.373.862-1.084a5.967,5.967,0,0,0,.862-.991A8.459,8.459,0,0,0,26-468.15a18.3,18.3,0,0,1-.725-1.752,4.825,4.825,0,0,0-.381-.933c-.093-.108-.251-.122-1.271-.122-1.07,0-1.178-.014-1.357-.151l-.187-.144v-5.586l.187-.144c.18-.136.287-.151,1.357-.151,1.02,0,1.178-.014,1.278-.129a5.249,5.249,0,0,0,.366-.912,16.975,16.975,0,0,1,.725-1.752,8.1,8.1,0,0,0,.467-1.063,5.964,5.964,0,0,0-.862-.991c-.7-.711-.862-.919-.862-1.084s.309-.517,1.96-2.161,1.989-1.96,2.161-1.96.373.165,1.084.862a5.966,5.966,0,0,0,.991.862,8.449,8.449,0,0,0,1.048-.46,18.309,18.309,0,0,1,1.752-.725,4.822,4.822,0,0,0,.933-.381c.108-.093.122-.251.122-1.271,0-1.07.014-1.178.151-1.357l.144-.187h5.586l.144.187c.136.18.151.287.151,1.357,0,1.02.014,1.177.129,1.278a5.254,5.254,0,0,0,.912.366,16.956,16.956,0,0,1,1.752.725,8.094,8.094,0,0,0,1.063.467,5.966,5.966,0,0,0,.991-.862c.711-.7.919-.862,1.084-.862s.517.309,2.161,1.96c1.63,1.623,1.96,1.989,1.96,2.154s-.129.337-.5.732a2.525,2.525,0,0,0-.5.668.581.581,0,0,0,.517.517c.165,0,.323-.1.711-.474a3.861,3.861,0,0,0,.639-.783,1.652,1.652,0,0,0,.036-1.242,42.943,42.943,0,0,0-4.38-4.4,1.631,1.631,0,0,0-1.285.007,5.356,5.356,0,0,0-.933.783l-.632.639-.689-.33c-.381-.18-.984-.431-1.343-.56l-.646-.23-.036-1.027c-.043-1.127-.093-1.292-.51-1.7s-.653-.445-3.612-.438A17.882,17.882,0,0,0,34.858-490.811Z" transform="translate(0 0)" fill="#ed1c24"/>
    <path id="Path_3449" data-name="Path 3449" d="M122.779-397.55a10.2,10.2,0,0,0-7.575,5.6,9.308,9.308,0,0,0-1.02,4.847,9.519,9.519,0,0,0,.187,1.8,10.261,10.261,0,0,0,8.056,7.877,12.769,12.769,0,0,0,4.014-.036,12.609,12.609,0,0,0,2.513-.876,13.34,13.34,0,0,0,1.924-1.271c.294-.287.316-.589.043-.8s-.395-.187-.8.115a9.218,9.218,0,0,1-6.2,2,9.189,9.189,0,0,1-8.588-7.331,11.868,11.868,0,0,1-.108-2.987,9.749,9.749,0,0,1,1.723-4.287,9.187,9.187,0,0,1,10.232-3.281,9.466,9.466,0,0,1,2.937,1.565c.4.3.531.323.8.115s.251-.524-.079-.826a10.71,10.71,0,0,0-4.473-2.147A14.273,14.273,0,0,0,122.779-397.55Z" transform="translate(-86.485 -86.583)" fill="#ed1c24"/>
    <path id="Path_3450" data-name="Path 3450" d="M159.393-355.314a7.5,7.5,0,0,0-3.3,1.192,9.52,9.52,0,0,0-1.9,1.9l-.273.416h-4.344c-2.858,0-4.394.029-4.488.072-.136.079-2.5,2.865-2.75,3.245a.484.484,0,0,0-.086.381,12.951,12.951,0,0,0,1.788,1.673c.955.819,1.831,1.558,1.946,1.651l.208.158h7.726l.287.416a7.269,7.269,0,0,0,4.488,2.994,8.77,8.77,0,0,0,2.807,0,6.981,6.981,0,0,0,3.5-1.824,7.084,7.084,0,0,0,.043-10.318A7.1,7.1,0,0,0,159.393-355.314Zm1.881,1.1a5.985,5.985,0,0,1,3.044,1.572,5.892,5.892,0,0,1,1.9,4.373,5.828,5.828,0,0,1-1.788,4.373,5.906,5.906,0,0,1-2.448,1.515,6.7,6.7,0,0,1-3.037.172,6.106,6.106,0,0,1-3.863-2.556c-.194-.294-.4-.61-.46-.7l-.115-.158h-7.934l-1.529-1.307a14.224,14.224,0,0,1-1.493-1.371c.007-.036.474-.61,1.02-1.278l1.005-1.213H154.5l.115-.165c.065-.086.237-.352.388-.589a6.253,6.253,0,0,1,4.172-2.714A8.991,8.991,0,0,1,161.274-354.216Z" transform="translate(-112.544 -125.832)" fill="#ed1c24"/>
    <path id="Path_3451" data-name="Path 3451" d="M178.632-283.368c-.531.531-.632.668-.632.862a.5.5,0,0,0,.474.517c.136,0,.33-.144.7-.5l.524-.5h4.559c4.509,0,4.567,0,4.753-.151a.489.489,0,0,0,.072-.7l-.108-.158h-9.715Z" transform="translate(-145.727 -192.055)" fill="#ed1c24"/>
    <path id="Path_3452" data-name="Path 3452" d="M406.957-283.813a2.055,2.055,0,0,0-.266,3.669,2.342,2.342,0,0,0,1.723.129,2.489,2.489,0,0,0,1.12-1.005,2.5,2.5,0,0,0,0-1.8,2.413,2.413,0,0,0-1.027-.962A2.431,2.431,0,0,0,406.957-283.813Zm1.249,1.034a1.32,1.32,0,0,1,.373.373,1.024,1.024,0,0,1-1.371,1.386,1.1,1.1,0,0,1-.388-1.407A1.015,1.015,0,0,1,408.206-282.779Z" transform="translate(-357.064 -192.127)" fill="#ed1c24"/>
  </g>
</svg>
