<svg xmlns="http://www.w3.org/2000/svg" width="42" height="39" viewBox="0 0 42 39">
  <g id="Group_18113" data-name="Group 18113" transform="translate(-14.916 -12)">
    <g id="Rectangle_2477" data-name="Rectangle 2477" transform="translate(14.916 12)" fill="none" stroke="#000" stroke-width="0.5">
      <rect width="42" height="39" rx="7" stroke="none"/>
      <rect x="0.25" y="0.25" width="41.5" height="38.5" rx="6.75" fill="none"/>
    </g>
    <g id="frying-pan" transform="translate(26.118 532.313)">
      <path id="Path_3136" data-name="Path 3136" d="M.969-511.716a1.43,1.43,0,0,0-.434.292,1.265,1.265,0,0,0,.88,2.168,1.272,1.272,0,0,0,.91-2.177A1.307,1.307,0,0,0,.969-511.716Zm.713.713a.549.549,0,0,1,.275.618.641.641,0,0,1-.429.4.586.586,0,0,1-.58-.3.539.539,0,0,1,.245-.73A.508.508,0,0,1,1.682-511Z" transform="translate(-0.018)" fill="#ed1c24"/>
      <path id="Path_3137" data-name="Path 3137" d="M173.207-502.89a2,2,0,0,0-1.314,1.649,2.292,2.292,0,0,0,.326,1.486l.146.228-.142.1a5.712,5.712,0,0,1-.511.275c-.52.245-.713.5-.713.94,0,.352.09.494.721,1.129.661.67.82.773,1.168.773.455,0,.717-.219,1.031-.859a1.984,1.984,0,0,1,.283-.472.165.165,0,0,1,.137.043,2.616,2.616,0,0,0,.889.378,2.187,2.187,0,0,0,2.2-.949,2.5,2.5,0,0,0-.077-2.276,5.774,5.774,0,0,0-2.379-2.3A2.687,2.687,0,0,0,173.207-502.89Zm1.357.769a4.715,4.715,0,0,1,2.272,2.323,1.268,1.268,0,0,1-.842,1.825,1.494,1.494,0,0,1-1.451-.412c-.215-.2-.262-.219-.378-.2-.253.052-.605.477-.928,1.112-.176.356-.21.4-.326.408s-.189-.052-.657-.52c-.683-.687-.683-.687-.069-1a2.984,2.984,0,0,0,.928-.631c.232-.232.219-.352-.056-.666a1.509,1.509,0,0,1-.425-.8,1.389,1.389,0,0,1,.657-1.469.968.968,0,0,1,.631-.1A1.634,1.634,0,0,1,174.564-502.122Z" transform="translate(-163.526 -8.439)" fill="#ed1c24"/>
      <path id="Path_3138" data-name="Path 3138" d="M31.295-477.863a1.1,1.1,0,0,0-.215.279c-.064.12-.137.206-.163.2A1.8,1.8,0,0,0,29.5-477.4a2.1,2.1,0,0,0-.829.7,5.787,5.787,0,0,1-1.851,1.469A1.257,1.257,0,0,0,26-474.045a1.114,1.114,0,0,0,.335.855,1.311,1.311,0,0,0,1.245.365,6.415,6.415,0,0,0,2.585-.872,5.043,5.043,0,0,0,1.5-1.49,1.555,1.555,0,0,0-.026-1.477l-.107-.223.155-.275c.189-.339.2-.472.03-.64A.3.3,0,0,0,31.295-477.863Zm-.618,1.194a.913.913,0,0,1,.369,1.086,4.288,4.288,0,0,1-1.116,1.164,5.233,5.233,0,0,1-2.8.876.53.53,0,0,1-.249-.15.375.375,0,0,1-.146-.339c0-.266.1-.374.584-.627a6.643,6.643,0,0,0,2.014-1.653c.361-.412.537-.507.906-.485A.74.74,0,0,1,30.676-476.669Z" transform="translate(-24.752 -32.419)" fill="#ed1c24"/>
      <path id="Path_3139" data-name="Path 3139" d="M299.995-357.867a1.172,1.172,0,0,0-.58.571,1.576,1.576,0,0,0,0,1.129,1.449,1.449,0,0,0,.58.58,1.576,1.576,0,0,0,1.129,0,1.172,1.172,0,0,0,.571-.58,1,1,0,0,0,.133-.571A1.231,1.231,0,0,0,300.561-358,.991.991,0,0,0,299.995-357.867Zm.85.661a.521.521,0,0,1,.258.472.527.527,0,0,1-.558.537c-.155,0-.206-.026-.348-.167s-.167-.193-.167-.348A.546.546,0,0,1,300.845-357.206Z" transform="translate(-286.329 -147.193)" fill="#ed1c24"/>
      <path id="Path_3140" data-name="Path 3140" d="M3.725-332.518c-2.186.344-3.8,1.795-3.555,3.2a2.155,2.155,0,0,0,1.576,1.67,2.021,2.021,0,0,0,.7.056c.245-.013.447-.017.447-.017s.017.266.034.588c.026.554.039.6.159.794a1.1,1.1,0,0,0,.335.339.708.708,0,0,0,.494.125,2.466,2.466,0,0,0,.97-.271,7.614,7.614,0,0,0,.842-.369,1,1,0,0,0,.382-.777,1.028,1.028,0,0,0-.344-.769,2.7,2.7,0,0,1-.429-.6.419.419,0,0,1,.12-.082,2.623,2.623,0,0,0,.747-.734,1.99,1.99,0,0,0,.326-1.284,1.536,1.536,0,0,0-.15-.726,2.126,2.126,0,0,0-1.98-1.164A4.119,4.119,0,0,0,3.725-332.518Zm1.258.824a1.084,1.084,0,0,1,.816,1.086,1.2,1.2,0,0,1-.082.6,1.528,1.528,0,0,1-.846.837c-.429.159-.49.335-.266.807a3.335,3.335,0,0,0,.588.876c.18.2.223.335.146.455a10.253,10.253,0,0,1-1.447.567.3.3,0,0,1-.15-.09c-.077-.077-.086-.125-.069-.275a3.849,3.849,0,0,0-.142-1.194c-.142-.459-.3-.532-.773-.352a1.6,1.6,0,0,1-1.108-.082,1.246,1.246,0,0,1-.636-1.679,2.877,2.877,0,0,1,1-1,5.868,5.868,0,0,1,1.9-.666A2.966,2.966,0,0,1,4.983-331.693Z" transform="translate(-0.008 -171.559)" fill="#ed1c24"/>
      <path id="Path_3141" data-name="Path 3141" d="M196.475-332.819c-.189.15-.189.3,0,.657l.167.313-.1.172a1.721,1.721,0,0,0-.21.958c.112.953,1.4,2.117,2.881,2.615a5.17,5.17,0,0,0,1.962.309,1.241,1.241,0,0,0,.885-1.739,1.64,1.64,0,0,0-.816-.717,6.468,6.468,0,0,1-1.984-1.675,1.694,1.694,0,0,0-1.769-.515.82.82,0,0,1-.288.064.847.847,0,0,1-.137-.223C196.918-332.9,196.686-332.982,196.475-332.819Zm1.928,1.134a1.222,1.222,0,0,1,.438.378,7,7,0,0,0,2.117,1.73c.438.223.58.464.451.764-.09.223-.245.309-.55.3a5.975,5.975,0,0,1-2.031-.537,3.768,3.768,0,0,1-1.743-1.632.918.918,0,0,1,.49-1A.9.9,0,0,1,198.4-331.685Z" transform="translate(-187.769 -171.215)" fill="#ed1c24"/>
      <path id="Path_3142" data-name="Path 3142" d="M163.179-229.784a1.413,1.413,0,0,0-.7.666,1.29,1.29,0,0,0,.309,1.469,1.211,1.211,0,0,0,.855.326,1.211,1.211,0,0,0,.855-.326,1.265,1.265,0,0,0,0-1.881,1.51,1.51,0,0,0-.412-.258A1.61,1.61,0,0,0,163.179-229.784Zm.85.82a.533.533,0,0,1-.1.824.541.541,0,0,1-.713-.794.461.461,0,0,1,.481-.176A.385.385,0,0,1,164.029-228.964Z" transform="translate(-155.263 -269.84)" fill="#ed1c24"/>
      <path id="Path_3143" data-name="Path 3143" d="M20.27-221.6c-.459.137-4.187,1.7-4.333,1.821a2.07,2.07,0,0,0-.283.3c-.12.163-.18.2-.88.459l-.751.288-6.677.009c-7.472.009-6.815-.021-7.072.318-.116.15-.12.176-.133.76a5.042,5.042,0,0,0,1.511,4,4.84,4.84,0,0,0,2.216,1.318c.661.193,1,.21,3.671.189a14.06,14.06,0,0,0,2.856-.1,5.181,5.181,0,0,0,3.9-3.938l.073-.339.962-.361c.958-.356.966-.361,1.172-.309.421.1.567.056,2.8-.859,2.34-.962,2.383-.983,2.632-1.469a1.439,1.439,0,0,0-.3-1.743A1.569,1.569,0,0,0,20.27-221.6Zm.687.764a.719.719,0,0,1,.2,1.168,17.274,17.274,0,0,1-2.13.94,9.635,9.635,0,0,1-2.237.824.517.517,0,0,1-.4-.125.752.752,0,0,1-.06-1.129c.082-.077,3.216-1.4,4.006-1.692A.627.627,0,0,1,20.957-220.837Zm-5.514,2.667c.047.146.1.3.12.339.034.073.047.069-.8.382l-.335.125.013-.4.013-.4.408-.159c.223-.086.429-.159.451-.163S15.392-218.321,15.444-218.171Zm-1.769.8a4.192,4.192,0,0,1-.631,2.383,5.049,5.049,0,0,1-1.254,1.34,4.976,4.976,0,0,1-1.052.537c-.627.215-.648.219-3.221.236-1.73.013-2.538,0-2.813-.03a4.409,4.409,0,0,1-3.779-3.671,5.738,5.738,0,0,1-.034-1.408C.9-218,3.79-218.008,7.3-218l6.381.013Z" transform="translate(0 -277.692)" fill="#ed1c24"/>
    </g>
  </g>
</svg>
