<svg xmlns="http://www.w3.org/2000/svg" xmlns:xlink="http://www.w3.org/1999/xlink" width="131" height="231" viewBox="0 0 131 231">
  <defs>
    <clipPath id="clip-path">
      <rect id="Rectangle_1921" data-name="Rectangle 1921" width="131" height="231" rx="9" transform="translate(60.581 260)" fill="#fff"/>
    </clipPath>
  </defs>
  <g id="Mask_Group_2" data-name="Mask Group 2" transform="translate(-60.581 -260)" clip-path="url(#clip-path)">
    <g id="order-food" transform="translate(61 288.725)">
      <path id="Path_3508" data-name="Path 3508" d="M67.23-360.46l-.968.93v169.754l.968.93.93.968H175.932l.93-.968.968-.93v-32.192h8.329c8.368,0,8.368,0,9.3-.968l.968-.93v-51.988l-.968-.93c-.93-.968-.93-.968-9.3-.968H177.83V-359.53l-.968-.93-.93-.968H68.16Zm104.4,8.329v3.1H72.46v-6.2h99.171Zm0,41.838v32.541H130.142l-.93.968-.968.93v51.988l.968.93.93.968h41.489v9.3H72.46V-342.834h99.171Zm18.595,60.433v21.694H134.442v-43.388h55.784Zm-18.595,49.586v6.2H72.46v-12.4h99.171Z" transform="translate(-66.262 361.429)" fill="#fff"/>
      <path id="Path_3509" data-name="Path 3509" d="M140.039-312.274c-.93.93-.968,1.085-.968,7.05v6.121l-1.821.968a21.316,21.316,0,0,0-9.917,13.481l-.465,2.4h-2.247c-1.859,0-2.4.155-3.177.968-.968.93-.968,1.007-.968,8.329s0,7.4.968,8.329l.93.968h51.988l.93-.968c.968-.93.968-1.007.968-8.329s0-7.4-.968-8.329c-.775-.814-1.317-.968-3.177-.968h-2.247l-.465-2.4a20.492,20.492,0,0,0-9.375-13.094L157.7-299.1l-.039-6.121c0-8.484.5-8.019-9.3-8.019C141.047-313.242,140.969-313.242,140.039-312.274Zm11.428,8.329v3.1h-6.2v-6.2h6.2Zm2.286,10.033c4.726,1.472,8.678,5.733,9.53,10.227l.271,1.433H133.183l.271-1.433c.814-4.416,4.8-8.755,9.375-10.188A20.506,20.506,0,0,1,153.753-293.912Zm16.309,20.958v3.1H126.674v-6.2h43.388Z" transform="translate(-92.584 338.035)" fill="#fff"/>
      <path id="Path_3510" data-name="Path 3510" d="M236.246-173.722c-.93.891-.968,1.123-.968,6.2v5.23h-5.23c-5.075,0-5.307.039-6.2.968a3.02,3.02,0,0,0-.968,2.131,3.02,3.02,0,0,0,.968,2.131c.891.93,1.123.968,6.2.968h5.23v5.23c0,5.075.039,5.307.968,6.2a3.02,3.02,0,0,0,2.131.968,3.02,3.02,0,0,0,2.131-.968c.93-.891.968-1.123.968-6.2v-5.23h5.23c5.075,0,5.307-.039,6.2-.968a2.847,2.847,0,0,0,0-4.261c-.891-.93-1.123-.968-6.2-.968h-5.23v-5.23c0-5.075-.039-5.307-.968-6.2a3.02,3.02,0,0,0-2.131-.968A3.02,3.02,0,0,0,236.246-173.722Z" transform="translate(-142.304 270.763)" fill="#fff"/>
      <path id="Path_3511" data-name="Path 3511" d="M157.588-53.246a3.02,3.02,0,0,0-.968,2.131,3.02,3.02,0,0,0,.968,2.131c.93.968,1.007.968,8.329.968s7.4,0,8.329-.968a3.02,3.02,0,0,0,.968-2.131,3.02,3.02,0,0,0-.968-2.131c-.93-.968-1.007-.968-8.329-.968S158.517-54.214,157.588-53.246Z" transform="translate(-110.132 212.269)" fill="#fff"/>
    </g>
  </g>
</svg>
