<svg xmlns="http://www.w3.org/2000/svg" width="16.113" height="11.581" viewBox="0 0 16.113 11.581">
  <path id="table_1_" data-name="table (1)" d="M-62.832-.372h5.356l1.851,0,1.9,0h3.343a.554.554,0,0,1,.346.241l.042.064.048.072.05.076c.13.194.262.385.4.571.161.211.311.427.459.647l.049.072.043.064a.517.517,0,0,0,.113.132.623.623,0,0,1,.074.4c0,.029,0,.059,0,.089q0,.093,0,.186c0,.095,0,.19,0,.285q0,.091,0,.181v.086c0,.2,0,.2-.056.3a.418.418,0,0,1-.325.079H-49.3v.123q0,1.44,0,2.881,0,.177,0,.354c0,.024,0,.047,0,.071q0,.572,0,1.143t0,1.173q0,.362,0,.724,0,.277,0,.555,0,.114,0,.228,0,.155,0,.31V10.8c0,.028,0,.055,0,.084s0,.036,0,.072a.335.335,0,0,1-.106.192,1.161,1.161,0,0,1-.372.039h-.256l-.265,0h-.169l-.08,0a.478.478,0,0,1-.3-.073.366.366,0,0,1-.1-.3v-.083c0-.03,0-.06,0-.091,0-.048,0-.048,0-.1q0-.161,0-.323,0-.115,0-.231,0-.249,0-.5,0-.36,0-.72,0-.584,0-1.168,0-.567,0-1.135c0-.035,0-.035,0-.071q0-.175,0-.351,0-1.456,0-2.911h-.22v.092q0,1.11,0,2.219,0,.537,0,1.073,0,.468,0,.935,0,.248,0,.5t0,.466q0,.086,0,.171c0,.078,0,.156,0,.234V8.9a.494.494,0,0,1-.169.4c-.08.007-.155.01-.235.011h-.219l-.226,0H-52.2a.339.339,0,0,1-.251-.076.507.507,0,0,1-.085-.362c0-.024,0-.049,0-.074q0-.123,0-.247,0-.09,0-.179,0-.24,0-.481,0-.225,0-.451,0-.66,0-1.319c0-.982,0-1.965,0-2.977H-61.07c0,1.956,0,1.956.006,3.912,0,.378,0,.378,0,.555q0,.186,0,.371,0,.237,0,.473,0,.087,0,.174,0,.117,0,.234v.069a.462.462,0,0,1-.071.3.511.511,0,0,1-.332.073h-.218l-.225,0h-.211a.348.348,0,0,1-.25-.074.593.593,0,0,1-.085-.4V8.77q0-.123,0-.245,0-.088,0-.175,0-.238,0-.477t0-.5q0-.472,0-.943,0-.537,0-1.073,0-1.1,0-2.209h-.22v.122q0,1.428,0,2.856,0,.176,0,.351c0,.023,0,.047,0,.071q0,.567,0,1.133t0,1.163q0,.359,0,.718,0,.275,0,.55,0,.113,0,.226,0,.154,0,.308v.091a.517.517,0,0,1-.106.382.582.582,0,0,1-.372.072h-.77a.5.5,0,0,1-.364-.106.354.354,0,0,1-.035-.193c0-.041,0-.041,0-.084v-.092c0-.032,0-.064,0-.1q0-.163,0-.326,0-.116,0-.233,0-.251,0-.5,0-.363,0-.726,0-.589,0-1.178,0-.572,0-1.145V6.44q0-.177,0-.354,0-1.468,0-2.936l-.072,0h-.094l-.094,0a.348.348,0,0,1-.242-.1.379.379,0,0,1-.039-.189l0-.079q0-.18-.007-.359,0-.094-.005-.189c-.021-.589-.021-.589.157-.786.049-.043.1-.084.149-.125q.071-.086.141-.173c.113-.14.232-.274.353-.407.1-.11.19-.225.282-.339s.187-.215.284-.321.178-.216.263-.328A.442.442,0,0,1-62.832-.372Zm-.34.949-.145.176-.069.085c-.112.137-.232.266-.351.4a.493.493,0,0,0-.188.282h14.338c-.125-.188-.252-.373-.384-.555l-.107-.147-.053-.073q-.137-.19-.272-.381A1.219,1.219,0,0,0-50.528.2c-.065,0-.13,0-.195,0h-.425l-.418,0-.358,0q-1.7-.009-3.4-.011h-.554q-.891,0-1.781-.007-.914-.005-1.828-.006-.513,0-1.027,0-.437,0-.875,0c-.149,0-.3,0-.446,0s-.273,0-.409,0h-.148A.8.8,0,0,0-63.172.577Zm-1.1,1.506v.5h14.934v-.5Zm.533,1.067v7.467h.5V3.15Zm1.851,0V8.735h.251V3.15Zm9.914,0V8.735h.251V3.15Zm1.6,0v7.467h.5V3.15Z" transform="translate(64.867 0.384)" fill="#ed1c24"/>
</svg>
