<svg xmlns="http://www.w3.org/2000/svg" width="17.626" height="17.632" viewBox="0 0 17.626 17.632">
  <g id="setting" transform="translate(0.375 0.618)">
    <path id="Path_3204" data-name="Path 3204" d="M-124.106-.3l.11,0h.5l.39,0h.249l.117,0a.862.862,0,0,1,.655.255l.046.056.048.056a1.1,1.1,0,0,1,.139.513l.013.137.013.141q.013.139.026.278l.011.124a1.56,1.56,0,0,0,.047.283,1.949,1.949,0,0,0,.249.14l.138.068.068.033a.479.479,0,0,1,.144.118c.081.062.081.062.154.046a2.291,2.291,0,0,0,.244-.095l.094-.041c.1-.044.2-.089.3-.135l.2-.093.088-.041a.978.978,0,0,1,.674-.043,1.178,1.178,0,0,1,.521.542l.044.076.093.163c.053.093.107.186.162.278l.112.192.054.091a1.1,1.1,0,0,1,.184.848c-.133.4-.5.595-.829.824l-.078.055-.07.049a.532.532,0,0,0-.231.277,1.254,1.254,0,0,0,.086.856,2.364,2.364,0,0,0,.507.347,1.257,1.257,0,0,1,.618.666,1.326,1.326,0,0,1-.278,1l-.055.095-.111.189-.143.245-.08.137-.035.062a.968.968,0,0,1-.551.471,1.307,1.307,0,0,1-.825-.172l-.267-.126-.185-.088-.086-.04-.077-.037a.125.125,0,0,0-.142.008l-.068.042-.065.036-.066.037-.073.041-.075.042-.148.084-.066.037c-.041.023-.083.045-.125.066a1.265,1.265,0,0,0-.034.217l-.009.068c-.017.135-.029.271-.041.407l-.008.091q-.007.087-.013.175a1.065,1.065,0,0,1-.239.635l-.069.055-.069.057a.6.6,0,0,1-.388.128l-.11,0h-.5l-.39,0h-.249l-.117,0a.862.862,0,0,1-.655-.255l-.046-.056-.048-.056a1.1,1.1,0,0,1-.139-.513l-.013-.137-.013-.141q-.013-.139-.026-.278l-.011-.124a1.671,1.671,0,0,0-.047-.283.813.813,0,0,0-.21-.12,1.549,1.549,0,0,1-.365-.228c-.1-.073-.1-.073-.177-.054-.217.079-.426.172-.635.269l-.2.093-.088.041a1.014,1.014,0,0,1-.671.047A1.645,1.645,0,0,1-128,8.116l-.121-.222-.059-.108c-.071-.127-.146-.252-.223-.376a.894.894,0,0,1-.09-.672c.133-.4.5-.595.829-.824l.079-.055.07-.049a.532.532,0,0,0,.231-.277,1.254,1.254,0,0,0-.086-.856,2.363,2.363,0,0,0-.507-.347,1.257,1.257,0,0,1-.618-.666,1.326,1.326,0,0,1,.278-1l.055-.095.111-.189.143-.245.08-.137.035-.062a.975.975,0,0,1,.551-.471,2.02,2.02,0,0,1,1.258.37l.1.048.081.042a.283.283,0,0,0,.246-.049q.095-.057.187-.118a1.675,1.675,0,0,1,.3-.168c.1-.049.1-.049.127-.156l.01-.123.007-.067c.007-.076.013-.151.019-.227s.014-.178.022-.267q.008-.087.013-.175a1.065,1.065,0,0,1,.239-.635l.069-.055.069-.057A.6.6,0,0,1-124.106-.3Zm.025.8c-.012.1-.021.2-.03.3l-.017.185q-.013.146-.026.292t-.026.281l-.007.088a.892.892,0,0,1-.135.438,2.456,2.456,0,0,1-.275.137,3.072,3.072,0,0,0-.716.438.579.579,0,0,1-.487.112,1.648,1.648,0,0,1-.275-.113l-.074-.035-.231-.11-.233-.11-.144-.069a.583.583,0,0,0-.28-.079.9.9,0,0,0-.117.178l-.067.114-.07.12-.136.232-.065.112c-.053.089-.108.174-.165.259-.075.106-.075.106-.062.188a.347.347,0,0,0,.153.168l.078.055.084.057.169.119.084.059c.142.1.279.207.417.314.069.058.069.058.144.052a.809.809,0,0,1,.056.43,5.713,5.713,0,0,0,.012,1.111.651.651,0,0,1-.068.315.551.551,0,0,1-.137.069c-.073.05-.145.1-.217.153l-.063.045q-.36.26-.717.524a1.03,1.03,0,0,0,.154.4l.036.063.076.132.115.2a1.635,1.635,0,0,0,.306.446l.109-.047.4-.173.174-.075.251-.107.077-.034a.941.941,0,0,1,.533-.079,1.408,1.408,0,0,1,.26.172,3.581,3.581,0,0,0,.66.39.814.814,0,0,1,.317.228.852.852,0,0,1,.04.2l.015.12q.04.37.074.741.009.1.019.205l.011.122c0,.089,0,.089.047.126.1,0,.2,0,.3,0h.859a.321.321,0,0,0,.247-.039c.012-.1.021-.2.03-.3l.017-.185q.013-.146.026-.292t.026-.281l.007-.088a.894.894,0,0,1,.135-.438,2.023,2.023,0,0,1,.258-.135l.149-.07.074-.035a3.1,3.1,0,0,0,.572-.376.57.57,0,0,1,.425-.071,1.646,1.646,0,0,1,.275.113l.074.035.231.11.233.11.144.069a.583.583,0,0,0,.28.079.9.9,0,0,0,.117-.178l.067-.114.07-.12.136-.232.065-.112c.053-.089.108-.174.165-.259.075-.106.075-.106.062-.188a.347.347,0,0,0-.153-.168l-.078-.055-.084-.057-.169-.119-.084-.059c-.142-.1-.279-.207-.417-.314-.069-.058-.069-.058-.144-.052a.808.808,0,0,1-.056-.43A5.712,5.712,0,0,0-120.2,4.6a.651.651,0,0,1,.068-.315.552.552,0,0,1,.137-.069c.073-.05.145-.1.217-.152l.063-.045q.36-.26.717-.524a.941.941,0,0,0-.129-.352l-.058-.1-.061-.106-.06-.1c-.111-.193-.225-.384-.344-.572l-.215.086-.186.074c-.151.06-.3.121-.451.187l-.077.034-.142.064a.833.833,0,0,1-.509.072,1.36,1.36,0,0,1-.264-.174,3.84,3.84,0,0,0-.664-.4c-.26-.125-.26-.125-.311-.222a1.938,1.938,0,0,1-.067-.418l-.009-.091q-.014-.144-.027-.288t-.027-.29q-.008-.09-.017-.18a.361.361,0,0,0-.057-.243c-.1,0-.2,0-.3,0h-.859A.322.322,0,0,0-124.081.5Z" transform="translate(131.795 -0.306)" fill="#fff"/>
    <path id="Path_3205" data-name="Path 3205" d="M-55.346-.1h2.369a2.325,2.325,0,0,1,1.754.535,2.018,2.018,0,0,1,.533,1.538c0,.084,0,.169,0,.253q0,.081,0,.162c0,.025,0,.05,0,.076a.447.447,0,0,1-.156.37.692.692,0,0,1-.412.034.478.478,0,0,1-.206-.275c0-.074-.005-.149-.006-.224l0-.135q0-.106,0-.211A1.334,1.334,0,0,0-51.811,1a1.341,1.341,0,0,0-1.008-.3h-2.086a1.773,1.773,0,0,0-1.324.326,1.057,1.057,0,0,0-.291.774l0,.137q0,.107,0,.215c0,.069,0,.139,0,.208l0,.126a.652.652,0,0,1-.165.345.448.448,0,0,1-.315.054.387.387,0,0,1-.256-.15.74.74,0,0,1-.043-.339V2.3q0-.087,0-.173t0-.175A2.016,2.016,0,0,1-56.772.416,1.866,1.866,0,0,1-56.306.1l.067-.034A2.009,2.009,0,0,1-55.346-.1Z" transform="translate(67.938 14.136)" fill="#fff"/>
    <path id="Path_3206" data-name="Path 3206" d="M-55.346-.1h2.369a2.325,2.325,0,0,1,1.754.535,2.018,2.018,0,0,1,.533,1.538c0,.084,0,.169,0,.253q0,.081,0,.162c0,.025,0,.05,0,.076a.447.447,0,0,1-.156.37.692.692,0,0,1-.412.034.478.478,0,0,1-.206-.275c0-.074-.005-.149-.006-.224l0-.135q0-.106,0-.211A1.334,1.334,0,0,0-51.811,1a1.341,1.341,0,0,0-1.008-.3h-2.086a1.773,1.773,0,0,0-1.324.326,1.057,1.057,0,0,0-.291.774l0,.137q0,.107,0,.215c0,.069,0,.139,0,.208l0,.126a.652.652,0,0,1-.165.345.448.448,0,0,1-.315.054.387.387,0,0,1-.256-.15.74.74,0,0,1-.043-.339V2.3q0-.087,0-.173t0-.175A2.016,2.016,0,0,1-56.772.416,1.866,1.866,0,0,1-56.306.1l.067-.034A2.009,2.009,0,0,1-55.346-.1Z" transform="translate(56.941 14.136)" fill="#fff"/>
    <path id="Path_3207" data-name="Path 3207" d="M-84.921-10.852a1.952,1.952,0,0,1,.7,1.27,1.965,1.965,0,0,1-.469,1.462,1.91,1.91,0,0,1-1.275.607,1.951,1.951,0,0,1-1.443-.543,1.967,1.967,0,0,1-.531-1.413,1.961,1.961,0,0,1,.66-1.35A1.933,1.933,0,0,1-84.921-10.852Zm-2.018.789a1.3,1.3,0,0,0-.206.928,1.07,1.07,0,0,0,.52.7,1.187,1.187,0,0,0,.886.1A1.2,1.2,0,0,0-85.049-9a1.238,1.238,0,0,0-.06-.887,1.184,1.184,0,0,0-.658-.544A1.191,1.191,0,0,0-86.939-10.063Z" transform="translate(100.014 20.876)" fill="#fff"/>
    <path id="Path_3208" data-name="Path 3208" d="M-84.921-10.852a1.952,1.952,0,0,1,.7,1.27,1.965,1.965,0,0,1-.469,1.462,1.91,1.91,0,0,1-1.275.607,1.951,1.951,0,0,1-1.443-.543,1.967,1.967,0,0,1-.531-1.413,1.961,1.961,0,0,1,.66-1.35A1.933,1.933,0,0,1-84.921-10.852Zm-2.018.789a1.3,1.3,0,0,0-.206.928,1.07,1.07,0,0,0,.52.7,1.187,1.187,0,0,0,.886.1A1.2,1.2,0,0,0-85.049-9a1.238,1.238,0,0,0-.06-.887,1.184,1.184,0,0,0-.658-.544A1.191,1.191,0,0,0-86.939-10.063Z" transform="translate(89.017 20.876)" fill="#fff"/>
    <path id="Path_3209" data-name="Path 3209" d="M-84.921-10.852a1.952,1.952,0,0,1,.7,1.27,1.965,1.965,0,0,1-.469,1.462,1.91,1.91,0,0,1-1.275.607,1.951,1.951,0,0,1-1.443-.543,1.967,1.967,0,0,1-.531-1.413,1.961,1.961,0,0,1,.66-1.35A1.933,1.933,0,0,1-84.921-10.852Zm-2.018.789a1.3,1.3,0,0,0-.206.928,1.07,1.07,0,0,0,.52.7,1.187,1.187,0,0,0,.886.1A1.2,1.2,0,0,0-85.049-9a1.238,1.238,0,0,0-.06-.887,1.184,1.184,0,0,0-.658-.544A1.191,1.191,0,0,0-86.939-10.063Z" transform="translate(94.515 14.278)" fill="#fff"/>
  </g>
</svg>
