<svg xmlns="http://www.w3.org/2000/svg" width="9.077" height="9.112" viewBox="0 0 9.077 9.112">
  <g id="Group_15180" data-name="Group 15180" transform="translate(0 0)">
    <path id="Path_2469" data-name="Path 2469" d="M367.777,218.063h1.7l.534.41,1.527,1.38v3.09l-.257,3.669h-6.051l-1.417-.359-.938-1.287.147-1.269s.014.354.46-.754c.13-.324.338.186.552-.4a.789.789,0,0,0,.883-.386,8.372,8.372,0,0,0,.1-2.851v-.829l1.094-.41.709.2.2-.2Z" transform="translate(-362.599 -217.782)" fill="#0d2798" opacity="0.12"/>
    <g id="file" transform="translate(0 0)">
      <path id="Path_2486" data-name="Path 2486" d="M3.884-511.9a.759.759,0,0,0-.376.215.761.761,0,0,0-.219.4c-.014.066-.02.637-.02,1.887v1.795l-.171.032a2.318,2.318,0,0,0-1.262.677,2.208,2.208,0,0,0-.577.928,2.4,2.4,0,0,0,.292,2.11,2.772,2.772,0,0,0,.285.331,2.364,2.364,0,0,0,1.211.671l.16.037,3.125.007c2.29,0,3.153,0,3.231-.014a.9.9,0,0,0,.426-.231.89.89,0,0,0,.2-.388c.014-.068.02-.99.02-3.29,0-2.891,0-3.2-.028-3.253-.039-.078-1.816-1.859-1.9-1.9a13.488,13.488,0,0,0-2.19-.032C4.46-511.924,3.953-511.919,3.884-511.9ZM7.9-510.61c0,.751,0,.787.036.855a.238.238,0,0,0,.107.107c.068.034.1.036.855.036h.783v3.027a22.983,22.983,0,0,1-.036,3.1.238.238,0,0,1-.107.107,13.059,13.059,0,0,1-2.274.036h-2.2l.18-.183a2.358,2.358,0,0,0,.659-1.248l.032-.171H7.341a6.151,6.151,0,0,0,1.483-.036.281.281,0,0,0,.142-.231.281.281,0,0,0-.142-.231,6.145,6.145,0,0,0-1.483-.036H5.926l-.011-.085a2.641,2.641,0,0,0-.288-.826,1.542,1.542,0,0,1-.078-.148c0-.005.721-.009,1.6-.009a7.581,7.581,0,0,0,1.674-.036.281.281,0,0,0,.142-.231.281.281,0,0,0-.142-.231,9.7,9.7,0,0,0-1.923-.036H5.048l-.093-.068a2.474,2.474,0,0,0-1.066-.442l-.085-.011V-509.4c0-2.014-.009-1.866.135-1.953l.069-.043H7.9Zm.97.036.427.427H8.432v-.427c0-.235,0-.427.005-.427S8.634-510.81,8.869-510.575Zm-4.9,3.539a1.94,1.94,0,0,1,.892.5,1.943,1.943,0,0,1,.5.892,1.487,1.487,0,0,1,.036.427,1.5,1.5,0,0,1-.128.7,1.939,1.939,0,0,1-1.025,1.026,1.5,1.5,0,0,1-.7.128,1.5,1.5,0,0,1-.7-.128,1.939,1.939,0,0,1-1.025-1.026,1.529,1.529,0,0,1-.13-.694,1.575,1.575,0,0,1,.141-.741,1.924,1.924,0,0,1,1.442-1.12A2.571,2.571,0,0,1,3.964-507.035Z" transform="translate(-1.135 511.926)" fill="#0d2798"/>
      <path id="Path_2487" data-name="Path 2487" d="M191.139-329.963a.285.285,0,0,0-.139.23.281.281,0,0,0,.142.231,11.168,11.168,0,0,0,2.083.036,11.168,11.168,0,0,0,2.083-.036.281.281,0,0,0,.142-.231.281.281,0,0,0-.142-.231,11.2,11.2,0,0,0-2.087-.036A11.264,11.264,0,0,0,191.139-329.963Z" transform="translate(-187.62 333.239)" fill="#0d2798"/>
      <path id="Path_2488" data-name="Path 2488" d="M121.139-209.741a.255.255,0,0,0-.1.105c-.034.066-.036.1-.036.659s0,.593.036.659a.239.239,0,0,0,.107.107c.064.032.1.036.481.036s.417,0,.481-.036a.281.281,0,0,0,.142-.231.281.281,0,0,0-.142-.231c-.061-.03-.105-.036-.32-.036h-.249v-.427c0-.4,0-.434-.036-.5A.26.26,0,0,0,121.139-209.741Z" transform="translate(-118.866 215.154)" fill="#0d2798"/>
    </g>
  </g>
</svg>
