<svg xmlns="http://www.w3.org/2000/svg" width="16.078" height="13.392" viewBox="0 0 16.078 13.392">
  <g id="list-items_2_" data-name="list-items (2)" transform="translate(-15.85 456)">
    <path id="Path_3057" data-name="Path 3057" d="M16.391-455.956a1.067,1.067,0,0,0-.5.512c-.06.2-.06,12.079,0,12.28a.994.994,0,0,0,.516.516c.107.03,1.815.04,7.486.04,8.286,0,7.54.027,7.8-.268a.915.915,0,0,0,.184-.295c.057-.187.057-5.651,0-5.839a.915.915,0,0,0-.184-.295c-.251-.278-.131-.268-2.8-.268H26.568v-2.8l-1.818-1.815L22.936-456l-3.214,0C17.482-455.993,16.471-455.983,16.391-455.956Zm6.16,1.028v.536H20.817c-2.019,0-1.982,0-2.27.281a.9.9,0,0,0,0,1.306c.295.295.251.288,2.3.288h1.768l.04.1a.914.914,0,0,0,.462.4,12.648,12.648,0,0,0,1.527.04h1.393v2.411h-.187a.756.756,0,0,0-.633.251.76.76,0,0,0-.251.5,13.261,13.261,0,0,1-2.729.054H19.5l-.08.084a.246.246,0,0,0,0,.368l.08.084h5.461v1.339H19.5l-.08.084a.246.246,0,0,0,0,.368l.08.084h5.461v1.339H19.5l-.08.084a.246.246,0,0,0,0,.368l.08.084h5.461v.593c0,.328.01.629.02.67l.02.077H16.555l-.08-.084-.084-.08V-455.3l.084-.08.08-.084h6Zm1.825,1.138,1.272,1.272h-2.4l-.08-.084-.084-.08v-1.192c0-.653,0-1.189.01-1.189S23.676-454.49,24.376-453.79Zm-1.825.335v.405l-1.758-.01-1.758-.01-.107-.111a.293.293,0,0,1-.11-.271.382.382,0,0,1,.234-.372c.037-.017.84-.03,1.784-.03l1.714,0Zm4.553,5.089v.67H25.5v-.586c0-.81-.067-.753.887-.753h.72Zm2.143.653v1.326l-.352-.271c-.258-.194-.382-.268-.452-.268s-.194.074-.452.268l-.352.271v-2.648h1.607Zm2.059-1.239c.084.08.084.09.084.67v.586H29.783v-1.339h.72C31.225-449.036,31.225-449.036,31.306-448.953Zm-4.2,2.216a1.31,1.31,0,0,0,.064.566.51.51,0,0,0,.586.3,1.559,1.559,0,0,0,.4-.241l.291-.218.285.218c.385.295.616.328.854.131.167-.141.2-.258.2-.747v-.435H31.39v3.853l-.084.08-.08.084H25.661l-.08-.084-.084-.08v-3.853H27.1Z" transform="translate(0 0)" fill="#fff"/>
    <path id="Path_3058" data-name="Path 3058" d="M53.415-311.541a2.478,2.478,0,0,1-.489.429c-.017-.02-.077-.1-.137-.177a.506.506,0,0,0-.191-.161.27.27,0,0,0-.321.341,4.5,4.5,0,0,0,.261.382c.221.3.3.362.459.321a6.19,6.19,0,0,0,.67-.616c.522-.526.593-.609.593-.706a.279.279,0,0,0-.271-.271C53.893-312,53.816-311.94,53.415-311.541Z" transform="translate(-35.189 -139.179)" fill="#fff"/>
    <path id="Path_3059" data-name="Path 3059" d="M120.084-295.916a.261.261,0,0,0-.084.184.261.261,0,0,0,.084.184l.08.084h5.564l.08-.084a.261.261,0,0,0,.084-.184.261.261,0,0,0-.084-.184l-.08-.084h-5.564Z" transform="translate(-100.663 -154.643)" fill="#fff"/>
    <path id="Path_3060" data-name="Path 3060" d="M53.415-255.541a2.476,2.476,0,0,1-.489.429c-.017-.02-.077-.1-.137-.177a.507.507,0,0,0-.191-.161.27.27,0,0,0-.321.341,4.5,4.5,0,0,0,.261.382c.221.3.3.362.459.321a6.185,6.185,0,0,0,.67-.616c.522-.526.593-.609.593-.706a.279.279,0,0,0-.271-.271C53.893-256,53.816-255.94,53.415-255.541Z" transform="translate(-35.189 -193.304)" fill="#fff"/>
    <path id="Path_3061" data-name="Path 3061" d="M53.415-199.541a2.476,2.476,0,0,1-.489.429c-.017-.02-.077-.1-.137-.177a.507.507,0,0,0-.191-.161.27.27,0,0,0-.321.341,4.5,4.5,0,0,0,.261.382c.221.3.3.362.459.321a6.187,6.187,0,0,0,.67-.616c.522-.526.593-.609.593-.706a.279.279,0,0,0-.271-.271C53.893-200,53.816-199.94,53.415-199.541Z" transform="translate(-35.189 -247.429)" fill="#fff"/>
    <path id="Path_3062" data-name="Path 3062" d="M53.415-143.541a2.476,2.476,0,0,1-.489.429c-.017-.02-.077-.1-.137-.177a.507.507,0,0,0-.191-.161.27.27,0,0,0-.321.342,4.5,4.5,0,0,0,.261.382c.221.3.3.362.459.321a6.19,6.19,0,0,0,.67-.616c.522-.526.593-.609.593-.706a.279.279,0,0,0-.271-.271C53.893-144,53.816-143.94,53.415-143.541Z" transform="translate(-35.189 -301.554)" fill="#fff"/>
    <path id="Path_3063" data-name="Path 3063" d="M312.084-119.916a.261.261,0,0,0-.084.184.261.261,0,0,0,.084.184l.08.084h1.815l.08-.084a.261.261,0,0,0,.084-.184.261.261,0,0,0-.084-.184l-.08-.084h-1.815Z" transform="translate(-286.235 -324.751)" fill="#fff"/>
    <path id="Path_3064" data-name="Path 3064" d="M312.084-95.916a.261.261,0,0,0-.084.184.261.261,0,0,0,.084.184l.08.084h1.815l.08-.084a.261.261,0,0,0,.084-.184.261.261,0,0,0-.084-.184l-.08-.084h-1.815Z" transform="translate(-286.235 -347.947)" fill="#fff"/>
  </g>
</svg>
