<svg xmlns="http://www.w3.org/2000/svg" width="18.701" height="18.704" viewBox="0 0 18.701 18.704">
  <g id="settings_1_" data-name="settings (1)" transform="translate(0.509 0.655)">
    <path id="Path_2847" data-name="Path 2847" d="M-113-.252h1.647l.691,0h1.461c.265,0,.265,0,.407.112a.493.493,0,0,1,.109.362c0,.042,0,.083,0,.126s0,.092,0,.14,0,.1,0,.148q0,.2,0,.407,0,.219,0,.439,0,.53,0,1.06,0,.25,0,.5,0,.829,0,1.658,0,.215,0,.43c0,.036,0,.071,0,.108q0,.867,0,1.734,0,.89,0,1.779,0,.5,0,1,0,.425,0,.851,0,.217,0,.434,0,.2,0,.4c0,.071,0,.142,0,.212,0,.042,0,.084,0,.127s0,.072,0,.11a.509.509,0,0,1-.227.329,1.229,1.229,0,0,1-.384.034h-1.85l-1.188,0-1.352,0-2.782,0v3.062l.682,0,2.229-.005,1.352,0,1.178,0,.624,0h1.183a.61.61,0,0,1,.443.165.5.5,0,0,1,.073.4c-.109.2-.109.2-.219.255-.106,0-.21.005-.316.005h-3.226l-1.177,0-1.208,0H-116.8a.536.536,0,0,1-.345-.088.363.363,0,0,1-.115-.317V15.6c0-.059,0-.059,0-.118,0-.041,0-.082,0-.124q0-.2,0-.408c0-.046,0-.093,0-.14q0-.33,0-.66,0-.381,0-.762,0-.33,0-.66,0-.14,0-.281c0-.131,0-.262,0-.392,0-.058,0-.058,0-.117,0-.263,0-.263.088-.4a.552.552,0,0,1,.443-.108h.555l.463,0c0-.046,0-.093,0-.141q0-1.652-.005-3.3,0-.2,0-.407c0-.027,0-.054,0-.082q0-.656,0-1.311,0-.673,0-1.345,0-.415,0-.83,0-.318,0-.636,0-.131,0-.261,0-.178,0-.356v-.1a.618.618,0,0,1,.123-.442l.049-.065a.378.378,0,0,1,.267-.056h.128l.138,0h.142l.373,0,.38,0,.746.005V2.019q0-.393-.005-.786,0-.147,0-.293,0-.211,0-.422l0-.132c0-.041,0-.082,0-.124V.154A.41.41,0,0,1-113-.252Zm.409.816V11.427h3.1V9.9l-.474-.036a.907.907,0,0,1-.255-.182.835.835,0,0,1-.016-.175l0-.094c.02-.095.02-.095.2-.277l.547-.036V7.563l-.474-.036a.907.907,0,0,1-.255-.182.835.835,0,0,1-.016-.175l0-.094c.02-.095.02-.095.2-.277l.547-.036V5.231l-.474-.036a.907.907,0,0,1-.255-.182.835.835,0,0,1-.016-.175l0-.094c.02-.095.02-.095.2-.277l.547-.036V2.9l-.474-.036a.907.907,0,0,1-.255-.182.835.835,0,0,1-.016-.175l0-.094c.02-.095.02-.095.2-.277l.547-.036V.565ZM-114.927,2.9V4.429h1.531V2.9Zm0,2.333V6.761h1.531V5.231Zm0,2.333V9.094h1.531V7.563Zm0,2.333v1.531h1.531V9.9Z" transform="translate(116.769 -0.394)" fill="#fff"/>
    <path id="Path_2848" data-name="Path 2848" d="M-113.284-.087h.293l.3,0h.283a1.018,1.018,0,0,1,.759.306A.808.808,0,0,1-111.5.58l.019.115a3.03,3.03,0,0,1,.017.328,1.006,1.006,0,0,0,.127.644,1.835,1.835,0,0,0,.6.3,1.045,1.045,0,0,0,.2-.083l.117-.055.122-.058.239-.112.107-.051a.855.855,0,0,1,.615-.054,1.456,1.456,0,0,1,.7.808l.061.114c.059.11.116.22.174.331l.054.1a1.082,1.082,0,0,1,.109.821,1.3,1.3,0,0,1-.659.6.646.646,0,0,0-.374.347,1.21,1.21,0,0,0,.031.717,1.926,1.926,0,0,0,.574.458.96.96,0,0,1,.447.49,1.281,1.281,0,0,1-.207.938c-.058.1-.112.2-.167.3l-.132.237-.062.115a1.039,1.039,0,0,1-.606.548,1.759,1.759,0,0,1-1.06-.318.678.678,0,0,0-.34-.106l-.086.034-.126.038a.766.766,0,0,0-.385.29,2.885,2.885,0,0,0-.08.666,1.082,1.082,0,0,1-.276.817.717.717,0,0,1-.462.164h-.547l-.352,0h-.225l-.106,0a.861.861,0,0,1-.651-.234,1.461,1.461,0,0,1-.218-.872.984.984,0,0,0-.128-.622.962.962,0,0,0-.614-.293.622.622,0,0,0-.243.108c-.1.052-.2.1-.308.15l-.082.04a1,1,0,0,1-.846.068A1.118,1.118,0,0,1-117,7.875l-.115-.207-.057-.1c-.073-.132-.149-.262-.225-.393a1.249,1.249,0,0,1-.157-.834c.086-.281.359-.451.583-.62l.113-.086c.277-.206.277-.206.361-.206a1.577,1.577,0,0,0-.082-.909,1.537,1.537,0,0,0-.4-.259,1.157,1.157,0,0,1-.556-.534,1.324,1.324,0,0,1,.223-1.056c.053-.094.1-.189.156-.285l.113-.206.053-.1a1.165,1.165,0,0,1,.523-.531,1.467,1.467,0,0,1,1.022.231l.074.036.142.072a.36.36,0,0,0,.284.052l.087-.05.094-.052.093-.057.094-.057c.065-.041.129-.083.193-.125a.92.92,0,0,0,.029-.227l.012-.139q.011-.145.022-.29a1.168,1.168,0,0,1,.372-.9A1.255,1.255,0,0,1-113.284-.087Zm-.188.813-.028.281-.028.27q-.01.094-.019.187-.013.135-.028.27l-.008.084a.713.713,0,0,1-.144.4,2.777,2.777,0,0,1-.269.137,3.236,3.236,0,0,0-.673.421.571.571,0,0,1-.443.062,5.533,5.533,0,0,1-.526-.237l-.21-.1-.188-.092a.215.215,0,0,0-.17-.043q-.111.2-.22.4l-.075.135-.107.194-.065.118a.238.238,0,0,0-.042.182.576.576,0,0,0,.2.2l.1.076.107.079.208.155.094.069c.3.226.3.226.346.4a.963.963,0,0,1-.014.182,3.763,3.763,0,0,0,.016,1,.5.5,0,0,1-.112.311,3.583,3.583,0,0,1-.335.255l-.182.13-.089.063c-.128.091-.254.186-.379.281.173.365.375.711.583,1.057.2-.081.4-.164.6-.258l.082-.04.161-.079a.717.717,0,0,1,.552-.1,1.9,1.9,0,0,1,.324.212,3.162,3.162,0,0,0,.619.35.439.439,0,0,1,.218.206c.019.1.033.2.043.3l.009.088c.01.092.019.184.028.276l.02.188c.016.153.031.306.046.459h1.166l.032-.246.011-.084c.019-.149.034-.3.046-.448l.008-.1q.008-.1.014-.19a.54.54,0,0,1,.181-.428,2.517,2.517,0,0,1,.276-.139,2.707,2.707,0,0,0,.529-.314c.244-.183.244-.183.435-.166a3.35,3.35,0,0,1,.437.182l.086.041.093.044.095.045.188.09.087.042.078.038a.182.182,0,0,0,.138.027l.547-1.021a2.439,2.439,0,0,0-.305-.267l-.091-.066-.094-.068-.271-.2-.186-.134a.436.436,0,0,1-.147-.251.962.962,0,0,1,.014-.182,3.763,3.763,0,0,0-.016-1,.49.49,0,0,1,.177-.373c.081-.067.165-.131.249-.194l.085-.065c.19-.144.385-.279.585-.409a9.8,9.8,0,0,0-.583-1.057,3.016,3.016,0,0,0-.421.168l-.113.054-.233.113c-.381.18-.381.18-.618.139a1.659,1.659,0,0,1-.278-.185,3.737,3.737,0,0,0-.717-.416.283.283,0,0,1-.171-.2c-.016-.1-.029-.2-.039-.3l-.009-.088q-.015-.138-.029-.276l-.02-.188q-.025-.23-.048-.459Z" transform="translate(126.395 7.974)" fill="#fff"/>
    <path id="Path_2849" data-name="Path 2849" d="M-82.564-9.3a2.023,2.023,0,0,1,.818,1.3l.007.087.009.1a2.132,2.132,0,0,1-.481,1.449,2,2,0,0,1-1.346.649,2.021,2.021,0,0,1-1.471-.493,2.029,2.029,0,0,1-.658-1.46,2.083,2.083,0,0,1,.565-1.408A2.038,2.038,0,0,1-82.564-9.3Zm-2.074.941a1.241,1.241,0,0,0-.2.955,1.3,1.3,0,0,0,.618.77,1.231,1.231,0,0,0,.933.033,1.463,1.463,0,0,0,.668-.66,1.284,1.284,0,0,0-.016-.87,1.517,1.517,0,0,0-.736-.67A1.218,1.218,0,0,0-84.639-8.363Z" transform="translate(97.214 20.665)" fill="#fff"/>
    <path id="Path_2850" data-name="Path 2850" d="M-34.1-4.014a.815.815,0,0,1,.3.541.914.914,0,0,1-.158.626.987.987,0,0,1-.654.308.846.846,0,0,1-.543-.223.9.9,0,0,1-.239-.723.782.782,0,0,1,.3-.524A.867.867,0,0,1-34.1-4.014Z" transform="translate(37.218 16.723)" fill="#fff"/>
    <path id="Path_2851" data-name="Path 2851" d="M-11.854-.3l.111,0h.5l.394,0h.251l.119,0c.3,0,.3,0,.439.11a.457.457,0,0,1,.135.382.512.512,0,0,1-.2.3A.484.484,0,0,1-10.35.52h-.614l-.4,0h-.251l-.12,0c-.275,0-.275,0-.417-.087A.514.514,0,0,1-12.3.117a.588.588,0,0,1,.159-.333A.4.4,0,0,1-11.854-.3Z" transform="translate(17.994 13.254)" fill="#fff"/>
  </g>
</svg>
