<svg xmlns="http://www.w3.org/2000/svg" width="18.702" height="18.723" viewBox="0 0 18.702 18.723">
  <g id="editing" transform="translate(0.25 0.265)" opacity="0.1">
    <path id="Path_958" data-name="Path 958" d="M188.853-511.7a2.479,2.479,0,0,0-.285.125c-.089.046-1.734,1.67-4.3,4.235l-4.153,4.16-.278,1.389a5.543,5.543,0,0,0-.235,1.517.643.643,0,0,0,.388.37,10.442,10.442,0,0,0,1.385-.232c.7-.139,1.332-.267,1.4-.285.1-.029.947-.858,4.3-4.21,4.69-4.7,4.341-4.306,4.341-4.872,0-.488-.071-.6-.848-1.378a3.494,3.494,0,0,0-.855-.741A1.4,1.4,0,0,0,188.853-511.7Zm.958,1.588c.484.484.563.577.545.648a2.212,2.212,0,0,1-.345.406l-.321.321-.634-.634-.63-.63.342-.338a1.75,1.75,0,0,1,.41-.338A3.69,3.69,0,0,1,189.811-510.107Zm-1.51,1.517.623.623-3.273,3.273-3.273,3.273-.762.15a6.38,6.38,0,0,1-.784.132,6.758,6.758,0,0,1,.128-.78l.15-.759,3.266-3.269c1.795-1.795,3.273-3.266,3.284-3.266S187.959-508.931,188.3-508.589Z" transform="translate(-173.218 511.732)" stroke="#000" stroke-width="0.5"/>
    <path id="Path_959" data-name="Path 959" d="M2.067-429.9a2,2,0,0,0-1.485,1.311l-.082.239v12.145l.082.235a2,2,0,0,0,1.247,1.25l.239.082H14.212l.239-.082A2.029,2.029,0,0,0,15.7-415.96l.082-.21.011-4.174c.007-4.142.007-4.178-.064-4.32a.562.562,0,0,0-.463-.285.562.562,0,0,0-.463.285c-.071.139-.071.2-.071,4.178,0,4.537.018,4.249-.267,4.53s.224.267-6.322.267-6.033.021-6.322-.267-.267.224-.267-6.322-.021-6.033.267-6.322-.007-.267,4.53-.267c3.978,0,4.039,0,4.178-.071a.562.562,0,0,0,.285-.463.562.562,0,0,0-.285-.463c-.139-.071-.2-.071-4.227-.068C4.051-429.928,2.145-429.914,2.067-429.9Z" transform="translate(-0.5 432.846)" stroke="#000" stroke-width="0.5"/>
  </g>
</svg>
