<svg xmlns="http://www.w3.org/2000/svg" width="8" height="9.963" viewBox="0 0 8 9.963">
  <g id="import-_1_" transform="translate(0 0)">
    <path id="Path_2175" data-name="Path 2175" d="M92.3-468.956a1.082,1.082,0,0,1,.222.1,1.261,1.261,0,0,1,.363.393c.119.234.117.112.117,4.444s0,4.211-.117,4.447a1.319,1.319,0,0,1-.384.4c-.236.138-.058.133-3.549.126l-3.191-.007-.136-.054a1.135,1.135,0,0,1-.508-.482c-.11-.227-.119-.353-.112-1.441l.007-.994H88.5l.007.741,0,.744,1.24-.989c.681-.543,1.237-.992,1.237-1s-.557-.456-1.237-1l-1.24-.989,0,.744-.007.742H85.012L85-464.52l0-1.495,1.49-1.492L87.982-469l2.094,0A13.916,13.916,0,0,1,92.3-468.956Zm-5.064,2.2-1.24,1.24h2.515v-1.24c0-.683-.007-1.24-.019-1.24S87.914-467.437,87.234-466.754Z" transform="translate(-85 469)" fill="#ff7a36"/>
  </g>
</svg>
