<svg xmlns="http://www.w3.org/2000/svg" width="15.634" height="17.356" viewBox="0 0 15.634 17.356">
  <g id="quotation-_1_" transform="translate(-63.85 495.954)">
    <path id="Path_3611" data-name="Path 3611" d="M64.434-495.909a1.153,1.153,0,0,0-.535.553c-.065.217-.065,15.939,0,16.156a1.074,1.074,0,0,0,.557.557c.116.033,1.587.043,6.35.043,7,0,6.411.025,6.693-.289a.872.872,0,0,0,.242-.658v-.2l.329-.018a1.2,1.2,0,0,0,.589-.152,1.362,1.362,0,0,0,.683-.7,1.31,1.31,0,0,0,.127-.705l.014-.459H77.741v-6.711c0-5.084-.011-6.747-.043-6.856a.988.988,0,0,0-.2-.318c-.282-.315.311-.289-6.715-.286C66.358-495.948,64.524-495.938,64.434-495.909Zm12.638.622.09.087v13.419H66.17v.347c0,.463-.047.607-.271.828a.792.792,0,0,1-.864.228,1.074,1.074,0,0,1-.557-.557c-.033-.116-.043-1.772-.043-7.207V-495.2l.09-.087.087-.09H76.985ZM78.9-481.145a.987.987,0,0,1-.6.767c-.116.033-1.508.043-5.988.043H66.47l.119-.235A1.478,1.478,0,0,0,66.73-481l.025-.2h6.071C78.421-481.2,78.9-481.2,78.9-481.145Zm-7.839,1.381,6.1.007v.2c0,.163-.014.213-.09.286l-.087.09H64.611l-.087-.09c-.083-.08-.09-.116-.09-.427v-.336l.26.127.26.13Z" fill="#fff"/>
    <path id="Path_3612" data-name="Path 3612" d="M104-455.711v.289h2.314V-456H104Z" transform="translate(-38.698 -38.509)" fill="#fff"/>
    <path id="Path_3613" data-name="Path 3613" d="M328-455.711v.289h.579V-456H328Z" transform="translate(-254.598 -38.509)" fill="#fff"/>
    <path id="Path_3614" data-name="Path 3614" d="M360-455.711v.289h1.736V-456H360Z" transform="translate(-285.441 -38.509)" fill="#fff"/>
    <path id="Path_3615" data-name="Path 3615" d="M104-423.711v.289h2.893V-424H104Z" transform="translate(-38.698 -69.352)" fill="#fff"/>
    <path id="Path_3616" data-name="Path 3616" d="M328-423.711v.289h2.893V-424H328Z" transform="translate(-254.598 -69.352)" fill="#fff"/>
    <path id="Path_3617" data-name="Path 3617" d="M104-380.529v3.471h10.993V-384H104Zm4.918-2.459v.434h-4.339v-.868h4.339Zm2.893,0v.434H109.5v-.868h2.314Zm2.6,0v.434h-2.025v-.868h2.025Zm-5.5,3.182v2.17h-4.339v-4.339h4.339Zm2.893,0v2.17H109.5v-4.339h2.314Zm2.6,0v2.17h-2.025v-4.339h2.025Z" transform="translate(-38.698 -107.906)" fill="#fff"/>
    <path id="Path_3618" data-name="Path 3618" d="M136-311.711v.289h2.6V-312H136Z" transform="translate(-69.541 -177.302)" fill="#fff"/>
    <path id="Path_3619" data-name="Path 3619" d="M136-279.711v.289h1.736V-280H136Z" transform="translate(-69.541 -208.145)" fill="#fff"/>
    <path id="Path_3620" data-name="Path 3620" d="M136-247.711v.289h1.736V-248H136Z" transform="translate(-69.541 -238.988)" fill="#fff"/>
    <path id="Path_3621" data-name="Path 3621" d="M272-311.711v.289h1.157V-312H272Z" transform="translate(-200.623 -177.302)" fill="#fff"/>
    <path id="Path_3622" data-name="Path 3622" d="M272-279.711v.289h1.157V-280H272Z" transform="translate(-200.623 -208.145)" fill="#fff"/>
    <path id="Path_3623" data-name="Path 3623" d="M272-247.711v.289h1.157V-248H272Z" transform="translate(-200.623 -238.988)" fill="#fff"/>
    <path id="Path_3624" data-name="Path 3624" d="M352-311.711v.289h.868V-312H352Z" transform="translate(-277.731 -177.302)" fill="#fff"/>
    <path id="Path_3625" data-name="Path 3625" d="M352-279.711v.289h.868V-280H352Z" transform="translate(-277.731 -208.145)" fill="#fff"/>
    <path id="Path_3626" data-name="Path 3626" d="M352-247.711v.289h.868V-248H352Z" transform="translate(-277.731 -238.988)" fill="#fff"/>
    <path id="Path_3627" data-name="Path 3627" d="M104-175.711v.289h2.893V-176H104Z" transform="translate(-38.698 -308.385)" fill="#fff"/>
    <path id="Path_3628" data-name="Path 3628" d="M280-175.711v.289h4.628V-176H280Z" transform="translate(-208.334 -308.385)" fill="#fff"/>
    <path id="Path_3629" data-name="Path 3629" d="M320-143.711v.289h3.182V-144H320Z" transform="translate(-246.888 -339.227)" fill="#fff"/>
  </g>
</svg>
