<svg id="restaurant" xmlns="http://www.w3.org/2000/svg" width="26.128" height="18.504" viewBox="0 0 26.128 18.504">
  <path id="Path_2788" data-name="Path 2788" d="M107.31-436.872c-.123.118-.128.143-.128.9v.772l-.3.322c-.542.582-.542.572-.557,2.361l-.015,1.548h-2.4v-.6l.005-.6.22-.133a1.172,1.172,0,0,0,.531-1.063c.026-.526-.036-.777-.245-.925-.128-.092-.225-.1-.889-.1-.787,0-.945.036-1.078.24a1.951,1.951,0,0,0-.087,1.047,1.189,1.189,0,0,0,.547.828l.23.148v1.16h-.766a3.18,3.18,0,0,0-1.584.25,2.143,2.143,0,0,0-1.2,1.569,1.026,1.026,0,0,0,.526.874l.225.118H105.5v.516a1.493,1.493,0,0,0,.261,1.088,1.167,1.167,0,0,0,1.007.388h.419v5.186l-.894.71c-.49.388-.94.761-1,.828a.606.606,0,0,0,.169.869,27.123,27.123,0,0,0,4.225-.005.629.629,0,0,0,.291-.613c-.041-.2-.2-.358-1.272-1.2l-.746-.588-.005-2.6v-2.59h.409a1.123,1.123,0,0,0,1.18-.639,2.483,2.483,0,0,0,.1-1.058v-.853l-.133-.1c-.138-.107-.164-.107-4.547-.107-2.422,0-4.44-.015-4.486-.031-.23-.087.01-.613.419-.925.445-.337.123-.327,6.785-.312l6.024.015.255.118a1.474,1.474,0,0,1,.695.618c.169.261.179.327.066.434-.066.072-.312.082-1.916.082h-1.839l-.123.128a.421.421,0,0,0-.128.255.421.421,0,0,0,.128.255l.123.128h1.906c1.737,0,1.926-.01,2.11-.1a1,1,0,0,0,.572-1,2.51,2.51,0,0,0-1.1-1.42,3.022,3.022,0,0,0-1.655-.291h-.807v-1.17l.143-.077a1.409,1.409,0,0,0,.542-.6,2,2,0,0,0,.082-.71v-.516l-.174-.174-.174-.174h-.787c-.628,0-.807.015-.9.082-.2.138-.266.342-.266.823a1.385,1.385,0,0,0,.123.705,1.1,1.1,0,0,0,.542.562c.1.031.1.077.1.644v.608h-2.4l-.015-1.548-.015-1.543-.148-.271a3.471,3.471,0,0,0-.424-.567l-.271-.3v-.777c0-.751-.005-.777-.128-.894a.421.421,0,0,0-.255-.128A.421.421,0,0,0,107.31-436.872Zm.445,2.565c.235.271.245.347.245,1.88v1.456h-.92v-1.374a6.561,6.561,0,0,1,.077-1.594C107.3-434.343,107.576-434.512,107.754-434.307Zm-3.842.884c0,.261-.082.434-.24.506a.294.294,0,0,1-.393-.051c-.112-.092-.133-.143-.133-.383v-.276h.766Zm8.073.072c0,.24-.02.291-.138.388a.33.33,0,0,1-.3.082c-.225-.046-.332-.2-.332-.5v-.25h.766Zm-3.117,5.7c0,.751.061.715-1.3.715s-1.3.036-1.3-.715v-.511h2.606Zm-.654,7.853.623.5-.623.015c-.337.005-.909.005-1.262,0l-.644-.015.6-.5a7.71,7.71,0,0,1,.644-.5A6.571,6.571,0,0,1,108.214-419.8Z" transform="translate(-94.518 437)" fill="#fff"/>
  <path id="Path_2789" data-name="Path 2789" d="M.954-373.561a1.1,1.1,0,0,0-.664.531l-.143.24-.015,3.6c-.01,2.56,0,3.689.041,3.909a2.322,2.322,0,0,0,1.671,1.793c.189.046.353.092.358.1s-.332,1.037-.751,2.3S.683-358.749.683-358.7a.475.475,0,0,0,.378.342c.291,0,.342-.112,1.083-2.376.383-1.18.741-2.228.792-2.33.153-.307.317-.353,1.293-.353.889,0,1.088.036,1.267.235.046.056.465,1.119.93,2.371.869,2.34.92,2.452,1.19,2.452a.473.473,0,0,0,.373-.347c0-.051-.373-1.093-.823-2.309s-.838-2.263-.848-2.315c-.026-.077.01-.087.235-.087a1.214,1.214,0,0,0,1.088-.685,1.26,1.26,0,0,0-.005-.991,1.391,1.391,0,0,0-.705-.618c-.123-.036-.981-.056-2.325-.056H2.472v-2.12c0-2.054-.005-2.125-.1-2.223a.376.376,0,0,0-.536.026l-.128.123v2.187c0,2.412,0,2.406.322,2.642.143.1.22.107,2.437.133,2.161.026,2.294.031,2.4.123a.428.428,0,0,1-.015.588l-.118.112-2.371-.015c-2.35-.015-2.371-.015-2.585-.133a1.564,1.564,0,0,1-.715-.715l-.143-.291-.015-3.6a21.032,21.032,0,0,1,.066-3.714.385.385,0,0,1,.639-.072c.087.087.1.174.1.634s.015.547.107.664a.382.382,0,0,0,.557.031c.092-.092.1-.169.1-.685a3.848,3.848,0,0,0-.056-.751A1.2,1.2,0,0,0,.954-373.561Z" transform="translate(-0.128 376.851)" fill="#fff"/>
  <path id="Path_2790" data-name="Path 2790" d="M364.4-373.771a1.313,1.313,0,0,0-.71.521l-.143.215-.015,3.541-.01,3.541h-2.136c-1.344,0-2.2.02-2.325.056a1.389,1.389,0,0,0-.71.623,1.316,1.316,0,0,0-.015.976,1.494,1.494,0,0,0,.731.634,1.628,1.628,0,0,0,.419.061c.184,0,.215.015.189.087-.01.051-.393,1.093-.848,2.315s-.823,2.258-.823,2.309a.474.474,0,0,0,.373.347c.271,0,.322-.112,1.19-2.453.465-1.252.884-2.315.93-2.371.179-.2.378-.235,1.267-.235.95,0,1.139.046,1.282.322.041.087.4,1.134.792,2.33.746,2.279.8,2.406,1.078,2.406a.382.382,0,0,0,.363-.3,15.614,15.614,0,0,0-.736-2.432c-.419-1.262-.761-2.3-.751-2.3s.169-.051.358-.1a2.319,2.319,0,0,0,1.512-1.308l.184-.383v-7.613l-.138-.235a1.248,1.248,0,0,0-.731-.552A.966.966,0,0,0,364.4-373.771Zm.557.863.153.153-.015,3.617-.015,3.617-.123.25a1.8,1.8,0,0,1-.731.756c-.22.118-.23.118-2.6.133l-2.386.015-.107-.138a.417.417,0,0,1-.01-.536l.1-.123,2.3-.026c2.228-.026,2.3-.031,2.447-.133.332-.245.322-.087.322-3.96,0-3.689-.005-3.587.23-3.714C364.683-373.087,364.8-373.066,364.954-372.908Z" transform="translate(-339.715 377.041)" fill="#fff"/>
</svg>
