<svg id="note" xmlns="http://www.w3.org/2000/svg" width="18.13" height="18.368" viewBox="0 0 18.13 18.368">
  <path id="Path_2919" data-name="Path 2919" d="M33.351-484.82c-.129.072-.141.112-.141.542v.406l-.831.016c-.819.012-.839.016-1.064.125a1.586,1.586,0,0,0-.7.7l-.112.229v15.221l.108.229a1.547,1.547,0,0,0,.727.739l.249.116H43.111l.229-.108a1.523,1.523,0,0,0,.727-.711l.129-.265.02-1.41.02-1.414L46.2-471.7c1.265-.827,2.02-1.349,2.121-1.458a1.257,1.257,0,0,0-.434-1.964,1.364,1.364,0,0,0-.984-.008c-.1.048-.735.45-1.414.892s-1.241.811-1.253.811-.028-2.108-.032-4.687L44.2-482.8l-.088-.189a1.9,1.9,0,0,0-.578-.659c-.293-.185-.51-.217-1.43-.217h-.855v-.414c0-.438-.012-.474-.149-.546a.164.164,0,0,0-.181,0c-.141.072-.153.108-.153.546v.414H38.713v-.414c0-.438-.012-.474-.149-.546a.164.164,0,0,0-.181,0c-.141.072-.153.108-.153.546v.414H36.223v-.414c0-.438-.012-.474-.149-.546a.164.164,0,0,0-.181,0c-.141.072-.153.108-.153.546v.414H33.693v-.414c0-.438-.012-.474-.149-.546C33.44-484.876,33.452-484.876,33.351-484.82Zm-.141,1.735c0,.273-.008.3-.088.321a.947.947,0,0,0-.478.45.889.889,0,0,0,.554,1.245.894.894,0,0,0,.932-1.446.96.96,0,0,0-.3-.233l-.141-.048v-.586h2.048v.3c0,.285,0,.3-.1.321a.989.989,0,0,0-.277.189.881.881,0,0,0,.129,1.4.9.9,0,0,0,1.313-.39,1.027,1.027,0,0,0-.02-.763.951.951,0,0,0-.466-.438c-.084-.024-.092-.048-.092-.321v-.3h2.008v.289l0,.293-.169.084a.9.9,0,0,0-.333,1.285.9.9,0,0,0,1.614-.249.7.7,0,0,0,.02-.442.983.983,0,0,0-.506-.627l-.141-.048v-.586h2.048v.586l-.133.048a.89.89,0,0,0-.494.562.842.842,0,0,0,.1.743.9.9,0,0,0,1.57-.1,1,1,0,0,0-.008-.783.951.951,0,0,0-.466-.438c-.084-.024-.092-.048-.092-.321v-.3h.827a5.6,5.6,0,0,1,1,.048,1.193,1.193,0,0,1,.623.614c.032.112.044,1.606.044,4.9v4.747l-.45.289a4.647,4.647,0,0,0-.5.353.225.225,0,0,0,.177.37,18.239,18.239,0,0,0,1.912-1.185c.992-.655,1.807-1.185,1.815-1.177a3.321,3.321,0,0,1,.261.422c0,.028-5.406,3.594-5.9,3.9l-.149.088-.145-.217-.145-.217.6-.4c.627-.41.691-.486.6-.679s-.241-.137-1,.365l-.7.462h-1.88c-1.831,0-1.888,0-1.964.08a.278.278,0,0,0-.08.161.278.278,0,0,0,.08.161c.076.076.133.08,1.827.08h1.747l-.08.161-.08.161H38.01c-1.615,0-1.671,0-1.747.08a.278.278,0,0,0-.08.161.278.278,0,0,0,.08.161c.076.076.133.08,1.606.08.839,0,1.526.012,1.526.024a2.528,2.528,0,0,1-.141.273c-.165.3-.177.438-.044.526.08.052.233.056,1.173.032l1.084-.032,1.112-.731c.61-.406,1.121-.735,1.133-.735s.02.538.012,1.193c-.012,1.137-.016,1.2-.1,1.357a1.08,1.08,0,0,1-.454.446c-.137.072-.365.076-5.775.088l-5.635.008-.2-.084a1.053,1.053,0,0,1-.538-.562c-.06-.165-.064-.759-.056-7.647l.012-7.47.112-.189a1.034,1.034,0,0,1,.233-.277c.241-.169.382-.193,1.153-.2h.731Zm.514.847a.4.4,0,0,1-.1.687.4.4,0,0,1-.578-.374A.4.4,0,0,1,33.725-482.238Zm2.542.016a.416.416,0,0,1-.526.639.407.407,0,0,1,.229-.755A.347.347,0,0,1,36.267-482.222Zm2.478-.016a.375.375,0,0,1,.112.474.408.408,0,0,1-.787-.161A.4.4,0,0,1,38.745-482.238Zm2.542.016a.421.421,0,0,1-.482.671.412.412,0,0,1,.189-.787A.344.344,0,0,1,41.287-482.222Zm6.422,7.562a1.148,1.148,0,0,1,.293.241.771.771,0,0,1-.008.912l-.072.092-.39-.594c-.217-.325-.4-.614-.414-.643C47.075-474.768,47.48-474.772,47.709-474.659Zm-.337,1.3a.812.812,0,0,1,.133.237c-.008.008-1.37.9-3.028,1.988l-3.012,1.976-.08-.1c-.044-.056-.112-.157-.153-.221l-.068-.116,3.024-1.988c1.659-1.1,3.024-1.992,3.028-1.992A1.406,1.406,0,0,1,47.372-473.362Zm-6.751,3.819a4.282,4.282,0,0,1,.293.478c-.008,0-.269.02-.582.028l-.566.016.161-.321a4.465,4.465,0,0,1,.374-.667C40.307-470.009,40.452-469.8,40.621-469.543Z" transform="translate(-30.5 484.863)" fill="#fff"/>
  <path id="Path_2920" data-name="Path 2920" d="M53.08-417.92c-.06.06-.08.133-.08.293,0,.241.076.349.249.349.157,0,.233-.116.233-.353S53.39-418,53.241-418A.278.278,0,0,0,53.08-417.92Z" transform="translate(-52.096 420.685)" fill="#fff"/>
  <path id="Path_2921" data-name="Path 2921" d="M53.141-392.952a.366.366,0,0,0-.108.088c-.016.024-.032.606-.032,1.293,0,1.161,0,1.253.072,1.313a.253.253,0,0,0,.341,0c.06-.064.068-.217.068-1.317,0-.683-.016-1.261-.032-1.285a.578.578,0,0,0-.217-.137A.707.707,0,0,0,53.141-392.952Z" transform="translate(-52.096 396.689)" fill="#fff"/>
  <path id="Path_2922" data-name="Path 2922" d="M68.872-354.828a1.631,1.631,0,0,0-.964,2.269,1.861,1.861,0,0,0,.8.779,1.2,1.2,0,0,0,.659.108,1.116,1.116,0,0,0,.727-.153,1.621,1.621,0,0,0-.245-3A1.67,1.67,0,0,0,68.872-354.828Zm1.044.55a1.146,1.146,0,0,1,.149,1.908,1.056,1.056,0,0,1-.731.237,1.142,1.142,0,0,1-.731-1.988.986.986,0,0,1,.819-.285A.923.923,0,0,1,69.916-354.277Z" transform="translate(-66.245 360.12)" fill="#fff"/>
  <path id="Path_2923" data-name="Path 2923" d="M89.944-328.719a2.451,2.451,0,0,1-.329.281.579.579,0,0,1-.157-.124c-.213-.2-.458-.153-.458.1,0,.1.044.173.257.374.169.161.293.249.353.249a3.378,3.378,0,0,0,.956-.908.337.337,0,0,0-.257-.257A1.4,1.4,0,0,0,89.944-328.719Z" transform="translate(-86.651 335.26)" fill="#fff"/>
  <path id="Path_2924" data-name="Path 2924" d="M172.08-331.92a.278.278,0,0,0-.08.161.278.278,0,0,0,.08.161c.08.08.133.08,3.185.08,2.96,0,3.113,0,3.173-.072a.253.253,0,0,0,0-.341c-.068-.064-.345-.068-3.173-.068C172.213-332,172.161-332,172.08-331.92Z" transform="translate(-166.317 338.139)" fill="#fff"/>
  <path id="Path_2925" data-name="Path 2925" d="M172.08-311.92a.278.278,0,0,0-.08.161.278.278,0,0,0,.08.161c.076.076.133.08,1.779.08,1.6,0,1.707,0,1.767-.072a.253.253,0,0,0,0-.341c-.068-.06-.249-.068-1.767-.068C172.213-312,172.157-312,172.08-311.92Z" transform="translate(-166.317 318.942)" fill="#fff"/>
  <path id="Path_2926" data-name="Path 2926" d="M68.872-254.828a1.631,1.631,0,0,0-.964,2.269,1.861,1.861,0,0,0,.8.779,1.2,1.2,0,0,0,.659.108,1.116,1.116,0,0,0,.727-.153,1.621,1.621,0,0,0-.245-3A1.669,1.669,0,0,0,68.872-254.828Zm1.044.55a1.146,1.146,0,0,1,.149,1.908,1.056,1.056,0,0,1-.731.237,1.142,1.142,0,0,1-.731-1.988.986.986,0,0,1,.819-.285A.923.923,0,0,1,69.916-254.277Z" transform="translate(-66.245 264.136)" fill="#fff"/>
  <path id="Path_2927" data-name="Path 2927" d="M89.944-228.719a2.451,2.451,0,0,1-.329.281.579.579,0,0,1-.157-.124c-.213-.2-.458-.153-.458.1,0,.1.044.173.257.374.169.161.293.249.353.249a3.378,3.378,0,0,0,.956-.908.337.337,0,0,0-.257-.257A1.4,1.4,0,0,0,89.944-228.719Z" transform="translate(-86.651 239.276)" fill="#fff"/>
  <path id="Path_2928" data-name="Path 2928" d="M172.08-231.92a.278.278,0,0,0-.08.161.278.278,0,0,0,.08.161c.08.08.133.08,3.185.08,2.96,0,3.113,0,3.173-.072a.253.253,0,0,0,0-.341c-.068-.064-.345-.068-3.173-.068C172.213-232,172.161-232,172.08-231.92Z" transform="translate(-166.317 242.155)" fill="#fff"/>
  <path id="Path_2929" data-name="Path 2929" d="M172.08-211.92a.278.278,0,0,0-.08.161.278.278,0,0,0,.08.161c.076.076.133.08,1.779.08,1.6,0,1.707,0,1.767-.072a.253.253,0,0,0,0-.341c-.068-.06-.249-.068-1.767-.068C172.213-212,172.157-212,172.08-211.92Z" transform="translate(-166.317 222.959)" fill="#fff"/>
  <path id="Path_2930" data-name="Path 2930" d="M68.872-154.828a1.631,1.631,0,0,0-.964,2.269,1.861,1.861,0,0,0,.8.779,1.2,1.2,0,0,0,.659.108,1.116,1.116,0,0,0,.727-.153,1.621,1.621,0,0,0-.245-3A1.669,1.669,0,0,0,68.872-154.828Zm1.044.55a1.146,1.146,0,0,1,.149,1.908,1.056,1.056,0,0,1-.731.237,1.142,1.142,0,0,1-.731-1.988.986.986,0,0,1,.819-.285A.923.923,0,0,1,69.916-154.277Z" transform="translate(-66.245 168.152)" fill="#fff"/>
  <path id="Path_2931" data-name="Path 2931" d="M89.944-128.719a2.452,2.452,0,0,1-.329.281.579.579,0,0,1-.157-.125c-.213-.2-.458-.153-.458.1,0,.1.044.173.257.373.169.161.293.249.353.249a3.378,3.378,0,0,0,.956-.908.337.337,0,0,0-.257-.257A1.4,1.4,0,0,0,89.944-128.719Z" transform="translate(-86.651 143.292)" fill="#fff"/>
</svg>
