<svg xmlns="http://www.w3.org/2000/svg" width="25.384" height="34.359" viewBox="0 0 25.384 34.359">
  <g id="payment-terminal" transform="translate(-89.999 480)">
    <path id="Path_3420" data-name="Path 3420" d="M94.441-479.662a2.415,2.415,0,0,0-.56.468c-.023.069-.046,1.036-.046,2.148v2.018l-1.251.023c-1.158.031-1.274.046-1.626.23a1.73,1.73,0,0,0-.882,1.112c-.107.453-.1,26.238.008,26.737a1.793,1.793,0,0,0,1.12,1.212c.222.061,2.578.084,8.055.069l7.749-.023.376-.23a1.793,1.793,0,0,0,.8-1.358v-.292h.6a1.884,1.884,0,0,0,1.005-.2,1.649,1.649,0,0,0,.9-1.266l.046-.368,1.711-.023,1.7-.023.376-.23a2.074,2.074,0,0,0,.606-.606l.23-.376.023-7.334c.015-5.3,0-7.419-.069-7.649a1.811,1.811,0,0,0-.859-1.051c-.3-.153-.437-.169-2.025-.192l-1.711-.023v-.307a1.705,1.705,0,0,0-.882-1.435,2.954,2.954,0,0,0-.921-.169l-.69-.038-.038-2.547-.038-2.539-.23-.33a1.769,1.769,0,0,0-.614-.522c-.353-.184-.468-.2-1.626-.223l-1.251-.031v-2.018c0-1.112-.023-2.079-.046-2.148a3.853,3.853,0,0,0-1.1-.806,1.824,1.824,0,0,0-.476.238l-.368.238-.368-.238a1.821,1.821,0,0,0-.468-.238,1.385,1.385,0,0,0-.43.23,2.269,2.269,0,0,1-.384.23,2.27,2.27,0,0,1-.384-.23,1.385,1.385,0,0,0-.43-.23,1.821,1.821,0,0,0-.468.238l-.368.238-.368-.238a1.821,1.821,0,0,0-.468-.238,1.385,1.385,0,0,0-.43.23,1.922,1.922,0,0,1-.4.23,1.664,1.664,0,0,1-.361-.23c-.376-.284-.483-.284-.875,0a1.991,1.991,0,0,1-.384.23,1.38,1.38,0,0,1-.368-.23,1.215,1.215,0,0,0-.414-.23A2.584,2.584,0,0,0,94.441-479.662Zm.99.721c.345.246.552.238.944-.054l.33-.238.23.184c.522.391.56.391,1.005.1l.4-.268.368.261a2.267,2.267,0,0,0,.43.261,2.415,2.415,0,0,0,.445-.261l.384-.261.322.23a.672.672,0,0,0,1-.008l.33-.238.23.184c.522.391.56.391,1.005.1l.4-.268.246.161.238.169v5.792H94.6v-5.815l.207-.153C95.039-479.233,95.047-479.225,95.43-478.941Zm-1.519,5.578c0,.882,0,.89.2.959.115.046,2.094.077,5.1.077,5.808,0,5.209.13,5.209-1.112v-.806h2.455l.292.261.284.261.023,13.341c.015,13.265.015,13.334-.138,13.587-.307.5.092.483-8.316.46-7.611-.023-7.634-.023-7.848-.184a1.159,1.159,0,0,1-.307-.345c-.077-.146-.1-3.069-.1-13.441,0-11.684.015-13.28.115-13.48.207-.4.407-.453,1.788-.46h1.243Zm15.582,5.37a1.071,1.071,0,0,1,.529.859v.253h-1.841v-1.228h.537A2.048,2.048,0,0,1,109.493-467.993Zm4.6,1.941a1.252,1.252,0,0,1,.437.391l.176.261v7.258c0,7.058-.008,7.265-.153,7.5-.322.529-.253.522-3.468.545l-2.9.023v-16.119H111C113.528-466.191,113.851-466.175,114.089-466.052ZM110-449.113c-.1.621-.483.875-1.32.875h-.5v-1.151h1.864Z" transform="translate(0 0)" fill="#ed1c24"/>
    <path id="Path_3421" data-name="Path 3421" d="M164.73-445.874a.365.365,0,0,0-.169.483c.077.153.161.153,3.36.153a20.459,20.459,0,0,0,3.376-.092.309.309,0,0,0-.046-.468c-.13-.115-.46-.13-3.284-.123C166.242-445.92,164.784-445.9,164.73-445.874Z" transform="translate(-68.809 -31.464)" fill="#ed1c24"/>
    <path id="Path_3422" data-name="Path 3422" d="M164.323-423.847a.253.253,0,0,0-.054.345l.092.192h3.284a20.459,20.459,0,0,0,3.376-.092.327.327,0,0,0-.031-.476c-.1-.107-.514-.123-3.322-.123C164.56-424,164.461-423.992,164.323-423.847Z" transform="translate(-68.532 -51.704)" fill="#ed1c24"/>
    <path id="Path_3423" data-name="Path 3423" d="M112.736-369.87a1.4,1.4,0,0,0-.706.852c-.107.384-.107,7.549,0,7.933a1.575,1.575,0,0,0,.284.522c.407.483.015.46,7.043.46,7.143,0,6.736.031,7.158-.522l.207-.268.015-4.074.023-4.074-.176-.307a1.411,1.411,0,0,0-.476-.476L125.8-370H119.4C113.657-370,112.967-369.985,112.736-369.87Zm13.142.752.192.184v7.764l-.192.184-.184.192h-6.283c-6.245,0-6.283,0-6.49-.161l-.2-.153v-7.825l.192-.184.184-.192h12.6Z" transform="translate(-20.267 -101.561)" fill="#ed1c24"/>
    <path id="Path_3424" data-name="Path 3424" d="M120.575-231.847c-.529.261-.575.407-.575,1.956,0,1.235.015,1.389.153,1.611.253.414.6.5,1.926.5,1.251,0,1.5-.054,1.834-.414.184-.207.192-.238.215-1.6s.015-1.4-.153-1.665c-.315-.468-.552-.537-1.9-.537C121.036-232,120.844-231.977,120.575-231.847Zm2.708.66c.161.115.169.161.169,1.3,0,1.5.077,1.419-1.4,1.419a6.405,6.405,0,0,1-1.212-.077c-.138-.077-.146-.176-.146-1.35,0-1.235,0-1.266.176-1.335a6.784,6.784,0,0,1,1.2-.069C122.892-231.31,123.145-231.287,123.284-231.187Z" transform="translate(-27.7 -228.974)" fill="#ed1c24"/>
    <path id="Path_3425" data-name="Path 3425" d="M182.575-231.854c-.529.238-.575.407-.575,1.964,0,1.235.015,1.389.153,1.611.253.414.591.5,1.941.5,1.32,0,1.565-.069,1.88-.537.169-.261.176-.307.153-1.665s-.031-1.4-.215-1.6c-.338-.361-.583-.414-1.857-.414A3.524,3.524,0,0,0,182.575-231.854Zm2.708.667c.161.115.169.161.169,1.3,0,1.5.077,1.419-1.4,1.419a6.405,6.405,0,0,1-1.212-.077c-.138-.077-.146-.176-.146-1.35,0-1.235,0-1.266.176-1.335a6.784,6.784,0,0,1,1.2-.069C184.892-231.31,185.145-231.287,185.284-231.187Z" transform="translate(-84.943 -228.974)" fill="#ed1c24"/>
    <path id="Path_3426" data-name="Path 3426" d="M244.575-231.847c-.529.261-.575.407-.575,1.956s.046,1.7.575,1.956c.276.13.476.153,1.481.153,1.274,0,1.519-.054,1.857-.422.192-.2.192-.215.192-1.688s0-1.488-.192-1.688c-.338-.368-.583-.422-1.857-.422C245.036-232,244.844-231.977,244.575-231.847Zm2.8.69a6.514,6.514,0,0,1,.077,1.266,6.578,6.578,0,0,1-.077,1.266c-.054.092-.3.123-1.22.138a5.01,5.01,0,0,1-1.3-.061c-.153-.077-.161-.146-.161-1.289a8.116,8.116,0,0,1,.061-1.289c.1-.153.284-.176,1.419-.161C247.084-231.271,247.322-231.248,247.376-231.156Z" transform="translate(-142.187 -228.974)" fill="#ed1c24"/>
    <path id="Path_3427" data-name="Path 3427" d="M120.545-171.87c-.491.245-.545.43-.545,1.964,0,1.519.038,1.665.491,1.941.207.13.4.146,1.58.146,1.5,0,1.619-.031,1.926-.522.138-.222.146-.361.13-1.642-.023-1.366-.023-1.4-.215-1.6-.338-.361-.583-.414-1.895-.414A3.766,3.766,0,0,0,120.545-171.87Zm2.785.683a6.511,6.511,0,0,1,.015,2.555,4.319,4.319,0,0,1-1.358.069l-1.258-.023-.023-1.266c-.015-1.12-.008-1.274.115-1.358a3.627,3.627,0,0,1,1.258-.1C123.007-171.31,123.23-171.287,123.33-171.187Z" transform="translate(-27.7 -284.371)" fill="#ed1c24"/>
    <path id="Path_3428" data-name="Path 3428" d="M182.545-171.87c-.491.245-.545.43-.545,1.964,0,1.519.038,1.665.491,1.941.207.13.4.146,1.58.146,1.5,0,1.619-.031,1.926-.522.138-.222.146-.361.13-1.642-.023-1.366-.023-1.4-.215-1.6-.338-.361-.583-.414-1.895-.414A3.766,3.766,0,0,0,182.545-171.87Zm2.785.683c.1.1.123.33.123,1.289a3.742,3.742,0,0,1-.092,1.258,4.122,4.122,0,0,1-1.335.092c-1.059,0-1.251-.015-1.289-.123a11.511,11.511,0,0,1-.046-1.3c0-1.043.015-1.189.138-1.258a5.736,5.736,0,0,1,1.258-.084C185.007-171.31,185.23-171.287,185.33-171.187Z" transform="translate(-84.943 -284.371)" fill="#ed1c24"/>
    <path id="Path_3429" data-name="Path 3429" d="M244.626-172a1.229,1.229,0,0,0-.414.384c-.146.238-.153.353-.13,1.672l.023,1.419.222.23c.315.33.614.391,1.811.391s1.5-.061,1.811-.391l.222-.23.023-1.373c.031-1.619-.031-1.841-.552-2.079A7.978,7.978,0,0,0,244.626-172Zm2.77.69c.1.1.123.33.123,1.289a3.741,3.741,0,0,1-.092,1.258,8.542,8.542,0,0,1-2.578,0,3.96,3.96,0,0,1-.092-1.3c0-1.066.015-1.212.138-1.281a5.733,5.733,0,0,1,1.258-.084C247.074-171.428,247.3-171.4,247.4-171.3Z" transform="translate(-142.253 -284.252)" fill="#ed1c24"/>
    <path id="Path_3430" data-name="Path 3430" d="M120.56-111.885a1.076,1.076,0,0,0-.407.361c-.138.23-.153.384-.153,1.665v1.4l.3.3.3.3H122c1.266,0,1.435-.015,1.657-.153.43-.261.483-.46.483-1.895,0-2.01-.084-2.094-2.071-2.094A5.37,5.37,0,0,0,120.56-111.885Zm2.77.7c.1.1.123.33.123,1.289a3.741,3.741,0,0,1-.092,1.258,8.54,8.54,0,0,1-2.578,0,3.9,3.9,0,0,1-.092-1.289,3.9,3.9,0,0,1,.092-1.289,3.741,3.741,0,0,1,1.258-.092C123-111.31,123.23-111.287,123.33-111.187Z" transform="translate(-27.7 -339.767)" fill="#ed1c24"/>
    <path id="Path_3431" data-name="Path 3431" d="M182.56-111.885a1.075,1.075,0,0,0-.407.361c-.138.23-.153.384-.153,1.665v1.4l.3.3.3.3H184c1.266,0,1.435-.015,1.657-.153.43-.261.483-.46.483-1.895,0-2.018-.077-2.094-2.071-2.094A5.369,5.369,0,0,0,182.56-111.885Zm2.8.667a8.542,8.542,0,0,1,0,2.578,8.54,8.54,0,0,1-2.578,0,3.9,3.9,0,0,1-.092-1.289,3.9,3.9,0,0,1,.092-1.289A8.54,8.54,0,0,1,185.36-111.217Z" transform="translate(-84.943 -339.767)" fill="#ed1c24"/>
    <path id="Path_3432" data-name="Path 3432" d="M244.678-111.885a1.075,1.075,0,0,0-.407.361c-.146.238-.153.353-.138,1.7l.023,1.45.284.261.292.261h1.4c1.55,0,1.672-.031,1.956-.453.169-.245.176-.33.176-1.611,0-2.025-.061-2.079-2.087-2.079A5.305,5.305,0,0,0,244.678-111.885Zm2.8.667a8.541,8.541,0,0,1,0,2.578,8.54,8.54,0,0,1-2.578,0,3.9,3.9,0,0,1-.092-1.289,3.9,3.9,0,0,1,.092-1.289A8.54,8.54,0,0,1,247.478-111.217Z" transform="translate(-142.304 -339.767)" fill="#ed1c24"/>
    <path id="Path_3433" data-name="Path 3433" d="M367.123-287.688c-.107.115-.123.537-.123,4.112,0,2.608.031,4.043.077,4.143a.352.352,0,0,0,.614-.054c.123-.315.1-7.848-.023-8.086A.332.332,0,0,0,367.123-287.688Z" transform="translate(-255.75 -177.467)" fill="#ed1c24"/>
    <path id="Path_3434" data-name="Path 3434" d="M388.077-287.8a24.721,24.721,0,0,0-.077,2.839c0,2.332.015,2.7.123,2.8a.327.327,0,0,0,.476.031,41.9,41.9,0,0,0,0-5.723A.36.36,0,0,0,388.077-287.8Z" transform="translate(-275.139 -177.324)" fill="#ed1c24"/>
    <path id="Path_3435" data-name="Path 3435" d="M349.46-150.924a1.218,1.218,0,0,0-.284.2c-.169.153-.176.2-.176,1.642,0,1.481,0,1.488.192,1.672.176.184.215.192,1.373.192,1.143,0,1.2-.008,1.4-.184l.215-.184.023-1.3c.031-1.542-.031-1.826-.407-1.987A9.2,9.2,0,0,0,349.46-150.924Zm2.071,1.864v1.151H349.69v-2.3h1.841Z" transform="translate(-239.131 -303.782)" fill="#ed1c24"/>
  </g>
</svg>
