<svg xmlns="http://www.w3.org/2000/svg" width="20.069" height="20.078" viewBox="0 0 20.069 20.078">
  <g id="franchise" transform="translate(0.398 0.509)">
    <path id="Path_2679" data-name="Path 2679" d="M-41.291-.031h4.2a1.119,1.119,0,0,1,.669.178,2.8,2.8,0,0,1,.66,1.963,1.2,1.2,0,0,1-.094.478,2.238,2.238,0,0,0-.075.848c0,.048,0,.1,0,.145s0,.087,0,.131a.351.351,0,0,1-.176.271.515.515,0,0,1-.367-.051c-.137-.142-.107-.32-.105-.5,0-.029,0-.059,0-.089q0-.108,0-.217l-.105.023a.627.627,0,0,1-.328-.035l-.1-.033a.961.961,0,0,1-.193-.09c-.135-.032-.2.029-.321.094a.958.958,0,0,1-.75,0l-.105-.068c-.087-.061-.087-.061-.176-.024l-.11.054a1.2,1.2,0,0,1-.783.078,1.248,1.248,0,0,1-.152-.083c-.11-.081-.11-.081-.2-.071-.061.029-.12.062-.179.1a1.059,1.059,0,0,1-.83.014,1.093,1.093,0,0,1-.188-.09c-.135-.032-.2.028-.32.094a.98.98,0,0,1-.438.079l-.078-.039v2.9h.391l0-.176q0-.324,0-.647,0-.14,0-.28,0-.2,0-.4l0-.126a.843.843,0,0,1,.131-.56.673.673,0,0,1,.5-.133h.807a.6.6,0,0,1,.416.134.436.436,0,0,1,.131.361c0,.041,0,.083,0,.125l0,.131v.121c0,.149,0,.3,0,.446l-.007,1.008h3.013V5c.117-.2.117-.2.235-.274.234.013.234.013.34.084a.486.486,0,0,1,.062.333c0,.051,0,.1,0,.154s0,.107,0,.161,0,.108,0,.162q0,.2-.006.4l.132,0c.142,0,.142,0,.217.051a.388.388,0,0,1,.057.246c0,.03,0,.061,0,.092a.25.25,0,0,1-.133.2,2.164,2.164,0,0,1-.283.015H-42.6a.429.429,0,0,1-.3-.092.41.41,0,0,1-.061-.36.371.371,0,0,1,.157-.157c.078,0,.157,0,.235,0q0-.644-.009-1.287,0-.3,0-.6t0-.577q0-.11,0-.22c0-.1,0-.206,0-.309,0-.03,0-.06,0-.091a1.131,1.131,0,0,0-.135-.519,2.837,2.837,0,0,1,.43-1.957l.047-.092C-42.034-.02-41.7-.034-41.291-.031Zm-.377.646-.117.247L-41.851,1a.318.318,0,0,0-.051.24h.509l.039-.2.022-.114a1.681,1.681,0,0,0,.017-.309Zm1.018,0-.059.247L-40.742,1a.59.59,0,0,0-.026.24h.548V.615Zm1.057,0v.626h.665V.615Zm1.291,0v.626h.548a2.073,2.073,0,0,0-.117-.626Zm1.1,0a2.787,2.787,0,0,0,.117.626h.509L-36.7.951l-.033-.084a.684.684,0,0,0-.126-.251c-.059,0-.119,0-.179,0h-.174ZM-42.1,1.868a.939.939,0,0,0,.066.553.373.373,0,0,0,.286.113.546.546,0,0,0,.274-.235,1.165,1.165,0,0,0,0-.223l0-.208Zm1.252,0a1.2,1.2,0,0,0,.044.509.449.449,0,0,0,.308.157.851.851,0,0,0,.274-.2,1.33,1.33,0,0,0,0-.24l0-.23Zm1.252,0a.862.862,0,0,0,.117.587.313.313,0,0,0,.235.078.455.455,0,0,0,.28-.187.691.691,0,0,0,.038-.292l0-.186Zm1.291,0a.939.939,0,0,0,.066.553.373.373,0,0,0,.286.113.546.546,0,0,0,.274-.235,1.165,1.165,0,0,0,0-.223l0-.208Zm1.252,0a1.2,1.2,0,0,0,.044.509.449.449,0,0,0,.308.157.851.851,0,0,0,.274-.2,1.332,1.332,0,0,0,0-.24c0-.076,0-.152,0-.23Zm-3.874,2.466V6.016h.7V4.333Z" transform="translate(55.217 12.945)" fill="#fff"/>
    <path id="Path_2680" data-name="Path 2680" d="M-34.44-.243H-32.5l.814,0h1.723a1.113,1.113,0,0,1,.67.177,2.827,2.827,0,0,1,.663,1.832,1.314,1.314,0,0,1-.1.566A2.372,2.372,0,0,0-28.8,3.2l0,.15c0,.045,0,.09,0,.136a.349.349,0,0,1-.176.274.576.576,0,0,1-.274,0,.426.426,0,0,1-.211-.274c0-.09,0-.177,0-.266l0-.093c0-.076.006-.151.01-.227l-.105.023a.627.627,0,0,1-.328-.035l-.1-.033a.96.96,0,0,1-.193-.09c-.135-.032-.2.029-.321.094a.958.958,0,0,1-.75,0l-.108-.066c-.082-.059-.082-.059-.164-.046a.879.879,0,0,0-.183.093,1.058,1.058,0,0,1-.829.014,1.192,1.192,0,0,1-.19-.09c-.1-.035-.1-.035-.215.049l-.071.045a.89.89,0,0,1-.678.028,1.658,1.658,0,0,1-.286-.122c-.135-.032-.2.028-.32.094a.98.98,0,0,1-.438.079L-34.81,2.9v2.9h.391l0-.179q0-.33-.006-.66,0-.143,0-.286c0-.137,0-.274,0-.411l0-.129a.694.694,0,0,1,.174-.566.7.7,0,0,1,.455-.091h.269l.277,0h.177l.083,0a.632.632,0,0,1,.46.176A.577.577,0,0,1-32.453,4c0,.041,0,.081,0,.123v.128c0,.039,0,.078,0,.118,0,.146,0,.292,0,.437l0,.988h3.013V4.738c.078-.157.078-.157.144-.208a.614.614,0,0,1,.364.012.366.366,0,0,1,.131.275l0,.137c0,.049,0,.1,0,.148l0,.154c0,.052,0,.1,0,.156q0,.191-.006.382l.112,0a.278.278,0,0,1,.216.065.437.437,0,0,1,.064.369.483.483,0,0,1-.157.157,1.671,1.671,0,0,1-.288.02h-6.633a.412.412,0,0,1-.276-.07.354.354,0,0,1-.057-.239V6a.3.3,0,0,1,.058-.154.556.556,0,0,1,.349-.048q0-.636-.009-1.272,0-.3,0-.591t0-.57q0-.109,0-.217c0-.1,0-.2,0-.3,0-.03,0-.06,0-.09a1.13,1.13,0,0,0-.134-.517,2.673,2.673,0,0,1,.24-1.678l.034-.074A1.175,1.175,0,0,1-34.758-.2.9.9,0,0,1-34.44-.243Zm-.1.637-.137.291-.04.084a.636.636,0,0,0-.1.251h.509a2.848,2.848,0,0,0,.117-.626Zm1.018,0a2.073,2.073,0,0,0-.117.626h.548V.394Zm1.057,0V1.02h.665V.394Zm1.291,0V1.02h.548l-.037-.269L-30.68.6a.365.365,0,0,0-.06-.206Zm1.1,0q.008.1.017.2l.01.114c.011.1.031.207.052.309h.509A1.67,1.67,0,0,0-29.627.6l-.054-.116-.041-.087Zm-4.892,1.252-.01.225L-34.982,2a.339.339,0,0,0,.172.275.257.257,0,0,0,.2.039c.183-.1.183-.1.274-.274,0-.068,0-.135,0-.2l0-.188Zm1.252,0a.939.939,0,0,0,.066.553.373.373,0,0,0,.286.113.546.546,0,0,0,.274-.235,1.165,1.165,0,0,0,0-.223l0-.208Zm1.252,0a1.2,1.2,0,0,0,.044.509.443.443,0,0,0,.308.157.4.4,0,0,0,.235-.117,1.012,1.012,0,0,0,.078-.548Zm1.291,0-.01.225L-31.186,2a.339.339,0,0,0,.172.275.257.257,0,0,0,.2.039c.183-.1.183-.1.274-.274,0-.068,0-.135,0-.2l0-.188Zm1.252,0a.939.939,0,0,0,.066.553.373.373,0,0,0,.286.113.546.546,0,0,0,.274-.235,1.164,1.164,0,0,0,0-.223l0-.208Zm-3.874,2.466V5.795h.7V4.112Z" transform="translate(35.445 13.167)" fill="#fff"/>
    <path id="Path_2681" data-name="Path 2681" d="M-87.74-.347h.394l.46,0h.159l.745,0,.859,0,.664,0h.84l.132,0a.722.722,0,0,1,.566.176,1.087,1.087,0,0,1,.242.873c0,.042,0,.084,0,.128q0,.2,0,.4,0,.137,0,.274,0,.335,0,.67h.072l.747-.008.278,0,.4,0,.125,0a.927.927,0,0,1,.708.232.617.617,0,0,1,.179.463v.1c0,.038,0,.075,0,.114v.12q0,.2,0,.394,0,.137,0,.273,0,.36,0,.72t0,.734q0,.721,0,1.441l.132.017a.451.451,0,0,1,.218.064.527.527,0,0,1,.042.389.394.394,0,0,1-.248.176H-91.047a.393.393,0,0,1-.248-.176.527.527,0,0,1,.042-.389.926.926,0,0,1,.35-.081V6.589q0-.713-.005-1.427,0-.367,0-.734t0-.708q0-.135,0-.27,0-.189,0-.378V2.959a.845.845,0,0,1,.132-.522.825.825,0,0,1,.632-.283h.376l.413,0h.28l.686,0V2.092q0-.366-.006-.731,0-.136,0-.273,0-.2,0-.393l0-.122a1.024,1.024,0,0,1,.2-.722l.071-.054.071-.056A.482.482,0,0,1-87.74-.347Zm-.033.671a.959.959,0,0,0-.014.253v.08c0,.088,0,.177,0,.265q0,.095,0,.19,0,.258,0,.516t0,.539q0,.511,0,1.021,0,.69,0,1.38,0,1.087.006,2.174h4.461l.039-1.448c.157-.117.157-.117.3-.115.135.037.135.037.2.1a.812.812,0,0,1,.072.411c0,.027,0,.054,0,.081,0,.1,0,.2,0,.3l.012.675h1.879c0-.695,0-.695,0-1.389q0-.425,0-.849,0-.342,0-.684,0-.131,0-.262,0-.183,0-.365c0-.036,0-.073,0-.11a.384.384,0,0,0-.044-.292c-.058,0-.115,0-.173,0h-1.014l-.652,0c0,.041,0,.081,0,.123q0,.227-.01.453,0,.1,0,.2,0,.141-.006.282c0,.029,0,.058,0,.088a.63.63,0,0,1-.093.383.613.613,0,0,1-.352.039.265.265,0,0,1-.132-.193c0-.029,0-.057,0-.087s0-.066,0-.1,0-.072,0-.109,0-.076,0-.115q0-.124,0-.248,0-.2,0-.392,0-.487,0-.974,0-.411,0-.823,0-.194,0-.387,0-.118,0-.236c0-.036,0-.072,0-.109s0-.066,0-.1,0-.057,0-.087c-.01-.087-.01-.087-.132-.149A.72.72,0,0,0-83.6.235h-3.973C-87.667.241-87.667.241-87.772.324Zm-2.466,2.466c-.076.076-.044.191-.044.292,0,.036,0,.073,0,.11s0,.076,0,.116q0,.19,0,.381,0,.131,0,.263,0,.347,0,.694,0,.416,0,.832,0,.632,0,1.265H-88.4V2.789Z" transform="translate(95.178 -0.147)" fill="#fff"/>
    <path id="Path_2682" data-name="Path 2682" d="M-163.723-.038l.078,0c.128.043.165.107.235.222a2.321,2.321,0,0,1,.015.413c0,.04,0,.079,0,.12,0,.126,0,.253,0,.379q0,.129,0,.258,0,.315-.008.63l.112.035a.514.514,0,0,1,.272.2l.069.083a.65.65,0,0,1,.095.152h.086l2.077.007,1,0,.876,0h.464l.436,0h.236l.143,0h.124a.513.513,0,0,1,.307.176,1.4,1.4,0,0,1,.047.456c0,.033,0,.066,0,.1q0,.105,0,.211c0,.107,0,.215,0,.322q0,.1,0,.205c0,.032,0,.064,0,.1a.624.624,0,0,1-.132.448.323.323,0,0,1-.276.071.31.31,0,0,1-.232-.149,2.317,2.317,0,0,1-.011-.294c0-.028,0-.057,0-.086,0-.091,0-.182,0-.273q0-.093,0-.185,0-.227.006-.453-1,0-2.008,0-.466,0-.933,0-.406,0-.813,0c-.143,0-.287,0-.43,0-.16,0-.32,0-.481,0l-.144,0a.536.536,0,0,0-.435.123.955.955,0,0,0-.108.188.617.617,0,0,1-.4.283,1.148,1.148,0,0,1-.854-.153.349.349,0,0,1-.119-.157.715.715,0,0,0-.162-.238,1.634,1.634,0,0,0-.5-.039h-.153c-.138,0-.276,0-.414,0s-.289,0-.433,0q-.41,0-.819,0c-.311,0-.622,0-.933,0q-.959,0-1.918,0c0,.037,0,.074,0,.112q0,.207,0,.414,0,.09,0,.179c0,.086,0,.172,0,.258,0,.052,0,.1,0,.157a.368.368,0,0,1-.131.289.4.4,0,0,1-.342-.007.407.407,0,0,1-.166-.227c-.008-.115-.012-.227-.012-.342,0-.033,0-.066,0-.1q0-.105,0-.21c0-.107,0-.214,0-.321q0-.1,0-.2c0-.032,0-.064,0-.1a.619.619,0,0,1,.133-.447.467.467,0,0,1,.344-.088h1.385l.889,0,1.012,0,2.083,0,.017-.074a.529.529,0,0,1,.128-.225l.057-.07a.784.784,0,0,1,.308-.14V1.916q-.005-.346-.008-.691,0-.129,0-.258c0-.124,0-.247,0-.371l0-.116a.67.67,0,0,1,.092-.419A.274.274,0,0,1-163.723-.038Zm-.188,2.649c-.1.11-.1.11-.086.259s.027.14.157.208a.4.4,0,0,0,.33-.061c.074-.1.074-.1.061-.235-.028-.134-.028-.134-.11-.21A.281.281,0,0,0-163.911,2.611Z" transform="translate(173.359 7.821)" fill="#fff"/>
    <path id="Path_2683" data-name="Path 2683" d="M-17.515-.156h.32l.331,0h.31a.626.626,0,0,1,.454.132,1.133,1.133,0,0,1,.132.744V.851c0,.43,0,.43-.133.606a.778.778,0,0,1-.558.136h-.326c-.112,0-.224,0-.336,0h-.214l-.1,0a.563.563,0,0,1-.4-.118.976.976,0,0,1-.188-.766l0-.114a.953.953,0,0,1,.19-.666A.822.822,0,0,1-17.515-.156Zm-.073.634v.47h.978V.478Z" transform="translate(21.589 16.801)" fill="#fff"/>
    <path id="Path_2684" data-name="Path 2684" d="M-16.831-.162h.318l.328,0h.21l.1,0a.652.652,0,0,1,.5.176,1.18,1.18,0,0,1,.093.7l0,.15c0,.461,0,.461-.174.637a.552.552,0,0,1-.315.089h-.512l-.33,0h-.309a.638.638,0,0,1-.522-.2A1.2,1.2,0,0,1-17.511.8c0-.082,0-.163,0-.244,0-.052,0-.1,0-.156V.253a.523.523,0,0,1,.242-.374A1.471,1.471,0,0,1-16.831-.162Zm-.036.639v.47h.939V.477Z" transform="translate(33.548 16.801)" fill="#fff"/>
    <path id="Path_2685" data-name="Path 2685" d="M-8.344,0a.447.447,0,0,1,.313.22,1.476,1.476,0,0,1,.024.372l0,.1a.518.518,0,0,1-.119.392.382.382,0,0,1-.221.1.447.447,0,0,1-.313-.22A1.476,1.476,0,0,1-8.681.592l0-.1A.518.518,0,0,1-8.565.1.382.382,0,0,1-8.344,0Z" transform="translate(21.776 4.887)" fill="#fff"/>
    <path id="Path_2686" data-name="Path 2686" d="M-8.344,0a.447.447,0,0,1,.313.22,1.476,1.476,0,0,1,.024.372l0,.1a.518.518,0,0,1-.119.392.382.382,0,0,1-.221.1.447.447,0,0,1-.313-.22A1.476,1.476,0,0,1-8.681.592l0-.1A.518.518,0,0,1-8.565.1.382.382,0,0,1-8.344,0Z" transform="translate(14.184 4.887)" fill="#fff"/>
    <path id="Path_2687" data-name="Path 2687" d="M-13.853-1.558a.881.881,0,0,1,.093.528l0,.1c0,.245,0,.245-.091.37a.43.43,0,0,1-.279.1c-.221-.089-.221-.089-.274-.2-.011-.129-.011-.257-.012-.386l0-.108c0-.263,0-.263.087-.389A.43.43,0,0,1-13.853-1.558Z" transform="translate(27.52 4.826)" fill="#fff"/>
    <path id="Path_2688" data-name="Path 2688" d="M-13.889-1.535a.794.794,0,0,1,.093.506l0,.108c0,.26,0,.26-.091.387a.469.469,0,0,1-.279.095.367.367,0,0,1-.274-.2,2.874,2.874,0,0,1-.015-.389l0-.108c0-.26,0-.26.089-.387A.435.435,0,0,1-13.889-1.535Z" transform="translate(19.964 4.803)" fill="#fff"/>
    <path id="Path_2689" data-name="Path 2689" d="M-8.344,0a.456.456,0,0,1,.313.22,1.2,1.2,0,0,1,.024.333l0,.089A.467.467,0,0,1-8.123,1a.371.371,0,0,1-.221.1.456.456,0,0,1-.313-.22A1.2,1.2,0,0,1-8.681.553l0-.089A.467.467,0,0,1-8.565.1.371.371,0,0,1-8.344,0Z" transform="translate(17.98 3.596)" fill="#fff"/>
    <path id="Path_2690" data-name="Path 2690" d="M-8.344,0a.454.454,0,0,1,.313.22,1.235,1.235,0,0,1,.02.335v.09a.686.686,0,0,1-.07.337.337.337,0,0,1-.219.1l-.078.014A.419.419,0,0,1-8.657.885,1.209,1.209,0,0,1-8.681.553l0-.089A.467.467,0,0,1-8.565.1.371.371,0,0,1-8.344,0Z" transform="translate(17.98 2.03)" fill="#fff"/>
    <path id="Path_2691" data-name="Path 2691" d="M-11.846-.212a.392.392,0,0,1,.157.157,1.8,1.8,0,0,1,.022.372l0,.1a.442.442,0,0,1-.115.372.429.429,0,0,1-.379.016.469.469,0,0,1-.157-.2c-.006-.1-.009-.19-.01-.286l0-.156a.542.542,0,0,1,.13-.34A.588.588,0,0,1-11.846-.212Z" transform="translate(22.969 2.267)" fill="#fff"/>
    <path id="Path_2692" data-name="Path 2692" d="M-11.048-.327a.618.618,0,0,1,.2.235c0,.1.007.192.007.289v.08a.59.59,0,0,1-.087.375.347.347,0,0,1-.3.071.328.328,0,0,1-.252-.149A1.794,1.794,0,0,1-11.5.2l0-.1c0-.245,0-.245.09-.373A.438.438,0,0,1-11.048-.327Z" transform="translate(19.471 2.381)" fill="#fff"/>
    <path id="Path_2693" data-name="Path 2693" d="M-10.885-.189a.494.494,0,0,1,.2.157,1.441,1.441,0,0,1,.024.372l0,.1a.447.447,0,0,1-.117.372.429.429,0,0,1-.379.016.469.469,0,0,1-.157-.2c-.006-.1-.009-.19-.01-.286l0-.156a.542.542,0,0,1,.13-.34A.494.494,0,0,1-10.885-.189Z" transform="translate(21.969 3.809)" fill="#fff"/>
    <path id="Path_2694" data-name="Path 2694" d="M-11.135-.283a.645.645,0,0,1,.2.235c0,.1.007.192.007.289V.32A.59.59,0,0,1-11.018.7a.347.347,0,0,1-.3.071.329.329,0,0,1-.252-.149,1.773,1.773,0,0,1-.02-.369l0-.1c0-.246,0-.246.115-.373A.436.436,0,0,1-11.135-.283Z" transform="translate(19.558 3.903)" fill="#fff"/>
    <path id="Path_2695" data-name="Path 2695" d="M-11.149-.363a.42.42,0,0,1,.2.2.758.758,0,0,1-.083.6A.384.384,0,0,1-11.384.5a.42.42,0,0,1-.2-.2.758.758,0,0,1,.083-.6A.384.384,0,0,1-11.149-.363Z" transform="translate(20.903 5.549)" fill="#fff"/>
    <path id="Path_2696" data-name="Path 2696" d="M-10.127-.079a.355.355,0,0,1,.172.087A1.008,1.008,0,0,1-9.9.6.306.306,0,0,1-10.146.8a.423.423,0,0,1-.338-.115,1.033,1.033,0,0,1-.039-.548A.329.329,0,0,1-10.127-.079Z" transform="translate(19.845 0.746)" fill="#fff"/>
    <path id="Path_2697" data-name="Path 2697" d="M-10.826-.191a.633.633,0,0,1,.2.157.883.883,0,0,1,.024.274l0,.144a.3.3,0,0,1-.118.224.4.4,0,0,1-.339.062.645.645,0,0,1-.2-.235A.958.958,0,0,1-11.2-.076C-11.091-.209-10.994-.207-10.826-.191Z" transform="translate(21.91 5.377)" fill="#fff"/>
    <path id="Path_2698" data-name="Path 2698" d="M-11.208-.292a.645.645,0,0,1,.2.235.958.958,0,0,1-.054.511.292.292,0,0,1-.252.127.421.421,0,0,1-.32-.169.883.883,0,0,1-.024-.274l0-.144a.3.3,0,0,1,.118-.224A.4.4,0,0,1-11.208-.292Z" transform="translate(19.63 5.478)" fill="#fff"/>
    <path id="Path_2699" data-name="Path 2699" d="M-11.907-.167a.353.353,0,0,1,.179.286V.263l0,.144a.3.3,0,0,1-.115.225A.336.336,0,0,1-12.086.7a.468.468,0,0,1-.23-.117.79.79,0,0,1-.061-.511C-12.27-.17-12.161-.189-11.907-.167Z" transform="translate(23.03 0.853)" fill="#fff"/>
    <path id="Path_2700" data-name="Path 2700" d="M-11.137-.209a.318.318,0,0,1,.2.235A.844.844,0,0,1-11,.537a.476.476,0,0,1-.369.115.593.593,0,0,1-.2-.157A.894.894,0,0,1-11.59.222c0-.048,0-.1,0-.144C-11.544-.191-11.392-.241-11.137-.209Z" transform="translate(19.56 0.894)" fill="#fff"/>
  </g>
</svg>
