<svg id="Group_15110" data-name="Group 15110" xmlns="http://www.w3.org/2000/svg" width="9.302" height="10.089" viewBox="0 0 9.302 10.089">
  <path id="Path_2469" data-name="Path 2469" d="M370.848,218.063H374.9l1.137.454.186,4.363H374.1l-.217,4.65h-5.861l-.471-.471v-7.663l.231-.878,1.211-.454.785.222.222-.222Z" transform="translate(-367.232 -217.752)" fill="#067e05" opacity="0.12"/>
  <g id="order" transform="translate(0 0)">
    <path id="Path_2461" data-name="Path 2461" d="M33.6-496.91a1.474,1.474,0,0,0-.3.111,1.446,1.446,0,0,0-.761.927c-.036.13-.038.334-.038,4.467a37.928,37.928,0,0,0,.042,4.4.359.359,0,0,0,.116.109,25.964,25.964,0,0,0,3.332.04,29.08,29.08,0,0,0,3.332-.038.343.343,0,0,0,.12-.107l.048-.071v-4.406l1.047-.006c1-.006,1.047-.008,1.116-.048a.36.36,0,0,0,.109-.116,10.478,10.478,0,0,0,.04-2.024c0-2.207,0-2.127-.162-2.472a1.057,1.057,0,0,0-.267-.37,1.127,1.127,0,0,0-.37-.271c-.347-.17-.08-.16-3.878-.158C34.312-496.941,33.717-496.935,33.6-496.91Zm5.571.563s-.034.063-.074.13a1.8,1.8,0,0,0-.132.292l-.057.168-.006,4.156,0,4.158H33.1l0-4.158.006-4.156.061-.126a.89.89,0,0,1,.553-.45C33.8-496.348,39.174-496.363,39.174-496.346Zm1.524.071a.937.937,0,0,1,.4.357c.122.223.12.193.12,2.089v1.741H39.49v-1.741c0-1.9,0-1.867.12-2.089a.951.951,0,0,1,.547-.416A.953.953,0,0,1,40.7-496.275Z" transform="translate(-32.5 496.942)" fill="#067e05"/>
    <path id="Path_2462" data-name="Path 2462" d="M122.114-435.916a2.242,2.242,0,0,0-.256.225l-.193.191-.09-.065a1.486,1.486,0,0,0-.889-.28,1.413,1.413,0,0,0-1.051.431,1.406,1.406,0,0,0-.446,1,1.432,1.432,0,0,0,.166.765,1.618,1.618,0,0,0,.647.639,2.014,2.014,0,0,0,.315.124,1.884,1.884,0,0,0,.736,0,1.507,1.507,0,0,0,.977-.8,1.465,1.465,0,0,0,.076-1.144l-.067-.2.242-.244c.191-.2.244-.259.254-.322A.3.3,0,0,0,122.114-435.916Zm-1.03.753.164.08-.267.265-.265.267-.1-.1c-.124-.118-.17-.143-.269-.143a.279.279,0,0,0-.284.3c0,.12.05.193.3.431.189.183.231.212.313.219.16.015.16.013.536-.359.4-.4.389-.391.389-.145a.918.918,0,0,1-1.055.9.912.912,0,0,1-.53-1.516.845.845,0,0,1,.7-.286A.635.635,0,0,1,121.084-435.164Z" transform="translate(-117.363 437.231)" fill="#067e05"/>
    <path id="Path_2463" data-name="Path 2463" d="M89.168-232.829a.31.31,0,0,0-.168.261.279.279,0,0,0,.3.29.19.19,0,0,0,.181-.08.256.256,0,0,0,.065-.328.218.218,0,0,0-.132-.139A.226.226,0,0,0,89.168-232.829Z" transform="translate(-87.812 238.416)" fill="#067e05"/>
    <path id="Path_2464" data-name="Path 2464" d="M145.2-232.7a.309.309,0,0,0-.2.286.313.313,0,0,0,.137.24c.067.042.1.042,1.587.042,1.694,0,1.591.008,1.68-.147a.283.283,0,0,0-.084-.38l-.071-.05-1.492,0C145.935-232.721,145.235-232.715,145.2-232.7Z" transform="translate(-142.635 238.273)" fill="#067e05"/>
    <path id="Path_2465" data-name="Path 2465" d="M89.129-175.958a.289.289,0,0,0,.147.532.271.271,0,0,0,.271-.168.257.257,0,0,0-.067-.326A.19.19,0,0,0,89.3-176,.324.324,0,0,0,89.129-175.958Z" transform="translate(-87.809 182.747)" fill="#067e05"/>
    <path id="Path_2466" data-name="Path 2466" d="M145.135-175.96a.327.327,0,0,0-.135.242.322.322,0,0,0,.128.246l.071.05h1.514a7.315,7.315,0,0,0,1.581-.038.3.3,0,0,0,.019-.5,6.631,6.631,0,0,0-1.589-.04A6.63,6.63,0,0,0,145.135-175.96Z" transform="translate(-142.635 182.747)" fill="#067e05"/>
    <path id="Path_2467" data-name="Path 2467" d="M89.148-119.919a.3.3,0,0,0,.082.53.29.29,0,0,0,.338-.4A.3.3,0,0,0,89.148-119.919Z" transform="translate(-87.828 127.885)" fill="#067e05"/>
    <path id="Path_2468" data-name="Path 2468" d="M145.375-119.706a.3.3,0,0,0-.132.423c.1.153.023.147,1.673.147,1.6,0,1.568,0,1.661-.116a.324.324,0,0,0,.059-.252.422.422,0,0,0-.086-.132l-.069-.078-1.532,0C146.107-119.721,145.4-119.715,145.375-119.706Z" transform="translate(-142.832 127.649)" fill="#067e05"/>
  </g>
</svg>
