<svg xmlns="http://www.w3.org/2000/svg" width="15.484" height="17.237" viewBox="0 0 15.484 17.237">
  <g id="bill_4_" data-name="bill (4)" transform="translate(-25.819 0.784)">
    <path id="Path_2707" data-name="Path 2707" d="M-130.255-.486h.875l.845,0h.528l1.462,0h.474l1.526,0,1.568,0,.88,0h1.132c.138,0,.277,0,.415,0l.121,0a1.2,1.2,0,0,1,.8.289,1.423,1.423,0,0,1,.315,1.1q0,.085,0,.169,0,.232,0,.464,0,.25,0,.5,0,.49,0,.98,0,.4,0,.8,0,1.252,0,2.5,0,.988,0,1.976,0,1.015,0,2.029,0,.57,0,1.139,0,.485,0,.97,0,.247,0,.495,0,.226,0,.453,0,.082,0,.164c.005.458.005.458-.142.629q-.06.055-.123.108l-.12.124-.128.128-.071.071-.231.231-.161.161-.336.336-.432.432-.332.332-.159.159-.222.222-.067.067-.061.061-.053.053a.312.312,0,0,1-.255.079H-125.8l-1.247,0-1.281,0h-2.082a1.255,1.255,0,0,1-.714-.223,1.389,1.389,0,0,1-.372-1.076c0-.041,0-.081,0-.123q0-.166,0-.333t0-.348q0-.329,0-.659,0-.375,0-.75-.005-.771-.009-1.542l-.054-.019-.247-.089-.085-.03a4.349,4.349,0,0,1-1.494-.97l-.084-.077a4.339,4.339,0,0,1-1.3-2.82A4.773,4.773,0,0,1-133.6,4.191l.05-.055a4.273,4.273,0,0,1,1.762-1.162l.079-.027.191-.066c0-.046,0-.046,0-.092q0-.432.007-.864,0-.222,0-.444t0-.429q0-.082,0-.163a1.527,1.527,0,0,1,.319-1.1A1.261,1.261,0,0,1-130.255-.486Zm-.423.883c-.19.381-.034.851-.034,1.276H-120.1c.126-1.087.126-1.087-.134-1.377a.751.751,0,0,0-.271-.038h-4.251l-1.469,0-1.508,0h-2.452A.622.622,0,0,0-130.678.4Zm-.034,2.015v.336l.076,0a4.808,4.808,0,0,1,3.613,1.268c.231.228.231.228.273.312h.087l.811.007.417,0,.4,0h.153l.215,0h.124a.531.531,0,0,1,.343.181.524.524,0,0,1-.034.4.328.328,0,0,1-.2.134c-.057,0-.114.006-.172.007l-.106,0-.114,0-.117,0-.371.006-.251,0-.616.01a3.691,3.691,0,0,0,.162.409,4.428,4.428,0,0,1,.33,1.287c0,.082,0,.082.046.117.085,0,.169.006.253.007l.158,0,.249,0,.24,0h.074a.7.7,0,0,1,.4.116.464.464,0,0,1,.084.378.259.259,0,0,1-.118.179.85.85,0,0,1-.4.065l-.085,0-.268,0-.182,0-.445.007-.018.131a4.826,4.826,0,0,1-.466,1.538c-.058.1-.058.1-.053.179h.069l.711,0h.265l.381,0h.12c.274,0,.274,0,.409.1a.431.431,0,0,1,.093.29.4.4,0,0,1-.191.292,1.48,1.48,0,0,1-.581.048l-.223,0c-.211,0-.422,0-.632-.008-.129,0-.259,0-.388,0l-.147,0a.775.775,0,0,0-.573.132,3.192,3.192,0,0,0-.241.265,3.352,3.352,0,0,1-.953.656l-.117.062a4.378,4.378,0,0,1-2.048.443h-.455q-.006.771-.009,1.541,0,.358,0,.716t0,.69q0,.132,0,.264c0,.123,0,.246,0,.369l0,.11a.516.516,0,0,0,.1.378.493.493,0,0,0,.325.1h4.795l2.928,0c0-.021,0-.041,0-.063q0-.325.007-.65,0-.121,0-.242c0-.117,0-.233,0-.35,0-.036,0-.071,0-.108a1.126,1.126,0,0,1,.323-.836c.628-.467,1.328-.252,2.149-.269V2.411Zm-1.948,1.948-.082.066A3.857,3.857,0,0,0-134,6.81a4,4,0,0,0,.907,2.955l.043.054a2.683,2.683,0,0,0,.393.383l.087.071a3.9,3.9,0,0,0,2.895.791,3.924,3.924,0,0,0,2.525-1.5,3.912,3.912,0,0,0,.716-2.868A3.935,3.935,0,0,0-128,4.162a4.741,4.741,0,0,0-1.07-.52l-.071-.024A3.8,3.8,0,0,0-132.659,4.359Zm10.846,10.04a.591.591,0,0,0-.016.229c0,.043,0,.087,0,.131l0,.136q0,.069,0,.138,0,.169.008.338c.159-.133.31-.271.456-.418l.06-.06.124-.124.191-.191.121-.121.058-.058a.3.3,0,0,0,.132-.17q-.2-.006-.407-.009l-.138,0-.2,0-.121,0A.361.361,0,0,0-121.813,14.4Z" transform="translate(160.599 -0.281)" fill="#fff"/>
    <path id="Path_2708" data-name="Path 2708" d="M-153.91-2.456a3.137,3.137,0,0,1,.4.362l.077.075a.928.928,0,0,1,.316.526c-.006.449-.367.721-.662,1.018l-.092.093-.249.25-.156.156-.489.49-.562.564-.436.437-.26.261-.29.29-.086.087a.935.935,0,0,1-.659.344,1.065,1.065,0,0,1-.636-.357l-.094-.093-.1-.1-.1-.1-.218-.217-.278-.276-.215-.214-.1-.1c-.4-.391-.4-.391-.452-.675,0-.026,0-.051,0-.078s0-.038,0-.078a1.263,1.263,0,0,1,.431-.655l.075-.076a.922.922,0,0,1,.533-.313c.513.006.826.445,1.162.786a.725.725,0,0,0,.236-.163l.058-.059.063-.064.067-.068.144-.146.228-.232q.325-.329.649-.658l.4-.4.151-.154.212-.215.062-.064A.719.719,0,0,1-153.91-2.456Zm-.408.794-.057.057-.065.065-.071.072-.075.075-.247.248L-155-.974l-.45.453-.721.724-.252.254-.154.155-.071.072-.065.065-.057.057a.414.414,0,0,1-.332.092.338.338,0,0,1-.208-.113l-.07-.065q-.208-.2-.411-.406l-.089-.089L-158.1.011a.933.933,0,0,0-.3.235.813.813,0,0,0,.192.267l.077.077.084.082.086.085.271.269.184.183.45.447c.184-.153.355-.317.524-.486l.084-.084.274-.275.191-.191.45-.451.513-.513,1.054-1.055a.88.88,0,0,0-.235-.3C-154.272-1.709-154.272-1.709-154.318-1.662Z" transform="translate(186.576 7.022)" fill="#fff"/>
    <path id="Path_2709" data-name="Path 2709" d="M-12.462-.349h1.411l.657,0h1.187A.593.593,0,0,1-8.75-.21.444.444,0,0,1-8.7.153a.432.432,0,0,1-.188.241.69.69,0,0,1-.249.039h-1.4l-.651,0h-1.176a.591.591,0,0,1-.456-.151.488.488,0,0,1-.067-.4A.414.414,0,0,1-12.462-.349Z" transform="translate(47.805 12.179)" fill="#fff"/>
    <path id="Path_2710" data-name="Path 2710" d="M-12.226-.292h.473l.3,0h.194l.092,0a.573.573,0,0,1,.442.15.485.485,0,0,1,.054.372.48.48,0,0,1-.189.233.384.384,0,0,1-.2.039h-.475l-.306,0h-.287A.6.6,0,0,1-12.6.331a.565.565,0,0,1-.04-.382A.414.414,0,0,1-12.226-.292Z" transform="translate(49.777 4.33)" fill="#fff"/>
    <path id="Path_2711" data-name="Path 2711" d="M-18.674-.012h.8a.723.723,0,0,1,.457.129A.531.531,0,0,1-17.329.5a.593.593,0,0,1-.235.269.814.814,0,0,1-.147.009h-.5l-.32,0h-.3a.567.567,0,0,1-.415-.114A.584.584,0,0,1-19.31.232a.384.384,0,0,1,.221-.205A1.543,1.543,0,0,1-18.674-.012Z" transform="translate(56.451 6.633)" fill="#fff"/>
    <path id="Path_2712" data-name="Path 2712" d="M-11.4-.292h.5l.321,0h.2l.1,0a.554.554,0,0,1,.35.08.414.414,0,0,1,.139.278.41.41,0,0,1-.134.33.862.862,0,0,1-.518.106h-.753a.784.784,0,0,1-.53-.143.616.616,0,0,1-.052-.437A.419.419,0,0,1-11.4-.292Z" transform="translate(48.916 9.535)" fill="#fff"/>
  </g>
</svg>
