<svg xmlns="http://www.w3.org/2000/svg" width="17.219" height="17.21" viewBox="0 0 17.219 17.21">
  <path id="Path_243" data-name="Path 243" d="M12.174-503.565a3,3,0,0,0-1.393.621,2.255,2.255,0,0,1-.36.237,1.838,1.838,0,0,0-.278.12,1.725,1.725,0,0,0-.937,1.506,2.222,2.222,0,0,0,.34,1.115l.24.477-.134.024a.926.926,0,0,0-.539.364c-.086.13-.1.175-.1.446s.007.309.1.446a.875.875,0,0,0,.587.36l.172.021.065.23a2.7,2.7,0,0,0,1.108,1.5l.144.1v.734l-1.259.521c-.7.288-1.345.58-1.444.645a1.317,1.317,0,0,0-.48.583l-.093.2-.01,2.051-.01,2.048.086.086.086.086H10.1v2.3l.086.082.082.086H22.555l.082-.086.086-.082v-2.3H24.75l.082-.086.086-.082v-1.966c0-2.055-.007-2.141-.154-2.429a1.328,1.328,0,0,0-.436-.491c-.1-.065-.748-.357-1.441-.645l-1.262-.525v-.731l.148-.1a2.706,2.706,0,0,0,1.1-1.5l.065-.23.172-.021a.792.792,0,0,0,.7-.772.616.616,0,0,0-.086-.415.841.841,0,0,0-.559-.429.484.484,0,0,1-.137-.034c0-.007.072-.178.158-.384a2.581,2.581,0,0,0,.274-.971,2.255,2.255,0,0,0-.655-1.7,3.447,3.447,0,0,0-1.218-.714,2.765,2.765,0,0,0-1.355-.312,2.755,2.755,0,0,0-1.77.635,2.255,2.255,0,0,1-.36.237,1.817,1.817,0,0,0-.724.456,1.6,1.6,0,0,0-.48,1.293,2.537,2.537,0,0,0,.045.371c.021.072.014.075-.075.051a4.478,4.478,0,0,0-1,.017l-.148.034.027-.127a2.69,2.69,0,0,0-.041-.93,2.325,2.325,0,0,0-.981-1.331,9.7,9.7,0,0,0-1.482-.638A3.432,3.432,0,0,0,12.174-503.565Zm.978.6a7.079,7.079,0,0,1,1.458.686,1.651,1.651,0,0,1,.6,1.527.843.843,0,0,1-.47.744,3.181,3.181,0,0,1-.738.436,1.7,1.7,0,0,0-.906,1.952,4.961,4.961,0,0,0,.292.676l.24.48h-.175a.767.767,0,0,0-.631.257.742.742,0,0,0,0,1.132.792.792,0,0,0,.683.257c.175,0,.226.01.226.048a3.325,3.325,0,0,0,.357.864,3.359,3.359,0,0,0,.765.792l.182.124v.707l-.178.051-1.931.535c-.961.264-1.818.508-1.9.535a1.419,1.419,0,0,0-.926,1.338v.22H8.449l.01-1.808c.01-1.8.01-1.811.086-1.955a1.126,1.126,0,0,1,.2-.244,14.891,14.891,0,0,1,1.513-.676,12.363,12.363,0,0,0,1.441-.648,1.878,1.878,0,0,0,.048-.69c0-.714,0-.707-.3-.878a2.752,2.752,0,0,1-.439-.357,2.145,2.145,0,0,1-.583-1.1c-.072-.37-.137-.429-.463-.429-.209,0-.25-.01-.322-.086a.252.252,0,0,1,0-.377c.072-.075.113-.086.326-.086s.254-.01.326-.086.086-.117.086-.3c0-.2-.017-.254-.3-.83l-.3-.617v-.309a.785.785,0,0,1,.117-.528,1.055,1.055,0,0,1,.552-.511,2.689,2.689,0,0,0,.72-.422,2.627,2.627,0,0,1,1.036-.48A2.83,2.83,0,0,1,13.152-502.965Zm7.684,0a7.079,7.079,0,0,1,1.458.686,1.656,1.656,0,0,1,.607,1.07,2.014,2.014,0,0,1-.247,1.187,1.5,1.5,0,0,0-.206.7c0,.192.014.233.086.305s.113.086.326.086.254.01.326.086a.252.252,0,0,1,0,.377c-.072.075-.113.086-.322.086-.326,0-.391.058-.463.429a2.145,2.145,0,0,1-.583,1.1,2.491,2.491,0,0,1-.443.36c-.3.168-.3.161-.3.878,0,.545.007.631.062.693a14.4,14.4,0,0,0,1.437.645,15.824,15.824,0,0,1,1.5.672,1.126,1.126,0,0,1,.2.244c.075.144.075.158.086,1.952l.01,1.811h-1.65v-.22a1.464,1.464,0,0,0-.779-1.286c-.041-.021-.967-.285-2.058-.587s-2.01-.559-2.041-.569c-.055-.017-.062-.065-.062-.37v-.353l.189-.127a3.423,3.423,0,0,0,.8-.861,3.492,3.492,0,0,0,.237-.535l.1-.305h.22a.785.785,0,0,0,.672-.257.742.742,0,0,0,0-1.132.767.767,0,0,0-.631-.257.6.6,0,0,1-.175-.014c0-.007.072-.182.158-.388a2.581,2.581,0,0,0,.274-.971,2.249,2.249,0,0,0-.655-1.7,2.124,2.124,0,0,0-.768-.5l-.515-.25-.113-.24a.943.943,0,0,1-.113-.549.785.785,0,0,1,.117-.525,1.055,1.055,0,0,1,.552-.511,2.689,2.689,0,0,0,.72-.422,2.627,2.627,0,0,1,1.036-.48A2.83,2.83,0,0,1,20.836-502.965ZM17-499.946a7.47,7.47,0,0,1,1.451.686,1.662,1.662,0,0,1,.484,1.959l-.079.168-.158-.316c-.24-.473-.316-.491-.762-.161a2.287,2.287,0,0,1-1.369.583,2.267,2.267,0,0,1-1.626-.539c-.515-.381-.58-.37-.83.137a1.849,1.849,0,0,1-.172.312,1.575,1.575,0,0,1-.175-.319,1.017,1.017,0,0,1-.151-.624.785.785,0,0,1,.117-.525,1.085,1.085,0,0,1,.552-.518.892.892,0,0,1,.48-.089.908.908,0,0,1,.515.106,1.384,1.384,0,0,1,.552.456l.086.117.213-.144a.968.968,0,0,0,.213-.172,1.951,1.951,0,0,0-.408-.491,1.881,1.881,0,0,0-.6-.336c-.144,0-.021-.1.264-.209A2.355,2.355,0,0,1,17-499.946Zm-2.1,3.019a2.445,2.445,0,0,0,1.509.443,2.445,2.445,0,0,0,1.509-.443,2.986,2.986,0,0,1,.309-.189,2.685,2.685,0,0,1,.2.371l.182.37-.014.717a2.5,2.5,0,0,1-.1.971,2.179,2.179,0,0,1-.542.864,2.179,2.179,0,0,1-.864.542,1.623,1.623,0,0,1-.662.093,1.836,1.836,0,0,1-.652-.075,2.279,2.279,0,0,1-1.314-1.108,2.572,2.572,0,0,1-.247-1.4v-.628l.178-.36a2.631,2.631,0,0,1,.2-.36A2.986,2.986,0,0,1,14.9-496.927Zm-1.235,1.286v.274h-.189c-.23,0-.36-.1-.36-.274s.13-.274.36-.274h.189Zm5.952-.189a.267.267,0,0,1,.086.189c0,.175-.13.274-.36.274h-.189v-.549h.189C19.5-495.915,19.55-495.9,19.618-495.829Zm-3.207,3.183a2.716,2.716,0,0,0,.645-.051l.178-.051v.556l-.412.412-.412.412L16-491.782l-.412-.412v-.556l.182.051A2.662,2.662,0,0,0,16.411-492.646Zm-.652,1.413c.48.473.549.532.652.532s.172-.058.652-.532l.535-.532,2.038.566c2.165.6,2.223.624,2.391.871a1.017,1.017,0,0,1,.113.24c.021.072.034.7.034,1.537v1.417H20.528v-2.2h-.549v2.2H12.843v-2.2h-.549v2.2H10.648v-1.417c0-.84.014-1.465.034-1.537a1.017,1.017,0,0,1,.113-.24c.165-.247.23-.271,2.374-.868,1.115-.312,2.031-.566,2.041-.566S15.464-491.524,15.759-491.233Z" transform="translate(-7.8 503.695)" stroke="#000" stroke-width="0.2"/>
</svg>
