<svg xmlns="http://www.w3.org/2000/svg" width="16.417" height="16.413" viewBox="0 0 16.417 16.413">
  <g id="exam-_1_" transform="translate(-13.975 498)">
    <path id="Path_3591" data-name="Path 3591" d="M15.251-497.963a1.8,1.8,0,0,0-1.238,1.251c-.051.214-.051,13.621,0,13.835a1.779,1.779,0,0,0,1.251,1.251c.21.051,10.539.051,10.749,0a1.8,1.8,0,0,0,1.075-.81c.227-.4.224-.39.237-2.238l.014-1.678,1.383-1.39a11.834,11.834,0,0,0,1.475-1.58,1.74,1.74,0,0,0-.2-1.909,1.63,1.63,0,0,0-1.3-.6,1.644,1.644,0,0,0-1.2.478l-.153.142v-1.526c0-1.519,0-1.526-.075-1.665-.044-.078-.831-.882-1.831-1.868L23.681-498l-4.15,0C17.143-497.993,15.325-497.98,15.251-497.963Zm7.948,1.546c0,1.244.064,1.512.461,1.943a1.785,1.785,0,0,0,.712.482,3.651,3.651,0,0,0,1.228.088l1.024.014v3.4l-2.241,2.238c-1.231,1.231-2.258,2.275-2.282,2.323-.071.132-.766,2.716-.766,2.845a.34.34,0,0,0,.3.309c.058,0,.658-.153,1.333-.336s1.3-.353,1.383-.376c.136-.034.264-.153,1.214-1.1l1.058-1.058v1.275c0,1.492,0,1.492-.3,1.8-.332.329.2.3-5.7.3H15.451l-.186-.088a.969.969,0,0,1-.512-.505l-.1-.2v-6.714c0-7.65-.031-6.9.305-7.24s-.044-.3,4.367-.3l3.872,0Zm2.916,1.818a4.133,4.133,0,0,1-.7.017c-.675-.01-.712-.014-.892-.1a.922.922,0,0,1-.505-.478l-.105-.207v-1.465l1.1,1.1C25.62-495.121,26.115-494.612,26.115-494.6Zm3,3.547a.985.985,0,0,1,.485.461.758.758,0,0,1,.092.458.758.758,0,0,1-.092.458,1.72,1.72,0,0,1-.261.339l-.173.17-.722-.722-.719-.722.22-.21a.9.9,0,0,1,.78-.315A1.222,1.222,0,0,1,29.116-491.052Zm-1.153,1.665.712.712-2.18,2.18-2.177,2.177-.719-.722-.722-.719,2.17-2.17c1.194-1.194,2.177-2.17,2.187-2.17S27.573-489.777,27.963-489.387Zm-4.323,5.361a12.819,12.819,0,0,1-1.448.393,6.168,6.168,0,0,1,.176-.753l.2-.732.536.536C23.4-484.287,23.64-484.036,23.64-484.026Z" fill="#fff"/>
    <path id="Path_3592" data-name="Path 3592" d="M54.217-437.695a.424.424,0,0,0-.146.122c-.068.088-.071.119-.071,1.224v1.136l.115.115.119.119,1.153-.01,1.156-.01.092-.095.095-.092v-2.34l-.095-.092-.092-.095-1.129-.007C54.8-437.722,54.254-437.712,54.217-437.695Zm1.834,1.339v.678l-.685.01-.688.007v-1.39l.688.007.685.01Z" transform="translate(-38.668 -58.237)" fill="#fff"/>
    <path id="Path_3593" data-name="Path 3593" d="M155.387-427.695a.438.438,0,0,0-.149.125.331.331,0,0,0,.051.441l.088.078h3.36l.1-.1a.3.3,0,0,0,0-.451l-.1-.112-1.641-.007C156.194-427.722,155.424-427.712,155.387-427.695Z" transform="translate(-136.413 -67.898)" fill="#fff"/>
    <path id="Path_3594" data-name="Path 3594" d="M155.228-386.922a.333.333,0,0,0-.109.214.243.243,0,0,0,.085.254l.1.115h2.34l.085-.078a.32.32,0,0,0,.092-.363c-.071-.22-.075-.22-1.353-.22C155.323-387,155.316-387,155.228-386.922Z" transform="translate(-136.353 -107.236)" fill="#fff"/>
    <path id="Path_3595" data-name="Path 3595" d="M54.217-327.049c-.217.095-.217.088-.217,1.319,0,1.207.007,1.258.187,1.339a6.954,6.954,0,0,0,1.2.041h1.119l.109-.1.112-.1.01-1.122c.01-1.255.007-1.289-.214-1.38A13.131,13.131,0,0,0,54.217-327.049Zm1.851,1.343v.678h-1.39v-1.356h1.39Z" transform="translate(-38.668 -165.105)" fill="#fff"/>
    <path id="Path_3596" data-name="Path 3596" d="M155.4-316.854a.317.317,0,0,0-.241.3.245.245,0,0,0,.085.248l.1.115h3.371l.1-.112a.324.324,0,0,0-.166-.549C158.493-316.9,155.549-316.9,155.4-316.854Z" transform="translate(-136.392 -174.971)" fill="#fff"/>
    <path id="Path_3597" data-name="Path 3597" d="M155.326-275.953a.336.336,0,0,0-.125.458c.088.166.142.173,1.343.173h1.119l.108-.1a.256.256,0,0,0,.112-.241.256.256,0,0,0-.112-.241l-.108-.1h-1.129A5.914,5.914,0,0,0,155.326-275.953Z" transform="translate(-136.396 -214.472)" fill="#fff"/>
    <path id="Path_3598" data-name="Path 3598" d="M54.595-214.919l-.095.081v2.387l.095.081.095.081h1.153c1.272,0,1.278,0,1.35-.21a9.056,9.056,0,0,0,.037-1.17c0-1.133-.01-1.214-.166-1.3A10.46,10.46,0,0,0,55.843-215H54.69Zm1.957,1.275v.678h-1.39v-1.356h1.39Z" transform="translate(-39.151 -273.404)" fill="#fff"/>
    <path id="Path_3599" data-name="Path 3599" d="M155.159-204.963a.448.448,0,0,0-.159.322.333.333,0,0,0,.115.2l.115.115h1.631c1.794,0,1.784,0,1.868-.2a.371.371,0,0,0-.092-.41c-.085-.068-.125-.068-1.753-.068C155.817-205,155.2-204.986,155.159-204.963Z" transform="translate(-136.243 -283.065)" fill="#fff"/>
    <path id="Path_3600" data-name="Path 3600" d="M155.115-164.981a.342.342,0,0,0-.115.2.437.437,0,0,0,.166.326,18.751,18.751,0,0,0,2.391,0,.377.377,0,0,0,.173-.366.384.384,0,0,0-.105-.176l-.088-.081-1.15-.01-1.153-.01Z" transform="translate(-136.243 -321.612)" fill="#fff"/>
  </g>
</svg>
