<?xml version="1.0" encoding="utf-8"?>
<!-- Generator: Adobe Illustrator 28.0.0, SVG Export Plug-In . SVG Version: 6.00 Build 0)  -->
<svg version="1.1" id="Layer_1" xmlns="http://www.w3.org/2000/svg" xmlns:xlink="http://www.w3.org/1999/xlink" x="0px" y="0px"
	 viewBox="0 0 7436 2283" style="enable-background:new 0 0 7436 2283;" xml:space="preserve">
<style type="text/css">
	.st0{fill:#CCDA2C;}
	.st1{fill:#CDDA2C;}
</style>
<polygon points="373.5,1928.2 373.5,300.5 195,300.5 195,2106.5 220.2,2106.5 220.2,2106.8 1075,2106.8 1075,1928.2 "/>
<g>
	<path d="M943.4,1713.6H544c2.9,87.5,67.5,151.2,166.4,151.2c78.9,0,126.5-42.8,147.4-85.6l72.3,9.5
		c-19,65.6-93.2,149.3-219.7,149.3c-145.5,0-248.2-107.5-248.2-253c0-135,98-247.3,240.6-247.3c147.4,0,240.6,118.9,240.6,254.9
		V1713.6z M544,1654.7h317.6c-4.8-75.1-64.7-143.6-158.8-143.6C612.5,1511.1,546.9,1575.7,544,1654.7z"/>
</g>
<g>
	<path d="M6551,1532.6v407.3h-48.4v-177.5h-211.8v177.5h-47.9v-407.3h47.9v184.6h211.8v-184.6H6551z"/>
	<path d="M6768.1,1937.9c-80.9,0-133.3-45.6-133.3-146.4V1628h41.2v163.6c0,77.5,36.8,107.1,92.1,107.1s92.1-29.6,92.1-107.1V1628
		h41.7v163.6C6901.8,1892.4,6849.5,1937.9,6768.1,1937.9z"/>
	<path d="M7169.3,1937.9c-54.4,0-99.1-30.9-116.9-71.6l-2.3,65.9h-47v-429.7h49.3v205.7c17.8-40.7,62.4-71.6,116.9-71.6
		c83.1,0,146.7,67.6,146.7,150.1C7316,1870.3,7252.4,1937.9,7169.3,1937.9z M7161.3,1683c-59,0-103.7,47.5-103.7,103.7
		c0,57.3,44.7,104.8,103.7,104.8c59.6,0,105.4-47.5,105.4-104.8C7266.7,1730.6,7220.9,1683,7161.3,1683z"/>
	<path d="M5458.8,1169.8h-89.7V1533h-44.3v-363.2H5235V1128h223.7V1169.8z"/>
	<path d="M5793.4,1395.8h-244.2c1.7,53.5,41.3,92.5,101.8,92.5c48.3,0,77.3-26.2,90.1-52.3l44.2,5.8c-11.6,40.1-57,91.3-134.3,91.3
		c-89,0-151.8-65.7-151.8-154.7c0-82.6,59.9-151.2,147.1-151.2c90.1,0,147.1,72.7,147.1,155.8V1395.8z M5549.1,1359.7h194.2
		c-2.9-45.9-39.5-87.8-97.1-87.8C5591,1271.9,5550.9,1311.5,5549.1,1359.7z"/>
	<path d="M6041.6,1274.1c-60.5,0-115.3,44.8-115.3,105.3c0,61.7,54.9,106.5,115.3,106.5c35.5,0,64.2-12.8,90.4-37.2v48.9
		c-24.3,22.1-58,35.5-98.5,35.5c-92.3,0-163.3-69.2-163.3-153.6c0-82.6,71.1-152.4,163.3-152.4c40.5,0,74.2,13.4,98.5,35.5v48.3
		C6105.8,1286.9,6077.1,1274.1,6041.6,1274.1z"/>
	<path d="M6502,1370.4V1533h-47.2v-142.8c0-69.8-29.7-96.1-72.5-96.1c-65.9,0-92.3,57.7-92.3,97.2V1533h-47.2v-412.1h47.2v182.4
		c25.3-30.2,61-53.8,108.8-53.8C6463,1249.5,6502,1291.8,6502,1370.4z"/>
	<path d="M6857,1361.2V1533h-49.9v-150.9c0-73.7-31.3-101.6-76.6-101.6c-69.6,0-97.5,60.9-97.5,102.7V1533h-49.9v-293.7h47l2.3,51.1
		c26.7-31.3,65-56.9,115.5-56.9C6815.8,1233.5,6857,1278.2,6857,1361.2z"/>
	<path d="M6920.8,1385.4c0-80.5,64.9-146.5,150.4-146.5c86.1,0,149.8,66,149.8,146.5c0,81.6-63.7,147.6-149.8,147.6
		C6985.6,1533,6920.8,1467,6920.8,1385.4z M7172.9,1385.4c0-54.8-43.6-101.2-101.8-101.2c-57.6,0-102.3,46.4-102.3,101.2
		c0,55.9,44.7,102.3,102.3,102.3C7129.3,1487.7,7172.9,1441.3,7172.9,1385.4z"/>
</g>
<g>
	<path class="st0" d="M1184.5,1301C956.1,1301,771,1115.9,771,887.5S956.1,474,1184.5,474c82,0,158.4,23.9,222.6,65h332
		c-115.3-181-317.7-301-548.2-301c-358.7,0-649.5,290.8-649.5,649.5S832.3,1537,1191,1537c252.3,0,471-143.8,578.5-354h-295.8
		C1399.2,1256,1297.1,1301,1184.5,1301z"/>
	<path class="st0" d="M1813.4,773h-731.8c-48.4,0-87.6,39.2-87.6,87.6v53.8c0,48.4,39.2,87.6,87.6,87.6h731.8
		c48.4,0,87.6-39.2,87.6-87.6v-53.8C1901,812.2,1861.8,773,1813.4,773z"/>
</g>
<g>
	<g>
		<path d="M3319.3,282h-245.8c39,63.8,61.6,138.8,61.6,219c0,232-188,420-420,420c-232,0-420-188-420-420
			c0-80.2,22.5-155.2,61.6-219h-4.4h-262.4c-22.5,65.9-34.7,136.5-34.7,210c0,319.6,230.9,585.3,535,639.4v720
			c0,48.4,39.2,87.6,87.6,87.6h53.8c48.4,0,87.6-39.2,87.6-87.6v-720c304.1-54.1,535-319.8,535-639.4
			C3354,418.5,3341.8,347.9,3319.3,282z"/>
		<ellipse cx="2692" cy="598" rx="214" ry="188"/>
	</g>
</g>
<g>
	<path class="st1" d="M4166.5,1301c-228.4,0-413.5-185.1-413.5-413.5S3938.1,474,4166.5,474c82,0,158.4,23.9,222.6,65h332
		c-115.3-181-317.7-301-548.2-301c-358.7,0-649.5,290.8-649.5,649.5S3814.3,1537,4173,1537c252.3,0,471-143.8,578.5-354h-295.8
		C4381.2,1256,4279.1,1301,4166.5,1301z"/>
	<path class="st1" d="M5543.5,773H5183c-0.2-45.4-0.5-74.9-1-81c-3-39-48-36-48-36s-86,63-127,108c-2.6,2.8-5,5.9-7.2,9h-856.2
		c-92.5,0-167.5,39.2-167.5,87.6v53.8c0,48.4,75,87.6,167.5,87.6h824.3c-7.4,262.1-23.3,925.9,3.1,950c33,30,89-9,147-71
		s64-163.9,64-163.9s1.3-413.1,1.3-715.1h360.1c92.5,0,167.5-39.2,167.5-87.6v-53.8C5711,812.2,5636,773,5543.5,773z"/>
</g>
</svg>
