<svg xmlns="http://www.w3.org/2000/svg" width="15.789" height="15.793" viewBox="0 0 15.789 15.793">
  <g id="debit-card" transform="translate(0.508 0.508)">
    <path id="Path_3108" data-name="Path 3108" d="M-38.374-.362h4.637l1.6,0,1.645,0h2.612A1.462,1.462,0,0,1-26.8.01a1.382,1.382,0,0,1,.364.709,1.094,1.094,0,0,1-.02.143,2.34,2.34,0,0,0,.165,1.727,8.011,8.011,0,0,0,1.257,1.226,3.47,3.47,0,0,1,1.026,1.444l.026.067a4.359,4.359,0,0,1,.175,1.522c0,.113,0,.226,0,.339q0,.331,0,.663,0,.269,0,.538c0,.026,0,.051,0,.078q0,.078,0,.156,0,.73,0,1.46,0,.668,0,1.336,0,.687,0,1.373,0,.385,0,.771,0,.328,0,.655,0,.167,0,.334c0,.121,0,.241,0,.362,0,.035,0,.071,0,.107V15.2a.3.3,0,0,1-.139.2.831.831,0,0,1-.2.016h-4.686a.365.365,0,0,1-.25-.173,1.342,1.342,0,0,1-.016-.257c0-.026,0-.051,0-.077q0-.083,0-.166c0-.088,0-.176,0-.263q0-.374.005-.749,0-.229,0-.458,0-.087,0-.174a1.272,1.272,0,0,0-.273-.934,3.756,3.756,0,0,1-.423-2.423l.01-.067a5.585,5.585,0,0,1,.167-.648l-.059.023-2.365.912-1.054.406-.564.218-.112.043-.224.086-.651.252-.4.155-.186.072-.256.1-.074.029a1.565,1.565,0,0,1-1.261-.007,1.721,1.721,0,0,1-.751-1l-.038-.1-.119-.315-.082-.216-.162-.427q-.1-.257-.2-.512l-.027-.069-.1-.249-.064-.163-.035-.089a.267.267,0,0,1-.024-.131l-.106-.008a1.329,1.329,0,0,1-.832-.513,1.206,1.206,0,0,1-.24-.757V6.688q0-.13,0-.26,0-.093,0-.187,0-.253,0-.507,0-.158,0-.317,0-.553,0-1.106,0-.515,0-1.03,0-.443,0-.885,0-.264,0-.528,0-.249,0-.5,0-.091,0-.182A1.489,1.489,0,0,1-39.269.073l.047-.056A1.135,1.135,0,0,1-38.374-.362Zm-.458.783-.051.05a.806.806,0,0,0-.152.538v.077c0,.084,0,.168,0,.253q0,.091,0,.182,0,.246,0,.493,0,.206,0,.412,0,.486,0,.971,0,.5,0,1,0,.43,0,.86,0,.257,0,.514,0,.241,0,.483,0,.088,0,.177c0,.081,0,.161,0,.242v.07A.771.771,0,0,0-38.8,7.3a1.1,1.1,0,0,0,.834.225h4.608l2.92,0-.088-.119-.05-.067a1.569,1.569,0,0,0-.168-.184c-.1-.1-.189-.194-.277-.3-.05-.056-.1-.111-.152-.165a1.8,1.8,0,0,1-.6-1.23,1.425,1.425,0,0,1,.281-.834.342.342,0,0,0,.071-.124.253.253,0,0,1,.156-.119l.129-.09a1.412,1.412,0,0,1,1.015-.2,2.969,2.969,0,0,1,1.41,1.03l.209.21.442.444.517.518.206.207.125.126.058.059c.044.044.089.088.134.131h.031q0-1.166.006-2.331,0-.541,0-1.083,0-.472,0-.944,0-.25,0-.5t0-.471q0-.086,0-.172a1.288,1.288,0,0,0-.2-.883L-27.23.383l-.058-.049a1.176,1.176,0,0,0-.724-.15H-38.091A.9.9,0,0,0-38.832.421Zm12.4,3.683v.107q0,.5-.008,1,0,.257,0,.514t0,.5q0,.095,0,.189,0,.133,0,.265v.078a1.677,1.677,0,0,1-.071.458A1.274,1.274,0,0,0-25.7,6.72a.9.9,0,0,0,.033-.712c-.038-.1-.078-.209-.119-.312l-.045-.115q-.058-.15-.118-.3l-.119-.3-.175-.445q-.085-.214-.164-.43Zm.462-.431c.061.216.134.425.215.634l.035.092.111.288c.283.733.283.733.408,1.068l.027.071a1.479,1.479,0,0,1,0,1.048A1.459,1.459,0,0,1-26,7.613l-.123.062a4.461,4.461,0,0,0,.359.387l.047.046.2.19.145.141.087.084c.059.076.059.076.056.142a.746.746,0,0,1-.169.2l-.077.075-.06.056a.868.868,0,0,1-.292-.224l-.051-.051-.168-.169-.12-.121-.259-.261-.411-.413-1.168-1.174-.645-.648-.407-.41-.255-.256-.117-.118a1.4,1.4,0,0,0-.929-.563.888.888,0,0,0-.657.279.931.931,0,0,0-.222.679,1.011,1.011,0,0,0,.347.62l.129.144c.14.155.282.309.424.462l.39.425.211.23.085.092.042.046.127.138.042.046.084.092.222.241.047.051.089.1a.483.483,0,0,1,.178.394.841.841,0,0,1-.108.289l-.06.122-.029.06a3.181,3.181,0,0,0-.047,2.366,2.36,2.36,0,0,0,.421.768.829.829,0,0,0,.17.007h2.514l1.594,0q0-1.19.006-2.38,0-.553,0-1.105,0-.482,0-.964,0-.255,0-.51t0-.481q0-.088,0-.175a3.113,3.113,0,0,0-.967-2.321l-.125-.126-.068-.07q-.164-.167-.33-.332l-.053-.053C-25.938,3.67-25.938,3.67-25.974,3.674Zm-9.6,4.883c-.211.1-.429.183-.648.264l-.2.078-.193.074-.211.081-.5.19a2.225,2.225,0,0,0,.117.391l.026.068.054.143.082.217L-37,10.2l.024.065a.97.97,0,0,0,.485.579,1.1,1.1,0,0,0,.814-.079l.088-.034.287-.111.205-.079.546-.211.541-.208.987-.381.793-.306,1.094-.422.4-.155.455-.176.165-.064.223-.086.066-.025a.549.549,0,0,0,.216-.126l-.052-.051-.068-.067-.067-.066a.765.765,0,0,1-.121-.155.51.51,0,0,0-.161-.015l-.1,0-.114,0-.12,0-.4-.007h-.069l-.648-.007c-.248,0-.5,0-.745-.011A6.6,6.6,0,0,0-35.578,8.556Zm-2.213-.482c.071.242.071.242.152.479l.028.077c.03.063.03.063.089.082a.42.42,0,0,0,.23-.045l.1-.037.1-.041.107-.042.281-.11.287-.112.563-.22V8.074Zm9.263,4.709v2.062h4.155V12.783Z" transform="translate(39.084 -0.134)" fill="#fff"/>
    <path id="Path_3109" data-name="Path 3109" d="M-21.278-.207h.542l.349,0h.328a.749.749,0,0,1,.586.2l.042.061.043.06a.694.694,0,0,1,.108.376V.575c0,.033,0,.066,0,.1v.1q0,.108,0,.216c0,.11,0,.219,0,.329q0,.105,0,.21v.1a.931.931,0,0,1-.152.577l-.051.049-.049.051a1.049,1.049,0,0,1-.666.152h-.931a.987.987,0,0,1-.6-.172.871.871,0,0,1-.224-.712V1.468q0-.114,0-.227c0-.115,0-.231,0-.346q0-.111,0-.221v-.1a.8.8,0,0,1,.194-.583l.052-.042.052-.043A.643.643,0,0,1-21.278-.207Zm-.1.624a1.409,1.409,0,0,0,0,.219l0,.212h.523V1.4h-.523l-.006.212,0,.119.009.1a.3.3,0,0,0,.226.07H-20a.208.208,0,0,0,.154-.1.841.841,0,0,0,.006-.206l-.006-.194h-.523V.848h.523l0-.194,0-.109a.2.2,0,0,0-.068-.189.366.366,0,0,0-.136-.011H-21.26C-21.328.35-21.328.35-21.382.417Z" transform="translate(22.49 0.753)" fill="#fff"/>
    <path id="Path_3110" data-name="Path 3110" d="M0,0H1.077V.554H0Z" transform="translate(5.539 5.54)" fill="#fff"/>
    <path id="Path_3111" data-name="Path 3111" d="M0,0H1.077V.554H0Z" transform="translate(0.8 5.54)" fill="#fff"/>
    <path id="Path_3112" data-name="Path 3112" d="M0,0H1.077V.554H0Z" transform="translate(5.539 3.97)" fill="#fff"/>
    <path id="Path_3113" data-name="Path 3113" d="M0,0H1.077V.554H0Z" transform="translate(3.97 3.97)" fill="#fff"/>
    <path id="Path_3114" data-name="Path 3114" d="M0,0H1.077V.554H0Z" transform="translate(2.369 3.97)" fill="#fff"/>
    <path id="Path_3115" data-name="Path 3115" d="M0,0H1.077V.554H0Z" transform="translate(0.8 3.97)" fill="#fff"/>
    <path id="Path_3116" data-name="Path 3116" d="M0,0H.554V.831H0Z" transform="translate(10.525 0.8)" fill="#fff"/>
    <path id="Path_3117" data-name="Path 3117" d="M0,0H.554V.831H0Z" transform="translate(9.478 0.8)" fill="#fff"/>
    <path id="Path_3118" data-name="Path 3118" d="M0,0H.554V.831H0Z" transform="translate(8.432 0.8)" fill="#fff"/>
    <path id="Path_3119" data-name="Path 3119" d="M0,0H.554V.831H0Z" transform="translate(7.386 0.8)" fill="#fff"/>
    <path id="Path_3120" data-name="Path 3120" d="M0,0H.554V.554H0Z" transform="translate(11.048 13.141)" fill="#fff"/>
  </g>
</svg>
