<svg xmlns="http://www.w3.org/2000/svg" width="17.079" height="17.102" viewBox="0 0 17.079 17.102">
  <g id="law" transform="translate(-16.36 495.982)">
    <path id="Path_2875" data-name="Path 2875" d="M24.613-495.937a1.136,1.136,0,0,0-.527.545,4.463,4.463,0,0,0-.043.773v.627l-.164.164a1.572,1.572,0,0,0-.371.677c0,.121-.046.153-.3.214-.139.029-.7.207-1.247.392a10.274,10.274,0,0,1-1.846.492c-.118.018-.139.011-.185-.082a1.041,1.041,0,0,0-.2-.224.83.83,0,0,0-1.186.121c-.114.132-.135.143-.246.121a4.463,4.463,0,0,1-.837-.342c-.228-.125-.342-.132-.456-.014a.268.268,0,0,0-.025.371,4.318,4.318,0,0,0,1.329.574c.029,0,.078.071.114.157a.764.764,0,0,0,.135.221.2.2,0,0,1,.068.11c0,.025-.517,1.418-1.144,3.1-1.276,3.4-1.186,3.089-1.048,3.666a2.51,2.51,0,0,0,1.888,1.871,2.736,2.736,0,0,0,.873.078,2.7,2.7,0,0,0,1.454-.3,2.5,2.5,0,0,0,1.382-2.066c.021-.2.007-.242-1.122-3.253-.627-1.678-1.144-3.068-1.144-3.089a.352.352,0,0,1,.082-.139,1.649,1.649,0,0,0,.139-.21.164.164,0,0,1,.167-.11,6.994,6.994,0,0,0,1.129-.228c.153-.046.563-.185.9-.306a11.176,11.176,0,0,1,1.318-.392.738.738,0,0,1,.128.2,1.47,1.47,0,0,0,.684.663.988.988,0,0,0,.577.114.988.988,0,0,0,.577-.114,1.47,1.47,0,0,0,.684-.663.738.738,0,0,1,.128-.2,11.35,11.35,0,0,1,1.354.406,8.03,8.03,0,0,0,2,.52c.078,0,.118.025.164.11a1.363,1.363,0,0,0,.143.21.379.379,0,0,1,.078.139c0,.021-.517,1.411-1.144,3.093-1.276,3.4-1.186,3.089-1.048,3.666a2.51,2.51,0,0,0,1.888,1.871,2.736,2.736,0,0,0,.873.078,2.7,2.7,0,0,0,1.454-.3,2.5,2.5,0,0,0,1.382-2.066c.021-.2.007-.242-1.122-3.253-.627-1.678-1.144-3.071-1.144-3.1a.2.2,0,0,1,.068-.11.764.764,0,0,0,.135-.221c.036-.086.086-.157.114-.157a4.375,4.375,0,0,0,1.333-.574.272.272,0,0,0-.029-.371c-.114-.118-.228-.11-.456.014a4.464,4.464,0,0,1-.837.342c-.11.021-.132.011-.246-.121a.83.83,0,0,0-1.186-.121,1.041,1.041,0,0,0-.2.224c-.061.118-.053.118-.663,0a13.938,13.938,0,0,1-1.724-.531c-.292-.1-.67-.214-.837-.257-.31-.071-.356-.1-.356-.224a1.624,1.624,0,0,0-.371-.681L25.754-494v-.62c0-.752-.025-.855-.267-1.094A.808.808,0,0,0,24.613-495.937Zm.481.613c.086.082.089.1.089.577v.492h-.57v-.492c0-.474,0-.5.089-.577a.278.278,0,0,1,.2-.089A.278.278,0,0,1,25.094-495.324Zm.1,1.678a.911.911,0,0,1,.559.8.9.9,0,0,1-.855.855.78.78,0,0,1-.588-.267.789.789,0,0,1,.018-1.2A.8.8,0,0,1,25.194-493.646Zm-5.8,1.742a.281.281,0,0,1-.2.481.3.3,0,0,1-.285-.285.3.3,0,0,1,.285-.285A.278.278,0,0,1,19.394-491.9Zm11.4,0a.278.278,0,0,1,.089.2.278.278,0,0,1-.089.2.278.278,0,0,1-.2.089.278.278,0,0,1-.2-.089.278.278,0,0,1-.089-.2.278.278,0,0,1,.089-.2.278.278,0,0,1,.2-.089A.278.278,0,0,1,30.8-491.9Zm-10.518,3.876c.581,1.557,1.058,2.84,1.058,2.85s-.962.025-2.138.025-2.138-.011-2.138-.025c0-.046,2.12-5.676,2.138-5.676S19.693-489.58,20.277-488.027Zm11.4,0c.581,1.557,1.058,2.84,1.058,2.85s-.962.025-2.138.025-2.138-.011-2.138-.025c0-.046,2.12-5.676,2.138-5.676S31.094-489.58,31.679-488.027Zm-10.236,3.474a2.654,2.654,0,0,1-.239.659,1.934,1.934,0,0,1-1.222.937,4.633,4.633,0,0,1-1.568,0,1.934,1.934,0,0,1-1.222-.937,2.654,2.654,0,0,1-.239-.659c0-.014,1.012-.029,2.245-.029S21.442-484.567,21.442-484.553Zm11.4,0a2.654,2.654,0,0,1-.239.659,1.934,1.934,0,0,1-1.222.937,4.633,4.633,0,0,1-1.568,0,1.934,1.934,0,0,1-1.222-.937,2.654,2.654,0,0,1-.239-.659c0-.014,1.012-.029,2.245-.029S32.844-484.567,32.844-484.553Z" transform="translate(0 0)" fill="#fff"/>
    <path id="Path_2876" data-name="Path 2876" d="M131.795-351.911l-.089.086v8.947h-1.055a8.106,8.106,0,0,0-1.2.043,1.058,1.058,0,0,0-.549.549,1.463,1.463,0,0,0-.043.349c0,.16-.011.2-.057.2a.972.972,0,0,0-.755.591,2.726,2.726,0,0,0-.043.545c0,.374,0,.4.089.485l.086.089h8.772l.086-.089c.086-.082.089-.107.089-.506a1.141,1.141,0,0,0-.086-.6.91.91,0,0,0-.713-.513c-.046,0-.057-.039-.057-.2a.865.865,0,0,0-.239-.656c-.246-.274-.306-.285-1.55-.285h-1.062v-8.947l-.089-.086a.278.278,0,0,0-.2-.089.278.278,0,0,0-.2.089l-.089.086v8.947h-.57v-8.947l-.089-.086a.278.278,0,0,0-.2-.089A.278.278,0,0,0,131.795-351.911Zm3.812,9.691c.075.071.089.121.089.285v.2h-.766c-.77,0-.77,0-.855.089a.278.278,0,0,0-.089.2.278.278,0,0,0,.089.2l.086.089h2.216l.086.089c.075.071.089.121.089.285v.2H128.57v-.2c0-.164.014-.214.089-.285l.086-.089h4.5l.086-.089a.262.262,0,0,0,0-.392l-.086-.089h-3.816v-.2c0-.164.014-.214.089-.285l.085-.089h5.922Z" transform="translate(-107.662 -138.852)" fill="#fff"/>
  </g>
</svg>
