<svg xmlns="http://www.w3.org/2000/svg" width="22.047" height="23.938" viewBox="0 0 22.047 23.938">
  <g id="attendance" transform="translate(-29.996 511.907)">
    <path id="Path_2119" data-name="Path 2119" d="M207.712-511.839a1.144,1.144,0,0,0-.712.975,1,1,0,0,0,.341.81,1.046,1.046,0,0,0,1.639-.161A1.081,1.081,0,0,0,207.712-511.839Z" transform="translate(-168.371 0)" fill="#ff8000"/>
    <path id="Path_2120" data-name="Path 2120" d="M59.331-492.834l-1.151,1.166-.312-.312c-.356-.356-.478-.385-.717-.185a.334.334,0,0,0-.151.3c0,.156.049.224.5.678.41.41.527.5.649.5s.351-.2,1.546-1.38c1.283-1.258,1.4-1.39,1.4-1.536a.408.408,0,0,0-.424-.4C60.5-494,60.439-493.956,59.331-492.834Z" transform="translate(-25.687 -17.034)" fill="#ff8000"/>
    <path id="Path_2121" data-name="Path 2121" d="M31.962-491.7a2.514,2.514,0,0,0-1.892,3.014,2.259,2.259,0,0,0,.654,1.112,2.364,2.364,0,0,0,1.785.736,2.363,2.363,0,0,0,1.77-.761,2.38,2.38,0,0,0,.693-1.619.438.438,0,0,0-.127-.38.366.366,0,0,0-.537-.015c-.107.093-.141.176-.171.444a1.627,1.627,0,0,1-.449.995,1.672,1.672,0,0,1-2.419-.015,1.386,1.386,0,0,1-.419-1.122,1.322,1.322,0,0,1,.127-.707,1.822,1.822,0,0,1,.761-.785,2.726,2.726,0,0,1,.571-.161c.419-.078.444-.088.541-.278a.236.236,0,0,0,.015-.273C32.742-491.772,32.508-491.816,31.962-491.7Z" transform="translate(0 -19.164)" fill="#ff8000"/>
    <path id="Path_2122" data-name="Path 2122" d="M179.392-443.492A2.213,2.213,0,0,0,177.5-441.2l0,.38.229.2a3.6,3.6,0,0,0,2.322.566,3.174,3.174,0,0,0,2.419-.7c.083-.112.1-.2.088-.463a2.238,2.238,0,0,0-1.644-2.229A4.211,4.211,0,0,0,179.392-443.492Z" transform="translate(-140.309 -65.035)" fill="#ff8000"/>
    <path id="Path_2123" data-name="Path 2123" d="M329.1-436.878a.381.381,0,0,0,.122.634,12.9,12.9,0,0,0,2.6.073c2.644,0,2.658,0,2.79-.249.1-.19.088-.258-.059-.429l-.127-.151h-5.214Z" transform="translate(-284.402 -71.254)" fill="#ff8000"/>
    <path id="Path_2124" data-name="Path 2124" d="M330.059-403.878a.436.436,0,0,0-.02.59c.1.088.229.093,3.59.093h3.487l.117-.137a.367.367,0,0,0-.01-.541l-.132-.127h-6.916Z" transform="translate(-285.308 -102.868)" fill="#ff8000"/>
    <path id="Path_2125" data-name="Path 2125" d="M207.683-325.9a1.164,1.164,0,0,0-.683,1.024,1.218,1.218,0,0,0,.478.9.852.852,0,0,0,.541.161.965.965,0,0,0,.893-.371,1.07,1.07,0,0,0-.351-1.668A1.39,1.39,0,0,0,207.683-325.9Z" transform="translate(-168.371 -177.294)" fill="#ff8000"/>
    <path id="Path_2126" data-name="Path 2126" d="M58.658-306.844,57.5-305.688l-.293-.278c-.293-.278-.439-.332-.663-.249a.472.472,0,0,0-.2.449,2.71,2.71,0,0,0,.473.58c.478.483.644.566.907.458.078-.034.722-.644,1.439-1.361,1.175-1.18,1.3-1.322,1.3-1.468A.478.478,0,0,0,60-308C59.828-308,59.765-307.946,58.658-306.844Z" transform="translate(-25.062 -194.435)" fill="#ff8000"/>
    <path id="Path_2127" data-name="Path 2127" d="M31.935-305.828a2.493,2.493,0,0,0-1.512,3.658,3.17,3.17,0,0,0,1,.956,2.5,2.5,0,0,0,3.014-.556,2.449,2.449,0,0,0,.615-1.541c0-.322-.141-.5-.4-.5s-.385.176-.429.561a1.64,1.64,0,0,1-.917,1.327,1.241,1.241,0,0,1-.736.137,1.283,1.283,0,0,1-.688-.112,1.677,1.677,0,0,1-.776-.751,1.116,1.116,0,0,1-.171-.746,1.322,1.322,0,0,1,.127-.707,2.5,2.5,0,0,1,.283-.454,1.942,1.942,0,0,1,1.029-.507c.346-.039.512-.127.576-.3a.444.444,0,0,0-.18-.493A1.463,1.463,0,0,0,31.935-305.828Z" transform="translate(-0.08 -196.476)" fill="#ff8000"/>
    <path id="Path_2128" data-name="Path 2128" d="M179.084-256.9a2.159,2.159,0,0,0-1.38.883,3.161,3.161,0,0,0-.41,1.268.709.709,0,0,0,.288.776c.975.741,4.043.634,4.653-.161.107-.141.122-.2.117-.493a2.3,2.3,0,0,0-1.195-2.073A3.534,3.534,0,0,0,179.084-256.9Z" transform="translate(-140.104 -243.099)" fill="#ff8000"/>
    <path id="Path_2129" data-name="Path 2129" d="M329.355-250.893a.406.406,0,0,0-.171.673l.117.122h5.214l.127-.151c.146-.171.156-.239.059-.429-.132-.249-.141-.249-2.8-.244C330.54-250.922,329.394-250.907,329.355-250.893Z" transform="translate(-284.482 -248.798)" fill="#ff8000"/>
    <path id="Path_2130" data-name="Path 2130" d="M330.419-217.879a.407.407,0,0,0-.141.658l.117.122h6.936l.117-.122a.384.384,0,0,0,.068-.473c-.127-.234-.156-.234-3.687-.229C332.009-217.922,330.472-217.9,330.419-217.879Z" transform="translate(-285.527 -280.256)" fill="#ff8000"/>
    <path id="Path_2131" data-name="Path 2131" d="M207.76-139.658a1.1,1.1,0,0,0-.693,1.414,1.323,1.323,0,0,0,.688.663,1.107,1.107,0,0,0,1.41-1.195A1.11,1.11,0,0,0,207.76-139.658Z" transform="translate(-168.37 -354.862)" fill="#ff8000"/>
    <path id="Path_2132" data-name="Path 2132" d="M59.722-121.683c-.039.015-.6.541-1.229,1.175l-1.161,1.156-.293-.293c-.244-.244-.317-.288-.463-.288a.387.387,0,0,0-.4.356c-.034.161-.02.18.473.649a4.486,4.486,0,0,0,.619.532.368.368,0,0,0,.273-.024,30.436,30.436,0,0,0,2.746-2.751A.463.463,0,0,0,59.722-121.683Z" transform="translate(-24.897 -372.202)" fill="#ff8000"/>
    <path id="Path_2133" data-name="Path 2133" d="M31.707-118.888A2.507,2.507,0,0,0,30-116.537a2.488,2.488,0,0,0,3.595,2.239,2.514,2.514,0,0,0,1.38-2.131.431.431,0,0,0-.141-.38.3.3,0,0,0-.439-.068c-.161.078-.229.239-.268.6a1.663,1.663,0,0,1-.985,1.288,1.858,1.858,0,0,1-1.336-.015,1.769,1.769,0,0,1-.819-.815,1.33,1.33,0,0,1-.132-.717,1.247,1.247,0,0,1,.137-.712,1.662,1.662,0,0,1,1.341-.922.637.637,0,0,0,.439-.166.372.372,0,0,0,.01-.541c-.1-.107-.156-.122-.434-.122A2.1,2.1,0,0,0,31.707-118.888Z" transform="translate(-0.004 -374.773)" fill="#ff8000"/>
    <path id="Path_2134" data-name="Path 2134" d="M178.864-70.827a2.128,2.128,0,0,0-1.634,1.79c-.146.766-.068.971.463,1.244a4.359,4.359,0,0,0,1.98.351c1.424,0,2.307-.283,2.536-.81a2.365,2.365,0,0,0-.083-1.058,2.133,2.133,0,0,0-1.585-1.517A4.846,4.846,0,0,0,178.864-70.827Z" transform="translate(-139.99 -420.527)" fill="#ff8000"/>
    <path id="Path_2135" data-name="Path 2135" d="M329.1-64.878a.364.364,0,0,0,.015.566l.141.141H334.4l.141-.141a.338.338,0,0,0,0-.546L334.4-65h-5.165Z" transform="translate(-284.394 -426.14)" fill="#ff8000"/>
    <path id="Path_2136" data-name="Path 2136" d="M330.039-30.873a.364.364,0,0,0-.024.58l.132.122h6.872l.141-.141a.365.365,0,0,0-.088-.629c-.078-.044-1.01-.059-3.5-.059H330.19Z" transform="translate(-285.259 -458.481)" fill="#ff8000"/>
  </g>
</svg>
