<svg xmlns="http://www.w3.org/2000/svg" width="23.378" height="17.001" viewBox="0 0 23.378 17.001">
  <g id="Group_17950" data-name="Group 17950" transform="translate(-30.999 -285.499)">
    <g id="shopping-bag" transform="translate(-22.482 797.384)">
      <path id="Path_245" data-name="Path 245" d="M188.193-261.882c-.053.027-.608.559-1.23,1.177l-1.13,1.13-.432-.432c-.565-.565-.708-.638-1-.5a.4.4,0,0,0-.209.209.43.43,0,0,0-.007.445,16.967,16.967,0,0,0,1.4,1.416.623.623,0,0,0,.455.017c.136-.05,2.723-2.64,2.8-2.809a.424.424,0,0,0-.01-.459A.487.487,0,0,0,188.193-261.882Z" transform="translate(-126.3 -241.642)" fill="#ed1c24"/>
    </g>
    <g id="Group_17949" data-name="Group 17949">
      <path id="Path_244" data-name="Path 244" d="M59.659-511.839a3.327,3.327,0,0,0-2.553,2.181,3.974,3.974,0,0,0-.183.984v.14l-.888.01c-.884.01-.891.01-1.08.1a1.237,1.237,0,0,0-.692.844c-.017.09-.206,2.354-.419,5.033-.359,4.525-.386,4.894-.352,5.2a2.747,2.747,0,0,0,1.991,2.367l.293.093h8.877l.293-.093a2.752,2.752,0,0,0,1.991-2.367,52.1,52.1,0,0,0-.352-5.2c-.213-2.68-.4-4.944-.419-5.033a1.237,1.237,0,0,0-.692-.844c-.189-.09-.2-.09-1.077-.1l-.891-.01v-.14a4.082,4.082,0,0,0-.176-.971,3.32,3.32,0,0,0-2.055-2.061A3.321,3.321,0,0,0,59.659-511.839Zm1.011,1a2.292,2.292,0,0,1,1.785,1.785,2.4,2.4,0,0,1,.053.389v.133H57.92v-.133a2.4,2.4,0,0,1,.053-.389A2.287,2.287,0,0,1,60.669-510.838Zm-3.747,3.96c0,.592.007.668.07.795a.533.533,0,0,0,.429.279.574.574,0,0,0,.426-.263c.07-.12.073-.173.073-.8v-.668h4.588v.668c0,.625,0,.678.073.8a.574.574,0,0,0,.426.263.533.533,0,0,0,.429-.279c.063-.126.07-.2.07-.795v-.655h.781c.918,0,.891-.01.924.336.01.116.189,2.331.392,4.917.336,4.236.369,4.728.336,4.937a1.831,1.831,0,0,1-1.34,1.43c-.319.073-8.451.073-8.77,0a1.831,1.831,0,0,1-1.34-1.43c-.033-.209,0-.7.336-4.937.2-2.587.382-4.8.392-4.917.033-.346.007-.336.924-.336h.781Z" transform="translate(-22.482 797.384)" fill="#ed1c24"/>
      <path id="Path_246" data-name="Path 246" d="M52.295,209.119v7.351" transform="translate(-3.418 82.611)" fill="none" stroke="#ed1c24" stroke-width="1"/>
      <path id="Path_247" data-name="Path 247" d="M52.295,209.119v7.351" transform="translate(1.582 82.611)" fill="none" stroke="#ed1c24" stroke-width="1"/>
    </g>
  </g>
</svg>
