<svg xmlns="http://www.w3.org/2000/svg" width="33.305" height="33.362" viewBox="0 0 33.305 33.362">
  <g id="sales-_1_" transform="translate(-69.128 443.379)">
    <path id="Path_3436" data-name="Path 3436" d="M107.188-443.337a2.443,2.443,0,0,0-1.88,2.762.783.783,0,0,1,.027.446c-.036.036-1.194.838-2.575,1.791l-2.522,1.738-.508-.258a1.705,1.705,0,0,0-1.141-.232,2.219,2.219,0,0,0-1.613.668,2,2,0,0,0-.642,1.6l-.036.722-2.468,1.426-2.459,1.426-.276-.2a2.409,2.409,0,0,0-3.19.33l-.276.321-2.246-.668-2.246-.668-.062-.365a2.387,2.387,0,0,0-4.028-1.381,2.378,2.378,0,0,0,.677,3.841,2.434,2.434,0,0,0,2.762-.588l.276-.312,2.246.659c1.23.365,2.255.668,2.272.668a.743.743,0,0,1,.045.285,2.418,2.418,0,0,0,1.248,1.9,1.792,1.792,0,0,0,1.1.258,2.274,2.274,0,0,0,2.361-2.4v-.624l1.5-.855c.82-.481,1.925-1.114,2.451-1.426.811-.463,1-.544,1.114-.454a7.161,7.161,0,0,0,.633.348,2.325,2.325,0,0,0,2.664-.552,1.949,1.949,0,0,0,.6-1.684l.009-.784,2.54-1.756,2.531-1.747.517.258a2.362,2.362,0,0,0,3.466-2.139A2.386,2.386,0,0,0,107.188-443.337Zm1.078,1.444a1.229,1.229,0,0,1,.49,1.176,1.588,1.588,0,0,1-.365.552.791.791,0,0,1-.74.294,1.065,1.065,0,0,1-1.1-.793.854.854,0,0,1,.071-.74A1.1,1.1,0,0,1,108.267-441.893Zm-8.849,6.336a.791.791,0,0,1,.33.8.829.829,0,0,1-.276.775,1.105,1.105,0,0,1-1.907-.766A1.055,1.055,0,0,1,98.7-435.86.864.864,0,0,1,99.418-435.557Zm-18.152,2.4a1.644,1.644,0,0,1,.472.544.711.711,0,0,1,.062.677,1.323,1.323,0,0,1-.891.847,1.219,1.219,0,0,1-1.194-.606,1.6,1.6,0,0,1-.151-.526,1.3,1.3,0,0,1,1.167-1.141A1.189,1.189,0,0,1,81.266-433.16ZM90.5-430.3a.837.837,0,0,1,.294.7,1.263,1.263,0,0,1-.552,1.06,1.215,1.215,0,0,1-1.551-.463,1.13,1.13,0,0,1,.41-1.488A1.035,1.035,0,0,1,90.5-430.3Z" transform="translate(-8.398 0)" fill="#ed1c24"/>
    <path id="Path_3437" data-name="Path 3437" d="M372.334-337.75a2.072,2.072,0,0,0-.7.419c-.588.57-.57.062-.544,11.665l.027,10.462.214.374c.472.829.864.936,3.19.9l1.791-.027.383-.267a2.167,2.167,0,0,0,.561-.624c.187-.356.187-.41.214-10.872.018-7.405,0-10.613-.071-10.854a2.2,2.2,0,0,0-.927-1.114A14.22,14.22,0,0,0,372.334-337.75Zm3.582,1.212a.961.961,0,0,1,.258.2c.036.053.071,4.759.071,10.453,0,10.248,0,10.364-.178,10.542s-.294.178-1.782.178-1.613-.009-1.782-.178-.178-.294-.178-10.515V-336.2l.223-.214c.214-.223.241-.223,1.693-.223A7.419,7.419,0,0,1,375.917-336.538Z" transform="translate(-275.05 -96.105)" fill="#ed1c24"/>
    <path id="Path_3438" data-name="Path 3438" d="M271.829-263.768a1.966,1.966,0,0,0-.606.606l-.223.383v7.405c0,5.017.027,7.485.1,7.655a1.872,1.872,0,0,0,.927.927c.312.143.6.169,2.121.169a6.976,6.976,0,0,0,2.094-.134,1.667,1.667,0,0,0,.918-.891c.16-.339.169-.749.169-7.69,0-6.042-.018-7.378-.125-7.619a2.163,2.163,0,0,0-.971-.945,12.769,12.769,0,0,0-2.139-.1C272.23-264,272.194-263.991,271.829-263.768Zm4.108,1.158c.125.125.143.909.143,7.272,0,6.523-.009,7.156-.151,7.307-.125.143-.312.16-1.773.16-1.363,0-1.649-.027-1.764-.143s-.143-.909-.143-7.334c0-5.471.027-7.218.107-7.3a6.037,6.037,0,0,1,1.773-.107C275.527-262.752,275.821-262.726,275.937-262.61Z" transform="translate(-183.883 -163.395)" fill="#ed1c24"/>
    <path id="Path_3439" data-name="Path 3439" d="M70.141-238.664a2.066,2.066,0,0,0-.936,1.1c-.071.241-.089,2.219-.071,6.55l.027,6.2.267.383a2.429,2.429,0,0,0,.659.588c.374.2.481.2,2.148.2,2.21,0,2.575-.107,3.039-.918l.214-.374v-6.282c0-6.184,0-6.291-.187-6.63a2.148,2.148,0,0,0-.517-.624l-.339-.276-2.014-.018A8.258,8.258,0,0,0,70.141-238.664Zm4.01,1.337c.125.178.134.918.116,6.193-.027,5.819-.036,6-.2,6.122a4.743,4.743,0,0,1-1.764.125c-1.47,0-1.6-.009-1.764-.178s-.178-.294-.178-6.167c0-5.445.009-6,.151-6.149.125-.143.312-.16,1.818-.16C74-237.542,74.018-237.542,74.151-237.328Z" transform="translate(0 -186.378)" fill="#ed1c24"/>
    <path id="Path_3440" data-name="Path 3440" d="M171.069-209.646a2.083,2.083,0,0,0-.9.9c-.16.312-.169.579-.169,5.258,0,4.6.018,4.955.169,5.284a1.667,1.667,0,0,0,.918.891,6.976,6.976,0,0,0,2.094.134c1.524,0,1.809-.027,2.121-.169a1.872,1.872,0,0,0,.927-.927c.062-.169.1-1.925.1-5.2,0-4.874,0-4.964-.187-5.356a1.772,1.772,0,0,0-.553-.624l-.356-.241-1.969-.018A14.5,14.5,0,0,0,171.069-209.646Zm3.9,1.256a35.784,35.784,0,0,1,.107,4.874c0,4.3-.018,4.776-.151,4.928s-.3.16-1.747.16c-1.372,0-1.631-.018-1.773-.151s-.16-.4-.16-4.892c0-4.2.018-4.759.143-4.883s.41-.143,1.809-.143A6.038,6.038,0,0,1,174.972-208.389Z" transform="translate(-91.883 -212.839)" fill="#ed1c24"/>
  </g>
</svg>
