<svg xmlns="http://www.w3.org/2000/svg" width="22.789" height="22.782" viewBox="0 0 22.789 22.782">
  <g id="demographic" transform="translate(-7.102 504.62)">
    <path id="Path_3525" data-name="Path 3525" d="M20.956-504.591a2.3,2.3,0,0,0-.787.421A1.841,1.841,0,0,0,20-501.606c.064.069.11.133.1.142s-.169.1-.353.211a4.285,4.285,0,0,0-.627.467l-.293.275-.462-.05a9.012,9.012,0,0,0-5.86,1.488c-.279.188-.517.343-.522.343s-.156-.092-.325-.206-.334-.211-.357-.22.027-.124.119-.261a1.657,1.657,0,0,0-.646-2.436,1.227,1.227,0,0,0-.742-.151,1.19,1.19,0,0,0-.7.128,1.785,1.785,0,0,0-.8.8,1.239,1.239,0,0,0-.128.719,1.19,1.19,0,0,0,.128.71,2.288,2.288,0,0,0,.224.353c.055.06.092.11.078.119s-.133.078-.27.151a3.489,3.489,0,0,0-.6.476,3.075,3.075,0,0,0-.8,1.4c-.092.362-.087.49.027.636l.092.119H8.567c.7,0,1.277.014,1.277.027a3.116,3.116,0,0,1-.188.348,9.52,9.52,0,0,0-1,2.715,9.089,9.089,0,0,0,.6,5.334c.261.591.256.559.05.655a1.71,1.71,0,0,0-.737.728,1.231,1.231,0,0,0-.174.659,1.544,1.544,0,0,0,.288,1.067l.156.224-.3.174a3.115,3.115,0,0,0-1.364,1.85c-.1.417-.092.536.041.664l.11.114h2.7c2.66,0,2.7,0,2.82-.1.1-.078.119-.128.119-.316a2.783,2.783,0,0,0-.462-1.3,2.942,2.942,0,0,0-.98-.934l-.288-.169.11-.128.11-.128.33.284a9.1,9.1,0,0,0,3.4,1.754,7.757,7.757,0,0,0,2.014.288,8.5,8.5,0,0,0,4.29-.906l.65-.32,3.086-.009,3.086-.009.114-.133c.1-.119.11-.16.082-.366a3.965,3.965,0,0,0-.389-1.149,3.4,3.4,0,0,0-1.378-1.309l-.211-.1.179-.233a2.008,2.008,0,0,0,.385-.984,1.941,1.941,0,0,0-.577-1.483c-.087-.078-.156-.151-.151-.165s.041-.261.082-.545a11.07,11.07,0,0,0,0-2.523c-.041-.266-.073-.485-.073-.494s.742-.014,1.648-.014h1.653l.11-.114c.137-.137.142-.261.023-.728a3.4,3.4,0,0,0-.792-1.433,3.369,3.369,0,0,0-.934-.7.245.245,0,0,1-.1-.041c-.05-.032-.023-.1.128-.307a1.793,1.793,0,0,0-.119-2.307,1.915,1.915,0,0,0-.554-.421,1.263,1.263,0,0,0-.787-.151,1.3,1.3,0,0,0-.778.142,1.932,1.932,0,0,0-.884.888,1.221,1.221,0,0,0-.147.755,1.309,1.309,0,0,0,.124.723,2.647,2.647,0,0,0,.266.444c.16.206.165.211.046.243-.064.018-.114-.018-.183-.137a8.61,8.61,0,0,0-1.117-1.378l-.5-.513h.444c.43,0,.449,0,.581-.133.156-.156.16-.211.06-.659a3.323,3.323,0,0,0-1.653-2.161,1.069,1.069,0,0,1-.243-.146,1.11,1.11,0,0,1,.137-.188,2.588,2.588,0,0,0,.261-.444,1.305,1.305,0,0,0,.128-.71,1.259,1.259,0,0,0-.142-.733,1.778,1.778,0,0,0-1.557-1.076A2.289,2.289,0,0,0,20.956-504.591Zm.911.815a1.112,1.112,0,0,1,.568,1.268,1.218,1.218,0,0,1-.7.737,1.228,1.228,0,0,1-.852-.046,1.1,1.1,0,0,1-.343-1.676A1.081,1.081,0,0,1,21.867-503.776Zm-11.45,2.568a1.009,1.009,0,0,1,.572.847,1.055,1.055,0,0,1-.3.65.914.914,0,0,1-.691.293,1.126,1.126,0,0,1-.733-.421.694.694,0,0,1-.133-.522.679.679,0,0,1,.137-.527A.924.924,0,0,1,10.417-501.208Zm11.482.3a2.619,2.619,0,0,1,1.74,1.346,1.935,1.935,0,0,1,.169.4,11.15,11.15,0,0,1-2.426.064,13.513,13.513,0,0,1-2.426-.06,2.318,2.318,0,0,1,.16-.394,2.712,2.712,0,0,1,1.135-1.145A2.446,2.446,0,0,1,21.9-500.906Zm-4.775,2.289v1.254l-.169.027a5.814,5.814,0,0,0-2.092.632,5.75,5.75,0,0,0-3.063,4.322l-.05.426H9.236l.032-.4a8.551,8.551,0,0,1,1.259-3.69l.229-.353h1.012c.948,0,1.012,0,1.1-.092.179-.179.082-.769-.211-1.332a.824.824,0,0,1-.133-.362,7.4,7.4,0,0,1,1.373-.847,8.5,8.5,0,0,1,2.729-.8c.211-.018.412-.041.444-.046S17.124-499.6,17.124-498.617Zm1.268-1.195a3.309,3.309,0,0,1-.1.325c-.215.632-.2.957.055,1.071a17.344,17.344,0,0,0,2.028.05h1.918l.334.266c.549.44.591.3-.412,1.3l-.874.874-.174-.137a6.025,6.025,0,0,0-3.09-1.277l-.22-.027v-1.227c0-.673.014-1.236.027-1.254A1.937,1.937,0,0,1,18.392-499.812Zm8.832,1.149a1.238,1.238,0,0,1,.362.362.811.811,0,0,1,.137.549.835.835,0,0,1-.128.545,1.082,1.082,0,0,1-1.918-.055,1.074,1.074,0,0,1,.458-1.447.823.823,0,0,1,.54-.1A.9.9,0,0,1,27.224-498.662Zm-16.729.027a2.281,2.281,0,0,1,1.5,1.126,2.007,2.007,0,0,1,.142.334,17.629,17.629,0,0,1-2.106.046c-1.158,0-2.106-.009-2.106-.023a3.011,3.011,0,0,1,.142-.307A2.23,2.23,0,0,1,10.495-498.635Zm13.565,1.987c.156.2.339.449.4.554l.114.188-.252.247a3.148,3.148,0,0,0-.861,1.529c-.092.357-.087.54.018.668.087.11.105.11,1.113.133l1.021.023.055.275c.032.151.069.453.087.673l.032.4H23.259v-.165a6.4,6.4,0,0,0-.32-1.442,5.976,5.976,0,0,0-.783-1.447,3.206,3.206,0,0,1-.27-.412c0-.018.385-.421.856-.893C23.731-497.3,23.579-497.266,24.06-496.648Zm-5.75.092a5.044,5.044,0,0,1,4.212,5.471A4.815,4.815,0,0,1,22-489.323a5.019,5.019,0,0,1-3.219,2.623,3.826,3.826,0,0,1-1.268.119,3.826,3.826,0,0,1-1.268-.119,5.066,5.066,0,0,1-3.745-5.37,5.022,5.022,0,0,1,3.2-4.207A4.978,4.978,0,0,1,18.31-496.556Zm8.955.733a2.256,2.256,0,0,1,.916.449,2.674,2.674,0,0,1,.87,1.209l.027.105H26.651a13.922,13.922,0,0,1-2.431-.06,3.256,3.256,0,0,1,.5-.9,2.8,2.8,0,0,1,1.154-.76A2.759,2.759,0,0,1,27.265-495.824ZM11.74-491.168c.009.032.041.243.069.467a5.749,5.749,0,0,0,.581,1.767,5.769,5.769,0,0,0,4.185,3.049,7.068,7.068,0,0,0,2.243-.069A6.125,6.125,0,0,0,21.029-487l.3-.224.673.673.673.673-.183.279a3.725,3.725,0,0,0-.4.9,7.3,7.3,0,0,1-1.534.815,8.29,8.29,0,0,1-8.447-1.419l-.366-.316-.037-.32a1.727,1.727,0,0,0-1.264-1.506c-.142-.032-.169-.069-.4-.554a8.284,8.284,0,0,1-.778-2.848l-.027-.375h1.245A4.447,4.447,0,0,1,11.74-491.168Zm14.032.16a5.693,5.693,0,0,1-.055.586l-.055.366-.307-.014a1.9,1.9,0,0,0-1.026.247,2.183,2.183,0,0,0-.742.833,1.326,1.326,0,0,0-.124.742,1.329,1.329,0,0,0,.119.733,2,2,0,0,0,.27.426.608.608,0,0,1,.133.188c-.009,0-.142.078-.293.165a3.183,3.183,0,0,0-.385.238l-.114.087-.673-.673-.668-.668.293-.389a5.979,5.979,0,0,0,1.067-2.582c.032-.211.064-.412.073-.444a4.423,4.423,0,0,1,1.254-.055h1.236Zm-.014,1.79a1.028,1.028,0,0,1,.586.971,1.083,1.083,0,0,1-2.005.577,1.1,1.1,0,0,1,.559-1.607A1.249,1.249,0,0,1,25.759-489.217Zm-15.25,2.591a.963.963,0,0,1,.458.943.941.941,0,0,1-1.786.22A.932.932,0,0,1,10.508-486.626Zm15.282.279a2.379,2.379,0,0,1,1.245.687,2.641,2.641,0,0,1,.641,1.016l.027.105H25.278a9.613,9.613,0,0,1-2.431-.069,2.333,2.333,0,0,1,.407-.8,2.473,2.473,0,0,1,1.4-.916A2.286,2.286,0,0,1,25.791-486.347ZM10.728-484.03a2.789,2.789,0,0,1,.5.229,2.34,2.34,0,0,1,.884,1.1l.032.128H7.917l.032-.105a2.252,2.252,0,0,1,1.383-1.346A2.418,2.418,0,0,1,10.728-484.03Z" fill="#fff"/>
    <path id="Path_3526" data-name="Path 3526" d="M272.206-287.945c-.211.114-.206.046-.206,2.93v2.742l.114.11c.11.114.114.114,1,.114h.893l.092-.119c.1-.119.1-.16.1-2.839,0-1.493-.014-2.747-.027-2.788-.069-.169-.256-.206-1.08-.206A3.882,3.882,0,0,0,272.206-287.945Zm1.259,2.921v2.243h-.733v-4.487h.733Z" transform="translate(-252.77 -206.702)" fill="#fff"/>
    <path id="Path_3527" data-name="Path 3527" d="M210.229-254.805c-.224.114-.229.156-.229,2.175,0,1.987.009,2.1.206,2.179.041.014.467.027.943.027.8,0,.874-.009.952-.087a.526.526,0,0,0,.119-.243c.014-.082.023-.989.014-2.014l-.014-1.863-.105-.105c-.1-.1-.137-.105-.939-.119A3.029,3.029,0,0,0,210.229-254.805Zm1.273,2.17.009,1.479h-.778v-1.456c0-.8.014-1.474.032-1.493a1.373,1.373,0,0,1,.38-.018l.343.014Z" transform="translate(-193.608 -238.326)" fill="#fff"/>
    <path id="Path_3528" data-name="Path 3528" d="M149.052-215.895c-.1.105-.1.142-.1,1.227,0,1.447-.105,1.323,1.094,1.323.87,0,.879,0,.989-.114l.114-.11v-1.094c0-1.039,0-1.1-.1-1.218l-.092-.119h-.906C149.166-216,149.148-216,149.052-215.895Zm1.364,1.222v.6h-.733v-1.19h.733Z" transform="translate(-135.352 -275.406)" fill="#fff"/>
  </g>
</svg>
