<svg xmlns="http://www.w3.org/2000/svg" width="17.473" height="15.845" viewBox="0 0 17.473 15.845">
  <g id="reward-points" transform="translate(-16 473.774)">
    <path id="Path_3338" data-name="Path 3338" d="M252.9-473.728a4.39,4.39,0,0,0-2.406,1.27,4.286,4.286,0,0,0-1.314,3.349,4.474,4.474,0,0,0,2.519,3.862,4.054,4.054,0,0,0,1.966.433,3.264,3.264,0,0,0,1.019-.1,4.541,4.541,0,0,0,3.393-3.491,6.263,6.263,0,0,0,0-1.769,4.623,4.623,0,0,0-1.7-2.7,4.341,4.341,0,0,0-1.642-.783A5.446,5.446,0,0,0,252.9-473.728Zm1.456.531a4.522,4.522,0,0,1,1.19.422,4.015,4.015,0,0,1,1.962,2.508,5.1,5.1,0,0,1,.055,1.7,3.987,3.987,0,0,1-2.6,3.021,4.145,4.145,0,0,1-2.606,0,3.975,3.975,0,0,1-2.541-4.754,4.021,4.021,0,0,1,2.854-2.832A4.089,4.089,0,0,1,254.356-473.2Z" transform="translate(-224.687 0)" fill="#fff"/>
    <path id="Path_3339" data-name="Path 3339" d="M281.187-444.731a3.482,3.482,0,0,0-2.719,2.537,4.187,4.187,0,0,0-.015,1.634,3.508,3.508,0,0,0,1.991,2.37,3.455,3.455,0,0,0,4-.957,4.153,4.153,0,0,0,.7-1.394,4.18,4.18,0,0,0,.018-1.562,3.5,3.5,0,0,0-.917-1.645,3.2,3.2,0,0,0-1.529-.906A3.94,3.94,0,0,0,281.187-444.731Zm1.314.568a3.92,3.92,0,0,1,.633.244,2.1,2.1,0,0,1,.692.521,2.658,2.658,0,0,1,.874,2.057,2.658,2.658,0,0,1-.874,2.057,2.1,2.1,0,0,1-.692.521,2.658,2.658,0,0,1-1.318.317,2.627,2.627,0,0,1-1.219-.255,2.775,2.775,0,0,1-1.412-1.38,2.908,2.908,0,0,1-.069-2.377,3.071,3.071,0,0,1,1.012-1.263,3.566,3.566,0,0,1,.983-.444A3.507,3.507,0,0,1,282.5-444.163Z" transform="translate(-252.828 -27.945)" fill="#fff"/>
    <path id="Path_3340" data-name="Path 3340" d="M314.9-406.923c-.029.036-.178.295-.331.575l-.277.51-.593.127c-.735.153-.848.233-.706.5a1.156,1.156,0,0,0,.186.226c.073.069.247.255.386.408l.255.28-.058.535c-.029.291-.055.582-.055.637a.256.256,0,0,0,.248.251,3.756,3.756,0,0,0,.641-.255l.542-.258.539.24a3.987,3.987,0,0,0,.626.237.332.332,0,0,0,.164-.058c.1-.069.1-.215.011-.888l-.069-.491.1-.109c.663-.728.732-.819.732-.939,0-.2-.08-.237-.71-.353-.317-.062-.586-.109-.6-.109a4.867,4.867,0,0,1-.342-.542,3.144,3.144,0,0,0-.371-.564A.325.325,0,0,0,314.9-406.923Zm.4,1.1a2.339,2.339,0,0,0,.255.386,1.483,1.483,0,0,0,.5.146l.426.08-.3.335c-.331.379-.328.364-.255.91a1.808,1.808,0,0,1,.025.328,1.121,1.121,0,0,1-.375-.124,2.563,2.563,0,0,0-.448-.16,2.18,2.18,0,0,0-.47.182l-.386.182.022-.193c.011-.1.033-.313.047-.47l.026-.277-.317-.328a1.543,1.543,0,0,1-.288-.346c.015-.007.2-.055.411-.1a1.617,1.617,0,0,0,.448-.142,2.251,2.251,0,0,0,.251-.393,1.511,1.511,0,0,1,.211-.339A1.547,1.547,0,0,1,315.306-405.828Z" transform="translate(-286.132 -64.359)" fill="#fff"/>
    <path id="Path_3341" data-name="Path 3341" d="M16.433-349.927a.85.85,0,0,0-.393.462c-.025.095-.04,1.769-.04,5.166v5.023l.1.2a.849.849,0,0,0,.255.306l.16.109H32.956l.16-.109a.9.9,0,0,0,.258-.306l.1-.2v-8.107l-.262.011-.266.011-.011,1.318-.007,1.321H16.546v-2.312c0-2.264,0-2.312.073-2.384s.12-.073,3.822-.073h3.749V-350H20.379C16.7-350,16.561-349.993,16.433-349.927Zm16.494,8.183c0,2.428,0,2.435-.076,2.5s-.262.069-8.114.069-8.038,0-8.114-.069-.076-.076-.076-2.5v-2.432H32.927Z" transform="translate(0 -119.269)" fill="#fff"/>
    <path id="Path_3342" data-name="Path 3342" d="M52-153.472v.528h.546V-154H52Z" transform="translate(-34.69 -308.134)" fill="#fff"/>
    <path id="Path_3343" data-name="Path 3343" d="M80.911-153.483l.011.521.266.011.262.011V-154H80.9Z" transform="translate(-62.537 -308.134)" fill="#fff"/>
    <path id="Path_3344" data-name="Path 3344" d="M109.911-153.483l.011.521.266.011.262.011V-154h-.55Z" transform="translate(-90.482 -308.134)" fill="#fff"/>
    <path id="Path_3345" data-name="Path 3345" d="M140-153.472v.528h.51V-154H140Z" transform="translate(-119.486 -308.134)" fill="#fff"/>
    <path id="Path_3346" data-name="Path 3346" d="M205-153.472v.528h.546V-154H205Z" transform="translate(-182.12 -308.134)" fill="#fff"/>
    <path id="Path_3347" data-name="Path 3347" d="M234-153.472v.528h.546V-154H234Z" transform="translate(-210.064 -308.134)" fill="#fff"/>
    <path id="Path_3348" data-name="Path 3348" d="M263-153.472v.528h.546V-154H263Z" transform="translate(-238.009 -308.134)" fill="#fff"/>
    <path id="Path_3349" data-name="Path 3349" d="M292-153.472v.528h.546V-154H292Z" transform="translate(-265.953 -308.134)" fill="#fff"/>
    <path id="Path_3350" data-name="Path 3350" d="M358-153.472v.528h.51V-154H358Z" transform="translate(-329.55 -308.134)" fill="#fff"/>
    <path id="Path_3351" data-name="Path 3351" d="M387-153.472v.528h.51V-154H387Z" transform="translate(-357.495 -308.134)" fill="#fff"/>
    <path id="Path_3352" data-name="Path 3352" d="M416-153.472v.531l.266-.011.262-.011.011-.521.011-.517H416Z" transform="translate(-385.439 -308.134)" fill="#fff"/>
    <path id="Path_3353" data-name="Path 3353" d="M445-153.472v.528h.546V-154H445Z" transform="translate(-413.383 -308.134)" fill="#fff"/>
    <path id="Path_3354" data-name="Path 3354" d="M52.107-88.949a1.036,1.036,0,0,0-.007.262l.011.215,2.377.011,2.373.007V-89H54.5A13.972,13.972,0,0,0,52.107-88.949Z" transform="translate(-34.782 -370.768)" fill="#fff"/>
    <path id="Path_3355" data-name="Path 3355" d="M329-88.727v.273h2.111V-89H329Z" transform="translate(-301.606 -370.768)" fill="#fff"/>
    <path id="Path_3356" data-name="Path 3356" d="M401.107-88.826a1.081,1.081,0,0,0-.007.266l.011.215,1.067.011,1.067.007-.011-.262-.011-.266-1.048-.011C401.311-88.873,401.125-88.866,401.107-88.826Z" transform="translate(-371.078 -370.894)" fill="#fff"/>
    <path id="Path_3357" data-name="Path 3357" d="M52.594-313.758a1.227,1.227,0,0,0-.28.215c-.193.218-.218.4-.2,1.423.011.8.015.874.091,1.012a.871.871,0,0,0,.473.411,11.471,11.471,0,0,0,1.325.04h1.183l.2-.1a.85.85,0,0,0,.306-.255l.109-.16V-313.3l-.1-.153a1.028,1.028,0,0,0-.251-.251l-.153-.1-1.274-.007C52.841-313.824,52.728-313.817,52.594-313.758Zm.564.845v.4h-.51v-.295c0-.411.062-.5.375-.5l.135,0Zm1.056.673v1.074H53.7v-2.148h.51Zm.972-.987c.095.084.1.113.116.4l.011.313H54.76v-.8h.16A.357.357,0,0,1,55.185-313.227Zm-2.028,1.664v.408l-.189-.018c-.273-.029-.32-.1-.32-.488v-.306h.51Zm2.144-.095c-.018.382-.073.459-.346.466l-.178.007-.011-.393-.011-.39h.557Z" transform="translate(-34.792 -154.134)" fill="#fff"/>
  </g>
</svg>
