<svg xmlns="http://www.w3.org/2000/svg" width="15.167" height="17.176" viewBox="0 0 15.167 17.176">
  <g id="attendance-_1_" transform="translate(-29.996 511.907)">
    <path id="Path_3017" data-name="Path 3017" d="M207.49-511.86a.787.787,0,0,0-.49.671.688.688,0,0,0,.235.557.719.719,0,0,0,1.127-.111A.744.744,0,0,0,207.49-511.86Z" transform="translate(-171.065)" fill="#fff"/>
    <path id="Path_3018" data-name="Path 3018" d="M58.6-493.2l-.792.8-.215-.215c-.245-.245-.329-.265-.493-.128a.23.23,0,0,0-.1.208c0,.107.034.154.346.466.282.282.362.346.446.346s.242-.141,1.064-.95c.882-.866.966-.956.963-1.057a.28.28,0,0,0-.292-.275C59.406-494,59.366-493.97,58.6-493.2Z" transform="translate(-26.098 -17.306)" fill="#fff"/>
    <path id="Path_3019" data-name="Path 3019" d="M31.349-491.718a1.729,1.729,0,0,0-1.3,2.074,1.554,1.554,0,0,0,.45.765,1.626,1.626,0,0,0,1.228.507,1.626,1.626,0,0,0,1.218-.523,1.637,1.637,0,0,0,.476-1.114.3.3,0,0,0-.087-.262.252.252,0,0,0-.369-.01c-.074.064-.1.121-.117.305a1.119,1.119,0,0,1-.309.684,1.15,1.15,0,0,1-1.664-.01.954.954,0,0,1-.289-.772.91.91,0,0,1,.087-.487,1.254,1.254,0,0,1,.523-.54,1.882,1.882,0,0,1,.393-.111c.289-.054.305-.06.372-.191a.162.162,0,0,0,.01-.188C31.885-491.769,31.724-491.8,31.349-491.718Z" transform="translate(0 -19.471)" fill="#fff"/>
    <path id="Path_3020" data-name="Path 3020" d="M178.8-443.506a1.523,1.523,0,0,0-1.3,1.577l0,.262.158.141a2.473,2.473,0,0,0,1.6.389,2.184,2.184,0,0,0,1.664-.48c.057-.077.067-.134.06-.319a1.54,1.54,0,0,0-1.131-1.533A2.9,2.9,0,0,0,178.8-443.506Z" transform="translate(-142.554 -66.075)" fill="#fff"/>
    <path id="Path_3021" data-name="Path 3021" d="M329.066-436.916a.262.262,0,0,0,.084.436,8.875,8.875,0,0,0,1.792.05c1.819,0,1.829,0,1.919-.171.067-.131.06-.178-.04-.3l-.087-.1h-3.587Z" transform="translate(-288.953 -72.394)" fill="#fff"/>
    <path id="Path_3022" data-name="Path 3022" d="M330.02-403.916a.3.3,0,0,0-.013.406c.067.06.158.064,2.47.064h2.4l.081-.094a.253.253,0,0,0-.007-.372l-.091-.087H330.1Z" transform="translate(-289.874 -104.287)" fill="#fff"/>
    <path id="Path_3023" data-name="Path 3023" d="M207.47-325.918a.8.8,0,0,0-.47.7.838.838,0,0,0,.329.617.586.586,0,0,0,.372.111.664.664,0,0,0,.614-.255.736.736,0,0,0-.242-1.148A.956.956,0,0,0,207.47-325.918Z" transform="translate(-171.065 -179.715)" fill="#fff"/>
    <path id="Path_3024" data-name="Path 3024" d="M57.935-307.2l-.8.8-.2-.191c-.2-.191-.3-.228-.456-.171a.325.325,0,0,0-.134.309,1.864,1.864,0,0,0,.325.4c.329.332.443.389.624.315.054-.023.5-.443.99-.936.809-.812.9-.909.9-1.01a.329.329,0,0,0-.322-.305C58.741-308,58.7-307.963,57.935-307.2Z" transform="translate(-25.463 -197.065)" fill="#fff"/>
    <path id="Path_3025" data-name="Path 3025" d="M31.356-305.851a1.715,1.715,0,0,0-1.04,2.517,2.181,2.181,0,0,0,.688.658,1.719,1.719,0,0,0,2.074-.382,1.685,1.685,0,0,0,.423-1.06c0-.221-.1-.342-.278-.342s-.265.121-.3.386a1.129,1.129,0,0,1-.631.913.854.854,0,0,1-.507.094.883.883,0,0,1-.473-.077,1.154,1.154,0,0,1-.534-.517.768.768,0,0,1-.117-.513.91.91,0,0,1,.087-.487,1.716,1.716,0,0,1,.195-.312,1.336,1.336,0,0,1,.708-.349c.238-.027.352-.087.4-.2a.305.305,0,0,0-.124-.339A1.006,1.006,0,0,0,31.356-305.851Z" transform="translate(-0.081 -199.094)" fill="#fff"/>
    <path id="Path_3026" data-name="Path 3026" d="M178.522-256.921a1.485,1.485,0,0,0-.95.607,2.175,2.175,0,0,0-.282.872.488.488,0,0,0,.2.533c.671.51,2.782.436,3.2-.111.074-.1.084-.141.081-.339a1.584,1.584,0,0,0-.822-1.426A2.432,2.432,0,0,0,178.522-256.921Z" transform="translate(-142.345 -246.383)" fill="#fff"/>
    <path id="Path_3027" data-name="Path 3027" d="M329.265-250.9a.279.279,0,0,0-.117.463l.081.084h3.587l.087-.1c.1-.117.107-.164.04-.3-.091-.171-.1-.171-1.926-.168C330.08-250.922,329.291-250.912,329.265-250.9Z" transform="translate(-289.034 -252.227)" fill="#fff"/>
    <path id="Path_3028" data-name="Path 3028" d="M330.339-217.893a.28.28,0,0,0-.1.453l.081.084h4.771l.081-.084a.264.264,0,0,0,.047-.325c-.087-.161-.107-.161-2.537-.158C331.433-217.923,330.376-217.909,330.339-217.893Z" transform="translate(-290.095 -284.119)" fill="#fff"/>
    <path id="Path_3029" data-name="Path 3029" d="M207.523-139.674a.759.759,0,0,0-.476.973.91.91,0,0,0,.473.456.762.762,0,0,0,.97-.822A.764.764,0,0,0,207.523-139.674Z" transform="translate(-171.064 -359.707)" fill="#fff"/>
    <path id="Path_3030" data-name="Path 3030" d="M58.613-121.689c-.027.01-.409.372-.846.809l-.8.8-.2-.2c-.168-.168-.218-.2-.319-.2a.267.267,0,0,0-.272.245c-.023.111-.013.124.325.446a3.087,3.087,0,0,0,.426.366.253.253,0,0,0,.188-.017,20.939,20.939,0,0,0,1.889-1.892A.319.319,0,0,0,58.613-121.689Z" transform="translate(-25.295 -377.112)" fill="#fff"/>
    <path id="Path_3031" data-name="Path 3031" d="M31.174-118.923A1.725,1.725,0,0,0,30-117.306a1.711,1.711,0,0,0,2.473,1.54,1.729,1.729,0,0,0,.95-1.466.3.3,0,0,0-.1-.262.2.2,0,0,0-.3-.047c-.111.054-.158.164-.185.413a1.144,1.144,0,0,1-.678.886,1.278,1.278,0,0,1-.919-.01,1.217,1.217,0,0,1-.564-.56.915.915,0,0,1-.091-.493.858.858,0,0,1,.094-.49,1.143,1.143,0,0,1,.923-.634.438.438,0,0,0,.3-.114.256.256,0,0,0,.007-.372c-.067-.074-.107-.084-.3-.084A1.444,1.444,0,0,0,31.174-118.923Z" transform="translate(-0.004 -379.724)" fill="#fff"/>
    <path id="Path_3032" data-name="Path 3032" d="M178.334-70.85a1.464,1.464,0,0,0-1.124,1.231c-.1.527-.047.668.319.856a3,3,0,0,0,1.362.242c.98,0,1.587-.195,1.745-.557a1.627,1.627,0,0,0-.057-.728,1.468,1.468,0,0,0-1.09-1.044A3.334,3.334,0,0,0,178.334-70.85Z" transform="translate(-142.23 -426.21)" fill="#fff"/>
    <path id="Path_3033" data-name="Path 3033" d="M329.061-64.916a.25.25,0,0,0,.01.389l.1.1h3.537l.1-.1a.232.232,0,0,0,0-.376l-.1-.1h-3.553Z" transform="translate(-288.945 -431.912)" fill="#fff"/>
    <path id="Path_3034" data-name="Path 3034" d="M329.99-30.913a.251.251,0,0,0-.017.4l.091.084h4.728l.1-.1a.251.251,0,0,0-.06-.433c-.054-.03-.695-.04-2.406-.04h-2.329Z" transform="translate(-289.823 -464.771)" fill="#fff"/>
  </g>
</svg>
