<svg xmlns="http://www.w3.org/2000/svg" width="16.245" height="17.128" viewBox="0 0 16.245 17.128">
  <g id="sms_1_" data-name="sms (1)" transform="translate(-26.743 -14.479)">
    <path id="Path_3210" data-name="Path 3210" d="M-33.606-.373h3.91l1.351,0,1.388,0H-24.7a1.386,1.386,0,0,1,1,.409A1.525,1.525,0,0,1-23.34,1.07c0,.03,0,.06,0,.091q0,.149,0,.3,0,.1,0,.207,0,.272,0,.543t0,.555q0,.544,0,1.088h.851l.035-.319a1.952,1.952,0,0,1,.882-1.126,2.086,2.086,0,0,1,1.5-.217,2.016,2.016,0,0,1,1.181.849,2.2,2.2,0,0,1,.234,1.62A2.05,2.05,0,0,1-19.6,5.824a1.926,1.926,0,0,1-.922.227h-.237c0,.038,0,.075,0,.114q0,.534.006,1.069,0,.275,0,.549t0,.531q0,.1,0,.2a1.788,1.788,0,0,1-.405,1.4,1.415,1.415,0,0,1-1.011.434h-.255l-.278,0h-.19l-.463,0c0,.027,0,.053,0,.081q0,.977.005,1.953,0,.472,0,.945,0,.412,0,.824,0,.218,0,.436t0,.411q0,.075,0,.15a1.678,1.678,0,0,1-.388,1.221,1.289,1.289,0,0,1-.851.367h-3.91l-1.351,0-1.388,0h-2.255a1.3,1.3,0,0,1-.96-.393,1.5,1.5,0,0,1-.4-1.124v-.075q0-.125,0-.249,0-.09,0-.181,0-.248,0-.5,0-.268,0-.535,0-.524,0-1.048,0-.426,0-.852,0-1.208,0-2.415c0-.043,0-.087,0-.132V9.109q0-1.057,0-2.113,0-1.085,0-2.17,0-.609,0-1.218,0-.519,0-1.037,0-.265,0-.529,0-.242,0-.485,0-.088,0-.175a1.83,1.83,0,0,1,.406-1.39A1.2,1.2,0,0,1-33.606-.373Zm-.457.827c-.326.462-.2.9-.2,1.483h10.354A2.2,2.2,0,0,0-24.1.458a1.012,1.012,0,0,0-.764-.282h-8.527A.838.838,0,0,0-34.063.454Zm-.2,2.05V13.851h10.354V10.34l-1.017-.011-.32,0H-25.5l-.132,0a.641.641,0,0,0-.447.1l-.066.1-.054.077-.045.078-.052.088-.053.092-.113.191-.056.094c-.427.721-.427.721-.742.847a1,1,0,0,1-.765-.12,2.846,2.846,0,0,1-.459-.647c-.127-.212-.253-.424-.384-.633l-.059-.1a.315.315,0,0,0-.162-.149.894.894,0,0,0-.174-.016l-.1-.006-.11-.006a1.6,1.6,0,0,1-1.1-.421A1.676,1.676,0,0,1-30.942,8.7V8.582q0-.191,0-.382,0-.134,0-.267,0-.28,0-.559t0-.572q0-.347,0-.694,0-.132,0-.263c-.007-1.154-.007-1.154.372-1.568a1.7,1.7,0,0,1,1.292-.405h.176l.476,0,.5,0,.943,0,1.074,0,2.207-.008V2.5Zm12.579.761a1.461,1.461,0,0,0-.261,1.05,1.53,1.53,0,0,0,.553.919,1.591,1.591,0,0,0,1.211.224,1.514,1.514,0,0,0,.864-.714,1.439,1.439,0,0,0,.088-1.07,1.536,1.536,0,0,0-.8-.853A1.434,1.434,0,0,0-21.686,3.265Zm-8.555,1.469a1.225,1.225,0,0,0-.169.776v.114q0,.186,0,.371,0,.13,0,.259,0,.271,0,.542,0,.347,0,.694,0,.267,0,.535,0,.128,0,.256,0,.179,0,.358v.106a1.1,1.1,0,0,0,.271.8.982.982,0,0,0,.646.237l.092,0,.188,0a.8.8,0,0,1,.619.233,4.736,4.736,0,0,1,.4.6l.111.187.053.09q.094.158.191.315l.053.087a.642.642,0,0,0,.2.177.341.341,0,0,0,.213-.035,2.322,2.322,0,0,0,.254-.358l.062-.1L-27,10.87c.579-.956.579-.956.9-1.062.055,0,.109,0,.164,0h.586l.4,0,1.144-.005.7,0h.266l.374,0h.111a1.133,1.133,0,0,0,.767-.23l.066-.054A1.79,1.79,0,0,0-21.3,8.346l0-.209q0-.218,0-.437c0-.186,0-.373.006-.559,0-.144,0-.287,0-.431q0-.1,0-.206a.954.954,0,0,0-.12-.684,1.367,1.367,0,0,0-.277-.125,2.143,2.143,0,0,1-.78-1.17l-.035-.106q-1.412-.006-2.825-.009l-1.312,0-1.143,0-.605,0h-.779A1.212,1.212,0,0,0-30.241,4.733Zm-4.025,9.72a2.092,2.092,0,0,0,.222,1.467l.058.067a.972.972,0,0,0,.7.182h3.629l1.324,0,1.361,0h.763q.359,0,.718,0h.623l.1,0a.966.966,0,0,0,.64-.241c.36-.442.213-.876.213-1.489Z" transform="translate(61.584 14.866)" fill="#fff"/>
    <path id="Path_3211" data-name="Path 3211" d="M-12.426-.243h2.649l1.3,0h2.733a.566.566,0,0,1,.292.06.409.409,0,0,1,.09.308A.269.269,0,0,1-5.492.3a.994.994,0,0,1-.371.042H-8.609l-1.153,0h-2.7a.5.5,0,0,1-.312-.085.288.288,0,0,1-.108-.252C-12.778-.248-12.684-.243-12.426-.243Z" transform="translate(44.847 21.898)" fill="#fff"/>
    <path id="Path_3212" data-name="Path 3212" d="M-12.341-.118H-7.5a.462.462,0,0,1,.239.08A.314.314,0,0,1-7.2.226c-.037.158-.037.158-.135.228A1.044,1.044,0,0,1-7.55.469H-9.609l-.864,0h-2.082a.262.262,0,0,1-.185-.1.282.282,0,0,1-.055-.224c.045-.16.045-.16.14-.226A.882.882,0,0,1-12.341-.118Z" transform="translate(45.718 20.355)" fill="#fff"/>
    <path id="Path_3213" data-name="Path 3213" d="M-12.3-.229h1.883l.92,0h2a.525.525,0,0,1,.279.12.255.255,0,0,1,.064.23c-.037.16-.037.16-.135.23A1.044,1.044,0,0,1-7.5.357H-9.564l-.864,0H-12.51a.262.262,0,0,1-.185-.1A.282.282,0,0,1-12.75.038c.044-.16.044-.16.14-.226A.881.881,0,0,1-12.3-.229Z" transform="translate(45.674 23.267)" fill="#fff"/>
    <path id="Path_3214" data-name="Path 3214" d="M-11.413-.037h.748c.134,0,.269,0,.4,0h.787a.467.467,0,0,1,.284.16.285.285,0,0,1,.02.142V.34a.378.378,0,0,1-.162.213.892.892,0,0,1-.225.019l-.138,0h-.623c-.137,0-.274,0-.41,0h-.8a.434.434,0,0,1-.285-.2.349.349,0,0,1,0-.213A.423.423,0,0,1-11.413-.037Z" transform="translate(43 15.646)" fill="#fff"/>
    <path id="Path_3215" data-name="Path 3215" d="M-13.082-.051l.087,0a.435.435,0,0,1,.321.087.354.354,0,0,1,.088.216.464.464,0,0,1-.127.235.672.672,0,0,1-.367.067l-.076,0a.417.417,0,0,1-.316-.1.332.332,0,0,1-.092-.222.334.334,0,0,1,.072-.2A.589.589,0,0,1-13.082-.051Z" transform="translate(45.578 29.919)" fill="#fff"/>
  </g>
</svg>
