<svg xmlns="http://www.w3.org/2000/svg" width="16.838" height="16.839" viewBox="0 0 16.838 16.839">
  <g id="utilization-of-space" transform="translate(-15.469 -15.45)">
    <path id="Path_3240" data-name="Path 3240" d="M-33.27-.041h4.737A.324.324,0,0,1-28.3.117a.915.915,0,0,1,.014.228V.477l0,.138,0,.14q0,.171-.007.342l.087,0,.114,0,.113,0a.332.332,0,0,1,.188.062.721.721,0,0,1,.071.442c0,.034,0,.068,0,.1,0,.108,0,.217,0,.325q0,.11,0,.221,0,.27-.007.541h.079l.735-.006.378,0,.365,0,.207,0h.239a.311.311,0,0,1,.237.157,1.008,1.008,0,0,1,.018.239c0,.036,0,.036,0,.073,0,.081,0,.161,0,.241q0,.087,0,.173,0,.235,0,.47c0,.164,0,.328,0,.492q0,.413,0,.826,0,.478,0,.956,0,.41,0,.82,0,.245,0,.49t0,.461q0,.085,0,.169c0,.077,0,.154,0,.231s0,.065,0,.13a.319.319,0,0,1-.158.249.344.344,0,0,1-.14.018h-.07a.361.361,0,0,1-.21-.159.888.888,0,0,1-.017-.224c0-.046,0-.092,0-.14s0-.1,0-.153,0-.108,0-.161q0-.219,0-.438c0-.153,0-.305,0-.458q0-.434,0-.867,0-.494,0-.987,0-1.015.007-2.031h-1.68c0,.207,0,.414,0,.628q0,1.024.005,2.049,0,.621,0,1.243,0,.541,0,1.083,0,.287,0,.574,0,.27,0,.54,0,.1,0,.2c0,.09,0,.18,0,.27,0,.026,0,.053,0,.08a.389.389,0,0,1-.085.284.282.282,0,0,1-.213.071h-.07a.319.319,0,0,1-.21-.159,1.959,1.959,0,0,1-.009-.359l0-.1q0-.121.007-.242h-.111L-29.44,9.5l-.531,0-.512,0-.2,0h-.274l-.082,0a.4.4,0,0,1-.291-.084.284.284,0,0,1-.071-.213v-.07a.341.341,0,0,1,.159-.21,1.834,1.834,0,0,1,.286-.016h.087l.284,0h.2l.519,0,.529,0,1.038.007v-.56l-.216,0-.707.005-.429,0-.414,0-.158,0h-.348a.317.317,0,0,1-.247-.157.343.343,0,0,1-.017-.14v-.07a.357.357,0,0,1,.159-.21.964.964,0,0,1,.234-.016h.07l.23,0h.159l.419,0,.428,0,.839.007v-.56l-.191,0-.624.005-.378,0-.365,0-.207,0H-30.3a.326.326,0,0,1-.237-.157.343.343,0,0,1-.017-.14v-.07A.366.366,0,0,1-30.4,6.7a.774.774,0,0,1,.209-.016h.127l.137,0h.141l.369,0,.377,0,.74.007v-.56l-.191,0-.624.005-.378,0-.365,0-.207,0H-30.3A.326.326,0,0,1-30.537,6a.343.343,0,0,1-.017-.14v-.07a.366.366,0,0,1,.159-.21.774.774,0,0,1,.209-.016h.127l.137,0h.141l.369,0,.377,0,.74.007v-.56l-.242,0-.791.005-.48,0-.463,0-.177,0H-30.7l-.074,0a.365.365,0,0,1-.271-.084.277.277,0,0,1-.072-.213v-.07a.349.349,0,0,1,.159-.21,1.514,1.514,0,0,1,.26-.016h.079l.257,0h.178l.469,0,.479,0,.939.007V3.9h-.132l-1.23.006-.632,0-.61,0-.233,0h-.326l-.1,0c-.218,0-.218,0-.329-.084a.3.3,0,0,1-.068-.213v-.07a.326.326,0,0,1,.159-.21,1.7,1.7,0,0,1,.337-.016h.1l.339,0h.235l.618,0,.631,0,1.237.007v-.56h-.185l-1.724.006-.887,0-.773,0-.409,0h-.385l-.209,0H-33.1a.332.332,0,0,1-.234-.157.343.343,0,0,1-.018-.14v-.07a.368.368,0,0,1,.159-.21.735.735,0,0,1,.2-.017h.126l.137,0h.145l.393,0h.411l.778,0,.886,0,1.822.007v-.56h-5.6v.98c-.14.14-.14.14-.21.159h-.14a.333.333,0,0,1-.21-.159,1.5,1.5,0,0,1-.019-.315V2.229q0-.1,0-.193c0-.1,0-.2,0-.3q0-.094,0-.188V1.306a.356.356,0,0,1,.158-.209.887.887,0,0,1,.224-.017h.14l.153,0h.161l.438,0h.458l.867,0,.987,0,2.031.007V.537h-.174l-1.625.006-.836,0-.728,0-.386,0h-.43l-.129,0h-.221A.337.337,0,0,1-33.617.4a.343.343,0,0,1-.017-.14V.187C-33.585,0-33.449-.041-33.27-.041Z" transform="translate(56.665 15.492)" fill="#fff"/>
    <path id="Path_3241" data-name="Path 3241" d="M-234.81-18.964a3.4,3.4,0,0,1,1.3,2.205,3.545,3.545,0,0,1-.74,2.648A3.34,3.34,0,0,1-236.5-12.9a3.51,3.51,0,0,1-2.652-.848,1.494,1.494,0,0,0-.6.525.435.435,0,0,0,.038.225,1.426,1.426,0,0,1-.014.834,5.1,5.1,0,0,1-1.016,1.132l-.247.249-.159.16-.073.074a1.282,1.282,0,0,1-.9.454,1.2,1.2,0,0,1-.9-.3,1.27,1.27,0,0,1-.309-.971c.045-.6.67-1.051,1.072-1.454l.247-.249.159-.16.073-.074a1.254,1.254,0,0,1,.9-.45h.141a1.084,1.084,0,0,1,.373.062.242.242,0,0,0,.236-.03,2.848,2.848,0,0,0,.222-.229l.077-.082q.093-.1.184-.2a1.71,1.71,0,0,0-.166-.328,3.423,3.423,0,0,1-.374-2.516,3.517,3.517,0,0,1,1.611-2.132A3.46,3.46,0,0,1-234.81-18.964Zm-4.1.77a2.888,2.888,0,0,0-.744,2.132,2.615,2.615,0,0,0,.639,1.579l.053.068a2.78,2.78,0,0,0,1.883.941,2.894,2.894,0,0,0,2.069-.714,2.718,2.718,0,0,0,.906-1.856,2.833,2.833,0,0,0-.641-2.009l-.053-.068a2.779,2.779,0,0,0-1.883-.941A2.928,2.928,0,0,0-238.905-18.194Zm-2.615,5.511-.1.1-.2.2-.26.26-.249.249-.094.094-.087.088-.077.077a.594.594,0,0,0-.144.475.585.585,0,0,0,.243.38.686.686,0,0,0,.468.057,2.621,2.621,0,0,0,.55-.47l.1-.1.2-.2.26-.26.249-.249.094-.094.087-.088.077-.077a.594.594,0,0,0,.144-.475.585.585,0,0,0-.243-.38C-240.951-13.313-241.223-12.983-241.52-12.684Z" transform="translate(258.803 38.458)" fill="#fff"/>
    <path id="Path_3242" data-name="Path 3242" d="M-459.8-.46a.273.273,0,0,1,.14.14.594.594,0,0,1,0,.28,1.045,1.045,0,0,1-.321.244l-.109.058-.117.062-.185.1-.192.1c-.194.1-.388.207-.581.312l-.228.123-.114.061-.341.184-.114.061-.226.121c-.177.1-.354.191-.529.289l-.187.1-.234.132-.107.059-.094.053a.941.941,0,0,1-.777-.125l-.113-.05-.355-.158-.469-.208-.108-.049-.1-.045-.089-.04a.435.435,0,0,0-.357.063l-.107.066-.059.036-.19.118-.133.082-.331.2-.256.158-.352.218q-.376.233-.752.464c-.191.117-.382.235-.571.356l-.11.069-.2.131-.093.058-.08.051a.679.679,0,0,1-.557-.032l-.209-.094-.228-.1-.357-.161-.347-.154-.107-.049-.1-.045-.088-.04a.757.757,0,0,0-.546.106l-.121.061-.131.067-.139.07-.3.152-.474.24-1.261.638-.829.419-.47.238-.293.148-.135.069c-.428.22-.428.22-.678.184a.273.273,0,0,1-.14-.14.593.593,0,0,1,0-.28,1.024,1.024,0,0,1,.346-.253l.062-.032.206-.1.148-.075.4-.2.251-.126.875-.438.815-.409.7-.351.418-.21.393-.2.144-.072c.5-.252.5-.252.8-.165l.089.04.1.045.108.049.113.05.355.158.469.208.108.049.1.045.089.04a.435.435,0,0,0,.357-.063l.107-.066.059-.036.19-.118.133-.082.331-.2.256-.158.352-.218q.376-.233.752-.464c.191-.117.382-.235.571-.356l.11-.069.2-.131.093-.058.08-.051a.681.681,0,0,1,.557.032l.209.094.113.05.474.212.347.154.108.049a.586.586,0,0,0,.488.073c.087-.04.17-.081.254-.126l.073-.039.233-.126.163-.087q.479-.256.954-.517c.381-.209.764-.413,1.147-.617l.241-.132.122-.067.109-.061A.506.506,0,0,1-459.8-.46Z" transform="translate(491.952 25.449)" fill="#fff"/>
    <path id="Path_3243" data-name="Path 3243" d="M-11.95-.047H4.1a.388.388,0,0,1,.282.085.281.281,0,0,1,.072.213v.07A.345.345,0,0,1,4.3.531a1.7,1.7,0,0,1-.275.018h-16.05a.388.388,0,0,1-.282-.085.281.281,0,0,1-.071-.213V.181C-12.325-.041-12.148-.049-11.95-.047Z" transform="translate(27.852 31.738)" fill="#fff"/>
    <path id="Path_3244" data-name="Path 3244" d="M-105.176-1.942a.454.454,0,0,1,.05.368.776.776,0,0,1-.466.254A4.274,4.274,0,0,0-108.054.838a4.748,4.748,0,0,0-.274.841l-.028.106-.024.095a.347.347,0,0,1-.175.186.477.477,0,0,1-.368-.05.666.666,0,0,1-.019-.543A5.647,5.647,0,0,1-108.625.6l.047-.1a4.751,4.751,0,0,1,1.738-1.927l.1-.065C-106.375-1.724-105.6-2.19-105.176-1.942Z" transform="translate(126.213 19.564)" fill="#fff"/>
    <path id="Path_3245" data-name="Path 3245" d="M-8.249-.03h.07a.377.377,0,0,1,.21.159A.565.565,0,0,1-7.951.3V.65c0,.135,0,.27,0,.4q0,.14,0,.281,0,.294,0,.589,0,.34,0,.681,0,.292,0,.585,0,.175,0,.349c0,.13,0,.259,0,.389v.317a.351.351,0,0,1-.158.222.344.344,0,0,1-.14.018h-.07a.377.377,0,0,1-.21-.159.565.565,0,0,1-.018-.175V3.8c0-.135,0-.27,0-.4q0-.14,0-.281,0-.294,0-.589,0-.34,0-.681,0-.292,0-.585,0-.175,0-.349c0-.13,0-.259,0-.389V.21A.28.28,0,0,1-8.249-.03Z" transform="translate(40.257 26.682)" fill="#fff"/>
    <path id="Path_3246" data-name="Path 3246" d="M-8.249-.03h.07a.317.317,0,0,1,.21.159A2.064,2.064,0,0,1-7.951.5V.616c0,.126,0,.252,0,.378q0,.131,0,.262,0,.275,0,.549,0,.317,0,.635t0,.611q0,.13,0,.26c0,.121,0,.242,0,.363v.109c0,.242,0,.242-.086.357a.312.312,0,0,1-.213.065h-.07a.317.317,0,0,1-.21-.159,2.065,2.065,0,0,1-.018-.374V3.559c0-.126,0-.252,0-.378q0-.131,0-.262,0-.275,0-.549,0-.317,0-.635t0-.611q0-.13,0-.26c0-.121,0-.242,0-.363V.392c0-.242,0-.242.086-.357A.312.312,0,0,1-8.249-.03Z" transform="translate(39.137 26.962)" fill="#fff"/>
    <path id="Path_3247" data-name="Path 3247" d="M-8.249-.03h.07a.331.331,0,0,1,.21.159,1.566,1.566,0,0,1,.018.322v.1c0,.108,0,.215,0,.323q0,.112,0,.224,0,.235,0,.47,0,.3,0,.6,0,.232,0,.463,0,.111,0,.222c0,.1,0,.207,0,.311v.093c0,.208,0,.208-.086.318a.3.3,0,0,1-.213.069h-.07a.331.331,0,0,1-.21-.159,1.566,1.566,0,0,1-.018-.322v-.1c0-.108,0-.215,0-.323q0-.112,0-.224,0-.235,0-.47,0-.3,0-.6,0-.232,0-.463,0-.111,0-.222c0-.1,0-.207,0-.311V.356c0-.208,0-.208.086-.318A.3.3,0,0,1-8.249-.03Z" transform="translate(38.017 27.522)" fill="#fff"/>
    <path id="Path_3248" data-name="Path 3248" d="M-8.249-.03h.07a.339.339,0,0,1,.21.159,1.986,1.986,0,0,1,.018.3v.09c0,.1,0,.2,0,.3q0,.1,0,.206,0,.215,0,.431,0,.276,0,.552,0,.212,0,.424,0,.1,0,.2c0,.095,0,.19,0,.285V3a.42.42,0,0,1-.086.3.287.287,0,0,1-.213.07h-.07a.339.339,0,0,1-.21-.159,1.986,1.986,0,0,1-.018-.3v-.09c0-.1,0-.2,0-.3q0-.1,0-.206,0-.215,0-.431,0-.276,0-.552,0-.212,0-.424,0-.1,0-.2c0-.095,0-.19,0-.285V.339a.42.42,0,0,1,.086-.3A.287.287,0,0,1-8.249-.03Z" transform="translate(36.897 27.802)" fill="#fff"/>
    <path id="Path_3249" data-name="Path 3249" d="M-8.249-.03h.07a.339.339,0,0,1,.21.159,1.986,1.986,0,0,1,.018.3v.09c0,.1,0,.2,0,.3q0,.1,0,.206,0,.215,0,.431,0,.276,0,.552,0,.212,0,.424,0,.1,0,.2c0,.095,0,.19,0,.285V3a.42.42,0,0,1-.086.3.287.287,0,0,1-.213.07h-.07a.339.339,0,0,1-.21-.159,1.986,1.986,0,0,1-.018-.3v-.09c0-.1,0-.2,0-.3q0-.1,0-.206,0-.215,0-.431,0-.276,0-.552,0-.212,0-.424,0-.1,0-.2c0-.095,0-.19,0-.285V.339a.42.42,0,0,1,.086-.3A.287.287,0,0,1-8.249-.03Z" transform="translate(34.657 27.802)" fill="#fff"/>
    <path id="Path_3250" data-name="Path 3250" d="M-8.249-.03h.07a.347.347,0,0,1,.21.159A1.656,1.656,0,0,1-7.951.4V.48c0,.089,0,.179,0,.268q0,.093,0,.187,0,.2,0,.391c0,.167,0,.334,0,.5q0,.193,0,.386,0,.092,0,.185c0,.086,0,.172,0,.258v.077a.385.385,0,0,1-.086.279.28.28,0,0,1-.213.072h-.07a.347.347,0,0,1-.21-.159,1.657,1.657,0,0,1-.018-.271V2.575c0-.089,0-.179,0-.268q0-.093,0-.187,0-.2,0-.391c0-.167,0-.334,0-.5q0-.193,0-.386,0-.092,0-.185c0-.086,0-.172,0-.258V.321A.385.385,0,0,1-8.462.042.28.28,0,0,1-8.249-.03Z" transform="translate(35.777 28.082)" fill="#fff"/>
    <path id="Path_3251" data-name="Path 3251" d="M-8.249-.03h.07a.347.347,0,0,1,.21.159A1.656,1.656,0,0,1-7.951.4V.48c0,.089,0,.179,0,.268q0,.093,0,.187,0,.2,0,.391c0,.167,0,.334,0,.5q0,.193,0,.386,0,.092,0,.185c0,.086,0,.172,0,.258v.077a.385.385,0,0,1-.086.279.28.28,0,0,1-.213.072h-.07a.347.347,0,0,1-.21-.159,1.657,1.657,0,0,1-.018-.271V2.575c0-.089,0-.179,0-.268q0-.093,0-.187,0-.2,0-.391c0-.167,0-.334,0-.5q0-.193,0-.386,0-.092,0-.185c0-.086,0-.172,0-.258V.321A.385.385,0,0,1-8.462.042.28.28,0,0,1-8.249-.03Z" transform="translate(33.537 28.082)" fill="#fff"/>
    <path id="Path_3252" data-name="Path 3252" d="M-8.256-.03h.07a.371.371,0,0,1,.21.159.681.681,0,0,1,.018.194V.7q0,.136,0,.273c0,.139,0,.278,0,.418q0,.132,0,.265V2a.34.34,0,0,1-.158.23.343.343,0,0,1-.14.018h-.07a.371.371,0,0,1-.21-.159.681.681,0,0,1-.018-.194V1.52q0-.136,0-.273c0-.139,0-.278,0-.418q0-.132,0-.265V.218A.278.278,0,0,1-8.256-.03Z" transform="translate(32.424 28.922)" fill="#fff"/>
    <path id="Path_3253" data-name="Path 3253" d="M-8.256-.03h.07a.371.371,0,0,1,.21.159.681.681,0,0,1,.018.194V.7q0,.136,0,.273c0,.139,0,.278,0,.418q0,.132,0,.265V2a.34.34,0,0,1-.158.23.343.343,0,0,1-.14.018h-.07a.371.371,0,0,1-.21-.159.681.681,0,0,1-.018-.194V1.52q0-.136,0-.273c0-.139,0-.278,0-.418q0-.132,0-.265V.218A.278.278,0,0,1-8.256-.03Z" transform="translate(29.064 28.922)" fill="#fff"/>
    <path id="Path_3254" data-name="Path 3254" d="M-8.256-.03h.07a.316.316,0,0,1,.21.159A2.1,2.1,0,0,1-7.958.5V.615q0,.117,0,.233c0,.119,0,.238,0,.357q0,.113,0,.226v.108c0,.246,0,.246-.086.361a.313.313,0,0,1-.213.065h-.07a.316.316,0,0,1-.21-.159,2.1,2.1,0,0,1-.019-.376V1.32q0-.117,0-.233c0-.119,0-.238,0-.357q0-.113,0-.226V.4c0-.246,0-.246.086-.361A.313.313,0,0,1-8.256-.03Z" transform="translate(30.184 29.202)" fill="#fff"/>
    <path id="Path_3255" data-name="Path 3255" d="M-8.256-.03h.07a.333.333,0,0,1,.21.159,1.5,1.5,0,0,1,.019.315V.535q0,.1,0,.193c0,.1,0,.2,0,.3q0,.094,0,.188V1.3c0,.2,0,.2-.086.314a.292.292,0,0,1-.213.069h-.07a.333.333,0,0,1-.21-.159,1.5,1.5,0,0,1-.019-.315V1.12q0-.1,0-.193c0-.1,0-.2,0-.3q0-.094,0-.188V.353c0-.2,0-.2.086-.314A.292.292,0,0,1-8.256-.03Z" transform="translate(31.304 29.482)" fill="#fff"/>
    <path id="Path_3256" data-name="Path 3256" d="M-8.256-.03h.07a.333.333,0,0,1,.21.159,1.5,1.5,0,0,1,.019.315V.535q0,.1,0,.193c0,.1,0,.2,0,.3q0,.094,0,.188V1.3c0,.2,0,.2-.086.314a.292.292,0,0,1-.213.069h-.07a.333.333,0,0,1-.21-.159,1.5,1.5,0,0,1-.019-.315V1.12q0-.1,0-.193c0-.1,0-.2,0-.3q0-.094,0-.188V.353c0-.2,0-.2.086-.314A.292.292,0,0,1-8.256-.03Z" transform="translate(27.944 29.482)" fill="#fff"/>
    <path id="Path_3257" data-name="Path 3257" d="M-8.248-.03h.07a.352.352,0,0,1,.21.159,1.129,1.129,0,0,1,.019.254V.455q0,.077,0,.154c0,.078,0,.157,0,.235q0,.075,0,.15v.137a.318.318,0,0,1-.158.256.343.343,0,0,1-.14.018h-.07a.352.352,0,0,1-.21-.159A1.129,1.129,0,0,1-8.546.994V.92q0-.077,0-.154c0-.078,0-.157,0-.235q0-.075,0-.15V.244A.276.276,0,0,1-8.248-.03Z" transform="translate(30.735 26.122)" fill="#fff"/>
    <path id="Path_3258" data-name="Path 3258" d="M-8.248-.03h.07a.372.372,0,0,1,.21.159A.673.673,0,0,1-7.949.32V.431l0,.116,0,.116V.877a.342.342,0,0,1-.158.231.343.343,0,0,1-.14.018h-.07a.372.372,0,0,1-.21-.159A.673.673,0,0,1-8.546.775V.663l0-.116,0-.116V.218A.279.279,0,0,1-8.248-.03Z" transform="translate(26.815 30.042)" fill="#fff"/>
    <path id="Path_3259" data-name="Path 3259" d="M-12-.42a.273.273,0,0,1,.14.14.464.464,0,0,1-.053.368A.464.464,0,0,1-12.28.14.273.273,0,0,1-12.42,0a.464.464,0,0,1,.053-.368A.464.464,0,0,1-12-.42Z" transform="translate(29.587 31.009)" fill="#fff"/>
    <path id="Path_3260" data-name="Path 3260" d="M-12-.42a.273.273,0,0,1,.14.14.464.464,0,0,1-.053.368A.464.464,0,0,1-12.28.14.273.273,0,0,1-12.42,0a.464.464,0,0,1,.053-.368A.464.464,0,0,1-12-.42Z" transform="translate(41.908 24.289)" fill="#fff"/>
    <path id="Path_3261" data-name="Path 3261" d="M-12-.42a.273.273,0,0,1,.14.14.464.464,0,0,1-.053.368A.464.464,0,0,1-12.28.14.273.273,0,0,1-12.42,0a.464.464,0,0,1,.053-.368A.464.464,0,0,1-12-.42Z" transform="translate(41.908 23.169)" fill="#fff"/>
    <path id="Path_3262" data-name="Path 3262" d="M-12-.42a.273.273,0,0,1,.14.14.464.464,0,0,1-.053.368A.464.464,0,0,1-12.28.14.273.273,0,0,1-12.42,0a.464.464,0,0,1,.053-.368A.464.464,0,0,1-12-.42Z" transform="translate(29.587 22.609)" fill="#fff"/>
    <path id="Path_3263" data-name="Path 3263" d="M-12-.42a.273.273,0,0,1,.14.14.464.464,0,0,1-.053.368A.464.464,0,0,1-12.28.14.273.273,0,0,1-12.42,0a.464.464,0,0,1,.053-.368A.464.464,0,0,1-12-.42Z" transform="translate(41.908 22.049)" fill="#fff"/>
    <path id="Path_3264" data-name="Path 3264" d="M-12-.42a.273.273,0,0,1,.14.14.464.464,0,0,1-.053.368A.464.464,0,0,1-12.28.14.273.273,0,0,1-12.42,0a.464.464,0,0,1,.053-.368A.464.464,0,0,1-12-.42Z" transform="translate(41.908 20.929)" fill="#fff"/>
    <path id="Path_3265" data-name="Path 3265" d="M-12-.42a.273.273,0,0,1,.14.14.464.464,0,0,1-.053.368A.464.464,0,0,1-12.28.14.273.273,0,0,1-12.42,0a.464.464,0,0,1,.053-.368A.464.464,0,0,1-12-.42Z" transform="translate(41.908 19.809)" fill="#fff"/>
  </g>
</svg>
