<svg xmlns="http://www.w3.org/2000/svg" width="14.955" height="15.138" viewBox="0 0 14.955 15.138">
  <g id="report-_1_" transform="translate(-10.995 503.927)">
    <path id="Path_3630" data-name="Path 3630" d="M11.315-503.883a.506.506,0,0,0-.256.229l-.064.107v7.183c0,7.833-.012,7.253.174,7.43a.552.552,0,0,0,.171.113c.061.024,1.758.034,5.54.034,5.229,0,5.461,0,5.577-.058.244-.113.321-.275.321-.69v-.29h3.043l.064-.07a.258.258,0,0,0,.009-.33l-.058-.073-3.208-.009-3.208-.006v-2.93c0-2.891,0-2.93-.061-2.991a.293.293,0,0,0-.305-.031.254.254,0,0,0-.089.125c-.049.137-.049,6.023,0,6.16a.255.255,0,0,0,.089.125c.037.018.669.031,1.648.031h1.59l-.009.266-.009.269-5.394.009-5.4.006V-503.44h8.974v.763c0,.849.009.9.192,1.007.092.055.159.061.87.061h.769l-.006,3.471-.009,3.471-.519.269a15.851,15.851,0,0,1-1.679.742,2.638,2.638,0,0,0-.4.177.336.336,0,0,0-.058.128.256.256,0,0,0,.183.272,9.531,9.531,0,0,0,2.057-.818,16.178,16.178,0,0,0,2.085-1.273.649.649,0,0,1,.131-.089.3.3,0,0,1,.012.14c-.006.119.006.153.076.214a.211.211,0,0,0,.3.012c.067-.052.089-.125.177-.565.143-.717.143-.717-.607-.717-.443,0-.491.006-.565.064a.19.19,0,0,0-.079.18c0,.153.107.244.287.244l.125,0-.092.076c-.049.04-.278.2-.5.354l-.412.278-.015-3.461c-.012-2.851-.021-3.474-.058-3.538a25.42,25.42,0,0,0-1.911-1.9,37.166,37.166,0,0,0-4.762-.055C12.121-503.926,11.392-503.92,11.315-503.883Zm10.134,1.3.488.488h-.992v-.488c0-.269,0-.488.009-.488S21.181-502.854,21.45-502.586Z" transform="translate(0 0)" fill="#fff"/>
    <path id="Path_3631" data-name="Path 3631" d="M165.131-465.624a.257.257,0,0,0-.1.092,10.772,10.772,0,0,0-.034,1.294c0,1.2,0,1.236.064,1.316l.061.079h2.534l.073-.076c.092-.092.1-.25.027-.629a2.572,2.572,0,0,0-.9-1.517,3.259,3.259,0,0,0-1.007-.507A2,2,0,0,0,165.131-465.624Zm.641.54a2.155,2.155,0,0,1,1.239.922,2.4,2.4,0,0,1,.278.745v.085h-1.8v-.9C165.488-465.254,165.458-465.166,165.772-465.084Z" transform="translate(-149.304 -37.118)" fill="#fff"/>
    <path id="Path_3632" data-name="Path 3632" d="M64.247-438.849a2.625,2.625,0,0,0-2.094,2.039,2.986,2.986,0,0,0,.046,1.187,2.594,2.594,0,0,0,1.682,1.749,1.9,1.9,0,0,0,.672.113,2.413,2.413,0,0,0,1.062-.165,2.582,2.582,0,0,0,1.615-2.179c.04-.47.07-.458-1.258-.458H64.918v-1.053a8.324,8.324,0,0,0-.034-1.123C64.821-438.879,64.631-438.91,64.247-438.849Zm.183,1.554v1.071l.076.073.073.076h2.14v.085a1.755,1.755,0,0,1-.189.6,2.075,2.075,0,0,1-1.352,1.09,2.235,2.235,0,0,1-1.169-.043,2.12,2.12,0,0,1-1.306-1.313,2.081,2.081,0,0,1,1.343-2.634,1.635,1.635,0,0,1,.3-.073h.082Z" transform="translate(-49.558 -63.062)" fill="#fff"/>
    <path id="Path_3633" data-name="Path 3633" d="M429.134-203.694a.262.262,0,0,0-.1.107c-.024.055-.034.644-.034,1.978,0,1.865,0,1.9.061,1.966a.372.372,0,0,0,.131.085c.04.009.336.012.656.006.562-.009.586-.012.653-.079l.07-.07v-3.871l-.07-.07c-.067-.067-.089-.07-.687-.076A3.91,3.91,0,0,0,429.134-203.694Zm.949,2.057v1.587l-.3.009-.3.009v-3.211l.3.009.3.009Z" transform="translate(-405.246 -291.044)" fill="#fff"/>
    <path id="Path_3634" data-name="Path 3634" d="M62.163-185.924a.237.237,0,0,0-.018.324l.058.073,2.25.009,2.247.006.092-.089a.2.2,0,0,0,.012-.324L66.729-186H62.236Z" transform="translate(-49.535 -308.222)" fill="#fff"/>
    <path id="Path_3635" data-name="Path 3635" d="M363.064-165.921c-.064.079-.064.113-.064,1.429s0,1.352.061,1.416a.373.373,0,0,0,.131.085c.04.009.336.012.656.006.562-.009.586-.012.653-.079l.07-.07.009-1.242c.006-.684,0-1.3-.009-1.374-.037-.247-.046-.25-.791-.25h-.656Zm1.029,1.422-.009,1.016-.3.009-.3.009v-2.048h.611Z" transform="translate(-341.26 -327.611)" fill="#fff"/>
    <path id="Path_3636" data-name="Path 3636" d="M62.076-140.924a.238.238,0,0,0-.076.168.238.238,0,0,0,.076.168l.073.076h2.213c1.581,0,2.234-.009,2.289-.034a.255.255,0,0,0,.122-.284c-.043-.177.055-.171-2.387-.171H62.15Z" transform="translate(-49.448 -351.847)" fill="#fff"/>
    <path id="Path_3637" data-name="Path 3637" d="M297.089-130.911l-.089.089v.806c0,.769,0,.809.061.873a.373.373,0,0,0,.131.085c.04.009.336.012.656.006.791-.012.72.073.733-.907.012-.839-.006-.952-.162-1.01a4.268,4.268,0,0,0-.659-.031h-.583Zm1,.888v.473l-.3.009-.3.009v-.983l.3.009.3.009Z" transform="translate(-277.275 -361.543)" fill="#fff"/>
    <path id="Path_3638" data-name="Path 3638" d="M62.076-95.924a.238.238,0,0,0-.076.168.238.238,0,0,0,.076.168l.073.076h2.213c1.581,0,2.234-.009,2.289-.034a.234.234,0,0,0,.11-.3.27.27,0,0,0-.095-.122c-.034-.018-.916-.031-2.286-.031H62.15Z" transform="translate(-49.448 -395.474)" fill="#fff"/>
  </g>
</svg>
