<svg xmlns="http://www.w3.org/2000/svg" width="15.85" height="15.844" viewBox="0 0 15.85 15.844">
  <g id="meal" transform="translate(-0.178 511.996)">
    <path id="Path_3879" data-name="Path 3879" d="M140.927-511.962a8.343,8.343,0,0,0-2.54.672c-.316.139-.387.2-.387.338s.04.211.149.254.121.037.672-.2a7.405,7.405,0,0,1,5.941.115c.294.133.375.136.486.025a.268.268,0,0,0-.006-.35,5.647,5.647,0,0,0-1.589-.626A8.014,8.014,0,0,0,140.927-511.962Z" transform="translate(-133.553 0)" fill="#fff"/>
    <path id="Path_3880" data-name="Path 3880" d="M41.85-499.522a26.866,26.866,0,0,0-2.085,2.113.768.768,0,0,0-.059.561l.043.127-1.707,1.7-1.707,1.7-.177-.006-.18,0-1.666-1.666-1.666-1.666.025-.192a1.71,1.71,0,0,0-.294-1.14,2.779,2.779,0,0,0-1.493-.963,2.062,2.062,0,0,0-1.109,0c-.728.291-.846,1.258-.282,2.329a1.833,1.833,0,0,0,1.812,1.115l.2-.028,1.676,1.673,1.676,1.673,0,.18c0,.177,0,.18-.226.412-.291.307-.362.443-.362.7a.777.777,0,0,0,1.137.706,2.113,2.113,0,0,0,.356-.285L36-490.7l.173,0c.173,0,.177.006.415.232a.963.963,0,0,0,.712.356.75.75,0,0,0,.768-.771.941.941,0,0,0-.359-.719l-.229-.242,0-.177,0-.18,1.7-1.7,1.7-1.7.127.043a.739.739,0,0,0,.576-.068,13.092,13.092,0,0,0,1.143-1.081c1.053-1.053,1.05-1.047.963-1.236a.284.284,0,0,0-.254-.146,8.438,8.438,0,0,0-1.059.988c-.545.545-1.028,1.007-1.075,1.022-.112.04-.223,0-.359-.13l-.1-.1,1.05-1.056a10.166,10.166,0,0,0,1.075-1.143.272.272,0,0,0-.322-.313,12.059,12.059,0,0,0-1.137,1.072l-1.056,1.05-.1-.1c-.13-.136-.17-.248-.13-.359.019-.046.471-.523,1.007-1.059.911-.914.973-.985.973-1.087s-.09-.245-.155-.245a.253.253,0,0,1-.068-.016A.288.288,0,0,0,41.85-499.522Zm-11.049,1.1a1.908,1.908,0,0,1,1.279.991,1.29,1.29,0,0,1,.031.7,1.053,1.053,0,0,1-.663.663,1.183,1.183,0,0,1-1.019-.214,2.385,2.385,0,0,1-.759-1.524c-.031-.353.09-.592.338-.675A1.835,1.835,0,0,1,30.8-498.419Zm9.639,2.493c0,.016-.709.74-1.58,1.611l-1.577,1.577-.2-.192-.192-.2,1.592-1.592,1.6-1.6.177.177A.981.981,0,0,1,40.441-495.926Zm-6.5,1.3,1.5,1.5-.192.2-.2.192-1.505-1.505-1.5-1.505.18-.186a2.174,2.174,0,0,1,.2-.189C32.428-496.127,33.109-495.452,33.936-494.625Zm2.555,1.9a.787.787,0,0,1,.229,1.267.783.783,0,0,1-1.335-.554A.775.775,0,0,1,36.492-492.72Zm-1.242,1.642.183.189-.1.105c-.142.146-.276.189-.4.127a.27.27,0,0,1-.13-.31.915.915,0,0,1,.245-.3A1.528,1.528,0,0,1,35.25-491.078Zm2.171-.056a.771.771,0,0,1,.127.2.282.282,0,0,1-.319.31.721.721,0,0,1-.2-.142l-.13-.118.186-.189a1.515,1.515,0,0,1,.208-.189A.717.717,0,0,1,37.421-491.134Z" transform="translate(-28.065 -12.059)" fill="#fff"/>
    <path id="Path_3881" data-name="Path 3881" d="M164.96-460.526a7.012,7.012,0,0,0-1.533.279,4.677,4.677,0,0,0-.945.39.256.256,0,0,0,.074.421c.077.04.105.037.263-.025a1.785,1.785,0,0,1,.214-.071c.025,0,.081.1.142.266a1.25,1.25,0,0,0,.161.316.269.269,0,0,0,.415-.192,1.439,1.439,0,0,0-.093-.335.75.75,0,0,1-.068-.266,5.577,5.577,0,0,1,1.285-.245h.146v.223c0,.325.043.449.173.511a.168.168,0,0,0,.211,0c.13-.062.173-.186.173-.511v-.223h.149a5.649,5.649,0,0,1,1.282.245.749.749,0,0,1-.068.266c-.115.307-.115.387-.012.492.18.177.387.059.5-.291.1-.3.087-.288.307-.2.254.1.406.056.455-.133.034-.139-.037-.248-.214-.331a6.29,6.29,0,0,0-1.781-.527A8.617,8.617,0,0,0,164.96-460.526Z" transform="translate(-157.199 -49.872)" fill="#fff"/>
    <path id="Path_3882" data-name="Path 3882" d="M1.064-373.927a3.438,3.438,0,0,0-.353.737,7.968,7.968,0,0,0-.071,5.541,9.172,9.172,0,0,0,.858,1.707,7.923,7.923,0,0,0,3.119,2.729,7.86,7.86,0,0,0,2.4.747,10.572,10.572,0,0,0,2.168,0,7.86,7.86,0,0,0,2.4-.747,7.931,7.931,0,0,0,3.147-2.766,9.733,9.733,0,0,0,.877-1.806,7.942,7.942,0,0,0,.167-4.519,5.431,5.431,0,0,0-.654-1.629.308.308,0,0,0-.31,0,.357.357,0,0,0-.087.136c-.028.087-.019.13.105.4a7.853,7.853,0,0,1,.6,2.051,9.426,9.426,0,0,1,0,2.047,7.43,7.43,0,0,1-.685,2.215,6.791,6.791,0,0,1-1.425,1.986,6.791,6.791,0,0,1-1.986,1.425,7.428,7.428,0,0,1-2.215.685,9.394,9.394,0,0,1-2.044,0,7.6,7.6,0,0,1-3.516-1.487,10.421,10.421,0,0,1-1.307-1.307A7.6,7.6,0,0,1,.77-369.3a9.426,9.426,0,0,1,0-2.047,8,8,0,0,1,.607-2.066c.142-.313.149-.431.025-.517A.314.314,0,0,0,1.064-373.927Z" transform="translate(0 -133.742)" fill="#fff"/>
    <path id="Path_3883" data-name="Path 3883" d="M52.389-349.71a4.781,4.781,0,0,0-.66,1.924,8.141,8.141,0,0,0-.015,1.716,6.371,6.371,0,0,0,3.3,4.795,6.345,6.345,0,0,0,4.767.5,6.372,6.372,0,0,0,4.414-4.736,5.678,5.678,0,0,0,.136-1.394,5.744,5.744,0,0,0-.362-2.1c-.232-.635-.341-.793-.527-.756-.239.05-.276.2-.13.536a7.982,7.982,0,0,1,.344.991c.022.112.028.108-.322.164-.266.043-.375.124-.375.279,0,.242.13.3.511.235a1.433,1.433,0,0,1,.288-.034,2.621,2.621,0,0,1,.043.372,4.977,4.977,0,0,1-.043,1.087,1.185,1.185,0,0,1-.288-.034c-.378-.071-.511-.012-.511.232,0,.158.1.229.415.288a1.8,1.8,0,0,1,.288.065,5.677,5.677,0,0,1-.5,1.381,2.722,2.722,0,0,1-.257-.139,1.1,1.1,0,0,0-.322-.139.271.271,0,0,0-.251.257c0,.142.034.18.325.347l.245.142-.124.183a6.867,6.867,0,0,1-.626.762l-.189.2-.235-.251c-.269-.285-.347-.31-.5-.158s-.124.239.149.551l.164.192-.1.074a6.364,6.364,0,0,1-.864.52c-.35.177-.331.18-.418-.081a.806.806,0,0,0-.214-.4.278.278,0,0,0-.387.22,1.44,1.44,0,0,0,.093.335.75.75,0,0,1,.068.266,5.236,5.236,0,0,1-1.273.245h-.158v-.226c0-.322-.043-.446-.173-.508a.168.168,0,0,0-.211,0c-.13.062-.173.186-.173.508v.226H57.58a6.036,6.036,0,0,1-1.285-.238.771.771,0,0,1,.068-.263,1.507,1.507,0,0,0,.093-.341.261.261,0,0,0-.251-.242c-.146,0-.229.1-.325.369a2.01,2.01,0,0,1-.108.263,4.514,4.514,0,0,1-1.258-.716c-.009-.022.053-.121.136-.217.26-.3.282-.393.136-.539s-.229-.121-.4.056c-.081.084-.183.2-.229.254l-.087.105-.127-.121a7.951,7.951,0,0,1-.7-.846l-.127-.183.242-.139c.276-.161.307-.192.335-.325.015-.081,0-.112-.074-.192-.13-.127-.217-.121-.5.046a2.721,2.721,0,0,1-.257.139,5.245,5.245,0,0,1-.437-1.087c-.084-.294-.077-.335.043-.338a1.054,1.054,0,0,0,.52-.142.26.26,0,0,0-.1-.427,1.186,1.186,0,0,0-.344.028,1.117,1.117,0,0,1-.279.034,4.6,4.6,0,0,1-.046-1.09,2.824,2.824,0,0,1,.046-.372,1.166,1.166,0,0,1,.285.034c.378.071.511.012.511-.232,0-.155-.108-.235-.375-.279-.35-.056-.344-.053-.322-.164a7.982,7.982,0,0,1,.344-.991.681.681,0,0,0,.09-.331A.251.251,0,0,0,52.389-349.71Z" transform="translate(-49.903 -157.207)" fill="#fff"/>
  </g>
</svg>
