<svg xmlns="http://www.w3.org/2000/svg" width="18.266" height="18.276" viewBox="0 0 18.266 18.276">
  <g id="production" transform="translate(-8.582 -8.469)">
    <path id="Path_3198" data-name="Path 3198" d="M-48.026-.122H-45.7a.593.593,0,0,1,.425.167.761.761,0,0,1,.123.575V.734c0,.13,0,.259,0,.389q0,.135,0,.27,0,.355,0,.71t0,.724q0,.711-.005,1.421l.071-.021c.487-.143.975-.283,1.466-.414l.171-.046.439-.117.624-.166.33-.088.15-.04.131-.035q.131-.036.261-.075a.617.617,0,0,1,.38,0,.781.781,0,0,1,.118.6c0,.038,0,.076,0,.115q0,.14-.005.28l.105-.034c.385-.123.773-.231,1.164-.336l.189-.051.493-.132.6-.161.466-.125.087-.023.158-.042c.116-.031.232-.063.347-.1a.641.641,0,0,1,.378.005.357.357,0,0,1,.123.242l0,.105c0,.034,0,.068,0,.1l0,.13q0,.111,0,.222l0,.193.058-.017c.664-.2,1.331-.384,2-.567l.486-.135.478-.132.18-.05.25-.069.073-.021a.854.854,0,0,1,.461,0,.287.287,0,0,1,.111.111,1.368,1.368,0,0,1,.013.252c0,.026,0,.051,0,.078,0,.086,0,.173,0,.259q0,.093,0,.186,0,.252,0,.5t0,.527q0,.5,0,1,0,.568,0,1.136,0,1.168-.006,2.337l.071,0,.321-.005.112,0a.815.815,0,0,1,.53.12.948.948,0,0,1,.2.766l0,.143c0,.431,0,.431-.162.6a.706.706,0,0,1-.544.152h-7.234l-2.528,0h-7.16a.759.759,0,0,1-.438-.125.948.948,0,0,1-.2-.766l0-.143c0-.431,0-.431.162-.6a.579.579,0,0,1,.447-.151h.34l.283,0V9.492q0-1.712-.007-3.425,0-.211,0-.422V5.561q0-.679,0-1.359,0-.7,0-1.394,0-.43,0-.86,0-.33,0-.66,0-.135,0-.271c0-.123,0-.246,0-.369V.541A.809.809,0,0,1-48.486,0,.621.621,0,0,1-48.026-.122Zm-.053.532V1.591h2.362V.409Zm0,1.735V9.638h2.362V2.144Zm6.2,1.77-.087.023-.094.026-.1.027-.328.089-.228.062-.477.13-.612.167-.47.128-.226.061-.315.086-.1.026a.53.53,0,0,0-.255.1c0,.062,0,.124,0,.187,0,.04,0,.081,0,.122v.136c0,.047,0,.094,0,.142q0,.193,0,.386t0,.4q0,.382,0,.764,0,.516,0,1.032,0,.813,0,1.627h3.581V3.879A.975.975,0,0,0-41.877,3.914Zm3.969.046-.1.026-.316.086-.219.059-.578.157-.588.159-.661.179-.1.028-.188.051c-.124.034-.248.067-.373.1V9.638h3.544V3.879A1.58,1.58,0,0,0-37.908,3.96Zm4.156-.016-.078.021-.255.069-.178.048-.472.128-.379.1-1.033.281-.177.048-.279.076-.087.024a.5.5,0,0,0-.243.1c0,.062,0,.124,0,.187,0,.04,0,.081,0,.122s0,.089,0,.136,0,.094,0,.142q0,.193,0,.386t0,.4q0,.382,0,.764,0,.516,0,1.032,0,.813,0,1.627h3.544V3.879A1.315,1.315,0,0,0-33.751,3.944Zm-15.583,6.284c0,.1-.005.2,0,.3v.084a.316.316,0,0,0,.042.248c.091,0,.181,0,.272,0h16.667a.281.281,0,0,0,.226-.042c0-.1.005-.2,0-.3,0-.028,0-.055,0-.084a.316.316,0,0,0-.042-.248c-.091,0-.181,0-.272,0H-49.109A.281.281,0,0,0-49.335,10.229Z" transform="translate(58.449 8.596)" fill="#fff"/>
    <path id="Path_3199" data-name="Path 3199" d="M-11.381-.043h2.69c.2,0,.2,0,.29.067a.444.444,0,0,1,.066.223l.011.1.011.1a2.557,2.557,0,0,0,.9,1.711A2.615,2.615,0,0,0-5.633,2.7a2.583,2.583,0,0,0,1.661-.849A2.934,2.934,0,0,0-3.384.343l.011-.1.009-.087a.256.256,0,0,1,.131-.187,2.664,2.664,0,0,1,.306-.014h2.69c.2,0,.2,0,.29.065A.98.98,0,0,1,.1.535l0,.125a.834.834,0,0,1-.166.6.882.882,0,0,1-.512.2,1.1,1.1,0,0,0-.77.427,1.09,1.09,0,0,0-.147.748,1.771,1.771,0,0,0,.4.655.858.858,0,0,1,.046.288l0,.093a.931.931,0,0,1-.337.549l-.063.063-.131.131-.2.2-.128.127-.06.06a.724.724,0,0,1-.543.241.817.817,0,0,1-.544-.24.989.989,0,0,0-.786-.2.987.987,0,0,0-.654.462,1.463,1.463,0,0,0-.145.521.723.723,0,0,1-.187.438.906.906,0,0,1-.614.167h-.312c-.107,0-.214,0-.321,0h-.3a.8.8,0,0,1-.517-.168.882.882,0,0,1-.2-.512,1.1,1.1,0,0,0-.427-.77A1.026,1.026,0,0,0-8.24,4.6a1.6,1.6,0,0,0-.617.343.462.462,0,0,1-.329.093l-.1,0A.922.922,0,0,1-9.849,4.7l-.063-.063-.131-.131-.2-.2-.127-.128-.06-.06a.7.7,0,0,1-.237-.55.583.583,0,0,1,.161-.427,1.135,1.135,0,0,0,.278-.9A.987.987,0,0,0-10.69,1.6a1.464,1.464,0,0,0-.521-.145.679.679,0,0,1-.517-.292,1.183,1.183,0,0,1-.085-.624V.408c0-.3,0-.3.054-.385A.607.607,0,0,1-11.381-.043Zm.137.531V.858c.062.062.146.055.23.068a1.585,1.585,0,0,1,1.064.567,1.655,1.655,0,0,1,.276,1.238,1.4,1.4,0,0,1-.38.731c-.054.051-.054.051-.042.119a1.445,1.445,0,0,0,.374.443c.057.057.114.116.171.174l.109.109.1.1c.083.077.083.077.172.063a.928.928,0,0,0,.2-.136,1.522,1.522,0,0,1,1.084-.3,1.587,1.587,0,0,1,1.043.573,1.7,1.7,0,0,1,.3.879c.011.11.011.11.131.172a1.511,1.511,0,0,0,.249.01h.746a.247.247,0,0,0,.223-.083c.021-.092.036-.181.048-.275a1.5,1.5,0,0,1,.55-.983,1.655,1.655,0,0,1,1.238-.276,1.4,1.4,0,0,1,.731.38c.051.054.051.054.119.042A1.445,1.445,0,0,0-2.061,4.1c.057-.057.116-.114.174-.171l.109-.109.1-.1c.077-.083.077-.083.063-.172a.927.927,0,0,0-.136-.2,1.521,1.521,0,0,1-.3-1.084,1.587,1.587,0,0,1,.573-1.043A1.785,1.785,0,0,1-.6.908C-.5.9-.5.9-.465.858V.488H-2.827l-.111.591a3.044,3.044,0,0,1-1.5,1.845,3.116,3.116,0,0,1-1.2.333l-.1,0A3.169,3.169,0,0,1-8.013,2.39a3.188,3.188,0,0,1-.868-1.9Z" transform="translate(23.57 20.551)" fill="#fff"/>
    <path id="Path_3200" data-name="Path 3200" d="M-12.546-.037h1.1c.2,0,.4,0,.6,0h1.076A.386.386,0,0,1-9.45.074a.939.939,0,0,1-.01.687,1.859,1.859,0,0,1-.526.813l-.055.054a1.812,1.812,0,0,1-1.157.438,1.909,1.909,0,0,1-1.3-.528A2.208,2.208,0,0,1-13.027.268C-12.987-.015-12.794-.04-12.546-.037Zm.124.541a1.419,1.419,0,0,0,.748.916,1.344,1.344,0,0,0,1.007-.037A1.34,1.34,0,0,0-9.987.541V.5Z" transform="translate(28.92 20.536)" fill="#fff"/>
    <path id="Path_3201" data-name="Path 3201" d="M-16.345-.162h.285l.294,0h.188l.088,0A.62.62,0,0,1-15.034,0,.9.9,0,0,1-14.988.4V.5q0,.105,0,.21c0,.107,0,.214,0,.321q0,.1,0,.2l0,.1a.56.56,0,0,1-.088.361c-.195.183-.521.121-.776.123l-.209,0-.3,0-.094,0a.526.526,0,0,1-.378-.108.638.638,0,0,1-.137-.511V1.12q0-.094,0-.188c0-.1,0-.191,0-.287q0-.092,0-.183l0-.086a.6.6,0,0,1,.165-.452A.7.7,0,0,1-16.345-.162ZM-16.4.4v.849h.849V.4Z" transform="translate(35.148 14.213)" fill="#fff"/>
    <path id="Path_3202" data-name="Path 3202" d="M-16.207-.156h.279l.288,0h.27a.6.6,0,0,1,.477.185.83.83,0,0,1,.061.409V.526q0,.1,0,.2c0,.1,0,.2,0,.3q0,.1,0,.193v.091A.629.629,0,0,1-15,1.771a.872.872,0,0,1-.4.044h-.3l-.313,0H-16.3a.575.575,0,0,1-.429-.124.722.722,0,0,1-.088-.469V1.133q0-.1,0-.2c0-.1,0-.2,0-.3q0-.1,0-.193l0-.091a.518.518,0,0,1,.109-.37A.632.632,0,0,1-16.207-.156ZM-16.252.4v.849h.849V.4Z" transform="translate(30.904 14.212)" fill="#fff"/>
    <path id="Path_3203" data-name="Path 3203" d="M-15.324-.232h.286l.3,0h.189l.089,0a.6.6,0,0,1,.459.165A.857.857,0,0,1-13.922.4V.488q0,.088,0,.177c0,.09,0,.18,0,.27q0,.086,0,.172v.081a.622.622,0,0,1-.16.482.756.756,0,0,1-.443.083h-.3c-.1,0-.207,0-.31,0h-.291a.554.554,0,0,1-.352-.091c-.187-.2-.122-.535-.124-.793q0-.107,0-.215c0-.1,0-.207,0-.31l0-.1A.455.455,0,0,1-15.8-.113.668.668,0,0,1-15.324-.232Zm-.011.563V1.18h.849V.331Z" transform="translate(38.218 14.285)" fill="#fff"/>
  </g>
</svg>
