<svg id="knowledge_1" xmlns="http://www.w3.org/2000/svg" width="23.626" height="22.849" viewBox="0 0 23.626 22.849">
  <path id="Path_2071" data-name="Path 2071" d="M359.592-477.62a1.715,1.715,0,0,0-1.119.967,1.8,1.8,0,0,0,0,1.384,1.888,1.888,0,0,0,.864.864,1.321,1.321,0,0,0,.7.133,1.234,1.234,0,0,0,.707-.142,1.775,1.775,0,0,0,.84-.844,1.243,1.243,0,0,0,.142-.707,1.288,1.288,0,0,0-.128-.7,1.86,1.86,0,0,0-.849-.854A1.927,1.927,0,0,0,359.592-477.62Z" transform="translate(-341.526 477.668)" fill="#aa00d2"/>
  <path id="Path_2072" data-name="Path 2072" d="M84.913-471.585a9.155,9.155,0,0,0-2.843.864,11.5,11.5,0,0,0-3.3,2.43l-.668.677-.034-.329a.955.955,0,0,0-.113-.412.285.285,0,0,0-.432.025c-.064.1-.069.2,0,.869.083.933.059.9.741.859.786-.049,1.065-.1,1.139-.2a.288.288,0,0,0-.034-.393c-.083-.074-.147-.083-.447-.054l-.349.029.26-.3a15.005,15.005,0,0,1,1.566-1.458A9.2,9.2,0,0,1,85.109-471a13,13,0,0,1,2.577.074c.412.069.579.044.633-.093.1-.275-.039-.4-.569-.5A17.772,17.772,0,0,0,84.913-471.585Z" transform="translate(-74.451 471.912)" fill="#aa00d2"/>
  <path id="Path_2073" data-name="Path 2073" d="M326.65-394.8a2.048,2.048,0,0,0-1.438,1.1,4.439,4.439,0,0,0-.211,1.846v.923h6.633l-.015-1.242c-.015-1.213-.015-1.242-.142-1.507a2.026,2.026,0,0,0-1.492-1.129A31.441,31.441,0,0,0,326.65-394.8Z" transform="translate(-309.825 398.917)" fill="#aa00d2"/>
  <path id="Path_2074" data-name="Path 2074" d="M16.114-342.921a.3.3,0,0,0-.029.432c.069.069.594.078,5.047.078,4.757,0,4.978,0,5.052-.088a.278.278,0,0,0-.015-.4c-.1-.1-.162-.1-5.022-.1C16.772-343,16.212-342.99,16.114-342.921Z" transform="translate(-16.002 349.612)" fill="#aa00d2"/>
  <path id="Path_2075" data-name="Path 2075" d="M16.021-302.922c-.142.1-.152.388-.015.461.064.029.977.049,2.627.049,2.779,0,2.681.01,2.681-.295s.034-.295-2.7-.295A11.044,11.044,0,0,0,16.021-302.922Z" transform="translate(-15.908 311.575)" fill="#aa00d2"/>
  <path id="Path_2076" data-name="Path 2076" d="M151.156-302.9a.275.275,0,0,0-.01.408c.083.074.275.083,1.738.083,1.532,0,1.65,0,1.723-.088a.278.278,0,0,0-.015-.4c-.093-.093-.162-.1-1.718-.1S151.249-303,151.156-302.9Z" transform="translate(-144.426 311.575)" fill="#aa00d2"/>
  <path id="Path_2077" data-name="Path 2077" d="M288.156-282.906a.275.275,0,0,0-.01.408c.083.079.506.083,5.037.083,3.314,0,4.978-.015,5.042-.049s.093-.1.093-.221c0-.339.329-.319-5.14-.319C288.318-283,288.254-283,288.156-282.906Z" transform="translate(-274.7 292.561)" fill="#aa00d2"/>
  <path id="Path_2078" data-name="Path 2078" d="M16.021-262.921c-.142.1-.152.388-.015.462.064.034,1.728.049,5.052.049,4.738,0,4.959,0,5.032-.088a.278.278,0,0,0-.015-.4c-.1-.1-.162-.1-5.022-.1C16.679-263,16.119-262.99,16.021-262.921Z" transform="translate(-15.908 273.539)" fill="#aa00d2"/>
  <path id="Path_2079" data-name="Path 2079" d="M288.271-242.705a.287.287,0,0,0-.108.471c.083.074.275.083,1.738.083,1.532,0,1.65,0,1.723-.088a.286.286,0,0,0,.015-.383c-.069-.088-.147-.093-1.684-.1C289.072-242.73,288.311-242.72,288.271-242.705Z" transform="translate(-274.717 254.26)" fill="#aa00d2"/>
  <path id="Path_2080" data-name="Path 2080" d="M387.114-242.922a.3.3,0,0,0-.029.432,10.67,10.67,0,0,0,2.641.079,18.84,18.84,0,0,0,2.622-.059.366.366,0,0,0,.059-.216c0-.319.059-.314-2.7-.314A11.042,11.042,0,0,0,387.114-242.922Z" transform="translate(-368.787 254.521)" fill="#aa00d2"/>
  <path id="Path_2081" data-name="Path 2081" d="M16.035-222.811a.353.353,0,0,0-.049.457c.044.044,1.046.059,4.212.059,3.967,0,4.163,0,4.237-.088a.286.286,0,0,0,.015-.383c-.069-.088-.177-.093-4.188-.108C16.585-222.884,16.138-222.879,16.035-222.811Z" transform="translate(-15.923 235.387)" fill="#aa00d2"/>
  <path id="Path_2082" data-name="Path 2082" d="M288.271-202.888a.286.286,0,0,0-.108.471c.083.079.506.083,5.076.083,5.484,0,5.121.02,5.086-.3a.238.238,0,0,0-.137-.221c-.1-.049-1.168-.064-4.983-.059C290.53-202.917,288.311-202.9,288.271-202.888Z" transform="translate(-274.717 216.407)" fill="#aa00d2"/>
  <path id="Path_2083" data-name="Path 2083" d="M96.388-183.7a1.713,1.713,0,0,0-.894,2.558,1.618,1.618,0,0,0,1.429.766,1.557,1.557,0,0,0,1.247-.56,1.518,1.518,0,0,0,.447-1.178,1.223,1.223,0,0,0-.162-.7,1.789,1.789,0,0,0-.835-.825A2.037,2.037,0,0,0,96.388-183.7Z" transform="translate(-91.322 198.2)" fill="#aa00d2"/>
  <path id="Path_2084" data-name="Path 2084" d="M330.641-162.873a.282.282,0,0,0-.137.417l.079.123h3.972c4.365,0,4.1.02,4.07-.3a.238.238,0,0,0-.138-.221,37.091,37.091,0,0,0-3.928-.059C332.4-162.917,330.705-162.9,330.641-162.873Z" transform="translate(-315.015 178.371)" fill="#aa00d2"/>
  <path id="Path_2085" data-name="Path 2085" d="M237.781-115.831c-.491.049-.678.083-.751.147a.254.254,0,0,0,.029.407c.1.079.177.093.452.074l.334-.02-.786.776a10.85,10.85,0,0,1-2.244,1.792,8.743,8.743,0,0,1-5.994,1.139c-.55-.079-.579-.079-.673,0a.282.282,0,0,0-.034.388c.088.118.55.206,1.493.28a9.15,9.15,0,0,0,5.484-1.281,12.364,12.364,0,0,0,2.4-1.9l.815-.8.034.285c.02.157.044.324.054.373a.3.3,0,0,0,.344.162c.206-.054.226-.167.162-.948-.054-.643-.074-.736-.172-.835a.355.355,0,0,0-.2-.108C238.473-115.9,238.139-115.866,237.781-115.831Z" transform="translate(-217.638 133.661)" fill="#aa00d2"/>
  <path id="Path_2086" data-name="Path 2086" d="M63.473-100.7a1.98,1.98,0,0,0-1.424,1.625c-.025.182-.049.761-.049,1.276v.948h6.633l-.015-1.242L68.6-99.335l-.162-.324a2.129,2.129,0,0,0-1.021-.972c-.285-.118-.314-.123-1.983-.133A9.348,9.348,0,0,0,63.473-100.7Z" transform="translate(-59.737 119.271)" fill="#aa00d2"/>
</svg>
