<svg xmlns="http://www.w3.org/2000/svg" width="14.079" height="14.071" viewBox="0 0 14.079 14.071">
  <g id="training" transform="translate(-7.85 503.962)">
    <path id="Path_3206" data-name="Path 3206" d="M8.308-503.926a.9.9,0,0,0-.42.434c-.051.17-.051,11.6,0,11.768a.843.843,0,0,0,.437.437,6.455,6.455,0,0,0,.959.034h.84v-.454H8.447l-.068-.071-.071-.068v-10.3H21.472v10.3l-.071.068-.068.071H19.657v.454H20.5c.99,0,1.038-.008,1.234-.227a.775.775,0,0,0,.156-.25c.048-.162.048-11.6,0-11.757a.775.775,0,0,0-.156-.25c-.224-.25.44-.227-6.857-.224C10.246-503.958,8.379-503.949,8.308-503.926Zm13.093.488c.068.065.071.082.071.454v.383H8.308v-.383c0-.372,0-.389.071-.454l.068-.071H21.333Z" transform="translate(0 0)" fill="#fff"/>
    <path id="Path_3207" data-name="Path 3207" d="M400-479.773v.227h.454V-480H400Z" transform="translate(-381.024 -23.282)" fill="#fff"/>
    <path id="Path_3208" data-name="Path 3208" d="M432-479.773v.227h.454V-480H432Z" transform="translate(-412.116 -23.282)" fill="#fff"/>
    <path id="Path_3209" data-name="Path 3209" d="M464-479.773v.227h.454V-480H464Z" transform="translate(-443.208 -23.282)" fill="#fff"/>
    <path id="Path_3210" data-name="Path 3210" d="M304.071-415.929l-.071.068v1.748c0,.959.009,1.745.017,1.745s.111-.04.227-.088l.21-.088v-3h.454l.006,1.387.009,1.387.221-.128.218-.128v-2.834l-.071-.068c-.068-.071-.074-.071-.61-.071S304.139-416,304.071-415.929Z" transform="translate(-287.748 -85.467)" fill="#fff"/>
    <path id="Path_3211" data-name="Path 3211" d="M232.071-375.929l-.071.068v1.492c0,.82.009,1.49.023,1.49s.113-.02.227-.048l.2-.048v-2.57h.454v2.44l.079-.017c.043-.011.142-.043.218-.068l.142-.048.008-1.311.006-1.311-.068-.068c-.071-.071-.074-.071-.613-.071S232.139-376,232.071-375.929Z" transform="translate(-217.791 -124.332)" fill="#fff"/>
    <path id="Path_3212" data-name="Path 3212" d="M96.909-351.636c-.289.054-.528.1-.531.1a4.1,4.1,0,0,0,.088.437,2.481,2.481,0,0,0,.428-.065c.085-.02-.326.36-.653.6-1.651,1.24-4.52,2.048-7.836,2.21l-.406.02v.445h.165c.218,0,1.024-.051,1.41-.085a16.272,16.272,0,0,0,5.745-1.492,7.69,7.69,0,0,0,1.762-1.2l.148-.128-.02.193c-.014.145-.011.19.017.193s.122.009.23.023c.128.014.19.011.19-.009s.026-.267.057-.556c.071-.658.071-.641-.014-.723S97.555-351.758,96.909-351.636Z" transform="translate(-77.876 -147.91)" fill="#fff"/>
    <path id="Path_3213" data-name="Path 3213" d="M160.071-335.929l-.071.068v1.109c0,1.044,0,1.109.051,1.1a2.278,2.278,0,0,1,.227-.031l.176-.02v-1.839h.454v.88a5.745,5.745,0,0,0,.028.88c.014,0,.116-.014.227-.034l.2-.034v-2.006l-.071-.068c-.068-.071-.074-.071-.61-.071S160.139-336,160.071-335.929Z" transform="translate(-147.833 -163.197)" fill="#fff"/>
    <path id="Path_3214" data-name="Path 3214" d="M115.656-207.718a1.141,1.141,0,0,0-.752,1.4,1.256,1.256,0,0,0,.346.548q.123.068-.043.094a1.417,1.417,0,0,0-.888.709l-.091.182-.207-.1-.207-.1.1-.1a.866.866,0,0,0,.247-.641.79.79,0,0,0-.264-.633.759.759,0,0,0-.633-.247.69.69,0,0,0-.409.085.907.907,0,0,0-.23,1.441l.1.1-.156.065a1.18,1.18,0,0,0-.556.559l-.091.193-.008.857-.009.86.071.071.071.071h1.067c.942,0,1.064.006,1.064.043a.215.215,0,0,0,.071.113l.068.071h3.353l.068-.071a.215.215,0,0,0,.071-.113c0-.037.122-.043,1.064-.043h1.067l.071-.071.071-.071-.009-.86-.009-.857-.091-.193a1.18,1.18,0,0,0-.556-.559l-.156-.065.1-.1a.864.864,0,0,0,.25-.644.79.79,0,0,0-.264-.633.759.759,0,0,0-.633-.247.69.69,0,0,0-.409.085.908.908,0,0,0-.233,1.438l.094.094-.21.1-.21.1-.043-.1a1.694,1.694,0,0,0-.38-.516,1.592,1.592,0,0,0-.542-.272c-.119-.02-.136-.051-.051-.1a1.256,1.256,0,0,0,.346-.548,1.129,1.129,0,0,0-.593-1.331.823.823,0,0,0-.445-.1A1.218,1.218,0,0,0,115.656-207.718Zm.542.448a.843.843,0,0,1,.437.437.621.621,0,0,1-.179.678.613.613,0,0,1-.936,0,.613.613,0,0,1,0-.936A.626.626,0,0,1,116.2-207.27Zm-2.755,1.141a.44.44,0,0,1,.133.726.42.42,0,0,1-.627,0A.448.448,0,0,1,113.443-206.129Zm5.447,0a.44.44,0,0,1,.133.726.42.42,0,0,1-.627,0A.448.448,0,0,1,118.891-206.129Zm-2.08.948a.882.882,0,0,1,.428.409l.1.179.009,1.027.009,1.03h-2.729l.009-1.03.009-1.027.071-.142a.958.958,0,0,1,.61-.5c.048-.011.372-.02.723-.017C116.644-205.247,116.692-205.241,116.811-205.181Zm-3.109.636a.842.842,0,0,1,.437.437,4.24,4.24,0,0,1,.034.732v.613h-1.816v-.613a4.242,4.242,0,0,1,.034-.732.9.9,0,0,1,.42-.434A3.122,3.122,0,0,1,113.7-204.546Zm5.447,0a.843.843,0,0,1,.437.437,4.242,4.242,0,0,1,.034.732v.613H117.8v-.613a4.242,4.242,0,0,1,.034-.732.9.9,0,0,1,.42-.434A3.122,3.122,0,0,1,119.149-204.546Z" transform="translate(-101.098 -287.808)" fill="#fff"/>
  </g>
</svg>
