<svg xmlns="http://www.w3.org/2000/svg" width="8.577" height="9.35" viewBox="0 0 8.577 9.35">
  <g id="receipt-_4_" transform="translate(-47.874 485.138)">
    <path id="Path_3901" data-name="Path 3901" d="M48.784-485.1a1.251,1.251,0,0,0-.878.913c-.043.206-.041,6.974,0,7.181a1.065,1.065,0,0,0,.33.581,1.115,1.115,0,0,0,.845.361,1.939,1.939,0,0,0,.775-.2c.55-.2.5-.206,1.235.126.8.361.765.348,1.061.35s.3,0,1.072-.346c.748-.338.693-.332,1.245-.13a1.939,1.939,0,0,0,.775.2,1.194,1.194,0,0,0,.546-.128,1.4,1.4,0,0,0,.534-.54c.132-.276.126-.078.126-3.858,0-2.385-.006-3.481-.023-3.566a1.251,1.251,0,0,0-.894-.946C55.354-485.149,48.959-485.149,48.784-485.1Zm6.69.676a.666.666,0,0,1,.179.136c.148.175.138-.1.138,3.689s.01,3.514-.138,3.689a.54.54,0,0,1-.4.185,1.862,1.862,0,0,1-.548-.155,1.874,1.874,0,0,0-.849-.186,2.982,2.982,0,0,0-.948.352c-.793.359-.69.359-1.484,0a2.965,2.965,0,0,0-.948-.352,1.865,1.865,0,0,0-.845.186,1.9,1.9,0,0,1-.552.155.54.54,0,0,1-.4-.185c-.148-.175-.138.1-.138-3.689s-.01-3.514.138-3.689a.666.666,0,0,1,.179-.136l.105-.049h6.41Z" transform="translate(0 0)" fill="#ff5700"/>
    <path id="Path_3902" data-name="Path 3902" d="M133.583-378.905a.4.4,0,0,0-.225.264.364.364,0,0,0,.153.326l.07.047h2.3a22.025,22.025,0,0,0,2.356-.031.348.348,0,0,0,.167-.377.382.382,0,0,0-.231-.231C138.078-378.934,133.674-378.932,133.583-378.905Z" transform="translate(-83.719 -104.022)" fill="#ff5700"/>
    <path id="Path_3903" data-name="Path 3903" d="M133.511-292.953a.364.364,0,0,0-.153.326.384.384,0,0,0,.233.266c.1.027,4.481.029,4.578,0a.382.382,0,0,0,.231-.231.348.348,0,0,0-.167-.377,22.013,22.013,0,0,0-2.356-.031h-2.3Z" transform="translate(-83.719 -188.178)" fill="#ff5700"/>
    <path id="Path_3904" data-name="Path 3904" d="M133.762-207.953a.326.326,0,0,0,.01.573c.078.039.117.039,1.274.035s1.2-.006,1.251-.049a.291.291,0,0,0,.142-.276.291.291,0,0,0-.142-.276c-.056-.043-.08-.043-1.255-.047l-1.2-.006Z" transform="translate(-83.956 -271.426)" fill="#ff5700"/>
  </g>
</svg>
