<svg xmlns="http://www.w3.org/2000/svg" xmlns:xlink="http://www.w3.org/1999/xlink" width="250" height="250" viewBox="0 0 250 250">
  <defs>
    <clipPath id="clip-iPhone_14_Pro_Max_6">
      <rect width="250" height="250"/>
    </clipPath>
  </defs>
  <g id="iPhone_14_Pro_Max_6" data-name="iPhone 14 Pro Max – 6" clip-path="url(#clip-iPhone_14_Pro_Max_6)">
    <rect width="250" height="250" fill="#fff"/>
    <g id="Group_7448" data-name="Group 7448" transform="translate(-38.488 -544.359)">
      <path id="Path_213" data-name="Path 213" d="M82.869-440.2,49.7-424.552l-14.217-8.9C14.6-446.5,15.27-446.191,11.6-444.134a6.476,6.476,0,0,0-2.593,8.852c.76,1.52,2.951,3,19.314,13.234,14.53,9.031,18.867,11.534,20.342,11.713,2.146.224-.849,1.565,40.774-18.017,27.585-12.965,28.345-13.278,29.508-12.653.626.4,15.737,9.031,33.576,19.18,31.788,18.107,32.458,18.509,34.873,18.509s2.727-.179,13.412-6.8c6.036-3.711,11-6.706,11.043-6.662.045,0-.224,1.342-.536,2.951-1.3,5.991-.537,8.941,2.593,10.417,3.308,1.609,7.556.492,9.031-2.369,1.073-2.057,5.678-24.143,5.454-26.065a6.473,6.473,0,0,0-2.817-4.649c-1.386-.894-23.427-6.393-25.707-6.393a6.68,6.68,0,0,0-6.3,6.349c0,4.158,2.057,6.169,7.422,7.332,2.057.492,3.264.939,3.04,1.163s-4.113,2.682-8.629,5.5c-7.377,4.561-8.271,5.008-9.076,4.471-.536-.313-15.514-8.9-33.352-19.046-29.239-16.631-32.637-18.465-34.649-18.6C116.221-455.848,114.388-455.043,82.869-440.2Z" transform="translate(44.544 1035.726)" fill="#001e7f"/>
      <path id="Path_214" data-name="Path 214" d="M92.467-359.151a9.488,9.488,0,0,0-2.235,2.37l-.939,1.475-.134,58.881L89.069-237.5H70.738v-49.313c0-48.688,0-49.269-.894-50.744a7.075,7.075,0,0,0-2.906-2.37c-1.878-.849-2.951-.849-22.086-.76-19.493.134-20.119.179-21.326,1.073a12.183,12.183,0,0,0-2.146,2.146c-.939,1.207-.939,1.52-1.073,50.565l-.089,49.358-7.779.134c-8.673.134-9.165.313-11.356,3.532-2.012,2.906-.492,7.779,2.861,9.165,1.252.537,18.6.626,110.653.626,120.936,0,110.966.268,113.2-2.861,1.341-1.878,1.386-5.5.045-7.243-2.146-2.951-2.638-3.085-11.177-3.219l-7.779-.134-.089-45.781c-.134-45.424-.134-45.781-1.073-46.989a12.174,12.174,0,0,0-2.146-2.146c-1.207-.894-1.833-.939-21.639-1.073-22.8-.134-22.444-.179-24.545,3l-1.028,1.52V-237.5h-18.33l-.089-58.926c-.134-57.987-.134-58.925-1.028-60.356a8.864,8.864,0,0,0-2.28-2.37c-1.341-.8-2.414-.849-22.131-.849C94.836-360,93.674-359.955,92.467-359.151Zm33.71,67.108V-237.5H102.928V-346.587h23.248Zm-68.851,9.612V-237.5H33.63v-89.864h23.7Zm138.149,3.576V-237.5h-23.7v-82.71h23.7Z" transform="translate(48.984 982.798)" fill="#001e7f"/>
    </g>
  </g>
</svg>
