<svg xmlns="http://www.w3.org/2000/svg" xmlns:xlink="http://www.w3.org/1999/xlink" width="250" height="250" viewBox="0 0 250 250">
  <defs>
    <clipPath id="clip-Custom_Size_4">
      <rect width="250" height="250"/>
    </clipPath>
  </defs>
  <g id="Custom_Size_4" data-name="Custom Size – 4" clip-path="url(#clip-Custom_Size_4)">
    <rect width="250" height="250" fill="#fff"/>
    <g id="New_Orders" data-name="New Orders" transform="translate(20.877 19.752)">
      <path id="Path_256" data-name="Path 256" d="M179.236-491.6c-32.217,18.519-36.254,20.934-36.738,22.03-.7,1.538-.746,51.923-.043,53.459.571,1.273-1.58-.04,24.316,14.88,16.065,9.3,22.253,12.641,23.043,12.553,1.229-.175,44.418-24.972,46-26.379l.965-.876v-53.726l-.965-.876C234.145-472.069,190.56-497,189.551-497,189.067-497,184.415-494.583,179.236-491.6Zm15.319,5.09c1.8,1.051,3.072,2.06,2.853,2.238-.176.219-8.428,5.047-18.26,10.709L161.24-463.2l-3.951-2.238a38.959,38.959,0,0,1-4.125-2.588c-.088-.178,8.076-5.049,18.127-10.887,16.327-9.392,18.391-10.491,19.181-10C190.955-488.617,192.8-487.518,194.554-486.508Zm13.3,7.592a12.482,12.482,0,0,1,2.59,1.713c0,.262-35.377,20.85-36.3,21.112a15.8,15.8,0,0,1-3.117-1.448l-2.765-1.581,3.423-2.02c11.017-6.408,33.271-19.179,33.4-19.179C205.176-480.319,206.4-479.662,207.854-478.916Zm14.484,8.428,3.995,2.37-1.888,1.1c-14.7,8.514-34.762,20.059-34.938,20.059-.44,0-8.032-4.566-8.032-4.873,0-.133,4.389-2.81,9.788-5.881,5.356-3.118,13.387-7.77,17.864-10.358,4.477-2.634,8.339-4.741,8.647-4.785A28.1,28.1,0,0,1,222.338-470.488ZM153.6-459.517l3.951,2.283.219,9.656a80.194,80.194,0,0,0,.658,10.359,59.365,59.365,0,0,0,7.329,4.7c7.463,4.345,9.13,4.827,10.71,3.072.746-.788.878-1.842,1.054-8.515l.219-7.592,3.95,2.282,3.95,2.281.132,21.374.088,21.333-7.111-4.126c-3.95-2.282-12.246-7.066-18.434-10.622l-11.324-6.5v-21.2c0-11.631.132-21.154.351-21.154C149.522-461.84,151.452-460.786,153.6-459.517Zm76.153,18.874V-419.4L211.672-408.95c-9.963,5.7-18.259,10.488-18.434,10.574-.22.089-.352-9.391-.352-21.066v-21.244l18.347-10.577c10.051-5.836,18.347-10.622,18.435-10.622C229.712-461.885,229.756-452.319,229.756-440.643ZM170.5-444.023c0,3.207-.132,5.84-.308,5.84a15.283,15.283,0,0,1-2.765-1.449l-2.413-1.45-.132-5.968-.132-6.014,2.852,1.623,2.853,1.626Z" transform="translate(-87.017 497)" fill="#ed1c24" stroke="#ed1c24" stroke-width="0.2"/>
      <path id="Path_257" data-name="Path 257" d="M89.747-230.278c-5.223.833-9.832,3.028-26.6,12.729l-16.591,9.568-1.712-2.81c-2.5-4.213-6.364-6.1-10.271-5.048-1.712.483-11.851,5.969-14.572,7.9-1.887,1.361-3.248,4.433-3.2,7.374,0,2.327.483,3.2,16.547,31.645,11.28,20.015,16.986,29.715,18.04,30.637a9.415,9.415,0,0,0,7.242,2.238,29.288,29.288,0,0,0,6.672-2.939c9.349-5.224,10.885-6.583,11.763-10.446.527-2.326-.22-4.917-2.458-8.823a23.106,23.106,0,0,1-1.975-3.907,10.933,10.933,0,0,1,3.029-2.195l2.985-1.711,25.194,6.76c13.87,3.687,26.686,6.934,28.486,7.2a27.584,27.584,0,0,0,15.889-2.721c4.916-2.5,72.553-44.374,74.221-45.954,5.75-5.53,5.882-15.932.22-21.595-5.355-5.31-13.607-5.75-24.009-1.184-1.843.79-12.817,6.979-24.4,13.737-19.005,11.105-24.58,14.134-25.062,13.65a7.958,7.958,0,0,1,.7-2.413,14.435,14.435,0,0,0-4.916-16.284c-2.282-1.667-3.819-2.194-11.544-4.038-3.38-.791-10.4-2.9-15.582-4.7-18.084-6.188-19.488-6.583-22.6-6.847A31.535,31.535,0,0,0,89.747-230.278Zm13.387,9.086c14.7,5.134,22.385,7.592,27.652,8.866,8.6,2.107,8.866,2.15,10.359,3.423,3.731,3.16,3.2,9.569-.922,11.631-2.9,1.492-5.926,1.009-22.3-3.555a86.966,86.966,0,0,0-9.173-2.238c-2.677,0-4.3,3.732-2.37,5.663.878.877,1.4,1.053,13.519,4.389,20.059,5.486,28,5.88,36.079,1.8,1.361-.658,11.368-6.408,22.209-12.771,20.8-12.116,24.228-13.914,28.574-15.056,5.223-1.36,9.656-.439,11.675,2.371,1.712,2.414,1.712,7.593-.044,10.008-.658.922-48.5,30.812-70.271,43.848-5.486,3.335-10.315,4.477-15.318,3.687-1.58-.263-14.309-3.512-28.222-7.285-13.958-3.731-25.9-6.8-26.511-6.8a17.757,17.757,0,0,0-5.091,2.283c-3.336,1.888-3.994,2.15-4.477,1.624-.7-.745-18.259-31.865-18.259-32.348,0-.439,30.724-18.171,33.8-19.531a36.68,36.68,0,0,1,7.242-2.239C93.346-223.915,97.779-223.08,103.134-221.192ZM37.647-208.683c.614.527,31.822,55.259,32.48,57.1.22.528-.044,1.142-.7,1.755-1.185,1.23-11.324,6.892-12.246,6.892a1.979,1.979,0,0,1-1.273-.7c-.307-.352-7.725-13.343-16.459-28.793C26.762-194.858,23.6-200.74,23.865-201.485c.307-.834,11.368-7.638,12.6-7.681A2.477,2.477,0,0,1,37.647-208.683Z" transform="translate(-16.798 347.469)" fill="#ed1c24" stroke="#ed1c24" stroke-width="0.2"/>
      <path id="Path_258" data-name="Path 258" d="M49.975-166.333A3.513,3.513,0,0,0,48-162.822c0,2.194,2.107,4.126,4.126,3.732a4.322,4.322,0,0,0,3.336-3.775C55.462-165.412,52.126-167.519,49.975-166.333Z" transform="translate(-34.305 311.658)" fill="#ed1c24" stroke="#ed1c24" stroke-width="0.2"/>
    </g>
  </g>
</svg>
