<svg xmlns="http://www.w3.org/2000/svg" width="7.835" height="7.526" viewBox="0 0 7.835 7.526">
  <g id="clock" transform="translate(-0.182 501.767)">
    <path id="Path_1998" data-name="Path 1998" d="M4.238-501.746a.462.462,0,0,0-.247.153.514.514,0,0,0,.074.764.594.594,0,0,0,.13.072l.057.017v.389l-.11.028a3.21,3.21,0,0,0-1.107.542,4.233,4.233,0,0,0-.472.453l-.077.092-.587.008-.585.008-.04.037a.151.151,0,0,0,.032.245,3.4,3.4,0,0,0,.495.017c.253,0,.459,0,.459.006s-.037.077-.083.164-.1.219-.132.292L2-498.325H.272l-.04.034a.155.155,0,0,0-.031.19c.054.081.063.083.92.083h.79l-.009.034c-.011.041-.051.332-.064.459l-.008.089H1.479c-.383,0-.42.006-.455.084a.146.146,0,0,0,0,.138c.035.078.072.084.461.084h.358l.011.122a3.043,3.043,0,0,0,.08.447c0,.006-.216.012-.492.012-.541,0-.577,0-.628.083a.155.155,0,0,0,.031.19c.04.034.041.034.614.034h.574l.017.049a4.051,4.051,0,0,0,.257.5,3.084,3.084,0,0,0,1.263,1.132,3.073,3.073,0,0,0,2.374.145,4.5,4.5,0,0,0,.625-.3c.124-.08.147-.19.054-.268-.061-.052-.127-.049-.219.009a3.165,3.165,0,0,1-.585.274,2.8,2.8,0,0,1-2.447-.329,2.78,2.78,0,0,1-.959-3.507,2.781,2.781,0,0,1,1.977-1.534,1.908,1.908,0,0,1,.536-.041,1.921,1.921,0,0,1,.538.041,2.611,2.611,0,0,1,.711.248,2.546,2.546,0,0,1,.639.436,2.8,2.8,0,0,1,.511,3.465c-.084.144-.095.181-.07.242a.167.167,0,0,0,.216.075,1.205,1.205,0,0,0,.219-.349,3.094,3.094,0,0,0-.283-3.234,3.9,3.9,0,0,0-.534-.556,3.148,3.148,0,0,0-1.138-.58l-.133-.035v-.383l.086-.037a.547.547,0,0,0,.263-.259.529.529,0,0,0,0-.418.517.517,0,0,0-.254-.262l-.1-.051-.636,0A3.765,3.765,0,0,0,4.238-501.746Zm1.285.291a.257.257,0,0,1,.162.165.232.232,0,0,1-.072.2l-.046.044-.628,0c-.611,0-.631,0-.68-.028a.211.211,0,0,1-.064-.293c.069-.1.075-.106.709-.106C5.217-501.464,5.5-501.459,5.523-501.455Zm-.23.882v.158H4.559v-.314h.735Z" transform="translate(0 0)" fill="#fff"/>
    <path id="Path_1999" data-name="Path 1999" d="M157.489-366.958a2.48,2.48,0,0,0-.8.251,2.386,2.386,0,0,0-1.243,1.643,2.9,2.9,0,0,0,0,.928A2.387,2.387,0,0,0,156.5-362.6a2.371,2.371,0,0,0,2.557,0,2.387,2.387,0,0,0,1.051-1.534,2.9,2.9,0,0,0,0-.928,2.394,2.394,0,0,0-1.93-1.876A3.448,3.448,0,0,0,157.489-366.958Zm.62.319a2.07,2.07,0,0,1,1.717,1.746,2.46,2.46,0,0,1-.015.7,2.048,2.048,0,0,1-.574,1.057,2.009,2.009,0,0,1-1.047.568,2.433,2.433,0,0,1-.781.009,2.266,2.266,0,0,1-.807-.337,2.7,2.7,0,0,1-.277-.24,2.048,2.048,0,0,1-.574-1.057,2.46,2.46,0,0,1-.015-.7,2.077,2.077,0,0,1,1.707-1.746A2.7,2.7,0,0,1,158.109-366.64Z" transform="translate(-152.854 -132.734)" fill="#fff"/>
    <path id="Path_2000" data-name="Path 2000" d="M300.078-328.966c-.057.031-.077.084-.078.2s.026.181.087.208a.144.144,0,0,0,.141,0c.058-.031.078-.084.078-.217,0-.107,0-.119-.044-.161A.15.15,0,0,0,300.078-328.966Z" transform="translate(-295.227 -170.133)" fill="#fff"/>
    <path id="Path_2001" data-name="Path 2001" d="M258.807-292.537c-.025.012-.217.194-.427.4l-.381.383-.061-.021a.576.576,0,0,0-.3,0l-.054.02-.193-.19c-.178-.175-.2-.19-.25-.19a.132.132,0,0,0-.139.077c-.047.092-.037.113.168.32l.19.193-.021.075a.472.472,0,0,0,.1.458.469.469,0,0,0,.7,0,.472.472,0,0,0,.1-.458l-.023-.075.4-.4c.391-.392.4-.4.4-.462a.13.13,0,0,0-.04-.1.142.142,0,0,0-.061-.04.13.13,0,0,1-.04-.008A.143.143,0,0,0,258.807-292.537Zm-.9,1.1a.148.148,0,0,1,.023.2.168.168,0,0,1-.308-.1.172.172,0,0,1,.168-.155A.134.134,0,0,1,257.9-291.434Z" transform="translate(-252.862 -206.011)" fill="#fff"/>
    <path id="Path_2002" data-name="Path 2002" d="M193.29-221.963a.146.146,0,0,0,.011.228.392.392,0,0,0,.247.035.15.15,0,0,0,.089-.256c-.043-.043-.052-.044-.178-.044S193.324-222,193.29-221.963Z" transform="translate(-190.102 -275.482)" fill="#fff"/>
    <path id="Path_2003" data-name="Path 2003" d="M398.044-221.956a.131.131,0,0,0-.044.1c0,.121.069.167.242.158.106,0,.116-.009.158-.055a.133.133,0,0,0,.026-.164c-.028-.061-.087-.084-.219-.084C398.1-222,398.086-222,398.044-221.956Z" transform="translate(-391.726 -275.482)" fill="#fff"/>
    <path id="Path_2004" data-name="Path 2004" d="M300.112-124.466a.172.172,0,0,0-.074.052c-.034.041-.038.061-.038.168s0,.124.044.17a.14.14,0,0,0,.191.021c.054-.034.07-.081.07-.193a.444.444,0,0,0-.015-.129A.167.167,0,0,0,300.112-124.466Z" transform="translate(-295.227 -371.52)" fill="#fff"/>
    <path id="Path_2005" data-name="Path 2005" d="M.284-160.4a.147.147,0,0,0,.055.283.146.146,0,0,0,.09-.265A.133.133,0,0,0,.284-160.4Z" transform="translate(-0.009 -336.122)" fill="#fff"/>
    <path id="Path_2006" data-name="Path 2006" d="M436.018-86.029a.138.138,0,0,0,0,.2.105.105,0,0,0,.1.047.14.14,0,0,0,.147-.09A.149.149,0,0,0,436.018-86.029Z" transform="translate(-429.118 -409.326)" fill="#fff"/>
  </g>
</svg>
