<svg xmlns="http://www.w3.org/2000/svg" width="29.927" height="34.416" viewBox="0 0 29.927 34.416">
  <g id="feather" transform="translate(-41.194 502.852)">
    <path id="Path_3358" data-name="Path 3358" d="M43.948-502.785a3.326,3.326,0,0,0-1.764.927,3.123,3.123,0,0,0-.941,1.938c-.056.4-.063,4.8-.028,14.695.049,13.245.056,14.144.174,14.513a3.219,3.219,0,0,0,2.684,2.217c.376.049,4.677.07,13.21.056l12.652-.021.279-.153a1.875,1.875,0,0,0,.774-.788c.125-.23.132-.474.132-4.322,0-4.573.007-4.5-.5-4.956-.488-.425-.286-.411-5.354-.411-4.42,0-4.657.007-4.9.132a1.911,1.911,0,0,0-.767.739,5.391,5.391,0,0,0-.139,1.9l-.021,1.687H42.017V-497.7H64.045v17.574l.174.167c.209.216.279.216.488,0l.174-.167v-9.745c0-6.385-.028-9.9-.077-10.2a3.285,3.285,0,0,0-2.747-2.719C61.452-502.876,44.534-502.869,43.948-502.785Zm18.71.99a2.851,2.851,0,0,1,1.2,1.22,2.841,2.841,0,0,1,.174,1.178l.028.857H42l.028-.857a2.249,2.249,0,0,1,.216-1.234,2.562,2.562,0,0,1,1.478-1.3c.223-.07,2.21-.084,9.411-.077l9.132.014Zm.83,24.9c0,1.359.007,1.436.146,1.575.188.188.314.153,1.06-.286l.593-.349.676.4c.648.376.69.39.864.293l.181-.1.021-1.478.014-1.485,1.436.021,1.436.021.2.23.2.223v8.1l-.237.237-.237.237h-4.5c-4.984,0-4.8.014-5.019-.446-.1-.209-.112-.669-.112-4.085,0-4.2-.007-4.155.4-4.406.16-.1.39-.125,1.534-.125h1.338Zm2.788-.418v1.018l-.439-.251c-.481-.265-.641-.293-.85-.153-.077.049-.258.167-.4.251l-.265.16v-2.036h1.952Zm-6.831,5.521a11.9,11.9,0,0,0,.1,2.273l.1.258-7.926-.014-7.919-.021-.328-.153a2.621,2.621,0,0,1-1.213-1.227c-.2-.425-.2-.467-.223-1.778l-.021-1.338H59.445Z" transform="translate(0 0)" fill="#ed1c24"/>
    <path id="Path_3359" data-name="Path 3359" d="M182.107-471.888a.378.378,0,0,0,0,.613c.132.091.432.112,1.868.112,1.9,0,2.022-.028,2.022-.418s-.125-.418-2.022-.418C182.539-472,182.239-471.979,182.107-471.888Z" transform="translate(-130.944 -28.701)" fill="#ed1c24"/>
    <path id="Path_3360" data-name="Path 3360" d="M330.142-62.923a.5.5,0,0,0-.042.606,7.317,7.317,0,0,0,1.84.084c1.743,0,1.764,0,1.868-.153.146-.209.139-.307-.028-.474-.132-.132-.23-.139-1.826-.139A11.3,11.3,0,0,0,330.142-62.923Z" transform="translate(-268.69 -409.19)" fill="#ed1c24"/>
    <path id="Path_3361" data-name="Path 3361" d="M330.3-44.888a.306.306,0,0,0-.139.328c.035.328.23.4,1.206.4s1.171-.07,1.206-.4c.035-.369-.146-.439-1.206-.439C330.649-45,330.426-44.979,330.3-44.888Z" transform="translate(-268.821 -425.935)" fill="#ed1c24"/>
    <path id="Path_3362" data-name="Path 3362" d="M162.229-58.819c-.1.167-.1.2-.014.369l.1.181h6.469l.1-.181c.091-.167.091-.2-.014-.369L168.761-59h-6.413Z" transform="translate(-112.523 -412.911)" fill="#ed1c24"/>
    <path id="Path_3363" data-name="Path 3363" d="M79.058-398.833c-.551.335-.558.376-.558,2.593v1.952l.174.258a1.417,1.417,0,0,0,.425.39c.244.139.369.146,2.154.146s1.91-.007,2.154-.146a1.417,1.417,0,0,0,.425-.39l.174-.258v-1.952c0-1.9-.007-1.966-.153-2.2a1.388,1.388,0,0,0-.425-.4c-.265-.146-.342-.153-2.182-.153C79.35-399,79.337-399,79.058-398.833Zm4.036.711a14.074,14.074,0,0,1,0,3.75,13.556,13.556,0,0,1-3.681,0,14.074,14.074,0,0,1,0-3.75c.091-.1.356-.112,1.84-.112S83-398.219,83.094-398.122Z" transform="translate(-34.705 -96.612)" fill="#ed1c24"/>
    <path id="Path_3364" data-name="Path 3364" d="M99.935-373.442l-.572.558-.237-.244c-.293-.3-.572-.328-.739-.07a.461.461,0,0,0-.07.3,3.542,3.542,0,0,0,1.06.99,4.781,4.781,0,0,0,.92-.795c.69-.69.788-.816.746-.955a.447.447,0,0,0-.4-.342A2.62,2.62,0,0,0,99.935-373.442Z" transform="translate(-53.136 -119.869)" fill="#ed1c24"/>
    <path id="Path_3365" data-name="Path 3365" d="M192.239-384.861c-.167.167-.174.265-.028.474l.1.153h10.164l.1-.153c.146-.209.139-.307-.028-.474-.139-.139-.23-.139-5.158-.139S192.379-385,192.239-384.861Z" transform="translate(-140.393 -109.636)" fill="#ed1c24"/>
    <path id="Path_3366" data-name="Path 3366" d="M192.211-344.847c-.146.209-.139.307.028.474.132.132.23.139,3.3.139,3.43,0,3.465-.007,3.465-.383s.063-.383-3.451-.383h-3.234Z" transform="translate(-140.393 -146.848)" fill="#ed1c24"/>
    <path id="Path_3367" data-name="Path 3367" d="M78.8-303.919a1.191,1.191,0,0,0-.725.781A15.277,15.277,0,0,0,78-301.2c.007,2.091.07,2.321.732,2.621.244.112.481.132,2.056.132s1.812-.021,2.056-.132c.662-.3.725-.53.732-2.621a13.935,13.935,0,0,0-.077-1.952,1.253,1.253,0,0,0-.795-.795A20.813,20.813,0,0,0,78.8-303.919Zm3.855.816a19.679,19.679,0,0,1,0,3.736,19.68,19.68,0,0,1-3.736,0,19.679,19.679,0,0,1,0-3.736A19.68,19.68,0,0,1,82.657-303.1Z" transform="translate(-34.24 -184.966)" fill="#ed1c24"/>
    <path id="Path_3368" data-name="Path 3368" d="M99.976-278.449l-.572.551-.258-.237c-.369-.335-.669-.293-.788.1-.042.139.028.244.432.648a1.975,1.975,0,0,0,.62.481,9.544,9.544,0,0,0,1.7-1.652.684.684,0,0,0-.425-.439A2.625,2.625,0,0,0,99.976-278.449Z" transform="translate(-53.169 -208.247)" fill="#ed1c24"/>
    <path id="Path_3369" data-name="Path 3369" d="M192.211-288.847c-.146.209-.139.307.028.474.139.139.23.139,5.158.139s5.019,0,5.158-.139c.167-.167.174-.265.028-.474l-.1-.153H192.316Z" transform="translate(-140.393 -198.944)" fill="#ed1c24"/>
    <path id="Path_3370" data-name="Path 3370" d="M192.239-249.861c-.167.167-.174.265-.028.474l.1.153h3.269c3.165,0,3.276-.007,3.346-.132a.373.373,0,0,0-.084-.523c-.139-.1-.572-.112-3.311-.112C192.469-250,192.372-249.993,192.239-249.861Z" transform="translate(-140.393 -235.226)" fill="#ed1c24"/>
    <path id="Path_3371" data-name="Path 3371" d="M78.851-207.935a1.285,1.285,0,0,0-.662.774,12.545,12.545,0,0,0-.056,2.063l.021,1.785.188.279c.321.488.418.509,2.565.509s2.245-.021,2.565-.509l.188-.279.021-1.785a12.76,12.76,0,0,0-.056-2.07,1.316,1.316,0,0,0-.718-.788A23.172,23.172,0,0,0,78.851-207.935Zm3.855.781c.153.1.153.125.153,1.91,0,1.715-.007,1.812-.132,1.882a12.1,12.1,0,0,1-1.819.07,12.1,12.1,0,0,1-1.819-.07c-.125-.07-.132-.167-.132-1.882,0-1.785,0-1.805.153-1.91.132-.091.425-.112,1.8-.112S82.573-207.245,82.706-207.154Z" transform="translate(-34.359 -274.265)" fill="#ed1c24"/>
    <path id="Path_3372" data-name="Path 3372" d="M100.061-183.435l-.579.572-.286-.258c-.383-.342-.683-.314-.8.084-.035.125.035.244.425.641.293.307.523.488.62.488a8.6,8.6,0,0,0,1.708-1.666c0-.1-.314-.425-.425-.425A4.219,4.219,0,0,0,100.061-183.435Z" transform="translate(-53.205 -296.625)" fill="#ed1c24"/>
    <path id="Path_3373" data-name="Path 3373" d="M192.246-193.861a.327.327,0,0,0,.042.551c.181.146.237.146,5.131.146h4.942l.167-.174c.209-.2.216-.342.035-.523-.139-.139-.23-.139-5.158-.139S192.385-194,192.246-193.861Z" transform="translate(-140.4 -287.322)" fill="#ed1c24"/>
    <path id="Path_3374" data-name="Path 3374" d="M192.229-153.819c-.1.167-.1.2-.014.369l.1.181,3.228.021c2.935.014,3.248.007,3.367-.1a.36.36,0,0,0,0-.537c-.118-.1-.453-.118-3.346-.118h-3.221Z" transform="translate(-140.431 -324.533)" fill="#ed1c24"/>
  </g>
</svg>
