<svg xmlns="http://www.w3.org/2000/svg" width="21.258" height="21.258" viewBox="0 0 21.258 21.258">
  <g id="Icon_ionic-ios-checkbox-outline" data-name="Icon ionic-ios-checkbox-outline" transform="translate(-4.5 -4.5)">
    <path id="Path_1979" data-name="Path 1979" d="M23.986,4.5H6.271A1.77,1.77,0,0,0,4.5,6.271V23.986a1.77,1.77,0,0,0,1.771,1.771H23.986a1.77,1.77,0,0,0,1.771-1.771V6.271A1.77,1.77,0,0,0,23.986,4.5Zm.221,19.265a.444.444,0,0,1-.443.443H6.493a.444.444,0,0,1-.443-.443V6.493a.444.444,0,0,1,.443-.443H23.765a.444.444,0,0,1,.443.443Z"/>
    <path id="Path_1980" data-name="Path 1980" d="M22.363,13.275l-.974-1a.209.209,0,0,0-.155-.066h0a.2.2,0,0,0-.155.066l-6.754,6.8-2.458-2.458a.214.214,0,0,0-.31,0l-.985.985a.221.221,0,0,0,0,.316l3.1,3.1a.98.98,0,0,0,.648.316,1.027,1.027,0,0,0,.642-.3h.006l7.4-7.44A.237.237,0,0,0,22.363,13.275Z" transform="translate(-1.277 -1.639)"/>
  </g>
</svg>
