<svg xmlns="http://www.w3.org/2000/svg" width="19.805" height="19.797" viewBox="0 0 19.805 19.797">
  <g id="dashboard-_1_" transform="translate(-8 503.857)">
    <path id="Path_2820" data-name="Path 2820" d="M25.116-503.815a2.9,2.9,0,0,0-.523.192,2.227,2.227,0,0,0-1.222,1.674l-.048.324H8v12.782l4.805.008,4.8.012.028.26a5.212,5.212,0,0,0,.667,1.993,5.1,5.1,0,0,0,4.638,2.5,4.891,4.891,0,0,0,3.359-1.5,4.891,4.891,0,0,0,1.5-3.359,5.051,5.051,0,0,0-1.578-3.927l-.324-.308v-6.259l.22-.048a2.359,2.359,0,0,0,1.366-.991,2.237,2.237,0,0,0-.328-2.74A2.242,2.242,0,0,0,25.116-503.815Zm1.114.743a1.527,1.527,0,0,1,.775.759,1.1,1.1,0,0,1,.148.687,1.1,1.1,0,0,1-.148.687,1.535,1.535,0,0,1-.783.763,1.108,1.108,0,0,1-.647.128,1.1,1.1,0,0,1-.639-.124,1.536,1.536,0,0,1-.787-.767,1.074,1.074,0,0,1-.152-.683,1.114,1.114,0,0,1,.128-.651,1.543,1.543,0,0,1,.687-.743,1.366,1.366,0,0,1,.851-.192A1.3,1.3,0,0,1,26.231-503.072Zm-2.752,2.2a1.571,1.571,0,0,0,.164.348l.14.232-.971.971c-.783.787-.987.971-1.051.951a1.186,1.186,0,0,0-.6-.02l-.148.048-.324-.32c-.316-.316-.32-.32-.272-.447a.984.984,0,0,0-.915-1.238.874.874,0,0,0-.659.3.878.878,0,0,0-.256.939l.048.128-.795.795c-.639.639-.811.795-.875.775a.921.921,0,0,0-1,.236.873.873,0,0,0,0,1.322.873.873,0,0,0,1.322,0,.921.921,0,0,0,.236-1c-.02-.064.136-.236.775-.875l.795-.795.128.048a.953.953,0,0,0,.559,0c.128-.048.132-.044.447.276s.324.32.276.447a.984.984,0,0,0,.915,1.238.888.888,0,0,0,.663-.3.921.921,0,0,0,.236-1c-.02-.064.168-.268.951-1.051l.971-.971.232.14a2.383,2.383,0,0,0,.507.212l.276.068v2.912c0,1.6-.012,2.9-.028,2.9a5.418,5.418,0,0,0-1.809-.611A5.044,5.044,0,0,0,19.2-492.87l-.34.32v-1.406H16.948v3.835h.723l-.028.268a1.993,1.993,0,0,1-.04.32c-.012.04-.943.052-4.49.052H8.639v-11.5H23.451Zm-3.755,1.262a.311.311,0,0,1,.1.22.311.311,0,0,1-.1.22.311.311,0,0,1-.22.1.311.311,0,0,1-.22-.1.311.311,0,0,1-.1-.22.311.311,0,0,1,.1-.22.311.311,0,0,1,.22-.1A.311.311,0,0,1,19.724-499.609Zm1.917,1.917a.311.311,0,0,1,.1.22.311.311,0,0,1-.1.22.311.311,0,0,1-.22.1.311.311,0,0,1-.22-.1.311.311,0,0,1-.1-.22.311.311,0,0,1,.1-.22.311.311,0,0,1,.22-.1A.311.311,0,0,1,21.641-497.691Zm-4.793.959a.315.315,0,0,1-.22.539.337.337,0,0,1-.32-.32.337.337,0,0,1,.32-.32A.311.311,0,0,1,16.848-496.733Zm5.516,4.358c-.008.024-.108.056-.224.072a3.461,3.461,0,0,0-1.174.463,3.187,3.187,0,0,0-1.278,3.715.665.665,0,0,1,.064.288c-.016.012-.26.16-.547.324l-.519.3-.092-.2a4.427,4.427,0,0,1,.072-3.663,4.485,4.485,0,0,1,3.347-2.5l.348-.048.012.6A6.208,6.208,0,0,1,22.364-492.375Zm1.554-1.079a4.475,4.475,0,0,1,3.212,4.873,4.9,4.9,0,0,1-.324,1.166l-.092.2-.527-.3c-.288-.172-.535-.32-.547-.332a.638.638,0,0,1,.06-.24,3.17,3.17,0,0,0-.563-3.132,3.178,3.178,0,0,0-1.837-1.074l-.26-.048-.012-.639-.008-.643.268.036A5.35,5.35,0,0,1,23.918-493.453Zm-5.692.971v.831l-.156.336a3.216,3.216,0,0,0-.184.443c-.024.1-.048.112-.164.112h-.136v-2.556h.639Zm5.013.823a2.655,2.655,0,0,1,1.909,1.758,2.137,2.137,0,0,1,.088.759,1.89,1.89,0,0,1-.108.771,2.538,2.538,0,0,1-.631,1.007,2.622,2.622,0,0,1-1.059.651,2.137,2.137,0,0,1-.759.088,1.89,1.89,0,0,1-.771-.108,2.588,2.588,0,0,1-1.027-.651,2.507,2.507,0,0,1-.459-2.92A2.553,2.553,0,0,1,23.239-491.66Zm-2.852,4.674a3.141,3.141,0,0,0,2.88.963A3.167,3.167,0,0,0,25.028-487l.272-.288.535.308a4.432,4.432,0,0,1,.539.332,3.688,3.688,0,0,1-.955,1.023,4.742,4.742,0,0,1-1.9.867,7.019,7.019,0,0,1-1.638,0,4.653,4.653,0,0,1-2.369-1.278c-.3-.3-.515-.591-.475-.635.024-.02,1.035-.607,1.059-.611C20.1-487.286,20.231-487.15,20.387-486.986Z" fill="#fff"/>
    <path id="Path_2821" data-name="Path 2821" d="M40-415.68v.32h.639V-416H40Z" transform="translate(-30.722 -84.348)" fill="#fff"/>
    <path id="Path_2822" data-name="Path 2822" d="M72-415.68v.32h4.474V-416H72Z" transform="translate(-61.444 -84.348)" fill="#fff"/>
    <path id="Path_2823" data-name="Path 2823" d="M40-383.68v.32h.639V-384H40Z" transform="translate(-30.722 -115.069)" fill="#fff"/>
    <path id="Path_2824" data-name="Path 2824" d="M72-383.68v.32h4.474V-384H72Z" transform="translate(-61.444 -115.069)" fill="#fff"/>
    <path id="Path_2825" data-name="Path 2825" d="M40-351.68v.32h.639V-352H40Z" transform="translate(-30.722 -145.791)" fill="#fff"/>
    <path id="Path_2826" data-name="Path 2826" d="M72-351.68v.32h4.474V-352H72Z" transform="translate(-61.444 -145.791)" fill="#fff"/>
    <path id="Path_2827" data-name="Path 2827" d="M40-319.68v.32h.639V-320H40Z" transform="translate(-30.722 -176.513)" fill="#fff"/>
    <path id="Path_2828" data-name="Path 2828" d="M72-319.68v.32h4.474V-320H72Z" transform="translate(-61.444 -176.513)" fill="#fff"/>
    <path id="Path_2829" data-name="Path 2829" d="M168-285.444v2.556h1.917V-288H168Zm1.278,0v1.917h-.639v-3.835h.639Z" transform="translate(-153.609 -207.235)" fill="#fff"/>
    <path id="Path_2830" data-name="Path 2830" d="M40-238.4v1.6h1.917V-240H40Zm1.278,0v.959h-.639v-1.917h.639Z" transform="translate(-30.722 -253.317)" fill="#fff"/>
    <path id="Path_2831" data-name="Path 2831" d="M104-222.722v1.278h1.917V-224H104Zm1.278,0v.639h-.639v-1.278h.639Z" transform="translate(-92.165 -268.678)" fill="#fff"/>
    <path id="Path_2832" data-name="Path 2832" d="M329.509-183.9a1.935,1.935,0,0,0-1.382,2.313,1.929,1.929,0,0,0,2.317,1.4,1.924,1.924,0,0,0,1.4-2.309A1.929,1.929,0,0,0,329.509-183.9Zm1.079.739a1.141,1.141,0,0,1,.547.571.948.948,0,0,1,.1.543.884.884,0,0,1-.132.591,1.179,1.179,0,0,1-.579.559.948.948,0,0,1-.543.1.948.948,0,0,1-.543-.1,1.179,1.179,0,0,1-.579-.559.884.884,0,0,1-.132-.591,1.117,1.117,0,0,1,.355-.9A1.263,1.263,0,0,1,330.587-183.165Z" transform="translate(-307.284 -307.112)" fill="#fff"/>
  </g>
</svg>
