<svg xmlns="http://www.w3.org/2000/svg" width="19.066" height="19.063" viewBox="0 0 19.066 19.063">
  <g id="settings" transform="translate(0.478 0.685)">
    <path id="Path_2635" data-name="Path 2635" d="M-153.688-.156h.307l.315,0h.3a1.271,1.271,0,0,1,.823.274,1.343,1.343,0,0,1,.309,1.018.446.446,0,0,0,.211.319.678.678,0,0,0,.483.111,2.255,2.255,0,0,0,.22-.188c.074-.07.15-.133.23-.2l.068-.053a1,1,0,0,1,.532-.137l.117,0a1.819,1.819,0,0,1,.986.663c.072.073.146.146.219.218l.141.142.066.064a1.077,1.077,0,0,1,.339.794,1.153,1.153,0,0,1-.426.845.372.372,0,0,0-.145.33,1.1,1.1,0,0,0,.181.457.576.576,0,0,0,.376.091,1.236,1.236,0,0,1,.931.369,1.328,1.328,0,0,1,.224.846c0,.033,0,.066,0,.1q0,.1,0,.208c0,.105,0,.21,0,.315q0,.1,0,.2V6.72a1.2,1.2,0,0,1-.311.86,1.213,1.213,0,0,1-.778.242,1.094,1.094,0,0,0-.448.092.519.519,0,0,0-.107.2l-.046.105a.743.743,0,0,0-.033.332.444.444,0,0,0,.116.144A3.872,3.872,0,0,1-148.22,9l.053.069a1.162,1.162,0,0,1,.11.823,1.492,1.492,0,0,1-.441.591c-.078.08-.155.16-.232.241l-.175.18-.083.087a1.29,1.29,0,0,1-.881.466,1.012,1.012,0,0,1-.776-.332l-.08-.087a.437.437,0,0,0-.294-.166,1.224,1.224,0,0,0-.557.2.612.612,0,0,0-.048.275,1.383,1.383,0,0,1-.324.988.92.92,0,0,1-.581.229h-.584l-.376,0h-.353a1.037,1.037,0,0,1-.792-.319,1,1,0,0,1-.229-.771.763.763,0,0,0-.133-.447.72.72,0,0,0-.237-.111l-.126-.049a.338.338,0,0,0-.306.049.747.747,0,0,0-.118.121,1.191,1.191,0,0,1-.834.411,1.329,1.329,0,0,1-.952-.5c-.072-.071-.145-.14-.218-.21-.7-.677-.7-.677-.714-1.141a1.409,1.409,0,0,1,.569-1.017.873.873,0,0,0-.186-.669,1.1,1.1,0,0,0-.555-.092,1.1,1.1,0,0,1-.783-.391.8.8,0,0,1-.155-.51c0-.035,0-.069,0-.105s0-.075,0-.113,0-.077,0-.117q0-.123,0-.245t0-.25c0-.121,0-.242,0-.362,0-.037,0-.074,0-.112a1.011,1.011,0,0,1,.166-.6l.063-.1a1.27,1.27,0,0,1,.985-.322.478.478,0,0,0,.3-.087,1.249,1.249,0,0,0,.21-.532.9.9,0,0,0-.3-.4,1.033,1.033,0,0,1-.32-.727,1.705,1.705,0,0,1,.659-1.091c.065-.063.13-.128.194-.192.568-.562.568-.562,1.011-.575a1.067,1.067,0,0,1,.834.376l.081.088a.289.289,0,0,0,.244.115.885.885,0,0,0,.334-.086l.106-.044a.358.358,0,0,0,.163-.285c.007-.1.012-.194.014-.293a1.045,1.045,0,0,1,.172-.6l.063-.1A1.206,1.206,0,0,1-153.688-.156Zm-.451.788a.527.527,0,0,0-.052.234l-.008.1q-.008.1-.014.2a1.2,1.2,0,0,1-.261.681,1.7,1.7,0,0,1-1.226.386,1.1,1.1,0,0,1-.583-.366.691.691,0,0,0-.336-.215c-.307.059-.571.431-.785.646l-.1.1-.092.092-.083.083a.4.4,0,0,0-.148.3.727.727,0,0,0,.262.364,1.13,1.13,0,0,1,.337.818,1.7,1.7,0,0,1-.427.958,1.114,1.114,0,0,1-.808.253.776.776,0,0,0-.437.127.91.91,0,0,0-.046.41v.1q0,.106,0,.212c0,.108,0,.216,0,.324q0,.1,0,.206l0,.1a.5.5,0,0,0,.083.342.4.4,0,0,0,.248.078l.094.006.1,0a1.184,1.184,0,0,1,.822.288,1.621,1.621,0,0,1,.381,1.052,1.229,1.229,0,0,1-.453.784.513.513,0,0,0-.141.219.611.611,0,0,0,.252.463l.066.066.138.137c.071.07.14.14.21.211l.134.134.063.064a.514.514,0,0,0,.4.189,1.26,1.26,0,0,0,.348-.279.988.988,0,0,1,.682-.317,1.666,1.666,0,0,1,1.068.418,1.371,1.371,0,0,1,.247.883l.007.1,0,.086a.336.336,0,0,0,.17.228,1.706,1.706,0,0,0,.343.02h.311c.107,0,.215,0,.322,0h.3a.479.479,0,0,0,.339-.089.644.644,0,0,0,.1-.4,1.16,1.16,0,0,1,.26-.818,1.717,1.717,0,0,1,1.069-.427,1.308,1.308,0,0,1,.834.486.432.432,0,0,0,.318.109,2.051,2.051,0,0,0,.421-.338l.053-.054.111-.111.169-.17a1.107,1.107,0,0,0,.381-.5.594.594,0,0,0-.209-.343,1.182,1.182,0,0,1-.387-.916,1.648,1.648,0,0,1,.456-.968,1.776,1.776,0,0,1,.968-.217.343.343,0,0,0,.265-.169,1.25,1.25,0,0,0,.045-.408c0-.029,0-.058,0-.088q0-.092,0-.185c0-.094,0-.188,0-.282q0-.09,0-.18c0-.028,0-.056,0-.085a.584.584,0,0,0-.125-.408.7.7,0,0,0-.451-.086,1.12,1.12,0,0,1-.822-.318,1.675,1.675,0,0,1-.344-1.082,1.212,1.212,0,0,1,.436-.717.476.476,0,0,0,.161-.274c-.054-.315-.446-.591-.664-.808l-.1-.1-.1-.1-.088-.088a.347.347,0,0,0-.252-.117.408.408,0,0,0-.3.168,1.2,1.2,0,0,1-.943.417,1.5,1.5,0,0,1-.994-.5A1.2,1.2,0,0,1-152.3,1a.578.578,0,0,0-.127-.41.722.722,0,0,0-.448-.085h-.271l-.279,0h-.262A.766.766,0,0,0-154.139.631Z" transform="translate(159.141 5.806)" fill="#fff"/>
    <path id="Path_2636" data-name="Path 2636" d="M-165-.02h.488c.14,0,.28,0,.42,0h.481a1.214,1.214,0,0,1,.918.276,1.008,1.008,0,0,1,.28.75v.083c0,.086,0,.172,0,.259s0,.173,0,.259q0,.08,0,.161a.715.715,0,0,0,.086.393.72.72,0,0,0,.209.108l.128.054.134.054.132.057a1.156,1.156,0,0,0,.623.136.622.622,0,0,0,.186-.164l.1-.1.1-.11a1.558,1.558,0,0,1,1.136-.662,1.309,1.309,0,0,1,.849.507l.083.083.26.262.175.176.391.394.17.169a1.033,1.033,0,0,1,.341.724,1.481,1.481,0,0,1-.591,1.029l-.09.088-.181.177-.08.078a.328.328,0,0,0-.11.234,1.449,1.449,0,0,0,.153.479l.04.092.079.179c.023.053.045.107.064.161a.34.34,0,0,0,.162.226,1.323,1.323,0,0,0,.388.04l.166,0h.258a1.325,1.325,0,0,1,1,.277,1.259,1.259,0,0,1,.281,1q0,.079,0,.159,0,.166,0,.332c0,.141,0,.282,0,.422,0,.109,0,.218,0,.328q0,.078,0,.156a1.217,1.217,0,0,1-.273.921,1.065,1.065,0,0,1-.8.277l-.173,0h-.269l-.262,0h-.081a.424.424,0,0,0-.3.085,1.076,1.076,0,0,0-.138.246l-.038.093-.038.1-.039.1q-.053.13-.1.26l-.045.109a.476.476,0,0,0-.029.3,2.46,2.46,0,0,0,.395.427c.622.6.622.6.648,1.051a1.553,1.553,0,0,1-.627,1.055l-.094.1-.2.2-.3.3-.192.193-.089.091a1.216,1.216,0,0,1-.715.4l-.116,0h-.116a1.028,1.028,0,0,1-.634-.311l-.059-.056c-.071-.068-.141-.137-.21-.206l-.093-.091-.3-.3-.1-.1-.093-.093-.084-.083a.468.468,0,0,1-.148-.3c.024-.2.024-.2.1-.294a.743.743,0,0,1,.309-.077,1.507,1.507,0,0,1,.419.339l.066.066.207.21.208.21.129.131a.721.721,0,0,0,.372.254.4.4,0,0,0,.261-.135l.079-.072c.207-.192.409-.389.61-.588l.167-.162q.122-.118.242-.237l.076-.072a.49.49,0,0,0,.192-.347.349.349,0,0,0-.113-.247l-.071-.075-.229-.222c-.6-.584-.6-.584-.638-1.038a2.312,2.312,0,0,1,.29-.906c.05-.109.092-.22.135-.332a.983.983,0,0,1,.537-.577,1.386,1.386,0,0,1,.506-.071l.169,0,.266,0,.257,0h.08a.415.415,0,0,0,.287-.084.384.384,0,0,0,.087-.3V9.147c0-.071,0-.071,0-.143q0-.15,0-.3c0-.128,0-.257,0-.385s0-.245,0-.367c0-.069,0-.069,0-.14,0-.043,0-.085,0-.129s0-.075,0-.114c-.011-.1-.011-.1-.087-.162a.667.667,0,0,0-.352-.059h-.079l-.251,0c-.9,0-.9,0-1.219-.316a2.622,2.622,0,0,1-.339-.671l-.075-.192-.035-.092c-.03-.076-.063-.149-.1-.223a.955.955,0,0,1-.066-.376l0-.126a1.619,1.619,0,0,1,.607-.921l.213-.207.095-.091a.4.4,0,0,0,.132-.262.839.839,0,0,0-.329-.489l-.1-.1-.2-.2c-.1-.1-.2-.2-.306-.308l-.2-.195-.092-.094a.675.675,0,0,0-.393-.24.444.444,0,0,0-.264.137l-.075.072-.075.077-.074.075q-.149.153-.294.308a1.1,1.1,0,0,1-.8.388,2.266,2.266,0,0,1-.908-.288c-.11-.05-.222-.093-.334-.137a1.029,1.029,0,0,1-.6-.606,1.951,1.951,0,0,1-.045-.467q0-.082,0-.164,0-.128,0-.256c0-.083,0-.166,0-.249,0-.038,0-.038,0-.077a.424.424,0,0,0-.129-.348.542.542,0,0,0-.208-.019h-.713c-.128,0-.256,0-.385,0h-.75a.344.344,0,0,0-.248.168,1.7,1.7,0,0,0-.019.279v.082c0,.086,0,.173,0,.259,0,.885,0,.885-.278,1.178a4.019,4.019,0,0,1-1.084.516c-.055.022-.109.046-.162.071a1.042,1.042,0,0,1-.338.047l-.128,0a1.6,1.6,0,0,1-.924-.606l-.207-.213-.091-.095a.394.394,0,0,0-.262-.132c-.223.033-.327.169-.479.328l-.094.094c-.1.1-.2.2-.293.3l-.2.2q-.182.185-.363.37l-.073.076a.341.341,0,0,0-.1.242.392.392,0,0,0,.152.291l.093.1c.194.193.388.386.585.576l.163.159.1.094a.4.4,0,0,1,.111.276.487.487,0,0,1-.186.3.49.49,0,0,1-.223.037,1.74,1.74,0,0,1-.489-.363l-.062-.062-.129-.13-.2-.195c-.61-.608-.61-.608-.624-1.076l-.006-.119a1.547,1.547,0,0,1,.546-.873l.1-.1.261-.259.159-.159.307-.307.095-.1a1.227,1.227,0,0,1,.808-.426,1.452,1.452,0,0,1,1.03.567l.093.1.187.191.082.085a.291.291,0,0,0,.277.1,2.667,2.667,0,0,0,.794-.3l.1-.048a.393.393,0,0,0,.231-.175c0-.094.006-.186.007-.28q0-.086,0-.173,0-.136,0-.271a1.7,1.7,0,0,1,.253-1.032A1.3,1.3,0,0,1-165-.02Z" transform="translate(174.343 -0.664)" fill="#fff"/>
    <path id="Path_2637" data-name="Path 2637" d="M-123.448-17.416a2.852,2.852,0,0,1,1,1.846,3.232,3.232,0,0,1-.664,2.316,3.357,3.357,0,0,1-2.446.921,3.015,3.015,0,0,1-1.957-.989,3.041,3.041,0,0,1-.687-1.716l-.006-.081a2.817,2.817,0,0,1,.3-1.368l.055-.111a2.907,2.907,0,0,1,1.665-1.378c.107-.028.214-.051.323-.072l.125-.026A3.09,3.09,0,0,1-123.448-17.416Zm-3.567.78a2.337,2.337,0,0,0-.5,1.712,2.277,2.277,0,0,0,.816,1.447,2.338,2.338,0,0,0,.988.446l.091.015a2.381,2.381,0,0,0,1.73-.5,2.227,2.227,0,0,0,.78-1.486,2.171,2.171,0,0,0-.451-1.549c-.082-.094-.167-.183-.255-.272l-.061-.064a2.248,2.248,0,0,0-1.437-.547A2.351,2.351,0,0,0-127.015-16.635Z" transform="translate(131.199 27.235)" fill="#fff"/>
    <path id="Path_2638" data-name="Path 2638" d="M-145.291-22.806a4.278,4.278,0,0,1,1.554,2.754,4.434,4.434,0,0,1-.956,3.216c-.292.326-.292.326-.476.346a.429.429,0,0,1-.3-.16.468.468,0,0,1-.037-.3,1.768,1.768,0,0,1,.288-.374,3.291,3.291,0,0,0,.678-1.261l.038-.122a3.546,3.546,0,0,0-.37-2.6,3.593,3.593,0,0,0-1.773-1.467l-.086-.032a3.449,3.449,0,0,0-2.195-.01l-.074.024a3.23,3.23,0,0,0-1.221.761.467.467,0,0,1-.3.149c-.2-.024-.2-.024-.294-.1a.743.743,0,0,1-.077-.309c.217-.53.953-.862,1.449-1.078A4.207,4.207,0,0,1-145.291-22.806Z" transform="translate(157.869 27.435)" fill="#fff"/>
  </g>
</svg>
