<svg xmlns="http://www.w3.org/2000/svg" width="20.37" height="20.378" viewBox="0 0 20.37 20.378">
  <g id="information-desk" transform="translate(0.522 0.86)">
    <path id="Path_2757" data-name="Path 2757" d="M-394.642-18.472q.112.09.221.184l.119.1a4.192,4.192,0,0,1,1.389,2.76c.01.169.012.337.012.506,0,.048,0,.1,0,.144q0,.194,0,.387,0,.121,0,.243,0,.425,0,.851,0,.394,0,.788,0,.34,0,.681,0,.2,0,.4,0,.226,0,.452v.133a2.31,2.31,0,0,1-.378,1.247l.152.036a2.58,2.58,0,0,1,1.356.718l.07.068a1.935,1.935,0,0,1,.5,1.379c0,.036,0,.072,0,.109,0,.118,0,.236,0,.354q0,.124,0,.247,0,.324,0,.648t0,.662q0,.649,0,1.3l.132.034a.785.785,0,0,1,.408.323,1.212,1.212,0,0,1,.072.547c0,.041,0,.083,0,.126q0,.131,0,.263c0,.134,0,.267,0,.4q0,.128,0,.256c0,.04,0,.08,0,.121a.719.719,0,0,1-.18.551.584.584,0,0,1-.451.2h-.317l-.264,0v.085q0,.4.005.794,0,.2,0,.408c0,.156,0,.313,0,.469l0,.148V.787c0,.06,0,.06,0,.121a.248.248,0,0,1-.069.173.332.332,0,0,1-.243.062h-.093a.266.266,0,0,1-.2-.135,1,1,0,0,1-.014-.221c0-.045,0-.091,0-.137l0-.148c0-.05,0-.1,0-.152q0-.2,0-.4c0-.136,0-.271,0-.407q0-.4.006-.8h-.074l-.765.008-.286,0-.41,0-.129,0h-.226a.375.375,0,0,1-.253-.178.42.42,0,0,1,.062-.365.58.58,0,0,1,.4-.094h.4l.21,0,.553,0,.664,0,1.008-.006V-3.439H-410.3V-1.89h.563q2.552,0,5.1,0h.8l2.157,0,2.212,0h3.895a.3.3,0,0,1,.21.117.317.317,0,0,1,.061.251c-.048.175-.048.175-.156.253a1.061,1.061,0,0,1-.229.015h-3.584l-2.049,0-1.991,0h-.739l-5.107-.006v.085q0,.4.005.794,0,.2,0,.408c0,.156,0,.313,0,.469,0,.049,0,.1,0,.148V.787c0,.04,0,.08,0,.121a.248.248,0,0,1-.069.173.332.332,0,0,1-.243.062h-.093a.266.266,0,0,1-.2-.135,1,1,0,0,1-.014-.221c0-.045,0-.091,0-.137s0-.1,0-.148,0-.1,0-.152q0-.2,0-.4t0-.407q0-.4.006-.8l-.157.006-.206,0-.1,0a.668.668,0,0,1-.527-.173.606.606,0,0,1-.206-.457c0-.037,0-.075,0-.113s0-.081,0-.122,0-.083,0-.126q0-.132,0-.264c0-.134,0-.269,0-.4q0-.128,0-.257c0-.04,0-.08,0-.121a.871.871,0,0,1,.178-.6.971.971,0,0,1,.708-.2h.654l.545,0,0-.152q0-.1,0-.2l0-.1a1.171,1.171,0,0,1,.3-.875,1.062,1.062,0,0,1,.811-.261l.288,0v-.993l-.261,0-.856.006-.519,0-.5,0-.191,0c-.7.009-.7.009-.949-.234a.833.833,0,0,1-.187-.643c0-.034,0-.068,0-.1q0-.107,0-.215c0-.109,0-.219,0-.328q0-.1,0-.209l0-.1a.492.492,0,0,1,.091-.351.435.435,0,0,1,.365-.059.486.486,0,0,1,.159.159,1.835,1.835,0,0,1,.023.3l0,.087c0,.091,0,.183,0,.274s0,.183,0,.275q0,.085,0,.171a.584.584,0,0,0,.046.284l2.779.04c0-.721,0-.721-.011-1.442q0-.136,0-.272c0-.07,0-.07,0-.142a.866.866,0,0,1,.2-.68l.071-.058.071-.059a1.179,1.179,0,0,1,.692-.1l.248,0h.3a.7.7,0,0,1,.5.272l.059.071a.621.621,0,0,1,.092.4v.28c0,.044,0,.087,0,.132q0,.245,0,.489c0,.364,0,.729,0,1.1l2.779-.04a.521.521,0,0,0,.045-.275v-.126c0-.046,0-.091,0-.138s0-.1,0-.145q0-.2,0-.395t0-.413q0-.346,0-.693,0-.4,0-.8,0-.344,0-.688,0-.206,0-.411,0-.229,0-.458v-.264c0-.036,0-.072,0-.11a.217.217,0,0,0-.045-.166h-7.782a.63.63,0,0,0-.045.319c0,.05,0,.1,0,.153,0,.027,0,.054,0,.082,0,.113,0,.227,0,.34q0,.317,0,.633,0,.22,0,.441,0,.084,0,.168c0,.078,0,.157,0,.235,0,.045,0,.089,0,.135a.3.3,0,0,1-.117.21.316.316,0,0,1-.251.061c-.178-.049-.178-.049-.253-.156a1.466,1.466,0,0,1-.016-.269c0-.041,0-.041,0-.082,0-.09,0-.179,0-.269q0-.094,0-.187,0-.2,0-.393c0-.168,0-.335,0-.5q0-.194,0-.387,0-.093,0-.185c0-.087,0-.173,0-.26v-.149a.873.873,0,0,1,.417-.572.851.851,0,0,1,.4-.046h1.742l1.279,0,1.478,0,1.141,0h1.975a.759.759,0,0,1,.592.289,1.257,1.257,0,0,1,.181.76v.089q0,.144,0,.289,0,.1,0,.2,0,.264.005.528t.006.54q.006.529.01,1.057l.1-.033.128-.043.127-.043a4.462,4.462,0,0,1,.482-.119l-.033-.066c-.051-.1-.1-.207-.148-.311l-.052-.113a1.144,1.144,0,0,1-.09-.479c0-.065,0-.065,0-.132,0-.048,0-.1,0-.144s0-.1,0-.153q0-.251,0-.5v-.173q0-.408,0-.816,0-.469,0-.937,0-.364,0-.727,0-.216,0-.433a4.964,4.964,0,0,1,.308-2.118l.036-.084a4.3,4.3,0,0,1,2.294-2.182A4.271,4.271,0,0,1-394.642-18.472Zm-4.782.779-.1.089a3.594,3.594,0,0,0-.808,1.184l-.033.072a3.178,3.178,0,0,0-.227,1.285c0,.05,0,.1,0,.151q0,.2,0,.4,0,.17,0,.34,0,.4,0,.8t0,.823q0,.355,0,.711,0,.211,0,.423c0,.157,0,.314,0,.471,0,.046,0,.092,0,.139a1.152,1.152,0,0,0,.3.847.821.821,0,0,0,.323.2c.179-.024.355-.067.531-.107l.148-.031.143-.032.131-.028a.8.8,0,0,0,.318-.2.537.537,0,0,0,.04-.4,1.954,1.954,0,0,0-.316-.268,2.728,2.728,0,0,1-.995-1.757c0-.083-.005-.166-.006-.249,0-.049,0-.1,0-.15s0-.107,0-.161,0-.111,0-.166q0-.174,0-.347,0-.222,0-.444,0-.171,0-.343,0-.082,0-.164c0-.076,0-.153,0-.229,0-.043,0-.087,0-.132a.753.753,0,0,1,.089-.316,1.017,1.017,0,0,1,.608-.06,3.389,3.389,0,0,0,2.482-.732.709.709,0,0,1,.435-.174.732.732,0,0,1,.493.323,1.5,1.5,0,0,0,1.025.524l.228.012a.561.561,0,0,1,.447.226.94.94,0,0,1,.046.33c0,.043,0,.086,0,.131,0,.07,0,.07,0,.142,0,.049,0,.1,0,.147q0,.155,0,.309c0,.156,0,.312,0,.468a3.561,3.561,0,0,1-.687,2.482l-.092.127a1.67,1.67,0,0,1-.337.261.485.485,0,0,0-.24.272.5.5,0,0,0,.1.38,1.477,1.477,0,0,0,.607.212c.082.02.161.043.242.068a.728.728,0,0,0,.548.019,1.291,1.291,0,0,0,.445-.742c0-.066.005-.132.006-.2,0-.04,0-.08,0-.121s0-.087,0-.132,0-.093,0-.14q0-.23,0-.46,0-.08,0-.159,0-.374,0-.749,0-.43,0-.86,0-.334,0-.667,0-.2,0-.4a4.125,4.125,0,0,0-.848-2.9l-.072-.089a3.479,3.479,0,0,0-2.364-1.166A3.507,3.507,0,0,0-399.424-17.693Zm2.814,2.243a3.538,3.538,0,0,1-1.96.707l-.144.005-.149,0-.152.005-.369.012q-.006.427-.009.854,0,.145,0,.29a3.267,3.267,0,0,0,.171,1.437l.043.107a2.34,2.34,0,0,0,1.228,1.156,2.4,2.4,0,0,0,1.872-.046,3.551,3.551,0,0,0,.312-.184l.094-.06a2.416,2.416,0,0,0,.915-1.477,6.682,6.682,0,0,0,.032-1.175q0-.137,0-.274,0-.333-.006-.666l-.065-.013-.3-.06-.1-.02a2.1,2.1,0,0,1-1.117-.622C-396.452-15.589-396.488-15.552-396.61-15.449Zm-1.464,5.221-.018.077a1.01,1.01,0,0,1-.34.6,2.419,2.419,0,0,1-.357.159,1.5,1.5,0,0,0,.5.362l.085.042a2.649,2.649,0,0,0,2.044.1,1.575,1.575,0,0,0,.784-.509l-.078-.031a.977.977,0,0,1-.557-.525,1.854,1.854,0,0,1-.079-.278l-.086.016-.351.063-.134.025a3.657,3.657,0,0,1-1.163-.078A.655.655,0,0,0-398.074-10.228Zm-8.775.873c0,.115,0,.229,0,.343V-8.9q0,.18,0,.359,0,.124,0,.248,0,.327,0,.655t0,.667q0,.655,0,1.311h.953q0-.721,0-1.442,0-.335,0-.67t0-.646q0-.123,0-.247,0-.172,0-.345c0-.034,0-.069,0-.1a.36.36,0,0,0-.045-.279c-.064,0-.129-.005-.194-.005h-.6C-406.809-9.4-406.809-9.4-406.849-9.355Zm6.8.229-.1.022-.215.047-.325.07a2.09,2.09,0,0,0-1.07.426c0,.084-.007.168-.008.252,0,.052,0,.1,0,.158q0,.124,0,.248A1.8,1.8,0,0,1-402-6.9a.9.9,0,0,1-.325.2v1.588h1.707l.04-.4c.119-.159.119-.159.2-.18h.164c.077.021.077.021.2.18.013.472.026.943.04,1.429h5.8l.04-1.39c.079-.159.079-.159.159-.2a1.3,1.3,0,0,1,.278,0c.119.119.119.119.159.556h1.747q0-.462,0-.924,0-.157,0-.314,0-.226,0-.453c0-.046,0-.092,0-.14a2.09,2.09,0,0,0-.575-1.622,2.917,2.917,0,0,0-1.184-.447l-.318-.072-.2-.046-.1-.022a1.539,1.539,0,0,0-.491-.049.993.993,0,0,0-.159.2,3.519,3.519,0,0,1-2.662.843,2.566,2.566,0,0,1-.713-.168l-.123-.042a2.715,2.715,0,0,1-1.116-.774C-399.6-9.272-399.863-9.168-400.054-9.126Zm-5.207,2.471v.993l.278.012a1.176,1.176,0,0,1,.874.345,1.294,1.294,0,0,1,.211.657l0,.092.005.115.017.367h.913V-6.655Zm-2.9,1.747c-.13.23-.13.23-.079.834h3.732c.062-.629.062-.629-.159-.913a1.264,1.264,0,0,0-.421-.046h-1.053l-.569,0h-1.028A.591.591,0,0,0-408.159-4.908Zm5.836.4v.437h1.707v-.437Zm8.775,0v.437h1.747v-.437Z" transform="translate(410.438 18.375)" fill="#fff"/>
    <path id="Path_2758" data-name="Path 2758" d="M-7.382-.13a.722.722,0,0,1,.285.05.847.847,0,0,0,.6-.042c.281-.023.281-.023.417.062a.469.469,0,0,1,.06.375.891.891,0,0,1-.529.305A1.55,1.55,0,0,1-7.571.44.4.4,0,0,1-7.687.115C-7.572-.121-7.572-.121-7.382-.13Z" transform="translate(20.209 6.245)" fill="#fff"/>
    <path id="Path_2759" data-name="Path 2759" d="M-8.339,0a.453.453,0,0,1,.318.223A1.5,1.5,0,0,1-8,.6l0,.1a.525.525,0,0,1-.121.4.388.388,0,0,1-.224.1A.453.453,0,0,1-8.656.978,1.5,1.5,0,0,1-8.681.6l0-.1A.525.525,0,0,1-8.563.1.388.388,0,0,1-8.339,0Z" transform="translate(20.424 4.072)" fill="#fff"/>
    <path id="Path_2760" data-name="Path 2760" d="M-10.865-.189a.461.461,0,0,1,.2.159,1.768,1.768,0,0,1,.025.417l0,.114c0,.274,0,.274-.119.408a.448.448,0,0,1-.385.013A.365.365,0,0,1-11.3.684c-.006-.1-.009-.208-.01-.313l0-.085a.6.6,0,0,1,.132-.436A.5.5,0,0,1-10.865-.189Z" transform="translate(25.61 4.286)" fill="#fff"/>
  </g>
</svg>
