<svg xmlns="http://www.w3.org/2000/svg" width="18.584" height="13.009" viewBox="0 0 18.584 13.009">
  <path id="Icon_awesome-cloud-upload-alt" data-name="Icon awesome-cloud-upload-alt" d="M15.61,7.9a2.791,2.791,0,0,0-2.6-3.792,2.773,2.773,0,0,0-1.548.47A4.646,4.646,0,0,0,2.788,6.9c0,.078,0,.157.006.235a4.182,4.182,0,0,0,1.388,8.127H14.867A3.717,3.717,0,0,0,15.61,7.9ZM11.423,9.683h-1.9v3.252a.466.466,0,0,1-.465.465H7.666a.466.466,0,0,1-.465-.465V9.683H5.3a.464.464,0,0,1-.328-.793L8.035,5.83a.466.466,0,0,1,.656,0l3.061,3.061A.464.464,0,0,1,11.423,9.683Z" transform="translate(0 -2.25)" fill="#fff"/>
</svg>
