<svg id="trace_5_" data-name="trace (5)" xmlns="http://www.w3.org/2000/svg" width="20.89" height="20.844" viewBox="0 0 20.89 20.844">
  <path id="Path_2802" data-name="Path 2802" fill="#fff" fill-rule="evenodd"/>
  <path id="Path_2803" data-name="Path 2803" d="M10.409,1.325a.7.7,0,0,0-.265.162c-.126.126-.127.132-.148.638l-.02.51-.209.1-.209.1L9.236,2.5c-.539-.543-.732-.537-1.317.038-.41.4-.533.582-.534.776s.051.274.4.627l.308.313-.082.217-.082.217-.485.02a2.308,2.308,0,0,0-.574.071.61.61,0,0,0-.281.442l-.027.181H4.343c-1.467,0-2.255.015-2.331.043A18.841,18.841,0,0,0,.057,7.394C.009,7.5,0,8.286,0,12.118c0,4.511,0,4.6.082,4.753a.7.7,0,0,0,.259.264l.177.1H5.182v.206c0,.251.125.406.326.406s.326-.155.326-.406v-.206h.8l.069.194a3.01,3.01,0,0,0,1.143,1.39,2.463,2.463,0,0,0,1.3.366,2.341,2.341,0,0,0,1.342-.284,2.737,2.737,0,0,0,1.41-1.812,2.961,2.961,0,0,0-.078-1.457,2.771,2.771,0,0,0-1.933-1.775l-.3-.071v-.7a3.834,3.834,0,0,0-.046-.8A.332.332,0,0,0,9,12.234c-.048.068-.06.239-.06.824V13.8l-.273.054a3.037,3.037,0,0,0-1.225.633,2.819,2.819,0,0,0-.892,1.784l-.028.319-2.943-.01-2.943-.01-.01-4.446L.612,7.673l.828-.827.827-.828h4.3v.13a.74.74,0,0,0,.281.534,1.192,1.192,0,0,0,.588.071h.468L8,6.98l.092.228-.308.313a3.275,3.275,0,0,0-.353.4.545.545,0,0,0,.078.553,4.089,4.089,0,0,0,.859.829.646.646,0,0,0,.5,0c.067-.029.071.027.071.882,0,.739.011.93.06,1a.332.332,0,0,0,.546-.052,7.928,7.928,0,0,0,.046-1.28V8.675l.2.085.2.085v.481c0,.463,0,.486.11.612.173.206.311.242.91.242.582,0,.725-.035.9-.222.1-.1.1-.143.115-.614l.013-.5.224-.091.224-.091.313.308a3.275,3.275,0,0,0,.4.353c.269.137.561-.011,1.048-.529.515-.547.517-.735.016-1.249L13.942,7.2l.082-.216.082-.216.519-.02.519-.02.138-.151a.574.574,0,0,0,.165-.357l.027-.206h.237c.207,0,.247-.013.321-.108a.276.276,0,0,0-.016-.4c-.082-.082-.141-.1-.323-.1H15.47l-.028-.173a.553.553,0,0,0-.277-.44c-.109-.066-.206-.08-.587-.08h-.457l-.084-.189a1.128,1.128,0,0,1-.084-.236,1.879,1.879,0,0,1,.306-.351c.323-.321.412-.49.371-.707a2.422,2.422,0,0,0-.706-.864c-.457-.377-.616-.359-1.113.122l-.347.336-.214-.1-.214-.1V2.17c0-.416-.01-.478-.093-.6-.149-.221-.269-.258-.865-.268a4.389,4.389,0,0,0-.668.026m.2,1.1c0,.485,0,.489-.124.629a.844.844,0,0,1-.3.2c-.095.034-.266.1-.381.152-.328.143-.454.1-.858-.3l-.335-.327L8.468,2.9a1.866,1.866,0,0,0-.273.271l-.126.159.325.338c.421.439.436.5.231,1.016-.243.608-.352.683-.989.683h-.4l-.02.179a2.244,2.244,0,0,0,0,.384l.02.205.5.013c.616.016.631.027.874.616.227.55.217.6-.21,1.034-.276.283-.32.346-.285.411A2.281,2.281,0,0,0,8.6,8.67a2.442,2.442,0,0,0,.338-.307c.308-.31.51-.418.678-.362a2.92,2.92,0,0,1,.894.434c.094.112.1.149.1.6v.484l.221.028a1.632,1.632,0,0,0,.388,0l.167-.028V9.146c0-.646.065-.756.572-.968.626-.262.687-.251,1.152.2l.316.307.15-.122a2.224,2.224,0,0,0,.272-.272l.122-.151-.33-.338c-.426-.437-.439-.494-.234-1.014a1.543,1.543,0,0,1,.289-.515l.138-.133h.98V5.366h-.416c-.491,0-.713-.08-.822-.3a4.117,4.117,0,0,1-.313-.8c0-.171.1-.322.4-.625l.31-.313L13.848,3.2c-.065-.075-.188-.2-.273-.274l-.154-.139-.337.329c-.406.4-.532.44-.86.3-.115-.05-.285-.118-.379-.151-.36-.128-.461-.334-.461-.942V1.938h-.775v.488m-.111,1.2a2.224,2.224,0,0,0-1.578,1.53,2.613,2.613,0,0,0,0,1.148A2.228,2.228,0,0,0,10.465,7.84a2.735,2.735,0,0,0,1.125-.01,2.22,2.22,0,0,0,1.549-1.635,2.106,2.106,0,0,0-.217-1.43.3.3,0,0,0-.43,0c-.106.113-.11.207-.023.505a1.748,1.748,0,0,1-.078,1.123A1.525,1.525,0,0,1,9.51,6a1.559,1.559,0,0,1,.848-1.638,1.832,1.832,0,0,1,1.114-.082c.265.07.38.036.478-.137a.291.291,0,0,0-.1-.389,2.2,2.2,0,0,0-1.354-.12M10.816,4.8a.968.968,0,0,0-.667,1.361.931.931,0,0,0,.868.529.881.881,0,0,0,.759-.374.958.958,0,0,0-.96-1.516m.052.654a.317.317,0,0,0-.078.5.3.3,0,0,0,.493-.066.249.249,0,0,0-.06-.367.261.261,0,0,0-.355-.072m5.682.241a.36.36,0,0,0-.045.464.422.422,0,0,1,.06.216.318.318,0,0,0,.522.254c.163-.152.165-.425.005-.739-.141-.277-.345-.351-.542-.2m.2,1.434c-.154.088-.181.167-.182.534,0,.328.007.368.1.459a.311.311,0,0,0,.393.048c.12-.092.16-.226.16-.54,0-.29-.008-.32-.119-.431-.127-.127-.218-.145-.35-.07M2.484,8.3a.384.384,0,0,0-.116.159.316.316,0,0,0,.162.4c.141.071,4.368.076,4.5.005a.3.3,0,0,0,.091-.505l-.1-.1H4.786c-1.329,0-2.262.017-2.3.04m14.265.335c-.154.088-.181.167-.182.534,0,.328.007.368.1.459a.311.311,0,0,0,.393.048c.12-.092.16-.226.16-.54,0-.29-.008-.32-.119-.431-.127-.127-.218-.145-.35-.07M2.446,9.849a.411.411,0,0,0-.12.183.378.378,0,0,0,.19.307,22.805,22.805,0,0,0,2.3.045h2.2l.1-.1a.319.319,0,0,0,.022-.436l-.078-.1L4.816,9.74l-2.25-.011-.12.12m14.3.3c-.148.072-.185.2-.171.578l.013.354H14.953c-1.8,0-1.808,0-2,.258-.081.111-.084.165-.084,1.389,0,1.148.007,1.285.072,1.384.169.258.13.253,1.956.266l1.664.012v.568H14.929c-1.808,0-1.823,0-1.977.256-.075.123-.08.214-.08,1.4s.006,1.273.077,1.379c.157.232.159.233,1.961.233h1.654v.612H14.91c-1.8,0-1.805,0-1.958.233-.059.09-.079.217-.093.592-.016.441-.024.483-.109.538-.175.115-.161.477.02.534.063.02.075.086.088.5a1.245,1.245,0,0,0,.094.61c.162.271-.041.258,4,.246l3.657-.011.14-.152.14-.152v-1.3c0-1.4,0-1.417-.226-1.563-.113-.075-.208-.079-1.782-.079H17.218v-.612h.466c.455,0,.468,0,.551-.108a.285.285,0,0,0,0-.4l-.085-.108H13.5v-2h6.773v2h-.507c-.5,0-.508,0-.592.108a.275.275,0,0,0,0,.4l.085.108H19.9c.7,0,.823-.032.933-.243a5.191,5.191,0,0,0,.062-1.408V15.279l-.14-.152-.14-.152-1.7-.012-1.7-.012v-.569l1.6,0a13,13,0,0,0,1.743-.051.534.534,0,0,0,.235-.187c.092-.137.093-.153.093-1.433s0-1.3-.088-1.407c-.173-.22-.219-.225-1.981-.225H17.2l.014-.366c.014-.361.013-.368-.109-.49a.263.263,0,0,0-.359-.076M2.53,11.253a.316.316,0,0,0-.161.4.366.366,0,0,0,.123.16c.044.024.953.039,2.3.039H7.021l.1-.1a.3.3,0,0,0-.066-.493,41.7,41.7,0,0,0-4.526-.007M13.5,12.73v1h6.773v-2H13.5v1m.9-.2a.276.276,0,0,0,.016.4l.1.1h2.364c2.191,0,2.37-.005,2.45-.071a.305.305,0,0,0,.046-.429l-.088-.112h-4.8l-.085.108m-11.922.219a.328.328,0,0,0-.111.393c.1.219.088.217,2.413.218a12.291,12.291,0,0,0,2.27-.059.3.3,0,0,0,.066-.493l-.1-.1H4.786c-1.329,0-2.262.017-2.3.04M2.445,14.3c-.13.13-.143.192-.074.344.079.174.184.19,1.24.19s1.161-.016,1.24-.19c.069-.152.056-.214-.074-.344l-.119-.119H2.564l-.119.119m6.312.188A2.1,2.1,0,0,0,7.183,16.5a2.035,2.035,0,0,0,.674,1.507,1.91,1.91,0,0,0,1.4.547,2.063,2.063,0,0,0,1.814-3.034,2.449,2.449,0,0,0-.706-.768,2.237,2.237,0,0,0-1.613-.269m.905,1.681-.565.56-.4-.4c-.333-.332-.419-.4-.525-.4a.293.293,0,0,0-.316.3c0,.14.041.192.552.7.489.485.567.548.689.548s.209-.071.825-.683a6.552,6.552,0,0,0,.711-.775.344.344,0,0,0-.337-.418,4.081,4.081,0,0,0-.635.56m4.837.141a.317.317,0,0,0-.078.5l.1.1h2.345c1.289,0,2.374-.011,2.411-.025a.477.477,0,0,0,.185-.323.4.4,0,0,0-.119-.186l-.119-.119-2.319,0c-1.508,0-2.349.018-2.406.045M5.266,18.366c-.07.089-.085.165-.085.451,0,.31.01.353.1.443a.306.306,0,0,0,.452,0c.09-.09.1-.133.1-.443,0-.428-.076-.558-.326-.558a.255.255,0,0,0-.242.108M13.5,20.441v1h6.773v-2H13.5v1m-8.066-.672a.334.334,0,0,0-.2.362.905.905,0,0,0,.44.53.309.309,0,0,0,.428-.049c.159-.143.121-.277-.163-.569s-.365-.33-.508-.274M6.7,20.2a.332.332,0,0,0,.052.546,1.3,1.3,0,0,0,.383.046,1.3,1.3,0,0,0,.383-.046.332.332,0,0,0,.052-.546.9.9,0,0,0-.435-.06.9.9,0,0,0-.435.06m1.51,0a.332.332,0,0,0,.052.546,1.613,1.613,0,0,0,.766,0,.332.332,0,0,0,.052-.546.9.9,0,0,0-.435-.06.9.9,0,0,0-.435.06m1.51,0a.332.332,0,0,0,.052.546,1.613,1.613,0,0,0,.766,0,.332.332,0,0,0,.052-.546.9.9,0,0,0-.435-.06.9.9,0,0,0-.435.06m1.51,0a.332.332,0,0,0,.052.546,1.613,1.613,0,0,0,.766,0A.332.332,0,0,0,12.1,20.2a.9.9,0,0,0-.435-.06.9.9,0,0,0-.435.06m3.187.04a.313.313,0,0,0,.09.507c.069.031.8.045,2.406.045h2.306l.119-.119a.4.4,0,0,0,.119-.186.477.477,0,0,0-.185-.323c-.036-.014-1.121-.025-2.411-.025H14.521l-.1.1" transform="translate(0 -1.245)" fill="#fff" fill-rule="evenodd"/>
</svg>
