<svg xmlns="http://www.w3.org/2000/svg" width="11.685" height="9.071" viewBox="0 0 11.685 9.071">
  <g id="Group_15182" data-name="Group 15182" transform="translate(0)">
    <g id="Group_14879" data-name="Group 14879" transform="translate(3.551 0.188)">
      <path id="Path_2469" data-name="Path 2469" d="M368.889,215.1l.753-.26.695.553,1.925,1.055.963.469-.737.7s-2.259.638-2.846,1.482-.151,4.353-.151,4.353l-3.943-2.126-.05-1.783v-1.85l.142-.661.649-.495.866-.359.745-.586Z" transform="translate(-365.498 -214.837)" fill="#0c2695" opacity="0.12"/>
    </g>
    <g id="delivery" transform="translate(0)">
      <path id="Path_2489" data-name="Path 2489" d="M27.86-453.9c-1.1.6-2.02,1.121-2.048,1.155-.048.052-.053.08-.053.331v.272H23.039l-.066.066a.247.247,0,0,0-.043.278c.062.112.064.112,1.5.112H25.76v.822h-1.4l-.066.066a.247.247,0,0,0-.043.278c.057.1.116.112.833.112h.673v1.187h-.982c-1.066,0-1.08,0-1.137.126a.2.2,0,0,0,.05.253l.078.078h1.986l.009.285c.007.249.014.29.053.329.025.023.94.534,2.032,1.135a22.386,22.386,0,0,0,2.066,1.091,21.564,21.564,0,0,0,2.066-1.091c1.093-.6,2.006-1.109,2.032-1.135.043-.043.046-.075.046-.662v-.619l-.064-.055a.235.235,0,0,0-.306,0l-.064.055-.007.5-.007.5-1.591.874-1.735.952-.142.08,0-1.9.007-1.9.525-.292c.29-.16.532-.29.543-.29a3.45,3.45,0,0,1,.016.475,3.315,3.315,0,0,0,.025.546.234.234,0,0,0,.347.105,8.248,8.248,0,0,0,.895-.52A2.235,2.235,0,0,0,32.54-451v-.644l.523-.288c.288-.158.53-.288.536-.288s.014.253.014.566c0,.628,0,.641.151.7a.157.157,0,0,0,.155,0c.153-.064.151-.05.151-.945v-.808l-.062-.062c-.037-.034-.463-.281-.954-.55L31.067-454.4c-.621-.34-1.119-.6-1.153-.6S29.013-454.537,27.86-453.9Zm3.773.336c.931.509,1.7.934,1.712.943a4.141,4.141,0,0,1-.5.3c-.468.253-.52.278-.573.253s-1.308-.71-2.915-1.6a5.057,5.057,0,0,1-.457-.265,11.269,11.269,0,0,1,1.007-.559C29.926-454.5,30.7-454.08,31.634-453.569Zm-1.507.84c.938.514,1.705.94,1.705.947a1.06,1.06,0,0,1-.178.107l-.18.1-1.082-.6-1.714-.94c-.349-.192-.635-.352-.635-.361a2.021,2.021,0,0,1,.368-.2C28.417-453.667,29.191-453.245,30.127-452.729Zm-1.81-.062c.409.226,1.169.641,1.689.927s.956.527.966.536a11.1,11.1,0,0,1-1.057.6c-.016,0-3.419-1.863-3.442-1.883s1.034-.578,1.068-.58C27.559-453.2,27.908-453.014,28.317-452.79Zm-.379,1.5c.929.511,1.705.94,1.721.954a19.088,19.088,0,0,1,.023,1.911l-.007,1.883-.924-.509L27.022-448l-.806-.441v-1.89c0-1.039.007-1.888.014-1.888S27.007-451.8,27.938-451.288Zm4.145.31v.418l-.18.1a2.041,2.041,0,0,1-.194.1,3.185,3.185,0,0,1-.014-.406v-.406l.189-.105.194-.107S32.083-451.206,32.083-450.978Z" transform="translate(-22.384 455)" fill="#0c2695"/>
      <path id="Path_2490" data-name="Path 2490" d="M41-274.02a.224.224,0,0,0,.224.374.293.293,0,0,0,.116-.1.191.191,0,0,0-.041-.278A.2.2,0,0,0,41-274.02Z" transform="translate(-40.004 278.218)" fill="#0c2695"/>
      <path id="Path_2491" data-name="Path 2491" d="M492.209-255.95a.22.22,0,0,0,.073.374.141.141,0,0,0,.162-.007.216.216,0,0,0-.089-.418A.227.227,0,0,0,492.209-255.95Z" transform="translate(-480.901 260.543)" fill="#0c2695"/>
      <path id="Path_2492" data-name="Path 2492" d="M.223-201.968a.209.209,0,0,0-.039.347c.078.078.078.078.3.078.313,0,.4-.055.4-.24a.2.2,0,0,0-.066-.151C.75-202,.743-202,.513-202A.846.846,0,0,0,.223-201.968Z" transform="translate(-0.109 207.775)" fill="#0c2695"/>
    </g>
  </g>
</svg>
