<svg xmlns="http://www.w3.org/2000/svg" width="16.527" height="16.522" viewBox="0 0 16.527 16.522">
  <g id="sequence" transform="translate(-7.199 -7.215)">
    <path id="Path_3276" data-name="Path 3276" d="M-82.912-7.284c.081.055.158.113.234.174l.084.063a1.787,1.787,0,0,1,.587,1.1c0,.071,0,.141,0,.212,0,.023,0,.045,0,.069,0,.083,0,.167,0,.25l0,.567h1.6c-.005-.5-.005-.5-.012-1q0-.1,0-.19l0-.1a.833.833,0,0,1,.213-.61l.066-.054.065-.056a.917.917,0,0,1,.586-.124h1.21l.653,0h1.18a.841.841,0,0,1,.6.215l.054.066.056.065a.639.639,0,0,1,.122.4c0,.032,0,.063,0,.1s0,.066,0,.1v.093c0,.114,0,.227,0,.341,0,.254,0,.509,0,.771h1.6c-.005-.5-.005-.5-.012-1q0-.1,0-.19c0-.032,0-.065,0-.1a.833.833,0,0,1,.213-.61l.066-.054.065-.056a.917.917,0,0,1,.586-.124h1.21l.653,0h1.18a.841.841,0,0,1,.6.215l.054.066.056.065a.917.917,0,0,1,.124.586c0,.035,0,.071,0,.107q0,.175,0,.349,0,.122,0,.243,0,.255,0,.51,0,.326,0,.653,0,.251,0,.5,0,.12,0,.241c0,.112,0,.225,0,.337,0,.033,0,.066,0,.1a.841.841,0,0,1-.216.6l-.066.054-.065.056a.917.917,0,0,1-.586.124h-1.21l-.653,0h-1.18a.841.841,0,0,1-.6-.216l-.054-.066-.056-.065a.639.639,0,0,1-.122-.4c0-.032,0-.063,0-.1s0-.066,0-.1,0-.061,0-.093c0-.114,0-.227,0-.341,0-.254,0-.509,0-.771h-1.6c.005.5.005.5.012,1q0,.1,0,.19l0,.1a.833.833,0,0,1-.213.61l-.066.054-.065.056a.917.917,0,0,1-.586.124h-1.21l-.653,0h-1.18a.841.841,0,0,1-.6-.216l-.054-.066L-80.3-2.52a.639.639,0,0,1-.122-.4c0-.032,0-.063,0-.1v-.1c0-.031,0-.061,0-.093,0-.114,0-.227,0-.341,0-.254,0-.509,0-.771h-1.6V.467h1.6c-.005-.5-.005-.5-.012-1q0-.1,0-.19l0-.1a.833.833,0,0,1,.213-.61l.066-.054.065-.056a.917.917,0,0,1,.586-.124h1.21l.653,0h1.18a.841.841,0,0,1,.6.216l.054.066.056.065a.639.639,0,0,1,.122.4c0,.032,0,.063,0,.1s0,.066,0,.1v.093c0,.114,0,.227,0,.341,0,.254,0,.509,0,.771h1.6c-.005-.5-.005-.5-.012-1q0-.1,0-.19c0-.032,0-.065,0-.1a.833.833,0,0,1,.213-.61l.066-.054.065-.056a.917.917,0,0,1,.586-.124h1.21l.653,0h1.18a.841.841,0,0,1,.6.216l.054.066.056.065a.917.917,0,0,1,.124.586c0,.035,0,.071,0,.107q0,.175,0,.349,0,.122,0,.243,0,.255,0,.51,0,.326,0,.653,0,.251,0,.5,0,.12,0,.241c0,.112,0,.225,0,.337,0,.033,0,.066,0,.1a.841.841,0,0,1-.216.6l-.066.054-.065.056a.917.917,0,0,1-.586.124h-1.21l-.653,0h-1.18a.841.841,0,0,1-.6-.216l-.054-.066-.056-.065a.639.639,0,0,1-.122-.4c0-.032,0-.063,0-.1s0-.066,0-.1,0-.061,0-.093c0-.114,0-.227,0-.341,0-.254,0-.509,0-.771h-1.6c.005.5.005.5.012,1q0,.1,0,.19l0,.1a.833.833,0,0,1-.213.61l-.066.054-.065.056a.917.917,0,0,1-.586.124h-1.21l-.653,0h-1.18a.841.841,0,0,1-.6-.216l-.054-.066L-80.3,2.8a.639.639,0,0,1-.122-.4c0-.032,0-.063,0-.1V2.2c0-.031,0-.061,0-.093,0-.114,0-.227,0-.341,0-.254,0-.509,0-.771h-1.6V5.784h1.6c-.005-.5-.005-.5-.012-1q0-.1,0-.19l0-.1a.833.833,0,0,1,.213-.61l.066-.054.065-.056a.917.917,0,0,1,.586-.124h1.21l.653,0h1.18a.841.841,0,0,1,.6.216l.054.066.056.065a.639.639,0,0,1,.122.4c0,.032,0,.063,0,.1s0,.066,0,.1v.093c0,.114,0,.227,0,.341,0,.254,0,.509,0,.771h1.6c-.005-.5-.005-.5-.012-1q0-.1,0-.19c0-.032,0-.065,0-.1a.833.833,0,0,1,.213-.61l.066-.054.065-.056a.917.917,0,0,1,.586-.124h1.21l.653,0h1.18a.841.841,0,0,1,.6.216l.054.066.056.065a.917.917,0,0,1,.124.586c0,.035,0,.071,0,.107q0,.175,0,.349,0,.122,0,.243,0,.255,0,.51,0,.326,0,.653,0,.251,0,.5,0,.12,0,.241c0,.112,0,.225,0,.337,0,.033,0,.066,0,.1a.841.841,0,0,1-.216.6l-.066.054-.065.056a.917.917,0,0,1-.586.124h-1.21l-.653,0h-1.18a.841.841,0,0,1-.6-.216l-.054-.066-.056-.065a.639.639,0,0,1-.122-.4c0-.032,0-.063,0-.1s0-.066,0-.1,0-.061,0-.093c0-.114,0-.227,0-.341,0-.254,0-.509,0-.771h-1.6c.005.5.005.5.012,1q0,.1,0,.19l0,.1a.833.833,0,0,1-.213.61l-.066.054-.065.056a.917.917,0,0,1-.586.124h-1.21l-.653,0h-1.18a.841.841,0,0,1-.6-.216l-.054-.066-.056-.065a.639.639,0,0,1-.122-.4c0-.032,0-.063,0-.1v-.1c0-.031,0-.061,0-.093,0-.114,0-.227,0-.341,0-.254,0-.509,0-.771h-1.6v.4a1.914,1.914,0,0,1-.17.312l-.054.085-.115.178c-.059.091-.118.182-.175.274q-.116.184-.234.367t-.224.36l-.053.087q-.049.08-.1.161a.941.941,0,0,1-.507.437.97.97,0,0,1-.731-.133,4.51,4.51,0,0,1-.488-.71L-85,7.9l-.035-.057c-.12-.2-.243-.392-.367-.587l-.085-.135a1.127,1.127,0,0,0-.1-.143,1.2,1.2,0,0,1-.173-.784q0-.079,0-.157c0-.143,0-.287,0-.43s0-.31,0-.465q0-.455,0-.91,0-.37,0-.74c0-.035,0-.07,0-.106V3.172q0-1,0-2.008,0-.86,0-1.721,0-1,0-2,0-.107,0-.214c0-.053,0-.053,0-.106q0-.369,0-.738,0-.45,0-.9,0-.23,0-.459,0-.211,0-.421,0-.076,0-.151a1.9,1.9,0,0,1,.421-1.3l.063-.084A1.932,1.932,0,0,1-82.912-7.284Zm-2.02.847A1.746,1.746,0,0,0-85.2-5.382h2.659a1.59,1.59,0,0,0-.467-1.262,1.346,1.346,0,0,0-1-.313A1.333,1.333,0,0,0-84.931-6.437Zm5.111.091a.831.831,0,0,0-.076.475v.093q0,.153,0,.305,0,.106,0,.212,0,.223,0,.445,0,.285,0,.57,0,.219,0,.439,0,.105,0,.21,0,.147,0,.294v.087a.663.663,0,0,0,.113.425.831.831,0,0,0,.475.076h2.656a.663.663,0,0,0,.425-.113.831.831,0,0,0,.076-.475c0-.046,0-.046,0-.093q0-.153,0-.305,0-.106,0-.212,0-.223,0-.445,0-.285,0-.57,0-.219,0-.439,0-.105,0-.21,0-.147,0-.294v-.087a.663.663,0,0,0-.113-.425.831.831,0,0,0-.475-.076H-79.4A.663.663,0,0,0-79.82-6.345Zm6.38,0a.831.831,0,0,0-.076.475v.093q0,.153,0,.305,0,.106,0,.212,0,.223,0,.445,0,.285,0,.57,0,.219,0,.439,0,.105,0,.21c0,.1,0,.2,0,.294,0,.029,0,.058,0,.087a.663.663,0,0,0,.113.425.831.831,0,0,0,.475.076h2.656a.663.663,0,0,0,.425-.113.831.831,0,0,0,.076-.475c0-.046,0-.046,0-.093q0-.153,0-.305,0-.106,0-.212,0-.223,0-.445,0-.285,0-.57,0-.219,0-.439,0-.105,0-.21,0-.147,0-.294c0-.029,0-.058,0-.087a.663.663,0,0,0-.113-.425.831.831,0,0,0-.475-.076h-2.656A.663.663,0,0,0-73.439-6.345ZM-85.2-4.85V6.116a2.093,2.093,0,0,0,.532-.233V-4.85Zm1.063,0q-.008,2.052-.012,4.1,0,.242,0,.484c0,.032,0,.064,0,.1q0,.781,0,1.562,0,.8,0,1.6,0,.494,0,.989,0,.339,0,.678,0,.2,0,.391,0,.179,0,.358c0,.064,0,.127,0,.191a.547.547,0,0,0,.148.455c.037.031.075.061.115.089a.678.678,0,0,0,.3-.233,2.307,2.307,0,0,0,.02-.429q0-.067,0-.134c0-.122,0-.245,0-.367s0-.264,0-.4q0-.343,0-.686,0-.5,0-.992,0-.8,0-1.609,0-.782,0-1.563c0-.032,0-.064,0-.1q0-.242,0-.483,0-2.005-.008-4.01Zm1.063,0V5.884a1.3,1.3,0,0,0,.532.233V-4.85Zm3.257,3.822a.831.831,0,0,0-.076.475V-.46q0,.153,0,.305,0,.106,0,.212,0,.223,0,.445,0,.285,0,.57,0,.219,0,.439,0,.105,0,.21,0,.147,0,.294V2.1a.663.663,0,0,0,.113.425.831.831,0,0,0,.475.076h2.656a.663.663,0,0,0,.425-.113.831.831,0,0,0,.076-.475c0-.046,0-.046,0-.093q0-.153,0-.305,0-.106,0-.212,0-.223,0-.445,0-.285,0-.57,0-.219,0-.439,0-.105,0-.21,0-.147,0-.294V-.637a.663.663,0,0,0-.113-.425.831.831,0,0,0-.475-.076H-79.4A.663.663,0,0,0-79.82-1.028Zm6.38,0a.831.831,0,0,0-.076.475V-.46q0,.153,0,.305,0,.106,0,.212,0,.223,0,.445,0,.285,0,.57,0,.219,0,.439,0,.105,0,.21c0,.1,0,.2,0,.294,0,.029,0,.058,0,.087a.663.663,0,0,0,.113.425.831.831,0,0,0,.475.076h2.656a.663.663,0,0,0,.425-.113.831.831,0,0,0,.076-.475c0-.046,0-.046,0-.093q0-.153,0-.305,0-.106,0-.212,0-.223,0-.445,0-.285,0-.57,0-.219,0-.439,0-.105,0-.21,0-.147,0-.294c0-.029,0-.058,0-.087a.663.663,0,0,0-.113-.425.831.831,0,0,0-.475-.076h-2.656A.663.663,0,0,0-73.439-1.028Zm-6.38,5.317a.831.831,0,0,0-.076.475v.093q0,.153,0,.305,0,.106,0,.212,0,.223,0,.445,0,.285,0,.57,0,.219,0,.439,0,.105,0,.21,0,.147,0,.294V7.42a.663.663,0,0,0,.113.425.831.831,0,0,0,.475.076h2.656a.663.663,0,0,0,.425-.113.831.831,0,0,0,.076-.475c0-.046,0-.046,0-.093q0-.153,0-.305,0-.106,0-.212,0-.223,0-.445,0-.285,0-.57,0-.219,0-.439,0-.105,0-.21,0-.147,0-.294V4.68a.663.663,0,0,0-.113-.425.831.831,0,0,0-.475-.076H-79.4A.663.663,0,0,0-79.82,4.289Zm6.38,0a.831.831,0,0,0-.076.475v.093q0,.153,0,.305,0,.106,0,.212,0,.223,0,.445,0,.285,0,.57,0,.219,0,.439,0,.105,0,.21c0,.1,0,.2,0,.294,0,.029,0,.058,0,.087a.663.663,0,0,0,.113.425.831.831,0,0,0,.475.076h2.656a.663.663,0,0,0,.425-.113.831.831,0,0,0,.076-.475c0-.046,0-.046,0-.093q0-.153,0-.305,0-.106,0-.212,0-.223,0-.445,0-.285,0-.57,0-.219,0-.439,0-.105,0-.21,0-.147,0-.294c0-.029,0-.058,0-.087a.663.663,0,0,0-.113-.425.831.831,0,0,0-.475-.076h-2.656A.663.663,0,0,0-73.439,4.289ZM-84.665,6.474l-.072.036-.074.038-.075.038-.184.095c.182.322.379.633.577.945l.166.264.055.087.1.167.048.076.042.067a.434.434,0,0,0,.1.122.349.349,0,0,0,.2,0,2.246,2.246,0,0,0,.239-.331l.06-.1.063-.1.133-.214.068-.11q.165-.264.333-.526l.061-.1.14-.22a2.138,2.138,0,0,0-.332-.208l-.1-.055a.236.236,0,0,0-.228,0,.722.722,0,0,0-.122.112l-.067.068L-83.6,6.7l-.07.072-.171.176a.7.7,0,0,1-.244-.175l-.061-.063-.125-.132-.061-.063-.055-.058C-84.485,6.379-84.565,6.423-84.665,6.474Z" transform="translate(92.961 14.75)" fill="#fff"/>
    <path id="Path_3277" data-name="Path 3277" d="M-34.748-2.152a1.155,1.155,0,0,1,.4.434,1.043,1.043,0,0,1,.019.314H-34.9l-.066-.166a.44.44,0,0,0-.266-.033.307.307,0,0,0-.133.2q0,.07,0,.139l0,.127.092,0c.451-.013.451-.013.639.138a.828.828,0,0,1,.31.541.84.84,0,0,1-.206.688.873.873,0,0,1-.721.244.776.776,0,0,1-.565-.339.91.91,0,0,1-.126-.577v-.1q0-.1,0-.21c0-.106,0-.213,0-.319q0-.1,0-.2v-.1a.834.834,0,0,1,.215-.6l.066-.054.065-.056A.919.919,0,0,1-34.748-2.152ZM-35.306-.52a.307.307,0,0,0-.054.278.259.259,0,0,0,.133.133.307.307,0,0,0,.278-.054A.307.307,0,0,0-34.9-.441a.259.259,0,0,0-.133-.133A.307.307,0,0,0-35.306-.52Z" transform="translate(56.444 21.673)" fill="#fff"/>
    <path id="Path_3278" data-name="Path 3278" d="M-.156,0h1.6V.532H.376l.033.3L.531.86c.615.155.615.155.786.4a1.484,1.484,0,0,1,.089.171l.033.066c.006.1.009.191.01.287l0,.079a.785.785,0,0,1-.212.573l-.066.054-.065.056a.994.994,0,0,1-.7.114.884.884,0,0,1-.5-.4A.8.8,0,0,1-.16,1.834l0-.239H.376l.042.276a.274.274,0,0,0,.124.189A.34.34,0,0,0,.8,2.023a.432.432,0,0,0,.054-.351c-.125-.2-.427-.229-.642-.282L-.156,1.3Z" transform="translate(14.028 19.471)" fill="#fff"/>
    <path id="Path_3279" data-name="Path 3279" d="M-34.538-2.242a.939.939,0,0,1,.417.515c.01.087.015.168.017.255l0,.066a1.035,1.035,0,0,1-.385.72l-.18.175-.093.092-.227.22.864.033V.366h-1.6c0-.7,0-.7.091-.866A1.259,1.259,0,0,1-35.5-.612l.067-.063c.069-.065.141-.127.213-.188l.212-.194q.065-.06.132-.118a.538.538,0,0,0,.188-.243.452.452,0,0,0-.065-.242.44.44,0,0,0-.266-.033.272.272,0,0,0-.124.189l-.015.1-.027.177h-.532c-.021-.577-.021-.577.133-.764A.9.9,0,0,1-34.538-2.242Z" transform="translate(56.234 11.129)" fill="#fff"/>
    <path id="Path_3280" data-name="Path 3280" d="M0,0H.532V1.063h.532V0H1.6V2.659H1.063V1.6H0Z" transform="translate(20.519 14.154)" fill="#fff"/>
    <path id="Path_3281" data-name="Path 3281" d="M0-.352.353-.36l.1,0A.577.577,0,0,1,.93-.219a.826.826,0,0,1,.151.648V.561q0,.138,0,.276c0,.117,0,.235,0,.352s0,.225,0,.337v.127c0,.361,0,.361-.151.521a.69.69,0,0,1-.577.141l-.1,0L0,2.307V1.775H.532V1.244H0V.712H.532V.18H0Z" transform="translate(14.404 14.505)" fill="#fff"/>
    <path id="Path_3282" data-name="Path 3282" d="M-17.4,0h.7V2.659h-.532L-17.269.864l-.266.366A2.414,2.414,0,0,1-18,.93a1.453,1.453,0,0,1,.181-.341l.067-.1.07-.1.07-.1A1.817,1.817,0,0,1-17.4,0Z" transform="translate(31.905 8.837)" fill="#fff"/>
  </g>
</svg>
