<svg xmlns="http://www.w3.org/2000/svg" width="29.148" height="29.156" viewBox="0 0 29.148 29.156">
  <g id="eco-food" transform="translate(0.1 512)">
    <path id="Path_3873" data-name="Path 3873" d="M115.962-511.915c-.211.148-.262.484-.262,1.708a9.844,9.844,0,0,0,.33,2.87,5.325,5.325,0,0,0,3.957,4.083,8.8,8.8,0,0,0,3.878-.262,4.139,4.139,0,0,0,1.31-1.993,3.637,3.637,0,0,0-.028-2.078,4.4,4.4,0,0,0-1.025-1.663,4.024,4.024,0,0,0-2.864-1.384,16.491,16.491,0,0,1-3.667-.911c-.74-.251-1.384-.456-1.429-.456A.505.505,0,0,0,115.962-511.915Zm3.439,1.879a11.705,11.705,0,0,0,1.327.262,5.145,5.145,0,0,1,1.816.433,3.545,3.545,0,0,1,1.811,2.431,1.765,1.765,0,0,1,0,.911,3.229,3.229,0,0,1-.626,1.361l-.182.211-1.816-2.027c-1-1.11-1.907-2.1-2.01-2.192-.228-.194-.4-.211-.609-.046a.347.347,0,0,0-.148.307c0,.233.011.245,2.1,2.562l1.537,1.708-.353.046a7.938,7.938,0,0,1-2.175-.125c-1.742-.45-2.841-1.748-3.274-3.878a11.244,11.244,0,0,1-.2-2.426l.034-.4,1,.336C118.177-510.383,118.974-510.144,119.4-510.036Z" transform="translate(-109.206)" fill="#ed1c24"/>
    <path id="Path_3874" data-name="Path 3874" d="M281.13-407.491a10.677,10.677,0,0,0-3.109,1.053A3.843,3.843,0,0,0,276-403.027a2.767,2.767,0,0,0,1.293,2.579,1.9,1.9,0,0,0,1.2.251,4.047,4.047,0,0,0,3.581-1.8,3.158,3.158,0,0,0,.359-1.617,26.635,26.635,0,0,1,.347-2.836c.114-.6.114-.649.028-.78a.608.608,0,0,0-.239-.2A4.6,4.6,0,0,0,281.13-407.491Zm.712,1.036a20.619,20.619,0,0,0-.262,2.152c-.114,1.554-.188,1.816-.66,2.289a3.5,3.5,0,0,1-2.283.883c-.41.023-.586.017-.586-.028s.45-.689,1-1.458,1.019-1.452,1.053-1.526a.446.446,0,0,0-.524-.581c-.154.046-.353.3-1.253,1.554l-1.07,1.5L277.1-402a3.159,3.159,0,0,1-.137-1.685,3.137,3.137,0,0,1,1.423-1.936,7.894,7.894,0,0,1,3.268-1.014C281.876-406.637,281.876-406.637,281.842-406.454Z" transform="translate(-260.379 -98.531)" fill="#ed1c24"/>
    <path id="Path_3875" data-name="Path 3875" d="M.042-335.858l-.142.142.017,2.6.017,2.608.154.29a1.622,1.622,0,0,0,.814.826l.37.194v5.574c0,4.208.017,5.631.068,5.808a1.691,1.691,0,0,0,.877.877,1.3,1.3,0,0,0,1.406-.387,1.556,1.556,0,0,0,.313-.5c.051-.165.068-1.657.068-5.8V-329.2l.273-.125a1.7,1.7,0,0,0,.871-.82l.194-.359.017-2.608.017-2.6-.142-.142a.425.425,0,0,0-.632,0l-.142.137v2.91H3.094v-2.91l-.142-.137A.444.444,0,0,0,2.639-336a.444.444,0,0,0-.313.142l-.142.137v2.91H.817v-2.91l-.142-.137A.425.425,0,0,0,.042-335.858Zm4.407,4.578c-.011.524-.034.649-.137.78a.946.946,0,0,1-.706.416c-.564.091-.512-.524-.512,6.167v5.859l-.142.137a.418.418,0,0,1-.626,0l-.142-.137v-5.859c0-6.69.051-6.075-.512-6.167a.946.946,0,0,1-.706-.416c-.1-.131-.125-.256-.137-.78L.805-331.9H4.472Z" transform="translate(0 -165.979)" fill="#ed1c24"/>
    <path id="Path_3876" data-name="Path 3876" d="M418.272-335.733a2.331,2.331,0,0,0-1.088.729,4.03,4.03,0,0,0-1,2.608,4.042,4.042,0,0,0,1,3l.347.376v5.563c0,4.2.017,5.626.068,5.8a1.691,1.691,0,0,0,.877.877,1.3,1.3,0,0,0,1.406-.387,1.556,1.556,0,0,0,.313-.5c.051-.165.068-1.657.068-5.791v-5.563l.347-.376a4.264,4.264,0,0,0,.94-1.89,5.442,5.442,0,0,0-.091-2.164C420.977-335.164,419.587-336.16,418.272-335.733Zm1.281,1a3.142,3.142,0,0,1,1.167,2.528,3.213,3.213,0,0,1-.951,2.386l-.416.41V-317.9l-.142.137a.418.418,0,0,1-.626,0l-.142-.137v-11.513l-.416-.41a2.806,2.806,0,0,1-.871-1.634c-.285-1.429.336-3.023,1.321-3.394A1.405,1.405,0,0,1,419.553-334.737Z" transform="translate(-392.573 -166.137)" fill="#ed1c24"/>
    <path id="Path_3877" data-name="Path 3877" d="M193.144-319.618c-.979.256-1.144.347-1.144.626,0,.063.108.655.239,1.315.256,1.287.33,1.452.649,1.452a19.907,19.907,0,0,0,2.659-1.549.492.492,0,0,0,.1-.262,8.389,8.389,0,0,0-1.144-1.782C194.335-319.9,194.124-319.874,193.144-319.618Zm1.156,1.065c.125.188.2.364.171.387-.108.091-1.224.757-1.241.74s-.068-.285-.131-.609l-.114-.581.2-.051c.114-.034.347-.091.518-.142s.325-.085.342-.085A1.61,1.61,0,0,1,194.3-318.553Z" transform="translate(-181.162 -181.2)" fill="#ed1c24"/>
    <path id="Path_3878" data-name="Path 3878" d="M272.142-255.858l-.142.137v3.086l.142.137a.44.44,0,0,0,.251.142c.216,0,2.932-.461,3.035-.518a.464.464,0,0,0,.216-.376,19.207,19.207,0,0,0-1.093-2.653c-.1-.085-.251-.1-1.2-.1C272.29-256,272.279-256,272.142-255.858Zm2.118,1.492c.159.4.285.735.279.74s-1.441.245-1.543.245c-.074,0-.085-.131-.085-.854v-.854h1.065Z" transform="translate(-256.607 -241.424)" fill="#ed1c24"/>
    <path id="Path_3879" data-name="Path 3879" d="M89.3-239.4a35.042,35.042,0,0,0-5.153.473c-2.431.456-3.883,1.2-4.048,2.09a12.507,12.507,0,0,0,.461,3.359,9.93,9.93,0,0,0,5.062,6.759,11.061,11.061,0,0,0,8.951.006,8.965,8.965,0,0,0,3.4-2.989,13.915,13.915,0,0,0,2.124-6.548,1.679,1.679,0,0,0-.057-.826c-.233-.609-1.2-1.122-2.836-1.509a11.363,11.363,0,0,0-2.238-.342.535.535,0,0,0-.313.433.544.544,0,0,0,.387.444c.085.017.541.1,1.008.182a10.844,10.844,0,0,1,2.574.729c.666.33.729.518.285.826a14.4,14.4,0,0,1-5.563,1.327c-1.048.1-5.449.1-6.491,0a17.439,17.439,0,0,1-5.176-1.11c-.393-.194-.689-.438-.689-.569,0-.382,1.2-.917,2.836-1.258a27.159,27.159,0,0,1,4.988-.541l1.475-.046.137-.154a.387.387,0,0,0,.006-.564C90.27-239.4,90.19-239.412,89.3-239.4Zm-6.935,4.5a21.66,21.66,0,0,0,4.441.791,55.178,55.178,0,0,0,6.582,0,18.078,18.078,0,0,0,5.352-1.127c.194-.085.353-.142.353-.12s-.04.262-.091.535l-.091.5-.461.182a24.184,24.184,0,0,1-7.527,1.059,27.43,27.43,0,0,1-9.179-1.059l-.461-.182-.091-.5c-.051-.273-.091-.512-.091-.535a.982.982,0,0,1,.37.125C81.672-235.13,82.076-234.982,82.367-234.891Zm1.127,2.175a32.316,32.316,0,0,0,3.445.467c1.122.091,5.187.1,6.32,0a25.332,25.332,0,0,0,4.828-.8c.643-.194.609-.268.285.621a9.951,9.951,0,0,1-2.295,3.6,8.47,8.47,0,0,1-5.979,2.147,8.217,8.217,0,0,1-8.273-5.751c-.325-.888-.359-.814.285-.621C82.418-232.955,83.039-232.807,83.494-232.716Z" transform="translate(-75.617 -257.078)" fill="#ed1c24"/>
    <path id="Path_3880" data-name="Path 3880" d="M144.6-103.842c-.2.188-.2.347-.023.786a4.973,4.973,0,0,0,2.494,2.551c.5.228.666.239.848.051.285-.279.159-.6-.3-.809a4.243,4.243,0,0,1-2.232-2.192,1.316,1.316,0,0,0-.239-.4A.416.416,0,0,0,144.6-103.842Z" transform="translate(-136.317 -384.813)" fill="#ed1c24"/>
    <path id="Path_3881" data-name="Path 3881" d="M216-47.544v.456h.911V-48H216Z" transform="translate(-203.795 -437.58)" fill="#ed1c24"/>
    <path id="Path_3882" data-name="Path 3882" d="M208.894-215.909a1.815,1.815,0,0,0-.843.871,1.247,1.247,0,0,0,.359,1.361,1.247,1.247,0,0,0,1.361.359,1.691,1.691,0,0,0,.877-.877,1.247,1.247,0,0,0-.359-1.361A1.291,1.291,0,0,0,208.894-215.909Zm.769.979a.45.45,0,0,1-.313.769.444.444,0,0,1-.313-.142.444.444,0,0,1-.142-.313.444.444,0,0,1,.142-.313.444.444,0,0,1,.313-.142A.444.444,0,0,1,209.663-214.93Z" transform="translate(-196.234 -279.163)" fill="#ed1c24"/>
  </g>
</svg>
