<svg xmlns="http://www.w3.org/2000/svg" width="20.134" height="20.149" viewBox="0 0 20.134 20.149">
  <g id="subscription-model" transform="translate(-7.592 -7.239)">
    <path id="Path_2777" data-name="Path 2777" d="M-23.374-.236h2.594l1.088,0h2.211a1.274,1.274,0,0,1,.972.262l.066.08.068.08a.829.829,0,0,1,.151.511l0,.135V.969c0,.051,0,.1,0,.155q0,.211,0,.421,0,.132,0,.264,0,.413,0,.826,0,.476.005.951,0,.368,0,.736,0,.22,0,.439c0,.163,0,.327,0,.49l0,.146a.739.739,0,0,1-.17.559c-.049.048-.1.094-.15.14l-.087.093-.074.074-.085.086-.089.089-.094.094-.194.194-.3.3-.189.189-.09.09-.083.083-.073.073a.44.44,0,0,1-.364.1H-18.7l-.543,0h-.187l-.878,0-1.013,0-.783,0h-.908l-.238,0a1.079,1.079,0,0,1-.812-.262l-.066-.08-.068-.08a.872.872,0,0,1-.15-.553V6.523c0-.087,0-.174,0-.261q0-.094,0-.188,0-.255,0-.51,0-.159,0-.319,0-.556,0-1.112,0-.518,0-1.035,0-.445,0-.89,0-.266,0-.531,0-.25,0-.5,0-.091,0-.183A1.241,1.241,0,0,1-24.1.048l.08-.066.08-.068A.888.888,0,0,1-23.374-.236Zm-.237.781a.818.818,0,0,0-.081.527h6.809A.763.763,0,0,0-17,.5a.907.907,0,0,0-.459-.092h-5.778A.853.853,0,0,0-23.611.545Zm-.081,1.175L-23.7,4.137l0,.763c0,.226,0,.226,0,.452q0,.151,0,.3,0,.229,0,.457v.135a.871.871,0,0,0,.137.582.837.837,0,0,0,.412.091h1.2l.771,0,.878,0,1.805,0c0-.044,0-.087,0-.132q0-.242.009-.485,0-.1,0-.21c0-.1,0-.2.006-.3,0-.047,0-.047,0-.095a.385.385,0,0,1,.142-.358l1.459-.041V1.72Zm5.836,4.215v.446a2.476,2.476,0,0,0,.446-.446Z" transform="translate(38.433 13.98)" fill="#fff"/>
    <path id="Path_2778" data-name="Path 2778" d="M-242.09-.263a1.411,1.411,0,0,1,.269.138l.074.044.23.14.151.09q.227.136.452.277l.081.05.238.15.074.046c.17.109.17.109.215.2a.707.707,0,0,1,0,.324,1.759,1.759,0,0,1-.465.365l-.075.044-.237.136-.234.135-.152.088q-.271.156-.534.324a.559.559,0,0,1-.409.043.4.4,0,0,1-.162-.162,2.091,2.091,0,0,1-.01-.4l0-.109q0-.133.008-.266a8.978,8.978,0,0,0-6.475,2.353l-.064.058a8.253,8.253,0,0,0-2.3,4.155l-.024.1a8.343,8.343,0,0,0,.248,4.314.711.711,0,0,1,.02.243l-.256.1-.144.057a.506.506,0,0,1-.249.044,7.963,7.963,0,0,1-.312-1.071l-.025-.111a8.549,8.549,0,0,1-.163-1.845c0-.038,0-.075,0-.114a7.476,7.476,0,0,1,.134-1.6l.022-.1a9.275,9.275,0,0,1,2.41-4.556l.058-.061A8.733,8.733,0,0,1-243.986.706h.894l.515,0,0-.072c0-.108-.005-.216-.008-.323l0-.113c0-.271,0-.271.076-.409A.652.652,0,0,1-242.09-.263Zm.162.932V1.4l.215-.117.121-.066a1.728,1.728,0,0,0,.231-.142c-.055-.165-.134-.187-.284-.271l-.134-.076C-241.873.666-241.873.666-241.928.669Z" transform="translate(260.884 7.533)" fill="#fff"/>
    <path id="Path_2779" data-name="Path 2779" d="M-272.892,0a7.955,7.955,0,0,1,.312,1.072l.025.111a8.549,8.549,0,0,1,.163,1.845c0,.056,0,.056,0,.114a7.479,7.479,0,0,1-.134,1.6l-.022.1A9.319,9.319,0,0,1-275,9.444l-.105.11a6.826,6.826,0,0,1-.746.66l-.079.061a9.071,9.071,0,0,1-1.38.872l-.087.044a9.522,9.522,0,0,1-2.386.807l-.1.022a10.362,10.362,0,0,1-2.247.1l0,.072c0,.108.006.216.008.323l0,.113c0,.271,0,.271-.076.409a.652.652,0,0,1-.425.055,1.414,1.414,0,0,1-.269-.138l-.074-.044-.23-.14-.151-.09q-.227-.136-.452-.277l-.081-.05-.238-.15-.074-.046c-.17-.109-.17-.109-.215-.2a.707.707,0,0,1,0-.324,1.758,1.758,0,0,1,.465-.365l.075-.044.237-.136.234-.135.152-.088c.181-.1.358-.212.534-.324a.559.559,0,0,1,.409-.043.4.4,0,0,1,.162.162,2.09,2.09,0,0,1,.01.4l0,.109q0,.133-.008.266a8.978,8.978,0,0,0,6.475-2.353l.064-.058a8.253,8.253,0,0,0,2.3-4.155l.024-.1A8.343,8.343,0,0,0-273.52.445.71.71,0,0,1-273.54.2l.256-.1.144-.057A.506.506,0,0,1-272.892,0Zm-10.2,11.592-.076.047-.185.115c.055.165.134.187.284.271l.134.076c.094.061.094.061.149.058v-.73C-282.883,11.43-283,11.537-283.088,11.592Z" transform="translate(299.144 14.281)" fill="#fff"/>
    <path id="Path_2780" data-name="Path 2780" d="M-111.4-13.472a2.976,2.976,0,0,1,1.147,1.894,3.124,3.124,0,0,1-.648,2.388,2.889,2.889,0,0,1-2.009,1.03,2.981,2.981,0,0,1-2.224-.717,2.9,2.9,0,0,1-.971-2.078,2.9,2.9,0,0,1,.778-2.16A3.016,3.016,0,0,1-111.4-13.472Zm-3.149.6-.078.054A2.285,2.285,0,0,0-115.4-11.5a2.436,2.436,0,0,0,.446,1.783l.061.087a2.179,2.179,0,0,0,1.317.764,2.412,2.412,0,0,0,1.783-.446l.087-.061a2.179,2.179,0,0,0,.764-1.317,2.412,2.412,0,0,0-.446-1.783l-.061-.087a2.179,2.179,0,0,0-1.317-.764A2.419,2.419,0,0,0-114.545-12.875Z" transform="translate(123.693 35.546)" fill="#fff"/>
    <path id="Path_2781" data-name="Path 2781" d="M-111.4-13.472a2.976,2.976,0,0,1,1.147,1.894,3.124,3.124,0,0,1-.648,2.388,2.889,2.889,0,0,1-2.009,1.03,2.981,2.981,0,0,1-2.224-.717,2.9,2.9,0,0,1-.971-2.078,2.9,2.9,0,0,1,.778-2.16A3.016,3.016,0,0,1-111.4-13.472Zm-3.352.759A2.3,2.3,0,0,0-115.411-11a2.118,2.118,0,0,0,.461,1.283l.061.087a2.179,2.179,0,0,0,1.317.764,2.419,2.419,0,0,0,1.783-.446l.078-.054a2.285,2.285,0,0,0,.773-1.324,2.436,2.436,0,0,0-.446-1.783l-.061-.087a2.33,2.33,0,0,0-1.514-.8A2.374,2.374,0,0,0-114.748-12.713Z" transform="translate(137.96 21.28)" fill="#fff"/>
    <path id="Path_2782" data-name="Path 2782" d="M-15.9,0h.648V.324l.084.008a.781.781,0,0,1,.457.313.837.837,0,0,1,.108.49l-.337.008-.1,0h-.093l-.086,0a.312.312,0,0,1-.2-.135.654.654,0,0,0-.405.041v.162a.794.794,0,0,0,.367.048.93.93,0,0,1,.686.276.869.869,0,0,1,.177.683.706.706,0,0,1-.265.526c-.242.17-.242.17-.4.17v.324H-15.9V2.918l-.084-.008A.781.781,0,0,1-16.44,2.6a.837.837,0,0,1-.108-.49l.337-.008.1,0h.093l.086,0a.312.312,0,0,1,.2.135.654.654,0,0,0,.405-.041V2.027a.794.794,0,0,0-.367-.048.931.931,0,0,1-.686-.276.917.917,0,0,1-.183-.711.817.817,0,0,1,.339-.563.558.558,0,0,1,.33-.1Z" transform="translate(26.101 22.833)" fill="#fff"/>
    <path id="Path_2783" data-name="Path 2783" d="M-59.495,0l.134.114.076.064c.1.085.187.175.276.267a1.042,1.042,0,0,1-.253.344L-59.368.9l-.116.115-.119.119-.249.248-.32.319-.246.245-.118.118-.165.164-.095.094a.452.452,0,0,1-.356.136,1.271,1.271,0,0,1-.491-.389l-.108-.1-.1-.1-.093-.087c-.062-.083-.062-.083-.062-.162a1.042,1.042,0,0,1,.216-.278l.1-.1c.094-.07.094-.07.176-.071a.916.916,0,0,1,.252.206l.087.09.065.07a.961.961,0,0,0,.314-.224l.088-.089.094-.1.1-.1.307-.31.209-.21Z" transform="translate(85.301 9.012)" fill="#fff"/>
    <path id="Path_2784" data-name="Path 2784" d="M0,0H.648V.648H0Z" transform="translate(18.632 19.266)" fill="#fff"/>
    <path id="Path_2785" data-name="Path 2785" d="M0,0H.648V.648H0Z" transform="translate(17.011 19.266)" fill="#fff"/>
    <path id="Path_2786" data-name="Path 2786" d="M0,0H.648V.648H0Z" transform="translate(15.39 19.266)" fill="#fff"/>
    <path id="Path_2787" data-name="Path 2787" d="M0,0H.648V.648H0Z" transform="translate(20.254 17.969)" fill="#fff"/>
    <path id="Path_2788" data-name="Path 2788" d="M0,0H.648V.648H0Z" transform="translate(18.632 17.969)" fill="#fff"/>
    <path id="Path_2789" data-name="Path 2789" d="M0,0H.648V.648H0Z" transform="translate(17.011 17.969)" fill="#fff"/>
    <path id="Path_2790" data-name="Path 2790" d="M0,0H.648V.648H0Z" transform="translate(15.39 17.969)" fill="#fff"/>
    <path id="Path_2791" data-name="Path 2791" d="M0,0H.648V.648H0Z" transform="translate(20.254 16.672)" fill="#fff"/>
    <path id="Path_2792" data-name="Path 2792" d="M0,0H.648V.648H0Z" transform="translate(18.632 16.672)" fill="#fff"/>
    <path id="Path_2793" data-name="Path 2793" d="M0,0H.648V.648H0Z" transform="translate(17.011 16.672)" fill="#fff"/>
  </g>
</svg>
