<svg xmlns="http://www.w3.org/2000/svg" width="15.806" height="15.866" viewBox="0 0 15.806 15.866">
  <g id="bill-_1_" transform="translate(-1 511.922)">
    <path id="Path_3799" data-name="Path 3799" d="M3.04-511.878a2.535,2.535,0,0,0-1.6,1.066A2.448,2.448,0,0,0,1-509.476c0,.158.012.2.077.263l.074.078H5.247v5.2c0,3.276.012,5.325.031,5.533a2.526,2.526,0,0,0,.282.989,2.569,2.569,0,0,0,1.593,1.274l.248.071,3.54.009c4.092.009,3.865.022,4.47-.276a1.907,1.907,0,0,0,.642-.474,1.845,1.845,0,0,0,.471-.639c.3-.617.375-1.249.158-1.364-.031-.019-.583-.031-1.358-.031h-1.3l-.012-5.449c-.009-6.113.009-5.6-.242-6.138a2.483,2.483,0,0,0-1.841-1.448c-.186-.04-.825-.047-4.464-.043C4.183-511.918,3.176-511.909,3.04-511.878Zm.7.561a1.984,1.984,0,0,1,1.429,1.392c.081.294.282.263-1.789.263H1.552l.022-.133a2.019,2.019,0,0,1,.6-1.048,1.888,1.888,0,0,1,1-.505A1.007,1.007,0,0,1,3.743-511.317Zm8.245-.009a2.023,2.023,0,0,1,.9.533,1.894,1.894,0,0,1,.539.933c.062.232.062.366.062,5.629v5.387H11.645a17.109,17.109,0,0,0-1.913.037c-.108.056-.139.121-.161.335a2.018,2.018,0,0,1-1.5,1.813,1.737,1.737,0,0,1-1.621-.474,1.879,1.879,0,0,1-.533-.812l-.1-.263L5.8-504c-.015-5.431-.019-5.809-.071-5.979a2.532,2.532,0,0,0-.654-1.156l-.245-.26,3.484.009A29.645,29.645,0,0,1,11.989-511.326Zm4.262,13.047a2.181,2.181,0,0,1-.449.98,2.1,2.1,0,0,1-.961.629l-.217.074-2.756.009-2.756.009.267-.282A2.464,2.464,0,0,0,10-497.994c.031-.133.059-.263.065-.285s.654-.037,3.1-.037S16.251-498.307,16.251-498.279Z" fill="#fff"/>
    <path id="Path_3800" data-name="Path 3800" d="M191.162-405.713a.269.269,0,0,0-.105.446l.081.074h2.157l.081-.074a.255.255,0,0,0,0-.378l-.081-.074-1.042-.006C191.679-405.728,191.186-405.722,191.162-405.713Z" transform="translate(-184.086 -102.904)" fill="#fff"/>
    <path id="Path_3801" data-name="Path 3801" d="M315.8-405.723a.254.254,0,0,0-.043.437c.062.059.112.062.651.062.577,0,.586,0,.663-.074a.255.255,0,0,0,0-.378c-.077-.071-.1-.074-.626-.081A2.132,2.132,0,0,0,315.8-405.723Z" transform="translate(-304.896 -102.873)" fill="#fff"/>
    <path id="Path_3802" data-name="Path 3802" d="M190.947-364.922a.247.247,0,0,0,.05.4,12.129,12.129,0,0,0,2.226,0,.247.247,0,0,0,.05-.4L193.2-365h-2.176Z" transform="translate(-183.98 -142.368)" fill="#fff"/>
    <path id="Path_3803" data-name="Path 3803" d="M315.774-364.938a.271.271,0,0,0-.093.136.292.292,0,0,0,.146.3,4.585,4.585,0,0,0,1.221-.016.247.247,0,0,0,.05-.4c-.074-.078-.081-.078-.66-.078C315.9-365,315.846-364.994,315.774-364.938Z" transform="translate(-304.923 -142.368)" fill="#fff"/>
    <path id="Path_3804" data-name="Path 3804" d="M191.1-324.963a.256.256,0,0,0-.062.412l.074.077h2.176l.074-.077a.254.254,0,0,0,.077-.167c0-.276-.025-.282-1.246-.282A7.049,7.049,0,0,0,191.1-324.963Z" transform="translate(-184.071 -181.128)" fill="#fff"/>
    <path id="Path_3805" data-name="Path 3805" d="M315.969-325.048a.26.26,0,0,0-.047.406c.062.068.081.071.663.071.6,0,.6,0,.676-.077a.247.247,0,0,0-.05-.4A3.8,3.8,0,0,0,315.969-325.048Z" transform="translate(-305.087 -181.03)" fill="#fff"/>
    <path id="Path_3806" data-name="Path 3806" d="M191.189-284.627a.261.261,0,0,0-.136.446l.081.074h2.157l.081-.074a.255.255,0,0,0,0-.378l-.081-.074-1.011,0C191.722-284.639,191.233-284.636,191.189-284.627Z" transform="translate(-184.083 -220.239)" fill="#fff"/>
    <path id="Path_3807" data-name="Path 3807" d="M315.911-284.713a.267.267,0,0,0-.189.366c.065.152.183.177.8.164.5-.009.518-.012.6-.084a.255.255,0,0,0,0-.378c-.077-.071-.1-.074-.611-.081A5.907,5.907,0,0,0,315.911-284.713Z" transform="translate(-304.946 -220.154)" fill="#fff"/>
    <path id="Path_3808" data-name="Path 3808" d="M191.077-243.922a.239.239,0,0,0-.077.186.239.239,0,0,0,.077.186l.074.077h2.176l.074-.077a.239.239,0,0,0,.077-.186.239.239,0,0,0-.077-.186l-.074-.078h-2.176Z" transform="translate(-184.11 -259.617)" fill="#fff"/>
    <path id="Path_3809" data-name="Path 3809" d="M315.789-243.932a.25.25,0,0,0,0,.381c.074.077.081.077.666.077s.592,0,.666-.077a.239.239,0,0,0,.077-.186.239.239,0,0,0-.077-.186c-.074-.078-.081-.078-.663-.078C315.889-244,315.864-244,315.789-243.932Z" transform="translate(-304.945 -259.617)" fill="#fff"/>
    <path id="Path_3810" data-name="Path 3810" d="M191.162-203.9a.268.268,0,0,0-.105.446l.081.074h2.157l.081-.074a.226.226,0,0,0,.081-.186.242.242,0,0,0-.167-.251C193.2-203.919,191.252-203.928,191.162-203.9Z" transform="translate(-184.086 -298.458)" fill="#fff"/>
    <path id="Path_3811" data-name="Path 3811" d="M315.864-203.935a.254.254,0,0,0-.056.425c.078.074.09.074.663.074s.586,0,.663-.074a.226.226,0,0,0,.081-.186.242.242,0,0,0-.167-.251A4.878,4.878,0,0,0,315.864-203.935Z" transform="translate(-304.963 -298.399)" fill="#fff"/>
    <path id="Path_3812" data-name="Path 3812" d="M191.114-162.923a.274.274,0,0,0-.037.329c.087.115.152.121,1.2.121,1.224,0,1.24,0,1.24-.294a.189.189,0,0,0-.081-.167c-.081-.062-.118-.065-1.166-.065h-1.082Z" transform="translate(-184.146 -338.106)" fill="#fff"/>
    <path id="Path_3813" data-name="Path 3813" d="M315.914-162.932a.267.267,0,0,0-.062.279c.04.155.146.18.735.18.673,0,.744-.028.744-.294a.189.189,0,0,0-.081-.167c-.077-.062-.124-.065-.679-.065C315.994-163,315.975-163,315.914-162.932Z" transform="translate(-305.078 -338.106)" fill="#fff"/>
  </g>
</svg>
