<svg xmlns="http://www.w3.org/2000/svg" width="18.526" height="18.52" viewBox="0 0 18.526 18.52">
  <g id="spices" transform="translate(0 511.823)">
    <path id="Path_3884" data-name="Path 3884" d="M161.786-511.793c-.145.043-.217.1-.72.6s-.536.564-.394.706.242.1.688-.347c.6-.6.659-.622.955-.34l.2.185-.9.89c-.984.973-1.031,1.039-1.024,1.422a.843.843,0,0,0,.08.344,13.476,13.476,0,0,0,1.56,1.556.99.99,0,0,0,.695.036c.17-.058.275-.145.883-.742l.688-.68.413-.185a2.541,2.541,0,0,0,.445-.232.361.361,0,0,0,.029-.152c0-.09-.076-.185-.478-.586l-.474-.478.1-.029a1.314,1.314,0,0,1,.8.08,1.234,1.234,0,0,1,.727,1.161c.022.413,0,.492-.156.651-.206.206-.145.449.116.449.152,0,.42-.293.478-.521a3.11,3.11,0,0,0,0-.97,1.715,1.715,0,0,0-2.262-1.256l-.2.076-.767-.76a5.574,5.574,0,0,0-.926-.836A.825.825,0,0,0,161.786-511.793Zm2.03,2.077.919.919-.282.13c-.261.119-.344.192-.955.8a7.806,7.806,0,0,1-.756.691c-.206.062-.3,0-1-.68l-.677-.659v-.376l.879-.868c.481-.478.894-.872.912-.872S163.31-510.223,163.816-509.716Z" transform="translate(-154.774)" fill="#fff"/>
    <path id="Path_3885" data-name="Path 3885" d="M10.951-416.814a2.117,2.117,0,0,0-.51.97l-.04.221-.2-.072a2.489,2.489,0,0,0-1.042-.065c-.416.1-.474.174-.387.492a1.8,1.8,0,0,0,.507.879l.257.264-.141.112a2.144,2.144,0,0,0-.6.926l-.094.3.072.1c.185.25,1.067.289,1.57.065.043-.018.062.018.1.2a2.127,2.127,0,0,0,.145.445,1.834,1.834,0,0,0,.583.706c.1.043.123.04.235-.029a2.055,2.055,0,0,0,.536-.691,3.027,3.027,0,0,0,.13-.4c.029-.13.058-.239.062-.242a.935.935,0,0,1,.2.065,1.953,1.953,0,0,0,1.382-.065c.2-.181-.09-.908-.525-1.317L13-414.13l.25-.253c.394-.405.644-1.046.481-1.227A1.9,1.9,0,0,0,12.3-415.7l-.185.072-.047-.235a1.988,1.988,0,0,0-.5-.948C11.3-417.1,11.229-417.1,10.951-416.814Zm.485.6a1.623,1.623,0,0,1,.206.724.361.361,0,0,1-.119.311c-.062.072-.148.177-.188.232l-.072.1-.2-.242-.192-.246.014-.253a1.352,1.352,0,0,1,.268-.735C11.265-416.467,11.3-416.456,11.436-416.217Zm-1.455.952a1.646,1.646,0,0,1,.843.63c.094.141.076.174-.094.156a1.6,1.6,0,0,0-.409.036c-.239.051-.261.051-.394-.018a1.641,1.641,0,0,1-.315-.246c-.177-.177-.376-.517-.34-.579A1.4,1.4,0,0,1,9.981-415.266Zm3.267-.025c.036.058-.166.405-.344.586a1.4,1.4,0,0,1-1,.423c-.3.014-.337.007-.337-.043a1.548,1.548,0,0,1,.6-.785,1.617,1.617,0,0,1,.8-.21A.667.667,0,0,1,13.248-415.291ZM10.715-414c.047.018.043.047-.04.185a2.583,2.583,0,0,0-.174.387c-.094.257-.21.34-.6.441a1.233,1.233,0,0,1-.637,0,.693.693,0,0,1,.094-.239,1.482,1.482,0,0,1,1.049-.76c.109-.018.21-.033.224-.036A.367.367,0,0,1,10.715-414Zm1.943.235a1.866,1.866,0,0,1,.3.25c.138.152.329.5.3.536a1.373,1.373,0,0,1-.608.007,1.621,1.621,0,0,1-.991-.731l-.054-.1.3,0a2.4,2.4,0,0,0,.391-.033C12.441-413.887,12.478-413.88,12.659-413.764Zm-1.158.651.152.181-.018.246a1.622,1.622,0,0,1-.308.8l-.072.087-.119-.174a1.534,1.534,0,0,1-.065-1.567l.076-.123.1.185A2.49,2.49,0,0,0,11.5-413.113Z" transform="translate(-8.385 -91.367)" fill="#fff"/>
    <path id="Path_3886" data-name="Path 3886" d="M277.7-407.928a.269.269,0,0,0,.033.387c.13.112.221.1.355-.025.087-.09.1-.13.083-.21A.252.252,0,0,0,277.9-408,.262.262,0,0,0,277.7-407.928Z" transform="translate(-267.59 -100.066)" fill="#fff"/>
    <path id="Path_3887" data-name="Path 3887" d="M364.885-390.859a.825.825,0,0,0-.539.727,1.4,1.4,0,0,0,.17.749c.163.264.145.261,1.632.261,1.281,0,1.332,0,1.4-.072a.267.267,0,0,0,.072-.163.267.267,0,0,0-.072-.163c-.069-.069-.119-.072-1.01-.072H365.6l.04-.112a1.381,1.381,0,0,0,.018-.4l-.018-.286h2.338l-.036.134a1.179,1.179,0,0,0,.2.919.594.594,0,0,0,.677.163.986.986,0,0,0,.438-.839.89.89,0,0,0-.525-.843C368.558-390.9,365.073-390.906,364.885-390.859Zm.253.593a.642.642,0,0,1-.014.554c-.116.2-.224.134-.293-.159a.793.793,0,0,1,.083-.47C364.983-390.424,365.077-390.392,365.138-390.265Zm3.579.022c.112.214.018.651-.138.651s-.246-.5-.116-.7C368.547-390.421,368.634-390.4,368.717-390.243Z" transform="translate(-351.157 -116.556)" fill="#fff"/>
    <path id="Path_3888" data-name="Path 3888" d="M282.565-375.739a2.954,2.954,0,0,0-.507.7.8.8,0,0,0-.033.8.858.858,0,0,0,1.625-.369.748.748,0,0,0-.138-.47,3.306,3.306,0,0,0-.575-.76C282.811-375.924,282.721-375.9,282.565-375.739Zm.409.688c.232.355.242.38.2.543a.411.411,0,0,1-.365.282.426.426,0,0,1-.4-.416,2.186,2.186,0,0,1,.391-.633A1.064,1.064,0,0,1,282.974-375.052Z" transform="translate(-271.732 -131.017)" fill="#fff"/>
    <path id="Path_3889" data-name="Path 3889" d="M364.991-317.931a.855.855,0,0,0-.394.8.9.9,0,0,0,.271.709l.145.141,1.994.011,1.994.007.13-.083a1,1,0,0,0,.239-.282.786.786,0,0,0,.109-.485.985.985,0,0,0-.3-.778l-.123-.109h-1.353c-1.31,0-1.361,0-1.429.072a.192.192,0,0,0,.018.308l.087.09h1.845l-.036.116a1.288,1.288,0,0,0-.033.282,1.288,1.288,0,0,0,.033.282l.036.116h-2.385l.036-.094a1.322,1.322,0,0,0-.018-.669.864.864,0,0,0-.344-.449A.605.605,0,0,0,364.991-317.931Zm.38.517a.594.594,0,0,1,.072.282c0,.177-.109.4-.2.4s-.17-.21-.17-.4.09-.4.17-.4C365.277-317.53,365.332-317.475,365.371-317.414Zm3.571-.018c.138.206.043.724-.127.691s-.239-.488-.1-.695C368.791-317.555,368.863-317.555,368.943-317.432Z" transform="translate(-351.404 -186.809)" fill="#fff"/>
    <path id="Path_3890" data-name="Path 3890" d="M8.72-275.258c-2.287.116-4.15,1.136-4.418,2.421A7.686,7.686,0,0,0,4.375-271a4.968,4.968,0,0,0,2.4,3.354l.337.2H3.647c-3.441,0-3.456,0-3.553.076L0-267.3v.923c0,.872,0,.923.072.991s.119.072,9.191.072,9.118,0,9.191-.072.072-.119.072-.991v-.923l-.094-.072c-.1-.076-.112-.076-3.553-.076H11.42l.333-.2a5.056,5.056,0,0,0,1.375-1.172c.286-.344.38-.521.337-.633a.236.236,0,0,0-.271-.156,1.249,1.249,0,0,0-.322.34,4.48,4.48,0,0,1-5.58,1.353,4.5,4.5,0,0,1-2.461-3.206c-.022-.1-.018-.1.163.061a5.037,5.037,0,0,0,2.07,1.035,7.758,7.758,0,0,0,6.285-.887c1.473-1.165,1.118-2.786-.811-3.7A7.946,7.946,0,0,0,8.72-275.258Zm1.617.521c1.639.214,2.92.876,3.314,1.708a.92.92,0,0,1,.112.536,1.265,1.265,0,0,1-.438.962c-1.447,1.531-5.457,1.777-7.559.463a2.707,2.707,0,0,1-.9-.912c-.564-1.2.908-2.435,3.289-2.754A11.528,11.528,0,0,1,10.338-274.736Zm7.718,8.359v.6H.47v-1.194H18.056Z" transform="translate(0 -227.992)" fill="#fff"/>
    <path id="Path_3891" data-name="Path 3891" d="M412.967-238.9a1.938,1.938,0,0,0-.684.384c-.26.242-.159.474.329.742a1.578,1.578,0,0,0,1.845-.224c.221-.206.224-.286.033-.492A1.622,1.622,0,0,0,412.967-238.9Zm.887.525c.09.047.166.094.166.112,0,.062-.333.188-.536.206a1.2,1.2,0,0,1-.677-.148c-.094-.069-.047-.119.206-.21A1.217,1.217,0,0,1,413.854-238.375Z" transform="translate(-397.231 -263)" fill="#fff"/>
    <path id="Path_3892" data-name="Path 3892" d="M55.568-228.286a.807.807,0,0,0-.568.763.783.783,0,0,0,1.491.329.86.86,0,0,0-.062-.789A.819.819,0,0,0,55.568-228.286Zm.427.546a.3.3,0,0,1-.355.481.3.3,0,0,1,.137-.572A.279.279,0,0,1,56-227.739Z" transform="translate(-53.01 -273.252)" fill="#fff"/>
    <path id="Path_3893" data-name="Path 3893" d="M.741-195.576a.874.874,0,0,0-.5.528.8.8,0,0,0,.688,1,.725.725,0,0,0,.6-.221A.784.784,0,0,0,.741-195.576Zm.38.467a.305.305,0,0,1-.062.579.218.218,0,0,1-.232-.036.311.311,0,0,1,.04-.543C1-195.167.98-195.167,1.121-195.109Z" transform="translate(-0.202 -304.765)" fill="#fff"/>
    <path id="Path_3894" data-name="Path 3894" d="M443.784-190.846a1.475,1.475,0,0,0-.666.369c-.268.25-.242.38.119.648a1.6,1.6,0,0,0,2.019-.116c.235-.221.239-.3.007-.521A1.583,1.583,0,0,0,443.784-190.846Zm.85.525c.1.047.185.1.177.123a.614.614,0,0,1-.21.123,1.182,1.182,0,0,1-.915-.036l-.181-.09.1-.065A1.168,1.168,0,0,1,444.634-190.322Z" transform="translate(-426.911 -309.313)" fill="#fff"/>
    <path id="Path_3895" data-name="Path 3895" d="M55.527-151.85a.833.833,0,0,0-.441.405.84.84,0,0,0,.047.771.791.791,0,0,0,1.306.014.847.847,0,0,0,.062-.792A.806.806,0,0,0,55.527-151.85Zm.4.467a.286.286,0,0,1,.17.286.3.3,0,0,1-.528.2.287.287,0,0,1,.018-.423A.254.254,0,0,1,55.929-151.383Z" transform="translate(-53.023 -346.906)" fill="#fff"/>
    <path id="Path_3896" data-name="Path 3896" d="M371.949-146.106a.291.291,0,0,0-.08.34.261.261,0,0,0,.5-.112A.272.272,0,0,0,371.949-146.106Z" transform="translate(-358.391 -352.436)" fill="#fff"/>
    <path id="Path_3897" data-name="Path 3897" d="M412.784-143.846a1.475,1.475,0,0,0-.666.369c-.268.25-.242.38.119.648a1.594,1.594,0,0,0,2.019-.116c.235-.221.239-.3.007-.521A1.586,1.586,0,0,0,412.784-143.846Zm.85.525c.1.047.185.1.177.123a.614.614,0,0,1-.21.123,1.183,1.183,0,0,1-.915-.036l-.174-.087.083-.054A1.119,1.119,0,0,1,413.634-143.322Z" transform="translate(-397.033 -354.612)" fill="#fff"/>
  </g>
</svg>
