<svg xmlns="http://www.w3.org/2000/svg" width="21.487" height="21.49" viewBox="0 0 21.487 21.49">
  <g id="refund" transform="translate(0.075 511.996)">
    <path id="Path_2033" data-name="Path 2033" d="M295.964-511.908a.261.261,0,0,0-.109.248c0,.231.143.336.457.336a6.649,6.649,0,0,1,2.993.823,6.451,6.451,0,0,1,3.169,4.445,7.909,7.909,0,0,1-.021,2.355,6.45,6.45,0,0,1-4.222,4.823,6.576,6.576,0,0,1-2.833.29l-.138-.021.3-.214a1.426,1.426,0,0,0,.348-.315.346.346,0,0,0-.151-.407c-.16-.117-.227-.084-.965.441-.646.458-.751.579-.676.776.021.055.243.386.491.73.478.667.554.726.781.63a.38.38,0,0,0,.214-.315,1.5,1.5,0,0,0-.193-.336,1.523,1.523,0,0,1-.176-.294,4.493,4.493,0,0,1,.474.029,7.139,7.139,0,0,0,3.6-.722,6.341,6.341,0,0,0,1.838-1.339,6.8,6.8,0,0,0,1.952-3.605,7.08,7.08,0,0,0-2.98-7.236,7.281,7.281,0,0,0-3.194-1.167C296.329-512.021,296.094-512.009,295.964-511.908Z" transform="translate(-281.824 0)" fill="#b10952"/>
    <path id="Path_2034" data-name="Path 2034" d="M236.157-455.616a4.863,4.863,0,0,0-2.586,1.3,4.722,4.722,0,0,0-.625,6,6.548,6.548,0,0,0,1.3,1.3,4.559,4.559,0,0,0,2.6.772,4.468,4.468,0,0,0,3.207-1.272,4.69,4.69,0,0,0,.613-6.166,4.763,4.763,0,0,0-2.745-1.855A6.721,6.721,0,0,0,236.157-455.616Zm1.372.693a4.066,4.066,0,0,1,3.228,3,4.926,4.926,0,0,1,0,1.952,4.1,4.1,0,0,1-1.087,1.906,4,4,0,0,1-5.654,0,4.024,4.024,0,0,1-1.058-3.9A4.022,4.022,0,0,1,237.529-454.923Z" transform="translate(-222.479 -53.988)" fill="#b10952"/>
    <path id="Path_2035" data-name="Path 2035" d="M309.895-415.9c-.088.084-.1.143-.1.357,0,.2-.013.252-.063.252a1.445,1.445,0,0,0-.676.4,1.285,1.285,0,0,0-.134,1.729,1.63,1.63,0,0,0,1.012.374c.894.113,1.02.172,1.012.5a.806.806,0,0,1-.991.739.828.828,0,0,1-.575-.525c-.138-.294-.256-.378-.449-.332a.352.352,0,0,0-.252.374,1.667,1.667,0,0,0,.865,1.045l.252.113v.189c0,.336.311.512.55.315a.389.389,0,0,0,.122-.3l.021-.218.218-.084a1.516,1.516,0,0,0,.772-.73,1.029,1.029,0,0,0,.134-.579c0-.7-.407-1.049-1.314-1.137-.651-.059-.9-.143-.961-.319a.785.785,0,0,1,.562-.9.831.831,0,0,1,.982.5c.13.277.218.361.382.361a.5.5,0,0,0,.336-.327,1.62,1.62,0,0,0-.147-.378,1.549,1.549,0,0,0-.781-.751l-.206-.076v-.243c0-.2-.017-.26-.1-.344a.327.327,0,0,0-.231-.1A.327.327,0,0,0,309.895-415.9Z" transform="translate(-295.759 -91.967)" fill="#b10952"/>
    <path id="Path_2036" data-name="Path 2036" d="M6.413-191.822a10.333,10.333,0,0,0-1.872.739l-.7.344-.206-.2a1.17,1.17,0,0,0-.374-.248,16.253,16.253,0,0,0-2.636,0,1.247,1.247,0,0,0-.646.646c-.071.248-.071,5.074,0,5.322a1.247,1.247,0,0,0,.646.646,14.166,14.166,0,0,0,2.669-.017,1.082,1.082,0,0,0,.672-.9c.013-.1.038-.1.684-.218a9.376,9.376,0,0,1,1.112-.126l.441-.013.315.168c.172.092.55.336.839.537,1.616,1.146,2.254,1.41,2.98,1.242a33.479,33.479,0,0,0,4.89-2.329c1.448-.793,3.58-2.015,3.752-2.153a1.177,1.177,0,0,0,.134-1.65,1.046,1.046,0,0,0-.944-.361,12.135,12.135,0,0,0-2.72.844c-1.31.453-2.392.827-2.413.827a.469.469,0,0,1-.113-.2c-.164-.386-.4-.558-1.7-1.234-2.359-1.217-3.685-1.759-4.3-1.75A2.285,2.285,0,0,0,6.413-191.822Zm1.184.739a33.8,33.8,0,0,1,4.537,2.216.659.659,0,0,1-.088,1.049.528.528,0,0,1-.357.088c-.231,0-.277-.025-1.372-.663-.89-.52-1.154-.655-1.238-.638a.427.427,0,0,0-.294.336.345.345,0,0,0,.1.2,22.442,22.442,0,0,0,2.422,1.385,1.346,1.346,0,0,0,1.6-.705.327.327,0,0,1,.172-.2c.055-.008,1.192-.4,2.527-.865,2.464-.856,2.653-.907,2.892-.8a.481.481,0,0,1,.1.735c-.159.16-3.484,2.031-5.23,2.951a16.843,16.843,0,0,1-3.3,1.461c-.4.055-1.024-.243-2.128-1.02a7.366,7.366,0,0,0-1.414-.865,3.954,3.954,0,0,0-1.822.025c-.365.059-.68.109-.7.109a16.488,16.488,0,0,1-.034-1.88l.013-1.876.814-.407a10.043,10.043,0,0,1,1.746-.73A1.838,1.838,0,0,1,7.6-191.084Zm-4.415.625.1.1v4.961l-.1.1-.1.1H.805l-.1-.1-.1-.1v-4.961l.1-.1.1-.1H3.08Z" transform="translate(0 -306.659)" fill="#b10952"/>
    <path id="Path_2037" data-name="Path 2037" d="M32.1-63.9a.327.327,0,0,0-.1.231.327.327,0,0,0,.1.231.327.327,0,0,0,.231.1.331.331,0,0,0,.231-.567.327.327,0,0,0-.231-.1A.327.327,0,0,0,32.1-63.9Z" transform="translate(-30.729 -429.193)" fill="#b10952"/>
  </g>
</svg>
