<svg xmlns="http://www.w3.org/2000/svg" width="8.238" height="8.935" viewBox="0 0 8.238 8.935">
  <g id="Group_15133" data-name="Group 15133" transform="translate(0)">
    <path id="Path_2531" data-name="Path 2531" d="M370.471,218.063h3.593l1.007.4.165,3.864h-1.884l-.193,4.118h-5.191l-.418-.418v-6.787l.2-.778,1.073-.4.7.2.2-.2Z" transform="translate(-367.268 -217.787)" fill="#f8c600" opacity="0.12"/>
    <g id="order">
      <path id="Path_2461" data-name="Path 2461" d="M33.477-496.913a1.305,1.305,0,0,0-.27.1,1.281,1.281,0,0,0-.674.821c-.032.115-.034.3-.034,3.956a33.593,33.593,0,0,0,.037,3.9.318.318,0,0,0,.1.1,23.01,23.01,0,0,0,2.951.035,25.773,25.773,0,0,0,2.951-.033.3.3,0,0,0,.106-.095l.043-.063v-3.9l.927-.006c.886-.006.927-.007.989-.043a.318.318,0,0,0,.1-.1,9.279,9.279,0,0,0,.035-1.793c0-1.955,0-1.884-.143-2.189a.935.935,0,0,0-.236-.328,1,1,0,0,0-.328-.24c-.307-.151-.071-.142-3.435-.14C34.1-496.941,33.578-496.936,33.477-496.913Zm4.934.5s-.03.056-.065.115a1.591,1.591,0,0,0-.117.259l-.05.149-.006,3.681,0,3.683H33.031l0-3.683.006-3.681.054-.112a.788.788,0,0,1,.49-.4C33.651-496.416,38.411-496.429,38.411-496.414Zm1.35.063a.83.83,0,0,1,.35.317c.108.2.106.171.106,1.851v1.542H38.69v-1.542c0-1.679,0-1.653.106-1.851a.842.842,0,0,1,.484-.369A.844.844,0,0,1,39.761-496.351Z" transform="translate(-32.5 496.942)" fill="#f8c600"/>
      <path id="Path_2462" data-name="Path 2462" d="M121.779-435.92a1.989,1.989,0,0,0-.227.2l-.171.169-.08-.058a1.316,1.316,0,0,0-.788-.248,1.251,1.251,0,0,0-.931.382,1.246,1.246,0,0,0-.395.884,1.268,1.268,0,0,0,.147.678,1.434,1.434,0,0,0,.573.566,1.785,1.785,0,0,0,.279.11,1.668,1.668,0,0,0,.652,0,1.335,1.335,0,0,0,.866-.711,1.3,1.3,0,0,0,.067-1.013l-.06-.175.214-.216c.169-.173.216-.229.225-.285A.261.261,0,0,0,121.779-435.92Zm-.912.667.145.071-.236.235-.235.236-.088-.088c-.11-.1-.151-.127-.238-.127a.248.248,0,0,0-.251.263c0,.106.045.171.263.382.168.162.2.188.277.194.141.013.141.011.475-.318.356-.35.344-.346.344-.128a.813.813,0,0,1-.935.8.808.808,0,0,1-.469-1.342.748.748,0,0,1,.624-.253A.563.563,0,0,1,120.867-435.254Z" transform="translate(-117.572 437.084)" fill="#f8c600"/>
      <path id="Path_2463" data-name="Path 2463" d="M89.149-232.833A.275.275,0,0,0,89-232.6a.247.247,0,0,0,.268.257.168.168,0,0,0,.16-.071.227.227,0,0,0,.058-.29.193.193,0,0,0-.117-.123A.2.2,0,0,0,89.149-232.833Z" transform="translate(-87.948 237.781)" fill="#f8c600"/>
      <path id="Path_2464" data-name="Path 2464" d="M145.179-232.706a.274.274,0,0,0-.179.253.277.277,0,0,0,.121.212c.06.037.089.037,1.406.037,1.5,0,1.409.007,1.488-.13a.251.251,0,0,0-.074-.337l-.063-.045-1.322,0C145.828-232.721,145.209-232.715,145.179-232.706Z" transform="translate(-142.906 237.638)" fill="#f8c600"/>
      <path id="Path_2465" data-name="Path 2465" d="M89.114-175.963a.256.256,0,0,0,.13.471.24.24,0,0,0,.24-.149.227.227,0,0,0-.06-.289.168.168,0,0,0-.16-.071A.287.287,0,0,0,89.114-175.963Z" transform="translate(-87.944 181.975)" fill="#f8c600"/>
      <path id="Path_2466" data-name="Path 2466" d="M145.119-175.965a.29.29,0,0,0-.119.214.285.285,0,0,0,.114.218l.063.045h1.34a6.477,6.477,0,0,0,1.4-.034.261.261,0,0,0,.017-.443,5.871,5.871,0,0,0-1.407-.035A5.871,5.871,0,0,0,145.119-175.965Z" transform="translate(-142.906 181.975)" fill="#f8c600"/>
      <path id="Path_2467" data-name="Path 2467" d="M89.133-119.924a.262.262,0,0,0,.073.469.257.257,0,0,0,.3-.357A.268.268,0,0,0,89.133-119.924Z" transform="translate(-87.964 126.979)" fill="#f8c600"/>
      <path id="Path_2468" data-name="Path 2468" d="M145.355-119.708a.266.266,0,0,0-.117.374c.091.136.02.13,1.482.13,1.419,0,1.389,0,1.471-.1a.287.287,0,0,0,.052-.223.374.374,0,0,0-.076-.117l-.061-.069-1.357,0C146-119.721,145.376-119.715,145.355-119.708Z" transform="translate(-143.103 126.742)" fill="#f8c600"/>
    </g>
  </g>
</svg>
