<svg xmlns="http://www.w3.org/2000/svg" width="186.196" height="168.638" viewBox="0 0 186.196 168.638">
  <g id="refund" transform="translate(-16 482.708)">
    <path id="Path_3512" data-name="Path 3512" d="M97.854-482.395c-1.9.776-2.871,2.211-6.866,10.241-5.7,11.444-5.9,10.862,5.78,16.72,8.767,4.384,10.164,4.772,12.647,3.491a6.075,6.075,0,0,0,1.94-9.388c-.737-.815-.737-.815.737-1.086.815-.116,3.647-.349,6.323-.466A68.384,68.384,0,0,1,178.661-432,68.282,68.282,0,0,1,164-341.342a73.467,73.467,0,0,1-21.22,11.405,67.948,67.948,0,0,1-69.751-16.875l-2.871-2.948H95.527c28.358,0,28.63-.039,33.75-2.6a23.118,23.118,0,0,0,11.444-14.509c.892-3.8.853-55.591-.039-59.083-1.552-6.052-6.168-11.91-11.444-14.47-5.121-2.522-3.142-2.444-50.587-2.444-47.832,0-45.582-.116-50.781,2.638a24.634,24.634,0,0,0-9.078,8.884,29.377,29.377,0,0,0-2.017,5.392c-.737,2.832-.776,4.345-.776,29.405,0,28.979.078,29.638,2.328,34.177A23.1,23.1,0,0,0,33.806-350.3c1.746.349,5.431.543,11.677.543l9.116.039,1.513,2.172a86.314,86.314,0,0,0,18,18.078,82.3,82.3,0,0,0,47.406,15.4,82.034,82.034,0,0,0,50.936-18.155,116.032,116.032,0,0,0,12.1-12.22,81.748,81.748,0,0,0,17.263-58.113c-3.53-35.031-29.561-64.048-63.777-71.147-9.97-2.056-22.927-2.211-31.074-.388-.737.155-.776-.039-.776-2.328,0-2.638-.582-3.841-2.6-5.354A7.556,7.556,0,0,0,97.854-482.395Zm24.13,52.332a10.415,10.415,0,0,1,5.819,5c.97,1.862,1.086,2.444,1.086,5.9v3.841H28.414v-3.453a19.306,19.306,0,0,1,.466-4.733,10.223,10.223,0,0,1,6.323-6.44C36.755-430.528,119.811-430.644,121.984-430.062Zm6.905,43.526c-.039,12.336-.155,16.759-.543,17.806a9.835,9.835,0,0,1-4.578,5.237l-2.056,1.125H78.652c-41.238,0-43.1-.039-44.419-.737a12.335,12.335,0,0,1-4.772-4.694c-.815-1.513-.853-1.978-.97-18.349l-.116-16.759H128.889Z" transform="translate(0 0)" fill="#fff"/>
    <path id="Path_3513" data-name="Path 3513" d="M186.029-238.315a5.9,5.9,0,0,0-4.229,5.9,6,6,0,0,0,2.793,5.082c1.28.892,1.4.892,15.285.892,12.918,0,14.121-.039,15.362-.737a7,7,0,0,0,3.1-5.353,6.752,6.752,0,0,0-2.987-5.2c-1.474-.931-1.552-.931-14.664-1.009C190.257-238.82,187.192-238.742,186.029-238.315Z" transform="translate(-101.48 -149.307)" fill="#fff"/>
  </g>
</svg>
