<svg xmlns="http://www.w3.org/2000/svg" width="28.308" height="22.249" viewBox="0 0 28.308 22.249">
  <path id="Path_1982" data-name="Path 1982" d="M12.13-456.988a2.642,2.642,0,0,0-1.593,1.245,4.085,4.085,0,0,0-.3,2.213c0,1.438.044,1.737.332,2.24a2.967,2.967,0,0,0,.918.935,2.812,2.812,0,0,0,1.532.348l.758.033v3.026H9.8c-4.315,0-4.209-.006-4.835.31a2.611,2.611,0,0,0-1.261,1.765c-.028.182-.055.924-.055,1.643v1.316H3.113a3.328,3.328,0,0,0-1.543.271,2.669,2.669,0,0,0-1.333,1.488,14.637,14.637,0,0,0-.05,3.319,2.513,2.513,0,0,0,1.831,1.919,24.766,24.766,0,0,0,4.248,0,2.623,2.623,0,0,0,1.6-1.217c.277-.487.315-.78.315-2.251,0-1.444-.028-1.659-.3-2.2a2.922,2.922,0,0,0-.935-.962A2.846,2.846,0,0,0,5.4-441.9l-.763-.033.017-1.416c.017-1.3.028-1.438.133-1.671a1.584,1.584,0,0,1,.725-.769l.266-.138,4-.017,3.994-.017v4.027l-.758.033a3.823,3.823,0,0,0-1.034.127,2.592,2.592,0,0,0-1.665,1.765,14.87,14.87,0,0,0,0,3.253,2.413,2.413,0,0,0,.664,1.173,2.413,2.413,0,0,0,1.173.664,24.638,24.638,0,0,0,4.237,0,2.413,2.413,0,0,0,1.173-.664,2.413,2.413,0,0,0,.664-1.173,14.87,14.87,0,0,0,0-3.253,2.592,2.592,0,0,0-1.665-1.765,3.808,3.808,0,0,0-1.029-.127l-.763-.033v-4.027l4,.017,3.994.017.266.138a1.584,1.584,0,0,1,.725.769c.105.232.116.371.133,1.671l.017,1.416-.763.033a2.537,2.537,0,0,0-2.074.78,2.4,2.4,0,0,0-.62,1.079,15.174,15.174,0,0,0-.006,3.324,2.54,2.54,0,0,0,1.836,1.8,24.766,24.766,0,0,0,4.248,0,2.513,2.513,0,0,0,1.831-1.919,14.637,14.637,0,0,0-.05-3.319,2.669,2.669,0,0,0-1.333-1.488,3.317,3.317,0,0,0-1.538-.271h-.542v-1.316c0-.719-.028-1.46-.055-1.643a2.611,2.611,0,0,0-1.261-1.765c-.625-.315-.52-.31-4.835-.31H14.768v-3.026l.763-.033a3.815,3.815,0,0,0,1.029-.127,2.592,2.592,0,0,0,1.665-1.765,14.871,14.871,0,0,0,0-3.253,2.413,2.413,0,0,0-.664-1.173,2.414,2.414,0,0,0-1.173-.664A26.068,26.068,0,0,0,12.13-456.988Zm4.3,1.073a1.518,1.518,0,0,1,.708.7l.149.277v1.383c0,1.294-.006,1.4-.116,1.637a1.765,1.765,0,0,1-.791.791c-.243.111-.337.116-2.108.116s-1.864-.006-2.108-.116a1.765,1.765,0,0,1-.791-.791c-.111-.238-.116-.343-.116-1.637,0-1.344.006-1.388.133-1.632a1.566,1.566,0,0,1,1.029-.835c.094-.022.974-.039,1.964-.033C16.151-456.048,16.184-456.048,16.428-455.915ZM6.316-440.736a1.488,1.488,0,0,1,.725.725c.116.21.122.31.138,1.516a6.2,6.2,0,0,1-.066,1.582,1.615,1.615,0,0,1-.785.918c-.271.138-.282.138-2.03.155a8.942,8.942,0,0,1-2.058-.066,1.5,1.5,0,0,1-.94-.78l-.166-.326v-1.355c0-1.289.006-1.372.122-1.61a1.466,1.466,0,0,1,.537-.636c.348-.266.653-.3,2.522-.288L6-440.891Zm10.062-.039a1.739,1.739,0,0,1,.791.791c.111.238.116.343.116,1.637,0,1.344-.006,1.388-.133,1.632a1.518,1.518,0,0,1-.7.708l-.277.149H12.362l-.277-.149a1.518,1.518,0,0,1-.7-.708c-.127-.243-.133-.288-.133-1.632,0-1.294.006-1.4.116-1.637a1.787,1.787,0,0,1,.7-.747c.3-.155.642-.183,2.367-.171C16.024-440.891,16.14-440.886,16.378-440.775Zm9.763-.083a1.549,1.549,0,0,1,1.151.88c.111.232.116.332.116,1.61v1.355l-.166.326a1.5,1.5,0,0,1-.94.78,8.942,8.942,0,0,1-2.058.066c-1.748-.017-1.759-.017-2.03-.155a1.651,1.651,0,0,1-.78-.9,14.645,14.645,0,0,1-.028-2.871,1.6,1.6,0,0,1,1.195-1.09A29.065,29.065,0,0,1,26.141-440.858Z" transform="translate(-0.116 457.075)" fill="#fff"/>
</svg>
