<svg xmlns="http://www.w3.org/2000/svg" width="22.247" height="17.389" viewBox="0 0 22.247 17.389">
  <g id="sales" transform="translate(-0.179 455.726)">
    <path id="Path_213" data-name="Path 213" d="M15.475-454.215l-3.228,1.523-1.383-.866c-2.031-1.27-1.966-1.24-2.323-1.04a.63.63,0,0,0-.252.861c.074.148.287.291,1.879,1.288a11.582,11.582,0,0,0,1.979,1.14c.209.022-.083.152,3.967-1.753,2.684-1.262,2.758-1.292,2.871-1.231.061.039,1.531.879,3.267,1.866,3.093,1.762,3.158,1.8,3.393,1.8s.265-.017,1.305-.661c.587-.361,1.07-.653,1.074-.648s-.022.131-.052.287c-.126.583-.052.87.252,1.014a.677.677,0,0,0,.879-.231,18.545,18.545,0,0,0,.531-2.536.63.63,0,0,0-.274-.452,21.029,21.029,0,0,0-2.5-.622.65.65,0,0,0-.613.618c0,.4.2.6.722.713.2.048.318.091.3.113s-.4.261-.84.535c-.718.444-.8.487-.883.435-.052-.03-1.509-.866-3.245-1.853-2.845-1.618-3.176-1.8-3.371-1.81S18.542-455.659,15.475-454.215Z" transform="translate(-7.682 0)" fill="#00bf20"/>
    <path id="Path_214" data-name="Path 214" d="M9.159-359.917a.923.923,0,0,0-.218.231l-.091.144-.013,5.729-.009,5.733H7.045v-4.8c0-4.737,0-4.794-.087-4.937a.689.689,0,0,0-.283-.231c-.183-.083-.287-.083-2.149-.074-1.9.013-1.958.017-2.075.1a1.185,1.185,0,0,0-.209.209c-.091.117-.091.148-.1,4.92l-.009,4.8-.757.013c-.844.013-.892.03-1.1.344a.638.638,0,0,0,.278.892c.122.052,1.81.061,10.766.061,11.767,0,10.8.026,11.014-.278a.683.683,0,0,0,0-.7c-.209-.287-.257-.3-1.088-.313l-.757-.013-.009-4.454c-.013-4.42-.013-4.454-.1-4.572a1.184,1.184,0,0,0-.209-.209c-.117-.087-.178-.091-2.105-.1-2.219-.013-2.184-.017-2.388.291l-.1.148v8.9H13.787l-.009-5.733c-.013-5.642-.013-5.733-.1-5.873a.863.863,0,0,0-.222-.231C13.326-360,13.222-360,11.3-360S9.276-360,9.159-359.917Zm3.28,6.53v5.307H10.177v-10.614h2.262Zm-6.7.935v4.372H3.434v-8.744H5.74Zm13.442.348v4.024H16.876v-8.048h2.306Z" transform="translate(0 -91.561)" fill="#00bf20"/>
  </g>
</svg>
