<svg xmlns="http://www.w3.org/2000/svg" width="12.231" height="12.212" viewBox="0 0 12.231 12.212">
  <g id="paint-bucket-_1_" transform="translate(8.562 513.365)">
    <g id="Group_17882" data-name="Group 17882" transform="translate(-8.562 -513.365)">
      <path id="Path_2810" data-name="Path 2810" d="M6.819-510.792a2.208,2.208,0,0,0-.823.268c-.072.043-.151.091-.177.105s-.435.1-.909.187a9.019,9.019,0,0,0-1.485.325,3.259,3.259,0,0,0-2.174,2.485,3.49,3.49,0,0,0,.057,1.282c.022.072.014.084-.194.287a2.078,2.078,0,0,0-.622,1.076,3.351,3.351,0,0,0,0,1.227,6.356,6.356,0,0,0,1.872,3.195A6.609,6.609,0,0,0,4.817-498.8a3.066,3.066,0,0,0,1.145.194,1.983,1.983,0,0,0,.717-.05,2.126,2.126,0,0,0,.689-.308c.065-.045.5-.454.961-.911l.842-.825.014.316a1.685,1.685,0,0,0,.531,1.272,1.6,1.6,0,0,0,.662.438,1.285,1.285,0,0,0,.581.065c.395,0,.411,0,.574-.069a1.8,1.8,0,0,0,1.081-1.306,22.856,22.856,0,0,0,.05-2.8,15.967,15.967,0,0,0-.1-3.346,5.794,5.794,0,0,0-.677-1.628,7.5,7.5,0,0,0-1.746-1.892A4.879,4.879,0,0,0,6.819-510.792Zm.892.751a5.942,5.942,0,0,1,3.013,1.908,6.274,6.274,0,0,1,.8,1.2,2.075,2.075,0,0,1,.242.634.93.93,0,0,1-.148-.057c-.294-.134-.3-.134-2.781-.134H6.551l-.088-.136a4.883,4.883,0,0,1-.682-1.633,2.632,2.632,0,0,1,.012-.859,1.291,1.291,0,0,1,1.463-.971A3.316,3.316,0,0,1,7.711-510.041Zm-2.98.581c0,.012-.631.643-1.4,1.406l-1.4,1.385L1.941-507a1.875,1.875,0,0,1,.077-.548,2.363,2.363,0,0,1,.572-.99,2.537,2.537,0,0,1,.708-.528,3.057,3.057,0,0,1,.98-.313l.45-.093S4.731-509.469,4.731-509.46Zm.361,1.385a5.577,5.577,0,0,0,1.047,2.243A18.121,18.121,0,0,0,7.8-504.06c1.083,1.088,1.2,1.21,1.263,1.354a1.5,1.5,0,0,1,.12.715v.28l-1.107,1.083c-1.2,1.174-1.21,1.186-1.571,1.282a2.729,2.729,0,0,1-1.021-.014,6.3,6.3,0,0,1-4.144-3.824,2.716,2.716,0,0,1-.179-1.009,1.481,1.481,0,0,1,.172-.789,1.563,1.563,0,0,1,.292-.359.948.948,0,0,1,.136.172,3.606,3.606,0,0,0,.758.756,3.156,3.156,0,0,0,1.3.509c.115.014.22.031.234.033a.417.417,0,0,1,.088.139,1.105,1.105,0,0,0,1.093.564.933.933,0,0,0,.45-.165,1.071,1.071,0,0,0,.055-1.746,1.111,1.111,0,0,0-.949-.172,1.108,1.108,0,0,0-.643.531c-.069.139-.091.143-.363.084a2.473,2.473,0,0,1-.844-.354,2.719,2.719,0,0,1-.705-.772l-.069-.124L3.586-507.3l1.42-1.411.019.184C5.035-508.424,5.066-508.221,5.092-508.075Zm6.076,2.329a.989.989,0,0,1,.732.689,17.89,17.89,0,0,1,.045,2.4c.01,2.542.012,2.482-.148,2.81a1.225,1.225,0,0,1-.2.282.971.971,0,0,1-1.27.062,1.376,1.376,0,0,1-.368-.5c-.053-.134-.055-.158-.067-1.332a5.419,5.419,0,0,0-.067-1.37,2.033,2.033,0,0,0-.318-.627c-.055-.072-.619-.65-1.251-1.287l-1.148-1.153H9.079C10.442-505.772,11.08-505.765,11.169-505.746Zm-5.892,1.217a.352.352,0,0,1,.122.478.309.309,0,0,1-.215.167.324.324,0,0,1-.332-.093.309.309,0,0,1-.084-.375A.353.353,0,0,1,5.277-504.529Z" transform="translate(-0.437 510.814)" fill="#fff"/>
      <path id="Path_2811" data-name="Path 2811" d="M425-178.745v1.255h.717V-180H425Z" transform="translate(-414.847 187.911)" fill="#fff"/>
    </g>
  </g>
</svg>
