<svg xmlns="http://www.w3.org/2000/svg" width="18.102" height="17.588" viewBox="0 0 18.102 17.588">
  <g id="trace_4_" data-name="trace (4)" transform="translate(0.082)">
    <path id="Path_2800" data-name="Path 2800" transform="translate(-0.079)" fill="#fff" fill-rule="evenodd"/>
    <path id="Path_2801" data-name="Path 2801" d="M8.918,13.525c-.279.1-8.775,4.586-8.873,4.683s-.106.121-.118.432c-.02.555.115.729.568.729H.732V19.7c0,.408.057.54.281.653a1.03,1.03,0,0,0,.556.079h.4v.338a1.541,1.541,0,0,0,.04.415.569.569,0,0,0,.337.292l.117.022v1.813c0,1.766,0,1.815.071,1.884a.3.3,0,0,0,.388,0c.069-.069.071-.118.071-1.87v-1.8h.847v5.363H2.99V26.5c0-.374,0-.388-.093-.459a.346.346,0,0,0-.172-.073.346.346,0,0,0-.172.073c-.09.071-.093.084-.093.459,0,.344-.007.386-.062.386a.585.585,0,0,0-.362.255c-.057.094-.07.178-.07.455v.34l-.471.014c-.443.013-.48.02-.617.11a.763.763,0,0,0-.314.66l-.019.27-.15.04a.656.656,0,0,0-.419.339,2.425,2.425,0,0,0-.007,1.039c.111.215-.569.2,8.982.2,9.615,0,8.856.019,9-.22.06-.1.071-.183.071-.543,0-.273-.013-.416-.035-.4s-.035,0-.035-.032c0-.1-.26-.333-.429-.378l-.161-.043-.019-.27a.763.763,0,0,0-.314-.66c-.136-.09-.174-.1-.617-.11l-.471-.014V27.6c0-.277-.013-.361-.07-.455a.585.585,0,0,0-.362-.255c-.058,0-.062-.152-.062-2.7v-2.7l.117-.022a.569.569,0,0,0,.337-.292,1.541,1.541,0,0,0,.04-.415v-.338h.4a1.03,1.03,0,0,0,.556-.079c.224-.113.281-.245.281-.653V19.37h.238c.439,0,.609-.2.609-.732,0-.188-.013-.287-.035-.274s-.035,0-.035-.027a.313.313,0,0,0-.1-.141c-.087-.083-5.89-3.246-6.181-3.369a.217.217,0,0,0-.237,0,.268.268,0,0,0,.016.491c.072.043,1.441.786,3.042,1.651L17.4,18.548l.011.128.011.128H.481l.011-.127L.5,18.551l3.81-2L8.6,14.3l.477-.251.652.349a5.073,5.073,0,0,0,.734.349.25.25,0,0,0,.252-.172c.078-.189,0-.274-.492-.544-.994-.544-1.095-.583-1.305-.506M-.066,18.7c0,.184.006.26.013.168a2.579,2.579,0,0,0,0-.335c-.007-.092-.013-.017-.013.168m1.363.917v.247H16.609V19.37H1.3v.247m1.235,1.076v.265H4.3v-.529H2.532v.265m2.329.073a1.541,1.541,0,0,1-.04.415.569.569,0,0,1-.337.292l-.117.022v5.382l.117.022a.569.569,0,0,1,.337.292,1.541,1.541,0,0,1,.04.415v.338h.811v-.362c0-.295.013-.38.067-.463a.548.548,0,0,1,.33-.234c.058,0,.062-.152.062-2.7s0-2.7-.062-2.7a.548.548,0,0,1-.33-.234c-.054-.082-.067-.168-.067-.463v-.362H4.86v.338M6.2,20.693v.265H8v-.529H6.2v.265m2.364.026a2.136,2.136,0,0,1-.036.421.529.529,0,0,1-.357.335l-.1.02v5.38l.111.022a.588.588,0,0,1,.361.376,2.809,2.809,0,0,1,.023.391v.278h.776v-.278a2.81,2.81,0,0,1,.023-.391.588.588,0,0,1,.361-.376l.111-.022V21.5l-.1-.02a.529.529,0,0,1-.357-.335,2.136,2.136,0,0,1-.036-.421v-.291H8.565v.291m1.341-.026v.265h1.8v-.529h-1.8v.265m2.328.1c0,.295-.013.38-.067.463a.548.548,0,0,1-.33.234c-.058,0-.062.152-.062,2.7s0,2.7.062,2.7a.548.548,0,0,1,.33.234c.054.082.067.168.067.463v.362h.811v-.338a1.541,1.541,0,0,1,.04-.415.569.569,0,0,1,.337-.292l.117-.022V21.495l-.117-.022a.569.569,0,0,1-.337-.292,1.541,1.541,0,0,1-.04-.415v-.338h-.811v.362m1.376-.1v.265h1.764v-.529H13.61v.265M6.695,24.2v2.681h.811V21.522H6.695V24.2m3.7,0v2.681h.811V21.522H10.4V24.2m3.669,0v2.681h.847V21.522h-.847V24.2M2.532,27.679v.265H4.3v-.529H2.532v.265m3.669,0v.265H8v-.529H6.2v.265m3.7,0v.265h1.8v-.529h-1.8v.265m3.7,0v.265h1.764v-.529H13.61v.265M1.163,28.55a.524.524,0,0,0-.042.247V29H16.785v-.2a.524.524,0,0,0-.042-.247c-.062-.062-15.519-.062-15.58,0M-.065,29.9c0,.252.006.351.012.219s.007-.338,0-.459-.012-.013-.012.24m.558-.293a.524.524,0,0,0-.042.247v.2H17.456v-.2a.524.524,0,0,0-.042-.247c-.062-.062-16.859-.062-16.921,0" transform="translate(0 -13.019)" fill="#fff" fill-rule="evenodd"/>
  </g>
</svg>
