<svg xmlns="http://www.w3.org/2000/svg" width="13.26" height="17.164" viewBox="0 0 13.26 17.164">
  <g id="payroll" transform="translate(-58.311 -0.078)">
    <path id="Path_3159" data-name="Path 3159" d="M-27.685-.613h.532l.513,0h.321l1,0,1.158,0,.9,0,.535,0q.252,0,.5,0h.184c.522-.006.522-.006.684.131q.058.065.113.133l.133.128.141.141.078.078.253.253.177.177.369.369.38.38.459.459.175.175.243.244.073.073.067.067.058.058c.1.111.083.228.082.37,0,.04,0,.04,0,.08q0,.134,0,.268,0,.1,0,.191,0,.26,0,.521t0,.544q0,.515,0,1.031,0,.587,0,1.173,0,1.207,0,2.414h.087l.816,0,.419,0,.405,0h.154a1.4,1.4,0,0,1,.975.249,1,1,0,0,1,.3.745v.076q0,.127,0,.254,0,.091,0,.182,0,.3,0,.6v.206q0,.484,0,.968,0,.559,0,1.118,0,.432,0,.864,0,.258,0,.516,0,.243,0,.486,0,.089,0,.178a1.3,1.3,0,0,1-.323,1.027.854.854,0,0,1-.635.231h-.411l-.48,0H-17.4l-.689,0-.985,0-.694,0-.414,0h-.532a1.162,1.162,0,0,1-.849-.261l-.061-.072-.063-.071a1.25,1.25,0,0,1-.167-.785c0-.041,0-.081,0-.123q0-.193,0-.387,0-.132,0-.263,0-.321,0-.643h-.093l-2.253,0-1.09,0-.95,0h-1.15c-.7,0-.7,0-.948-.215a1.013,1.013,0,0,1-.316-.783c0-.075,0-.149,0-.224q0-.082,0-.163c0-.149,0-.3,0-.447s0-.322,0-.483q0-.472,0-.945,0-.384,0-.768c0-.036,0-.073,0-.11V9.577q0-1.041,0-2.083,0-.893,0-1.786,0-1.038,0-2.075,0-.111,0-.221c0-.036,0-.073,0-.11q0-.383,0-.767,0-.467,0-.935,0-.238,0-.477,0-.218,0-.437,0-.079,0-.158a1.211,1.211,0,0,1,.265-.886l.074-.062.073-.064A.906.906,0,0,1-27.685-.613Zm-.4.513a.742.742,0,0,0-.172.552V.518q0,.11,0,.22,0,.079,0,.159,0,.219,0,.437,0,.236,0,.471,0,.569,0,1.138,0,.268,0,.536,0,.89,0,1.781,0,.231,0,.462v.116q0,.931,0,1.861,0,.955,0,1.911,0,.536,0,1.073,0,.457,0,.914,0,.233,0,.466,0,.213,0,.427,0,.077,0,.154a1.138,1.138,0,0,0,.151.712.563.563,0,0,0,.472.172H-24.1l2.251,0c0-.02,0-.04,0-.061q0-.734,0-1.467,0-.355,0-.71t0-.685q0-.13,0-.261c0-.122,0-.244,0-.367,0-.036,0-.071,0-.108a1.1,1.1,0,0,1,.3-.773c.644-.538,2.115-.259,2.584-.267V2.617l-2.147-.034a.944.944,0,0,1-.638-.6,1.151,1.151,0,0,1-.04-.34l0-.126,0-.136,0-.139q0-.183-.005-.366T-21.8.5q-.005-.366-.01-.733l-2.335-.007-1.084,0-.945,0-.5,0h-.644A1.2,1.2,0,0,0-28.086-.1Zm6.677.168q-.005.373-.007.747,0,.127,0,.254c0,.122,0,.244,0,.366l0,.114a.758.758,0,0,0,.149.533.7.7,0,0,0,.508.172h.937l.6,0c-.128-.153-.261-.3-.4-.44l-.057-.058-.186-.186-.13-.13-.271-.271-.348-.348-.267-.267-.128-.128L-21.2.242-21.25.188A.27.27,0,0,0-21.409.067ZM-21.39,9.5a.894.894,0,0,0-.091.471c0,.024,0,.048,0,.073q0,.121,0,.242,0,.087,0,.173,0,.285,0,.569v.2q0,.46,0,.921,0,.531,0,1.063,0,.411,0,.822,0,.245,0,.491t0,.462q0,.085,0,.169a1.041,1.041,0,0,0,.2.806.7.7,0,0,0,.518.194h1.808l.758,0h1.6a.859.859,0,0,0,.649-.2.8.8,0,0,0,.193-.6c0-.036,0-.036,0-.073,0-.08,0-.16,0-.239q0-.086,0-.172,0-.233,0-.467,0-.146,0-.292,0-.51,0-1.019,0-.474,0-.949,0-.408,0-.816,0-.243,0-.487t0-.458q0-.084,0-.168a1.1,1.1,0,0,0-.211-.851,1.011,1.011,0,0,0-.716-.165h-1.6q-.389,0-.777,0H-20.7A.758.758,0,0,0-21.39,9.5Z" transform="translate(86.957 0.712)" fill="#fff"/>
    <path id="Path_3160" data-name="Path 3160" d="M-96.082-11.656a2.113,2.113,0,0,1,.8,1.34A2.149,2.149,0,0,1-95.7-8.7a2.082,2.082,0,0,1-1.371.775,2.35,2.35,0,0,1-1.648-.485,2.235,2.235,0,0,1-.7-1.569,2.237,2.237,0,0,1,.7-1.57A2.138,2.138,0,0,1-96.082-11.656Zm-2.585.635A1.778,1.778,0,0,0-99-9.746a2.046,2.046,0,0,0,.336.772c.087-.085.169-.173.247-.266a2.223,2.223,0,0,1,.323-.3l-.036-.069-.046-.091-.046-.09a1.147,1.147,0,0,1-.039-.8,1.019,1.019,0,0,1,.563-.564,1.29,1.29,0,0,1,.831.039,1.09,1.09,0,0,1,.508.688,1.287,1.287,0,0,1-.224.889l.058.04a1.761,1.761,0,0,1,.479.531,1.253,1.253,0,0,0,.4-.809,1.837,1.837,0,0,0-.4-1.3,1.682,1.682,0,0,0-1.127-.579A1.752,1.752,0,0,0-98.667-11.021Zm.824.428a.586.586,0,0,0-.12.411.889.889,0,0,0,.268.47.7.7,0,0,0,.47.1.867.867,0,0,0,.47-.369.776.776,0,0,0,0-.51.838.838,0,0,0-.468-.363A.647.647,0,0,0-97.843-10.593Zm-.137,1.422a.918.918,0,0,0-.352.533,1.726,1.726,0,0,0,1.233.322,2.326,2.326,0,0,0,.78-.322,1.155,1.155,0,0,0-.555-.647.3.3,0,0,0-.217.009c-.084,0-.168,0-.252,0h-.133a.51.51,0,0,1-.191-.027C-97.788-9.321-97.881-9.234-97.98-9.172Z" transform="translate(159.35 14.15)" fill="#fff"/>
    <path id="Path_3161" data-name="Path 3161" d="M-25.765-.11a.24.24,0,0,1,.166.092,2.005,2.005,0,0,1,0,.268l.061.023a.424.424,0,0,1,.172.207l.053.1.054.1.055.1q.072.135.142.271l.036.057a.789.789,0,0,1,.041.321v.075c0,.082,0,.165,0,.247q0,.089,0,.177,0,.241,0,.482,0,.151,0,.3,0,.525,0,1.05,0,.489,0,.979,0,.42,0,.841,0,.251,0,.5t0,.472q0,.087,0,.173c0,.526,0,.526-.143.72a.606.606,0,0,1-.466.2l-.2,0h-.1a.709.709,0,0,1-.544-.174l-.049-.06-.05-.06a.624.624,0,0,1-.081-.391V6.892q0-.12,0-.24l0-.172q-.01-.79-.014-1.58,0-.53-.01-1.061-.007-.463-.008-.927c0-.163,0-.326-.005-.489a3,3,0,0,1,.52-2.1l.1-.067A.573.573,0,0,0-26,.1a.763.763,0,0,1,.034-.151C-25.868-.118-25.868-.118-25.765-.11Zm-.069.7-.117.231-.034.066a.513.513,0,0,0-.083.24h.57l-.268-.537Zm-.369.906V6.224h.839V1.492Zm0,5.134-.006.245,0,.077a.351.351,0,0,0,.056.245.545.545,0,0,0,.35.078l.124,0a.468.468,0,0,0,.285-.112.615.615,0,0,0,.036-.306l0-.231Z" transform="translate(96.012 1.636)" fill="#fff"/>
    <path id="Path_3162" data-name="Path 3162" d="M-17.8-.349h1.5l.734,0,.568,0h.83a.815.815,0,0,1,.623.211.945.945,0,0,1,.127.565c0,.033,0,.067,0,.1q0,.105,0,.21c0,.107,0,.214,0,.32q0,.1,0,.205v.1a.753.753,0,0,1-.154.49.552.552,0,0,1-.437.172h-1.531l-.748,0h-1.425a.711.711,0,0,1-.544-.164.58.58,0,0,1-.152-.4V1.161q0-.107,0-.213c0-.108,0-.217,0-.325q0-.1,0-.207l0-.1a.726.726,0,0,1,.15-.494A.682.682,0,0,1-17.8-.349Zm-.2.475a.5.5,0,0,0-.009.136V.532q0,.1,0,.2c0,.1,0,.2,0,.3q0,.1,0,.191v.251c0,.07,0,.07.076.128a.687.687,0,0,0,.16.009h3.8c.078,0,.078,0,.138-.076a.5.5,0,0,0,.009-.136c0-.042,0-.042,0-.085V1.128q0-.1,0-.2c0-.1,0-.2,0-.3q0-.1,0-.191V.346c0-.028,0-.056,0-.085s0-.049,0-.075c0-.07,0-.07-.076-.128a.687.687,0,0,0-.16-.009h-3.8C-17.939.052-17.939.052-18,.125Z" transform="translate(84.251 10.587)" fill="#fff"/>
    <path id="Path_3163" data-name="Path 3163" d="M-13.306-.243h2.429l1.188,0h2.505a.5.5,0,0,1,.361.114A.315.315,0,0,1-6.857.12a.531.531,0,0,1-.332.057h-6.256A.422.422,0,0,1-13.734.1a.237.237,0,0,1-.034-.134.616.616,0,0,1,.1-.168A1.077,1.077,0,0,1-13.306-.243Z" transform="translate(73.645 7.058)" fill="#fff"/>
    <path id="Path_3164" data-name="Path 3164" d="M-8.095-.24h2.576l1.222,0H-1.72a.425.425,0,0,1,.257.057.37.37,0,0,1,0,.292c-.067.067-.2.039-.294.039h-.564l-.658,0h-.226l-.94,0-1.35,0-.948,0-.567,0H-8.085a.828.828,0,0,1-.19-.022.359.359,0,0,1-.1-.168C-8.324-.224-8.285-.239-8.095-.24Z" transform="translate(68.253 8.431)" fill="#fff"/>
    <path id="Path_3165" data-name="Path 3165" d="M-26.835-2.062c.281.254.281.254.294.453v.387q0,.111,0,.222c0,.113,0,.226,0,.338q0,.108,0,.216l0,.1a.816.816,0,0,1-.208.6.827.827,0,0,1-.613.1.724.724,0,0,1-.372-.387,1.691,1.691,0,0,1-.041-.449v-.1q0-.1,0-.2c0-.1,0-.2,0-.307q0-.1,0-.2v-.092a.866.866,0,0,1,.171-.588l.06-.046.06-.048A.681.681,0,0,1-26.835-2.062Zm-.435.361c-.12.131-.1.247-.1.419v.1q0,.1,0,.2c0,.1,0,.208,0,.313q0,.1,0,.2v.094a.388.388,0,0,0,.1.325A.189.189,0,0,0-27.092,0c.089-.027.089-.027.145-.132a.6.6,0,0,0,.009-.145V-.564q0-.1,0-.205c0-.1,0-.21,0-.315q0-.1,0-.2v-.184c0-.026,0-.051,0-.078a.24.24,0,0,0-.113-.168C-27.146-1.763-27.172-1.753-27.27-1.7Z" transform="translate(97.361 16.15)" fill="#fff"/>
    <path id="Path_3166" data-name="Path 3166" d="M-8.644-.122H-4.6c.079.008.079.008.18.075a.3.3,0,0,1,.006.243.187.187,0,0,1-.107.092c-.057,0-.114,0-.17,0H-6.277l-.776,0H-8.735a.228.228,0,0,1-.18-.113.222.222,0,0,1-.006-.208C-8.848-.135-8.768-.122-8.644-.122Z" transform="translate(68.826 9.655)" fill="#fff"/>
    <path id="Path_3167" data-name="Path 3167" d="M-10.664-.236h1.532l.749,0h1.625A.525.525,0,0,1-6.5-.13.222.222,0,0,1-6.471,0a.232.232,0,0,1-.134.168c-.057,0-.114,0-.17,0h-4.045C-10.9.172-10.9.172-11,.1a.237.237,0,0,1-.034-.134.616.616,0,0,1,.1-.168A.75.75,0,0,1-10.664-.236Z" transform="translate(70.912 11.111)" fill="#fff"/>
    <path id="Path_3168" data-name="Path 3168" d="M-7.546-.463h.362l.423,0h.145l.6,0,.867,0,.609,0,.364,0h.406l.122,0h.209c.08.021.08.021.143.1A.185.185,0,0,1-3.278-.2a.332.332,0,0,1-.075.109c-.056,0-.113,0-.169.005h-.362l-.423,0h-.145l-.6,0-.867,0-.609,0-.364,0H-7.3l-.122,0h-.209c-.08-.021-.08-.021-.143-.1a.185.185,0,0,1-.013-.181C-7.721-.475-7.688-.462-7.546-.463Z" transform="translate(67.693 12.713)" fill="#fff"/>
    <path id="Path_3169" data-name="Path 3169" d="M-25.378-1.242a.631.631,0,0,1,.323.408.725.725,0,0,1-.088.51.585.585,0,0,1-.407.242.691.691,0,0,1-.57-.2.709.709,0,0,1-.132-.533.677.677,0,0,1,.325-.422A.847.847,0,0,1-25.378-1.242Zm-.411.412c-.08.088-.08.088-.073.185a.285.285,0,0,0,.17.18.656.656,0,0,0,.2-.067.35.35,0,0,0-.034-.336C-25.648-.921-25.678-.911-25.788-.83Z" transform="translate(93.354 15.304)" fill="#fff"/>
    <path id="Path_3170" data-name="Path 3170" d="M-25.973-1.535a.674.674,0,0,1,.306.426.669.669,0,0,1-.084.476.623.623,0,0,1-.417.244.705.705,0,0,1-.5-.123.666.666,0,0,1-.207-.473.666.666,0,0,1,.207-.473A.727.727,0,0,1-25.973-1.535Zm-.449.4a.558.558,0,0,0-.034.235c.056.1.056.1.145.134.1.009.1.009.187-.071s.08-.088.073-.185a.335.335,0,0,0-.17-.18A.276.276,0,0,0-26.422-1.136Z" transform="translate(92.708 15.606)" fill="#fff"/>
    <path id="Path_3171" data-name="Path 3171" d="M-24.652-1.153a.619.619,0,0,1,.326.353.684.684,0,0,1-.06.563.63.63,0,0,1-.387.244A.749.749,0,0,1-25.3-.116a.662.662,0,0,1-.2-.478.559.559,0,0,1,.171-.4A.649.649,0,0,1-24.652-1.153Zm-.405.412a.418.418,0,0,0-.034.235.227.227,0,0,0,.134.134.274.274,0,0,0,.231-.092.185.185,0,0,0,.038-.161c-.044-.108-.1-.133-.2-.182A.253.253,0,0,0-25.057-.741Z" transform="translate(91.343 16.519)" fill="#fff"/>
    <path id="Path_3172" data-name="Path 3172" d="M-23.5-.491a.653.653,0,0,1,.362.377.685.685,0,0,1-.06.563.6.6,0,0,1-.412.242.678.678,0,0,1-.461-.107.647.647,0,0,1-.245-.476.641.641,0,0,1,.2-.484A.768.768,0,0,1-23.5-.491Zm-.369.436A.482.482,0,0,0-23.9.18a.347.347,0,0,0,.164.134c.082.007.082.007.166-.071s.082-.088.075-.185a.335.335,0,0,0-.17-.18A.276.276,0,0,0-23.866-.055Z" transform="translate(90.152 13.216)" fill="#fff"/>
    <path id="Path_3173" data-name="Path 3173" d="M-25.272-1.314a.8.8,0,0,1,.327.4.724.724,0,0,1-.134.57.617.617,0,0,1-.457.185.655.655,0,0,1-.474-.2.709.709,0,0,1-.132-.533.677.677,0,0,1,.325-.422A.856.856,0,0,1-25.272-1.314Zm-.369.369a.227.227,0,0,0-.113.145c0,.1,0,.1.075.185s.089.08.187.071c.088-.03.088-.03.145-.134a1.4,1.4,0,0,0-.034-.235A.243.243,0,0,0-25.641-.945Z" transform="translate(93.244 16.692)" fill="#fff"/>
    <path id="Path_3174" data-name="Path 3174" d="M-23.229-.395a.608.608,0,0,1,.352.294.735.735,0,0,1,.015.552.794.794,0,0,1-.4.329.708.708,0,0,1-.57-.134.611.611,0,0,1-.2-.442A.666.666,0,0,1-23.778-.3.725.725,0,0,1-23.229-.395Zm-.329.424c-.079.073-.079.073-.094.164.016.091.016.091.092.166.1.066.1.066.208.027l.09-.042A.35.35,0,0,0-23.3.008.229.229,0,0,0-23.558.029Z" transform="translate(93.642 13.12)" fill="#fff"/>
    <path id="Path_3175" data-name="Path 3175" d="M-24.639-1.1a.755.755,0,0,1,.333.345,1.029,1.029,0,0,1-.057.556.666.666,0,0,1-.52.262.6.6,0,0,1-.463-.18.7.7,0,0,1-.147-.5.63.63,0,0,1,.25-.425A.746.746,0,0,1-24.639-1.1Zm-.405.412a.425.425,0,0,0-.034.268.2.2,0,0,0,.134.1.284.284,0,0,0,.231-.092.185.185,0,0,0,.038-.161c-.044-.108-.1-.133-.2-.182A.349.349,0,0,0-25.044-.687Z" transform="translate(93.847 16.465)" fill="#fff"/>
    <path id="Path_3176" data-name="Path 3176" d="M-25.363-1.242a.63.63,0,0,1,.323.408.644.644,0,0,1-.1.5.653.653,0,0,1-.495.245A.648.648,0,0,1-26.124-.3a.786.786,0,0,1-.114-.514.679.679,0,0,1,.325-.422A.847.847,0,0,1-25.363-1.242Zm-.406.414c-.084.086-.084.086-.078.182a.285.285,0,0,0,.17.18.656.656,0,0,0,.2-.067.744.744,0,0,0,.034-.235A.284.284,0,0,0-25.576-.9C-25.684-.911-25.684-.911-25.769-.828Z" transform="translate(93.339 13.995)" fill="#fff"/>
    <path id="Path_3177" data-name="Path 3177" d="M-25.9-1.553a.881.881,0,0,1,.289.331.843.843,0,0,1-.1.6.63.63,0,0,1-.476.214.6.6,0,0,1-.463-.18.7.7,0,0,1-.147-.5.639.639,0,0,1,.266-.444A.762.762,0,0,1-25.9-1.553Zm-.422.369c-.071.061-.071.061-.073.164a.243.243,0,0,0,.08.2.181.181,0,0,0,.134.034.315.315,0,0,0,.206-.18c0-.1,0-.1-.08-.182C-26.159-1.233-26.2-1.246-26.318-1.183Z" transform="translate(95.148 14.315)" fill="#fff"/>
    <path id="Path_3178" data-name="Path 3178" d="M-24.681-1.265a.746.746,0,0,1,.332.344,1.029,1.029,0,0,1-.057.556.666.666,0,0,1-.52.262.6.6,0,0,1-.463-.18.7.7,0,0,1-.147-.5.639.639,0,0,1,.266-.444A.715.715,0,0,1-24.681-1.265Zm-.407.412a.407.407,0,0,0-.034.268.252.252,0,0,0,.168.1.3.3,0,0,0,.235-.168.266.266,0,0,0-.1-.229C-24.928-.945-24.982-.915-25.088-.854Z" transform="translate(93.89 15.324)" fill="#fff"/>
  </g>
</svg>
