<svg xmlns="http://www.w3.org/2000/svg" width="24.5" height="22.826" viewBox="0 0 24.5 22.826">
  <g id="box_1_" data-name="box (1)" transform="translate(-9 485.9)">
    <path id="Path_3918" data-name="Path 3918" d="M13.855-483.21c-2.557,1.479-4.691,2.735-4.751,2.785l-.1.094v5.5c0,5.168,0,5.506.089,5.6.114.139,9.457,5.521,9.577,5.521.05,0,1.211-.64,2.572-1.43l2.482-1.425.025,1.216c.025,1.2.025,1.221.159,1.47a1.645,1.645,0,0,0,.7.675l.209.114,3.728.015c3.649.01,3.738.01,4-.089a1.456,1.456,0,0,0,.819-.735l.139-.283v-10.773l-.1-.228a1.717,1.717,0,0,0-.76-.755,2.313,2.313,0,0,0-1.028-.124l-.8-.02-.074-.159a1.393,1.393,0,0,0-.556-.591c-.184-.094-.293-.109-1.033-.124l-.834-.02v-1.673c0-1.673,0-1.678-.109-1.777-.065-.06-2.2-1.316-4.766-2.79-3.3-1.906-4.687-2.686-4.791-2.681S16.879-484.957,13.855-483.21Zm6.742-.849c1.5.864,1.9,1.112,1.847,1.157s-1.966,1.157-4.294,2.5l-4.23,2.443L12-479.069c-1.052-.606-1.911-1.112-1.911-1.127s8.489-4.955,8.554-4.96C18.666-485.161,19.545-484.664,20.6-484.059Zm4.667,2.691c1.946,1.127,2.011,1.167,1.9,1.236-.065.04-2,1.162-4.3,2.492a45.3,45.3,0,0,1-4.27,2.373c-.045-.025-.943-.546-2.006-1.157s-1.921-1.122-1.921-1.142,8.534-4.965,8.574-4.965C23.238-482.53,24.152-482.008,25.264-481.368ZM15.419-476.3l2.914,1.678v9.959l-.854-.5c-.472-.273-2.418-1.39-4.319-2.487l-3.465-2V-479.6l1.4.809C11.87-478.344,13.811-477.222,15.419-476.3Zm12.2-1.991v1.311l-.184.035a1.258,1.258,0,0,0-.9.7l-.065.154-.8.02c-.765.015-.819.02-1.087.154a1.493,1.493,0,0,0-.7.725c-.1.223-.1.3-.129,4.021l-.025,3.788-1.415.819c-.779.452-1.832,1.062-2.343,1.36l-.933.536v-9.959l4.284-2.482c2.353-1.37,4.284-2.492,4.294-2.492S27.617-479.01,27.617-478.29Zm2.363,2.184a.435.435,0,0,1,.169.352.435.435,0,0,1-.169.352l-.169.169H27.458l-.169-.169a.435.435,0,0,1-.169-.352.435.435,0,0,1,.169-.352l.169-.169h2.353Zm-3.426.9a1.41,1.41,0,0,0,.7.611,8.606,8.606,0,0,0,1.4.06c1.112,0,1.231-.01,1.435-.1a1.178,1.178,0,0,0,.6-.556l.1-.189.76.015c.735.015.765.02.933.149.362.278.343-.119.328,5.719-.015,5.2-.015,5.238-.119,5.372a1.354,1.354,0,0,1-.238.238c-.134.1-.179.1-3.828.1s-3.694,0-3.828-.1a1.354,1.354,0,0,1-.238-.238c-.1-.134-.1-.174-.119-5.307,0-2.845,0-5.243.015-5.332a.859.859,0,0,1,.447-.541,3.158,3.158,0,0,1,.854-.069h.7Z" fill="#ed1c24"/>
    <path id="Path_3919" data-name="Path 3919" d="M337.109-233.886c-.1.109-.109.159-.109,1.057,0,.923,0,.948.114,1.052a.814.814,0,0,0,.829.01c.184-.184.065-.6-.174-.6-.06,0-.074-.084-.074-.472v-.472h.472c.432,0,.477.01.591.124a.274.274,0,0,0,.452,0,.406.406,0,0,0,.124-.348.406.406,0,0,0-.124-.348c-.119-.124-.129-.124-1.057-.124S337.213-234,337.109-233.886Z" transform="translate(-311.716 -239.395)" fill="#ed1c24"/>
    <path id="Path_3920" data-name="Path 3920" d="M355.879-226.454l-.541.541-.213-.194c-.263-.243-.452-.263-.611-.065s-.094.338.318.745c.521.516.487.526,1.38-.372.586-.586.735-.76.735-.869a.349.349,0,0,0-.362-.333C356.445-227,356.351-226.926,355.879-226.454Z" transform="translate(-328.287 -246.047)" fill="#ed1c24"/>
    <path id="Path_3921" data-name="Path 3921" d="M414.216-216.886a.315.315,0,0,0,.005.472c.114.1.154.109,1.321.109h1.2l.119-.124a.394.394,0,0,0,.124-.223.38.38,0,0,0-.124-.223l-.119-.124h-1.211C414.33-217,414.32-217,414.216-216.886Z" transform="translate(-385 -255.551)" fill="#ed1c24"/>
    <path id="Path_3922" data-name="Path 3922" d="M337.083-169.913c-.1.109-.109.159-.109,1.057,0,1.251-.089,1.162,1.172,1.162s1.162.089,1.162-1.172.089-1.162-1.172-1.162C337.212-170.027,337.187-170.022,337.083-169.913Zm1.529,1.052v.472h-.943v-.943h.943Z" transform="translate(-311.69 -300.191)" fill="#ed1c24"/>
    <path id="Path_3923" data-name="Path 3923" d="M414.216-152.886a.315.315,0,0,0,.005.472c.114.1.154.109,1.321.109h1.2l.119-.124a.394.394,0,0,0,.124-.223.394.394,0,0,0-.124-.223l-.119-.124h-1.211C414.33-153,414.32-153,414.216-152.886Z" transform="translate(-385 -316.374)" fill="#ed1c24"/>
    <path id="Path_3924" data-name="Path 3924" d="M337.124-105.876c-.124.119-.124.129-.124,1.057s0,.938.114,1.043a.814.814,0,0,0,.829.01c.184-.184.065-.6-.174-.6-.06,0-.074-.084-.074-.472v-.472h.472c.377,0,.472.015.472.07,0,.094.238.278.357.278a.389.389,0,0,0,.213-.124c.1-.1.124-.169.124-.4s-.02-.3-.124-.4c-.119-.124-.129-.124-1.043-.124S337.243-106,337.124-105.876Z" transform="translate(-311.716 -361.04)" fill="#ed1c24"/>
    <path id="Path_3925" data-name="Path 3925" d="M356.135-97.459l-.551.546-.209-.2a.659.659,0,0,0-.333-.194.35.35,0,0,0-.343.343c0,.134.06.223.367.531.526.531.5.541,1.4-.367.779-.784.829-.879.63-1.092A.36.36,0,0,0,356.84-98C356.711-98,356.6-97.916,356.135-97.459Z" transform="translate(-328.538 -368.643)" fill="#ed1c24"/>
    <path id="Path_3926" data-name="Path 3926" d="M414.216-88.886a.315.315,0,0,0,.005.472c.114.1.154.109,1.321.109h1.2l.119-.124a.394.394,0,0,0,.124-.223.394.394,0,0,0-.124-.223L416.743-89h-1.211C414.33-89,414.32-89,414.216-88.886Z" transform="translate(-385 -377.196)" fill="#ed1c24"/>
  </g>
</svg>
