<svg xmlns="http://www.w3.org/2000/svg" width="19.171" height="20.299" viewBox="0 0 19.171 20.299">
  <g id="accounting_1_" data-name="accounting (1)" transform="translate(-14.652 511.602)">
    <path id="Path_2886" data-name="Path 2886" d="M17.542-511.562a3.408,3.408,0,0,0-1.349.551,3.533,3.533,0,0,0-1.063,4.69,4.05,4.05,0,0,0,.992,1.075,3.7,3.7,0,0,0,1.591.635l.206.028v4.829c0,5.206-.008,4.987.2,5.281a1.06,1.06,0,0,0,.286.234l.206.119h7.078l.012,1.163.012,1.167.111.167a.711.711,0,0,0,.278.246c.159.071.313.075,3.654.075,3.464,0,3.492,0,3.662-.083a.647.647,0,0,0,.282-.266l.107-.186.012-4.793c0-3.234,0-4.845-.032-4.948a.779.779,0,0,0-.417-.48c-.147-.067-.294-.075-1.774-.075H29.981v-4.345l-1.754-1.75c-.968-.96-1.841-1.821-1.944-1.912l-.19-.167h-5.17l-.3-.29a3.458,3.458,0,0,0-1.587-.9A4.31,4.31,0,0,0,17.542-511.562Zm1.2.484a3.123,3.123,0,0,1,2.031,1.424,3.06,3.06,0,0,1,.143,2.829,2.979,2.979,0,0,1-2.583,1.746,2.894,2.894,0,0,1-1.813-.468,3.727,3.727,0,0,1-.992-1.032,3.117,3.117,0,0,1-.242-2.492A3.037,3.037,0,0,1,18.741-511.078Zm7.114,2.02v.774H21.689l-.016-.091c-.008-.048-.036-.214-.063-.365a5.04,5.04,0,0,0-.337-1.024c-.028-.064.1-.067,2.277-.067h2.305Zm2.127,2.432c-1.309.012-1.412,0-1.559-.226-.091-.135-.091-.151-.091-1.369v-1.234l1.409,1.409,1.409,1.409Zm-2.123-.7c.016.452.024.5.127.678a.967.967,0,0,0,.627.46,14.994,14.994,0,0,0,1.543.044H29.5v4.007H26.319l-.091-.1-.091-.1H23.918c-2.436,0-2.361-.008-2.361.238s-.063.238,2.218.238h2.071l-.063.127a2.005,2.005,0,0,0-.079.754l-.012.627H21.653l-.06.087c-.087.123-.079.179.036.29l.1.1H25.7v.4h-1.94c-1.174,0-1.984.016-2.043.04a.221.221,0,0,0-.127.337l.063.1H25.7v1.508h-4l-.079.1c-.1.131-.1.194,0,.294.075.075.131.079,2.083.079h2v.436h-2c-1.952,0-2.008,0-2.083.079-.1.1-.1.163,0,.294l.079.1h4v1.508H22.2a20.387,20.387,0,0,1-3.6-.067c-.218-.143-.21.067-.21-5.126v-4.8l.226-.028a4.994,4.994,0,0,0,.548-.119c.218-.063.321-.079.333-.048a.607.607,0,0,0,.111.139c.091.091.1.091.79.079.635-.012.7-.02.754-.087a2.083,2.083,0,0,0,.056-.778,4.241,4.241,0,0,0-.036-.738c-.024-.02.028-.171.135-.389a3.685,3.685,0,0,0,.337-1.151v-.1h4.2Zm-5.122,1.956v.337h-.349a1.8,1.8,0,0,1-.377-.024c-.012-.016.079-.1.2-.194a4.072,4.072,0,0,0,.365-.309c.075-.075.143-.139.151-.143S20.736-505.555,20.736-505.369Zm12.518,3.809.1.1v4.725c0,4.765,0,4.841-.135,4.928-.024.016-1.583.032-3.464.032-3.373,0-3.424,0-3.5-.079s-.079-.131-.079-4.86,0-4.781.079-4.86.131-.079,3.492-.079h3.416Z" fill="#fff"/>
    <path id="Path_2887" data-name="Path 2887" d="M68.308-489.513c-.091.067-.107.111-.107.294v.21l-.147.028a1.456,1.456,0,0,0-.968.706,1.138,1.138,0,0,0,0,.809,1.456,1.456,0,0,0,.968.706l.147.028v.67c0,.738.008.718-.25.611a.723.723,0,0,1-.48-.583c-.048-.21-.262-.3-.4-.167-.159.159,0,.682.278.928a1.817,1.817,0,0,0,.678.349c.151.032.151.032.171.262s.1.341.238.341.214-.107.238-.337l.02-.23.179-.048c.98-.25,1.333-1.218.667-1.833a1.544,1.544,0,0,0-.682-.373l-.183-.044v-1.349l.111.028a.832.832,0,0,1,.627.615c.036.19.083.238.234.238.171,0,.238-.087.226-.305a1.254,1.254,0,0,0-1.047-1.024l-.151-.028v-.206C68.677-489.536,68.506-489.671,68.308-489.513ZM68.2-487.87c0,.361-.008.655-.016.655a1.534,1.534,0,0,1-.452-.2.544.544,0,0,1-.155-.754,1.249,1.249,0,0,1,.567-.353C68.189-488.525,68.2-488.4,68.2-487.87Zm.817,1.3a.62.62,0,0,1,.369.678.89.89,0,0,1-.456.444c-.262.107-.254.123-.254-.6v-.655l.111.032A1.567,1.567,0,0,1,69.018-486.569Z" transform="translate(-50.281 -21.149)" fill="#fff"/>
    <path id="Path_2888" data-name="Path 2888" d="M188.079-372.921a.269.269,0,0,0-.079.123.448.448,0,0,0,.135.242c.024.016,1.512.032,3.309.032,3.21,0,3.261,0,3.341-.079a.223.223,0,0,0,.008-.329c-.067-.063-.357-.067-3.353-.067C188.21-373,188.159-373,188.079-372.921Z" transform="translate(-166.47 -133.103)" fill="#fff"/>
    <path id="Path_2889" data-name="Path 2889" d="M188.465-349.9a.221.221,0,0,0,.127.337c.06.024.924.04,2.2.04s2.139-.016,2.2-.04a.221.221,0,0,0,.127-.337l-.063-.1h-4.523Z" transform="translate(-166.879 -155.19)" fill="#fff"/>
    <path id="Path_2890" data-name="Path 2890" d="M137-304.923l-.1.1.012.7c.012.635.02.7.087.754a2.083,2.083,0,0,0,.778.056c.631,0,.71-.008.766-.071s.067-.179.067-.774c0-.924.06-.861-.833-.861C137.106-305.022,137.1-305.022,137-304.923Zm1.135.754v.377h-.754v-.349a1.426,1.426,0,0,1,.028-.377,1.426,1.426,0,0,1,.377-.028h.349Z" transform="translate(-117.398 -198.382)" fill="#fff"/>
    <path id="Path_2891" data-name="Path 2891" d="M188.21-300.9c-.115.115-.123.171-.036.294l.06.087h3.305c3.15,0,3.309,0,3.369-.071a.231.231,0,0,0,.012-.309c-.056-.071-.143-.075-3.333-.087L188.305-301Z" transform="translate(-166.581 -202.246)" fill="#fff"/>
    <path id="Path_2892" data-name="Path 2892" d="M137.122-231.933a2.067,2.067,0,0,0-.067.746c-.016.917-.056.869.73.885a5.765,5.765,0,0,0,.718-.012c.242-.044.25-.071.25-.849,0-.635-.008-.714-.071-.77s-.179-.067-.79-.067S137.17-231.992,137.122-231.933Zm1.155.786v.381l-.365-.012-.369-.012-.012-.369-.012-.365h.758Z" transform="translate(-117.541 -268.508)" fill="#fff"/>
    <path id="Path_2893" data-name="Path 2893" d="M137.083-159.9c-.075.1-.083.159-.083.75s.008.651.083.75l.079.1h.686c.551,0,.7-.012.77-.063s.087-.079.087-.79,0-.73-.087-.79-.218-.063-.77-.063h-.686Zm1.147.75v.377h-.754v-.754h.754Z" transform="translate(-117.494 -337.652)" fill="#fff"/>
    <path id="Path_2894" data-name="Path 2894" d="M313.079-252.921c-.075.075-.079.131-.079,1.289s0,1.214.079,1.289.131.079,3.194.079,3.115,0,3.194-.079.079-.131.079-1.289,0-1.214-.079-1.289-.131-.079-3.194-.079S313.159-253,313.079-252.921Zm5.991,1.289v.893h-5.594v-1.785h5.594Z" transform="translate(-286.51 -248.342)" fill="#fff"/>
    <path id="Path_2895" data-name="Path 2895" d="M313.031-169.929c-.056.063-.067.179-.067.754,0,.913-.083.841.984.841s.98.075.98-.861c0-.639,0-.7-.075-.75a2.732,2.732,0,0,0-.917-.056C313.17-170,313.09-169.992,313.031-169.929Zm1.44.762v.357h-1.032v-.714h1.032Z" transform="translate(-286.474 -328.048)" fill="#fff"/>
    <path id="Path_2896" data-name="Path 2896" d="M371.063-170.117c-.052.052-.063.179-.063.766,0,.635.008.714.071.77a5.613,5.613,0,0,0,1.785,0c.083-.06.087-.083.087-.766,0-.635-.008-.714-.071-.77A5.65,5.65,0,0,0,371.063-170.117Zm1.4.77v.357h-.992v-.714h.992Z" transform="translate(-342.209 -327.868)" fill="#fff"/>
    <path id="Path_2897" data-name="Path 2897" d="M428.027-169.913c-.052.071-.063.218-.063.754,0,.893-.083.825.992.825s.992.067.992-.825c0-.536-.012-.682-.063-.754-.06-.087-.075-.087-.928-.087S428.087-170,428.027-169.913Zm1.444.746v.357H428.44v-.714h1.032Z" transform="translate(-396.911 -328.048)" fill="#fff"/>
    <path id="Path_2898" data-name="Path 2898" d="M313.031-118.929c-.056.063-.067.179-.067.754,0,.913-.083.841.984.841a6.97,6.97,0,0,0,.869-.032c.1-.063.131-.266.131-.8s-.036-.738-.131-.8a7.226,7.226,0,0,0-.885-.032C313.17-119,313.09-118.992,313.031-118.929Zm1.44.762v.357h-1.032v-.714h1.032Z" transform="translate(-286.474 -377.025)" fill="#fff"/>
    <path id="Path_2899" data-name="Path 2899" d="M371.067-118.929c-.06.063-.067.179-.067.77,0,.623.008.7.071.758s.186.067.909.067c.758,0,.837-.008.9-.071s.067-.179.067-.77c0-.623-.008-.7-.071-.758s-.186-.067-.909-.067C371.206-119,371.127-118.992,371.067-118.929Zm1.4.762v.357h-.992v-.714h.992Z" transform="translate(-342.209 -377.025)" fill="#fff"/>
    <path id="Path_2900" data-name="Path 2900" d="M428.043-118.953c-.071.071-.079.131-.079.754,0,.9-.083.833.992.833s.992.071.992-.833.083-.833-.992-.833C428.174-119.032,428.118-119.028,428.043-118.953Zm1.428.754v.357H428.44v-.714h1.032Z" transform="translate(-396.911 -376.993)" fill="#fff"/>
    <path id="Path_2901" data-name="Path 2901" d="M313.063-67.913c-.052.071-.063.214-.063.746s.012.674.063.746c.06.087.075.087.9.087a7.259,7.259,0,0,0,.889-.032c.1-.063.131-.266.131-.8s-.036-.738-.131-.8a7.262,7.262,0,0,0-.889-.032C313.139-68,313.123-68,313.063-67.913Zm1.444.746v.357h-1.032v-.714h1.032Z" transform="translate(-286.51 -426.001)" fill="#fff"/>
    <path id="Path_2902" data-name="Path 2902" d="M371.067-67.929c-.06.063-.067.179-.067.77,0,.623.008.7.071.758s.186.067.909.067c.758,0,.837-.008.9-.071s.067-.179.067-.77c0-.623-.008-.7-.071-.758s-.186-.067-.909-.067C371.206-68,371.127-67.992,371.067-67.929Zm1.4.762v.357h-.992v-.714h.992Z" transform="translate(-342.209 -426.001)" fill="#fff"/>
    <path id="Path_2903" data-name="Path 2903" d="M428.043-67.953c-.071.071-.079.131-.079.754,0,.9-.083.833.992.833s.992.071.992-.833.083-.833-.992-.833C428.174-68.032,428.118-68.028,428.043-67.953Zm1.428.754v.357H428.44v-.714h1.032Z" transform="translate(-396.911 -425.969)" fill="#fff"/>
  </g>
</svg>
