<svg xmlns="http://www.w3.org/2000/svg" width="25.023" height="25.125" viewBox="0 0 25.023 25.125">
  <g id="Group_16006" data-name="Group 16006" transform="translate(22547 23571.59)">
    <path id="Path_1188" data-name="Path 1188" d="M200.853-512.752c-.091.023-.56.1-1.029.172a12.622,12.622,0,0,0-7.788,4.837,14.1,14.1,0,0,0-2.127,4.369,9.3,9.3,0,0,0-.309,3.145,9.3,9.3,0,0,0,.309,3.145,12.934,12.934,0,0,0,6.6,8.143,14.151,14.151,0,0,0,3.682,1.178,15.966,15.966,0,0,0,5.009-.229,12.271,12.271,0,0,0,5.627-3.179,12.788,12.788,0,0,0,3.488-5.912,9.3,9.3,0,0,0,.309-3.145,9,9,0,0,0-.309-3.111,12.689,12.689,0,0,0-9.618-9.195A20.265,20.265,0,0,0,200.853-512.752Zm3.831,2.573a10.251,10.251,0,0,1,7.685,9.492,10.286,10.286,0,0,1-14.055,10.052,10.437,10.437,0,0,1-6.279-7.479,10.346,10.346,0,0,1,8.211-12.237A12.093,12.093,0,0,1,204.684-510.179Z" transform="translate(-22736.6 -23058.805)" fill="#fff"/>
    <path id="Path_1189" data-name="Path 1189" d="M269.377-472.71c-.423.263-.549.606-.549,1.51,0,.766-.011.789-.354.926a3.8,3.8,0,0,0-.892.686,3.4,3.4,0,0,0,.869,5.478,5.765,5.765,0,0,0,1.258.354c.652.08.835.16,1.1.457a1,1,0,0,1,.137,1.258c-.412.8-1.464.766-2.23-.057-.652-.7-1.418-.789-1.956-.217a1.162,1.162,0,0,0,.057,1.567,5.549,5.549,0,0,0,1.841,1.338c.1,0,.16.274.183.983.046.9.069.995.366,1.258a1.125,1.125,0,0,0,.766.274,1.125,1.125,0,0,0,.766-.274c.3-.252.32-.354.354-1.247s.069-.983.3-1.041a2.806,2.806,0,0,0,.8-.537,3.4,3.4,0,0,0-1.727-5.958c-.972-.149-1.269-.286-1.475-.686a.976.976,0,0,1,.229-1.3c.56-.56,1.155-.492,2.047.252a1.149,1.149,0,0,0,1.853-1.1,3.009,3.009,0,0,0-1.487-1.4l-.515-.252v-.789c0-.869-.194-1.349-.652-1.555A1.089,1.089,0,0,0,269.377-472.71Z" transform="translate(-22804.48 -23094.135)" fill="#fff"/>
  </g>
</svg>
