<svg xmlns="http://www.w3.org/2000/svg" width="14.878" height="16.468" viewBox="0 0 14.878 16.468">
  <g id="payment-method" transform="translate(-61.832 470.935)">
    <path id="Path_3098" data-name="Path 3098" d="M86.581-470.861a2.372,2.372,0,0,0-1.682,1.59l-.046.153-2.793.019a13.216,13.216,0,0,0-2.927.092,1.422,1.422,0,0,0-.51.5c-.08.149-.084.192-.1,1.866l-.011,1.716H77.038c-1.448,0-1.479,0-1.624.084a.561.561,0,0,0-.226.245c-.077.153-.077.218-.069,2.21s.011,2.053.092,2.157a1.047,1.047,0,0,0,.184.184c.1.08.13.08,3.77.08H82.83l.119-.084a.908.908,0,0,0,.192-.192c.069-.1.073-.215.073-2.2,0-2.065,0-2.1-.08-2.2a1.127,1.127,0,0,0-.207-.2l-.126-.084H79.015l.011-1.62c.011-1.548.015-1.624.088-1.751a.787.787,0,0,1,.211-.211c.13-.077.188-.077,2.8-.077h2.662l.027.234a2.115,2.115,0,0,0,.241.82,2.331,2.331,0,0,0,1.582,1.23l.238.05v8.911l-3.915-.008-3.919-.011-.011-.954c-.008-.824-.019-.965-.073-1.027a.261.261,0,0,0-.356.008c-.073.073-.077.126-.077,2.023,0,2.249-.008,2.187.326,2.525s.092.322,4.2.31l3.578-.011.2-.1a1.1,1.1,0,0,0,.487-.506l.084-.157.011-5.5.008-5.5.234-.046a2.356,2.356,0,0,0,1.843-2.253,2.105,2.105,0,0,0-.238-1.073A2.328,2.328,0,0,0,86.581-470.861Zm1.222.571a1.876,1.876,0,0,1,1.165,1.555,1.882,1.882,0,0,1-1.406,1.931,1.851,1.851,0,0,1-2.222-1.513,1.853,1.853,0,0,1,1.264-2.015A2.243,2.243,0,0,1,87.8-470.29ZM82.7-464v.383H75.647v-.766H82.7Zm0,1.168v.249H75.647v-.5H82.7Zm0,1.571v.785H75.647v-1.571H82.7Zm4.176,5.156c0,.778-.027.893-.249,1.031-.123.077-.18.077-3.662.077-3.444,0-3.544,0-3.662-.077-.23-.138-.257-.245-.272-1.027l-.015-.7h7.861Z" transform="translate(-12.774 0)" fill="#fff"/>
    <path id="Path_3099" data-name="Path 3099" d="M363.517-436.936c-.034.027-.257.349-.5.709l-.437.663-.134-.138c-.234-.245-.375-.28-.54-.138-.146.123-.088.264.241.6s.441.395.571.326a11.568,11.568,0,0,0,1.188-1.808A.253.253,0,0,0,363.517-436.936Z" transform="translate(-288.508 -32.653)" fill="#fff"/>
    <path id="Path_3100" data-name="Path 3100" d="M102.61-224.935c-.107.123-.115.222-.027.329l.077.1h.9c.847,0,.9,0,.973-.077a.283.283,0,0,0,.077-.172.283.283,0,0,0-.077-.172c-.073-.073-.126-.077-.969-.077C102.759-225,102.663-224.992,102.61-224.935Z" transform="translate(-39.132 -236.513)" fill="#fff"/>
    <path id="Path_3101" data-name="Path 3101" d="M164.142-224.923a.247.247,0,0,0-.015.337c.054.08.084.084.575.084.464,0,.521-.008.59-.077a.283.283,0,0,0,.077-.172.283.283,0,0,0-.077-.172c-.069-.069-.126-.077-.575-.077S164.211-224.992,164.142-224.923Z" transform="translate(-98.319 -236.513)" fill="#fff"/>
    <path id="Path_3102" data-name="Path 3102" d="M260.161-95.419a.658.658,0,0,0-.276,1.084.648.648,0,0,0,1.084-.609A.638.638,0,0,0,260.161-95.419Z" transform="translate(-190.289 -361.106)" fill="#fff"/>
    <path id="Path_3103" data-name="Path 3103" d="M130.065-422.836c-.057.061-.065.18-.065.839,0,.713,0,.77.077.835a.308.308,0,0,0,.172.065.308.308,0,0,0,.172-.065c.073-.065.077-.123.077-.843,0-.7-.008-.778-.069-.835A.293.293,0,0,0,130.065-422.836Z" transform="translate(-65.556 -46.194)" fill="#fff"/>
    <path id="Path_3104" data-name="Path 3104" d="M79.084-406.9a.2.2,0,0,0-.084.184c0,.107.069.188.548.667a3.292,3.292,0,0,0,.624.544.244.244,0,0,0,.245-.26c0-.126-.042-.18-.529-.667C79.333-406.99,79.264-407.028,79.084-406.9Z" transform="translate(-16.51 -61.522)" fill="#fff"/>
    <path id="Path_3105" data-name="Path 3105" d="M198.356-388.9a.377.377,0,0,0-.138.521.378.378,0,0,0,.709-.192A.377.377,0,0,0,198.356-388.9Z" transform="translate(-131.112 -78.838)" fill="#fff"/>
    <path id="Path_3106" data-name="Path 3106" d="M225.477-388.9a.36.36,0,0,0-.126.41.388.388,0,0,0,.736,0,.4.4,0,0,0-.368-.506A.386.386,0,0,0,225.477-388.9Z" transform="translate(-157.233 -78.796)" fill="#fff"/>
    <path id="Path_3107" data-name="Path 3107" d="M253.057-388.841a.383.383,0,0,0,.253.655.633.633,0,0,0,.215-.038.508.508,0,0,0,.188-.341A.387.387,0,0,0,253.057-388.841Z" transform="translate(-183.79 -78.844)" fill="#fff"/>
    <path id="Path_3108" data-name="Path 3108" d="M61.942-354.958a.272.272,0,0,0,.038.46,5.366,5.366,0,0,0,.774.034c.632,0,.69-.008.785-.08a.249.249,0,0,0,.023-.379C63.49-355,63.436-355,62.75-355A4.269,4.269,0,0,0,61.942-354.958Z" transform="translate(0 -111.494)" fill="#fff"/>
  </g>
</svg>
