<svg xmlns="http://www.w3.org/2000/svg" width="12.192" height="10.879" viewBox="0 0 12.192 10.879">
  <g id="shopping-cart-_2_" transform="translate(-0.223 484.1)">
    <path id="Path_3070" data-name="Path 3070" d="M.385-484.045a.355.355,0,0,0,.01.6c.062.048.1.05.837.057.689.007.773.012.806.048s1.5,5.428,1.65,6.043c.017.062.012.067-.055.067a1.21,1.21,0,0,0-.479.165,1.11,1.11,0,0,0,.112,1.941l.2.1.393.007c.446.01.4-.019.329.243a1.27,1.27,0,0,0,.1.878,1.5,1.5,0,0,0,.532.539,1.271,1.271,0,0,0,1.226-.045,1.218,1.218,0,0,0,.539-.672,1.387,1.387,0,0,0-.041-.909,5.827,5.827,0,0,1,1.111-.029H8.784l-.017.052a1.428,1.428,0,0,0-.086.5,1.181,1.181,0,0,0,.365.878,1.184,1.184,0,0,0,.878.362,1.242,1.242,0,0,0,1.2-.913,1.378,1.378,0,0,0-.045-.8c-.033-.081-.031-.083.036-.124a.351.351,0,0,0-.026-.608l-.1-.055H7.32a26.114,26.114,0,0,1-3.761-.048.4.4,0,0,1,0-.7,33.712,33.712,0,0,1,3.613-.041c2.287,0,3.572-.01,3.656-.024a.907.907,0,0,0,.639-.489c.029-.062.258-1,.508-2.082.5-2.17.489-2.1.365-2.354a.705.705,0,0,0-.329-.327c-.1-.055-.11-.055-1.412-.069-.72-.01-2.53-.019-4.018-.021s-2.862-.012-3.052-.021l-.346-.014-.217-.8c-.117-.441-.236-.847-.26-.9a.988.988,0,0,0-.41-.4l-.138-.064-.847-.007L.466-484.1Zm4.064,2.881H5l.1.768c.055.424.1.789.1.811,0,.041-.048.043-.687.043H3.828l-.21-.77c-.114-.424-.215-.8-.222-.828l-.014-.055.258.014C3.781-481.172,4.146-481.164,4.448-481.164Zm2.852.811v.811H5.944l-.014-.079c-.012-.076-.2-1.5-.2-1.531,0-.007.355-.012.787-.012H7.3Zm2.289-.77c0,.024-.048.386-.1.806l-.1.763-.684.007-.684,0v-1.622H8.8C9.537-481.164,9.59-481.162,9.59-481.124Zm2.111.036c-.007.031-.088.382-.179.78s-.174.732-.181.744a4.681,4.681,0,0,1-.62.021c-.467,0-.606-.007-.606-.031s.045-.374.1-.8l.1-.768h1.4Zm-6.289,3.017c.055.417.1.777.1.8,0,.041-.038.043-.463.043a3.4,3.4,0,0,1-.525-.024.2.2,0,0,1-.1-.1c-.033-.076-.393-1.4-.393-1.448a2.672,2.672,0,0,1,.639-.026h.639Zm1.889.043v.8H6.251l-.01-.055c-.012-.05-.205-1.5-.205-1.529,0-.007.284-.014.632-.014H7.3Zm1.979-.763c0,.055-.191,1.5-.2,1.531s-.136.031-.537.031H8.016v-1.6h.632C9.2-478.827,9.28-478.823,9.28-478.792Zm1.884,0c0,.05-.308,1.381-.336,1.45a.206.206,0,0,1-.083.091,5.2,5.2,0,0,1-.94.01c0-.038.2-1.524.2-1.552A5.063,5.063,0,0,1,11.164-478.8Zm-5.509,3.863a.526.526,0,0,1,.112.847.508.508,0,0,1-.424.143.463.463,0,0,1-.408-.279A.526.526,0,0,1,5.655-474.933Zm4.4-.052a.549.549,0,0,1,.4.51.514.514,0,0,1-.522.537.508.508,0,0,1-.529-.532.49.49,0,0,1,.193-.405A.471.471,0,0,1,10.055-474.986Z" transform="translate(0)" fill="#ed1c24"/>
  </g>
</svg>
