<svg xmlns="http://www.w3.org/2000/svg" width="18.235" height="18.756" viewBox="0 0 18.235 18.756">
  <g id="list" transform="translate(-37.604 -31.452)">
    <path id="Path_2642" data-name="Path 2642" d="M-36.673-.117h.749c.215,0,.431,0,.646,0h.738c.8-.006.8-.006,1.129.283a.757.757,0,0,1,.149.193l.058.093a1.259,1.259,0,0,1,.093.592v.1q0,.167,0,.334,0,.116,0,.233,0,.244,0,.488,0,.312,0,.624,0,.24,0,.481,0,.115,0,.23c0,.108,0,.215,0,.323V3.95a1.129,1.129,0,0,1-.254.753l-.055.067a1.116,1.116,0,0,1-.79.258h-1.219c-.219,0-.438,0-.657,0h-.749c-.841.005-.841.005-1.182-.321l-.055-.08-.057-.079a1.312,1.312,0,0,1-.145-.686v-.1q0-.166,0-.333,0-.116,0-.232,0-.243,0-.487,0-.311,0-.622,0-.24,0-.48,0-.115,0-.229c0-.107,0-.214,0-.321V.966a1.133,1.133,0,0,1,.284-.789A1.8,1.8,0,0,1-36.673-.117Zm-.807.825a.835.835,0,0,0-.086.442v.1c0,.1,0,.207,0,.311q0,.108,0,.217,0,.227,0,.454c0,.194,0,.387,0,.581q0,.224,0,.447,0,.107,0,.214c0,.1,0,.2,0,.3v.089a.6.6,0,0,0,.1.352c.169.159.33.134.555.135H-34.3a.6.6,0,0,0,.423-.163.816.816,0,0,0,.068-.413v-.1c0-.1,0-.208,0-.311q0-.108,0-.217,0-.227,0-.454,0-.291,0-.582,0-.224,0-.448,0-.107,0-.214c0-.1,0-.2,0-.3V1.061a.7.7,0,0,0-.087-.353.555.555,0,0,0-.429-.113h-.1c-.108,0-.216,0-.324,0h-.7c-.2,0-.4,0-.606,0h-.689c-.1,0-.208,0-.312,0h-.093A.443.443,0,0,0-37.48.708Z" transform="translate(75.875 45.174)" fill="#fff"/>
    <path id="Path_2643" data-name="Path 2643" d="M-25.247-.03h1.221q.329,0,.658,0h1.19a1.047,1.047,0,0,1,.691.258l.055.067.057.066a1.363,1.363,0,0,1,.2.779v.1c0,.11,0,.221,0,.331q0,.116,0,.232,0,.243,0,.485,0,.31,0,.62,0,.239,0,.479,0,.114,0,.229c0,.107,0,.213,0,.32v.094a1.137,1.137,0,0,1-.285.788,1.781,1.781,0,0,1-1.3.294h-.74c-.213,0-.426,0-.638,0h-.729c-.817,0-.817,0-1.122-.237a1.2,1.2,0,0,1-.345-.93v-.1c0-.111,0-.222,0-.333q0-.116,0-.232,0-.243,0-.487,0-.311,0-.622,0-.24,0-.48,0-.115,0-.229c0-.107,0-.214,0-.321V1.047a1.132,1.132,0,0,1,.254-.752l.055-.067A1.113,1.113,0,0,1-25.247-.03Zm-.323.842a.816.816,0,0,0-.068.413v.1c0,.1,0,.208,0,.311q0,.108,0,.217,0,.227,0,.454,0,.291,0,.582,0,.224,0,.448,0,.107,0,.214c0,.1,0,.2,0,.3v.089a.7.7,0,0,0,.087.353.555.555,0,0,0,.429.113h.1c.108,0,.216,0,.324,0h.7c.2,0,.4,0,.606,0h.689c.1,0,.208,0,.312,0h.093a.443.443,0,0,0,.336-.114.835.835,0,0,0,.086-.442v-.1c0-.1,0-.207,0-.311q0-.108,0-.217,0-.227,0-.454c0-.194,0-.387,0-.581q0-.224,0-.447,0-.107,0-.214c0-.1,0-.2,0-.3V1.141a.6.6,0,0,0-.1-.352c-.169-.159-.33-.134-.555-.135h-2.613A.6.6,0,0,0-25.57.813Z" transform="translate(63.951 31.482)" fill="#fff"/>
    <path id="Path_2644" data-name="Path 2644" d="M-35.853-.073h.759c.219,0,.437,0,.656,0h.748c.84,0,.84,0,1.181.322l.055.08.057.079a1.312,1.312,0,0,1,.145.686v.1q0,.166,0,.333,0,.116,0,.232,0,.243,0,.487,0,.311,0,.622,0,.24,0,.48,0,.115,0,.229c0,.107,0,.214,0,.321v.095a1.124,1.124,0,0,1-.287.789,1.673,1.673,0,0,1-1.274.3h-.758c-.218,0-.436,0-.655,0h-.747c-.815.006-.815.006-1.138-.283a.757.757,0,0,1-.149-.193l-.058-.093a1.259,1.259,0,0,1-.093-.592v-.1q0-.167,0-.334,0-.116,0-.233,0-.244,0-.488,0-.312,0-.624,0-.24,0-.481,0-.115,0-.23c0-.108,0-.215,0-.323V1.011a1.121,1.121,0,0,1,.287-.79A1.67,1.67,0,0,1-35.853-.073Zm-.786.848a.816.816,0,0,0-.067.413v.1c0,.1,0,.208,0,.311q0,.108,0,.217,0,.227,0,.454,0,.291,0,.582,0,.224,0,.448,0,.107,0,.214c0,.1,0,.2,0,.3V3.9a.6.6,0,0,0,.1.353c.169.159.33.134.555.135h2.613a.6.6,0,0,0,.423-.163.816.816,0,0,0,.068-.413v-.1c0-.1,0-.208,0-.311q0-.108,0-.217,0-.227,0-.454,0-.291,0-.582,0-.224,0-.448,0-.107,0-.214c0-.1,0-.2,0-.3V1.1a.6.6,0,0,0-.1-.353c-.169-.159-.33-.134-.555-.135h-2.613A.6.6,0,0,0-36.639.776Z" transform="translate(75.021 38.325)" fill="#fff"/>
    <path id="Path_2645" data-name="Path 2645" d="M-9.065-.151h5.129q.886,0,1.773,0H1.993c.16,0,.321,0,.481,0h.142c.314,0,.314,0,.453.126a.5.5,0,0,1,.055.361A.468.468,0,0,1,2.832.58c-.067,0-.135.005-.2.005H-2.391l-1.736,0-1.781,0h-2.9A.942.942,0,0,1-9.4.454.635.635,0,0,1-9.443.037.4.4,0,0,1-9.065-.151Z" transform="translate(52.7 38.577)" fill="#fff"/>
    <path id="Path_2646" data-name="Path 2646" d="M-9.047-.151h5.11q.883,0,1.766,0h4.14c.16,0,.319,0,.479,0h.142c.313,0,.313,0,.479.126a.383.383,0,0,1,.075.361A.468.468,0,0,1,2.851.58c-.067,0-.135.005-.2.005H-2.373l-1.736,0-1.781,0h-2.9a.942.942,0,0,1-.6-.142A.635.635,0,0,1-9.424.037.4.4,0,0,1-9.047-.151Z" transform="translate(52.682 45.383)" fill="#fff"/>
    <path id="Path_2647" data-name="Path 2647" d="M-9.065-.151h5.129q.886,0,1.773,0H1.993c.16,0,.321,0,.481,0h.142c.314,0,.314,0,.453.126a.5.5,0,0,1,.055.361C3,.522,3,.522,2.881.564a1.724,1.724,0,0,1-.3.021h-5l-1.729,0-1.775,0H-8.806A.94.94,0,0,1-9.4.454.635.635,0,0,1-9.443.037.4.4,0,0,1-9.065-.151Z" transform="translate(52.7 31.772)" fill="#fff"/>
    <path id="Path_2648" data-name="Path 2648" d="M-12.453-.041h3.414q.717,0,1.434,0h3.357a.5.5,0,0,1,.356.1.342.342,0,0,1,.084.254V.4A.4.4,0,0,1-4,.649,2.361,2.361,0,0,1-4.35.67H-7.764q-.717,0-1.434,0h-3.357a.5.5,0,0,1-.356-.1.342.342,0,0,1-.084-.254V.231C-12.923-.044-12.7-.043-12.453-.041Z" transform="translate(56.231 47.318)" fill="#fff"/>
    <path id="Path_2649" data-name="Path 2649" d="M-12.453-.041h3.414q.717,0,1.434,0h3.357a.5.5,0,0,1,.356.1.342.342,0,0,1,.084.254V.4A.4.4,0,0,1-4,.649,2.361,2.361,0,0,1-4.35.67H-7.764q-.717,0-1.434,0h-3.357a.5.5,0,0,1-.356-.1.342.342,0,0,1-.084-.254V.231C-12.923-.044-12.7-.043-12.453-.041Z" transform="translate(56.231 40.512)" fill="#fff"/>
    <path id="Path_2650" data-name="Path 2650" d="M-12.453-.041h3.414q.717,0,1.434,0h3.357a.5.5,0,0,1,.356.1.342.342,0,0,1,.084.254V.4A.4.4,0,0,1-4,.649,2.361,2.361,0,0,1-4.35.67H-7.764q-.717,0-1.434,0h-3.357a.5.5,0,0,1-.356-.1.342.342,0,0,1-.084-.254V.231C-12.923-.044-12.7-.043-12.453-.041Z" transform="translate(56.231 33.707)" fill="#fff"/>
    <path id="Path_2651" data-name="Path 2651" d="M-12.948-.117H-7.06a.785.785,0,0,1,.332.094.6.6,0,0,1,.1.374A.4.4,0,0,1-6.811.6,1.054,1.054,0,0,1-7.077.62H-9.6q-.529,0-1.058,0H-13.2a.388.388,0,0,1-.289-.188.694.694,0,0,1,0-.334A.557.557,0,0,1-12.948-.117Z" transform="translate(56.749 42.608)" fill="#fff"/>
    <path id="Path_2652" data-name="Path 2652" d="M-12.948-.117H-7.06a.785.785,0,0,1,.332.094.6.6,0,0,1,.1.374A.4.4,0,0,1-6.811.6,1.054,1.054,0,0,1-7.077.62H-9.6q-.529,0-1.058,0H-13.2a.388.388,0,0,1-.289-.188.694.694,0,0,1,0-.334A.557.557,0,0,1-12.948-.117Z" transform="translate(56.749 35.803)" fill="#fff"/>
    <path id="Path_2653" data-name="Path 2653" d="M-12.911-.117h5.849a.819.819,0,0,1,.407.143.474.474,0,0,1,.05.368A.708.708,0,0,1-6.773.6a.849.849,0,0,1-.266.026l-.166,0H-8.645l-.915,0q-.529,0-1.058,0h-2.547a.388.388,0,0,1-.289-.188.694.694,0,0,1,0-.334A.555.555,0,0,1-12.911-.117Z" transform="translate(56.711 49.413)" fill="#fff"/>
  </g>
</svg>
