<svg xmlns="http://www.w3.org/2000/svg" width="12.777" height="12.793" viewBox="0 0 12.777 12.793">
  <g id="Group_13846" data-name="Group 13846" transform="translate(0 0)">
    <path id="Path_1717" data-name="Path 1717" d="M6.368-511.689a6.436,6.436,0,0,0-4.349,2.2,6.333,6.333,0,0,0-1.5,3.255,7.851,7.851,0,0,0,0,1.714,6.535,6.535,0,0,0,.593,1.912l.128.26-.378,1.719c-.208.946-.375,1.724-.37,1.726a.3.3,0,0,0,.108-.013l1.739-.4,1.639-.373.238.108a6.541,6.541,0,0,0,2,.54,8.56,8.56,0,0,0,1.689-.05,6.474,6.474,0,0,0,3-1.344,8.3,8.3,0,0,0,.961-.961,6.389,6.389,0,0,0,1.366-3.263,9.056,9.056,0,0,0,0-1.379,6.461,6.461,0,0,0-3-4.717,6.721,6.721,0,0,0-2.455-.888A11.023,11.023,0,0,0,6.368-511.689Zm1.016,1.013a5.353,5.353,0,0,1,3.126,1.4,5.4,5.4,0,0,1,1.7,3.21,6.562,6.562,0,0,1,0,1.436,5.44,5.44,0,0,1-1.156,2.642,7.368,7.368,0,0,1-.808.8,5.492,5.492,0,0,1-2.673,1.136,7.623,7.623,0,0,1-1.349.013,5.747,5.747,0,0,1-1.754-.525l-.358-.175-1.154.263c-.636.145-1.156.26-1.159.258s.105-.5.24-1.108.245-1.126.245-1.156a.6.6,0,0,0-.088-.21,5.314,5.314,0,0,1-.7-3.245A5.4,5.4,0,0,1,7.384-510.675Z" transform="translate(-0.475 511.696)" fill="#03b42c"/>
    <path id="Path_1718" data-name="Path 1718" d="M139.781-369.947a1.5,1.5,0,0,0-.463.5,1.774,1.774,0,0,0-.065,1.569,6.929,6.929,0,0,0,1.8,2.295,5.22,5.22,0,0,0,2.052.991,1.9,1.9,0,0,0,1,.022,1.633,1.633,0,0,0,.786-.561,1.2,1.2,0,0,0,.115-.806,13.744,13.744,0,0,0-1.261-.628c-.193-.07-.22-.058-.423.2-.423.533-.463.568-.613.518a5.574,5.574,0,0,1-.718-.355,4.258,4.258,0,0,1-1.3-1.336c-.128-.213-.12-.245.1-.483a1.6,1.6,0,0,0,.255-.345l.063-.14-.05-.14c-.028-.075-.145-.368-.26-.648a2.386,2.386,0,0,0-.3-.608l-.09-.1h-.26A.733.733,0,0,0,139.781-369.947Z" transform="translate(-135.634 373.546)" fill="#03b42c"/>
  </g>
</svg>
