<svg xmlns="http://www.w3.org/2000/svg" width="14.362" height="14.825" viewBox="0 0 14.362 14.825">
  <g id="payment-_1_" transform="translate(-8 512.079)">
    <path id="Path_3543" data-name="Path 3543" d="M8.9-512.03a1.2,1.2,0,0,0-.851.866c-.041.151-.046.724-.046,4.94a40.048,40.048,0,0,0,.058,4.954,1.211,1.211,0,0,0,.9.837l.145.032v2.6l.081.09c.116.127.226.124.544-.029l.258-.122.345.145a3.038,3.038,0,0,0,.385.148,3.216,3.216,0,0,0,.379-.145l.333-.148.342.148a2.9,2.9,0,0,0,.391.145,2.209,2.209,0,0,0,.359-.145l.31-.145.31.133c.284.122.316.13.411.1a.327.327,0,0,0,.159-.127c.052-.084.055-.159.055-1.367V-500.4l.18-.049a1.142,1.142,0,0,0,.568-.345c.263-.281.321-.46.35-1.071l.017-.431.127.229a2.6,2.6,0,0,0,.171.275c.038.046.038.081-.009.3a1.23,1.23,0,0,0,0,.657.916.916,0,0,0,.417.414.85.85,0,0,0,.594-.009l.11-.058.125.122a.738.738,0,0,0,.747.174l.133-.038.1.258a4.963,4.963,0,0,0,1.173,1.705,2.055,2.055,0,0,1,.484.6,2.4,2.4,0,0,0,.229.353.181.181,0,0,0,.261-.006c.122-.1.1-.194-.116-.573a2.6,2.6,0,0,0-.573-.712,4.162,4.162,0,0,1-.918-1.245,4.566,4.566,0,0,1-.475-2.2c-.064-1.271-.064-1.274-.133-1.41-.035-.069-.226-.408-.423-.756-.4-.7-.431-.785-.327-.967a.373.373,0,0,1,.356-.211c.208,0,.29.078.559.547a4.051,4.051,0,0,0,.278.443.236.236,0,0,0,.342-.171,4.9,4.9,0,0,0-.576-1,.826.826,0,0,0-.99-.153.819.819,0,0,0-.359,1.123c.043.087.237.429.429.764l.35.608.02.405c.02.388.02.408-.038.452-.032.026-.249.153-.484.281-.353.2-.446.237-.553.237a.457.457,0,0,1-.382-.208c-.041-.052-.446-.753-.9-1.558s-.86-1.485-.892-1.514a.194.194,0,0,0-.266.012c-.122.1-.1.191.127.579.113.191.2.353.2.362s-.026,0-.055-.017a2.237,2.237,0,0,0-.437-.029c-.423,0-.5.023-.614.18-.061.087-.067.125-.067.443,0,.388.026.46.2.565.081.049.148.058.484.058s.4-.009.484-.058c.153-.093.185-.171.2-.492l.017-.29.214.376.217.379-.012.8c-.009.762-.014.811-.075.947a.853.853,0,0,1-.368.4c-.116.064-.119.064-2.5.072-2.618.009-2.522.014-2.748-.165a.988.988,0,0,1-.194-.24l-.084-.153-.009-4.772c0-3.194,0-4.812.023-4.885a.836.836,0,0,1,.376-.475l.159-.09,2.371-.009c2.655-.009,2.534-.017,2.777.2a.885.885,0,0,1,.2.266c.067.151.069.168.069,1.051v.895l-.208.124-.211.125v-.53c0-.614-.02-.73-.145-.84l-.087-.078H11.443c-2.542,0-2.438-.006-2.531.174a1.841,1.841,0,0,0-.043.631c0,.533,0,.547.067.608a.2.2,0,0,0,.307-.012c.055-.069.061-.116.061-.521v-.446h4.256v1.245l-.107.069c-.061.038-.3.177-.53.307-.466.263-.605.379-.718.594a.675.675,0,0,0-.078.376,1.477,1.477,0,0,0,.023.3l.023.067H9.3v-.634c0-.576-.006-.64-.055-.7a.179.179,0,0,0-.162-.067.179.179,0,0,0-.162.067c-.049.061-.055.127-.055.782s0,.718.058.808c.11.182.093.18,1.873.18l1.616,0,.246.437c.307.544.35.6.478.6a.233.233,0,0,0,.217-.208,5.514,5.514,0,0,0-.345-.654c-.44-.77-.466-.822-.466-.947a.5.5,0,0,1,.148-.35c.1-.093,3.582-2.07,3.692-2.1a.5.5,0,0,1,.4.093c.043.035.715,1.181,1.572,2.678l1.5,2.62-.014.153c-.02.237-.084.3-.573.582-.237.136-.443.249-.457.249a1.177,1.177,0,0,1-.162-.243c-.156-.269-.237-.33-.374-.281a.215.215,0,0,0-.136.206,4.884,4.884,0,0,0,.321.623c.345.6.4.654.556.6a.229.229,0,0,0,.078-.365.376.376,0,0,1-.058-.119,2.224,2.224,0,0,1,.429-.275,4.774,4.774,0,0,0,.53-.336.878.878,0,0,0,.281-.605c.017-.261-.017-.362-.249-.764a2.3,2.3,0,0,1-.165-.313c.014-.017.9.735,1.08.915a2.961,2.961,0,0,1,.845,2.044c0,.145-.052.814-.119,1.482l-.125,1.219.226.4c.22.391.275.452.394.452a.263.263,0,0,0,.2-.208,1.954,1.954,0,0,0-.188-.4l-.188-.336L22.1-500.9a6.089,6.089,0,0,0,.017-2.256,3.5,3.5,0,0,0-.707-1.37,16.759,16.759,0,0,0-1.778-1.566l-.449-.379-.967-1.694c-1.066-1.865-1.118-1.94-1.422-2.044a1.035,1.035,0,0,0-.585-.014c-.061.02-.374.188-.692.371s-.6.339-.62.347-.041-.087-.041-.631c0-.356-.014-.744-.029-.86a1.229,1.229,0,0,0-.912-1.037C13.7-512.1,9.123-512.091,8.9-512.03Zm4.662,8.423v.188h-.521v-.376h.521Zm3.483,2.062a5.4,5.4,0,0,0,.067.6l.049.261-.067.052a.317.317,0,0,1-.463-.162c-.029-.087-.02-.162.043-.486.041-.211.084-.408.093-.437a.4.4,0,0,1,.229-.165C17.014-501.884,17.031-501.76,17.043-501.545Zm-.819.31c-.064.29-.1.35-.229.411a.239.239,0,0,1-.208.014c-.2-.061-.263-.214-.211-.53l.017-.107.237.017a.99.99,0,0,0,.307-.014C16.275-501.5,16.278-501.493,16.223-501.235Zm-2.9,1.972v1.144l-.107-.046c-.061-.026-.177-.075-.261-.1l-.148-.058-.324.148c-.177.081-.33.148-.342.148s-.174-.067-.356-.145a.928.928,0,0,0-.4-.127,3.773,3.773,0,0,0-.371.148l-.3.133-.31-.13c-.44-.185-.411-.182-.64-.084-.11.049-.208.09-.217.09s-.017-.51-.017-1.129v-1.129h3.793Z" fill="#fff"/>
    <path id="Path_3544" data-name="Path 3544" d="M221.674-387.473a1.67,1.67,0,0,0-1.236.9c-.136.278-.153.388-.072.492a.182.182,0,0,0,.156.078c.116,0,.168-.052.249-.258a1.208,1.208,0,0,1,.649-.686,1.252,1.252,0,0,1,.721-.09c.214.026.229.026.3-.038.165-.154.049-.356-.22-.388A1.584,1.584,0,0,0,221.674-387.473Z" transform="translate(-206.169 -120.981)" fill="#fff"/>
    <path id="Path_3545" data-name="Path 3545" d="M249.856-357.462a.8.8,0,0,0-.588.524.217.217,0,0,0,.107.29.211.211,0,0,0,.275-.107c.116-.229.188-.275.429-.275.208,0,.307-.078.29-.232C250.351-357.433,250.137-357.517,249.856-357.462Z" transform="translate(-234.267 -150.123)" fill="#fff"/>
    <path id="Path_3546" data-name="Path 3546" d="M272.741-329.908a.207.207,0,0,0-.061.281c.064.153.153.237.249.237a.256.256,0,0,0,.226-.206.657.657,0,0,0-.168-.31A.255.255,0,0,0,272.741-329.908Z" transform="translate(-256.989 -176.867)" fill="#fff"/>
    <path id="Path_3547" data-name="Path 3547" d="M38.206-297.816c-.165.09-.206.2-.206.565s.038.478.188.57c.081.049.142.058.492.058s.411-.009.492-.058c.151-.093.188-.208.188-.565,0-.33-.023-.408-.159-.536-.072-.069-.1-.072-.486-.081C38.359-297.868,38.292-297.862,38.206-297.816Zm.721.57v.188h-.492v-.376h.492Z" transform="translate(-29.131 -208.012)" fill="#fff"/>
    <path id="Path_3548" data-name="Path 3548" d="M103.182-297.942c-.153.093-.182.185-.182.57,0,.287.009.356.058.434.1.165.185.188.651.177.4-.009.42-.012.5-.081.122-.116.156-.229.156-.541s-.043-.446-.2-.55c-.09-.061-.13-.067-.492-.067C103.33-298,103.263-297.991,103.182-297.942Zm.744.565v.188h-.492v-.376h.492Z" transform="translate(-92.249 -207.88)" fill="#fff"/>
    <path id="Path_3549" data-name="Path 3549" d="M38.206-241.062c-.165.087-.206.2-.206.565s.038.478.188.57c.081.049.142.058.492.058s.411-.009.492-.058c.151-.093.188-.208.188-.565s-.055-.5-.22-.579A2.166,2.166,0,0,0,38.206-241.062Zm.721.57v.188h-.492v-.376h.492Z" transform="translate(-29.131 -263.115)" fill="#fff"/>
    <path id="Path_3550" data-name="Path 3550" d="M103.182-240.822c-.153.1-.182.188-.182.573,0,.287.009.356.058.434.1.165.185.188.651.177.4-.009.42-.012.5-.081.122-.113.156-.232.156-.536s-.035-.423-.156-.536c-.075-.069-.1-.072-.5-.081C103.319-240.877,103.266-240.874,103.182-240.822Zm.744.568v.188h-.492v-.376h.492Z" transform="translate(-92.249 -263.352)" fill="#fff"/>
    <path id="Path_3551" data-name="Path 3551" d="M38.188-183.942c-.153.1-.188.208-.188.559s.038.478.188.57c.081.049.142.058.478.058.42,0,.518-.026.623-.168.052-.07.058-.125.058-.455s-.006-.385-.058-.455c-.1-.142-.2-.168-.628-.168C38.324-184,38.263-183.991,38.188-183.942Zm.738.565v.188h-.492v-.376h.492Z" transform="translate(-29.131 -318.579)" fill="#fff"/>
    <path id="Path_3552" data-name="Path 3552" d="M103.182-183.822c-.153.1-.182.188-.182.573,0,.287.009.356.058.434.1.165.185.188.651.177.4-.009.42-.012.5-.081.122-.113.156-.232.156-.536s-.035-.423-.156-.536c-.075-.069-.1-.072-.5-.081C103.319-183.877,103.266-183.874,103.182-183.822Zm.744.568v.188h-.492v-.376h.492Z" transform="translate(-92.249 -318.702)" fill="#fff"/>
    <path id="Path_3553" data-name="Path 3553" d="M167.7-183.942c-.171.1-.2.174-.2.565s.026.46.2.565c.078.049.148.058.478.058.429,0,.507-.023.62-.18.061-.087.067-.125.067-.443s-.006-.356-.067-.443c-.113-.156-.191-.18-.62-.18C167.845-184,167.775-183.991,167.7-183.942Zm.744.565v.188h-.521v-.376h.521Z" transform="translate(-154.882 -318.579)" fill="#fff"/>
  </g>
</svg>
