<svg xmlns="http://www.w3.org/2000/svg" width="17.906" height="17.905" viewBox="0 0 17.906 17.905">
  <g id="spreadsheet" transform="translate(-0.115 511.786)">
    <path id="Path_2842" data-name="Path 2842" d="M1.8-511.724a1.97,1.97,0,0,0-1.022.595,1.923,1.923,0,0,0-.595,1.039c-.07.269-.07.392-.063,6.78l.01,6.507.077.227a2.319,2.319,0,0,0,1.081,1.284c.476.245.339.234,2.76.255l2.2.018.01.3.01.308H6.031c-.192,0-.262.014-.336.073a.236.236,0,0,0,0,.378l.094.073H16.8l.084-.087a.224.224,0,0,0,0-.35c-.08-.084-.1-.087-.56-.087h-.472v-.63H16a1.791,1.791,0,0,0,.791-.231,2.263,2.263,0,0,0,1.141-1.308l.077-.227.01-6.479c.01-7.235.024-6.742-.238-7.28a2.25,2.25,0,0,0-1.277-1.12l-.28-.094-7.085-.007C2.246-511.79,2.046-511.79,1.8-511.724Zm14.407.511a1.7,1.7,0,0,1,1.231,1.2c.056.213.059.7.059,6.6,0,7.015.017,6.553-.21,6.983a1.862,1.862,0,0,1-.591.633,1.821,1.821,0,0,1-.721.238h-.119v-.514l.157-.021a1.23,1.23,0,0,0,.868-.682l.077-.164v-10.671l-.094-.2a1.33,1.33,0,0,0-.493-.595c-.381-.252.189-.234-7.371-.227l-6.8.01-.234.112a1.379,1.379,0,0,0-.668.668l-.112.234v10.671l.077.164a1.382,1.382,0,0,0,.553.581l.175.094,2.134.018,2.134.018.01.252.01.255H4.159a14,14,0,0,1-2.3-.056,1.728,1.728,0,0,1-1.169-1.221c-.045-.182-.052-.969-.052-6.553,0-7.039-.014-6.616.231-7.029a1.709,1.709,0,0,1,1.025-.787c.213-.056.728-.059,7.151-.059C15.19-511.269,15.991-511.262,16.2-511.213Zm-.259,3.159a1.055,1.055,0,0,1,.269.2c.252.259.234-.122.234,5.594,0,4.929,0,5.153-.066,5.286a.6.6,0,0,1-.329.329c-.2.077-.2.094-.206-.63-.01-.654-.014-.668-.094-.735a.261.261,0,0,0-.346,0l-.077.073v3.53H13.686v-5.535l.1-.1.1-.1h.6a3.107,3.107,0,0,1,.672.039c.133.07.168.238.168.815v.542l.091.07a.334.334,0,0,0,.14.073.329.329,0,0,0,.255-.164,5.178,5.178,0,0,0,0-1.235.847.847,0,0,0-.451-.57l-.192-.1-.721.01-.721.01-.171.1a.946.946,0,0,0-.276.276l-.1.171-.01,1.746-.01,1.742H12.4l-.014-.5c-.01-.49-.014-.507-.115-.675a.946.946,0,0,0-.276-.276l-.171-.1-.731-.01c-.833-.014-.924.007-1.162.273a1.214,1.214,0,0,0-.231.9v.4H8.966l-.01-1.008c-.01-.952-.014-1.011-.087-1.144a.985.985,0,0,0-.448-.423,4.874,4.874,0,0,0-1.466-.049.843.843,0,0,0-.588.451l-.1.185v1.987H4.226q-2.047,0-2.145-.038a.6.6,0,0,1-.329-.329c-.063-.133-.066-.357-.066-5.286,0-5.717-.017-5.335.234-5.594a1.055,1.055,0,0,1,.269-.2c.136-.063.4-.066,6.878-.066S15.809-508.117,15.946-508.054Zm-7.623,9.425.1.094.01,2.064.007,2.064H6.794v-2.057a8.184,8.184,0,0,1,.063-2.131c.1-.129.206-.15.8-.14l.57.007Zm3.453,1.078.091.108v3.037H10.222v-1.487c0-1.578.007-1.634.164-1.728a3.531,3.531,0,0,1,.682-.038h.616ZM9.7-495.823v.262H8.963v-.525H9.7Zm3.457.007.01.255h-.773v-.238a.859.859,0,0,1,.024-.266,1.7,1.7,0,0,1,.374-.014l.353.011Zm-3.457,1.1v.315H8.963v-.63H9.7Zm3.457.007.01.308h-.773v-.29a1.2,1.2,0,0,1,.024-.318,1.7,1.7,0,0,1,.374-.014l.353.01Z" transform="translate(0)" fill="#fff"/>
    <path id="Path_2843" data-name="Path 2843" d="M30.711-483.915a.892.892,0,0,0-.213,1.441.9.9,0,0,0,1.452-.3,1.014,1.014,0,0,0-.021-.724,1.015,1.015,0,0,0-.518-.469A.979.979,0,0,0,30.711-483.915Zm.64.511a.373.373,0,0,1-.252.658.393.393,0,0,1-.346-.3.383.383,0,0,1,.171-.388A.427.427,0,0,1,31.352-483.4Z" transform="translate(-29.054 -26.808)" fill="#fff"/>
    <path id="Path_2844" data-name="Path 2844" d="M89.133-483.868a.925.925,0,0,0-.448.409.669.669,0,0,0-.1.43.777.777,0,0,0,.266.637.886.886,0,0,0,1.3-.063,1.061,1.061,0,0,0,.234-.574,1.045,1.045,0,0,0-.542-.826A1.147,1.147,0,0,0,89.133-483.868Zm.56.542a.345.345,0,0,1,.133.4.361.361,0,0,1-.6.164.273.273,0,0,1-.115-.266.274.274,0,0,1,.115-.266A.367.367,0,0,1,89.692-483.326Z" transform="translate(-85.376 -26.893)" fill="#fff"/>
    <path id="Path_2845" data-name="Path 2845" d="M146.535-483.927a1.03,1.03,0,0,0-.535.819,1.061,1.061,0,0,0,.234.574.9.9,0,0,0,1.49-.189.941.941,0,0,0-.025-.815.842.842,0,0,0-.8-.462A.764.764,0,0,0,146.535-483.927Zm.626.553a.274.274,0,0,1,.115.266.274.274,0,0,1-.115.266.361.361,0,0,1-.6-.164A.364.364,0,0,1,147.162-483.374Z" transform="translate(-140.781 -26.814)" fill="#fff"/>
    <path id="Path_2846" data-name="Path 2846" d="M66.2-381.913a1.275,1.275,0,0,0-.609.56l-.094.175v5.773l.084.175a1.38,1.38,0,0,0,.521.539c.276.14.448.147,3.838.133,1.791-.007,3.292-.024,3.341-.038.084-.024.094-.01.2.273.143.364.234.5.392.595a.628.628,0,0,0,.784-.171,3.141,3.141,0,0,0,.178-.528,3.343,3.343,0,0,1,.15-.476,4.259,4.259,0,0,1,.472-.15,3.353,3.353,0,0,0,.532-.178.612.612,0,0,0,0-.976c-.059-.042-.5-.238-.987-.437l-.878-.364-.01-2.05-.01-2.047-.115-.234a1.168,1.168,0,0,0-.563-.56l-.161-.08-2.424-.01c-1.693-.007-2.442,0-2.494.028a.262.262,0,0,0,.024.451,13.3,13.3,0,0,0,1.623.038h1.539v1.224H66.007v-.378c0-.43.042-.549.255-.721l.136-.108.57-.017c.5-.014.581-.024.644-.084a.278.278,0,0,0,0-.371c-.063-.063-.115-.07-.637-.07A1.646,1.646,0,0,0,66.2-381.913Zm7.106.549c.21.14.269.29.283.738l.014.374-.766-.007-.763-.01-.01-.605-.007-.605.553.01C73.144-381.458,73.172-381.454,73.309-381.363Zm-1.774,2.232v.595H66.007v-1.19h5.528Zm2.064,0v.595l-.759-.007-.763-.01-.01-.588-.007-.584H73.6Zm-2.064,1.714v.595H66.007v-1.19h5.528Zm2.064-.206c0,.3-.01.381-.042.371s-.126-.046-.224-.081a.57.57,0,0,0-.749.329l-.087.185-.21-.01-.21-.01-.01-.588-.007-.584H73.6Zm.84,1.308c.682.283,1.252.532,1.266.556.045.07-.049.115-.444.213-.458.115-.637.206-.728.357a3.628,3.628,0,0,0-.171.525c-.108.42-.154.518-.224.472s-1.109-2.589-1.081-2.631a.073.073,0,0,1,.084-.024C73.172-376.84,73.757-376.6,74.439-376.315Zm-2.9.63v.616l-2.526-.01-2.529-.01-.157-.094c-.252-.147-.315-.294-.315-.742v-.371h5.528Zm1.375-.031a3.617,3.617,0,0,1,.217.605,3.948,3.948,0,0,1-.535.021h-.514l-.01-.605-.007-.6h.612Z" transform="translate(-63.097 -125.245)" fill="#fff"/>
    <path id="Path_2847" data-name="Path 2847" d="M357.12-369.913a.271.271,0,0,0-.087.22c0,.133-.007.143-.192.231a.943.943,0,0,0-.346,1.413,2.59,2.59,0,0,0,.924.514,1.453,1.453,0,0,1,.357.192.553.553,0,0,1-.073.77l-.126.122-.018-.413c-.014-.36-.028-.423-.084-.465a.277.277,0,0,0-.367.042c-.063.08-.073.143-.073.472,0,.448,0,.444-.35.273-.206-.1-.231-.108-.311-.063a.445.445,0,0,0-.14.14.162.162,0,0,0,0,.192,1.076,1.076,0,0,0,.637.35l.164.025v.154c0,.269.234.413.423.259a.327.327,0,0,0,.1-.252c.018-.178.021-.185.164-.231a1.249,1.249,0,0,0,.591-.553,1,1,0,0,0-.175-1.189,1.2,1.2,0,0,0-.528-.311,1.954,1.954,0,0,1-.752-.406.434.434,0,0,1,.028-.385c.1-.192.147-.175.147.063,0,.266.084.392.266.392.2,0,.259-.094.259-.406v-.266l.154.091c.189.108.262.112.385.018a.213.213,0,0,0,.091-.189c0-.15-.182-.308-.444-.392-.182-.056-.185-.059-.185-.192A.3.3,0,0,0,357.3-370,.288.288,0,0,0,357.12-369.913Z" transform="translate(-343.627 -136.826)" fill="#fff"/>
  </g>
</svg>
