<svg xmlns="http://www.w3.org/2000/svg" width="19.539" height="19.448" viewBox="0 0 19.539 19.448">
  <g id="process-_1_" transform="translate(0 0)">
    <path id="Path_2932" data-name="Path 2932" d="M9.861-510.6c-.416.069-.511.225-.511.836v.416l-.218.084-.214.084-.332-.328c-.328-.321-.336-.324-.523-.324-.233,0-.359.084-.767.508-.5.515-.5.675-.027,1.168l.313.328-.08.2-.08.2h-.4c-.6,0-.786.107-.836.477l-.023.153-2.137.019c-1.175.011-2.145.027-2.156.031-.092.046-1.778,1.775-1.817,1.866S0-504.054,0-500.5c0,4.1,0,4.263.073,4.4a.6.6,0,0,0,.359.332,12.915,12.915,0,0,0,2.3.057H4.885v.206c0,.179.015.218.1.286.237.187.473,0,.473-.363v-.13h.385c.366,0,.385,0,.408.084a3.244,3.244,0,0,0,.176.393,2.54,2.54,0,0,0,1.091,1.076,2.473,2.473,0,0,0,2.282-.008,2.508,2.508,0,0,0,1.248-3.022,2.537,2.537,0,0,0-1.832-1.672l-.286-.065v-.714c0-.645-.008-.725-.069-.779a.332.332,0,0,0-.412.015c-.065.073-.073.156-.084.779l-.011.7-.21.042A2.392,2.392,0,0,0,6.9-498.2a2.354,2.354,0,0,0-.744,1.568l-.027.324H.592L.58-500.482l-.008-4.179.771-.771.775-.775H6.14l.023.141a.615.615,0,0,0,.286.477,1.2,1.2,0,0,0,.553.069h.42l.076.2.08.2-.294.309c-.5.53-.488.7.084,1.271.412.416.6.508.836.412l.149-.057.011.87c.011.794.019.878.084.95a.277.277,0,0,0,.218.08c.26,0,.263-.015.263-1.305a8.934,8.934,0,0,1,.034-1.137,1.144,1.144,0,0,1,.21.076l.176.073v.412c0,.477.053.63.267.756.118.069.2.076.687.076s.569-.008.683-.076c.218-.13.271-.279.271-.763v-.42l.2-.076.2-.08.328.313c.5.469.683.462,1.194-.046.4-.4.481-.523.481-.752,0-.187,0-.195-.324-.519l-.324-.332.088-.217.084-.218H13.6c.607,0,.782-.1.828-.492l.019-.176.24-.019c.275-.023.351-.084.351-.29,0-.179-.145-.282-.4-.282h-.2l-.023-.176c-.038-.347-.26-.473-.84-.473h-.4l-.08-.2-.076-.2.279-.286c.328-.336.363-.4.363-.622,0-.195-.126-.382-.5-.737-.336-.317-.408-.359-.6-.359-.21,0-.279.042-.633.382l-.267.259-.2-.076-.2-.08v-.4c0-.492-.069-.679-.279-.779A3.2,3.2,0,0,0,9.861-510.6Zm.706.561.118.023v.431c0,.553.042.63.477.817.565.24.714.214,1.145-.221a1.126,1.126,0,0,1,.271-.233,1.328,1.328,0,0,1,.282.252l.24.248-.336.34-.332.34.015.2a1.638,1.638,0,0,0,.408.9c.114.08.176.088.557.088.5,0,.477-.015.477.408,0,.366.011.355-.446.355-.431,0-.611.053-.706.2a2.783,2.783,0,0,0-.3.809c0,.191.046.263.366.591l.282.286-.267.267-.267.267-.317-.317c-.4-.4-.485-.424-.95-.233-.382.153-.477.21-.538.317a2.274,2.274,0,0,0-.065.538l-.019.458-.37.011-.374.011v-.431c0-.6-.031-.649-.5-.859a1.576,1.576,0,0,0-.527-.16c-.16,0-.179.011-.508.328l-.336.332-.267-.263-.267-.263.263-.271a4.061,4.061,0,0,0,.324-.363c.092-.137.076-.34-.057-.653-.24-.58-.237-.58-.855-.607l-.458-.019v-.725l.466-.019c.389-.015.481-.031.569-.1a1.958,1.958,0,0,0,.4-.927c0-.16-.015-.183-.332-.508l-.332-.336.263-.267.263-.267.309.305a1.746,1.746,0,0,0,.412.324,1.139,1.139,0,0,0,.695-.137c.435-.187.477-.259.477-.82,0-.378.008-.431.069-.447A2.072,2.072,0,0,1,10.567-510.038ZM9.14-498.291a1.954,1.954,0,0,1,1.454,2.007,1.944,1.944,0,0,1-2.381,1.775,1.906,1.906,0,0,1-1.5-1.885,1.916,1.916,0,0,1,1.336-1.862A2.186,2.186,0,0,1,9.14-498.291Z" transform="translate(0 510.618)" fill="#fff"/>
    <path id="Path_2933" data-name="Path 2933" d="M218.863-454.673a2.175,2.175,0,0,0-1.389,1.053,2.025,2.025,0,0,0,1.126,2.835,2.025,2.025,0,0,0,2.458-1.011,1.975,1.975,0,0,0,.08-1.637c-.122-.282-.4-.328-.534-.1-.05.088-.05.126.019.34a1.464,1.464,0,0,1-.74,1.8,1.016,1.016,0,0,1-.618.126,1.068,1.068,0,0,1-.58-.1,1.44,1.44,0,0,1-.8-1.733,1.425,1.425,0,0,1,1.733-.988c.309.076.427.057.5-.092a.272.272,0,0,0-.168-.4A2.021,2.021,0,0,0,218.863-454.673Z" transform="translate(-208.96 456.841)" fill="#fff"/>
    <path id="Path_2934" data-name="Path 2934" d="M247.557-424.932a.884.884,0,0,0-.557.824.876.876,0,0,0,1.485.634.854.854,0,0,0,.011-1.244A.866.866,0,0,0,247.557-424.932Zm.53.611a.3.3,0,0,1-.2.515.292.292,0,0,1-.313-.294.319.319,0,0,1,.305-.317A.3.3,0,0,1,248.087-424.321Z" transform="translate(-237.574 428.257)" fill="#fff"/>
    <path id="Path_2935" data-name="Path 2935" d="M194.8-158.36l-.511.508-.355-.347a2.01,2.01,0,0,0-.462-.378.271.271,0,0,0-.321.267c-.011.134.011.164.45.611.508.519.622.592.794.523a8.862,8.862,0,0,0,1.328-1.351.273.273,0,0,0-.267-.324C195.313-158.864,195.29-158.845,194.8-158.36Z" transform="translate(-185.776 172.279)" fill="#fff"/>
    <path id="Path_2936" data-name="Path 2936" d="M403.192-404.954a.3.3,0,0,0-.118.443,1.048,1.048,0,0,1,.08.24.4.4,0,0,0,.1.206.309.309,0,0,0,.382,0c.191-.172.023-.805-.24-.893-.061-.023-.115-.042-.118-.042S403.234-404.977,403.192-404.954Z" transform="translate(-387.641 409.031)" fill="#fff"/>
    <path id="Path_2937" data-name="Path 2937" d="M406.573-367.9c-.061.065-.073.141-.073.42,0,.3.011.347.084.42a.3.3,0,0,0,.393.015c.065-.061.076-.118.076-.427s-.011-.366-.076-.431A.3.3,0,0,0,406.573-367.9Z" transform="translate(-390.987 373.419)" fill="#fff"/>
    <path id="Path_2938" data-name="Path 2938" d="M58.028-339.92A.285.285,0,0,0,58-339.5c.076.076.126.076,2.16.076,1.393,0,2.107-.015,2.156-.042a.282.282,0,0,0-.027-.488A20.315,20.315,0,0,0,60.165-340C58.165-340,58.127-340,58.028-339.92Z" transform="translate(-55.715 346.511)" fill="#fff"/>
    <path id="Path_2939" data-name="Path 2939" d="M406.573-330.9c-.061.065-.073.141-.073.42,0,.3.011.347.084.42a.3.3,0,0,0,.393.015c.065-.061.076-.118.076-.427s-.011-.366-.076-.431A.3.3,0,0,0,406.573-330.9Z" transform="translate(-390.987 337.831)" fill="#fff"/>
    <path id="Path_2940" data-name="Path 2940" d="M58.148-302.924a.3.3,0,0,0,0,.385l.073.092H62.43l.092-.107a.228.228,0,0,0,.011-.347l-.076-.1H60.338C58.274-303,58.224-303,58.148-302.924Z" transform="translate(-55.858 310.923)" fill="#fff"/>
    <path id="Path_2941" data-name="Path 2941" d="M313.755-293.9c-.061.069-.073.141-.073.458v.378h-1.557c-1.71,0-1.721,0-1.839.229a12.445,12.445,0,0,0,0,2.557c.137.229.126.229,1.824.229h1.549v.572h-1.507c-1.672,0-1.71,0-1.851.237-.073.118-.076.191-.076,1.29,0,1.275,0,1.29.225,1.439.13.088.13.088,1.668.088h1.542v.572h-1.542c-1.538,0-1.538,0-1.668.088-.195.13-.225.225-.225.7v.42l-.115.084a.237.237,0,0,0-.114.24c0,.13.015.16.114.218l.115.065v.439c0,.374.011.458.076.565.153.244,0,.237,3.664.237s3.511.008,3.664-.237c.073-.118.076-.191.076-1.282,0-1.278-.008-1.317-.24-1.458-.115-.073-.2-.076-1.675-.076h-1.557v-.572h.431c.382,0,.443-.008.515-.076a.291.291,0,0,0,.084-.21.291.291,0,0,0-.084-.21c-.08-.076-.122-.076-2.232-.076H310.8V-288.9h6.335v1.908h-.45c-.4,0-.462.008-.534.076a.3.3,0,0,0,0,.42c.076.069.134.076.637.076.485,0,.572-.011.679-.076.233-.141.24-.179.24-1.462,0-1.145,0-1.16-.088-1.29a.53.53,0,0,0-.218-.176,12.74,12.74,0,0,0-1.652-.046l-1.519,0,.011-.279.011-.275,1.591-.019,1.6-.019.122-.126.126-.122.011-1.183a4.2,4.2,0,0,0-.053-1.32c-.118-.244-.107-.244-1.847-.244h-1.565v-.382c0-.332-.011-.393-.076-.458A.3.3,0,0,0,313.755-293.9Zm3.381,2.343v.935H310.8v-1.87h6.335Zm0,7.232v.954H310.8v-1.908h6.335Z" transform="translate(-298.17 302.243)" fill="#fff"/>
    <path id="Path_2942" data-name="Path 2942" d="M351.939-237.954a.3.3,0,0,0,.034.485,22.182,22.182,0,0,0,2.244.042c2.118,0,2.152,0,2.252-.08a.276.276,0,0,0,.015-.416c-.08-.076-.122-.076-2.282-.076A17.734,17.734,0,0,0,351.939-237.954Z" transform="translate(-338.403 248.404)" fill="#fff"/>
    <path id="Path_2943" data-name="Path 2943" d="M351.847-48.7a.294.294,0,0,0-.114.462c.069.076.114.076,2.3.076s2.225,0,2.3-.076a.3.3,0,0,0,0-.4c-.076-.069-.176-.073-2.244-.08C352.9-48.722,351.889-48.711,351.847-48.7Z" transform="translate(-338.242 66.347)" fill="#fff"/>
    <path id="Path_2944" data-name="Path 2944" d="M58-266.924a.285.285,0,0,0,.023.416c.1.08.137.08,2.137.08a20.322,20.322,0,0,0,2.129-.042.282.282,0,0,0,.027-.488c-.05-.027-.763-.042-2.156-.042C58.131-267,58.081-267,58-266.924Z" transform="translate(-55.715 276.297)" fill="#fff"/>
    <path id="Path_2945" data-name="Path 2945" d="M58.028-230.92A.285.285,0,0,0,58-230.5c.076.076.126.076,2.16.076,1.393,0,2.107-.015,2.156-.042a.282.282,0,0,0-.027-.488A20.313,20.313,0,0,0,60.165-231C58.165-231,58.127-231,58.028-230.92Z" transform="translate(-55.715 241.671)" fill="#fff"/>
    <path id="Path_2946" data-name="Path 2946" d="M58.148-193.924a.3.3,0,0,0,0,.385l.073.092h2.038l.073-.092a.3.3,0,0,0,0-.385C60.25-194,60.2-194,59.235-194S58.22-194,58.148-193.924Z" transform="translate(-55.858 206.083)" fill="#fff"/>
    <path id="Path_2947" data-name="Path 2947" d="M351.736-142.931a.276.276,0,0,0,0,.4l.084.084h2.206c2.118,0,2.213,0,2.29-.073a.3.3,0,0,0,0-.4c-.076-.076-.126-.076-2.286-.076C351.942-143,351.82-143,351.736-142.931Z" transform="translate(-338.23 157.029)" fill="#fff"/>
    <path id="Path_2948" data-name="Path 2948" d="M128.076-94.9c-.065.065-.076.126-.076.435,0,.343,0,.366.1.439a.225.225,0,0,0,.3.038c.118-.053.176-.21.176-.473,0-.24-.061-.427-.153-.477A.3.3,0,0,0,128.076-94.9Z" transform="translate(-123.115 110.835)" fill="#fff"/>
    <path id="Path_2949" data-name="Path 2949" d="M129.062-58.018c-.149.149-.076.424.172.641s.485.206.584,0a.293.293,0,0,0-.145-.385.493.493,0,0,1-.172-.172A.271.271,0,0,0,129.062-58.018Z" transform="translate(-124.063 75.367)" fill="#fff"/>
    <path id="Path_2950" data-name="Path 2950" d="M162.191-48.719a.274.274,0,0,0-.191.282c0,.214.1.263.5.263s.5-.05.5-.263-.1-.286-.454-.3A1.507,1.507,0,0,0,162.191-48.719Z" transform="translate(-155.818 66.363)" fill="#fff"/>
    <path id="Path_2951" data-name="Path 2951" d="M199.191-48.719a.274.274,0,0,0-.191.282c0,.214.1.263.5.263s.5-.05.5-.263-.1-.286-.454-.3A1.506,1.506,0,0,0,199.191-48.719Z" transform="translate(-191.406 66.363)" fill="#fff"/>
    <path id="Path_2952" data-name="Path 2952" d="M236.191-48.719a.274.274,0,0,0-.191.282c0,.214.1.263.5.263s.5-.05.5-.263-.1-.286-.454-.3A1.506,1.506,0,0,0,236.191-48.719Z" transform="translate(-226.994 66.363)" fill="#fff"/>
    <path id="Path_2953" data-name="Path 2953" d="M273.191-48.719a.274.274,0,0,0-.191.282c0,.214.1.263.5.263s.5-.05.5-.263-.1-.286-.454-.3A1.507,1.507,0,0,0,273.191-48.719Z" transform="translate(-262.582 66.363)" fill="#fff"/>
  </g>
</svg>
