<svg xmlns="http://www.w3.org/2000/svg" width="15.519" height="19.757" viewBox="0 0 15.519 19.757">
  <g id="clipboard" transform="translate(-55 511.879)">
    <path id="Path_2021" data-name="Path 2021" d="M62.165-511.822a2.229,2.229,0,0,0-1.413,1.1l-.127.263h-.776c-1.073,0-1.1.019-1.1.757v.4h-.973a6.5,6.5,0,0,0-1.22.058,2.053,2.053,0,0,0-1.509,1.517c-.031.147-.042,2.224-.042,7.127,0,6.787,0,6.93.077,7.173a1.883,1.883,0,0,0,1.44,1.247c.247.054.919.058,6.378.05l6.1-.012.259-.1a2.075,2.075,0,0,0,1.073-.88c.2-.405.193.008.193-7.493,0-7.578.012-7.119-.22-7.605a2.412,2.412,0,0,0-.869-.861,3.277,3.277,0,0,0-1.679-.22h-.977v-.4c0-.471-.031-.575-.2-.679-.116-.069-.2-.077-.927-.077h-.8l-.124-.263a2.3,2.3,0,0,0-.93-.93A2.693,2.693,0,0,0,62.165-511.822Zm1.1.942a1.313,1.313,0,0,1,.722.849c.135.471.2.5,1.127.5h.7v1.892h-6.1v-1.888l.71-.012c.853-.015.872-.023,1.031-.44a1.317,1.317,0,0,1,.421-.683,1.123,1.123,0,0,1,.907-.324A1.093,1.093,0,0,1,63.262-510.88Zm-4.509,3.173c.012.618.019.676.1.788a.549.549,0,0,0,.193.166c.081.031,1.077.042,3.764.035l3.652-.012.1-.1c.185-.17.212-.293.212-.95v-.6l1,.015.992.012.22.108a1.038,1.038,0,0,1,.506.506l.085.158.012,6.852c.008,5.32,0,6.891-.039,7.026a.961.961,0,0,1-.556.564c-.181.069-.394.073-6.131.085-6.463.012-6.2.019-6.544-.2a.761.761,0,0,1-.347-.467c-.035-.116-.042-1.892-.035-7.007.012-6.605.015-6.856.085-6.988a1.067,1.067,0,0,1,.761-.614c.093-.019.571-.035,1.066-.039l.892,0Z" fill="#001e7f"/>
    <path id="Path_2022" data-name="Path 2022" d="M119.286-340.82a10.648,10.648,0,0,0-.869.772c-.413.394-.764.718-.776.718a2.751,2.751,0,0,1-.328-.32c-.378-.4-.456-.452-.664-.452a.442.442,0,0,0-.413.568c.019.116.127.247.587.71a5.431,5.431,0,0,0,.676.618c.228.093.332.023,1.363-.954.938-.888,1.1-1.069,1.1-1.232a.574.574,0,0,0-.274-.413A.386.386,0,0,0,119.286-340.82Z" transform="translate(-58.862 -164.409)" fill="#001e7f"/>
    <path id="Path_2023" data-name="Path 2023" d="M232.247-310.938a.467.467,0,0,0-.247.44.474.474,0,0,0,.429.444c.093.012,1.386.019,2.872.012,2.942-.012,2.814,0,2.953-.235a.442.442,0,0,0-.151-.633l-.131-.089h-2.8A18.689,18.689,0,0,0,232.247-310.938Z" transform="translate(-170.167 -193.124)" fill="#001e7f"/>
    <path id="Path_2024" data-name="Path 2024" d="M119.086-242.974c-.042.023-.417.371-.834.772l-.757.726-.359-.367c-.374-.382-.529-.471-.73-.425a.489.489,0,0,0-.336.583,10.089,10.089,0,0,0,1.189,1.278.546.546,0,0,0,.44,0,28.323,28.323,0,0,0,2.062-2,.481.481,0,0,0-.158-.513A.511.511,0,0,0,119.086-242.974Z" transform="translate(-58.701 -258.479)" fill="#001e7f"/>
    <path id="Path_2025" data-name="Path 2025" d="M232.328-212.894a.483.483,0,0,0-.015.83c.17.089,5.66.089,5.845,0a.464.464,0,0,0,.2-.637c-.124-.239-.008-.232-3.115-.228C233.684-212.929,232.371-212.913,232.328-212.894Z" transform="translate(-170.248 -287.408)" fill="#001e7f"/>
    <path id="Path_2026" data-name="Path 2026" d="M119.286-145.8a9.539,9.539,0,0,0-.869.768c-.413.394-.764.718-.776.718a3.623,3.623,0,0,1-.328-.32c-.386-.4-.459-.452-.664-.452a.442.442,0,0,0-.413.567c.019.116.127.247.587.71a5.431,5.431,0,0,0,.676.618c.232.1.332.023,1.363-.954.938-.888,1.1-1.069,1.1-1.232a.574.574,0,0,0-.274-.413A.377.377,0,0,0,119.286-145.8Z" transform="translate(-58.862 -351.895)" fill="#001e7f"/>
    <path id="Path_2027" data-name="Path 2027" d="M232.214-115.961a.559.559,0,0,0-.181.154.456.456,0,0,0,.236.734c.216.058,5.505.05,5.683-.012a.536.536,0,0,0,.22-.178.442.442,0,0,0-.139-.649L237.9-116l-2.8,0C233.557-116,232.26-115.981,232.214-115.961Z" transform="translate(-170.095 -380.596)" fill="#001e7f"/>
  </g>
</svg>
