<svg xmlns="http://www.w3.org/2000/svg" width="15.463" height="15.548" viewBox="0 0 15.463 15.548">
  <g id="workload" transform="translate(-26.295 -25.065)">
    <path id="Path_3133" data-name="Path 3133" d="M-121.16-.13h3.836a.226.226,0,0,1,.177.114.776.776,0,0,1,.01.179c0,.035,0,.069,0,.1s0,.072,0,.109,0,.073,0,.111q0,.135,0,.27l.126-.008a.264.264,0,0,1,.218.062.429.429,0,0,1,.077.311v.066q0,.069,0,.139c0,.071,0,.141,0,.211q0,.067,0,.135c0,.041,0,.082,0,.123a.3.3,0,0,1-.152.241,1.935,1.935,0,0,1-.37,0v.505l.168.034A.9.9,0,0,1-117,3.1c0,.071,0,.142,0,.212q0,.068,0,.135c0,.041,0,.082,0,.124a.286.286,0,0,1-.076.188c-.075.053-.075.053-.209.053v.505l.119,0,.441-.005.19,0,.275,0,.085,0a.768.768,0,0,1,.588.232,1.286,1.286,0,0,1,.068.558c0,.039,0,.078,0,.119a.658.658,0,0,1-.153.521.4.4,0,0,1-.309.14l-.119,0h-.12l-.092,0c0,.035,0,.07,0,.106q0,1.282.007,2.565,0,.62,0,1.24,0,.54,0,1.081,0,.286,0,.572,0,.269,0,.539,0,.1,0,.2c0,.09,0,.18,0,.27,0,.026,0,.052,0,.078a1.012,1.012,0,0,1-.264.677,1.761,1.761,0,0,1-1.277.274h-.238l-.5,0q-.318,0-.636,0h-.726l-.328,0h-.1a1.08,1.08,0,0,1-.748-.294,1.287,1.287,0,0,1-.259-.915c0-.027,0-.055,0-.083q0-.137,0-.274,0-.1,0-.2,0-.267,0-.534t0-.559q0-.529,0-1.057,0-.6,0-1.2,0-1.238,0-2.476h-.057l-1.368.007-.662,0-.639,0h-.687a.6.6,0,0,1-.46-.151.769.769,0,0,1-.152-.621c0-.037,0-.075,0-.113a.74.74,0,0,1,.153-.546.935.935,0,0,1,.612-.15h.1l.327,0h.228l.6,0,.61,0,1.2.007V4.253q0-.156,0-.311l0-.109v-.2c.008-.083.008-.083.075-.184h.2V2.909l-.168-.034a.853.853,0,0,1-.078-.518c0-.068,0-.137,0-.205,0-.043,0-.086,0-.131s0-.079,0-.12a.322.322,0,0,1,.114-.238.792.792,0,0,1,.208-.008l.2.008V1.124l-.147,0a.878.878,0,0,1-.156,0c-.083-.083-.076-.13-.077-.243V.81c0-.024,0-.049,0-.074q0-.077,0-.155c0-.079,0-.158,0-.237q0-.075,0-.15V.121C-121.4-.079-121.359-.13-121.16-.13Zm.141.379V.754h3.5V.249Zm.37.875v.539h3.535V1.124Zm-.505.909v.505h3.535V2.033Zm.236.875v.539h3.535V2.909Zm-.269.909v.505h3.535V3.818Zm-3.8.943a.413.413,0,0,0-.012.152c0,.03,0,.06,0,.09l0,.095c0,.031,0,.062,0,.095a.352.352,0,0,0,.078.309.621.621,0,0,0,.152.009h.315l.368,0,.255,0,.6,0,1.145.007.377,0h.518a.464.464,0,0,1,.173.038v.108q0,1.3.009,2.591,0,.627,0,1.253,0,.546,0,1.092,0,.289,0,.578,0,.272,0,.545,0,.1,0,.2,0,.137,0,.273v.079a.956.956,0,0,0,.153.6,1.009,1.009,0,0,0,.8.23h2.538a1.041,1.041,0,0,0,.623-.152l.055-.038a.689.689,0,0,0,.166-.547c0-.043,0-.043,0-.087,0-.1,0-.193,0-.289q0-.1,0-.208,0-.223,0-.447,0-.353,0-.706,0-.813,0-1.625,0-.745,0-1.49,0-.351,0-.7,0-.218,0-.436,0-.1,0-.2,0-.138,0-.276c0-.04,0-.04,0-.082,0-.178,0-.178.056-.263a.683.683,0,0,1,.346-.053.44.44,0,0,0,.351-.082,2.446,2.446,0,0,0,.011-.337l0-.095c0-.03,0-.06,0-.09s0-.055,0-.083l-.013-.068a.333.333,0,0,0-.252-.076h-8.668C-124.9,4.689-124.9,4.689-124.992,4.761Z" transform="translate(157.27 27.137)" fill="#fff"/>
    <path id="Path_3134" data-name="Path 3134" d="M-64.27-4.769a1.627,1.627,0,0,1,.744.916,1.6,1.6,0,0,1-.151,1.186,3.858,3.858,0,0,1-.357.457l.049.027q.518.281,1.026.577l.1.06.2.119.492.286.088.051.082.047.071.041a1.058,1.058,0,0,0,.5.114h.426l.629,0,.386,0h.146a1.245,1.245,0,0,1,.958.282.93.93,0,0,1,.206.661.919.919,0,0,1-.419.63.862.862,0,0,1-.49.1h-.883l-.475,0h-.542A2.124,2.124,0,0,1-62.66.523l-.061-.035-.187-.11L-63.037.3c-.294-.171-.294-.171-.425-.258V3.48l1.986-.012H-61c.721-.008.721-.008,1.03.21a1.219,1.219,0,0,1,.355.936c0,.066,0,.066,0,.134q0,.073,0,.146t0,.155q0,.21,0,.42,0,.131,0,.262,0,.458,0,.917,0,.427,0,.853,0,.367,0,.734,0,.219,0,.438t0,.412q0,.075,0,.151a1.571,1.571,0,0,1-.278,1.082,1.213,1.213,0,0,1-.976.269,1.009,1.009,0,0,1-.572-.37.994.994,0,0,1-.172-.586V9.393c0-.043,0-.085,0-.129q0-.176,0-.351t0-.367q0-.347,0-.695,0-.4,0-.791,0-.813,0-1.627h-.063L-63.2,5.44l-.739,0-.644,0-.341,0h-.494a1.093,1.093,0,0,1-.813-.327.987.987,0,0,1-.269-.757V4.29c0-.083,0-.166,0-.249q0-.09,0-.18,0-.243,0-.487,0-.152,0-.3,0-.531,0-1.063,0-.495,0-.989,0-.425,0-.851,0-.254,0-.507t0-.477q0-.087,0-.175a1.353,1.353,0,0,1,.3-1.032,2.2,2.2,0,0,1,.292-.22l-.051-.042a1.459,1.459,0,0,1-.5-.966,1.583,1.583,0,0,1,.393-1.2l.086-.078.095-.086A1.533,1.533,0,0,1-64.27-4.769Zm-1.279.37-.063.036a1.171,1.171,0,0,0-.459.626,1.213,1.213,0,0,0,.119.887,1.377,1.377,0,0,0,.741.539,1.2,1.2,0,0,0,.987-.276,1.054,1.054,0,0,0,.368-.7,1.279,1.279,0,0,0-.285-.912,1.059,1.059,0,0,0-.759-.343A1.11,1.11,0,0,0-65.549-4.4Zm-.409,2.661L-66-1.669l-.047.069a.723.723,0,0,0-.075.4c0,.024,0,.049,0,.074q0,.123,0,.246,0,.088,0,.176,0,.289,0,.578,0,.1,0,.2,0,.468,0,.935,0,.54,0,1.079,0,.417,0,.834,0,.249,0,.5t0,.469q0,.086,0,.172a1.1,1.1,0,0,0,.212.833l.059.046.059.048a.531.531,0,0,0,.331.077h.626l.429,0,1.219.006.673,0,.426,0,.327,0h.323c.079.009.079.009.18.076a.766.766,0,0,1,.013.18v.244q0,.1,0,.2t0,.219q0,.229,0,.458,0,.569,0,1.137,0,.441,0,.883,0,.227,0,.454,0,.142,0,.284c0,.064,0,.129,0,.193a.835.835,0,0,0,.2.645.674.674,0,0,0,.527.161.6.6,0,0,0,.366-.18.92.92,0,0,0,.173-.622V8.99q0-.209,0-.418,0-.131,0-.261,0-.409,0-.818,0-.472,0-.943,0-.365,0-.73,0-.218,0-.435t0-.41q0-.075,0-.15a1.089,1.089,0,0,0-.179-.782l-.069-.056-.069-.058a.759.759,0,0,0-.473-.084h-.3l-.323,0-.92-.005-.562,0h-.215l-.3,0h-.244a.222.222,0,0,1-.164-.114.676.676,0,0,1-.012-.166V3.331c0-.04,0-.079,0-.12q0-.163,0-.326c0-.114,0-.227,0-.341q0-.286,0-.573,0-.368,0-.736,0-.316,0-.632,0-.1,0-.2,0-.189,0-.378V-.2c0-.03,0-.06,0-.09a.241.241,0,0,1,.038-.139.674.674,0,0,1,.451.11l.059.035.186.111.123.072q.236.138.471.28l.106.063.092.056a1.226,1.226,0,0,0,.589.125H-59.5a.489.489,0,0,0,.36-.2.421.421,0,0,0,.078-.374.493.493,0,0,0-.187-.28A1.031,1.031,0,0,0-59.679-.5H-60.1l-.627,0-.384,0h-.145a1.883,1.883,0,0,1-1.033-.266L-62.4-.839l-.116-.068-.123-.071-.253-.147-.487-.282-.219-.127q-.248-.144-.5-.283l-.088-.049a1.023,1.023,0,0,0-.475-.081H-64.9l-.162,0A1.149,1.149,0,0,0-65.959-1.738Z" transform="translate(93.821 30)" fill="#fff"/>
    <path id="Path_3135" data-name="Path 3135" d="M-7.627-.414l.095.046a.959.959,0,0,1,.038.334V.039q0,.12,0,.241,0,.086,0,.172,0,.186,0,.371,0,.293,0,.587v.3q0,.683,0,1.367,0,.461,0,.922,0,.244,0,.488t0,.459q0,.084,0,.168c0,.077,0,.153,0,.23v.13a.585.585,0,0,0,.152.318.922.922,0,0,0,.6.114h.8l.953,0,.874,0h1.039a.222.222,0,0,1,.178.114.651.651,0,0,1,0,.2.173.173,0,0,1-.159.075h-.524l-.483,0-1.09,0v3.838l1.434-.006h.663a.173.173,0,0,1,.159.075.811.811,0,0,1,0,.2c-.089.089-.13.076-.255.076H-7.618c-.082-.008-.082-.008-.15-.076a.811.811,0,0,1,0-.2.173.173,0,0,1,.159-.075h.524l.483,0,1.09,0V6.3H-7.2a.949.949,0,0,1-.638-.533,2.154,2.154,0,0,1-.056-.694q0-.088,0-.177c0-.159,0-.318,0-.477s0-.333,0-.5q0-.42,0-.839,0-.485,0-.971,0-.467,0-.934,0-.2,0-.4,0-.234,0-.467,0-.086,0-.172c0-.078,0-.156,0-.234V-.229A.22.22,0,0,1-7.807-.4C-7.734-.435-7.734-.435-7.627-.414Z" transform="translate(34.188 30.11)" fill="#fff"/>
  </g>
</svg>
