<svg xmlns="http://www.w3.org/2000/svg" width="18.897" height="18.897" viewBox="0 0 18.897 18.897">
  <g id="payslip" transform="translate(0 512)">
    <path id="Path_2105" data-name="Path 2105" d="M0-502.551v9.449H18.9V-512H17.377c-1.366,0-1.513.007-1.425.059a.407.407,0,0,1,.148.137c.037.063.052,1.074.059,4.883l.007,4.8-3.274,1.561A24.913,24.913,0,0,1,9.449-499a25.908,25.908,0,0,1-3.444-1.561l-3.274-1.565.007-4.8c.007-3.805.022-4.817.059-4.879a.407.407,0,0,1,.148-.137c.089-.052-.059-.055-1.421-.059H0Z" fill="#ed1c24"/>
    <path id="Path_2106" data-name="Path 2106" d="M123.774-473.787a.3.3,0,0,0-.092.258c0,.122-.015.166-.055.166a.579.579,0,0,0-.2.137.65.65,0,0,0-.188.664c.055.247.225.406.583.543.292.111.413.229.413.395,0,.266-.384.354-.627.144-.155-.133-.306-.144-.384-.03-.14.2.011.461.314.55.137.041.144.052.144.188a.286.286,0,0,0,.092.233c.173.177.384.074.413-.21.018-.148.037-.177.125-.218a.769.769,0,0,0,.365-.421.939.939,0,0,0-.085-.694.612.612,0,0,0-.351-.284c-.543-.255-.506-.225-.506-.388,0-.2.107-.24.465-.155.233.055.273.059.347.011.2-.129.122-.34-.155-.447-.181-.07-.188-.081-.207-.24C124.158-473.861,123.947-473.964,123.774-473.787Z" transform="translate(-118.625 -36.718)" fill="#ed1c24"/>
    <path id="Path_2107" data-name="Path 2107" d="M184.573-452.945a.294.294,0,0,0-.1.148.347.347,0,0,0,.144.328c.033.011,1.831.022,3.99.022,3.879,0,3.927,0,4-.074a.3.3,0,0,0,.074-.2.3.3,0,0,0-.074-.2c-.074-.074-.122-.074-4.016-.074A35.04,35.04,0,0,0,184.573-452.945Z" transform="translate(-177.66 -56.822)" fill="#ed1c24"/>
    <path id="Path_2108" data-name="Path 2108" d="M177.1-411.923a.23.23,0,0,0-.1.218.23.23,0,0,0,.1.218c.1.077.107.077,4.152.077H185.3l.1-.085a.247.247,0,0,0,.1-.21.247.247,0,0,0-.1-.21l-.1-.085h-4.053C177.2-412,177.2-412,177.1-411.923Z" transform="translate(-170.467 -96.309)" fill="#ed1c24"/>
    <path id="Path_2109" data-name="Path 2109" d="M105.074-369.926a.3.3,0,0,0-.074.2.3.3,0,0,0,.074.2c.074.074.122.074,5.5.074s5.426,0,5.5-.074a.3.3,0,0,0,.074-.2.3.3,0,0,0-.074-.2c-.074-.074-.122-.074-5.5-.074S105.148-370,105.074-369.926Z" transform="translate(-101.125 -136.759)" fill="#ed1c24"/>
    <path id="Path_2110" data-name="Path 2110" d="M347.627-347.863a.326.326,0,0,0-.1.251c-.018.166-.033.192-.151.255a.537.537,0,0,0-.3.517c-.026.41.114.594.579.775.288.107.41.225.41.391,0,.266-.384.354-.627.144a.505.505,0,0,0-.21-.111.263.263,0,0,0-.233.236c0,.126.17.317.358.4.14.063.159.085.159.192a.3.3,0,0,0,.258.317.3.3,0,0,0,.258-.328c0-.118.018-.14.151-.2a.662.662,0,0,0,.247-.218c.089-.133.1-.185.1-.45a.638.638,0,0,0-.45-.72c-.546-.255-.509-.225-.509-.388,0-.207.107-.24.484-.148l.284.07.085-.1a.36.36,0,0,0,.089-.155c0-.089-.162-.229-.329-.277-.144-.044-.151-.052-.151-.188a.286.286,0,0,0-.092-.233A.2.2,0,0,0,347.627-347.863Z" transform="translate(-334.193 -158.018)" fill="#ed1c24"/>
    <path id="Path_2111" data-name="Path 2111" d="M105.081-328.923a.289.289,0,0,0-.026.406l.07.089h8.209l.07-.089a.289.289,0,0,0-.026-.406c-.1-.077-.107-.077-4.149-.077S105.181-329,105.081-328.923Z" transform="translate(-101.11 -176.246)" fill="#ed1c24"/>
    <path id="Path_2112" data-name="Path 2112" d="M105.082-286.926a.291.291,0,0,0,.011.4l.085.081h8.161l.077-.085a.294.294,0,0,0,.007-.395c-.074-.074-.122-.074-4.171-.074S105.156-287,105.082-286.926Z" transform="translate(-101.133 -216.695)" fill="#ed1c24"/>
  </g>
</svg>
