<svg xmlns="http://www.w3.org/2000/svg" width="14.593" height="10.422" viewBox="0 0 14.593 10.422">
  <g id="sms" transform="translate(0 0)">
    <path id="Path_1716" data-name="Path 1716" d="M32.414-415.583l-.414.414v8.761l.417.417.414.414H45.762l.417-.417.414-.414v-8.761l-.417-.417L45.762-416H32.831Zm12.16.769c-.081.078-1.228,1.133-2.55,2.345l-2.407,2.2H38.98l-2.423-2.218c-1.332-1.221-2.482-2.276-2.554-2.345l-.13-.127H44.72Zm-9.652,2.244c.954.876,1.736,1.593,1.736,1.6s-.814.821-1.808,1.814l-1.808,1.808v-6.93l.072.062C33.153-414.189,33.967-413.443,34.922-412.571ZM45.544-409.1l-.01,1.726-1.8-1.8-1.8-1.8,1.8-1.651,1.8-1.651.01,1.726C45.547-411.6,45.547-410.043,45.544-409.1Zm-7.492-.612.521.482H39.3l.73,0,.564-.518c.313-.287.567-.521.57-.521s.827.821,1.831,1.824l1.824,1.824H33.775l1.824-1.824c1.6-1.6,1.831-1.817,1.876-1.781C37.508-410.206,37.766-409.972,38.052-409.708Z" transform="translate(-32 416)" fill="#de0e0e"/>
  </g>
</svg>
