<svg xmlns="http://www.w3.org/2000/svg" width="9.927" height="11.345" viewBox="0 0 9.927 11.345">
  <path id="Icon_awesome-calendar-alt" data-name="Icon awesome-calendar-alt" d="M0,10.281a1.064,1.064,0,0,0,1.064,1.064h7.8a1.064,1.064,0,0,0,1.064-1.064V4.254H0ZM7.091,5.938a.267.267,0,0,1,.266-.266h.886a.267.267,0,0,1,.266.266v.886a.267.267,0,0,1-.266.266H7.356a.267.267,0,0,1-.266-.266Zm0,2.836a.267.267,0,0,1,.266-.266h.886a.267.267,0,0,1,.266.266v.886a.267.267,0,0,1-.266.266H7.356a.267.267,0,0,1-.266-.266ZM4.254,5.938a.267.267,0,0,1,.266-.266h.886a.267.267,0,0,1,.266.266v.886a.267.267,0,0,1-.266.266H4.52a.267.267,0,0,1-.266-.266Zm0,2.836a.267.267,0,0,1,.266-.266h.886a.267.267,0,0,1,.266.266v.886a.267.267,0,0,1-.266.266H4.52a.267.267,0,0,1-.266-.266ZM1.418,5.938a.267.267,0,0,1,.266-.266H2.57a.267.267,0,0,1,.266.266v.886a.267.267,0,0,1-.266.266H1.684a.267.267,0,0,1-.266-.266Zm0,2.836a.267.267,0,0,1,.266-.266H2.57a.267.267,0,0,1,.266.266v.886a.267.267,0,0,1-.266.266H1.684a.267.267,0,0,1-.266-.266ZM8.863,1.418H7.8V.355A.356.356,0,0,0,7.445,0H6.736a.356.356,0,0,0-.355.355V1.418H3.545V.355A.356.356,0,0,0,3.191,0H2.482a.356.356,0,0,0-.355.355V1.418H1.064A1.064,1.064,0,0,0,0,2.482V3.545H9.927V2.482A1.064,1.064,0,0,0,8.863,1.418Z" fill="#d90810"/>
</svg>
