<svg xmlns="http://www.w3.org/2000/svg" width="24.714" height="22.102" viewBox="0 0 24.714 22.102">
  <g id="inventory_1_" data-name="inventory (1)" transform="translate(-10 476)">
    <path id="Path_3505" data-name="Path 3505" d="M14.867-475.9c-.09.07-.116.156-.136.392l-.02.306-.251.02a.718.718,0,0,0-.638.457l-.116.236h-.944c-.854,0-.954.01-1.06.1l-.121.1-.015,5.525c-.01,5.515-.01,5.52.09,5.651l.105.136,1.115.01,1.115.015.015.663.015.668H10.291l-.146.146-.146.151.01,3.622.015,3.627.121.1c.116.1.377.1,12.186.1,6.641,0,12.111-.015,12.156-.03.226-.09.226-.105.226-3.863v-3.551l-.146-.146-.146-.146H30.7V-465c0-3.2-.005-3.371-.09-3.456s-.241-.1-2.15-.121c-1.13-.015-3.28-.02-4.777-.005l-2.728.025v-2.763c0-2.843-.01-3.024-.2-3.124a5.912,5.912,0,0,0-1.025-.05H18.8l-.1-.216a.778.778,0,0,0-.668-.477l-.246-.025v-.186a.7.7,0,0,0-.2-.553,9.551,9.551,0,0,0-1.346-.05C15.093-476,14.973-475.99,14.867-475.9Zm2.115.959v.3H15.541l-.035-.251a.843.843,0,0,1-.005-.3,2.92,2.92,0,0,1,.758-.05h.723Zm-2.24.7c.055.352.085.357,1.522.357,1.19,0,1.276-.005,1.366-.1a.649.649,0,0,0,.136-.276c.02-.131.055-.181.126-.181.085,0,.1.045.1.5v.5H14.521v-.5c0-.457.01-.5.1-.5C14.687-474.443,14.717-474.393,14.742-474.247Zm-1.02.939c.02.4.03.437.161.553l.146.126,2.25-.015c2.677-.02,2.461.04,2.461-.653v-.442h1.406v10H12.361v-10h1.346Zm8.233,8.585v3.089H14.772v-1.356h2.979c2.969,0,2.984,0,3.079-.105s.1-.226.111-2.411l.015-2.306h1Zm2.964-2.185c0,.9,0,.909.126,1.03l.121.126H26.34c1.085,0,1.19-.01,1.3-.1s.121-.121.136-1.03l.015-.934h2.155v6.178H22.759v-6.178h2.16Zm2.059-.251v.653H25.672v-1.306h1.306Zm-14.015,7.2c0,1.266-.131,1.155,1.371,1.175l1.18.015.141-.126.146-.121.015-.909.015-.909h2.155v6.178H10.8v-6.229h2.16Zm20.947,2.19v3.114H26.727v-6.178h2.155l.015.909.015.909.146.121.141.126,1.18-.015c1.5-.02,1.371.09,1.371-1.175v-.924h2.16Zm-18.887-2.411v.658l-.638-.015-.643-.015-.015-.643-.015-.638h1.311Zm5.927.271v.929l.131.1c.126.1.2.105,1.286.105h1.15l.121-.126c.126-.121.126-.131.126-1.03v-.9h2.21l-.01,3.074-.015,3.079H18.765l-.015-3.079-.01-3.074h2.21Zm2.059-.271v.653H21.7v-1.306H23.01Zm7.977-.015-.015.643-.638.015-.643.015v-1.311H31Z" fill="#fff"/>
    <path id="Path_3506" data-name="Path 3506" d="M74.991-395.916c-.206.181-.241.2-.452.171s-.241-.01-.337.111c-.171.216-.141.362.136.633.367.372.467.352.995-.171.457-.457.5-.568.311-.809C75.489-396.182,75.268-396.162,74.991-395.916Z" transform="translate(-60.877 -75.869)" fill="#fff"/>
    <path id="Path_3507" data-name="Path 3507" d="M116.1-386.9a.4.4,0,0,0-.1.276.4.4,0,0,0,.1.276c.1.1.166.1,1.854.1,1.638,0,1.758-.005,1.869-.1a.31.31,0,0,0,.116-.281.31.31,0,0,0-.116-.281c-.111-.09-.231-.1-1.869-.1C116.266-387,116.2-386.995,116.1-386.9Z" transform="translate(-100.675 -84.529)" fill="#fff"/>
    <path id="Path_3508" data-name="Path 3508" d="M74.985-354.67c-.206.2-.261.221-.347.176a.328.328,0,0,0-.432.07c-.191.186-.161.347.121.638.367.387.462.372.99-.171.467-.477.517-.6.3-.819C75.432-354.961,75.271-354.936,74.985-354.67Z" transform="translate(-60.866 -115.021)" fill="#fff"/>
    <path id="Path_3509" data-name="Path 3509" d="M116.129-345.895a.309.309,0,0,0-.131.291c0,.362-.04.357,1.974.357h1.788l.1-.131c.141-.181.131-.3-.04-.477l-.146-.146h-1.708C116.32-346,116.26-345.995,116.129-345.895Z" transform="translate(-100.674 -123.47)" fill="#fff"/>
    <path id="Path_3510" data-name="Path 3510" d="M75.371-313.84a1.505,1.505,0,0,0-.281.226c-.181.176-.216.191-.337.146a.392.392,0,0,0-.517.417.917.917,0,0,0,.683.583,3.072,3.072,0,0,0,.934-.889.367.367,0,0,0-.181-.442C75.517-313.88,75.492-313.885,75.371-313.84Z" transform="translate(-61.001 -153.988)" fill="#fff"/>
    <path id="Path_3511" data-name="Path 3511" d="M115.963-303.92a.379.379,0,0,0,.02.568c.131.1.191.105,1.808.105,1.768,0,1.874-.01,1.974-.236a.289.289,0,0,0-.05-.387l-.1-.131h-1.773C116.325-304,116.059-303.99,115.963-303.92Z" transform="translate(-100.528 -163.36)" fill="#fff"/>
    <path id="Path_3512" data-name="Path 3512" d="M74.991-271.916c-.206.181-.241.2-.452.171s-.241-.01-.337.111c-.171.216-.141.362.136.633.367.372.467.352.995-.171.457-.457.5-.568.311-.809C75.489-272.182,75.268-272.162,74.991-271.916Z" transform="translate(-60.877 -193.641)" fill="#fff"/>
    <path id="Path_3513" data-name="Path 3513" d="M116.11-262.9a.415.415,0,0,0-.01.553c.1.1.166.1,1.854.1,1.638,0,1.758-.005,1.869-.1a.31.31,0,0,0,.116-.281.31.31,0,0,0-.116-.281c-.111-.09-.231-.1-1.859-.1C116.276-263,116.215-262.995,116.11-262.9Z" transform="translate(-100.675 -202.301)" fill="#fff"/>
  </g>
</svg>
