<svg xmlns="http://www.w3.org/2000/svg" width="18.592" height="19.637" viewBox="0 0 18.592 19.637">
  <g id="bar-graph_1_" data-name="bar-graph (1)" transform="translate(-39.373 484)">
    <path id="Path_2866" data-name="Path 2866" d="M115-479.669v4.331l1.256-.009,1.252-.013.013-4.322L117.53-484H115Zm1.706-.013-.013,3.507-.437.013-.442.013v-7.036h.9Z" transform="translate(-72.384)" fill="#fff"/>
    <path id="Path_2867" data-name="Path 2867" d="M187.177-454.949c-.013.03-.017,1.694-.013,3.7l.013,3.645,1.256.013,1.252.009V-455h-1.243A4.816,4.816,0,0,0,187.177-454.949Zm1.694,3.657v2.894h-.9v-2.864c0-1.578.013-2.881.03-2.894a1.872,1.872,0,0,1,.45-.03h.42Z" transform="translate(-141.453 -27.757)" fill="#fff"/>
    <path id="Path_2868" data-name="Path 2868" d="M42-412.149v2.851h2.53V-415H42Zm1.715,0v2.037h-.9v-4.073h.9Z" transform="translate(-2.514 -66.042)" fill="#fff"/>
    <path id="Path_2869" data-name="Path 2869" d="M322.628-412.831c-.2.077-.232.193-.232.8v.566l-.6.017c-.6.013-.6.013-.707.133a.387.387,0,0,0,.021.549l.124.124H322.4v1.166l.124.124a.36.36,0,0,0,.472.06c.176-.086.219-.262.219-.84v-.51h.536c.622,0,.759-.043.832-.27a.378.378,0,0,0-.15-.455c-.1-.081-.167-.09-.665-.09h-.545l-.017-.583-.013-.583-.141-.124A.352.352,0,0,0,322.628-412.831Z" transform="translate(-269.534 -68.082)" fill="#fff"/>
    <path id="Path_2870" data-name="Path 2870" d="M39.657-263.924a.5.5,0,0,0-.279.317.467.467,0,0,0,.189.424c.056.03,3.006.043,9.115.043h9.034l.124-.124a.379.379,0,0,0-.141-.643C57.562-263.954,39.786-263.971,39.657-263.924Z" transform="translate(0 -210.613)" fill="#fff"/>
    <path id="Path_2871" data-name="Path 2871" d="M264-225.921v2.079h2.53V-228H264Zm1.715,0v1.265h-.9v-2.53h.9Z" transform="translate(-214.996 -245.024)" fill="#fff"/>
    <path id="Path_2872" data-name="Path 2872" d="M337-223.669v4.331l1.256-.009,1.252-.013v-8.618l-1.252-.013L337-228Zm1.706.009.009,3.507h-.9v-7.036l.442.013.437.013Z" transform="translate(-284.866 -245.024)" fill="#fff"/>
    <path id="Path_2873" data-name="Path 2873" d="M409-225.149v2.851h2.53V-228H409Zm1.715,0v2.037h-.9v-4.073h.9Z" transform="translate(-353.779 -245.024)" fill="#fff"/>
    <path id="Path_2874" data-name="Path 2874" d="M105.8-165.893a.4.4,0,0,0,0,.579l.1.107h3.181l.1-.12a.468.468,0,0,0,.047-.506c-.12-.159-.206-.167-1.779-.167h-1.539Z" transform="translate(-63.459 -304.365)" fill="#fff"/>
  </g>
</svg>
