<svg xmlns="http://www.w3.org/2000/svg" width="18.717" height="21.818" viewBox="0 0 18.717 21.818">
  <g id="order_1_" data-name="order (1)" transform="translate(-37.237 511)">
    <path id="Path_2176" data-name="Path 2176" d="M248.09-510.889c-.086.107-.09.167-.09,1.031,0,.915,0,.915.107,1.018a.334.334,0,0,0,.235.107.334.334,0,0,0,.235-.107c.107-.1.107-.1.107-1.018,0-.864,0-.924-.09-1.031a.266.266,0,0,0-.252-.111A.266.266,0,0,0,248.09-510.889Z" transform="translate(-201.746 0)" fill="#fff"/>
    <path id="Path_2177" data-name="Path 2177" d="M166.231-490.85a.415.415,0,0,0-.231.317,13.219,13.219,0,0,0,.8,1.467.482.482,0,0,0,.377.269c.1,0,.317-.235.317-.346a4.227,4.227,0,0,0-.347-.7c-.5-.873-.56-.958-.672-1.005A.212.212,0,0,0,166.231-490.85Z" transform="translate(-123.254 -19.252)" fill="#fff"/>
    <path id="Path_2178" data-name="Path 2178" d="M311.984-488.562a6.532,6.532,0,0,0-.984,1.707.318.318,0,0,0,.5.27,8.263,8.263,0,0,0,.954-1.686c0-.124-.124-.3-.21-.3a.344.344,0,0,1-.1-.021A.256.256,0,0,0,311.984-488.562Z" transform="translate(-262.051 -21.441)" fill="#fff"/>
    <path id="Path_2179" data-name="Path 2179" d="M46.155-436.8a4.128,4.128,0,0,0-2.948,1.763,4.9,4.9,0,0,0-.595,1.292,4.694,4.694,0,0,0-.047,1.827l.077.372-.154.064c-.081.03-.881.342-1.775.689s-1.647.65-1.677.672c-.051.043-1.673,2.819-1.771,3.037a.26.26,0,0,0,0,.244c.06.145.09.158.975.5l.65.252v4.809l.094.107c.073.081,1.04.471,3.795,1.544,2.032.787,3.748,1.433,3.816,1.433s1.78-.646,3.812-1.433c2.776-1.078,3.718-1.463,3.79-1.544l.094-.107v-4.809l.655-.252c.881-.338.911-.355.971-.5a.26.26,0,0,0,0-.244c-.1-.218-1.72-2.995-1.771-3.037-.03-.021-.783-.325-1.677-.672s-1.694-.659-1.775-.689l-.154-.064.077-.372a4.694,4.694,0,0,0-.047-1.827A5.023,5.023,0,0,0,50.014-435a4.253,4.253,0,0,0-2.31-1.677,6.546,6.546,0,0,0-1.172-.163C46.51-436.841,46.339-436.824,46.155-436.8Zm1.3.774a3.425,3.425,0,0,1,2.011,5.181,3.647,3.647,0,0,1-1.63,1.326,4.312,4.312,0,0,1-1.236.244,4.312,4.312,0,0,1-1.236-.244,3.568,3.568,0,0,1-1.942-1.908,3.44,3.44,0,0,1,.667-3.606A3.38,3.38,0,0,1,47.451-436.028ZM43-430.723a4.18,4.18,0,0,0,3.106,2.092,4.173,4.173,0,0,0,4.081-2.092c.056-.1.12-.18.145-.18.056,0,2.563.984,2.605,1.027S46.707-427.4,46.6-427.4s-6.383-2.451-6.357-2.477c.043-.039,2.52-1.022,2.592-1.027C42.87-430.9,42.947-430.822,43-430.723Zm-.244,2.6c1.805.7,3.294,1.288,3.307,1.3s-1.168,2.122-1.283,2.284c0,0-1.506-.578-3.341-1.292-1.994-.779-3.333-1.322-3.324-1.352.03-.116,1.271-2.22,1.309-2.22S40.953-428.828,42.758-428.127Zm11.679-.192c.342.6.633,1.108.637,1.138s-1.3.56-3.324,1.348c-1.835.714-3.337,1.3-3.341,1.292-.184-.282-1.3-2.267-1.283-2.284.034-.039,6.545-2.571,6.618-2.575A5.615,5.615,0,0,1,54.437-428.319Zm-12.18,3.538c1.792.7,2.674,1.018,2.738,1.005.15-.038.188-.09.727-1.031l.509-.886.013,1.673c0,.92,0,2.421,0,3.333l-.013,1.66-3.315-1.292L39.6-421.607l-.013-2.1c0-1.159,0-2.1.009-2.1S40.8-425.35,42.258-424.781ZM53.6-423.707l-.013,2.1-3.315,1.288-3.315,1.288-.013-1.66c0-.911,0-2.413,0-3.328l.013-1.673.53.92c.424.736.556.928.655.971.141.056-.051.128,3.5-1.262,1.048-.411,1.917-.749,1.938-.749S53.607-424.867,53.6-423.707Z" transform="translate(0 -70.985)" fill="#fff"/>
    <path id="Path_2180" data-name="Path 2180" d="M193.282-391.967a10.744,10.744,0,0,0-1.176,1.091c-.552.556-1.014,1.01-1.031,1.01a3.3,3.3,0,0,1-.329-.385c-.308-.385-.458-.5-.736-.56a.941.941,0,0,0-.958.492.961.961,0,0,0,.03.783c.051.094.372.522.71.95.5.633.65.791.813.869a.868.868,0,0,0,.826-.021c.1-.06.821-.749,1.6-1.536,1.54-1.549,1.54-1.549,1.506-1.985A.882.882,0,0,0,193.282-391.967Zm.526.655c.133.133.043.24-1.352,1.63-.77.77-1.42,1.4-1.446,1.4-.086,0-.188-.116-.761-.834-.616-.77-.689-.924-.483-1a.235.235,0,0,1,.15-.013,5.279,5.279,0,0,1,.488.552c.449.556.569.65.761.569.06-.026.629-.565,1.262-1.2C193.569-391.351,193.68-391.441,193.808-391.313Z" transform="translate(-145.253 -113.861)" fill="#fff"/>
    <path id="Path_2181" data-name="Path 2181" d="M106.219-431.862a.345.345,0,0,0-.086.543,10.842,10.842,0,0,0,1.6.9.335.335,0,0,0,.312-.5,12.363,12.363,0,0,0-1.673-.98A.5.5,0,0,0,106.219-431.862Z" transform="translate(-65.857 -75.716)" fill="#fff"/>
    <path id="Path_2182" data-name="Path 2182" d="M356.912-427.582c-.394.227-.753.453-.8.5a.364.364,0,0,0-.047.411.405.405,0,0,0,.376.141,17.489,17.489,0,0,0,1.561-.92.345.345,0,0,0-.257-.548A4.294,4.294,0,0,0,356.912-427.582Z" transform="translate(-305.144 -79.448)" fill="#fff"/>
    <path id="Path_2183" data-name="Path 2183" d="M83.1-349.9a.336.336,0,0,0,.214.565,8.864,8.864,0,0,0,.941.013c.779-.013.8-.017.907-.116a.31.31,0,0,0,.013-.466c-.094-.09-.133-.094-1.04-.094C83.2-350,83.191-350,83.1-349.9Z" transform="translate(-43.812 -154.112)" fill="#fff"/>
    <path id="Path_2184" data-name="Path 2184" d="M372.187-345.9a.362.362,0,0,0-.013.462c.081.1.1.1.95.115a8.917,8.917,0,0,0,.967-.013.328.328,0,0,0,.163-.556l-.1-.107h-.937C372.294-346,372.277-346,372.187-345.9Z" transform="translate(-320.535 -157.941)" fill="#fff"/>
  </g>
</svg>
