<svg xmlns="http://www.w3.org/2000/svg" width="15.383" height="15.383" viewBox="0 0 15.383 15.383">
  <path id="Icon_awesome-chevron-circle-up" data-name="Icon awesome-chevron-circle-up" d="M.563,8.254a7.691,7.691,0,1,1,7.691,7.691A7.69,7.69,0,0,1,.563,8.254ZM7.727,4.721l-4.2,4.2a.741.741,0,0,0,0,1.051l.527.527a.741.741,0,0,0,1.051,0L8.254,7.351,11.4,10.5a.741.741,0,0,0,1.051,0l.527-.527a.741.741,0,0,0,0-1.051l-4.2-4.2A.745.745,0,0,0,7.727,4.721Z" transform="translate(-0.563 -0.563)" fill="#ed1c24"/>
</svg>
