<svg xmlns="http://www.w3.org/2000/svg" width="17.005" height="17.169" viewBox="0 0 17.005 17.169">
  <g id="setting_1_" data-name="setting (1)" transform="translate(-26.615 -26.504)">
    <path id="Path_2839" data-name="Path 2839" d="M-125.006-.2h.809l.436,0h.852a.467.467,0,0,1,.3.167.844.844,0,0,1,.044.293l0,.107q0,.111,0,.223a.7.7,0,0,0,.173.526.616.616,0,0,0,.469.168.934.934,0,0,0,.47-.337c.276-.3.276-.3.46-.338a.41.41,0,0,1,.294.136l.078.071.082.077.082.077c.187.179.372.361.556.544l.2.2q.148.144.295.29l.092.089c.231.232.231.232.257.411a.354.354,0,0,1-.1.285l-.062.074a2.338,2.338,0,0,1-.2.183.708.708,0,0,0-.287.451.583.583,0,0,0,.162.473.592.592,0,0,0,.442.155l.108,0,.224,0c.273.008.273.008.417.093a.541.541,0,0,1,.112.418c0,.047,0,.094,0,.142s0,.1,0,.154,0,.105,0,.158q0,.165,0,.331,0,.211,0,.423,0,.163,0,.326,0,.078,0,.156c0,.073,0,.146,0,.218,0,.041,0,.083,0,.125a.554.554,0,0,1-.125.3.518.518,0,0,1-.332.084l-.106,0-.22,0a.86.86,0,0,0-.565.171.746.746,0,0,0-.13.469,1.07,1.07,0,0,0,.375.518c.27.256.27.256.278.477-.034.241-.229.388-.4.55l-.108.108-.227.224q-.146.143-.29.287l-.224.222-.159.157-.1.1-.086.085a.551.551,0,0,1-.373.145,1.063,1.063,0,0,1-.491-.4.644.644,0,0,0-.414-.247.685.685,0,0,0-.473.124.986.986,0,0,0-.169.672c0,.447,0,.447-.127.588a.62.62,0,0,1-.38.084h-2.029a.557.557,0,0,1-.3-.125.508.508,0,0,1-.084-.324l0-.1q0-.1,0-.209a.854.854,0,0,0-.171-.552.649.649,0,0,0-.528-.134,1.638,1.638,0,0,0-.611.5.5.5,0,0,1-.306.151,1.443,1.443,0,0,1-.623-.457l-.1-.1-.214-.216-.274-.276-.263-.264-.1-.1-.092-.093L-128.842,9a.458.458,0,0,1-.143-.345,1.522,1.522,0,0,1,.5-.634.57.57,0,0,0,.141-.457.65.65,0,0,0-.16-.345,1,1,0,0,0-.611-.13c-.431,0-.431,0-.611-.13a.618.618,0,0,1-.085-.383c0-.048,0-.1,0-.144s0-.1,0-.156,0-.107,0-.16q0-.168,0-.335c0-.143,0-.286,0-.429q0-.165,0-.33,0-.079,0-.158c0-.074,0-.148,0-.221,0-.042,0-.084,0-.127a.482.482,0,0,1,.167-.3.5.5,0,0,1,.252-.045l.108,0,.224,0a.81.81,0,0,0,.611-.211.889.889,0,0,0,.139-.44,1.364,1.364,0,0,0-.527-.678.4.4,0,0,1-.146-.341c.035-.245.239-.4.409-.56l.111-.111q.146-.145.294-.288l.24-.236q.247-.245.5-.487l.089-.087A.349.349,0,0,1-127.1.617a1.022,1.022,0,0,1,.6.423.637.637,0,0,0,.463.23.6.6,0,0,0,.44-.215.61.61,0,0,0,.107-.378l0-.1q0-.107,0-.213c.011-.329.011-.329.132-.473A.485.485,0,0,1-125.006-.2Zm.248.715-.037.519a1.255,1.255,0,0,1-.542.765,1.566,1.566,0,0,1-1.088.136,1.7,1.7,0,0,1-.49-.295,1.19,1.19,0,0,0-.215-.125,10.971,10.971,0,0,0-.963,1.038l.052.054a1.455,1.455,0,0,1,.426,1.129,1.337,1.337,0,0,1-.505.875,1.872,1.872,0,0,1-.973.24V6.335l.519.037A1.329,1.329,0,0,1-127.76,7a1.577,1.577,0,0,1,.086,1.035,1.987,1.987,0,0,1-.294.461c-.045.056-.085.116-.125.175l1,1c.2-.151.2-.151.4-.3a1.328,1.328,0,0,1,1.063-.118,1.139,1.139,0,0,1,.714.586,1.961,1.961,0,0,1,.157.836h1.482l.037-.519a1.307,1.307,0,0,1,.624-.814,1.391,1.391,0,0,1,1.044-.094,1.731,1.731,0,0,1,.593.389,1.054,1.054,0,0,0,.357-.276l.059-.059.186-.188.127-.128.309-.312a1.668,1.668,0,0,0-.2-.287,1.257,1.257,0,0,1-.272-.958,1.266,1.266,0,0,1,.437-.793,1.673,1.673,0,0,1,1.038-.3V4.853l-.482-.037a1.385,1.385,0,0,1-.851-.6,1.394,1.394,0,0,1-.094-1.074,1.744,1.744,0,0,1,.389-.591,1.053,1.053,0,0,0-.276-.357l-.06-.059-.188-.186-.128-.127-.313-.309a1.559,1.559,0,0,0-.285.2,1.283,1.283,0,0,1-.944.257,1.221,1.221,0,0,1-.846-.459,1.836,1.836,0,0,1-.259-1Z" transform="translate(159.132 26.709)" fill="#fff"/>
    <path id="Path_2840" data-name="Path 2840" d="M-111.587-13.817a2.724,2.724,0,0,1,1.049,1.731,2.924,2.924,0,0,1-.57,2.145,2.721,2.721,0,0,1-1.728.968,2.827,2.827,0,0,1-2.169-.656,2.611,2.611,0,0,1-.875-1.693,2.864,2.864,0,0,1,.673-2.135l.068-.077A2.752,2.752,0,0,1-114.1-14.2l.093-.036A2.772,2.772,0,0,1-111.587-13.817Zm-3.125.879a2.167,2.167,0,0,0-.458,1.557,2.058,2.058,0,0,0,.843,1.364,2.037,2.037,0,0,0,1.455.323,2.1,2.1,0,0,0,1.353-.929,1.993,1.993,0,0,0,.251-1.443,2.187,2.187,0,0,0-.933-1.3A2.045,2.045,0,0,0-114.712-12.939Z" transform="translate(148.321 43.945)" fill="#fff"/>
    <path id="Path_2841" data-name="Path 2841" d="M-12.089-.087a.328.328,0,0,1,.226.164.8.8,0,0,1,.042.375V.547q0,.1,0,.2,0,.161,0,.321,0,.457,0,.914,0,.279,0,.559,0,.106,0,.213c0,.1,0,.2,0,.3v.089a.623.623,0,0,0,.169.454,1.069,1.069,0,0,0,.455.089l.13,0,.134,0,.136,0,.332.01.014-.119a1.56,1.56,0,0,1,.629-.949A1.879,1.879,0,0,1-8.4,2.363a1.715,1.715,0,0,1,1.086.787,1.843,1.843,0,0,1,.192,1.384,1.837,1.837,0,0,1-.959,1.1,1.89,1.89,0,0,1-1.3.051,1.928,1.928,0,0,1-1.07-1.126V4.413l-.1,0-.358,0-.154,0A1.541,1.541,0,0,1-12.2,4.115a1.135,1.135,0,0,1-.344-.833V3.089q0-.163,0-.326,0-.114,0-.227,0-.238,0-.475,0-.3,0-.609,0-.234,0-.469,0-.112,0-.224c0-.1,0-.209,0-.314l0-.094A.445.445,0,0,1-12.442,0,.425.425,0,0,1-12.089-.087ZM-9.6,3.45a1.041,1.041,0,0,0-.185.778,1.043,1.043,0,0,0,.416.646,1.1,1.1,0,0,0,.87.145,1.053,1.053,0,0,0,.618-.539.956.956,0,0,0,.056-.713,1.1,1.1,0,0,0-.588-.651A1.022,1.022,0,0,0-9.6,3.45Z" transform="translate(50.684 37.895)" fill="#fff"/>
    <path id="Path_2842" data-name="Path 2842" d="M-132.655-.117l.084,0a.445.445,0,0,1,.272.206,1.279,1.279,0,0,1,.023.329c0,.049,0,.049,0,.1,0,.108,0,.216,0,.324q0,.113,0,.226,0,.237,0,.474,0,.3,0,.606,0,.234,0,.467,0,.112,0,.223c0,.1,0,.209,0,.313v.092a1.259,1.259,0,0,1-.354.849,1.4,1.4,0,0,1-.9.3h-.074l-.23,0h-.157l-.383,0-.013.066a1.606,1.606,0,0,1-.617.971,2.017,2.017,0,0,1-1.5.272,1.852,1.852,0,0,1-1.036-.809,1.837,1.837,0,0,1-.145-1.379,1.72,1.72,0,0,1,.866-1.024,1.8,1.8,0,0,1,1.408-.072,1.721,1.721,0,0,1,.965.9.885.885,0,0,1,.075.365l.466-.012.133,0a1.147,1.147,0,0,0,.625-.134.7.7,0,0,0,.126-.5V2.937c0-.1,0-.206,0-.309q0-.107,0-.215,0-.283,0-.565,0-.453,0-.905,0-.158,0-.316,0-.1,0-.194c0-.029,0-.059,0-.089,0-.257,0-.257.084-.369A.4.4,0,0,1-132.655-.117Zm-4.127,3.462a1.053,1.053,0,0,0-.255.757,1.068,1.068,0,0,0,.367.7,1.042,1.042,0,0,0,.735.224,1.089,1.089,0,0,0,.693-.385,1.14,1.14,0,0,0,.2-.82,1.25,1.25,0,0,0-.477-.68A1.04,1.04,0,0,0-136.782,3.346Z" transform="translate(164.375 37.925)" fill="#fff"/>
    <path id="Path_2843" data-name="Path 2843" d="M-50.175-1.383a.4.4,0,0,1,.157.252c.006.1.009.195.007.294,0,.028,0,.055,0,.084,0,.088,0,.176,0,.264q0,.09,0,.18,0,.219,0,.439l.074.02a1.721,1.721,0,0,1,1,.684,1.955,1.955,0,0,1,.2,1.515,1.894,1.894,0,0,1-.35.6l-.056.071a1.567,1.567,0,0,1-.907.485,1.931,1.931,0,0,1-1.489-.4,1.7,1.7,0,0,1-.562-1.228,1.821,1.821,0,0,1,.518-1.33A1.783,1.783,0,0,1-50.758.13l0-.112q0-.207,0-.414,0-.089,0-.179c0-.086,0-.172,0-.258l0-.08a.749.749,0,0,1,.124-.44A.444.444,0,0,1-50.175-1.383Zm-1,2.557A1.045,1.045,0,0,0-51.4,1.9a1.124,1.124,0,0,0,.31.642,1.241,1.241,0,0,0,.926.259,1.254,1.254,0,0,0,.741-.667,1.015,1.015,0,0,0-.074-.778,1.115,1.115,0,0,0-.7-.539A1.075,1.075,0,0,0-51.173,1.174Z" transform="translate(85.503 40.14)" fill="#fff"/>
    <path id="Path_2844" data-name="Path 2844" d="M-13.481-.4A.42.42,0,0,1-13.3-.25.512.512,0,0,1-13.3.132a.317.317,0,0,1-.215.174.478.478,0,0,1-.371-.074A.535.535,0,0,1-14-.125a.4.4,0,0,1,.113-.215A.543.543,0,0,1-13.481-.4Z" transform="translate(48.745 42.003)" fill="#fff"/>
    <path id="Path_2845" data-name="Path 2845" d="M-13.466-.475a.378.378,0,0,1,.2.265.443.443,0,0,1-.061.316.5.5,0,0,1-.293.141.5.5,0,0,1-.345-.192.647.647,0,0,1,.014-.382A.434.434,0,0,1-13.466-.475Z" transform="translate(55.51 42.079)" fill="#fff"/>
    <path id="Path_2846" data-name="Path 2846" d="M-13.116-.423a.336.336,0,0,1,.209.218.511.511,0,0,1-.03.334A.428.428,0,0,1-13.26.3a.483.483,0,0,1-.3-.139.443.443,0,0,1-.061-.316C-13.556-.417-13.349-.472-13.116-.423Z" transform="translate(41.598 42.027)" fill="#fff"/>
  </g>
</svg>
