<svg xmlns="http://www.w3.org/2000/svg" width="24.988" height="25" viewBox="0 0 24.988 25">
  <g id="user-_4_" transform="translate(2 7)">
    <path id="Path_1983" data-name="Path 1983" d="M12.213-511.634c-.093.01-.382.044-.636.069a12.522,12.522,0,0,0-4.843,1.644A12.676,12.676,0,0,0,2.312-505.5a12.654,12.654,0,0,0-1.653,4.843,19.618,19.618,0,0,0,0,3.033,12.491,12.491,0,0,0,4.011,7.734,12.23,12.23,0,0,0,4.51,2.637,11.3,11.3,0,0,0,3.914.607,10.688,10.688,0,0,0,2.593-.245,12.566,12.566,0,0,0,8.189-5.89,12.654,12.654,0,0,0,1.653-4.843,19.617,19.617,0,0,0,0-3.033,12.654,12.654,0,0,0-1.653-4.843,12.676,12.676,0,0,0-4.422-4.422,12.666,12.666,0,0,0-4.794-1.644A22.316,22.316,0,0,0,12.213-511.634Zm1.883,1.487a11.176,11.176,0,0,1,7.421,3.865,11.029,11.029,0,0,1,2.211,10.112,10.891,10.891,0,0,1-1.947,3.84,3.527,3.527,0,0,1-.323.382,2.418,2.418,0,0,1-.171-.47,8.858,8.858,0,0,0-2.5-3.865,9.593,9.593,0,0,0-2.534-1.561l-.2-.078.171-.127a8.338,8.338,0,0,0,1.238-1.3,5.28,5.28,0,0,0,.866-3.444,5.253,5.253,0,0,0-2.813-4.158,5.262,5.262,0,0,0-7.656,4.158,5.228,5.228,0,0,0,.519,2.832,5.634,5.634,0,0,0,1.492,1.834,1.2,1.2,0,0,1,.24.21,1.764,1.764,0,0,1-.357.166,8.833,8.833,0,0,0-3.566,2.793A8.793,8.793,0,0,0,4.9-492.413a2.26,2.26,0,0,1-.166.465,10.235,10.235,0,0,1-.876-1.14,14.566,14.566,0,0,1-1.071-2.079,11.13,11.13,0,0,1-.7-3.3,11.039,11.039,0,0,1,4.1-9.285A11.1,11.1,0,0,1,14.1-510.146Zm.024,4.207a3.842,3.842,0,0,1,2.622,2.617,4.136,4.136,0,0,1,.029,1.986,3.769,3.769,0,0,1-3.679,2.832,3.769,3.769,0,0,1-3.679-2.832,4.136,4.136,0,0,1,.029-1.986,3.855,3.855,0,0,1,3.111-2.735A5.474,5.474,0,0,1,14.121-505.939Zm-.024,9.055a6.82,6.82,0,0,1,4.016,2.025A6.762,6.762,0,0,1,19.884-492a7.2,7.2,0,0,1,.289,1.345s-.152.117-.328.254a11.222,11.222,0,0,1-5.357,2.221,15.637,15.637,0,0,1-2.788,0A11.222,11.222,0,0,1,6.343-490.4c-.176-.137-.323-.25-.328-.254a2.692,2.692,0,0,1,.059-.411,7.17,7.17,0,0,1,4.7-5.5A6.93,6.93,0,0,1,14.1-496.884Z" transform="translate(-2.6 504.646)" fill="#fff"/>
  </g>
</svg>
