<?xml version="1.0" standalone="no"?>
<!DOCTYPE svg PUBLIC "-//W3C//DTD SVG 20010904//EN"
 "http://www.w3.org/TR/2001/REC-SVG-20010904/DTD/svg10.dtd">
<svg version="1.0" xmlns="http://www.w3.org/2000/svg"
 width="512.000000pt" height="512.000000pt" viewBox="0 0 512.000000 512.000000"
 preserveAspectRatio="xMidYMid meet">

<g transform="translate(0.000000,512.000000) scale(0.100000,-0.100000)"
fill="#000000" stroke="none">
<path d="M394 4162 c-95 -33 -165 -98 -212 -199 l-27 -58 0 -1345 0 -1345 31
-65 c38 -79 97 -140 172 -177 l57 -28 2145 0 2145 0 57 28 c105 52 175 145
197 262 15 82 15 2568 0 2650 -22 117 -92 210 -197 262 l-57 28 -2130 2
c-2011 2 -2133 1 -2181 -15z m4281 -202 c65 -32 85 -77 85 -194 l0 -96 -2201
0 -2201 0 4 108 c3 122 15 147 83 182 40 20 52 20 2114 20 2054 0 2075 0 2116
-20z m-925 -660 l0 -170 -1695 0 -1695 0 0 170 0 170 1695 0 1695 0 0 -170z
m510 0 l0 -170 -150 0 -150 0 0 170 0 170 150 0 150 0 0 -170z m500 0 l0 -170
-145 0 -145 0 0 170 0 170 145 0 145 0 0 -170z m0 -1211 l0 -831 -22 -39 c-14
-25 -37 -46 -63 -59 -41 -20 -62 -20 -2115 -20 -2053 0 -2074 0 -2115 20 -26
13 -49 34 -63 59 l-22 39 0 831 0 831 2200 0 2200 0 0 -831z"/>
<path d="M591 1996 c-47 -26 -50 -46 -51 -284 l0 -224 29 -29 29 -29 862 0
862 0 29 29 29 29 0 227 c0 136 -4 234 -10 246 -27 50 -7 49 -912 49 -681 -1
-848 -3 -867 -14z m1587 -278 l3 -88 -721 0 -720 0 0 83 c0 46 3 87 7 90 3 4
326 6 717 5 l711 -3 3 -87z"/>
</g>
</svg>
