<svg xmlns="http://www.w3.org/2000/svg" width="12.05" height="15.419" viewBox="0 0 12.05 15.419">
  <g id="to-do-list_1_" data-name="to-do-list (1)" transform="translate(-55.987 511.879)">
    <path id="Path_2918" data-name="Path 2918" d="M58.461-511.841a.845.845,0,0,0-.4.3c-.133.19-.163.349-.163.9v.506h-.639c-.611,0-.648,0-.8.072a.974.974,0,0,0-.262.2c-.181.214-.2.316-.2,1.054,0,.617,0,.66.063.735a.183.183,0,0,0,.163.078.183.183,0,0,0,.163-.078c.06-.075.063-.117.063-.711,0-.922-.024-.9.858-.9H57.9v.22a.857.857,0,0,0,.464.852.849.849,0,0,0,.9-.133.907.907,0,0,0,.256-.663l.015-.277h1.678v.22a.936.936,0,0,0,.2.651.814.814,0,0,0,1.352-.2,1.413,1.413,0,0,0,.063-.392l.018-.277h1.669l.018.277a1.413,1.413,0,0,0,.063.392.814.814,0,0,0,1.352.2.936.936,0,0,0,.2-.651v-.22h.587a2,2,0,0,1,.678.045c.193.1.181-.247.181,4.994v4.771l.069.063a.221.221,0,0,0,.316,0l.066-.069v-4.789c0-5.323.015-4.94-.2-5.193a.974.974,0,0,0-.262-.2c-.145-.069-.184-.072-.792-.072h-.636l-.012-.566c-.009-.63-.039-.738-.235-.934a.7.7,0,0,0-.572-.232.7.7,0,0,0-.572.232c-.2.2-.226.3-.235.934l-.012.566H62.844l-.012-.566c-.009-.63-.039-.738-.235-.934a.7.7,0,0,0-.572-.232.7.7,0,0,0-.572.232c-.2.2-.226.3-.235.934l-.012.566H59.53l-.012-.566c-.009-.63-.039-.738-.235-.934A.832.832,0,0,0,58.461-511.841Zm.4.449a.509.509,0,0,1,.142.139c.069.1.069.114.069,1.033,0,1.006-.009,1.078-.16,1.178a.421.421,0,0,1-.422-.012c-.136-.1-.145-.211-.136-1.223l.009-.937.075-.081A.339.339,0,0,1,58.862-511.392Zm3.313,0a.509.509,0,0,1,.142.139c.069.1.069.114.069,1.033,0,1.006-.009,1.078-.16,1.178a.456.456,0,0,1-.41,0c-.142-.1-.154-.184-.154-1.181,0-.919,0-.931.069-1.033a.355.355,0,0,1,.292-.178A.4.4,0,0,1,62.175-511.392Zm3.313,0a.509.509,0,0,1,.142.139c.069.1.069.114.069,1.033,0,1-.012,1.078-.154,1.181a.456.456,0,0,1-.41,0c-.151-.1-.16-.172-.16-1.178,0-.919,0-.931.069-1.033a.355.355,0,0,1,.292-.178A.4.4,0,0,1,65.489-511.392Z" transform="translate(-0.013)" fill="#fff"/>
    <path id="Path_2919" data-name="Path 2919" d="M56.116-362.553a.226.226,0,0,0-.1.087c-.024.042-.033,1.59-.033,5.1,0,5.69-.021,5.214.241,5.473s-.256.241,5.783.241,5.524.021,5.783-.241c.232-.229.241-.286.241-1.346a7.916,7.916,0,0,0-.03-.973.255.255,0,0,0-.4.015c-.009.027-.018.449-.018.937a3.563,3.563,0,0,1-.045.976c-.1.193.3.181-5.527.181-4.684,0-5.314-.006-5.392-.045-.193-.1-.181.274-.181-5.25a47.4,47.4,0,0,0-.051-5.091A.243.243,0,0,0,56.116-362.553Z" transform="translate(0 -144.811)" fill="#fff"/>
    <path id="Path_2920" data-name="Path 2920" d="M117.973-361.5a9.167,9.167,0,0,0-.675.765c-.337.41-.621.735-.63.726s-.084-.12-.169-.25c-.142-.214-.163-.232-.265-.241a.2.2,0,0,0-.235.2,1.889,1.889,0,0,0,.244.482c.268.437.334.5.482.422a18.692,18.692,0,0,0,1.343-1.56c.223-.274.25-.352.154-.461A.211.211,0,0,0,117.973-361.5Z" transform="translate(-58.206 -145.836)" fill="#fff"/>
    <path id="Path_2921" data-name="Path 2921" d="M198.914-333.9a.7.7,0,0,0-.145,1.31l.157.078h2.512c1.895,0,2.545-.009,2.639-.036a.805.805,0,0,0,.434-.434.747.747,0,0,0-.223-.783c-.214-.166-.181-.163-2.841-.16C200.1-333.926,198.956-333.914,198.914-333.9Zm5.039.461a.244.244,0,0,1,.066.4l-.072.075H198.98l-.081-.1a.193.193,0,0,1-.063-.184.241.241,0,0,1,.154-.2C199.089-333.489,203.875-333.483,203.954-333.441Z" transform="translate(-138.108 -172.592)" fill="#fff"/>
    <path id="Path_2922" data-name="Path 2922" d="M117.973-262.5a9.167,9.167,0,0,0-.675.765c-.337.41-.621.735-.63.726s-.084-.12-.169-.25c-.142-.214-.163-.232-.265-.241a.2.2,0,0,0-.235.2,1.888,1.888,0,0,0,.244.482c.268.437.334.5.485.422.063-.033.621-.678,1.416-1.651.148-.184.169-.271.078-.371A.211.211,0,0,0,117.973-262.5Z" transform="translate(-58.206 -241.854)" fill="#fff"/>
    <path id="Path_2923" data-name="Path 2923" d="M199.109-234.627a.719.719,0,0,0-.524.367.714.714,0,0,0,.313.964c.136.063.148.063,2.687.063a13.427,13.427,0,0,0,2.675-.057.7.7,0,0,0,.407-.642.7.7,0,0,0-.395-.633l-.133-.069-2.485,0C200.287-234.639,199.142-234.636,199.109-234.627Zm5.033.53a.235.235,0,0,1,0,.337l-.072.075h-2.488c-2.434,0-2.485,0-2.545-.06a.258.258,0,0,1-.063-.28c.066-.175.006-.172,2.663-.163l2.437.006Z" transform="translate(-138.227 -268.891)" fill="#fff"/>
    <path id="Path_2924" data-name="Path 2924" d="M118.007-162.826c-.021.009-.313.343-.645.744s-.614.738-.627.75-.087-.084-.169-.217c-.187-.307-.289-.365-.446-.241-.13.1-.105.2.148.615.265.431.3.476.443.461.09-.009.169-.09.831-.883.4-.482.747-.907.762-.946A.227.227,0,0,0,118.007-162.826Z" transform="translate(-58.248 -338.523)" fill="#fff"/>
    <path id="Path_2925" data-name="Path 2925" d="M198.689-134.868a.743.743,0,0,0-.392.732.729.729,0,0,0,.566.593c.111.021.91.03,2.612.024l2.455-.009.133-.069a.7.7,0,0,0,.395-.633.7.7,0,0,0-.407-.642,13.423,13.423,0,0,0-2.681-.054A12.651,12.651,0,0,0,198.689-134.868Zm5.241.467a.235.235,0,0,1,0,.337l-.072.084-2.428.009a19.863,19.863,0,0,1-2.533-.036.242.242,0,0,1-.075-.41c.06-.06.111-.06,2.545-.06h2.488Z" transform="translate(-138.019 -365.598)" fill="#fff"/>
  </g>
</svg>
