<svg xmlns="http://www.w3.org/2000/svg" width="6.463" height="13.612" viewBox="0 0 6.463 13.612">
  <g id="Icon_ionic-ios-man" data-name="Icon ionic-ios-man" transform="translate(-9.984 -1.125)">
    <path id="Path_3913" data-name="Path 3913" d="M16.062,3.694h-.006a1.285,1.285,0,1,1,1.29-1.285,1.288,1.288,0,0,1-1.285,1.285Z" transform="translate(-2.853)" fill="#d90810"/>
    <path id="Path_3914" data-name="Path 3914" d="M12.23,18.891a.775.775,0,0,1-.766-.862l.028-7.873h-.284v2.978a.688.688,0,0,1-.181.519.6.6,0,0,1-.862,0,.683.683,0,0,1-.181-.519V9.685A1.638,1.638,0,0,1,10.376,8.6a1.448,1.448,0,0,1,1.106-.51H14.95a1.442,1.442,0,0,1,1.106.513,1.631,1.631,0,0,1,.391,1.086v3.448a.672.672,0,0,1-.187.519.637.637,0,0,1-.879,0,.672.672,0,0,1-.187-.519V10.156h-.255v7.873a.786.786,0,1,1-1.565.017v-4h-.34v4A.807.807,0,0,1,12.23,18.891Z" transform="translate(0 -4.153)" fill="#d90810"/>
  </g>
</svg>
