<svg xmlns="http://www.w3.org/2000/svg" width="14.127" height="14.127" viewBox="0 0 14.127 14.127">
  <g id="kitchen" transform="translate(0 512)">
    <path id="Path_3084" data-name="Path 3084" d="M1.487-511.92l-.08.08v2.18l-.168.011-.168.011-.535.538L0-508.562v.422c0,.422.014.5.108.574.033.028.607.033,2.478.036H5.019L5.1-507.6c.077-.066.077-.069.086-.458a3.409,3.409,0,0,0-.008-.466,9.223,9.223,0,0,0-1.068-1.1.513.513,0,0,0-.2-.039H3.78V-510.7c0-1.118-.008-1.2-.132-1.267A8.217,8.217,0,0,0,2.58-512H1.567Zm1.8,1.327v.938H1.876v-1.876H3.284ZM4.31-508.78l.408.406V-508H.469v-.372l.406-.406.408-.408H3.9Z" fill="#fff"/>
    <path id="Path_3085" data-name="Path 3085" d="M196.752-509.754v2.249l-.149.066a.942.942,0,0,0-.56.836c-.019.262,0,.348.08.425.058.052.094.055.864.055.8,0,.806,0,.864-.063a.376.376,0,0,0,.074-.171,1.449,1.449,0,0,0-.1-.643,1.006,1.006,0,0,0-.466-.439l-.138-.05V-512h-.469Zm.433,2.751a.425.425,0,0,1,.248.315l.017.1H196.5l.017-.077a.459.459,0,0,1,.287-.348A.4.4,0,0,1,197.185-507Z" transform="translate(-190.627)" fill="#fff"/>
    <path id="Path_3086" data-name="Path 3086" d="M256.8-510.692v1.305l-.124.05a1.153,1.153,0,0,0-.5.475.88.88,0,0,0-.086.4c-.014.273.017.384.121.433a5.409,5.409,0,0,0,.842.03h.773l.072-.072c.066-.069.069-.077.058-.364a.754.754,0,0,0-.1-.469.91.91,0,0,0-.45-.419l-.13-.058V-512H256.8Zm.441,1.816a.472.472,0,0,1,.248.345c0,.063,0,.063-.469.063-.389,0-.469-.006-.469-.039a.49.49,0,0,1,.132-.276A.445.445,0,0,1,257.243-508.877Z" transform="translate(-249.021)" fill="#fff"/>
    <path id="Path_3087" data-name="Path 3087" d="M9.561-409.736a.257.257,0,0,0-.119.11c-.025.058-.033.706-.033,2.79v2.718H4.255l-.011-.4-.008-.4-.077-.066c-.077-.066-.091-.066-.469-.061l-.392.008-.008.226-.008.226.243.008.243.008.008.226.008.229H2.814v-.938H2.345v.938H1.407v-.469h.469v-.469H1.1l-.08.08-.08.08v.778H.16l-.08.08-.08.08v5.336l.08.08.08.08H13.967l.08-.08.08-.08v-10.985l-.066-.077-.066-.077-2.177-.006A19.8,19.8,0,0,0,9.561-409.736Zm4.092,1.857.006,1.415H9.878v-1.4c0-.773.008-1.413.019-1.421s.858-.017,1.882-.014l1.865.008Zm.006,5.416v3.532H9.878v-7.064h3.78Zm-8.946-.712.006.464H.469v-.938l2.119.006,2.116.008Zm4.7-.006v.469H5.187v-.938H9.409Zm-4.7,2.6.006,1.65H.469v-1.636c0-.9.008-1.647.019-1.656s.963-.017,2.116-.014l2.1.008Zm2.351-.006v1.656H5.187v-3.311H7.064Zm2.345,0v1.656H7.533v-1.636c0-.9.008-1.647.019-1.656s.43-.019.938-.019h.919Z" transform="translate(0 -99.411)" fill="#fff"/>
    <path id="Path_3088" data-name="Path 3088" d="M375.006-357.539l.008.464h.469l.008-.464L375.5-358H375Z" transform="translate(-364.653 -149.751)" fill="#fff"/>
    <path id="Path_3089" data-name="Path 3089" d="M375.019-238.824a3.087,3.087,0,0,0-.019.472v.45h.5l-.006-.464-.008-.461-.221-.008A.92.92,0,0,0,375.019-238.824Z" transform="translate(-364.653 -265.627)" fill="#fff"/>
    <path id="Path_3090" data-name="Path 3090" d="M34.335-178.979a.23.23,0,0,0,.052.384.23.23,0,0,0,.328-.21A.232.232,0,0,0,34.335-178.979Z" transform="translate(-33.308 -323.778)" fill="#fff"/>
    <path id="Path_3091" data-name="Path 3091" d="M68.384-178.912a.208.208,0,0,0,.03.317.19.19,0,0,0,.257.022.229.229,0,0,0-.119-.428A.19.19,0,0,0,68.384-178.912Z" transform="translate(-66.439 -323.812)" fill="#fff"/>
    <path id="Path_3092" data-name="Path 3092" d="M102.764-178.946a.209.209,0,0,0-.075.276.222.222,0,0,0,.428-.1A.221.221,0,0,0,102.764-178.946Z" transform="translate(-99.834 -323.822)" fill="#fff"/>
    <path id="Path_3093" data-name="Path 3093" d="M136.951-178.889a.237.237,0,0,0,.088.4.226.226,0,0,0,.268-.135A.225.225,0,0,0,136.951-178.889Z" transform="translate(-133.099 -323.864)" fill="#fff"/>
    <path id="Path_3094" data-name="Path 3094" d="M246.908-178.774l.008.229.477.008.475.006V-179H246.9Z" transform="translate(-240.087 -323.812)" fill="#fff"/>
    <path id="Path_3095" data-name="Path 3095" d="M33.983-118.95l-.066.052-.008,1.04L33.9-116.82l.083.08.08.083h1.465c.9,0,1.49-.011,1.534-.028.141-.052.152-.132.152-1.156,0-.516-.011-.969-.025-1-.063-.166.025-.157-1.631-.157C34.112-119,34.043-119,33.983-118.95Zm2.757,1.112-.008.7-1.178.008-1.181.006v-1.407h2.373Z" transform="translate(-32.965 -382.154)" fill="#fff"/>
    <path id="Path_3096" data-name="Path 3096" d="M222-93.531v.469h.469V-94H222Z" transform="translate(-215.874 -406.466)" fill="#fff"/>
    <path id="Path_3097" data-name="Path 3097" d="M290-93.531v.469h.469V-94H290Z" transform="translate(-281.998 -406.466)" fill="#fff"/>
  </g>
</svg>
