<svg xmlns="http://www.w3.org/2000/svg" width="35.971" height="35.966" viewBox="0 0 35.971 35.966">
  <g id="Group_17929" data-name="Group 17929" transform="translate(-287.885 -485.517)">
    <line id="Line_190" data-name="Line 190" y2="8" transform="translate(314.371 499.5)" fill="none" stroke="#ed1c24" stroke-linecap="round" stroke-width="1.5"/>
    <g id="log-out_1_" data-name="log-out (1)" transform="translate(288.604 486.047)">
      <path id="Path_3480" data-name="Path 3480" d="M-51.916-.133h4.4q1.462,0,2.923,0,1.335,0,2.671,0,1.374,0,2.747,0h1.54q.724,0,1.448,0h.531c.242,0,.484,0,.726,0l.211,0A2.807,2.807,0,0,1-32.8.6l.129.106a2.79,2.79,0,0,1,.853,1.506c.007.158.009.316.009.473,0,.048,0,.1,0,.145q0,.241,0,.483,0,.174,0,.349,0,.48,0,.96,0,.517,0,1.034,0,1.25,0,2.5,0,.588,0,1.177,0,1.956,0,3.912,0,.508,0,1.015c0,.084,0,.168,0,.255q0,2.044,0,4.088,0,2.1,0,4.2,0,1.178,0,2.356,0,1,0,2.007,0,.512,0,1.024,0,.469,0,.938,0,.169,0,.338a3.4,3.4,0,0,1-.876,2.539c-.914.853-2.468,1.133-3.625,1.518l-.7.232-1.164.388-1.344.448-1.438.479-.413.137-.767.255-.23.077-.211.07-.183.061a3.445,3.445,0,0,1-2.3-.067,3.291,3.291,0,0,1-1.686-1.905A5.688,5.688,0,0,1-46.83,32.2l0-.265q0-.321.007-.642l-.217,0q-1.019.009-2.038.013l-1.048.007q-.506,0-1.013.005l-.384,0a4.279,4.279,0,0,1-3.232-1.112,3.806,3.806,0,0,1-.653-.951l-.069-.136a4.363,4.363,0,0,1-.337-1.945v-.239q0-.387,0-.774,0-.27,0-.541,0-.565,0-1.13,0-.652,0-1.3,0-.63,0-1.259,0-.267,0-.534c0-.249,0-.5,0-.746l0-.222a1.251,1.251,0,0,1,.317-.981.953.953,0,0,1,.771-.14c.385.21.385.21.491.421.007.1.01.2.01.307v.2c0,.071,0,.142,0,.215v.226q0,.244,0,.488,0,.387,0,.773.007,1.1.013,2.2,0,.672.008,1.345,0,.256,0,.512,0,.359,0,.719c0,.07,0,.14,0,.211a3.033,3.033,0,0,0,.669,2.183,2.207,2.207,0,0,0,1.65.593l.166,0,.542.006.376,0,.989.011,1.009.011,1.979.022c0-.051,0-.1,0-.155q-.007-4.535-.01-9.071,0-.545,0-1.09c0-.072,0-.145,0-.219q0-1.755,0-3.51,0-1.8,0-3.6,0-1.111,0-2.222,0-.763,0-1.525,0-.44,0-.879,0-.4,0-.806c0-.142,0-.285,0-.427a3.446,3.446,0,0,1,.876-2.516,5.537,5.537,0,0,1,2.218-1.107l.294-.1.767-.253.785-.259,1.535-.506q-2.339-.01-4.679-.015-1.086,0-2.173-.007-.947,0-1.894-.005l-1,0q-.472,0-.945,0l-.346,0a2.762,2.762,0,0,0-2.16.679,3.031,3.031,0,0,0-.618,2.3c0,.075,0,.151,0,.228q0,.244,0,.489,0,.519,0,1.039,0,.966,0,1.932,0,.673,0,1.346,0,.256,0,.513c0,.239,0,.477,0,.716l0,.214a.99.99,0,0,1-.217.749,1.062,1.062,0,0,1-.882.2,1.049,1.049,0,0,1-.491-.561,2.063,2.063,0,0,1-.018-.337l0-.2c0-.074,0-.147,0-.223s0-.156,0-.236q0-.388,0-.775,0-.27,0-.54,0-.566,0-1.133,0-.652,0-1.3,0-.629,0-1.259,0-.267,0-.533,0-.374,0-.749l0-.22A4.109,4.109,0,0,1-54.728.95,3.826,3.826,0,0,1-51.916-.133Zm15.885,1.848-.272.09-.732.245-.769.257-1.29.432q-.744.25-1.489.5l-1.436.48-.61.2-.718.241-.388.129a2.3,2.3,0,0,0-1.417.993A3.1,3.1,0,0,0-45.289,6.4v.138q0,.229,0,.458,0,.166,0,.332,0,.456,0,.911,0,.492,0,.983,0,.963,0,1.926,0,.783,0,1.565,0,2.219,0,4.438c0,.08,0,.159,0,.242v.242q0,1.941,0,3.883,0,1.993,0,3.987,0,1.119,0,2.238,0,.953,0,1.905,0,.486,0,.972,0,.445,0,.89,0,.161,0,.322a2.721,2.721,0,0,0,.509,2.055,1.657,1.657,0,0,0,1.332.35,9.523,9.523,0,0,0,.921-.278l.271-.089q.366-.121.731-.244l.768-.256,1.288-.431q.743-.25,1.486-.5l1.434-.478.608-.2.717-.24.387-.128a2.03,2.03,0,0,0,1.317-.882,3.316,3.316,0,0,0,.209-1.535q0-.171,0-.341c0-.311,0-.623,0-.934,0-.336,0-.673,0-1.009q0-.987,0-1.975,0-.8,0-1.605c0-.114,0-.114,0-.231q0-.232,0-.464,0-2.052,0-4.1,0-1.991,0-3.982,0-2.169,0-4.337,0-.231,0-.463c0-.076,0-.152,0-.23q0-.8,0-1.6,0-.977,0-1.954,0-.5,0-1,0-.456,0-.913,0-.165,0-.33a2.2,2.2,0,0,0-.44-1.649A2.068,2.068,0,0,0-36.031,1.715Z" transform="translate(67.039 -0.388)" fill="#ed1c24"/>
      <path id="Path_3481" data-name="Path 3481" d="M-89.359-.04l.164,0a.919.919,0,0,1,.441.156.985.985,0,0,1,.21.841,3,3,0,0,1-.652.808l-.135.135-.44.438-.306.3-.8.8-.82.817-1.609,1.6h.206q2.477,0,4.954.009,1.2,0,2.4,0,1.044,0,2.088,0,.553,0,1.106,0,.52,0,1.041,0h.382c.174,0,.348,0,.522,0l.153,0a1.013,1.013,0,0,1,.821.4,1.09,1.09,0,0,1,.07.7,1.155,1.155,0,0,1-.491.491c-.174.007-.346.011-.52.011h-.164l-.548,0-.392,0-1.066,0-1.113.005-2.108.01-2.4.011-4.937.023.178.177,1.655,1.652.851.849.821.819.314.313.438.437.132.132c.37.371.37.371.4.718a1.023,1.023,0,0,1-.3.718,1.047,1.047,0,0,1-.464.105l-.174.015c-.529-.131-.978-.745-1.354-1.122l-.17-.169-.55-.55-.384-.383-.8-.8-.926-.926-.893-.893-.38-.379-.528-.528-.159-.159-.144-.145-.126-.126a.782.782,0,0,1-.2-.57l-.015-.174c.131-.529.745-.978,1.122-1.354l.169-.17.55-.55.383-.384.8-.8.926-.926.893-.893.379-.38.528-.528.159-.159.145-.144.126-.126A.678.678,0,0,1-89.359-.04Z" transform="translate(95.375 8.505)" fill="#ed1c24"/>
    </g>
  </g>
</svg>
