<svg xmlns="http://www.w3.org/2000/svg" width="19.965" height="20.377" viewBox="0 0 19.965 20.377">
  <g id="inventory_1_" data-name="inventory (1)" transform="translate(-4.634 0.502)">
    <path id="Path_2621" data-name="Path 2621" d="M-96.614-.451h.523l.611,0h.21l.874,0,1.253,0,.881,0,.526,0h1.065a.493.493,0,0,1,.321.223.6.6,0,0,1,.047.3l0,.14q0,.317,0,.635,0,.168,0,.335c0,.161,0,.322,0,.482,0,.05,0,.1,0,.151,0,.386,0,.386-.117.508a.369.369,0,0,1-.344.068.568.568,0,0,1-.2-.2,2.192,2.192,0,0,1-.019-.454c0-.066,0-.066,0-.133,0-.14,0-.279.006-.419q0-.142,0-.284c0-.232.006-.464.01-.7h-1.588c.008.407.008.407.018.815,0,.051,0,.1,0,.155l0,.158a.563.563,0,0,1-.221.382.812.812,0,0,1-.29.046H-93.6l-.37,0h-.347A.653.653,0,0,1-94.8,1.62a.617.617,0,0,1-.087-.417c0-.026,0-.051,0-.078,0-.1,0-.191,0-.287l0-.648h-1.588V4.32h5.52V3.328c.2-.2.2-.2.318-.223a.456.456,0,0,1,.277.148,1.135,1.135,0,0,1,.053.584c0,.046,0,.093,0,.141q0,.172-.01.343h.111l2.671-.006,1.292,0,1.126,0h1.726a.966.966,0,0,1,.5.134.563.563,0,0,1,.133.42v.133c0,.048,0,.1,0,.145s0,.1,0,.154q0,.208,0,.417c0,.145,0,.291,0,.436q0,.412,0,.825,0,.47,0,.939,0,.966-.006,1.932h.067l.686-.006.256,0,.368,0,.115,0a.665.665,0,0,1,.494.133.738.738,0,0,1,.135.541c0,.033,0,.065,0,.1q0,.1,0,.207c0,.105,0,.211,0,.316q0,.1,0,.2c0,.031,0,.063,0,.1a.633.633,0,0,1-.136.446.665.665,0,0,1-.437.09h-4.592l-2.7,0H-89.3l-2.737,0-3.073,0h-.409l-1.3,0h-3.212l-.093,0a.46.46,0,0,1-.352-.122.694.694,0,0,1-.129-.513c0-.033,0-.066,0-.1q0-.1,0-.209c0-.106,0-.213,0-.319q0-.1,0-.2l0-.1a.6.6,0,0,1,.134-.449.821.821,0,0,1,.609-.131h.119l.376,0,.256,0,.626.006V9.759q0-.972-.006-1.944,0-.47,0-.94,0-.41,0-.819,0-.217,0-.434c0-.161,0-.323,0-.484V4.859c0-.038,0-.076,0-.116a.6.6,0,0,1,.134-.3,1.323,1.323,0,0,1,.792-.127l.14,0,.339.006V4.251q-.005-.837-.008-1.673,0-.4,0-.809t0-.781q0-.149,0-.3c0-.139,0-.278,0-.417l0-.125a.7.7,0,0,1,.179-.553A.658.658,0,0,1-96.614-.451Zm2.373.641V1.1h1.072V.191Zm-3.614,4.765V9.84h8.3V4.956h-2.859l-.04,1.231c-.119.238-.119.238-.2.292a2.48,2.48,0,0,1-.537.038h-.38l-.392,0h-.368a.848.848,0,0,1-.545-.135A3.426,3.426,0,0,1-95,4.956Zm3.494,0v.953h1.31V4.956Zm5.44,0V9.84l2.207.012.314,0h.209l.317,0h.094a.482.482,0,0,1,.332.1.355.355,0,0,1,.06.324.364.364,0,0,1-.271.179h-2.574l-1.329,0-2.156,0-2.094,0h-.778q-2.686,0-5.372.007v.874H-81.3v-.874h-.282l-.922-.006-.559,0-.539,0H-83.8l-.288,0h-.086a.447.447,0,0,1-.313-.1.324.324,0,0,1-.082-.2c.02-.119.02-.119.179-.278l.993-.04V4.956h-1.588c-.005.422-.005.422-.008.845q0,.08,0,.16v.083a.459.459,0,0,1-.122.339.538.538,0,0,1-.383.129h-.532l-.343,0H-86.7a.824.824,0,0,1-.51-.134.658.658,0,0,1-.1-.417l0-.078c0-.1,0-.191-.006-.287l-.015-.648Zm2.224,0v.953h1.072V4.956Z" transform="translate(105.243 7.905)" fill="#fff"/>
    <path id="Path_2622" data-name="Path 2622" d="M-64.378,0h.126a2.639,2.639,0,0,1,1.814.789,1.785,1.785,0,0,1,.575,1.017h.154q.717-.006,1.434-.009l.737,0,.711,0,.271,0,.38,0,.113,0a.608.608,0,0,1,.431.118.5.5,0,0,1,.142.411c0,.038,0,.077,0,.116,0,.063,0,.063,0,.127s0,.066,0,.134q0,.22,0,.44c0,.05,0,.1,0,.152q0,.315,0,.631,0,.452,0,.9,0,.356,0,.712,0,.151,0,.3c0,.141,0,.282,0,.423,0,.042,0,.084,0,.127,0,.283,0,.283-.118.438a.409.409,0,0,1-.224.1.444.444,0,0,1-.318-.223,1.829,1.829,0,0,1-.023-.413c0-.062,0-.062,0-.126,0-.137,0-.274,0-.411q0-.142,0-.285,0-.375,0-.749c0-.3,0-.6,0-.9q0-.683.009-1.366H-61.7v.6a1.879,1.879,0,0,1-.074.323l-.042.144c-.037.111-.078.219-.122.327h.086l.8.01.414.005.476.007h.15l.14,0,.123,0a.839.839,0,0,1,.31.09.342.342,0,0,1,.072.3c-.043.18-.043.18-.151.256a1.543,1.543,0,0,1-.278.012h-.085l-.183,0h-.291q-.413,0-.826,0-.253,0-.506,0l-.192,0a1.015,1.015,0,0,0-.787.19l-.075.084a2.192,2.192,0,0,1-1.384.557h-.238v5.123h6.234V7.841c.2-.2.2-.2.318-.223a.475.475,0,0,1,.318.223,1.059,1.059,0,0,1,.024.289c0,.028,0,.057,0,.086,0,.093,0,.187,0,.28q0,.1,0,.2,0,.2,0,.409,0,.262,0,.524,0,.2,0,.4,0,.1,0,.193c0,.09,0,.18,0,.27,0,.051,0,.1,0,.155a.545.545,0,0,1-.135.333.684.684,0,0,1-.482.135h-6.451a.641.641,0,0,1-.374-.179.78.78,0,0,1-.089-.43c0-.046,0-.093,0-.141s0-.1,0-.153,0-.108,0-.162q0-.219,0-.439t0-.459q0-.435,0-.869,0-.495,0-.99,0-1.018,0-2.035l-.091-.024-.119-.032-.118-.031a2.42,2.42,0,0,1-.982-.667l-.075-.071a2.608,2.608,0,0,1-.653-1.886A2.582,2.582,0,0,1-66.266.758,2.678,2.678,0,0,1-64.378,0Zm-1.576,1.37A2.211,2.211,0,0,0-66.391,3a2.144,2.144,0,0,0,.794,1.31,2.321,2.321,0,0,0,1.032.4l.094.008A2.075,2.075,0,0,0-63,4.176a2.078,2.078,0,0,0,.671-1.343,2.188,2.188,0,0,0-.624-1.651A2.1,2.1,0,0,0-64.573.639,1.984,1.984,0,0,0-65.954,1.369Z" transform="translate(81.284 -0.5)" fill="#fff"/>
    <path id="Path_2623" data-name="Path 2623" d="M-13.417-.423h.1l.32,0h.11l.578,0,.479,0,.578,0,.22,0h.308l.092,0a.471.471,0,0,1,.353.118.374.374,0,0,1,.105.224A.465.465,0,0,1-10.4.22a1.725,1.725,0,0,1-.33.024h-.1l-.323,0h-.225l-.471,0q-.3,0-.6,0h-.687l-.311,0h-.093a.644.644,0,0,1-.329-.069.44.44,0,0,1-.1-.345.557.557,0,0,1,.119-.2A1.332,1.332,0,0,1-13.417-.423Z" transform="translate(32.122 5.294)" fill="#fff"/>
    <path id="Path_2624" data-name="Path 2624" d="M-12.584-.226h1.118c.2,0,.4,0,.6,0h1l.093,0a.48.48,0,0,1,.356.119.344.344,0,0,1,.1.227.42.42,0,0,1-.139.275,1.294,1.294,0,0,1-.433.045h-2.755a.614.614,0,0,1-.386-.09.363.363,0,0,1-.074-.3c.035-.137.035-.137.1-.2A.819.819,0,0,1-12.584-.226Z" transform="translate(31.257 6.598)" fill="#fff"/>
    <path id="Path_2625" data-name="Path 2625" d="M-59.516,0a.369.369,0,0,1,.279.187.484.484,0,0,1,.04.238,2.393,2.393,0,0,1-.423.512l-.076.076-.159.158-.243.243-.154.154-.074.073c-.211.208-.211.208-.408.23A.469.469,0,0,1-61.1,1.7l-.063-.066-.068-.067-.14-.142c-.071-.073-.142-.144-.215-.215l-.136-.138-.065-.064a.6.6,0,0,1-.193-.467.452.452,0,0,1,.253-.238.716.716,0,0,1,.5.27l.17.175.089.09.214.22a5.143,5.143,0,0,0,.469-.435l.1-.106.208-.22C-59.681,0-59.681,0-59.516,0Z" transform="translate(77.506 1.277)" fill="#fff"/>
    <path id="Path_2626" data-name="Path 2626" d="M-9.354-.121l.143,0h.646l.426,0h.83a.363.363,0,0,1,.268.179.656.656,0,0,1,0,.278A.366.366,0,0,1-7.31.511h-.126l-.143,0h-.644c-.142,0-.283,0-.425,0h-.406l-.154,0-.143,0h-.126A.291.291,0,0,1-9.678.4.313.313,0,0,1-9.74.148C-9.676-.086-9.591-.12-9.354-.121Z" transform="translate(27.893 8.002)" fill="#fff"/>
  </g>
</svg>
