<svg xmlns="http://www.w3.org/2000/svg" width="13.082" height="16.802" viewBox="0 0 13.082 16.802">
  <g id="gross-profit" transform="translate(-63 503.927)">
    <path id="Path_3814" data-name="Path 3814" d="M63.356-503.882a.711.711,0,0,0-.319.335c-.027.068-.037,2.5-.037,8.025,0,6.581.007,7.947.047,8.039a.676.676,0,0,0,.4.346c.061.01,2.843.014,6.185.01l6.07-.01.132-.105a.788.788,0,0,0,.186-.22c.058-.108.061-.519.061-7.137,0-4.86-.01-7.049-.037-7.117a24.251,24.251,0,0,0-2.149-2.149c-.132-.061-.325-.064-5.287-.061C64.379-503.926,63.441-503.919,63.356-503.882Zm10.15,1.335c0,1.24-.047,1.193,1.2,1.193h.837v13.692h-12v-15.725h9.964Zm1.1.108.542.542h-1.1v-.542c0-.3,0-.542.01-.542S74.309-502.736,74.607-502.438Z" fill="#fff"/>
    <path id="Path_3815" data-name="Path 3815" d="M133.088-451.929a.211.211,0,0,0-.088.2.211.211,0,0,0,.088.2c.078.061.139.071.444.071.329,0,.359-.007.434-.085a.249.249,0,0,0,0-.373c-.075-.078-.105-.085-.434-.085C133.227-452,133.166-451.99,133.088-451.929Z" transform="translate(-67.628 -50.167)" fill="#fff"/>
    <path id="Path_3816" data-name="Path 3816" d="M181.085-451.915a.264.264,0,0,0-.085.186.264.264,0,0,0,.085.186l.081.085h2.166c2.142,0,2.169,0,2.257-.071a.211.211,0,0,0,.088-.2.211.211,0,0,0-.088-.2c-.088-.071-.115-.071-2.257-.071h-2.166Z" transform="translate(-114.001 -50.167)" fill="#fff"/>
    <path id="Path_3817" data-name="Path 3817" d="M132.838-407.932a.284.284,0,0,0,0,.39c.054.054.122.071.373.081a2.891,2.891,0,0,0,.39-.01.27.27,0,0,0,.139-.454c-.071-.068-.115-.075-.458-.075S132.9-407.993,132.838-407.932Z" transform="translate(-67.398 -92.676)" fill="#fff"/>
    <path id="Path_3818" data-name="Path 3818" d="M181.262-407.915a.261.261,0,0,0,.129.441c.041.01,1.03.014,2.2.01,2.074-.01,2.128-.01,2.193-.078a.284.284,0,0,0,0-.39c-.068-.068-.112-.068-2.254-.068h-2.189Z" transform="translate(-114.178 -92.676)" fill="#fff"/>
    <path id="Path_3819" data-name="Path 3819" d="M263.264-353.87c-.186.075-.183-.01-.173,2.555l.01,2.366.081.064c.075.061.166.064,2.444.064a10,10,0,0,0,2.44-.061c.105-.085.119-.3.054-.807a4.8,4.8,0,0,0-2.023-3.342,4.8,4.8,0,0,0-2.3-.84C263.393-353.91,263.362-353.91,263.264-353.87Zm.942.61a4.28,4.28,0,0,1,2.969,2.288,4.387,4.387,0,0,1,.43,1.532l.01.078h-3.989v-3.965h.122A3.44,3.44,0,0,1,264.206-353.259Z" transform="translate(-193.306 -144.942)" fill="#fff"/>
    <path id="Path_3820" data-name="Path 3820" d="M281.137-315.775a.7.7,0,0,0-.41,1.044.776.776,0,0,0,.593.346.726.726,0,0,0,.7-.712A.707.707,0,0,0,281.137-315.775Zm.295.563a.162.162,0,0,1-.064.268c-.081.027-.105.02-.159-.047-.081-.1-.081-.122,0-.207S281.357-315.284,281.432-315.213Z" transform="translate(-210.247 -181.749)" fill="#fff"/>
    <path id="Path_3821" data-name="Path 3821" d="M294.576-308.551c-.085.034-1.7,2.26-1.708,2.355-.014.132,0,.186.075.254a.258.258,0,0,0,.373-.027c.047-.051.43-.573.854-1.159.81-1.129.84-1.19.708-1.349A.269.269,0,0,0,294.576-308.551Z" transform="translate(-222.073 -188.735)" fill="#fff"/>
    <path id="Path_3822" data-name="Path 3822" d="M324.417-262.917a.811.811,0,0,0-.417.641.77.77,0,0,0,.417.634.762.762,0,0,0,.7-.054.812.812,0,0,0,.308-.58.8.8,0,0,0-.312-.58A.8.8,0,0,0,324.417-262.917Zm.424.529a.173.173,0,0,1,.041.112c0,.1-.064.153-.176.153a.153.153,0,0,1-.132-.234A.192.192,0,0,1,324.841-262.388Z" transform="translate(-252.155 -232.79)" fill="#fff"/>
    <path id="Path_3823" data-name="Path 3823" d="M103.476-323.081a4.929,4.929,0,0,0-2.789,1.559,4.923,4.923,0,0,0-1.129,2.322,5.638,5.638,0,0,0,.014,1.786,4.853,4.853,0,0,0,3.826,3.8,6.543,6.543,0,0,0,1.783,0,4.892,4.892,0,0,0,2.616-1.454,4.777,4.777,0,0,0,1.274-2.871c.044-.447.02-.556-.139-.637a18.046,18.046,0,0,0-2.227-.044h-2.145v-2.166c0-2.593.051-2.342-.485-2.338A4.354,4.354,0,0,0,103.476-323.081Zm.542,2.657c0,2.138,0,2.166.071,2.254l.068.088h4.379l-.024.234a4.2,4.2,0,0,1-1.278,2.565,4.108,4.108,0,0,1-2.745,1.19,4.264,4.264,0,0,1-4.385-5.07,4.335,4.335,0,0,1,2.288-2.993,4.477,4.477,0,0,1,1.5-.43l.125,0Z" transform="translate(-35.257 -174.663)" fill="#fff"/>
    <path id="Path_3824" data-name="Path 3824" d="M149.175-239.588a.262.262,0,0,0-.153.254c0,.1-.017.119-.193.2a.908.908,0,0,0-.586.83c0,.491.325.786,1.023.932.43.092.6.217.6.441s-.322.383-.654.346a.6.6,0,0,1-.519-.352c-.129-.278-.339-.319-.5-.105-.068.092-.068.1-.014.278a1.054,1.054,0,0,0,.539.593,1.188,1.188,0,0,0,.254.105c.027,0,.044.041.044.119a.282.282,0,0,0,.39.268.4.4,0,0,0,.153-.295c0-.068.031-.088.183-.136a1.056,1.056,0,0,0,.552-.4.654.654,0,0,0,.105-.369c.031-.535-.291-.861-1.013-1.02-.464-.1-.607-.193-.607-.4,0-.227.21-.376.519-.376a.57.57,0,0,1,.515.305c.092.129.125.152.234.163a.25.25,0,0,0,.291-.247.889.889,0,0,0-.305-.5,1.044,1.044,0,0,0-.424-.227c-.034,0-.051-.034-.051-.115C149.564-239.51,149.337-239.676,149.175-239.588Z" transform="translate(-82.26 -255.356)" fill="#fff"/>
  </g>
</svg>
