<svg xmlns="http://www.w3.org/2000/svg" width="13.643" height="12.322" viewBox="0 0 13.643 12.322">
  <g id="scanner" transform="translate(-8.208 479.922)">
    <path id="Path_3558" data-name="Path 3558" d="M8.676-479.889a.9.9,0,0,0-.393.355.745.745,0,0,0-.047.52c.022.066.415,1.01.875,2.093a15.553,15.553,0,0,0,.93,2.074c.2.2.044.187,2.547.2l2.256.014.171.941c.094.517.184.982.2,1.032a.748.748,0,0,0,.314.36c.107.055.162.06.721.074l.605.014.605,2.069c.336,1.139.635,2.126.668,2.2a.669.669,0,0,0,.393.316c.069.019.594.027,1.475.022,1.353-.008,1.37-.008,1.483-.069a.7.7,0,0,0,.369-.583c0-.047-.3-1.21-.66-2.589l-.66-2.5v-1.282l.19-.027a1.347,1.347,0,0,0,1.089-.988,29.536,29.536,0,0,0,0-3.274,1.346,1.346,0,0,0-.968-.963c-.138-.036-.916-.041-6.115-.039C10.637-479.919,8.739-479.911,8.676-479.889Zm12.209.481a.844.844,0,0,1,.415.4l.094.173.008.666.011.668H17.644l-.017-.094a1.436,1.436,0,0,0-.671-.853c-.319-.162-.118-.154-4.269-.154H8.871l-.113-.283a2.075,2.075,0,0,1-.116-.33.375.375,0,0,1,.129-.237c.033-.019,1.978-.028,6.019-.022l5.97.005Zm-4.181,1.32a.844.844,0,0,1,.415.4.609.609,0,0,1,.091.407.653.653,0,0,1-.072.374.8.8,0,0,1-.385.4l-.173.094-3.389.008c-1.865,0-3.392,0-3.392-.005s-.165-.4-.369-.88l-.369-.869,3.761.005,3.758.008Zm4.7,1.689c-.008.666-.008.668-.083.809a.8.8,0,0,1-.385.4l-.173.094-5.161.008c-4.9.006-5.166,0-5.221-.041a2.475,2.475,0,0,1-.22-.435l-.16-.385,3.318-.014c3.318-.014,3.318-.014,3.461-.074a1.3,1.3,0,0,0,.525-.349,1.414,1.414,0,0,0,.325-.589l.017-.088h3.769Zm-4.616,2.745v.99h-.506c-.487,0-.512,0-.58-.063s-.083-.127-.234-.955c-.091-.492-.165-.91-.165-.93s.168-.033.743-.033h.743Zm3.3-.33v.66l.66,2.517c.363,1.387.66,2.539.66,2.567a.215.215,0,0,1-.129.165,10.044,10.044,0,0,1-1.353.033H18.632l-.069-.063a14.806,14.806,0,0,1-.7-2.215l-.635-2.154v-2.171h2.861Z" transform="translate(0 0)" fill="#fff"/>
    <path id="Path_3559" data-name="Path 3559" d="M32-223.56v.44h.44v-.44h.44V-224H32Z" transform="translate(-23.137 -248.882)" fill="#fff"/>
    <path id="Path_3560" data-name="Path 3560" d="M192-223.78v.22h.44v.44h.44V-224H192Z" transform="translate(-178.736 -248.882)" fill="#fff"/>
    <path id="Path_3561" data-name="Path 3561" d="M64-166.9v1.1h.22V-168H64Z" transform="translate(-54.257 -303.341)" fill="#fff"/>
    <path id="Path_3562" data-name="Path 3562" d="M80-166.9v1.1h.44V-168H80Z" transform="translate(-69.817 -303.341)" fill="#fff"/>
    <path id="Path_3563" data-name="Path 3563" d="M104-166.9v1.1h.22V-168H104Z" transform="translate(-93.156 -303.341)" fill="#fff"/>
    <path id="Path_3564" data-name="Path 3564" d="M120-166.9v1.1h.44V-168H120Z" transform="translate(-108.716 -303.341)" fill="#fff"/>
    <path id="Path_3565" data-name="Path 3565" d="M144-166.9v1.1h.22V-168H144Z" transform="translate(-132.056 -303.341)" fill="#fff"/>
    <path id="Path_3566" data-name="Path 3566" d="M160-166.9v1.1h.44V-168H160Z" transform="translate(-147.616 -303.341)" fill="#fff"/>
    <path id="Path_3567" data-name="Path 3567" d="M184-166.9v1.1h.22V-168H184Z" transform="translate(-170.956 -303.341)" fill="#fff"/>
    <path id="Path_3568" data-name="Path 3568" d="M32-63.56v.44h.88v-.44h-.44V-64H32Z" transform="translate(-23.137 -404.48)" fill="#fff"/>
    <path id="Path_3569" data-name="Path 3569" d="M192.44-63.78v.22H192v.44h.88V-64h-.44Z" transform="translate(-178.736 -404.48)" fill="#fff"/>
  </g>
</svg>
