<?xml version="1.0" standalone="no"?>
<!DOCTYPE svg PUBLIC "-//W3C//DTD SVG 20010904//EN"
 "http://www.w3.org/TR/2001/REC-SVG-20010904/DTD/svg10.dtd">
<svg version="1.0" xmlns="http://www.w3.org/2000/svg"
 width="30.000000pt" height="30.000000pt" viewBox="0 0 30.000000 30.000000"
 preserveAspectRatio="xMidYMid meet">

<g transform="translate(0.000000,30.000000) scale(0.100000,-0.100000)"
fill="#000000" stroke="none">
<path d="M82 284 c-96 -49 -107 -184 -20 -247 14 -11 48 -22 75 -24 143 -12
209 174 92 260 -37 27 -106 32 -147 11z m155 -48 c26 -28 33 -44 33 -76 0 -81
-49 -130 -130 -130 -56 0 -109 48 -117 106 -16 123 130 191 214 100z"/>
<path d="M135 210 c3 -5 10 -10 16 -10 5 0 9 5 9 10 0 6 -7 10 -16 10 -8 0
-12 -4 -9 -10z"/>
<path d="M137 183 c-4 -3 -7 -26 -7 -50 0 -32 4 -43 15 -43 11 0 15 12 15 50
0 46 -7 60 -23 43z"/>
</g>
</svg>
