<svg xmlns="http://www.w3.org/2000/svg" width="17.076" height="17.161" viewBox="0 0 17.076 17.161">
  <g id="sale-tag" transform="translate(-32.474 -31.321)">
    <path id="Path_3216" data-name="Path 3216" d="M-89.951-15.079c.776.531.776.531.925.813.1.1.194.083.331.081l.108,0,.114,0c.265-.005.529-.017.794-.029a5.781,5.781,0,0,1,3.2.482l.068.035a7.286,7.286,0,0,1,1.439,1.269l.2.2.474.474.386.385.056.056.112.112,1.048,1.047.957.956.986.985.552.552.518.519.19.19a2.706,2.706,0,0,1,1.051,1.887,2.785,2.785,0,0,1-1.124,1.968l-.136.138-.444.448-.077.077-.719.723q-.458.46-.914.92l-.646.65-.384.387q-.18.183-.362.364l-.131.133a2.13,2.13,0,0,1-1.5.749,2.057,2.057,0,0,1-.951-.167l-.1-.045A2.438,2.438,0,0,1-84.44.888L-84.5.827c-.289-.271-.568-.551-.848-.831l-.187-.187-.5-.5-.315-.315L-87.4-2.054l-.057-.057-.057-.057-.911-.911-.939-.939-.526-.526-.494-.494-.181-.18a4.684,4.684,0,0,1-1.636-3.136c0-.206.007-.412.014-.619l.006-.173q.015-.447.035-.893c.006-.144.012-.288.017-.433,0-.1.01-.194.016-.291a.9.9,0,0,0-.059-.533.657.657,0,0,0-.139-.1,3.6,3.6,0,0,1-1.164-2.074A2.149,2.149,0,0,1-93.25-15C-92.452-16.084-90.933-15.686-89.951-15.079Zm-2.67.373a1.278,1.278,0,0,0-.234,1,3.289,3.289,0,0,0,.688,1.49.565.565,0,0,0,.153.076l.025-.111a2.386,2.386,0,0,1,.978-1.492,3.569,3.569,0,0,1,1.137-.385,1.308,1.308,0,0,0-.4-.361l-.071-.045C-90.977-14.92-92.009-15.35-92.622-14.707Zm4.213,1.163-.448.019-.352.015-.165.007a2.231,2.231,0,0,0-1.581.53,1.926,1.926,0,0,0-.49,1.307.458.458,0,0,0,.135.324,2.662,2.662,0,0,0,.4.237l.069.036a2.071,2.071,0,0,0,.619.232l.018-.088a1.638,1.638,0,0,1,.674-1.084,1.682,1.682,0,0,1,1.263-.215,1.6,1.6,0,0,1,1.016.807,1.715,1.715,0,0,1,.048,1.345,1.6,1.6,0,0,1-.9.844,1.664,1.664,0,0,1-1.2-.042,1.339,1.339,0,0,1-.724-.714.379.379,0,0,0-.243-.218c-.077-.024-.155-.045-.233-.065a4,4,0,0,1-.863-.378l-.076-.038a.942.942,0,0,0-.05.294l0,.11,0,.119,0,.123q-.005.129-.01.258-.008.2-.016.393l-.01.251,0,.118a3.645,3.645,0,0,0,.868,2.729c.214.229.438.45.66.672l.2.2.546.547.341.342.947.949.061.061.123.123.061.061.062.062.987.989,1.015,1.018.569.571.535.536.2.2.269.268.077.079a1.46,1.46,0,0,0,1.1.444c.58-.011.96-.456,1.345-.841l.137-.136.369-.367.231-.23.724-.722.833-.83.646-.643.385-.383.362-.361.132-.131a1.775,1.775,0,0,0,.661-1.22,1.651,1.651,0,0,0-.64-1.209l-.085-.086-.281-.282-.2-.2-.548-.549-.343-.344-.951-.953-.061-.061-.123-.123-.062-.062-.062-.062-.99-.993-1.02-1.022-.571-.573-.538-.539-.2-.2A3.667,3.667,0,0,0-86.291-13.6h-.422C-87.279-13.592-87.843-13.569-88.408-13.544Zm-.932,2.172a1.3,1.3,0,0,0-.268.65,1.242,1.242,0,0,0,.73-.2.417.417,0,0,1,.3.006l.076.038a.6.6,0,0,1-.012.451,1.8,1.8,0,0,1-.829.313.793.793,0,0,0,.535.344,1.012,1.012,0,0,0,.688-.153.915.915,0,0,0,.382-.535,1.065,1.065,0,0,0-.153-.8.973.973,0,0,0-.662-.391A.99.99,0,0,0-89.34-11.373Z" transform="translate(126 47)" fill="#fff"/>
    <path id="Path_3217" data-name="Path 3217" d="M-11.374-.251a1.186,1.186,0,0,1,.339.487l.04.088q.065.143.13.287l.092.2q.319.7.629,1.408.282.64.582,1.271c.227.48.444.964.658,1.449l.037.084.071.16q.123.28.256.556a.435.435,0,0,1-.006.352.371.371,0,0,1-.265.164.594.594,0,0,1-.232-.05A4.787,4.787,0,0,1-9.514,5.3l-.081-.179c-.2-.437-.393-.876-.587-1.315q-.312-.705-.638-1.4l-.091-.2q-.181-.389-.363-.778l-.217-.466-.081-.172q-.056-.119-.111-.238l-.063-.135a.692.692,0,0,1-.037-.551C-11.665-.278-11.554-.27-11.374-.251Z" transform="translate(52.697 38.477)" fill="#fff"/>
    <path id="Path_3218" data-name="Path 3218" d="M-48.645-4.726l.1.062.071.044a1.3,1.3,0,0,1,.44.684,1.382,1.382,0,0,1-.248,1.1,1.316,1.316,0,0,1-.861.475,1.337,1.337,0,0,1-.981-.315,1.387,1.387,0,0,1-.45-.971,1.369,1.369,0,0,1,.453-.973A1.275,1.275,0,0,1-48.645-4.726Zm-1.067.653a.627.627,0,0,0-.185.5.662.662,0,0,0,.269.449.693.693,0,0,0,.571.06.843.843,0,0,0,.356-.38.838.838,0,0,0-.064-.511.7.7,0,0,0-.521-.3A.585.585,0,0,0-49.713-4.073Z" transform="translate(93.807 44.572)" fill="#fff"/>
    <path id="Path_3219" data-name="Path 3219" d="M-48.675-4.2a1.229,1.229,0,0,1,.5.611l.048.127a1.506,1.506,0,0,1-.186,1.125,1.3,1.3,0,0,1-.855.506,1.372,1.372,0,0,1-.952-.229,1.221,1.221,0,0,1-.462-.727c-.043-.69-.043-.69.153-.994l.043-.073a1.094,1.094,0,0,1,.69-.481A1.51,1.51,0,0,1-48.675-4.2Zm-1.221.779a.712.712,0,0,0-.038.525.649.649,0,0,0,.384.372.66.66,0,0,0,.5-.028.685.685,0,0,0,.3-.387.719.719,0,0,0-.153-.573.664.664,0,0,0-.528-.2A.754.754,0,0,0-49.9-3.418Z" transform="translate(89.883 45.098)" fill="#fff"/>
  </g>
</svg>
