<svg xmlns="http://www.w3.org/2000/svg" width="12.057" height="12.686" viewBox="0 0 12.057 12.686">
  <g id="Group_17866" data-name="Group 17866" transform="translate(-28 -597)">
    <g id="delete" transform="translate(28 597)">
      <g id="Group_17885" data-name="Group 17885" transform="translate(0 0)">
        <path id="Path_2804" data-name="Path 2804" d="M52.939-474.689a1.275,1.275,0,0,0-.589.31,1.329,1.329,0,0,0-.4,1.137v.368l-1.689.009c-1.648.009-1.694.012-1.793.07a.451.451,0,0,0-.223.427.444.444,0,0,0,.223.36c.09.064.128.067.557.067.342,0,.464.009.473.035s.131,1.86.273,4.085c.165,2.533.279,4.135.308,4.28a1.9,1.9,0,0,0,1.378,1.456,18.333,18.333,0,0,0,2.829.052c2.968,0,2.788.012,3.238-.221a1.882,1.882,0,0,0,.984-1.381c.017-.11.142-2,.279-4.216s.252-4.036.258-4.056.131-.035.473-.035c.429,0,.467,0,.557-.067a.448.448,0,0,0,.223-.345.453.453,0,0,0-.215-.432l-.11-.07-1.686-.009-1.689-.009-.012-.441a1.626,1.626,0,0,0-.078-.609,1.324,1.324,0,0,0-.749-.725c-.162-.061-.212-.064-1.416-.07A12.949,12.949,0,0,0,52.939-474.689Zm2.643,1.03c.084.093.084.1.084.441v.348H52.881v-.345c0-.328,0-.351.073-.435a.326.326,0,0,1,.139-.1c.035-.009.589-.012,1.233-.009l1.172,0Zm2.521,1.811c0,.038-.11,1.863-.247,4.056-.168,2.707-.264,4.036-.29,4.138a1,1,0,0,1-.633.656c-.1.029-.7.038-2.69.038H51.677l-.16-.075a1.253,1.253,0,0,1-.264-.165,1.17,1.17,0,0,1-.3-.546c-.017-.119-.479-7.889-.479-8.063v-.1H58.1Z" transform="translate(-48.246 474.719)" fill="#fff"/>
        <path id="Path_2805" data-name="Path 2805" d="M176.718-324.936a.853.853,0,0,0-.157.148c-.061.081-.061.09-.061,2.719s0,2.637.061,2.719a.461.461,0,0,0,.778,0c.061-.081.061-.09.061-2.719s0-2.637-.061-2.719a.475.475,0,0,0-.389-.212A.4.4,0,0,0,176.718-324.936Z" transform="translate(-172.778 329.344)" fill="#fff"/>
        <path id="Path_2806" data-name="Path 2806" d="M240.718-324.936a.853.853,0,0,0-.157.148c-.061.081-.061.09-.061,2.719s0,2.637.061,2.719a.461.461,0,0,0,.778,0c.061-.081.061-.09.061-2.719s0-2.637-.061-2.719a.475.475,0,0,0-.389-.212A.4.4,0,0,0,240.718-324.936Z" transform="translate(-234.922 329.344)" fill="#fff"/>
        <path id="Path_2807" data-name="Path 2807" d="M304.718-324.936a.853.853,0,0,0-.157.148c-.061.081-.061.09-.061,2.719s0,2.637.061,2.719a.461.461,0,0,0,.778,0c.061-.081.061-.09.061-2.719s0-2.637-.061-2.719a.475.475,0,0,0-.389-.212A.4.4,0,0,0,304.718-324.936Z" transform="translate(-297.065 329.344)" fill="#fff"/>
      </g>
    </g>
  </g>
</svg>
