<svg xmlns="http://www.w3.org/2000/svg" width="23.641" height="26.125" viewBox="0 0 23.641 26.125">
  <g id="Group_573" data-name="Group 573" transform="translate(0.5 0.5)">
    <path id="Path_872" data-name="Path 872" d="M84.433-479.7a1.253,1.253,0,0,0-.926,1.019l-.027.181H82.45a6.119,6.119,0,0,0-1.258.058,1.888,1.888,0,0,0-1.35,1.358c-.089.332-.089,12.887,0,13.218a1.888,1.888,0,0,0,1.35,1.358c.2.05.876.058,5.348.058,3.318,0,5.189-.015,5.325-.039a1.906,1.906,0,0,0,1.462-1.462c.023-.131.039-2.5.039-6.559,0-7,.015-6.559-.235-7.03a2.1,2.1,0,0,0-.76-.745c-.382-.193-.556-.216-1.671-.216h-1.03l-.027-.181a1.5,1.5,0,0,0-.3-.656,1.519,1.519,0,0,0-.34-.247l-.243-.131-2.1-.008C85.494-479.722,84.5-479.711,84.433-479.7Zm3.993,3.777v2.574l-.833-.413a3.06,3.06,0,0,0-1-.417,3.091,3.091,0,0,0-1.019.424l-.849.424v-5.17h3.7Zm-4.931.768.012,2.114.093.2a1.5,1.5,0,0,0,.652.64,1.081,1.081,0,0,0,.475.081l.3,0,.776-.386.776-.382.776.382.776.386.3,0a1.081,1.081,0,0,0,.49-.089,1.448,1.448,0,0,0,.64-.641c.089-.193.089-.193.1-2.307l.012-2.114,1.038.012c.976.012,1.042.015,1.142.093a1.056,1.056,0,0,1,.185.185l.081.1v12.8l-.081.1a1.047,1.047,0,0,1-.185.185c-.1.081-.116.081-5.27.081s-5.166,0-5.27-.081a1.047,1.047,0,0,1-.185-.185c-.081-.1-.081-.112-.093-6.4,0-3.465,0-6.351.012-6.42a.667.667,0,0,1,.347-.421,4.986,4.986,0,0,1,1.107-.054h.992Z" transform="translate(-75.248 483.644)" fill="#fff"/>
    <path id="Path_873" data-name="Path 873" d="M176.474-207.723a.635.635,0,0,0-.351.7.66.66,0,0,0,.4.444c.1.031.992.039,2.755.031,2.566-.012,2.612-.012,2.716-.093a.545.545,0,0,0,.266-.517.545.545,0,0,0-.266-.517c-.1-.081-.147-.081-2.755-.089A21.614,21.614,0,0,0,176.474-207.723Z" transform="translate(-167.869 222.185)" fill="#fff"/>
    <path id="Path_874" data-name="Path 874" d="M176.474-143.724a.634.634,0,0,0-.351.7.66.66,0,0,0,.4.444c.1.031.806.039,2.137.031,1.945-.012,1.995-.015,2.1-.093a.545.545,0,0,0,.266-.517.545.545,0,0,0-.266-.517c-.1-.081-.154-.081-2.138-.089A13.634,13.634,0,0,0,176.474-143.724Z" transform="translate(-167.869 160.655)" fill="#fff"/>
    <path id="Path_478" data-name="Path 478" d="M17.84,205.6H39.817V186.107l-4.557-5.63H21.068l-3.893,4.809V205.6Z" transform="translate(-17.176 -180.477)" fill="none" stroke="#fff" stroke-miterlimit="10" stroke-width="1"/>
  </g>
</svg>
