<svg xmlns="http://www.w3.org/2000/svg" width="27.011" height="35.279" viewBox="0 0 27.011 35.279">
  <g id="order-_1_" transform="translate(-60.072 511.879)">
    <path id="Path_3375" data-name="Path 3375" d="M72.814-511.784a2.975,2.975,0,0,0-1.406.827,3,3,0,0,0-.545.71l-.131.29h-1.2c-1.241,0-1.524.048-1.841.331a1.569,1.569,0,0,0-.386,1.131v.469H64.6c-2.951,0-3.109.014-3.647.386a2.257,2.257,0,0,0-.476.483c-.434.634-.414-.262-.393,15.028.021,11.657.034,13.96.117,14.174a2.221,2.221,0,0,0,1.006,1.124l.407.207,11.754.021c8.41.014,11.864,0,12.119-.055a2.05,2.05,0,0,0,1.193-.8c.441-.634.414.276.4-15.028l-.021-13.918-.227-.469a1.947,1.947,0,0,0-.545-.7c-.565-.434-.7-.448-3.723-.448H79.852v-.448a1.284,1.284,0,0,0-.724-1.351,3.563,3.563,0,0,0-1.489-.131H76.426l-.131-.29a3.609,3.609,0,0,0-1.289-1.289A3.2,3.2,0,0,0,72.814-511.784Zm1.379,1.11a2.1,2.1,0,0,1,1.213,1.165c.227.634.179.614,1.848.655l1.461.034v2.689H68.443v-2.689l1.461-.034c1.668-.041,1.62-.021,1.848-.655a2.2,2.2,0,0,1,1.186-1.165A2.051,2.051,0,0,1,74.192-510.674Zm-6.887,4.2a1.315,1.315,0,0,0,.7,1.351c.248.124.489.131,5.57.131s5.322-.007,5.57-.131a1.315,1.315,0,0,0,.7-1.351v-.448h2.675c2.937,0,2.964.007,3.281.434l.145.193v27.975l-.145.193a1.207,1.207,0,0,1-.379.31c-.221.117-.931.124-11.85.124s-11.63-.007-11.85-.124a1.207,1.207,0,0,1-.379-.31l-.145-.193V-506.3l.145-.193c.317-.427.345-.434,3.288-.434h2.668Z" transform="translate(0 0)" fill="#ed1c24"/>
    <path id="Path_3376" data-name="Path 3376" d="M117.848-372.793a1.082,1.082,0,0,0-.71.5c-.131.207-.138.365-.138,2.6,0,2.254.007,2.392.138,2.606a1.268,1.268,0,0,0,.358.358c.221.138.331.138,2.689.124l2.461-.021.248-.241a1.3,1.3,0,0,0,.31-.483,40.9,40.9,0,0,0,0-4.688,1.156,1.156,0,0,0-.827-.751A41.37,41.37,0,0,0,117.848-372.793Zm1.7,1.455c0,.372.021.441.2.62a.427.427,0,0,0,.627.1c.221-.117.262-.227.29-.758l.021-.345h1.448l.021,2.013.014,2.02H118.1v-4.067h1.448Z" transform="translate(-53.003 -129.443)" fill="#ed1c24"/>
    <path id="Path_3377" data-name="Path 3377" d="M237.3-351.862a.557.557,0,0,0-.138.882l.159.152h3.847c2.371,0,3.888-.028,3.971-.069a.621.621,0,0,0,.207-.648c-.145-.393-.041-.386-4.136-.379C239.144-351.924,237.386-351.9,237.3-351.862Z" transform="translate(-164.738 -148.926)" fill="#ed1c24"/>
    <path id="Path_3378" data-name="Path 3378" d="M237.242-317.841a.583.583,0,0,0-.021.745l.131.165,2.544.021c2.73.014,2.8.007,2.964-.345a.569.569,0,0,0-.186-.676,25.9,25.9,0,0,0-2.709-.069h-2.578Z" transform="translate(-164.821 -180.513)" fill="#ed1c24"/>
    <path id="Path_3379" data-name="Path 3379" d="M117.579-255.862a1.057,1.057,0,0,0-.427.407c-.145.262-.152.331-.152,2.592,0,2.24.007,2.337.145,2.585a1.3,1.3,0,0,0,.414.407c.255.145.317.152,2.626.131,3.3-.028,3.054.228,3.054-3.123,0-2.24-.007-2.358-.145-2.585a1.259,1.259,0,0,0-.414-.393c-.262-.152-.317-.159-2.544-.159C117.993-256,117.848-255.993,117.579-255.862Zm1.985,1.42c.021.379.055.483.186.586a.527.527,0,0,0,.731-.041c.145-.138.172-.234.172-.586v-.414h1.517v4.067H118.1V-254.9h1.434Z" transform="translate(-53.003 -238.239)" fill="#ed1c24"/>
    <path id="Path_3380" data-name="Path 3380" d="M237.242-234.841a.583.583,0,0,0-.021.745l.131.165,3.84.021c4.191.021,4.088.028,4.24-.365a.628.628,0,0,0-.207-.655c-.083-.041-1.6-.069-3.985-.069h-3.854Z" transform="translate(-164.821 -257.791)" fill="#ed1c24"/>
    <path id="Path_3381" data-name="Path 3381" d="M237.3-201.918a.557.557,0,0,0-.138.882c.159.152.186.152,2.73.152a25.636,25.636,0,0,0,2.7-.069.56.56,0,0,0-.069-.944A43.893,43.893,0,0,0,237.3-201.918Z" transform="translate(-164.738 -288.529)" fill="#ed1c24"/>
    <path id="Path_3382" data-name="Path 3382" d="M117.5-138.862a1.268,1.268,0,0,0-.358.358c-.131.214-.138.352-.138,2.613,0,2.358,0,2.385.159,2.613a1.347,1.347,0,0,0,.393.372c.227.138.372.145,2.275.165,2.509.028,2.682.014,3.04-.31a1.121,1.121,0,0,0,.338-.517,20.032,20.032,0,0,0,.055-2.5c-.021-2.137-.028-2.24-.165-2.427a2.03,2.03,0,0,0-.372-.352c-.227-.152-.255-.152-2.613-.152C117.848-139,117.71-138.993,117.5-138.862Zm2.054,1.351c0,.331.028.407.2.586a.421.421,0,0,0,.62.1c.241-.124.283-.221.283-.7v-.372h1.517l-.014,2.013-.021,2.02-2.013.021-2.02.014V-137.9h1.448Z" transform="translate(-53.003 -347.173)" fill="#ed1c24"/>
    <path id="Path_3383" data-name="Path 3383" d="M237.3-118.859a.557.557,0,0,0-.138.882l.159.152h3.847c2.371,0,3.888-.028,3.971-.069a.569.569,0,0,0,.186-.676c-.165-.358-.152-.358-4.15-.352C239.13-118.921,237.386-118.894,237.3-118.859Z" transform="translate(-164.738 -365.867)" fill="#ed1c24"/>
    <path id="Path_3384" data-name="Path 3384" d="M237.173-84.841a.545.545,0,0,0,.021.772l.165.172H239.9c2.22,0,2.558-.014,2.7-.11a.52.52,0,0,0,.214-.627c-.138-.365-.11-.358-2.9-.365h-2.592Z" transform="translate(-164.752 -397.451)" fill="#ed1c24"/>
  </g>
</svg>
