<svg xmlns="http://www.w3.org/2000/svg" width="15.326" height="14.303" viewBox="0 0 15.326 14.303">
  <g id="web-analysis" transform="translate(0.526 -16.609)">
    <path id="Path_3693" data-name="Path 3693" d="M-53.514-.126h12.1A1.658,1.658,0,0,1-40.2.244a1.512,1.512,0,0,1,.361,1.148q0,.076,0,.152,0,.208,0,.415,0,.224,0,.448,0,.439,0,.878,0,.357,0,.714c0,.034,0,.068,0,.1q0,.1,0,.206,0,.967,0,1.935,0,.885,0,1.77,0,.909,0,1.818,0,.51,0,1.02,0,.434,0,.869,0,.222,0,.443,0,.2,0,.406,0,.073,0,.146A1.478,1.478,0,0,1-40.21,13.8a1.677,1.677,0,0,1-1.274.366h-12.1A1.658,1.658,0,0,1-54.8,13.8a1.512,1.512,0,0,1-.361-1.148q0-.076,0-.152,0-.208,0-.415,0-.224,0-.448,0-.439,0-.878,0-.357,0-.714v-.1q0-.1,0-.206,0-.967,0-1.935,0-.885,0-1.77,0-.909,0-1.818,0-.51,0-1.02,0-.434,0-.869,0-.222,0-.443,0-.2,0-.406,0-.073,0-.146A1.464,1.464,0,0,1-54.818.27,1.683,1.683,0,0,1-53.514-.126Zm-1,.844a5.09,5.09,0,0,0-.149,2.36h14.339A3.92,3.92,0,0,0-40.586.607a.858.858,0,0,0-.632-.229H-53.563A1.1,1.1,0,0,0-54.519.718Zm-.119,2.868c0,1.556-.006,3.113-.009,4.716l0,1.49c0,.44,0,.44,0,.88q0,.294,0,.589,0,.34,0,.679,0,.174,0,.347c0,.124,0,.248,0,.372v.109a.892.892,0,0,0,.227.649.864.864,0,0,0,.651.246h12.344a1.158,1.158,0,0,0,.9-.285,1.3,1.3,0,0,0,.2-.914c0-.038,0-.076,0-.115q0-.158,0-.315,0-.173,0-.345,0-.335,0-.67,0-.388,0-.775,0-1.023,0-2.046c0-1.524,0-3.047,0-4.617Z" transform="translate(54.636 16.739)" fill="#fff"/>
    <path id="Path_3694" data-name="Path 3694" d="M-84.974-.144l.1,0a.331.331,0,0,1,.242.165.7.7,0,0,1-.007.215l-.014.132-.008.071a3.374,3.374,0,0,0,.273,2.372,6.836,6.836,0,0,0,1.2,1.116l.052.04.139.1a.351.351,0,0,1,.1.281,1.86,1.86,0,0,1-1,.739,2.83,2.83,0,0,1-2.142-.082,2.789,2.789,0,0,1-1.445-1.656,2.828,2.828,0,0,1,.222-2.1A2.794,2.794,0,0,1-85.547-.067,3.188,3.188,0,0,1-84.974-.144Zm-1.518,1.209a2.177,2.177,0,0,0-.591,1.528A2.314,2.314,0,0,0-86.336,4.2a2.256,2.256,0,0,0,1.664.544,2.427,2.427,0,0,0,1.144-.455A6.594,6.594,0,0,0-83.98,3.8l-.136-.135-.288-.286-.335-.334-.134-.133-.082-.081-.072-.072a.4.4,0,0,1-.091-.33V2.367q0-.109,0-.217,0-.075,0-.15,0-.2,0-.4t0-.4q0-.4-.009-.794A2.022,2.022,0,0,0-86.491,1.065Z" transform="translate(87.977 23.535)" fill="#fff"/>
    <path id="Path_3695" data-name="Path 3695" d="M-119.885-4.183a.856.856,0,0,1,.329.508v.119l.094.008a3.84,3.84,0,0,1,.548.128l.109.03.264.073.026-.056a.6.6,0,0,1,.325-.256.954.954,0,0,1,.722.087.806.806,0,0,1,.332.465.939.939,0,0,1-.149.717.774.774,0,0,1-.514.279.859.859,0,0,1-.676-.209.694.694,0,0,1-.214-.518l-.093-.022-.922-.217-.051.07a.811.811,0,0,1-.516.259.778.778,0,0,1-.54-.161c-.089-.062-.089-.062-.2-.018l-.155.059-.1.038c-.108.044-.214.09-.32.138l-.056.023a1.115,1.115,0,0,0-.334.19.882.882,0,0,0-.053.3.547.547,0,0,1-.186.361.9.9,0,0,1-.687.209.859.859,0,0,1-.577-.388.894.894,0,0,1-.055-.681.9.9,0,0,1,.429-.457.861.861,0,0,1,.7.028A.489.489,0,0,1-122.27-3c.087.049.087.049.194.01l.125-.054.067-.03.14-.064c.071-.032.142-.062.214-.092a.676.676,0,0,0,.41-.316.925.925,0,0,0,.031-.217.664.664,0,0,1,.26-.4A.873.873,0,0,1-119.885-4.183Zm-.687.478a.267.267,0,0,0-.056.224.3.3,0,0,0,.146.224.307.307,0,0,0,.26,0,.46.46,0,0,0,.159-.205.377.377,0,0,0-.078-.248A.318.318,0,0,0-120.572-3.705Zm2.39.717a.464.464,0,0,0,0,.239.319.319,0,0,0,.207.165.459.459,0,0,0,.181-.015.423.423,0,0,0,.168-.269.423.423,0,0,0-.168-.269A.314.314,0,0,0-118.182-2.988Zm-4.839.448a.431.431,0,0,0-.03.269.418.418,0,0,0,.239.179.323.323,0,0,0,.239-.09.359.359,0,0,0,.06-.3.3.3,0,0,0-.22-.181A.387.387,0,0,0-123.021-2.54Z" transform="translate(130.995 25.374)" fill="#fff"/>
    <path id="Path_3696" data-name="Path 3696" d="M-15.691-.158h.239l.247,0h.231a.461.461,0,0,1,.342.1.525.525,0,0,1,.068.328V.33c0,.07,0,.141,0,.211q0,.076,0,.151,0,.205,0,.411,0,.171,0,.343,0,.4,0,.809t0,.834q0,.358,0,.716,0,.214,0,.428t0,.4q0,.074,0,.148c0,.067,0,.134,0,.2,0,.038,0,.075,0,.114a.443.443,0,0,1-.1.248.584.584,0,0,1-.38.071h-.237l-.244,0h-.156l-.073,0a.411.411,0,0,1-.3-.09c-.113-.117-.108-.177-.109-.338V4.931q0-.106,0-.211,0-.076,0-.151,0-.248,0-.5V3.9q0-.356,0-.711,0-.51,0-1.019,0-.358,0-.717,0-.214,0-.428t0-.4q0-.074,0-.148c0-.067,0-.135,0-.2V.16a.455.455,0,0,1,.168-.281A.689.689,0,0,1-15.691-.158Zm.043.514V4.9h.568V.356Z" transform="translate(26.012 23.374)" fill="#fff"/>
    <path id="Path_3697" data-name="Path 3697" d="M-15.85-.024h.729a.5.5,0,0,1,.283.066.6.6,0,0,1,.129.433V.7q0,.063,0,.126,0,.171,0,.342,0,.143,0,.286,0,.337,0,.674t0,.695q0,.3,0,.6,0,.178,0,.356t0,.335c0,.06,0,.121,0,.181a.774.774,0,0,1-.15.563.756.756,0,0,1-.339.045h-.244l-.252,0h-.236a.484.484,0,0,1-.284-.067.522.522,0,0,1-.129-.4V4.329q0-.061,0-.121t0-.128q0-.174,0-.348t0-.364q0-.306,0-.611,0-.353,0-.707,0-.3,0-.607,0-.181,0-.362t0-.341q0-.062,0-.125c0-.057,0-.114,0-.171,0-.032,0-.064,0-.1a.462.462,0,0,1,.129-.3A.612.612,0,0,1-15.85-.024Zm.028.524V4.383h.6V.5Z" transform="translate(28.605 23.888)" fill="#fff"/>
    <path id="Path_3698" data-name="Path 3698" d="M-15.454-.233h.232l.239,0h.153l.072,0a.489.489,0,0,1,.371.134.462.462,0,0,1,.068.282v.1c0,.036,0,.072,0,.11V.5q0,.157,0,.314,0,.1,0,.2,0,.343,0,.685,0,.319,0,.638,0,.274,0,.548,0,.164,0,.327c0,.122,0,.243,0,.365v.109a.563.563,0,0,1-.135.45.559.559,0,0,1-.355.07h-.244l-.252,0h-.237a.444.444,0,0,1-.287-.072.322.322,0,0,1-.094-.283V3.519q0-.2,0-.393V2.991q0-.281,0-.562,0-.4,0-.806,0-.283,0-.566,0-.169,0-.338t0-.318c0-.057,0-.115,0-.172,0-.281,0-.281.091-.373A.6.6,0,0,1-15.454-.233Zm.051.515V3.687h.568V.282Z" transform="translate(23.348 24.584)" fill="#fff"/>
    <path id="Path_3699" data-name="Path 3699" d="M-21.85-1.1a2.73,2.73,0,0,1,1.527.792l.058.051A2.621,2.621,0,0,1-19.542,1.5a.463.463,0,0,1-.094.284.761.761,0,0,1-.394.068h-2.088a.464.464,0,0,1-.326-.1.525.525,0,0,1-.069-.339V1.337q0-.126,0-.252V.909q0-.184,0-.368,0-.236,0-.471,0-.181,0-.362,0-.087,0-.174c0-.081,0-.162,0-.243V-.782a.368.368,0,0,1,.09-.274A.774.774,0,0,1-21.85-1.1ZM-22-.578V1.334h1.912a1.837,1.837,0,0,0-.108-.5l-.024-.063A2.208,2.208,0,0,0-21.442-.456l-.166-.062L-21.67-.54A.94.94,0,0,0-22-.578Z" transform="translate(26.087 23.92)" fill="#fff"/>
    <path id="Path_3700" data-name="Path 3700" d="M-12.578-.03h2.246a.385.385,0,0,1,.259.07.474.474,0,0,1,.061.306V.417a2.619,2.619,0,0,1-.613,1.54l-.045.058a.408.408,0,0,1-.307.2.421.421,0,0,1-.32-.18l-.054-.054c-.058-.058-.116-.117-.173-.177l-.121-.122q-.159-.161-.317-.323l-.26-.263q-.269-.271-.536-.544L-12.809.5c-.143-.147-.143-.147-.156-.284A.245.245,0,0,1-12.911.04.5.5,0,0,1-12.578-.03Zm.488.493c.137.162.137.162.282.315l.054.054.057.056.06.059.186.185.127.127.31.308A1.869,1.869,0,0,0-10.536.553V.464Z" transform="translate(16.867 26.015)" fill="#fff"/>
    <path id="Path_3701" data-name="Path 3701" d="M-11.7-.145h5.28a.342.342,0,0,1,.255.09.266.266,0,0,1,.078.169.4.4,0,0,1-.136.239.921.921,0,0,1-.31.034H-8.588l-1,0h-2.116a.456.456,0,0,1-.314-.1.455.455,0,0,1-.03-.3C-11.953-.142-11.857-.147-11.7-.145Z" transform="translate(19.487 18.363)" fill="#fff"/>
    <path id="Path_3702" data-name="Path 3702" d="M-41.926-4.882a.929.929,0,0,1,.328.622.848.848,0,0,1-.282.647.782.782,0,0,1-.6.2.848.848,0,0,1-.583-.307.965.965,0,0,1-.149-.657.858.858,0,0,1,.412-.565A.853.853,0,0,1-41.926-4.882Zm-.687.448a.317.317,0,0,0-.091.254.372.372,0,0,0,.211.254.4.4,0,0,0,.3-.091.343.343,0,0,0,.076-.269.346.346,0,0,0-.164-.207A.307.307,0,0,0-42.613-4.434Z" transform="translate(44.105 22.697)" fill="#fff"/>
    <path id="Path_3703" data-name="Path 3703" d="M-43.826-6.491a.865.865,0,0,1,.258.612.874.874,0,0,1-.257.607.883.883,0,0,1-.627.2A.81.81,0,0,1-45-5.349a.907.907,0,0,1-.163-.744.909.909,0,0,1,.388-.508A.911.911,0,0,1-43.826-6.491Zm-.767.4a.394.394,0,0,0-.06.329.406.406,0,0,0,.252.183.226.226,0,0,0,.207-.063.352.352,0,0,0,.108-.3.334.334,0,0,0-.181-.2C-44.407-6.2-44.463-6.166-44.593-6.093Z" transform="translate(50.387 24.357)" fill="#fff"/>
    <path id="Path_3704" data-name="Path 3704" d="M-45.557-7.781a.891.891,0,0,1,.23.569.983.983,0,0,1-.282.624.938.938,0,0,1-.687.179.854.854,0,0,1-.562-.4.826.826,0,0,1-.076-.6.829.829,0,0,1,.431-.528A.857.857,0,0,1-45.557-7.781Zm-.8.357a.3.3,0,0,0-.088.256.307.307,0,0,0,.147.222.383.383,0,0,0,.291,0,.473.473,0,0,0,.157-.205.343.343,0,0,0-.1-.263A.288.288,0,0,0-46.357-7.424Z" transform="translate(49.999 25.688)" fill="#fff"/>
  </g>
</svg>
