<svg xmlns="http://www.w3.org/2000/svg" width="48.362" height="16.131" viewBox="0 0 48.362 16.131">
  <g id="Leeyet_Logos_copy-01" data-name="Leeyet Logos copy-01" transform="translate(-198.241 -238)">
    <g id="Group_18727" data-name="Group 18727" transform="translate(198.241 238)">
      <path id="Path_3916" data-name="Path 3916" d="M547.416,247.945a3.868,3.868,0,1,1,2.083-7.129H552.6a6.075,6.075,0,1,0,.284,6.025h-2.767A3.854,3.854,0,0,1,547.416,247.945Z" transform="translate(-541.4 -238)" fill="#ccda2c"/>
      <path id="Path_3917" data-name="Path 3917" d="M1001.666,773H994.82a.819.819,0,0,0-.82.82v.5a.819.819,0,0,0,.82.82h6.846a.819.819,0,0,0,.82-.82v-.5A.819.819,0,0,0,1001.666,773Z" transform="translate(-989.766 -767.995)" fill="#ccda2c"/>
    </g>
    <g id="Group_18729" data-name="Group 18729" transform="translate(212.403 238.412)">
      <g id="Group_18728" data-name="Group 18728" transform="translate(0 0)">
        <path id="Path_3918" data-name="Path 3918" d="M2067.026,282h-2.3a3.929,3.929,0,1,1-6.706,0h-2.5a6.082,6.082,0,0,0,4.681,7.946v6.736a.819.819,0,0,0,.819.82h.5a.819.819,0,0,0,.82-.82v-6.736a6.076,6.076,0,0,0,4.678-7.946Z" transform="translate(-2055.2 -282)"/>
        <ellipse id="Ellipse_164" data-name="Ellipse 164" cx="2.006" cy="1.719" rx="2.006" ry="1.719" transform="translate(3.943 1.252)"/>
      </g>
    </g>
    <g id="Group_18730" data-name="Group 18730" transform="translate(226.138 238)">
      <path id="Path_3919" data-name="Path 3919" d="M3529.416,247.945a3.868,3.868,0,1,1,2.083-7.129h3.106a6.075,6.075,0,1,0,.284,6.025h-2.767A3.853,3.853,0,0,1,3529.416,247.945Z" transform="translate(-3523.4 -238)" fill="#cdda2c"/>
      <path id="Path_3920" data-name="Path 3920" d="M3990.763,657.042h-3.373c0-.425,0-.7-.009-.758-.028-.365-.449-.337-.449-.337a10.406,10.406,0,0,0-1.188,1.01.807.807,0,0,0-.067.084h-8.01c-.865,0-1.567.367-1.567.82v.5c0,.453.7.82,1.567.82h7.712c-.069,2.452-.218,8.662.029,8.887.309.281.833-.084,1.375-.664a2.79,2.79,0,0,0,.6-1.533s.012-3.865.012-6.69h3.369c.865,0,1.567-.367,1.567-.82v-.5C3992.33,657.408,3991.628,657.042,3990.763,657.042Z" transform="translate(-3971.865 -652.037)" fill="#cdda2c"/>
    </g>
  </g>
</svg>
