<svg xmlns="http://www.w3.org/2000/svg" width="16.372" height="18.339" viewBox="0 0 16.372 18.339">
  <g id="invoice-_1_" transform="translate(-31 508)">
    <path id="Path_3825" data-name="Path 3825" d="M66-501.353v6.647h4.68l1.858,1.73c1.02.951,1.865,1.73,1.876,1.73s.881-.9,1.934-1.992,2.149-2.236,2.429-2.531l.517-.535v-5.012l-1.584-.794-1.584-.79v-2.276l-1.41-1.41L73.3-508H66Zm7.029-4.9v1.348h2.732v.892c0,.492-.007.892-.018.892s-.146-.066-.3-.142a1.5,1.5,0,0,0-.812-.222,1.515,1.515,0,0,0-1.391.907,1.179,1.179,0,0,0-.127.55,1.463,1.463,0,0,0,.153.772c.029.062-.036.066-.947.073l-.98.011-.011.189-.011.193H73.6l.2.117c.109.066.6.317,1.082.557l.878.437v4.571h-9.4V-507.6h6.665Zm1.439-.036,1.02,1.02H73.43v-1.02c0-.561,0-1.02.011-1.02S73.907-506.849,74.468-506.288Zm.911,3.427c.24.124,1.129.572,1.978.994l1.537.765v4.666l-2.236,2.327c-1.227,1.278-2.251,2.32-2.265,2.316s-.732-.656-1.584-1.45l-1.555-1.446,2.437-.011,2.437-.007v-5.208l-1.089-.546c-.98-.492-1.1-.565-1.257-.732a1.123,1.123,0,0,1,.025-1.555,1.07,1.07,0,0,1,.9-.357A1.386,1.386,0,0,1,75.379-502.861Z" transform="translate(-33.725)" fill="#fff"/>
    <path id="Path_3826" data-name="Path 3826" d="M104.828-475.864a2.357,2.357,0,0,0-1.7,1.675,2.787,2.787,0,0,0,0,1.071,2.354,2.354,0,0,0,1.45,1.6,2.267,2.267,0,0,0,2.954-1.588,2.723,2.723,0,0,0,0-1.085,2.371,2.371,0,0,0-1.195-1.49A2.339,2.339,0,0,0,104.828-475.864Zm.994.39a2.189,2.189,0,0,1,.794.448,1.885,1.885,0,0,1-.838,3.205,1.9,1.9,0,0,1-2.306-1.512,1.882,1.882,0,0,1,1.045-2.007A1.854,1.854,0,0,1,105.822-475.474Z" transform="translate(-69.45 -30.916)" fill="#fff"/>
    <path id="Path_3827" data-name="Path 3827" d="M147.184-453.822c0,.16-.011.182-.106.222a.673.673,0,0,0-.317.849.788.788,0,0,0,.4.368c.044.011.142.029.215.04.135.022.284.157.284.259a.34.34,0,0,1-.186.273.276.276,0,0,1-.361-.153c-.04-.1-.062-.106-.229-.106H146.7l.022.135a.724.724,0,0,0,.346.444c.106.055.117.073.117.229v.175h.364v-.164c0-.142.015-.168.106-.215a.677.677,0,0,0,.24-.991.762.762,0,0,0-.51-.27.284.284,0,0,1-.2-.492.264.264,0,0,1,.2-.047.221.221,0,0,1,.215.127c.066.106.091.117.248.12s.171-.011.171-.073a.712.712,0,0,0-.4-.528c-.055-.018-.069-.058-.069-.2V-454h-.364Z" transform="translate(-111.486 -52.033)" fill="#fff"/>
    <path id="Path_3828" data-name="Path 3828" d="M108-320.8v.2h2.914v-.4H108Z" transform="translate(-74.196 -180.189)" fill="#fff"/>
    <path id="Path_3829" data-name="Path 3829" d="M108-280.818v.182h1.493V-281H108Z" transform="translate(-74.196 -218.732)" fill="#fff"/>
    <path id="Path_3830" data-name="Path 3830" d="M173-280.818v.182h4.152V-281H173Z" transform="translate(-136.828 -218.732)" fill="#fff"/>
    <path id="Path_3831" data-name="Path 3831" d="M108-240.8v.2l1.96-.007,1.956-.011v-.364l-1.956-.011L108-241Z" transform="translate(-74.196 -257.275)" fill="#fff"/>
    <path id="Path_3832" data-name="Path 3832" d="M241-240.8v.2h1.675v-.4H241Z" transform="translate(-202.351 -257.275)" fill="#fff"/>
    <path id="Path_3833" data-name="Path 3833" d="M108-199.8v.2l.849-.007.845-.011.011-.193.011-.189H108Z" transform="translate(-74.196 -296.782)" fill="#fff"/>
    <path id="Path_3834" data-name="Path 3834" d="M172.911-199.811l.011.193,2.069.011,2.065.007v-.4H172.9Z" transform="translate(-136.732 -296.782)" fill="#fff"/>
    <path id="Path_3835" data-name="Path 3835" d="M303.7-505.876c-.135.142-.128.178.076.375l.12.113.146-.124.142-.127-.182-.182L303.82-506Z" transform="translate(-262.68 -1.927)" fill="#fff"/>
    <path id="Path_3836" data-name="Path 3836" d="M319.506-489.073c-.084.091-.113.142-.091.182s.237.266.488.532l.459.477.131-.135.135-.138-.5-.521-.5-.524Z" transform="translate(-277.904 -18.115)" fill="#fff"/>
    <path id="Path_3837" data-name="Path 3837" d="M31.025-453.861a3.211,3.211,0,0,0-.025.55v.521h.4l-.011-.539-.011-.535-.164-.011A.422.422,0,0,0,31.025-453.861Z" transform="translate(0 -52.15)" fill="#fff"/>
    <path id="Path_3838" data-name="Path 3838" d="M31-390.376v3.624h.4V-394H31Z" transform="translate(0 -109.848)" fill="#fff"/>
    <path id="Path_3839" data-name="Path 3839" d="M448-309.581v.419h.364V-310H448Z" transform="translate(-401.812 -190.788)" fill="#fff"/>
    <path id="Path_3840" data-name="Path 3840" d="M448-268.889v1.111h.364V-270H448Z" transform="translate(-401.812 -229.332)" fill="#fff"/>
    <path id="Path_3841" data-name="Path 3841" d="M314.776-169.724l-2.276,2.276.776.772.772.776,2.284-2.284,2.287-2.287-.765-.765c-.419-.419-.772-.765-.783-.765S316.029-170.977,314.776-169.724Zm2.815-1.227.5.5-2.014,2.014-2.01,2.01-.51-.51-.51-.51,2-2c1.1-1.1,2.01-2,2.021-2S317.315-171.228,317.592-170.951Z" transform="translate(-271.247 -323.762)" fill="#fff"/>
    <path id="Path_3842" data-name="Path 3842" d="M194.506-116.869l-.106.131.259.251.255.251.12-.127a.6.6,0,0,0,.117-.16,3.046,3.046,0,0,0-.514-.477A.5.5,0,0,0,194.506-116.869Z" transform="translate(-157.449 -376.759)" fill="#fff"/>
    <path id="Path_3843" data-name="Path 3843" d="M217.624-94.869l-.124.131.364.342c.2.189.521.492.717.674l.35.324.12-.149.12-.153-.131-.113c-.069-.062-.382-.353-.692-.652s-.572-.535-.583-.535A.936.936,0,0,0,217.624-94.869Z" transform="translate(-179.707 -397.958)" fill="#fff"/>
    <path id="Path_3844" data-name="Path 3844" d="M452.737-91.763l-.237.237.138.135.135.138.237-.237.237-.24-.138-.135L452.97-92Z" transform="translate(-406.148 -400.848)" fill="#fff"/>
    <path id="Path_3845" data-name="Path 3845" d="M398.772-66.224l-.772.776.138.135.138.135.779-.783.779-.783-.124-.127a.692.692,0,0,0-.146-.127C399.555-67,399.2-66.65,398.772-66.224Z" transform="translate(-353.633 -424.938)" fill="#fff"/>
  </g>
</svg>
