<svg xmlns="http://www.w3.org/2000/svg" width="15.313" height="14.333" viewBox="0 0 15.313 14.333">
  <g id="discounted-gifts" transform="translate(-38.072 459.926)">
    <path id="Path_3165" data-name="Path 3165" d="M38.561-459.873a.868.868,0,0,0-.4.383l-.077.141-.011,4.828c-.011,5.411-.025,5.074.239,5.337s.169.253,2.923.253h2.453v1.054H42.95c-.675,0-.755.007-.854.067a2.756,2.756,0,0,0-.467.661c-.453.759-.467.784-.467.977a.6.6,0,0,0,.207.485l.116.095h8.524l.116-.095a.677.677,0,0,0,.158-.211.755.755,0,0,0-.007-.548,11.719,11.719,0,0,0-.854-1.356c-.074-.046-.221-.06-.847-.074l-.755-.018-.011-.516-.011-.517,2.509-.011,2.509-.01.172-.105a.95.95,0,0,0,.278-.278l.105-.172.011-4.817c.007-3.408,0-4.87-.028-5a.83.83,0,0,0-.436-.545c-.137-.063-.418-.067-7.189-.063C39.513-459.926,38.67-459.918,38.561-459.873Zm14.192.538a.4.4,0,0,1,.091.186c.011.063.014,2.231.011,4.814l-.011,4.7-.081.081-.081.081h-6.95c-6.788,0-6.954,0-7.027-.067l-.074-.067v-9.649l.077-.074c.077-.07.081-.07,7.027-.07C52.574-459.4,52.686-459.4,52.753-459.335ZM47.275-448.4v.527H44.218v-1.054h3.057Zm2.189,1.627a6.155,6.155,0,0,1,.341.615c0,.032-.9.042-4.058.042-3.215,0-4.058-.011-4.058-.042a5.788,5.788,0,0,1,.344-.615l.341-.569,3.373,0H49.12Z" transform="translate(0 0)" fill="#fff"/>
    <path id="Path_3166" data-name="Path 3166" d="M79.2-425.868c-.211.063-.2-.2-.2,4.262v4.1l.088.084.084.088H91.266l.084-.088.088-.084v-4.1c0-4.5.014-4.2-.214-4.262C91.073-425.911,79.341-425.911,79.2-425.868ZM90.911-421.6v3.742H79.527v-7.484H90.911Z" transform="translate(-39.49 -32.831)" fill="#fff"/>
    <path id="Path_3167" data-name="Path 3167" d="M157.108-389.833a.6.6,0,0,0-.355.32.707.707,0,0,0,.063.791l.084.116h-.678c-.734,0-.864.028-1.037.214-.155.172-.186.313-.186.868,0,.474.007.534.07.615a.268.268,0,0,0,.221.1l.148.011.018,1.483c.018,1.363.021,1.49.081,1.546s.228.063,3.011.063,2.952,0,3.011-.063.063-.183.081-1.546l.018-1.483.148-.011a.268.268,0,0,0,.221-.1c.063-.081.07-.141.07-.615,0-.555-.032-.7-.186-.868-.172-.186-.3-.214-1.015-.214h-.657l.074-.126a.775.775,0,0,0,0-.671.748.748,0,0,0-.994-.309,4.127,4.127,0,0,0-.446.369l-.341.309-.387-.4c-.306-.316-.415-.408-.527-.436A.654.654,0,0,0,157.108-389.833Zm.668.78c.144.155.292.316.327.362l.063.084h-.517l-.2-.2c-.242-.246-.288-.334-.239-.429a.205.205,0,0,1,.228-.116A1.72,1.72,0,0,1,157.776-389.053Zm2.01-.162c.112.1.077.221-.119.422l-.183.186h-.622l.221-.207C159.589-389.285,159.663-389.327,159.786-389.214Zm1.729,1.191c.042.042.056.13.056.369v.313h-6.044v-.313c0-.239.014-.327.056-.369a17.611,17.611,0,0,1,2.966-.056A17.611,17.611,0,0,1,161.514-388.023Zm-.4,2.491v1.283h-5.13v-2.565h5.13Z" transform="translate(-112.82 -67.563)" fill="#fff"/>
  </g>
</svg>
