<svg xmlns="http://www.w3.org/2000/svg" width="18.877" height="18.088" viewBox="0 0 18.877 18.088">
  <g id="Icon_feather-shopping-cart" data-name="Icon feather-shopping-cart" transform="translate(-0.75 -0.75)">
    <path id="Path_3175" data-name="Path 3175" d="M13.58,30.79a.79.79,0,1,1-.79-.79A.79.79,0,0,1,13.58,30.79Z" transform="translate(-4.971 -13.492)" fill="none" stroke="#000" stroke-linecap="round" stroke-linejoin="round" stroke-width="1.5"/>
    <path id="Path_3176" data-name="Path 3176" d="M30.08,30.79a.79.79,0,1,1-.79-.79A.79.79,0,0,1,30.08,30.79Z" transform="translate(-12.782 -13.492)" fill="none" stroke="#000" stroke-linecap="round" stroke-linejoin="round" stroke-width="1.5"/>
    <path id="Path_3177" data-name="Path 3177" d="M1.5,1.5H4.66L6.776,12.077a1.58,1.58,0,0,0,1.58,1.272h7.678a1.58,1.58,0,0,0,1.58-1.272l1.264-6.627H5.449" fill="none" stroke="#000" stroke-linecap="round" stroke-linejoin="round" stroke-width="1.5"/>
  </g>
</svg>
