<svg xmlns="http://www.w3.org/2000/svg" width="18.247" height="18.248" viewBox="0 0 18.247 18.248">
  <g id="setting_1_" data-name="setting (1)" transform="translate(-7.251 -7.359)">
    <path id="Path_3266" data-name="Path 3266" d="M-46.964-.39a.392.392,0,0,1,.206.311.436.436,0,0,1-.206.311,1.628,1.628,0,0,1-.256.1l-.073.024-.228.073-.154.05C-48.048.6-48.048.6-48.136.6V2.5l.4.11c.128.04.255.081.382.124l.1.031a.583.583,0,0,1,.4.285c.046.139.081.279.117.421A7.868,7.868,0,0,0-45.906,5.4l.04.072.044.069a.516.516,0,0,1-.057.411l-.061.119L-46,6.2l-.1.2c-.034.066-.067.132-.1.2l-.061.119c-.045.1-.045.1-.007.176a1.105,1.105,0,0,0,.158.2l.069.071.074.076.077.078.161.163c.082.083.164.168.245.252l.157.159.074.077a.405.405,0,0,0,.316.174,2.6,2.6,0,0,0,.31-.14l.115-.06.235-.126c.376-.2.376-.2.581-.154a2.441,2.441,0,0,1,.307.165l.177.1.089.051a7.105,7.105,0,0,0,1.9.711.475.475,0,0,1,.234.18,1.929,1.929,0,0,1,.094.252l.024.073.049.152q.037.116.076.232c.123.377.123.377.123.463l1.9-.037c.128-.381.128-.381.255-.761l.049-.143.025-.075c.079-.229.079-.229.184-.3a1.2,1.2,0,0,1,.185-.057l.113-.029.121-.031A6.262,6.262,0,0,0-35.867,7.8l.074-.051.066-.047a.608.608,0,0,1,.335-.034,1.563,1.563,0,0,1,.244.115l.067.035c.094.049.186.1.279.149l.205.109.123.066c.1.05.1.05.179.012a1.116,1.116,0,0,0,.2-.159l.071-.069.076-.075.078-.077.163-.162c.083-.083.168-.165.252-.247l.159-.157.077-.074a.4.4,0,0,0,.173-.3l-.039-.085-.036-.085-.044-.086-.048-.1-.05-.1-.05-.1-.049-.1-.047-.093c-.035-.067-.073-.132-.112-.2a.568.568,0,0,1,0-.4,2.506,2.506,0,0,1,.149-.254A7.422,7.422,0,0,0-32.563,3.3l.037-.128.028-.106a.361.361,0,0,1,.183-.194c.083-.03.166-.058.251-.083l.147-.046.231-.07.224-.069.135-.041a.41.41,0,0,0,.221-.277.326.326,0,0,1,.256-.121.486.486,0,0,1,.256.085.712.712,0,0,1,.012.515.689.689,0,0,1-.341.327c-.075.019-.151.037-.227.053a1.3,1.3,0,0,0-.831.374,3.268,3.268,0,0,0-.2.738,2.138,2.138,0,0,1-.169.467l-.036.078c-.064.137-.134.27-.207.4l-.047.085q-.045.08-.092.159a.433.433,0,0,0-.081.314c.079.153.167.3.26.442a1.194,1.194,0,0,1,.275.806,1.839,1.839,0,0,1-.475.639l-.1.1-.2.2-.308.308-.2.2-.093.093-.087.086-.076.076a.729.729,0,0,1-.524.151,1.672,1.672,0,0,1-.532-.214l-.219-.112-.1-.051a.522.522,0,0,0-.4-.05l-.079.046-.091.051-.1.056a4.588,4.588,0,0,1-1.884.7l-.029.141a5.12,5.12,0,0,1-.165.561l-.031.1a.876.876,0,0,1-.388.543.792.792,0,0,1-.347.065l-.135,0h-.607c-.133,0-.266,0-.4,0h-.309l-.218,0a.882.882,0,0,1-.667-.207,2.48,2.48,0,0,1-.439-1.209l-.109-.022a6.435,6.435,0,0,1-1.8-.689l-.091-.05-.08-.045a.423.423,0,0,0-.359-.041l-.1.051-.112.055-.116.059-.228.113-.1.051a.87.87,0,0,1-.368.092l-.09.005a1.491,1.491,0,0,1-.719-.51l-.089-.089-.185-.186-.283-.283-.18-.181-.085-.085-.079-.08-.07-.07a.758.758,0,0,1-.209-.585,2.561,2.561,0,0,1,.232-.536l.046-.093q.046-.093.094-.185a.522.522,0,0,0,.085-.362c-.079-.152-.079-.152-.162-.3a6.044,6.044,0,0,1-.4-.868l-.044-.114a2.009,2.009,0,0,1-.136-.5.621.621,0,0,0-.159-.412,4.248,4.248,0,0,0-.947-.321.77.77,0,0,1-.408-.411,1.22,1.22,0,0,1-.016-.228l0-.137q0-.074,0-.147t0-.152q0-.159,0-.319c0-.136,0-.271,0-.407,0-.1,0-.21,0-.315q0-.075,0-.15a.9.9,0,0,1,.185-.692,1.119,1.119,0,0,1,.391-.2l.111-.042c.123-.046.246-.089.369-.132l.127-.046C-47.17-.418-47.17-.418-46.964-.39Z" transform="translate(56 14.914)" fill="#fff"/>
    <path id="Path_3267" data-name="Path 3267" d="M-169.147-.213l.137,0h.62c.136,0,.272,0,.408,0h.465a.835.835,0,0,1,.705.206,1.261,1.261,0,0,1,.191.5,1.066,1.066,0,0,0,.344.733,3.73,3.73,0,0,0,.739.2,2.3,2.3,0,0,1,.467.171l.078.036c.137.064.27.134.4.207l.085.047q.08.045.159.092a.356.356,0,0,0,.313.069c.106-.043.207-.089.309-.141l.109-.054.223-.114a.919.919,0,0,1,.607-.14,1.816,1.816,0,0,1,.631.468l.094.094.2.2.3.3.191.192.091.091.084.085.074.075a.688.688,0,0,1,.151.533,1.866,1.866,0,0,1-.241.613q-.064.124-.126.248l-.057.109a.384.384,0,0,0,.041.325c.035.066.07.131.107.2a6.041,6.041,0,0,1,.4.868l.044.114a2.009,2.009,0,0,1,.136.5.623.623,0,0,0,.159.412,4.027,4.027,0,0,0,.815.289.734.734,0,0,1,.526.362,1.474,1.474,0,0,1,.067.617c0,.045,0,.09,0,.136s0,.086,0,.131,0,.079,0,.119a.343.343,0,0,1-.165.25.507.507,0,0,1-.382-.048.478.478,0,0,1-.105-.351l0-.1,0-.108,0-.11q-.006-.134-.011-.268l-.106-.035-.389-.131-.168-.056-.242-.082-.076-.025c-.227-.078-.227-.078-.3-.184a1.125,1.125,0,0,1-.057-.177l-.029-.108-.031-.116a6.419,6.419,0,0,0-.813-1.907l-.051-.074-.047-.066a.571.571,0,0,1,.013-.462l.065-.131.034-.07c.036-.073.073-.146.11-.219l.074-.15q.09-.183.182-.365c-.151-.18-.307-.349-.473-.514l-.07-.07-.22-.219-.15-.15-.367-.365a6.808,6.808,0,0,0-.834.39.743.743,0,0,1-.521.123,3.12,3.12,0,0,1-.346-.2,6.632,6.632,0,0,0-1.82-.754c-.1-.026-.2-.055-.3-.088l-.071-.024a.662.662,0,0,1-.265-.437l-.044-.134-.055-.17-.176-.54h-1.868c-.128.381-.128.381-.255.761l-.049.143-.025.075c-.078.228-.078.228-.184.3a1.129,1.129,0,0,1-.177.057l-.108.029-.116.031a6.419,6.419,0,0,0-1.907.813l-.074.051-.066.047a.571.571,0,0,1-.462-.013l-.131-.065-.07-.034-.219-.11-.15-.074-.365-.182c-.18.151-.349.307-.514.474l-.07.07-.219.22-.15.15-.365.367.03.064.214.451q.073.155.148.308l.05.1.042.085a.562.562,0,0,1-.013.441c-.058.112-.12.222-.183.332l-.126.225-.063.112c-.084.154-.16.312-.236.47-.046.084-.046.084-.12.12-.258.021-.258.021-.385-.055a.524.524,0,0,1-.055-.385,3.188,3.188,0,0,1,.174-.389l.049-.1a2.5,2.5,0,0,1,.231-.4c.068-.091.068-.091.05-.183a1.523,1.523,0,0,0-.118-.288l-.054-.107-.057-.11-.111-.218-.05-.1a.812.812,0,0,1-.077-.486,1.763,1.763,0,0,1,.459-.622l.092-.092.192-.19.292-.291.186-.185.088-.088.083-.082.072-.071a.76.76,0,0,1,.587-.211,2.562,2.562,0,0,1,.536.232l.093.046.185.094a.522.522,0,0,0,.362.085c.152-.079.152-.079.3-.162a6.041,6.041,0,0,1,.868-.4l.114-.044a2.009,2.009,0,0,1,.5-.136.621.621,0,0,0,.412-.159,4.249,4.249,0,0,0,.321-.947A.651.651,0,0,1-169.147-.213Z" transform="translate(184.6 7.58)" fill="#fff"/>
    <path id="Path_3268" data-name="Path 3268" d="M-39.006-.023h.1a.278.278,0,0,1,.152.055.56.56,0,0,1,.07.314l.007.131,0,.1L-38.6.6a1.582,1.582,0,0,1,.961.8,1.523,1.523,0,0,1,.1.823.239.239,0,0,1-.11.11.7.7,0,0,1-.183.014h-.1a.259.259,0,0,1-.151-.058.5.5,0,0,1-.075-.271.964.964,0,0,0-.332-.656.958.958,0,0,0-.188-.093l-.073-.037a1.122,1.122,0,0,0-.772.12.9.9,0,0,0-.311.554.944.944,0,0,0,.241.754,1.28,1.28,0,0,0,.786.248,1.49,1.49,0,0,1,.944.471,1.807,1.807,0,0,1,.321,1.331,1.536,1.536,0,0,1-.641.934,2.094,2.094,0,0,1-.494.2l0,.1-.007.131-.006.13a.321.321,0,0,1-.064.184.389.389,0,0,1-.248.054h-.1a.278.278,0,0,1-.152-.055.56.56,0,0,1-.07-.314l-.007-.131,0-.1-.075-.022a1.6,1.6,0,0,1-.95-.784,1.429,1.429,0,0,1-.11-.842.235.235,0,0,1,.11-.11.7.7,0,0,1,.183-.014h.1a.259.259,0,0,1,.151.058.5.5,0,0,1,.075.271,1.04,1.04,0,0,0,.333.665,1.043,1.043,0,0,0,.773.12.911.911,0,0,0,.481-.366,1.158,1.158,0,0,0,.069-.7.868.868,0,0,0-.341-.458,2.122,2.122,0,0,0-.576-.141,1.587,1.587,0,0,1-1.033-.487,1.807,1.807,0,0,1-.321-1.331A1.536,1.536,0,0,1-39.83.779a2.093,2.093,0,0,1,.494-.2l0-.1.007-.131.006-.13a.321.321,0,0,1,.064-.184A.389.389,0,0,1-39.006-.023Z" transform="translate(55.366 13.251)" fill="#fff"/>
    <path id="Path_3269" data-name="Path 3269" d="M-7.338-.033h.3A4.352,4.352,0,0,1-4.075,1.334a4.445,4.445,0,0,1,.83,1.285l.054.118a4.334,4.334,0,0,1,.129,2.885l-.023.074A4.119,4.119,0,0,1-3.9,7.2l-.079.092A4.519,4.519,0,0,1-5.7,8.515l-.1.041a.755.755,0,0,1-.525.032.381.381,0,0,1-.146-.183.547.547,0,0,1,.037-.256.994.994,0,0,1,.4-.229A3.572,3.572,0,0,0-4.819,7.2l.054-.049a3.632,3.632,0,0,0,1.2-2.365A3.92,3.92,0,0,0-4.416,1.96l-.077-.1A3.7,3.7,0,0,0-6.973.625L-7.068.616-7.256.6-7.344.593-7.423.586A.291.291,0,0,1-7.6.459.7.7,0,0,1-7.616.275v-.1C-7.59.015-7.5-.031-7.338-.033Z" transform="translate(23.67 12.087)" fill="#fff"/>
    <path id="Path_3270" data-name="Path 3270" d="M-88.758-.553a.405.405,0,0,1,.222.252.465.465,0,0,1-.149.334,1.25,1.25,0,0,1-.249.105,3.634,3.634,0,0,0-1.252.737l-.054.049a3.616,3.616,0,0,0-1.2,2.367,4.259,4.259,0,0,0,.409,2.162l.058.116a3.764,3.764,0,0,0,2.1,1.715,5.207,5.207,0,0,0,1.131.191c.209.017.209.017.286.079a.312.312,0,0,1,.061.242v.1a.254.254,0,0,1-.124.2,2.633,2.633,0,0,1-.327.016h-.1a4.38,4.38,0,0,1-3.051-1.428,4.454,4.454,0,0,1-.772-1.224l-.054-.118a4.332,4.332,0,0,1-.129-2.885l.024-.075A4.563,4.563,0,0,1-89.628-.292C-88.99-.6-88.99-.6-88.758-.553Z" transform="translate(104.056 12.769)" fill="#fff"/>
    <path id="Path_3271" data-name="Path 3271" d="M-134.217-.965l.08.008a.915.915,0,0,1,.547.212.441.441,0,0,1,.039.3.6.6,0,0,1-.22.183c-.071,0-.142-.008-.213-.014l-.3-.023-.087-.007A5.617,5.617,0,0,0-138.5.983l-.1.091c-.23.2-.23.2-.4.23a.46.46,0,0,1-.3-.174A.37.37,0,0,1-139.259.8a4.275,4.275,0,0,1,1.105-.883l.167-.1A6.026,6.026,0,0,1-134.217-.965Z" transform="translate(151.303 11.27)" fill="#fff"/>
    <path id="Path_3272" data-name="Path 3272" d="M-103.563-.337a.369.369,0,0,1,.181.272.379.379,0,0,1-.108.314,2.292,2.292,0,0,1-.3.179l-.089.048a6.7,6.7,0,0,1-2.841.716l-.12.006c-.358.014-.358.014-.537-.07A.359.359,0,0,1-107.5.874a.374.374,0,0,1,.2-.3,2.525,2.525,0,0,1,.437-.039,6.017,6.017,0,0,0,2.879-.783A.5.5,0,0,1-103.563-.337Z" transform="translate(123.183 21.452)" fill="#fff"/>
    <path id="Path_3273" data-name="Path 3273" d="M-10.027,0c.241.072.367.362.48.568a3.024,3.024,0,0,1,.339,1.366l0,.089v.164a.255.255,0,0,1-.123.179.7.7,0,0,1-.183.014h-.1a.251.251,0,0,1-.2-.124.735.735,0,0,1-.027-.166l-.01-.1-.011-.107A2.8,2.8,0,0,0-10.34.55.463.463,0,0,1-10.39.17C-10.3.018-10.2.006-10.027,0Z" transform="translate(28.801 14.391)" fill="#fff"/>
    <path id="Path_3274" data-name="Path 3274" d="M-8.05-.023h.1a.251.251,0,0,1,.2.124A.735.735,0,0,1-7.73.267l.01.1.011.107a2.8,2.8,0,0,0,.488,1.333.463.463,0,0,1,.05.381.286.286,0,0,1-.146.146c-.2.028-.2.028-.293,0A2.6,2.6,0,0,1-8.343.76C-8.35.648-8.352.536-8.353.424l0-.089V.171C-8.324,0-8.206-.024-8.05-.023Z" transform="translate(21.481 16.18)" fill="#fff"/>
    <path id="Path_3275" data-name="Path 3275" d="M-23.873-.8a.348.348,0,0,1,.146.146.474.474,0,0,1-.047.371c-.066.081-.136.156-.209.231l-.072.08a.626.626,0,0,1-.379.237.317.317,0,0,1-.245-.074.475.475,0,0,1-.1-.325.826.826,0,0,1,.27-.329A2.014,2.014,0,0,0-24.3-.688C-24.16-.847-24.071-.85-23.873-.8Z" transform="translate(44.885 20.741)" fill="#fff"/>
  </g>
</svg>
