<svg xmlns="http://www.w3.org/2000/svg" width="19.767" height="17.47" viewBox="0 0 19.767 17.47">
  <g id="data-classification" transform="translate(-31.479 -57.48)">
    <path id="Path_2654" data-name="Path 2654" d="M-335.687-.219h1.273l.686,0h1.241a1.205,1.205,0,0,1,.791.285l.07.087.073.086a1.026,1.026,0,0,1,.164.633c0,.032,0,.063,0,.1,0,.1,0,.208,0,.311v.108q0,.283,0,.566c0,.194,0,.388.005.582,0,.15,0,.3,0,.45q0,.107,0,.214a1.446,1.446,0,0,1-.295,1.091,1.262,1.262,0,0,1-.943.321h-1.244l-.67,0h-.764c-.822.006-.822.006-1.131-.2l-.121-.074a1.2,1.2,0,0,1-.338-.986c0-.058,0-.115.006-.174s0-.119,0-.179q0-.217.011-.434l-1.027.012-.349,0-.5.006h-.158l-.147,0h-.129a.224.224,0,0,0-.186.074.78.78,0,0,0-.1.487c0,.048,0,.1,0,.144s0,.1,0,.158,0,.11,0,.167q0,.226,0,.452t0,.472q0,.447-.006.894,0,.6-.008,1.208-.007.951-.013,1.9h2.64c-.007-.534-.007-.534-.016-1.069q0-.1,0-.2l0-.1a1.044,1.044,0,0,1,.284-.747l.088-.072.088-.074a1.365,1.365,0,0,1,.876-.2h2.908a1.253,1.253,0,0,1,.952.348,1.006,1.006,0,0,1,.293.774c0,.031,0,.062,0,.095,0,.1,0,.206,0,.308q0,.108,0,.216,0,.226,0,.451c0,.192,0,.384,0,.577q0,.223,0,.445,0,.106,0,.212c.007.757.007.757-.285,1.084l-.088.072-.088.074a1.365,1.365,0,0,1-.876.2h-2.908a1.253,1.253,0,0,1-.952-.348c-.369-.41-.28-.664-.28-1.292h-2.64c.006.971.006.971.012,1.941q0,.521.007,1.041,0,.412.005.824,0,.218,0,.436,0,.244,0,.487c0,.048,0,.1,0,.146s0,.089,0,.134v.116a.622.622,0,0,0,.188.417,1.11,1.11,0,0,0,.232.014l.147,0,.159,0,.162,0,.515.007.349.005.856.011c0-.05,0-.1,0-.151,0-.186-.008-.372-.01-.558q0-.12-.005-.241c-.024-.873-.024-.873.284-1.206a1.265,1.265,0,0,1,.943-.321h1.244l.67,0h.764c.822-.006.822-.006,1.131.2l.121.074a1.538,1.538,0,0,1,.347,1.246q0,.109,0,.218,0,.227,0,.455c0,.193,0,.387,0,.58q0,.225,0,.449,0,.107,0,.214a1.455,1.455,0,0,1-.286,1.087l-.086.072-.085.074a1.232,1.232,0,0,1-.74.164h-1.273l-.686,0h-1.241a1.205,1.205,0,0,1-.791-.285l-.07-.087-.073-.086a1.139,1.139,0,0,1-.156-.744c0-.039,0-.078,0-.118,0-.1,0-.191,0-.286h-.094q-.441.007-.882.01l-.453.005c-.174,0-.348,0-.522,0l-.162,0a1.288,1.288,0,0,1-.964-.325.924.924,0,0,1-.277-.687V14.5c0-.077,0-.077,0-.156v-.165q0-.224,0-.447t0-.468q0-.443,0-.886,0-.6,0-1.2,0-.943,0-1.886h-2.948l.006.88q0,.277,0,.553,0,.439,0,.877,0,.354,0,.708,0,.135,0,.269c.01,1.024.01,1.024-.329,1.415a1.761,1.761,0,0,1-1.264.336h-5.042a1.5,1.5,0,0,1-1.04-.326,1.306,1.306,0,0,1-.315-.931c0-.042,0-.083,0-.126q0-.211,0-.421v-.3q0-.41,0-.82,0-.256,0-.512,0-.709,0-1.419,0-.184,0-.368c0-.03,0-.061,0-.092q0-.741,0-1.482,0-.761,0-1.522,0-.427,0-.854,0-.4,0-.8,0-.147,0-.295c0-.134,0-.269,0-.4V3.539a1.117,1.117,0,0,1,.345-.833l.071-.072a1.174,1.174,0,0,1,.79-.218h1.3q.349,0,.7,0h.8a2.477,2.477,0,0,1,2.01.837l.2.186.1.095q.234.222.47.443l.089.084c.159.15.322.294.489.436a1.889,1.889,0,0,1,.647,1.31c0,.176,0,.351,0,.527,0,.057,0,.113,0,.172,0,.209,0,.419,0,.628,0,.469-.005.938-.008,1.422h2.948c0-.428,0-.856-.006-1.3q0-.407,0-.813,0-.645,0-1.291,0-.47,0-.94,0-.249,0-.5t0-.469c0-.084,0-.169,0-.253a1.178,1.178,0,0,1,.272-.863l.072-.058.071-.06a1.578,1.578,0,0,1,.988-.2h.17l.446,0,.456,0,.892.006,0-.112q0-.207-.007-.414c0-.089,0-.177-.006-.266A1.207,1.207,0,0,1-336.6.091l.086-.072.085-.074A1.232,1.232,0,0,1-335.687-.219Zm-.356.832a.607.607,0,0,0-.091.393c0,.028,0,.057,0,.086,0,.094,0,.188,0,.282q0,.1,0,.2,0,.206,0,.411c0,.176,0,.351,0,.526q0,.2,0,.405,0,.1,0,.194c0,.091,0,.181,0,.271,0,.051,0,.1,0,.156a.273.273,0,0,0,.118.236.861.861,0,0,0,.474.094h1.164c.209,0,.419,0,.628,0h1.135a.641.641,0,0,0,.377-.1.646.646,0,0,0,.142-.527c0-.051,0-.1,0-.154s0-.11,0-.166,0-.113,0-.172q0-.18,0-.36,0-.229,0-.459c0-.147,0-.293,0-.44,0-.082,0-.082,0-.166a1.31,1.31,0,0,0-.148-.734.914.914,0,0,0-.426-.052h-.106l-.347,0h-.12l-.627,0-.648,0-.5,0-.239,0h-.334l-.1,0A.571.571,0,0,0-336.042.613ZM-350.366,3.4a1.537,1.537,0,0,0-.05.512c0,.039,0,.079,0,.119q0,.2,0,.4,0,.142,0,.284,0,.386,0,.772,0,.322,0,.644,0,.759,0,1.519,0,.784,0,1.568,0,.673,0,1.345,0,.4,0,.8,0,.378,0,.756,0,.139,0,.278,0,.189,0,.379c0,.037,0,.074,0,.111a.852.852,0,0,0,.18.6,1.352,1.352,0,0,0,.7.1h1.959q.477,0,.953,0h2.017a.841.841,0,0,0,.669-.2.723.723,0,0,0,.049-.364c0-.029,0-.057,0-.087q0-.145,0-.289,0-.1,0-.207,0-.281,0-.563t0-.588q0-.557,0-1.113,0-.634,0-1.267,0-1.3,0-2.607h-.083l-.857-.013-.319,0-.46-.007-.143,0a1.388,1.388,0,0,1-1.06-.343.917.917,0,0,1-.26-.661c0-.047,0-.093,0-.141s0-.1,0-.151,0-.1,0-.156q0-.246-.007-.492,0-.167-.005-.334-.006-.409-.011-.818-.588-.008-1.176-.011l-.546-.005-.527,0-.2,0c-.094,0-.188,0-.282,0H-350A.522.522,0,0,0-350.366,3.4Zm4-.132q-.007.437-.01.874,0,.149,0,.3c0,.142,0,.285,0,.427,0,.044,0,.089,0,.134a.632.632,0,0,0,.1.45.564.564,0,0,0,.384.11h1.162l.746,0a.815.815,0,0,0-.209-.4l-.072-.071-.076-.072-.078-.076q-.243-.235-.5-.453c-.108-.094-.207-.2-.307-.3s-.225-.205-.34-.3c-.095-.085-.183-.174-.271-.265a1.948,1.948,0,0,0-.435-.344Zm10.3,3.7a.729.729,0,0,0-.051.362c0,.058,0,.115,0,.174s0,.126,0,.189v.194q0,.2,0,.406,0,.26,0,.521,0,.2,0,.4,0,.1,0,.192c0,.089,0,.179,0,.269,0,.051,0,.1,0,.154a.425.425,0,0,0,.148.307,1.375,1.375,0,0,0,.458.051h1.138l.614,0h1.11a.637.637,0,0,0,.464-.149.9.9,0,0,0,.1-.483c0-.052,0-.1,0-.158s0-.112,0-.169V9.061q0-.183,0-.366,0-.234,0-.467c0-.149,0-.3,0-.447,0-.056,0-.111,0-.169,0-.078,0-.078,0-.158,0-.046,0-.091,0-.138a.628.628,0,0,0-.224-.454,1.531,1.531,0,0,0-.432-.04H-335.6A.674.674,0,0,0-336.066,6.966Zm-.044,6.38a.708.708,0,0,0-.028.288c0,.028,0,.057,0,.086,0,.094,0,.188,0,.282q0,.1,0,.2,0,.206,0,.411c0,.175,0,.351,0,.526q0,.2,0,.405,0,.1,0,.194c0,.09,0,.181,0,.271,0,.051,0,.1,0,.156a.322.322,0,0,0,.09.236.722.722,0,0,0,.457.094h1.2c.215,0,.431,0,.646,0h1.168a.52.52,0,0,0,.356-.1.8.8,0,0,0,.119-.528c0-.051,0-.1,0-.155s0-.11,0-.167,0-.114,0-.172q0-.18,0-.361,0-.231,0-.461t0-.441c0-.083,0-.083,0-.167v-.156c0-.045,0-.09,0-.137a.633.633,0,0,0-.171-.422.884.884,0,0,0-.443-.071h-1.165q-.315,0-.629,0h-1.137A.53.53,0,0,0-336.11,13.346Z" transform="translate(382.616 57.709)" fill="#fff"/>
    <path id="Path_2655" data-name="Path 2655" d="M-14.917-.028h.138c.151,0,.3,0,.452,0h.314l.659,0q.423,0,.845,0h.961l.435,0h.13c.29,0,.29,0,.432.106a.579.579,0,0,1,.107.359.483.483,0,0,1-.308.308,1.1,1.1,0,0,1-.194.011h-4.29A.577.577,0,0,1-15.5.66a.516.516,0,0,1-.088-.44C-15.406-.045-15.214-.032-14.917-.028Z" transform="translate(48.502 69.252)" fill="#fff"/>
    <path id="Path_2656" data-name="Path 2656" d="M-15.147-.027h.137c.149,0,.3,0,.448,0h.311l.652,0q.418,0,.836,0h.951l.431,0h.129A.762.762,0,0,1-10.8.082a.436.436,0,0,1,.129.359.6.6,0,0,1-.264.308,1.046,1.046,0,0,1-.191.012h-.385l-.449,0h-.965q-.419,0-.838,0l-.644,0-.309,0c-.144,0-.288,0-.432,0l-.129,0a.621.621,0,0,1-.458-.13.451.451,0,0,1-.111-.272C-15.773-.024-15.487-.031-15.147-.027Z" transform="translate(48.727 67.402)" fill="#fff"/>
    <path id="Path_2657" data-name="Path 2657" d="M-11.029-.233h1.748l.814,0H-7A.733.733,0,0,1-6.463-.1a.373.373,0,0,1,.083.308A.446.446,0,0,1-6.6.521a2.457,2.457,0,0,1-.453.023H-8.629q-.427,0-.854,0h-.971c-.147,0-.293,0-.44,0l-.132,0c-.293,0-.293,0-.436-.131a.6.6,0,0,1-.061-.426A.531.531,0,0,1-11.029-.233Z" transform="translate(44.434 65.738)" fill="#fff"/>
    <path id="Path_2658" data-name="Path 2658" d="M-10.14-.3l.158,0h.717l.473,0,.364,0,.259,0h.3a.407.407,0,0,1,.3.2.432.432,0,0,1-.011.385.588.588,0,0,1-.209.187,1.685,1.685,0,0,1-.246.013l-.153,0h-.69l-.454,0h-.434l-.164,0h-.288a.568.568,0,0,1-.342-.2.515.515,0,0,1,.014-.435C-10.428-.308-10.332-.3-10.14-.3Z" transform="translate(57.556 73.061)" fill="#fff"/>
    <path id="Path_2659" data-name="Path 2659" d="M-10.983-.2l.153,0h.69l.454,0h.434l.164,0H-8.8a.566.566,0,0,1,.342.2.635.635,0,0,1,.011.41C-8.5.468-8.5.468-8.633.556a1.8,1.8,0,0,1-.255.013l-.158,0h-.715l-.472,0h-.45l-.171,0h-.3a.409.409,0,0,1-.3-.2A.432.432,0,0,1-11.438,0,.466.466,0,0,1-10.983-.2Z" transform="translate(58.44 66.627)" fill="#fff"/>
    <path id="Path_2660" data-name="Path 2660" d="M-10.983-.2l.153,0h.69l.454,0h.434l.164,0H-8.8a.568.568,0,0,1,.342.2.515.515,0,0,1-.014.435.33.33,0,0,1-.162.138c-.083,0-.166.007-.25.008l-.158,0h-.717l-.473,0-.364,0-.259,0h-.3a.407.407,0,0,1-.3-.2A.432.432,0,0,1-11.438,0,.466.466,0,0,1-10.983-.2Z" transform="translate(58.44 59.103)" fill="#fff"/>
    <path id="Path_2661" data-name="Path 2661" d="M-10.233-.2l.158,0h.715l.472,0h.45l.171,0h.3a.409.409,0,0,1,.3.2.432.432,0,0,1-.011.385.588.588,0,0,1-.209.187,1.684,1.684,0,0,1-.246.013l-.153,0h-.69l-.454,0h-.434l-.164,0h-.288a.566.566,0,0,1-.342-.2.635.635,0,0,1-.011-.41C-10.549-.2-10.429-.2-10.233-.2Z" transform="translate(57.654 65.439)" fill="#fff"/>
    <path id="Path_2662" data-name="Path 2662" d="M-10.363-.027H-8.1a.431.431,0,0,1,.3.149.572.572,0,0,1-.005.432.551.551,0,0,1-.417.2h-.9l-.5,0H-10.1a1.031,1.031,0,0,1-.651-.149.384.384,0,0,1-.082-.333c.038-.151.038-.151.113-.226A.622.622,0,0,1-10.363-.027Z" transform="translate(57.789 71.594)" fill="#fff"/>
    <path id="Path_2663" data-name="Path 2663" d="M-12.756-.018h2.021a.549.549,0,0,1,.418.2.572.572,0,0,1,.006.432.511.511,0,0,1-.436.15l-.158,0h-.714c-.157,0-.314,0-.47,0h-.918a.411.411,0,0,1-.3-.2A.46.46,0,0,1-13.3.18.616.616,0,0,1-12.756-.018Z" transform="translate(60.294 60.106)" fill="#fff"/>
  </g>
</svg>
