<svg xmlns="http://www.w3.org/2000/svg" width="16.346" height="16.347" viewBox="0 0 16.346 16.347">
  <path id="Icon_material-update" data-name="Icon material-update" d="M20.847,10.966H14.69l2.488-2.561a6.392,6.392,0,0,0-8.973-.091,6.244,6.244,0,0,0,0,8.891,6.375,6.375,0,0,0,8.973,0,5.915,5.915,0,0,0,1.853-4.441h1.816a8.483,8.483,0,0,1-2.4,5.712,8.222,8.222,0,0,1-11.552,0A8.028,8.028,0,0,1,6.88,7.052a8.162,8.162,0,0,1,11.488,0L20.847,4.5ZM13.128,9.041V12.9l3.179,1.889-.654,1.1-3.887-2.307V9.041Z" transform="translate(-4.502 -4.5)"/>
</svg>
