<svg xmlns="http://www.w3.org/2000/svg" width="19.678" height="18.696" viewBox="0 0 19.678 18.696">
  <g id="business-and-finance" transform="translate(0.526 -12.748)">
    <path id="Path_2726" data-name="Path 2726" d="M-213.95-.215h1.225l.662,0h1.2a.6.6,0,0,1,.449.13.792.792,0,0,1,.128.6c0,.041,0,.082,0,.124,0,.135,0,.269,0,.4q0,.14,0,.28,0,.369,0,.738t0,.753q0,.739-.006,1.477h.118l1.1-.009.566,0,.546,0,.208,0h.292l.087,0a.516.516,0,0,1,.361.114.464.464,0,0,1,.142.391v.108c0,.039,0,.078,0,.118s0,.082,0,.125q0,.2,0,.409,0,.142,0,.283,0,.373.006.746t.006.761q.006.747.012,1.495l.219-.307.062-.086a7.251,7.251,0,0,0,.525-.873l.036-.07a7.374,7.374,0,0,0,.6-4.586.633.633,0,0,1,.091-.486.513.513,0,0,1,.3-.132.52.52,0,0,1,.348.17,7.258,7.258,0,0,1-.422,5.064l-.037.088a7.752,7.752,0,0,1-1.212,1.9l-.054.065a1.936,1.936,0,0,1-.332.309.576.576,0,0,0-.155.474l0,.112,0,.114q0,.139-.007.278l.074-.017.766-.177.286-.066.411-.1.129-.03.121-.028L-205,10.4a1.922,1.922,0,0,1,1.464.219,1.71,1.71,0,0,1,.711,1.063,1.919,1.919,0,0,1-.422,1.535,2.7,2.7,0,0,1-1.45.654l-.212.053-.557.138-.549.137-.869.216-.865.217-.21.053-.3.076a5.26,5.26,0,0,1-3.077-.014l-.106-.036c-.33-.112-.654-.237-.978-.367l-.422-.169-.226-.09q-.41-.164-.821-.325l-.12-.047-.612-.239c-.38-.147-.758-.3-1.132-.458a5.936,5.936,0,0,0-3.034-.643l0,.1c0,.045,0,.09,0,.136l0,.135a.381.381,0,0,1-.095.267.745.745,0,0,1-.547.131h-.988l-.533,0h-.963a.958.958,0,0,1-.49-.13.6.6,0,0,1-.087-.4c0-.029,0-.058,0-.088,0-.1,0-.195,0-.292q0-.1,0-.209,0-.284,0-.568,0-.237,0-.474,0-.559,0-1.118,0-.577,0-1.154,0-.5,0-.99,0-.3,0-.592,0-.278,0-.556,0-.1,0-.2c0-.093,0-.186,0-.279,0-.027,0-.054,0-.082a.492.492,0,0,1,.174-.4.473.473,0,0,1,.254-.043h1.013l.651,0-.016-.13a9.231,9.231,0,0,1-.072-1.163c0-.026,0-.052,0-.079a7.971,7.971,0,0,1,.513-2.791l.037-.1c.2-.5.2-.5.4-.633a.584.584,0,0,1,.482.1.571.571,0,0,1,.079.46,2.712,2.712,0,0,1-.139.35,7.494,7.494,0,0,0-.436,3.985l.111-.005.146,0,.144-.005a.452.452,0,0,1,.328.168.863.863,0,0,1,.041.408c0,.106,0,.212,0,.321h.806c0-.114,0-.227,0-.344q0-.564,0-1.127,0-.342,0-.683t0-.66q0-.126,0-.252c0-.118,0-.235,0-.353,0-.035,0-.069,0-.1a.925.925,0,0,1,.129-.543,1,1,0,0,1,.581-.128h.091l.295,0h.205l.538,0,.55,0,1.078.006V2.2q0-.4-.007-.791,0-.2,0-.407c0-.156,0-.312,0-.468l0-.147c0-.045,0-.091,0-.137s0-.08,0-.121a.507.507,0,0,1,.172-.3A.918.918,0,0,1-213.95-.215Zm.232.812V7.043c.894.384.894.384,1.792.757l.3.121.189.078.088.036a.681.681,0,0,0,.243.082V.6Zm-3.453,2.494V6.467c.656.005.656.005,1.312.008l.251,0h.127a2.808,2.808,0,0,1,.958.219V3.091Zm6.868,2c-.006.644-.006.644-.009,1.289q0,.395-.005.789,0,.318,0,.637,0,.121,0,.242a1.934,1.934,0,0,0,.166,1.067,1.577,1.577,0,0,1,.046,1.156c-.124.354-.124.354-.192.422,0,.1,0,.206,0,.309,0,.029,0,.058,0,.088q0,.108,0,.216a5.189,5.189,0,0,0,2.406-.189l.093-.022c.071-.014.071-.014.109-.059,0-.077,0-.154,0-.23,0-.05,0-.1,0-.152s0-.112,0-.168,0-.117,0-.176q0-.239,0-.479t0-.5q0-.473,0-.947,0-.64,0-1.279,0-1.008,0-2.016Zm-11.395,1.3v5.947h2.11V6.391Zm2.916.882v4.3l1.611.038a8.4,8.4,0,0,1,1.131.413l.184.082.091.041c.231.1.467.19.7.281l.449.177q1,.4,2.007.789l.645.254a6.069,6.069,0,0,0,2.145.556l.1,0a10.458,10.458,0,0,0,2.466-.527l.8-.209.088-.023q.54-.14,1.082-.271l.11-.026q.239-.058.479-.113a1.494,1.494,0,0,0,.966-.527,1.051,1.051,0,0,0,.065-.8.972.972,0,0,0-.562-.52,1.944,1.944,0,0,0-.954.082l-.112.026-.239.055-.379.088-.942.218-.8.184-.371.086a6.686,6.686,0,0,1-1.557.231h-.086a5.008,5.008,0,0,1-.638-.057l-.082-.012a8.9,8.9,0,0,1-1.664-.537l-.109-.042-.588-.225-.609-.231-.643-.245-.279-.106-.391-.15-.118-.044c-.338-.132-.338-.132-.443-.32a.544.544,0,0,1,.077-.422.546.546,0,0,1,.422-.077c.144.041.282.1.422.15l.123.047.388.151.256.1q.47.181.94.365l.1.038.175.069a1.1,1.1,0,0,0,.887.053,1.119,1.119,0,0,0,.587-.626,1.069,1.069,0,0,0-.117-.809c-.25-.4-.869-.559-1.291-.726l-.464-.186-.1-.039c-.418-.169-.833-.345-1.249-.521l-.087-.037-.156-.066-.158-.066c-.081-.035-.16-.072-.238-.111a2.774,2.774,0,0,0-1.36-.227h-.211c-.257,0-.513.005-.77.009Z" transform="translate(221.96 16.457)" fill="#fff"/>
    <path id="Path_2727" data-name="Path 2727" d="M-127.695-.047h.5a6.9,6.9,0,0,1,1.5.125l.1.021a7.646,7.646,0,0,1,1.018.291l.077.028c.228.088.228.088.3.2a.633.633,0,0,1-.01.458.392.392,0,0,1-.257.167,1.692,1.692,0,0,1-.609-.117,7.16,7.16,0,0,0-4.611.067l-.076.026a7.537,7.537,0,0,0-2.326,1.4.451.451,0,0,1-.322.109.527.527,0,0,1-.345-.221.578.578,0,0,1,0-.393,1.031,1.031,0,0,1,.192-.192l.068-.065A7.4,7.4,0,0,1-127.695-.047Z" transform="translate(136.776 12.797)" fill="#fff"/>
    <path id="Path_2728" data-name="Path 2728" d="M-93.819-.344a.532.532,0,0,1,.23.23.628.628,0,0,1-.153.537q-.088.1-.18.2c-.13.14-.254.283-.374.432-.14.174-.288.338-.44.5-.115.124-.223.251-.329.383-.139.173-.286.337-.438.5-.115.124-.223.251-.329.383-.139.173-.286.336-.437.5s-.288.33-.423.5a.688.688,0,0,1-.359.265A.617.617,0,0,1-97.426,4a.531.531,0,0,1-.137-.317,1,1,0,0,1,.329-.535l.085-.1.173-.19c.088-.1.172-.2.255-.3.141-.175.29-.34.443-.5.115-.124.223-.251.329-.383.139-.173.286-.337.438-.5s.279-.321.413-.487c.114-.137.235-.267.356-.4a5.891,5.891,0,0,0,.394-.478A.524.524,0,0,1-93.819-.344Z" transform="translate(110.502 14.253)" fill="#fff"/>
    <path id="Path_2729" data-name="Path 2729" d="M-41.324-5.181a1.136,1.136,0,0,1,.35.767,1.12,1.12,0,0,1-.356.784,1.127,1.127,0,0,1-.846.209,1.087,1.087,0,0,1-.691-.5A1.161,1.161,0,0,1-42.9-4.8a1.313,1.313,0,0,1,.566-.554A1.29,1.29,0,0,1-41.324-5.181Zm-.736.609c-.086.07-.086.07-.086.173s0,.1.086.173a.3.3,0,0,0,.192-.038.525.525,0,0,0,.077-.192.489.489,0,0,0-.115-.115Z" transform="translate(55.789 19.171)" fill="#fff"/>
    <path id="Path_2730" data-name="Path 2730" d="M-41.11-5.558a.883.883,0,0,1,.333.547,1.136,1.136,0,0,1-.153.806,1.018,1.018,0,0,1-.661.4,1.094,1.094,0,0,1-.835-.234,1.067,1.067,0,0,1-.324-.733,1.074,1.074,0,0,1,.3-.731A1.034,1.034,0,0,1-41.11-5.558Zm-.775.628c-.053.072-.053.072-.034.173s.02.088.067.129a.643.643,0,0,0,.192,0l.077-.077a1.235,1.235,0,0,0-.038-.23A.269.269,0,0,0-41.884-4.929Z" transform="translate(57.689 22.334)" fill="#fff"/>
    <path id="Path_2731" data-name="Path 2731" d="M-15.39-.938a.513.513,0,0,1,.213.364.683.683,0,0,1-.175.364.679.679,0,0,1-.422.038A.726.726,0,0,1-16-.439a.656.656,0,0,1,.11-.441A.528.528,0,0,1-15.39-.938Z" transform="translate(18.99 16.803)" fill="#fff"/>
  </g>
</svg>
