<svg xmlns="http://www.w3.org/2000/svg" width="16.298" height="16.719" viewBox="0 0 16.298 16.719">
  <g id="biometric-attendance" transform="translate(-22.5 496)">
    <path id="Path_3529" data-name="Path 3529" d="M23.281-495.92a1.248,1.248,0,0,0-.718.725c-.059.146-.063.432-.063,5.453v5.3l.094.2a1.323,1.323,0,0,0,.617.631l.23.112,4.383.01,4.386.007v.666a5.051,5.051,0,0,0,.056.931,3.345,3.345,0,0,0,1.845,2.329,2.646,2.646,0,0,0,1.377.275,2.671,2.671,0,0,0,1.3-.23,3.6,3.6,0,0,0,1.409-1.137,3.861,3.861,0,0,0,.506-1.074,5.209,5.209,0,0,0,.094-1.461c.014-1.339.007-1.395-.213-1.649a.784.784,0,0,0-.607-.289H37.79l-.007-4.962-.01-4.958-.108-.227a1.3,1.3,0,0,0-.6-.617l-.2-.1-6.695-.007L23.476-496Zm13.571.5a.858.858,0,0,1,.293.248l.1.153.01,5.031.007,5.028-.164-.084a.638.638,0,0,0-.415-.073.714.714,0,0,0-.425.122c-.16.1-.181.1-.223.056a.936.936,0,0,0-.812-.15l-.091.035.01-.551.01-.547.331-.017a1.325,1.325,0,0,0,.443-.08.878.878,0,0,0,.359-.443c.021-.07.035-.722.035-1.534,0-1.346,0-1.419-.073-1.569a.588.588,0,0,0-.363-.37c-.174-.084-.178-.084-1.586-.084-.809,0-1.464.014-1.534.035a.823.823,0,0,0-.457.4,5.459,5.459,0,0,0-.066,1.618c0,1.607,0,1.573.206,1.8.157.171.275.216.631.234l.331.017v.621l-.174.042a1.167,1.167,0,0,0-.621.328,1.179,1.179,0,0,0-.4.865l-.017.289H27.88c-3.595,0-4.338-.007-4.435-.049a.908.908,0,0,1-.411-.436c-.035-.1-.045-1.161-.045-5.286v-5.16l.077-.146a.911.911,0,0,1,.436-.384c.087-.031,1.712-.042,6.639-.042l6.52,0Zm-1.112,5.753c.059.052.063.143.063,1.454,0,.771-.014,1.416-.028,1.437-.052.08-.185.119-.4.119h-.23v-.509a3.554,3.554,0,0,0-.042-.656,1.036,1.036,0,0,0-.537-.537.852.852,0,0,0-1.046.46c-.077.164-.084.223-.084.708v.534H33.17c-.234,0-.275-.01-.349-.087l-.087-.084v-1.356c0-1.322,0-1.36.073-1.451l.07-.091h1.4C35.53-489.724,35.68-489.717,35.739-489.664ZM34.5-487.82a.334.334,0,0,1,.112.178c.024.087.038.875.038,2.211,0,2.033,0,2.078.07,2.141a.263.263,0,0,0,.356-.021c.052-.063.063-.146.063-.544,0-.52.031-.635.209-.725a.278.278,0,0,1,.338.017c.15.091.185.234.185.771,0,.394.007.446.07.5a.281.281,0,0,0,.178.059c.2,0,.22-.056.241-.656.017-.544.017-.544.115-.628a.32.32,0,0,1,.4-.063c.174.091.209.223.209.767,0,.411.01.464.073.52a.273.273,0,0,0,.342,0c.049-.049.063-.15.077-.6.017-.5.021-.54.1-.624a.323.323,0,0,1,.415-.066c.2.094.213.181.213,1.126a3.646,3.646,0,0,1-.478,2.423,2.81,2.81,0,0,1-2.517,1.259,2.8,2.8,0,0,1-2.563-2.319,7.611,7.611,0,0,1-.045-1.339l.01-1.018.1-.167a.785.785,0,0,1,.52-.373h.1v2.263l.091.07a.2.2,0,0,0,.3,0l.094-.07.007-2.472.01-2.469.087-.094A.326.326,0,0,1,34.5-487.82Z" fill="#fff"/>
    <path id="Path_3530" data-name="Path 3530" d="M66.436-457.934a.877.877,0,0,0-.234.164c-.174.185-.2.314-.2.886s.028.68.223.879c.216.213.049.206,3.225.2l2.891-.01.15-.1a.8.8,0,0,0,.237-.279,1.138,1.138,0,0,0,.1-.614c.021-.673-.094-.948-.46-1.116A14.5,14.5,0,0,0,69.4-458,14.435,14.435,0,0,0,66.436-457.934Zm5.809.523c.056.07.066.139.066.516,0,.411,0,.436-.087.516l-.084.087H66.659l-.084-.087c-.084-.08-.087-.1-.087-.485,0-.425.031-.547.153-.607.049-.024.966-.035,2.8-.031l2.734.007Z" transform="translate(-41.983 -36.675)" fill="#fff"/>
    <path id="Path_3531" data-name="Path 3531" d="M302.093-450.93a.28.28,0,0,0-.007.359,7.646,7.646,0,0,0,1.97.059c1.862,0,1.907,0,1.977-.07a.236.236,0,0,0-.01-.342l-.08-.077h-1.89C302.208-451,302.163-451,302.093-450.93Z" transform="translate(-269.778 -43.431)" fill="#fff"/>
    <path id="Path_3532" data-name="Path 3532" d="M301.994-411.927a.235.235,0,0,0,0,.377c.091.073.125.073,1.956.073h1.862l.084-.087a.287.287,0,0,0,.087-.174.287.287,0,0,0-.087-.174l-.084-.087H303.95C302.12-412,302.085-412,301.994-411.927Z" transform="translate(-269.658 -81.071)" fill="#fff"/>
    <path id="Path_3533" data-name="Path 3533" d="M66.23-371.934c-.209.139-.23.213-.23.805,0,.474.007.554.07.652.115.192.241.234.743.248.53.017.7-.028.854-.23.091-.119.094-.143.1-.6a1.34,1.34,0,0,0-.056-.638c-.122-.269-.209-.3-.844-.3C66.4-372,66.317-371.99,66.23-371.934Zm1.025.805v.384h-.767v-.767h.767Z" transform="translate(-41.983 -119.676)" fill="#fff"/>
    <path id="Path_3534" data-name="Path 3534" d="M138.385-371.92c-.213.143-.244.251-.234.833.01.558.028.61.251.774.087.066.146.073.624.073s.54-.007.656-.08c.206-.126.241-.241.241-.809,0-.54-.021-.621-.209-.781-.108-.091-.119-.091-.659-.091C138.539-372,138.5-372,138.385-371.92Zm1.043.8.01.377h-.771v-.771l.377.01.373.01Z" transform="translate(-111.617 -119.676)" fill="#fff"/>
    <path id="Path_3535" data-name="Path 3535" d="M211.23-371.934c-.209.139-.23.213-.23.805,0,.474.007.554.07.652.115.192.241.234.743.248.53.017.7-.028.854-.23.091-.119.094-.143.1-.6a1.34,1.34,0,0,0-.056-.638c-.122-.269-.209-.3-.844-.3C211.4-372,211.317-371.99,211.23-371.934Zm1.025.805v.384h-.767v-.767h.767Z" transform="translate(-181.927 -119.676)" fill="#fff"/>
    <path id="Path_3536" data-name="Path 3536" d="M302.139-371.937a.288.288,0,0,0,.01.356c.07.07.115.07,1.963.07h1.9l.073-.08a.241.241,0,0,0,.007-.338c-.07-.07-.115-.07-1.981-.07C302.3-372,302.191-372,302.139-371.937Z" transform="translate(-269.834 -119.676)" fill="#fff"/>
    <path id="Path_3537" data-name="Path 3537" d="M66.23-298.934c-.209.139-.23.213-.23.805,0,.635.031.722.3.844a1.349,1.349,0,0,0,.642.056c.523-.01.582-.031.746-.251.063-.084.073-.157.084-.579a1.35,1.35,0,0,0-.056-.642c-.122-.269-.209-.3-.844-.3C66.4-299,66.317-298.99,66.23-298.934Zm1.025.805v.384h-.767v-.767h.767Z" transform="translate(-41.983 -190.131)" fill="#fff"/>
    <path id="Path_3538" data-name="Path 3538" d="M138.389-298.849c-.216.146-.248.255-.237.837.01.453.017.523.084.607.164.22.22.241.757.251.46.01.506.007.649-.07.248-.129.282-.23.282-.823,0-.537-.017-.614-.192-.774-.091-.084-.112-.087-.656-.1S138.507-298.926,138.389-298.849Zm1.039.8.01.377h-.771v-.771l.377.01.373.01Z" transform="translate(-111.617 -190.205)" fill="#fff"/>
    <path id="Path_3539" data-name="Path 3539" d="M211.23-298.934c-.209.139-.23.213-.23.805,0,.635.031.722.3.844a1.349,1.349,0,0,0,.642.056c.523-.01.582-.031.746-.251.063-.084.073-.157.084-.579a1.35,1.35,0,0,0-.056-.642c-.122-.269-.209-.3-.844-.3C211.4-299,211.317-298.99,211.23-298.934Zm1.025.805v.384h-.767v-.767h.767Z" transform="translate(-181.927 -190.131)" fill="#fff"/>
    <path id="Path_3540" data-name="Path 3540" d="M66.314-225.882a.657.657,0,0,0-.255.216c-.049.07-.059.174-.059.621,0,.593.021.676.216.816.108.077.146.08.662.08.5,0,.554-.007.642-.073.22-.164.241-.22.251-.757.01-.46.007-.506-.07-.652-.126-.248-.227-.279-.83-.275A3.709,3.709,0,0,0,66.314-225.882Zm.941.844v.384h-.767v-.767h.767Z" transform="translate(-41.983 -260.675)" fill="#fff"/>
    <path id="Path_3541" data-name="Path 3541" d="M138.241-225.92c-.2.136-.241.258-.241.788,0,.8.108.91.893.91.4,0,.471-.01.607-.08.244-.126.279-.227.279-.826,0-.565-.031-.669-.251-.8-.1-.063-.178-.07-.642-.07C138.4-226,138.352-225.993,138.241-225.92Zm1.043.8.01.377h-.771v-.771l.377.01.373.01Z" transform="translate(-111.473 -260.586)" fill="#fff"/>
    <path id="Path_3542" data-name="Path 3542" d="M211.314-225.882a.657.657,0,0,0-.255.216c-.049.07-.059.174-.059.628,0,.474.007.554.07.652.133.216.2.237.805.237.5,0,.558-.007.645-.073.227-.167.241-.213.241-.792,0-.471-.007-.544-.07-.652-.122-.209-.241-.244-.819-.241A3.71,3.71,0,0,0,211.314-225.882Zm.941.844v.384h-.767v-.767h.767Z" transform="translate(-181.927 -260.676)" fill="#fff"/>
  </g>
</svg>
