<svg xmlns="http://www.w3.org/2000/svg" width="24" height="23" viewBox="0 0 24 23">
  <g id="Group_16325" data-name="Group 16325" transform="translate(1.287 0.564)">
    <ellipse id="Ellipse_50" data-name="Ellipse 50" cx="12" cy="11.5" rx="12" ry="11.5" transform="translate(-1.287 -0.565)" fill="#d90810"/>
    <g id="dining" transform="translate(-89.665 500.299)">
      <path id="Path_3889" data-name="Path 3889" d="M100.515-495.958a1.256,1.256,0,0,0-.19.09.839.839,0,0,0-.274.389c-.012.054-.268,1.528-.57,3.277l-.546,3.18-1.115.015-1.112.015-.19.1a.878.878,0,0,0-.422.437l-.081.154-.009,3.31L96-481.679l.072.072c.072.072.087.075.531.075s.458,0,.528-.075a.237.237,0,0,0,.075-.112c0-.042.651-5.058.681-5.245l.018-.115H100.1v5.4l.075.072c.069.072.084.075.528.075s.458,0,.528-.075a.237.237,0,0,0,.075-.112c0-.042.651-5.058.681-5.248l.018-.112h.531l.018.112c.03.19.681,5.206.681,5.248a.237.237,0,0,0,.075.112c.069.072.084.075.528.075s.458,0,.528-.075l.075-.072V-485.2l0-3.521.564-3.271c.446-2.6.558-3.3.543-3.412a.748.748,0,0,0-.5-.567c-.063-.018-.937-.03-2.261-.03A21.157,21.157,0,0,0,100.515-495.958Zm3.635.491c-.009.03-.262,1.492-.567,3.249l-.549,3.2-1.8.009a7.773,7.773,0,0,1-1.8-.039c0-.024.244-1.459.543-3.186.521-3.029.543-3.147.618-3.213l.078-.066h1.745C104.066-495.518,104.163-495.515,104.151-495.466Zm.847.024a.236.236,0,0,1,.075.13c0,.033-.25,1.513-.558,3.292l-.558,3.234v1.227h-2.653v-.3a1.5,1.5,0,0,0-.106-.618c-.021-.048.042-.051,1.049-.051s1.073,0,1.139-.057a21.524,21.524,0,0,0,.651-3.427c.561-3.253.582-3.376.657-3.442A.2.2,0,0,1,105-495.442Zm-4.464,6.96a.589.589,0,0,1,.187.157c.081.105.087.133.1.44l.012.326H96.482v-.283c0-.389.069-.543.286-.639C96.9-488.543,100.389-488.543,100.534-488.482Zm-3.132,1.5c-.009.054-.151,1.142-.316,2.42s-.31,2.372-.32,2.433c-.018.112-.021.115-.151.115h-.133v-5.064h.937Zm4.1,0c-.009.054-.151,1.142-.316,2.42s-.31,2.372-.32,2.433c-.018.112-.021.115-.151.115h-.133v-5.064h.937Zm2.457,2.436v2.532h-.133c-.13,0-.133,0-.151-.115-.009-.06-.154-1.154-.32-2.433s-.307-2.366-.317-2.42l-.018-.1h.937Z" transform="translate(-0.394 -0.598)" fill="#fff"/>
    </g>
  </g>
</svg>
