<svg xmlns="http://www.w3.org/2000/svg" width="16.715" height="16.65" viewBox="0 0 16.715 16.65">
  <g id="payslip-_1_" transform="translate(0 511)">
    <path id="Path_3081" data-name="Path 3081" d="M2.455-510.935c-.039.039-.075.072-.078.075s-.016,1.4-.026,3.1l-.016,3.095-1.126.535c-.62.3-1.146.565-1.165.594S0-502.551,0-499.1a34.715,34.715,0,0,0,.059,4.492.533.533,0,0,0,.166.186l.111.075H5.181l.069-.075a.224.224,0,0,0-.039-.359,21.571,21.571,0,0,0-2.22-.055l-2.148-.016,2.439-2.6c1.342-1.427,2.511-2.667,2.6-2.755l.16-.163,1.074.513c.979.467,1.09.513,1.25.513s.274-.049,1.234-.506c.581-.278,1.071-.506,1.081-.506s.431.434.93.963c.842.9.911.963,1.015.963a.227.227,0,0,0,.242-.238c0-.091-.1-.209-.852-1.012-.47-.5-.849-.911-.842-.917s1.146-.548,2.527-1.2L16.209-503l.01,1.939c0,1.068,0,2.821,0,3.891l-.01,1.949-1.348-1.436c-.738-.787-1.387-1.459-1.436-1.492a.236.236,0,0,0-.353.251c.013.049.6.7,1.41,1.564l1.391,1.476-4.946.016-4.949.016-.072.072a.254.254,0,0,0-.013.336c.059.065.088.065,5.272.065h5.214l.111-.075a.533.533,0,0,0,.166-.186,34.716,34.716,0,0,0,.059-4.492c0-3.448-.01-4.388-.039-4.43s-.548-.3-1.169-.594l-1.126-.535-.016-3.095c-.01-1.7-.02-3.1-.026-3.1s-.039-.036-.078-.075c-.072-.065-.078-.065-5.9-.065S2.527-511,2.455-510.935Zm11.42,4.453c0,3.19-.01,4.035-.039,4.058-.163.1-5.1,2.429-5.38,2.537l-.147.056-2.693-1.283c-1.482-.705-2.713-1.3-2.733-1.309s-.042-.868-.042-4.058v-4.029H13.875ZM2.351-503.393v.718l-.095-.039c-.284-.124-1.407-.666-1.407-.682s1.43-.705,1.479-.712A5.475,5.475,0,0,1,2.351-503.393Zm12.794-.362c.4.189.721.349.721.359s-1.12.558-1.407.682l-.095.039v-.721a4.087,4.087,0,0,1,.029-.708C14.41-504.1,14.747-503.942,15.145-503.756Zm-12.1,1.962c1.378.656,2.5,1.2,2.494,1.211-.01.029-5.021,5.351-5.037,5.351S.49-496.981.49-499.12.5-503,.519-502.995,1.672-502.45,3.046-501.794Z" fill="#fff"/>
    <path id="Path_3082" data-name="Path 3082" d="M127.55-465.916a.318.318,0,0,0-.055.2c0,.108-.016.144-.072.173a.6.6,0,0,0-.193.934,1.561,1.561,0,0,0,.372.219c.31.137.388.235.33.4-.069.2-.307.212-.552.036l-.147-.108-.091.069c-.189.14-.111.356.176.49.166.075.176.088.176.2,0,.14.023.18.121.232.153.078.3-.062.3-.294,0-.062.016-.095.049-.095a.575.575,0,0,0,.193-.14.517.517,0,0,0,.18-.31c.085-.4-.095-.689-.545-.865-.291-.114-.375-.238-.248-.362.062-.065.206-.065.428-.007.16.042.176.042.255-.02.16-.124.075-.313-.176-.388-.118-.036-.134-.052-.134-.134a.355.355,0,0,0-.111-.261A.234.234,0,0,0,127.55-465.916Z" transform="translate(-122.891 -43.557)" fill="#fff"/>
    <path id="Path_3083" data-name="Path 3083" d="M187.2-446.616a.219.219,0,0,0-.2.238.234.234,0,0,0,.069.183c.065.059.176.062,3.356.072,1.805,0,3.333,0,3.392-.01a.236.236,0,0,0,.15-.411l-.085-.078-3.3,0C188.763-446.629,187.242-446.622,187.2-446.616Z" transform="translate(-180.895 -62.272)" fill="#fff"/>
    <path id="Path_3084" data-name="Path 3084" d="M179.166-405.925a.233.233,0,0,0-.01.32l.062.078h7.065l.062-.078a.224.224,0,0,0-.007-.31l-.065-.085h-7.039Z" transform="translate(-173.25 -101.572)" fill="#fff"/>
    <path id="Path_3085" data-name="Path 3085" d="M109.082-365.918a.269.269,0,0,0-.082.163.269.269,0,0,0,.082.163l.078.082h9.278l.078-.082a.209.209,0,0,0,0-.326l-.078-.082H109.16Z" transform="translate(-105.441 -140.266)" fill="#fff"/>
    <path id="Path_3086" data-name="Path 3086" d="M344.966-343.812a.293.293,0,0,0-.088.212c-.016.137-.033.163-.144.225a.592.592,0,0,0-.212.725.84.84,0,0,0,.493.382c.264.111.31.16.31.326,0,.238-.271.3-.516.127-.186-.134-.281-.127-.362.023-.069.131.026.287.238.392.163.078.183.1.183.193,0,.127.111.274.209.274a.213.213,0,0,0,.219-.238c0-.127.013-.144.153-.235a.6.6,0,0,0,.3-.548.894.894,0,0,0-.046-.294.948.948,0,0,0-.356-.349,1.692,1.692,0,0,1-.242-.1c-.206-.1-.209-.1-.2-.219.013-.17.111-.2.421-.121l.238.055.075-.085a.3.3,0,0,0,.075-.137c0-.082-.147-.2-.291-.242-.127-.033-.134-.039-.134-.163C345.293-343.832,345.123-343.94,344.966-343.812Z" transform="translate(-333.181 -161.677)" fill="#fff"/>
    <path id="Path_3087" data-name="Path 3087" d="M109.279-326a.224.224,0,0,0-.078.366l.065.085h7.045l.065-.085a.22.22,0,0,0-.085-.366C116.191-326.053,109.374-326.05,109.279-326Z" transform="translate(-105.574 -178.924)" fill="#fff"/>
    <path id="Path_3088" data-name="Path 3088" d="M109.119-284.925a.226.226,0,0,0,.1.382c.124.046,6.836.046,6.96,0a.226.226,0,0,0,.1-.385L116.21-285h-7.022Z" transform="translate(-105.488 -218.622)" fill="#fff"/>
  </g>
</svg>
