<svg xmlns="http://www.w3.org/2000/svg" width="18.518" height="19.04" viewBox="0 0 18.518 19.04">
  <g id="vendor" transform="translate(0 0)">
    <path id="Path_2989" data-name="Path 2989" d="M326.8-495.536a3.276,3.276,0,0,0-2.378,1.854,2.722,2.722,0,0,0-.29,1.266,2.482,2.482,0,0,0,.064.846,3.228,3.228,0,0,0,1.37,1.989,2.912,2.912,0,0,0,1.008.461,3.242,3.242,0,0,0,1.9-.075,3.337,3.337,0,0,0,2.076-2.168,4.14,4.14,0,0,0,.064-1.624,3.294,3.294,0,0,0-.834-1.564,3.285,3.285,0,0,0-1.572-.937A4.213,4.213,0,0,0,326.8-495.536Zm1.163.441a3.531,3.531,0,0,1,1.247.592,3,3,0,0,1,.961,1.533,3.74,3.74,0,0,1,0,1.346,2.912,2.912,0,0,1-2.08,2.1,3.559,3.559,0,0,1-1.39,0,2.927,2.927,0,0,1-2.009-1.874,3.059,3.059,0,0,1-.064-1.56A2.857,2.857,0,0,1,327.965-495.1Z" transform="translate(-312.152 495.575)" fill="#fff"/>
    <path id="Path_2990" data-name="Path 2990" d="M371.854-438.226l-.75.774-.4-.377c-.294-.282-.425-.377-.5-.377a.178.178,0,0,0-.2.2c0,.087.1.2.516.588a2.372,2.372,0,0,0,.6.48,5.132,5.132,0,0,0,.925-.858c.461-.472.85-.9.869-.941a.215.215,0,0,0-.2-.266C372.624-439,372.462-438.853,371.854-438.226Z" transform="translate(-356.204 441.246)" fill="#fff"/>
    <path id="Path_2991" data-name="Path 2991" d="M31.014-486.807a1.919,1.919,0,0,0-.5.056,1.387,1.387,0,0,0-.115.4,2.1,2.1,0,0,1-.1.4.537.537,0,0,1-.2.091,3.3,3.3,0,0,0-.409.167l-.238.115-.349-.218c-.25-.159-.373-.214-.437-.2a3.066,3.066,0,0,0-.822.862,1.38,1.38,0,0,0,.214.413l.21.318-.107.218a3.792,3.792,0,0,0-.179.441l-.071.222-.381.075a1.3,1.3,0,0,0-.449.143c-.06.06-.071.147-.071.576,0,.691,0,.687.5.786l.393.079.1.278c.06.151.143.349.187.437l.083.159-.214.33a1.483,1.483,0,0,0-.214.417,2.9,2.9,0,0,0,.869.862,1.479,1.479,0,0,0,.409-.214c.322-.218.322-.218.445-.155.067.036.266.123.437.191l.318.123.087.393a1.019,1.019,0,0,0,.159.445,2.817,2.817,0,0,0,1.243-.06,3.346,3.346,0,0,0,.1-.421l.071-.373.2-.067a3.5,3.5,0,0,0,.437-.179l.23-.115.337.214a1.735,1.735,0,0,0,.417.218,3.614,3.614,0,0,0,.869-.885,1.75,1.75,0,0,0-.222-.4l-.218-.333.115-.23a4.148,4.148,0,0,0,.183-.437l.064-.2.369-.075a1.714,1.714,0,0,0,.437-.131c.06-.052.067-.135.067-.623s-.008-.572-.067-.627a1.713,1.713,0,0,0-.437-.131l-.369-.071-.064-.2a3.785,3.785,0,0,0-.183-.433l-.115-.23.222-.349a2.449,2.449,0,0,0,.218-.4,4.125,4.125,0,0,0-.893-.869,1.666,1.666,0,0,0-.409.218l-.326.218-.226-.111a3.787,3.787,0,0,0-.433-.183l-.2-.067-.075-.365c-.079-.4-.179-.552-.341-.536C31.506-486.823,31.264-486.811,31.014-486.807Zm.465.667c.087.389.143.548.206.58.032.016.187.068.337.115a3.452,3.452,0,0,1,.528.222,1.2,1.2,0,0,0,.31.135,1.7,1.7,0,0,0,.353-.2,2.293,2.293,0,0,1,.326-.2.985.985,0,0,1,.226.195l.195.2-.206.318a1.628,1.628,0,0,0-.2.385,1.1,1.1,0,0,0,.123.286,3.252,3.252,0,0,1,.234.556,1.388,1.388,0,0,0,.179.389,1.208,1.208,0,0,0,.33.1c.433.071.4.048.4.377v.294l-.306.064c-.457.091-.488.115-.572.417a3.707,3.707,0,0,1-.23.568,1.7,1.7,0,0,0-.163.377,1.56,1.56,0,0,0,.206.373l.2.314-.195.2a1.112,1.112,0,0,1-.222.195,2.937,2.937,0,0,1-.333-.2,1.593,1.593,0,0,0-.357-.2,2.1,2.1,0,0,0-.341.155,3.713,3.713,0,0,1-.576.242.761.761,0,0,0-.326.151,2.531,2.531,0,0,0-.1.413l-.071.349h-.58l-.064-.31c-.107-.508-.107-.508-.429-.6a3.791,3.791,0,0,1-.584-.242,2.017,2.017,0,0,0-.357-.155,1.548,1.548,0,0,0-.341.2,2.7,2.7,0,0,1-.318.2,1.9,1.9,0,0,1-.413-.4,2.938,2.938,0,0,1,.2-.333,1.841,1.841,0,0,0,.2-.349.993.993,0,0,0-.1-.222,4.145,4.145,0,0,1-.333-.822c-.052-.2-.091-.226-.457-.286-.445-.075-.417-.048-.417-.381v-.29l.365-.071a1.482,1.482,0,0,0,.433-.139.509.509,0,0,0,.091-.218,3.589,3.589,0,0,1,.226-.568,4.434,4.434,0,0,0,.195-.445,2.461,2.461,0,0,0-.214-.345l-.214-.318.21-.206.214-.21.314.2a1.56,1.56,0,0,0,.373.206,1.79,1.79,0,0,0,.357-.155,3.6,3.6,0,0,1,.58-.242c.175-.052.3-.111.314-.151a3.637,3.637,0,0,0,.091-.381l.064-.322.214-.024C31.423-486.4,31.419-486.406,31.478-486.14Z" transform="translate(-26.821 487.175)" fill="#fff"/>
    <path id="Path_2992" data-name="Path 2992" d="M80.14-434.91a2.1,2.1,0,0,0-1.374,1.437,2.442,2.442,0,0,0,0,1.124,2.15,2.15,0,0,0,1.469,1.457,2.42,2.42,0,0,0,1.179-.016,2.106,2.106,0,0,0,1.469-2.017,2.093,2.093,0,0,0-1.552-2.017A2.4,2.4,0,0,0,80.14-434.91Zm1.354.488a1.765,1.765,0,0,1,.8.8,1.149,1.149,0,0,1,.131.707,1.173,1.173,0,0,1-.127.7,1.683,1.683,0,0,1-2.215.806,1.68,1.68,0,0,1-.937-1.747,1.661,1.661,0,0,1,1.076-1.326,1.318,1.318,0,0,1,.615-.071A1.257,1.257,0,0,1,81.494-434.422Z" transform="translate(-76.468 437.407)" fill="#fff"/>
    <path id="Path_2993" data-name="Path 2993" d="M249.556-311.738a2.056,2.056,0,0,0-1.568,1.525,3.887,3.887,0,0,0,0,1.39,3.949,3.949,0,0,0,.242.667,1.982,1.982,0,0,0,2.025,1.247,2.5,2.5,0,0,0,1.842-2.636,2.312,2.312,0,0,0-.58-1.664A2.091,2.091,0,0,0,249.556-311.738Zm1.032.449a1.515,1.515,0,0,1,.957.937,3.263,3.263,0,0,1,.06,1.409c-.226,1.084-1.1,1.8-1.914,1.568a2.135,2.135,0,0,1-1.334-2.184,1.632,1.632,0,0,1,.941-1.632,2.044,2.044,0,0,1,.385-.135A2.671,2.671,0,0,1,250.588-311.289Z" transform="translate(-238.975 319.09)" fill="#fff"/>
    <path id="Path_2994" data-name="Path 2994" d="M22.937-257.972a.7.7,0,0,0-.369.3,25.123,25.123,0,0,0-.067,4c0,3.8,0,3.875.079,4.006a.931.931,0,0,0,.191.218c.111.083.135.083,3.029.1l2.914.008v.413c0,.345.012.417.071.472s.457.067,4.76.067c4.55,0,4.685,0,4.752-.075s.067-.21.056-1.7a6.067,6.067,0,0,0-.107-1.9,2.925,2.925,0,0,0-1.838-1.918l-.29-.107-2.489-.012-2.493-.012v-1.715c0-1.957.008-1.918-.318-2.084L30.643-258l-3.815,0C24.731-257.992,22.98-257.98,22.937-257.972Zm2.68,1.731c0,1.132.008,1.334.064,1.409.1.151.23.111.7-.226l.433-.318.461.337a2.763,2.763,0,0,0,.528.333.218.218,0,0,0,.131-.071c.06-.064.067-.234.075-1.421l.012-1.346,1.263-.012a9.639,9.639,0,0,1,1.338.032c.075.04.079.1.079,1.783V-254l-.226.091a2.925,2.925,0,0,0-1.628,1.763,3.42,3.42,0,0,0-.123,1.342l-.016,1.02H25.883c-1.711,0-2.851-.016-2.886-.04a27.884,27.884,0,0,1-.071-3.8,27.945,27.945,0,0,1,.052-3.855l.06-.091h2.581Zm1.945-.226c0,.814-.012,1.084-.048,1.064s-.179-.123-.341-.242a1.422,1.422,0,0,0-.365-.21,1.5,1.5,0,0,0-.361.21c-.163.115-.318.222-.341.242-.04.024-.052-.2-.052-1.064v-1.1h1.509Zm8.536,2.847a2.49,2.49,0,0,1,1.679,1.552l.127.322.012,1.457.012,1.461H36.336v-.6c0-.5-.012-.611-.067-.675a.222.222,0,0,0-.33,0,3.723,3.723,0,0,0-.04.675v.6H31.175v-.611c0-.5-.012-.623-.064-.675a.236.236,0,0,0-.333.012,3.723,3.723,0,0,0-.04.675v.6H29.15v-1.382a8.8,8.8,0,0,1,.06-1.616,2.484,2.484,0,0,1,2.076-1.846c.167-.016,1.27-.028,2.45-.024A13.973,13.973,0,0,1,36.1-253.621Z" transform="translate(-22.5 267.432)" fill="#fff"/>
    <path id="Path_2995" data-name="Path 2995" d="M52.139-114.929a.213.213,0,0,0,0,.3c.052.056.195.064.965.064.826,0,.909-.008.969-.071a.184.184,0,0,0-.012-.286c-.075-.075-.131-.079-.965-.079C52.282-115,52.2-114.992,52.139-114.929Z" transform="translate(-50.9 130.11)" fill="#fff"/>
    <path id="Path_2996" data-name="Path 2996" d="M52.094-89.812a.24.24,0,0,0-.044.33,3.635,3.635,0,0,0,.969.048c.786,0,.933-.008.985-.064a.2.2,0,0,0,.008-.278c-.052-.071-.119-.075-.945-.087C52.308-89.872,52.17-89.864,52.094-89.812Z" transform="translate(-50.832 105.974)" fill="#fff"/>
  </g>
</svg>
