<svg xmlns="http://www.w3.org/2000/svg" width="19.18" height="19.17" viewBox="0 0 19.18 19.17">
  <g id="money-_3_" transform="translate(-40 471.936)">
    <path id="Path_2613" data-name="Path 2613" d="M43.818-471.695c-2.051.249-3.414,1.043-3.747,2.189-.062.218-.071.995-.071,7.374s.009,7.157.071,7.374c.3,1.021,1.452,1.789,3.183,2.113a7.057,7.057,0,0,0,1.319.076,5.554,5.554,0,0,0,1.483-.12c1.683-.355,2.806-1.185,3-2.211.058-.311.062-14.149,0-14.465-.2-1.066-1.421-1.927-3.183-2.247A12.975,12.975,0,0,0,43.818-471.695Zm1.976.795c1.359.244,2.393.906,2.557,1.638a.76.76,0,0,1-.027.493,2.136,2.136,0,0,1-1.083,1.079,5.57,5.57,0,0,1-2.69.559,5.641,5.641,0,0,1-2.029-.284c-1.865-.622-2.371-1.847-1.128-2.73a5.13,5.13,0,0,1,2.491-.839A12,12,0,0,1,45.794-470.9Zm-4.129,3.907a6.4,6.4,0,0,0,2.6.582A6.19,6.19,0,0,0,48-467.326l.4-.266-.018.786c-.013.719-.022.808-.115.977a3.28,3.28,0,0,1-2.215,1.327,8.821,8.821,0,0,1-2.415.111,4.413,4.413,0,0,1-2.6-1.132c-.28-.32-.324-.5-.324-1.345v-.724l.275.2A5.509,5.509,0,0,0,41.665-466.993Zm-.231,2.659a6.264,6.264,0,0,0,1.585.559,9.428,9.428,0,0,0,2.6.071,5.4,5.4,0,0,0,2.584-.99l.186-.151v.706c0,.875-.049,1.061-.36,1.4a4.754,4.754,0,0,1-3.5,1.154,5.739,5.739,0,0,1-2.033-.311,3.305,3.305,0,0,1-1.314-.728c-.426-.4-.444-.462-.462-1.412l-.018-.817.231.182A4.908,4.908,0,0,0,41.434-464.334Zm-.413,2.508a5.95,5.95,0,0,0,1.487.693,6.29,6.29,0,0,0,2.042.258,6.655,6.655,0,0,0,2.064-.262,5.929,5.929,0,0,0,1.541-.746.919.919,0,0,1,.213-.16,5.055,5.055,0,0,1,.013.786c-.013.733-.022.8-.12.99a3.6,3.6,0,0,1-2.468,1.363,10.324,10.324,0,0,1-2.4.022,3.528,3.528,0,0,1-2.548-1.394c-.138-.271-.138-.275-.138-1.021,0-.591.013-.746.058-.719C40.795-461.994,40.91-461.91,41.021-461.825Zm.488,3.063a6.271,6.271,0,0,0,1.607.546,10.289,10.289,0,0,0,2.788.022,5.693,5.693,0,0,0,2.255-.928l.24-.178-.018.795c-.013.781-.013.795-.147,1.03a3.611,3.611,0,0,1-2.575,1.359,9.1,9.1,0,0,1-2.087.027,3.919,3.919,0,0,1-2.722-1.376c-.115-.2-.12-.226-.133-1.017l-.018-.812.24.182A4.67,4.67,0,0,0,41.51-458.762Zm-.524,2.446a6.408,6.408,0,0,0,4.142.977,5.85,5.85,0,0,0,2.988-.977,2.471,2.471,0,0,1,.253-.178,5.026,5.026,0,0,1,.022.679c0,.923-.044,1.061-.462,1.474a4,4,0,0,1-2.18.986,9.012,9.012,0,0,1-2.42,0,3.308,3.308,0,0,1-2.553-1.5,2.96,2.96,0,0,1-.067-.9,5.819,5.819,0,0,1,.022-.733A2.47,2.47,0,0,1,40.986-456.316Z" transform="translate(0 -0.217)" fill="#fff"/>
    <path id="Path_2614" data-name="Path 2614" d="M271.262-471.9a1.137,1.137,0,0,0-.693.582c-.08.147-.084.333-.1,3.436l-.013,3.281-.435-.426a3.9,3.9,0,0,0-.586-.5,1.293,1.293,0,0,0-.44-.1.759.759,0,0,0-.533.107,1.091,1.091,0,0,0-.608,1.088c.04.311.133.462.573.91l.4.4-.24.12a3.4,3.4,0,0,0-1.341,1.172c-.253.457-.253.484-.253,3.605,0,1.683.018,2.966.044,3.1a2.862,2.862,0,0,0,1.86,1.869,7.469,7.469,0,0,0,5.5-.089,2.812,2.812,0,0,0,1.625-1.638,21.173,21.173,0,0,0,.071-3.232c0-2.917,0-3-.093-3.268a2.729,2.729,0,0,0-1.39-1.456l-.346-.182.4-.408a2.841,2.841,0,0,0,.493-.6,1.084,1.084,0,0,0-.506-1.39,1.244,1.244,0,0,0-.977,0,3.987,3.987,0,0,0-.577.5,3.962,3.962,0,0,1-.431.4c-.022,0-.036-1.443-.036-3.2,0-2.3-.013-3.254-.053-3.374A1.128,1.128,0,0,0,271.262-471.9Zm.484.737a.4.4,0,0,1,.155.133c.013.04.027,1.709.027,3.712,0,3.863,0,3.84.2,3.92.226.084.293.04,1.061-.724a5.148,5.148,0,0,1,.884-.781.392.392,0,0,1,.426.182c.124.271.124.271-1.314,1.709-.746.75-1.416,1.39-1.483,1.421a.412.412,0,0,1-.226.022,19.789,19.789,0,0,1-1.51-1.439c-1.554-1.549-1.536-1.532-1.283-1.789a.38.38,0,0,1,.275-.129c.124,0,.235.093.928.777s.8.777.928.777a.341.341,0,0,0,.249-.111l.111-.107v-7.383l.129-.129A.321.321,0,0,1,271.746-471.162Zm-.662,10.216a1.29,1.29,0,0,0,.955-.013,8.851,8.851,0,0,0,.91-.83,6.612,6.612,0,0,1,.8-.737,2.809,2.809,0,0,1,.484.2,2.471,2.471,0,0,1,1.043.928c.258.559.013,1.132-.679,1.594a6.25,6.25,0,0,1-6.251-.115,1.647,1.647,0,0,1-.6-.808c-.155-.573.306-1.2,1.225-1.652l.4-.2.777.773A9.464,9.464,0,0,0,271.085-460.946Zm-2.575,1.962a5.937,5.937,0,0,0,1.607.551,10.255,10.255,0,0,0,2.784.022,5.748,5.748,0,0,0,2.26-.919l.231-.178v.724c0,.928-.04,1.052-.44,1.456a4.479,4.479,0,0,1-2.424,1.021,8.829,8.829,0,0,1-2.082-.027,3.62,3.62,0,0,1-2.58-1.359c-.133-.235-.133-.249-.146-1.03l-.018-.795.24.178A5.293,5.293,0,0,0,268.51-458.984Zm-.519,2.446a6.97,6.97,0,0,0,5.736.688,5.476,5.476,0,0,0,1.39-.679,1.564,1.564,0,0,1,.253-.182,5.968,5.968,0,0,1,.022.741c0,.812-.031.937-.293,1.283a4.222,4.222,0,0,1-2.326,1.114,8.656,8.656,0,0,1-2.513-.022,3.882,3.882,0,0,1-2.087-.963c-.417-.413-.462-.551-.462-1.474a5.034,5.034,0,0,1,.022-.679A2.162,2.162,0,0,1,267.99-456.538Z" transform="translate(-216.922)" fill="#fff"/>
  </g>
</svg>
