<svg xmlns="http://www.w3.org/2000/svg" width="11.968" height="11.375" viewBox="0 0 11.968 11.375">
  <g id="pencils" transform="translate(-22.953 483.95)">
    <path id="Path_2812" data-name="Path 2812" d="M30.788-483.9a1.818,1.818,0,0,0-.569.252c-.177.117-6.966,6.9-7.01,7.005a7.1,7.1,0,0,0-.062,1.185c-.032,1.26-.037,1.232.172,1.355l.11.065,1.1-.032a7.139,7.139,0,0,0,1.178-.065c.042-.02,1.637-1.6,3.545-3.51a46.134,46.134,0,0,0,3.558-3.647,1.806,1.806,0,0,0,.047-1.622,1.763,1.763,0,0,0-1.19-.985A2.017,2.017,0,0,0,30.788-483.9Zm.723.788a1,1,0,0,1,.7,1.108c-.052.289-.125.4-.514.793l-.359.364-.244-.227c-.137-.127-.459-.444-.721-.706l-.474-.476.364-.357c.452-.444.609-.534.948-.536A1.142,1.142,0,0,1,31.511-483.113Zm-1.457,2.136c.389.389.706.711.706.719s-1.212,1.22-2.694,2.692l-2.694,2.674-.716.02c-.4.013-.721.017-.723.015s0-.332.012-.731l.017-.728L26.644-479c1.474-1.474,2.687-2.682,2.694-2.682S29.667-481.364,30.054-480.977Z" transform="translate(0.572)" fill="#fff"/>
    <path id="Path_2813" data-name="Path 2813" d="M16.353-59.739a.328.328,0,0,0-.222.2.382.382,0,0,0,.155.506l.082.057H27.779l.082-.057a.385.385,0,0,0,.192-.3.39.39,0,0,0-.185-.372l-.095-.06-5.663,0C17.418-59.772,16.432-59.767,16.353-59.739Z" transform="translate(6.865 -413.599)" fill="#fff"/>
  </g>
</svg>
