<svg xmlns="http://www.w3.org/2000/svg" width="13.545" height="12.869" viewBox="0 0 13.545 12.869">
  <g id="message" transform="translate(0 -0.001)">
    <path id="Path_1712" data-name="Path 1712" d="M30.333-463.617a4.288,4.288,0,0,0-.872.219,3.622,3.622,0,0,0-2.307,2.88c-.024.166-.03,1.561-.024,4.6l.009,4.361.083.169a1.115,1.115,0,0,0,1.233.6,1.416,1.416,0,0,0,.311-.121c.065-.038.538-.405,1.05-.816s.991-.772,1.065-.807c.133-.062.151-.062,3.445-.077a22.069,22.069,0,0,0,3.552-.08,3.669,3.669,0,0,0,2.747-2.918c.065-.378.065-4.6,0-5a3.577,3.577,0,0,0-1.005-1.954,3.624,3.624,0,0,0-1.834-1.008A35.778,35.778,0,0,0,34-463.626C32.033-463.629,30.383-463.623,30.333-463.617Zm7.186.97a2.634,2.634,0,0,1,1.934,1.473c.266.553.251.384.263,2.963a20.088,20.088,0,0,1-.038,2.513,2.716,2.716,0,0,1-1.916,2.061c-.213.065-.216.065-3.54.083-3.646.018-3.428.009-3.809.2-.092.044-.594.423-1.118.843s-.979.775-1.014.8a.113.113,0,0,1-.139-.015l-.071-.047.006-4.367.009-4.367.065-.207a2.741,2.741,0,0,1,2.1-1.919C30.608-462.709,37.149-462.712,37.519-462.647Z" transform="translate(-27.128 463.627)" fill="#3100fe"/>
    <path id="Path_1713" data-name="Path 1713" d="M124.593-302.588a.829.829,0,0,0-.461.414.565.565,0,0,0-.065.361.958.958,0,0,0,.065.308.891.891,0,0,0,.37.37.934.934,0,0,0,.615.027.781.781,0,0,0,.089-1.422A.85.85,0,0,0,124.593-302.588Z" transform="translate(-121.196 307.383)" fill="#3100fe"/>
    <path id="Path_1714" data-name="Path 1714" d="M231.27-302.7a.81.81,0,0,0-.367.24.7.7,0,0,0-.2.518.759.759,0,0,0,.775.784.751.751,0,0,0,.7-.426.789.789,0,0,0-.358-1.059A.99.99,0,0,0,231.27-302.7Z" transform="translate(-224.679 307.481)" fill="#3100fe"/>
    <path id="Path_1715" data-name="Path 1715" d="M337.711-302.836a.847.847,0,0,0-.565.668.8.8,0,0,0,.47.807.647.647,0,0,0,.364.053.672.672,0,0,0,.5-.216.672.672,0,0,0,.216-.5.647.647,0,0,0-.053-.364A.8.8,0,0,0,337.711-302.836Z" transform="translate(-327.973 307.618)" fill="#3100fe"/>
  </g>
</svg>
