<svg xmlns="http://www.w3.org/2000/svg" width="46.239" height="19.596" viewBox="0 0 46.239 19.596">
  <g id="Group_18291" data-name="Group 18291" transform="translate(-12347.158 1023.837)">
    <path id="Path_3188" data-name="Path 3188" d="M478.695.148H449.466a.615.615,0,0,1-.132.7.711.711,0,0,1-.72.108v.68a1.764,1.764,0,0,1,.587.187.537.537,0,0,1,.264.421.59.59,0,0,1-.334.469,1.609,1.609,0,0,1-.517.141v.969a1.963,1.963,0,0,1,.587.2.543.543,0,0,1,.264.454.473.473,0,0,1-.264.454,2.609,2.609,0,0,1-.587.2v.654A6.911,6.911,0,0,1,451.5,6.953a4.024,4.024,0,0,1,1.467,2.888A4.122,4.122,0,0,1,451.5,13a7.3,7.3,0,0,1-2.891,1.133v.689a1.7,1.7,0,0,1,.627.211.573.573,0,0,1,.206.488.48.48,0,0,1-.206.463,2.045,2.045,0,0,1-.627.2v.629a1.555,1.555,0,0,1,.561.2.578.578,0,0,1,.272.433.77.77,0,0,1-.325.578,3.066,3.066,0,0,1-.508.193V18.8a1.408,1.408,0,0,1,.833.212.947.947,0,0,1,.168.733h29.08Z" transform="translate(11898.544 -1023.985)" fill="#ffc350"/>
    <path id="Path_3187" data-name="Path 3187" d="M448.614.148h10.175a.615.615,0,0,0,.132.7.711.711,0,0,0,.72.108v.68a1.763,1.763,0,0,0-.587.187.537.537,0,0,0-.264.421.59.59,0,0,0,.334.469,1.609,1.609,0,0,0,.517.141v.969a1.962,1.962,0,0,0-.587.2.543.543,0,0,0-.264.454.473.473,0,0,0,.264.454,2.608,2.608,0,0,0,.587.2v.654a6.911,6.911,0,0,0-2.891,1.161,4.024,4.024,0,0,0-1.467,2.888A4.122,4.122,0,0,0,456.75,13a7.3,7.3,0,0,0,2.891,1.133v.689a1.7,1.7,0,0,0-.627.211.573.573,0,0,0-.206.488.48.48,0,0,0,.206.463,2.045,2.045,0,0,0,.627.2v.629a1.555,1.555,0,0,0-.561.2.578.578,0,0,0-.272.433.77.77,0,0,0,.325.578,3.067,3.067,0,0,0,.508.193V18.8a1.408,1.408,0,0,0-.833.212.947.947,0,0,0-.168.733H448.614Z" transform="translate(11927.847 -1023.985)" fill="#ffa200"/>
    <text id="COUPON" transform="translate(12381.238 -1005.272) rotate(-90)" fill="#e00" font-size="4" font-family="Pangram-Bold, Pangram" font-weight="700"><tspan x="0" y="0">COUPON</tspan></text>
    <rect id="Rectangle_2486" data-name="Rectangle 2486" width="20" height="6" transform="translate(12353.947 -1013.725)" fill="#ffa200"/>
    <text id="Combo_offer_Price" data-name="Combo offer
Price" transform="translate(12353.947 -1019.341)" fill="#fff" font-size="3" font-family="Pangram-Medium, Pangram" font-weight="500"><tspan x="0" y="0">Combo offer</tspan><tspan x="0" y="4">Price</tspan></text>
    <path id="Path_3189" data-name="Path 3189" d="M0,0V16.611" transform="translate(12376.461 -1022.077)" fill="none" stroke="#fff" stroke-linecap="round" stroke-width="0.5" stroke-dasharray="3 2"/>
    <ellipse id="Ellipse_115" data-name="Ellipse 115" cx="1" cy="1.099" rx="1" ry="1.099" transform="translate(12384 -1022.341)" fill="#fff"/>
    <path id="Path_3190" data-name="Path 3190" d="M10.7,90.69s8.147,2.177,8.147,0S10.7,90.69,10.7,90.69Z" transform="translate(12374.3 -1111.8)" fill="none" stroke="#21211e" stroke-linecap="round" stroke-linejoin="round" stroke-miterlimit="10" stroke-width="0.5"/>
  </g>
</svg>
