<svg xmlns="http://www.w3.org/2000/svg" width="21.577" height="17.989" viewBox="0 0 21.577 17.989">
  <g id="point-of-sale_1_" data-name="point-of-sale (1)" transform="translate(-15.44 -95.448)">
    <path id="Path_2664" data-name="Path 2664" d="M-9.7-.046H4.644a.413.413,0,0,1,.3.2,2.646,2.646,0,0,1,.023.388c0,.059,0,.059,0,.12,0,.133,0,.266,0,.4q0,.143,0,.286,0,.388,0,.776,0,.406,0,.811,0,.681,0,1.363,0,.788,0,1.577,0,.676,0,1.352,0,.4,0,.808,0,.38,0,.76,0,.14,0,.279c0,.127,0,.254,0,.38,0,.056,0,.056,0,.112a.6.6,0,0,1-.1.388.469.469,0,0,1-.321.088H4.408l-.145,0H4.109l-.5,0H3.256l-.825,0-.94,0q-.966,0-1.933-.009v1.435c.287-.007.287-.007.574-.016H.241l.111,0a.412.412,0,0,1,.282.2,1.168,1.168,0,0,1,.018.292c0,.056,0,.112,0,.17l0,.177c0,.059,0,.118,0,.179q0,.219-.009.438H.79l1.449-.008.745,0,.719,0,.274,0h.384l.115,0a.714.714,0,0,1,.4.085,1.02,1.02,0,0,1,.089.562c0,.068,0,.068,0,.137,0,.15,0,.3,0,.449q0,.156,0,.312,0,.327,0,.653,0,.419,0,.838,0,.322,0,.644,0,.154,0,.309c0,.144,0,.288,0,.432,0,.043,0,.085,0,.129s0,.059,0,.119v.1a.453.453,0,0,1-.2.274.887.887,0,0,1-.251.023H-9.833a.431.431,0,0,1-.3-.2.571.571,0,0,1-.023-.2l0-.119v-.266c0-.15,0-.3,0-.449q0-.156,0-.312,0-.327,0-.653,0-.419,0-.838,0-.322,0-.644,0-.154,0-.309c0-.144,0-.288,0-.432v-.129a.78.78,0,0,1,.091-.433.916.916,0,0,1,.512-.084h.122l.4,0h.277l.728,0,.743,0,1.458.009,0-.112c0-.168-.006-.336-.008-.5l0-.177,0-.17,0-.157a.4.4,0,0,1,.2-.315.647.647,0,0,1,.214-.017h.109l.137,0,.437.011V10.023l-.475,0-1.551.006-.941,0-.907,0-.347,0h-.485l-.145,0h-.249a.378.378,0,0,1-.283-.2,2.651,2.651,0,0,1-.023-.388v-.12c0-.133,0-.266,0-.4q0-.143,0-.286,0-.388,0-.776,0-.406,0-.811,0-.681,0-1.363,0-.788,0-1.577,0-.676,0-1.352,0-.4,0-.808,0-.38,0-.76,0-.14,0-.279c0-.127,0-.254,0-.38V.432a.54.54,0,0,1,.1-.375A.456.456,0,0,1-9.7-.046Zm.287.74V2.847h7.893V.694ZM-.8.694V9.305H4.222V.694Zm-8.611,2.87V5h1.435V3.564Zm2.153,0V5h1.435V3.564Zm2.153,0V5h1.435V3.564Zm2.153,0V5h1.435V3.564ZM-9.412,5.717V7.152h1.435V5.717Zm2.153,0V7.152h1.435V5.717Zm2.153,0V7.152h1.435V5.717Zm2.153,0V7.152h1.435V5.717ZM-9.412,7.87V9.305h1.435V7.87Zm2.153,0V9.305h1.435V7.87Zm2.153,0V9.305h1.435V7.87Zm2.153,0V9.305h1.435V7.87ZM-4.03,10.023v1.435h2.87V10.023Zm-1.076,2.153v.718H-.083v-.718Zm-4.305,1.435V17.2H4.222V13.611H3.5c0,.081,0,.162,0,.245q0,.4-.009.8,0,.243,0,.485t-.005.468c0,.089,0,.177,0,.266l0,.163c0,.047,0,.095,0,.144a.3.3,0,0,1-.152.253.752.752,0,0,1-.2.017H-8.422a.307.307,0,0,1-.227-.151,1.263,1.263,0,0,1-.019-.262l0-.163V15.7q0-.09,0-.18,0-.237,0-.474t-.005-.484q-.006-.475-.009-.95Zm1.435,0v2.153h3.229l.045-1.256a.42.42,0,0,1,.4-.153H-.887c.25,0,.25,0,.4.153l.045,1.256H2.787V13.611Zm3.947,1.435v.718h2.87v-.718Z" transform="translate(32.053 95.497)" fill="#fff"/>
    <path id="Path_2665" data-name="Path 2665" d="M-25.307-.143a.87.87,0,0,1,.4.239,1.853,1.853,0,0,0,.46.32l.124-.106.162-.138.082-.07a.721.721,0,0,1,.566-.241A.859.859,0,0,1-23.1.124a.647.647,0,0,0,.482.247c.133-.1.258-.206.382-.318a.664.664,0,0,1,.434-.2.4.4,0,0,1,.35.206,1.992,1.992,0,0,1,.02.337c0,.034,0,.067,0,.1,0,.111,0,.222,0,.333q0,.116,0,.232,0,.3,0,.609c0,.207,0,.414,0,.621q0,.609-.009,1.219l.107.041a.975.975,0,0,1,.277.166l.076.061a1.635,1.635,0,0,1,.282,1.214q0,.112,0,.223,0,.233,0,.466c0,.2,0,.4,0,.6q0,.23,0,.461,0,.11,0,.22c0,.1,0,.205,0,.307,0,.058,0,.117,0,.177a.408.408,0,0,1-.2.326.722.722,0,0,1-.225.023l-.137,0h-1.941q-.436,0-.872,0h-1.845l-.137,0h-.119a.435.435,0,0,1-.285-.2,1.434,1.434,0,0,1-.023-.323v-.1c0-.107,0-.213,0-.32q0-.111,0-.223,0-.234,0-.467c0-.2,0-.4,0-.6q0-.23,0-.461,0-.11,0-.22c0-.778,0-.778.294-1.116l.09-.074.09-.077a.684.684,0,0,1,.269-.105V3.38q-.005-.606-.008-1.212,0-.311,0-.623t0-.6q0-.115,0-.229c0-.107,0-.214,0-.321l0-.1a.5.5,0,0,1,.1-.351A.506.506,0,0,1-25.307-.143Zm1.662.872c-.1.077-.2.155-.294.241-.331.292-.331.292-.541.314-.2-.017-.2-.017-.555-.241V3.465h2.87V1.043l-.359.224a.579.579,0,0,1-.444-.046c-.085-.062-.164-.128-.243-.2A1.313,1.313,0,0,0-23.645.729Zm-2.018,3.588a.852.852,0,0,0-.1.48c0,.051,0,.1,0,.154v.161c0,.049,0,.1,0,.149q0,.275,0,.55l.006,1.242h4.305l.008-1.239,0-.39q0-.153,0-.307l0-.16a1,1,0,0,0-.15-.685,1.13,1.13,0,0,0-.575-.1h-1.185l-.639,0h-1.155A.856.856,0,0,0-25.663,4.317Z" transform="translate(41.936 105.642)" fill="#fff"/>
    <path id="Path_2666" data-name="Path 2666" d="M0,0H2.87V.718H0Z" transform="translate(16.901 110.901)" fill="#fff"/>
    <path id="Path_2667" data-name="Path 2667" d="M0,0H2.153V.718H0Z" transform="translate(31.97 102.649)" fill="#fff"/>
    <path id="Path_2668" data-name="Path 2668" d="M0,0H2.153V.718H0Z" transform="translate(31.97 101.214)" fill="#fff"/>
    <path id="Path_2669" data-name="Path 2669" d="M0,0H2.153V.718H0Z" transform="translate(31.97 99.779)" fill="#fff"/>
    <path id="Path_2670" data-name="Path 2670" d="M0,0H2.153V.718H0Z" transform="translate(31.97 98.343)" fill="#fff"/>
    <path id="Path_2671" data-name="Path 2671" d="M0,0H1.435V.718H0Z" transform="translate(17.618 107.672)" fill="#fff"/>
    <path id="Path_2672" data-name="Path 2672" d="M0,0H.718V.718H0Z" transform="translate(34.84 102.649)" fill="#fff"/>
    <path id="Path_2673" data-name="Path 2673" d="M0,0H.718V.718H0Z" transform="translate(34.84 101.214)" fill="#fff"/>
    <path id="Path_2674" data-name="Path 2674" d="M0,0H.718V.718H0Z" transform="translate(34.84 99.779)" fill="#fff"/>
    <path id="Path_2675" data-name="Path 2675" d="M0,0H.718V.718H0Z" transform="translate(34.84 98.343)" fill="#fff"/>
    <path id="Path_2676" data-name="Path 2676" d="M0,0H.718V.718H0Z" transform="translate(29.1 96.908)" fill="#fff"/>
    <path id="Path_2677" data-name="Path 2677" d="M0,0H.718V.718H0Z" transform="translate(27.664 96.908)" fill="#fff"/>
    <path id="Path_2678" data-name="Path 2678" d="M0,0H.718V.718H0Z" transform="translate(26.229 96.908)" fill="#fff"/>
  </g>
</svg>
