<svg xmlns="http://www.w3.org/2000/svg" width="10.498" height="7.012" viewBox="0 0 10.498 7.012">
  <g id="Group_15134" data-name="Group 15134" transform="translate(0 0)">
    <g id="Group_14879" data-name="Group 14879" transform="translate(0.406 0.232)">
      <path id="Path_2469" data-name="Path 2469" d="M365.442,218.934h.6l1.095-.076h1.154l1.562.4.225,2.3v3.35s-2.829.373-4.731.406a10.1,10.1,0,0,0-1.574,0c-.58.058-1.163,0-1.916,0a2.578,2.578,0,0,1-1.583-.548v-4.731l.423-.87,3.076-.265.75.038h.917Z" transform="translate(-360.277 -218.857)" fill="#dc1412" opacity="0.12"/>
    </g>
    <path id="Icon_payment-cash" data-name="Icon payment-cash" d="M16.948,16.7v6.315a.45.45,0,0,1-.1.246.335.335,0,0,1-.246.1H6.8a.334.334,0,0,1-.246-.1.448.448,0,0,1-.1-.246V16.7a.449.449,0,0,1,.1-.246.336.336,0,0,1,.246-.1h9.8a.336.336,0,0,1,.246.1.452.452,0,0,1,.1.246Zm-.7,4.552V18.462a1.341,1.341,0,0,1-.984-.41,1.365,1.365,0,0,1-.41-1H8.541a1.366,1.366,0,0,1-.41,1,1.342,1.342,0,0,1-.984.41V21.25a1.343,1.343,0,0,1,.984.41,1.367,1.367,0,0,1,.41,1h6.315a1.366,1.366,0,0,1,.41-1,1.343,1.343,0,0,1,.984-.41Zm-2.809-1.394a3.593,3.593,0,0,1-.1.779,2.628,2.628,0,0,1-.328.738,1.782,1.782,0,0,1-.554.554,1.506,1.506,0,0,1-1.517,0,1.776,1.776,0,0,1-.554-.554,2.621,2.621,0,0,1-.328-.738,3.012,3.012,0,0,1,0-1.558,2.62,2.62,0,0,1,.328-.738,1.782,1.782,0,0,1,.554-.554,1.506,1.506,0,0,1,1.517,0,1.791,1.791,0,0,1,.554.554,2.629,2.629,0,0,1,.328.738,3.59,3.59,0,0,1,.1.779ZM10.653,21.25h2.091v-.513h-.7V18.277h-.615l-.82.759.431.431a3.358,3.358,0,0,0,.287-.308h.02v1.579h-.7v.513Z" transform="translate(-6.449 -16.35)" fill="#dc1212"/>
  </g>
</svg>
