<svg xmlns="http://www.w3.org/2000/svg" width="16.967" height="16.962" viewBox="0 0 16.967 16.962">
  <g id="receipt_2_" data-name="receipt (2)" transform="translate(0.709 0.539)">
    <path id="Path_2764" data-name="Path 2764" d="M-242.59-.147h6.606c.7,0,.7,0,1.025.149l.082.038a1.854,1.854,0,0,1,.91,1.119,1.106,1.106,0,0,1,.037.349c0,.022,0,.043,0,.066q0,.109,0,.218,0,.078,0,.156,0,.212,0,.425t0,.444q0,.42,0,.84,0,.478,0,.957,0,.984,0,1.968h-.727c0-.064,0-.128,0-.194q0-.9-.006-1.807,0-.464,0-.929,0-.4,0-.81,0-.214,0-.429t0-.4q0-.074,0-.148a1.282,1.282,0,0,0-.314-.975,1.123,1.123,0,0,0-.772-.262h-.576l-.556,0-.58,0-1.1,0L-239.824.6-242.4.594V.667q.006.347.009.694,0,.178,0,.357t0,.345c0,.065,0,.129,0,.194a1.266,1.266,0,0,1-.324.879,1.36,1.36,0,0,1-1.029.277l-.133,0-.321-.008V2.676l.161,0,.209-.007.106,0,.1,0,.094,0a.488.488,0,0,0,.308-.127.682.682,0,0,0,.055-.377c0-.028,0-.057,0-.086,0-.091,0-.181,0-.272q0-.092,0-.185,0-.226,0-.452-.4.366-.787.741c-.121.116-.242.231-.365.344a2.192,2.192,0,0,0-.945,1.335,2.867,2.867,0,0,0,.048.522h.089l.836-.006.43,0,.415,0h.158a1.629,1.629,0,0,1,1.213.411,1.481,1.481,0,0,1,.4,1.006,1.457,1.457,0,0,1-.408,1.022,1.884,1.884,0,0,1-1.448.429h-.147l-.382,0-.392,0-.765,0q0,1.558.008,3.117v.368c0,.037,0,.037,0,.074q0,.593,0,1.186,0,.609,0,1.217,0,.375,0,.751,0,.288,0,.576,0,.118,0,.236,0,.161,0,.323c0,.031,0,.062,0,.094a1.306,1.306,0,0,0,.311.885,1.177,1.177,0,0,0,.855.273h3.517l1.283,0h3.459a1.138,1.138,0,0,0,.812-.313,1.072,1.072,0,0,0,.262-.706c0-.044,0-.087,0-.132s0-.1,0-.145,0-.1,0-.152q0-.207,0-.414t0-.433q0-.41,0-.82,0-.467.005-.933.006-.96.011-1.92h.727q0,1.024.007,2.049,0,.476,0,.951,0,.415,0,.83,0,.219,0,.439t0,.414q0,.076,0,.151a1.886,1.886,0,0,1-.532,1.406,1.63,1.63,0,0,1-1.063.477h-3.825l-1.321,0-1.358,0h-2.205a1.779,1.779,0,0,1-1.249-.546,1.841,1.841,0,0,1-.47-1.308c0-.034,0-.067,0-.1q0-.165,0-.33,0-.115,0-.23,0-.3,0-.6t0-.616q0-.6,0-1.208l-.117,0-.437,0-.188,0a2.735,2.735,0,0,1-1.9-.57l-.105-.079a2.251,2.251,0,0,1-.523-.715v-.066l-.131,0-.482.005-.208,0-.3,0-.094,0a.538.538,0,0,1-.342-.078c-.192-.209-.1-.274-.1-.665h1.422l-.033-.1V9.388h.76l.023.207a1.72,1.72,0,0,0,.649,1.161,3.494,3.494,0,0,0,2.106.384v-4.2h-1.058V6.214l.35,0L-245.5,6.2l.7,0,.671,0,.256,0,.359,0h.106a1.142,1.142,0,0,0,.778-.209.842.842,0,0,0,.165-.661.732.732,0,0,0-.36-.417,1.387,1.387,0,0,0-.547-.058h-3.536a1.813,1.813,0,0,0-1.284.482,1.967,1.967,0,0,0-.521,1.251h-.76a1.028,1.028,0,0,1,.033-.364h-1.422c0-.5,0-.5.074-.624a.5.5,0,0,1,.363-.107h.741l.475,0,.031-.078A2.3,2.3,0,0,1-248,4.277a3.29,3.29,0,0,1,1.386-.187l.2,0,.48.006,0-.105c0-.13-.007-.259-.009-.389q0-.084,0-.168c0-.081,0-.161-.005-.242l0-.075a.492.492,0,0,1,.177-.4l.081-.079.1-.105q.158-.16.318-.319l.214-.214.532-.53.451-.449.21-.209c.278-.276.278-.276.539-.568A.858.858,0,0,1-242.59-.147Z" transform="translate(250.176 -0.388)" fill="#fff"/>
    <path id="Path_2765" data-name="Path 2765" d="M-278.72-6.533a.978.978,0,0,1,.355.574,1.182,1.182,0,0,1-.19.9c-.223.244-.452.483-.681.721l-.065.067q-.64.664-1.287,1.32-.409.417-.814.837c-3.051,3.18-3.051,3.18-5.008,3.232-.194,0-.387-.013-.58-.03-.144-.011-.288-.015-.432-.02-.277-.011-.552-.028-.828-.05V.29L-286,.257l.288-.73c.078-.169.156-.333.247-.494l.037-.065a14.116,14.116,0,0,1,2.593-2.838q.442-.428.879-.862.646-.638,1.3-1.27l.139-.135.19-.185.055-.054A1.181,1.181,0,0,1-278.72-6.533Zm-1.182.849-.059.059-.185.187-.126.127L-280.58-5a.986.986,0,0,0,.236.306l.091.089.07.068a1,1,0,0,0,.338-.264l.059-.059.123-.124.188-.189.12-.12.057-.057a.559.559,0,0,0,.217-.34.441.441,0,0,0-.11-.269C-279.475-6.157-279.711-5.879-279.9-5.684Zm-1.293,1.3-.069.069-.079.079-.088.088-.092.092-.25.25-.261.261-.495.5-.563.564-1.158,1.16a.985.985,0,0,0,.236.306l.091.089.07.068a.807.807,0,0,0,.264-.19l.078-.078.085-.085.09-.09.243-.244.255-.255.482-.483.549-.55,1.129-1.132-.095-.111-.053-.063c-.056-.065-.115-.127-.176-.188l-.059-.059C-281.128-4.456-281.128-4.451-281.194-4.389Zm-3.518,3.72-.1.194-.056.109c-.048.086-.048.086-.043.159a2.6,2.6,0,0,0,.463-.2l-.1-.114-.053-.064A.205.205,0,0,0-284.712-.669Z" transform="translate(294.607 13.636)" fill="#fff"/>
    <path id="Path_2766" data-name="Path 2766" d="M-135.1-17.877c.084.074.165.15.245.228l.077.076a2.886,2.886,0,0,1,.761,1.924,2.926,2.926,0,0,1-.541,1.67l-.073.1a2.814,2.814,0,0,1-1.811,1.058,2.94,2.94,0,0,1-2.137-.533l-.145-.128-.06-.046a2.718,2.718,0,0,1-.922-1.762,2.932,2.932,0,0,1,.576-2.1A2.883,2.883,0,0,1-135.1-17.877Zm-3.292.79-.063.061a2.015,2.015,0,0,0-.51,1.469,2.125,2.125,0,0,0,.64,1.445,2.225,2.225,0,0,0,1.678.569,2.122,2.122,0,0,0,1.379-.727,2.294,2.294,0,0,0,.48-1.726,2.1,2.1,0,0,0-.661-1.19l-.052-.055a2.115,2.115,0,0,0-1.37-.519A2.154,2.154,0,0,0-138.39-17.087Z" transform="translate(148.88 19.706)" fill="#fff"/>
    <path id="Path_2767" data-name="Path 2767" d="M0,0H4.959V.727H0Z" transform="translate(6.357 8.637)" fill="#fff"/>
    <path id="Path_2768" data-name="Path 2768" d="M0,0H3.207V.727H0Z" transform="translate(6.357 10.389)" fill="#fff"/>
    <path id="Path_2769" data-name="Path 2769" d="M0,0H3.174V.727H0Z" transform="translate(10.952 13.926)" fill="#fff"/>
    <path id="Path_2770" data-name="Path 2770" d="M-61.884,0l.11.094.062.053c.078.068.15.139.222.213l.077.078.057.058a.831.831,0,0,1-.2.271l-.081.082-.088.087-.09.09L-62,1.214l-.241.241-.231.23-.087.088-.082.081-.071.071a.484.484,0,0,1-.311.137.8.8,0,0,1-.482-.3l-.088-.089-.091-.092-.093-.094L-64,1.256a1.164,1.164,0,0,1,.26-.341l.053-.056a1.232,1.232,0,0,1,.149-.132c.147.014.225.115.322.217l.051.052.123.128c.16-.133.31-.273.457-.42l.061-.061.191-.192L-62.2.319Z" transform="translate(74.688 3.082)" fill="#fff"/>
    <path id="Path_2771" data-name="Path 2771" d="M0,0H2.149V.727H0Z" transform="translate(6.357 12.174)" fill="#fff"/>
    <path id="Path_2772" data-name="Path 2772" d="M0,0H1.422V.727H0Z" transform="translate(12.705 12.174)" fill="#fff"/>
  </g>
</svg>
