<svg xmlns="http://www.w3.org/2000/svg" width="8.491" height="8.491" viewBox="0 0 8.491 8.491">
  <path id="Icon_metro-brightness" data-name="Icon metro-brightness" d="M6.816,4.051A2.123,2.123,0,1,0,8.939,6.173,2.123,2.123,0,0,0,6.816,4.051Zm0,3.449V4.847a1.327,1.327,0,0,1,0,2.653Zm0,1.327a.531.531,0,0,1,.531.531v.531a.531.531,0,1,1-1.061,0V9.357A.531.531,0,0,1,6.816,8.827Zm0-5.307a.531.531,0,0,1-.531-.531V2.459a.531.531,0,0,1,1.061,0v.531A.531.531,0,0,1,6.816,3.52Zm3.715,2.123a.531.531,0,1,1,0,1.061H10a.531.531,0,0,1,0-1.061h.531Zm-6.368.531a.531.531,0,0,1-.531.531H3.1a.531.531,0,0,1,0-1.061h.531A.531.531,0,0,1,4.163,6.173ZM9.443,8.05l.375.375a.531.531,0,0,1-.75.75L8.692,8.8a.531.531,0,0,1,.75-.75ZM4.189,4.3l-.375-.375a.531.531,0,0,1,.75-.75l.375.375a.531.531,0,0,1-.75.75Zm5.253,0a.531.531,0,0,1-.75-.75l.375-.375a.531.531,0,1,1,.75.75ZM4.189,8.05a.531.531,0,1,1,.75.75l-.375.375a.531.531,0,0,1-.75-.75Z" transform="translate(-2.571 -1.928)" fill="#fff"/>
</svg>
