<svg id="Icon_ionic-ios-wallet" data-name="Icon ionic-ios-wallet" xmlns="http://www.w3.org/2000/svg" width="9.191" height="8.485" viewBox="0 0 9.191 8.485">
  <path id="Path_2502" data-name="Path 2502" d="M11.241,11.25H4.7a1.327,1.327,0,0,0-1.326,1.326v3.712A1.327,1.327,0,0,0,4.7,17.613h6.54a1.327,1.327,0,0,0,1.326-1.326V12.576A1.327,1.327,0,0,0,11.241,11.25Z" transform="translate(-3.375 -9.129)" fill="#d90810"/>
  <path id="Path_2503" data-name="Path 2503" d="M10.662,4.522,5.472,5.536c-.4.088-.972.488-.972.974a1.392,1.392,0,0,1,1.083-.42h6.341V5.637a1.269,1.269,0,0,0-.307-.831h0A1.045,1.045,0,0,0,10.662,4.522Z" transform="translate(-4.146 -4.499)" fill="#d90810"/>
</svg>
