<svg xmlns="http://www.w3.org/2000/svg" width="7.458" height="7.459" viewBox="0 0 7.458 7.459">
  <g id="download-circular-button" transform="translate(0 0)">
    <path id="Path_1021" data-name="Path 1021" d="M3.979-511.559a3.814,3.814,0,0,0-2.009.825,4.553,4.553,0,0,0-.561.565,3.912,3.912,0,0,0-.723,1.493,3.134,3.134,0,0,0-.088.839A3.135,3.135,0,0,0,.688-507a3.883,3.883,0,0,0,.743,1.518,4.557,4.557,0,0,0,.565.561,3.913,3.913,0,0,0,1.493.723,3.135,3.135,0,0,0,.839.088,3.135,3.135,0,0,0,.839-.088,4.058,4.058,0,0,0,1.209-.515,3.737,3.737,0,0,0,1.3-1.483,3.7,3.7,0,0,0,.352-1.131,4.98,4.98,0,0,0,0-1.022,3.7,3.7,0,0,0-.352-1.131,3.536,3.536,0,0,0-.727-1.01,3.466,3.466,0,0,0-.982-.7,3.688,3.688,0,0,0-1.117-.35A5.626,5.626,0,0,0,3.979-511.559Zm.867.495a3.136,3.136,0,0,1,.934.3,3.287,3.287,0,0,1,1.708,2.089,2.82,2.82,0,0,1,.1.838,2.82,2.82,0,0,1-.1.838A3.288,3.288,0,0,1,5.78-504.91a3.16,3.16,0,0,1-.942.3,3.864,3.864,0,0,1-1.022,0,3.16,3.16,0,0,1-.942-.3A3.288,3.288,0,0,1,1.168-507a2.82,2.82,0,0,1-.1-.838,2.82,2.82,0,0,1,.1-.838,3.452,3.452,0,0,1,.423-.95,3.282,3.282,0,0,1,2.423-1.467A4.316,4.316,0,0,1,4.846-511.064Z" transform="translate(-0.6 511.567)" fill="#f10000"/>
    <path id="Path_1022" data-name="Path 1022" d="M148.538-383.668a.248.248,0,0,0-.123.13c-.012.028-.016.444-.016,1.3v1.258l-.5-.5c-.276-.274-.52-.507-.542-.515a.234.234,0,0,0-.3.311c.026.06,1.39,1.42,1.444,1.441a.574.574,0,0,0,.254,0c.047-.018,1.41-1.372,1.444-1.433a.257.257,0,0,0,.02-.1.232.232,0,0,0-.326-.212c-.026.012-.266.239-.536.511l-.489.49-.007-1.276c-.007-1.261-.007-1.277-.038-1.317a.374.374,0,0,0-.067-.069A.271.271,0,0,0,148.538-383.668Z" transform="translate(-144.905 385.551)" fill="#f10000"/>
  </g>
</svg>
